<?xml version="1.0" encoding="utf-8"?>
<!-- Generator: Adobe Illustrator 16.0.2, SVG Export Plug-In . SVG Version: 6.00 Build 0)  -->
<!DOCTYPE svg PUBLIC "-//W3C//DTD SVG 1.1//EN" "http://www.w3.org/Graphics/SVG/1.1/DTD/svg11.dtd">
<svg version="1.1" id="Layer_1" xmlns="http://www.w3.org/2000/svg" xmlns:xlink="http://www.w3.org/1999/xlink" x="0px" y="0px"
	 width="208.833px" height="100px" viewBox="0 0 208.833 100" enable-background="new 0 0 208.833 100" xml:space="preserve">
<rect x="3" y="2.383" display="none" fill="#FFFFFF" stroke="#B3B3B3" stroke-miterlimit="10" width="203.833" height="95.617"/>
<g display="none">
	<path display="inline" fill="#FEFDFD" d="M106.383,93.316c-21.527,0-43.056-0.033-64.583,0.053
		c-1.899,0.006-2.286-0.383-2.281-2.281c0.076-29.27,0.076-58.539,0-87.809C39.515,1.381,39.902,0.997,41.8,1
		c43.055,0.067,86.113,0.067,129.167,0c1.896-0.003,2.285,0.381,2.281,2.279c-0.078,29.27-0.078,58.54,0,87.809
		c0.004,1.898-0.383,2.287-2.281,2.281C149.439,93.283,127.913,93.316,106.383,93.316z M148.946,30.332
		c0.035-0.905,0.092-1.826-1.238-1.784c-2.473-2.422-4.722-5.083-7.599-7.071c-3.103-3.155-7.274-5.007-11.147-6.174
		c-4.78-1.438-9.627-3.105-14.687-3.855c-2.217-0.329-4.639,0.7-6.675-0.849c-5.076-1.114-10.151-1.015-15.227-0.002
		c-2.634-0.052-5.182,0.472-7.709,1.14l-0.054,0.052c-0.594,0.056-1.188,0.111-1.782,0.167c-2.086-0.367-3.813,0.845-5.714,1.297
		c-0.526-0.097-1.021-0.105-1.308,0.469c-3.334,1.591-7.077,2.246-10.157,4.42c-4.174,1.246-7.001,4.493-10.354,6.962
		c-2.882,2.122-4.609,5.001-5.575,8.391c-2.377,3.491-1.251,7.159-0.542,10.805c-0.1,0.374,0.062,0.592,0.417,0.692
		c0.13,1.718,2.234,3.612-0.456,5.077c-3.118,1.98-2.75,4.749-1.729,7.663c0.403,3.34,2.135,6.373,2.551,9.637
		c0.53,4.15,2.896,6.814,5.836,9.273c0.727,0.346,1.453,0.692,2.179,1.039c1.295,1.102,2.809,1.801,4.385,2.391
		c1.098,0.584,2.197,1.172,3.295,1.758c2.184,1.033,4.265,2.328,6.733,2.631c2.059,1.082,4.373,1.193,6.574,1.736
		c5.095,0.883,10.179,2.059,15.353,0.504c0.656-0.047,1.312-0.096,1.967-0.143c0.17-0.084,0.339-0.168,0.509-0.255
		c4.056-0.604,8.111-1.211,12.167-1.815c2.793,0.01,5.557-0.262,8.279-0.9c1.709,0.113,3.385-0.092,5.039-0.52
		c0.424-0.012,0.852-0.027,1.276-0.041c0.437-0.008,0.87-0.017,1.307-0.023c1.3-0.104,2.601-0.207,3.897-0.313
		c0.441,0.305,0.851,0.262,1.23-0.107c2.52-0.051,5.038-0.105,7.559-0.156c1.063,0.012,2.127,0.027,3.188,0.041
		c2.517,0.744,5.106,0.627,7.681,0.666c1.304,1.172,2.895,0.414,4.336,0.648c0.414,0.941,1.273,0.566,1.974,0.668
		c0.337,0.434,0.774,0.621,1.321,0.533c0.634,0.188,1.269,0.371,1.902,0.559c0.832,0.258,1.666,0.516,2.5,0.773
		c2.52,1.49,5.038,2.979,8.198,4.85c-1.688-4.613-3.753-8.123-6.206-11.428c-0.55-1.65-1.751-2.869-2.779-4.203
		c-0.64-1.158-1.467-2.373,0.813-2.625c3.104,0.398,6.208,0.799,9.757,1.256c-2.525-4.211-6.169-6.215-9.77-8.273
		c-1.459-1.272-3.256-1.647-5.094-1.918c-0.257-0.576-0.748-0.541-1.248-0.481c-2.574-0.298-4.965-1.617-7.636-1.377l0.007,0.008
		c-0.451-0.697-0.904-0.72-1.359-0.004c-0.948,0.01-1.903-0.052-2.844,0.047c-2.246,0.229-2.151-0.937-1.539-2.457
		c0.194-0.103,0.39-0.201,0.584-0.304c1.511,0.08,2.215-0.875,2.709-2.104c0.384-0.332,0.767-0.668,1.15-1.002
		c1.504-0.133,2.344-0.908,2.387-2.459c0.328-0.391,0.652-0.785,0.979-1.176c3.67-2.703,5.808-9.934,4.136-13.996
		c-0.105-0.612-0.213-1.224-0.318-1.835c-0.09-2.695-0.795-5.067-3.392-6.442L148.946,30.332z"/>
	<path display="inline" fill="#F0C784" d="M94.318,86.695c-5.174,1.557-10.258,0.381-15.353-0.502
		c-1.88-1.756-4.193-1.875-6.574-1.736c-2.468-0.303-4.549-1.598-6.733-2.631c0.053-0.906,0.601-1.268,1.44-1.313
		c1.87,1.12,2.71,0.844,2.224-1.537c-0.273-1.334-0.349-2.711-0.519-4.066c-0.121-0.961-0.046-1.699,1.269-1.422
		c0.466,0.102,1.133,0.26,1.255-0.484c0.138-0.836-0.524-1.092-1.161-1.139c-2.424-0.188-4.554-1.676-7.04-1.555
		c0.018-0.568,0.035-1.136,0.053-1.701c0.618-0.041,1.236-0.08,1.854-0.121c0.435,0.84,1.194,0.68,1.919,0.621
		c0.64,1.031,1.638,0.647,2.539,0.645c3.746,3.229,8.504,1.514,12.689,2.604c0.219,0.328,0.447,0.347,0.69,0.025
		c2.519,0.012,5.036,1.117,7.557,0.012c0.021,0.406,0.044,0.813,0.066,1.217c-0.843,0.302-1.233,1.021-1.524,1.771
		c-0.714,1.848-1.535,0.867-2.362,0.125c-0.665-0.629-1.489-1.01-2.231-0.367c-0.486,0.42-0.204,1.088,0.161,1.699
		c0.814,1.355,0.192,2.758,0.059,4.285c-1.386-0.637-1.9-1.547-1.75-2.836c0.092-0.789,0.013-1.574-0.86-1.785
		c-0.977-0.238-1.806,0.291-2.523,0.922c-0.893,0.783,0.045,1.371,0.35,1.879c0.66,1.098,1.521,2.072,2.813,3.773
		c-2.788-1.217-5.379-1.365-4.9-4.699c0.174-1.219-0.306-2.131-1.611-2.227c-1.376-0.103-2.85-1.279-4.133,0.24
		c-1.095,1.297-1.079,2.787-0.343,4.146c0.8,1.479,1.98,2.545,3.866,1.473c0.171-0.096,0.527-0.188,0.588-0.112
		c3.147,3.875,8.017-0.486,11.436,2.375c0.507,0.424,1.212-0.619,1.726-1.133l0.297,0.004l0.297-0.027
		c0.634,0.434,1.267,0.867,1.9,1.303C92.458,85.342,94.273,85.02,94.318,86.695z"/>
	<path display="inline" fill="#8F5F2F" d="M137.551,82.424c-2.521,0.051-5.04,0.105-7.559,0.156c-0.41,0.037-0.82,0.072-1.232,0.107
		c-1.299,0.104-2.6,0.209-3.897,0.313c-0.332-1.051,0.679-2.697-1.325-3.016c-0.229-0.246-0.459-0.488-0.69-0.734
		c1.147-1.072,4.981-1.229,1.334-3.982c-0.261-0.197,0.016-1.201,0.147-1.805c0.25-1.117,0.618-2.209,0.857-3.33
		c0.214-0.998,0.682-2.139-0.189-2.973c-1.174-1.123-1.621,1.014-2.668,0.758c0.551-0.955-0.25-1.428-0.723-2.016
		c1.965-1.01,4.105-1.193,6.256-1.346c0.303-0.035,0.857-0.039,0.868-0.111c0.479-3.807,3.502-3.812,6.254-4.217
		c0.015,0.424,0.026,0.848,0.041,1.271l-0.015,0.008c-0.252,0.009-0.502,0.017-0.754,0.021c-0.656,0.658-1.799,0.796-2.03,1.904
		c-0.354,0.096-0.713,0.193-1.069,0.289c2.454,1.48,0.973,3.469,0.682,5.303c-3.744,2.736-1.592,7.15-2.924,10.604
		c-0.287,0.748,1.295,1.332,2.213,1.299c0.908-0.034,1.797-0.508,2.695-0.786c0.031,0.649-0.917,1.707,0.708,1.696
		c1.021-0.01,2.041-0.012,3.062-0.017l0.011,0.009C137.579,82.029,137.56,82.225,137.551,82.424z"/>
	<path display="inline" fill="#DBB978" d="M86.608,75.508c0.827,0.742,1.648,1.723,2.362-0.125c0.291-0.752,0.682-1.471,1.523-1.773
		c1.4,1.275,3.116,2.443,4.913,1.912c2.808-0.83,5.599-0.521,8.398-0.676c0.316,2.291-0.329,4.637,0.366,6.906
		c0.171,0.557,0.154,1.438,1.058,1.166c0.369-0.111,0.571-0.777,0.851-1.191c1.723,0.119,1.74,2.025,2.881,2.758
		c-4.056,0.605-8.11,1.211-12.167,1.816c-0.193,0.039-0.362,0.123-0.509,0.254c-0.655,0.047-1.311,0.096-1.967,0.141
		c-0.045-1.676-1.859-1.354-2.57-2.274c1.632,0.457,3.003-1.688,4.626-0.563c1.29,0.891,1.853,0.063,2.588-0.717
		c1.979-2.095,0.6-3.636-0.82-5.164c-0.602-0.648-0.54-2.584-1.982-1.591c-0.936,0.646-0.478,2.14,0.071,3.183
		c0.288,0.547,0.905,0.928,1.15,1.483c0.241,0.548,0.324,1.354-0.633,1.394c-1.608,0.063-3.222,0.016-5.33,0.016
		c0.984-1.076,1.574-1.668,2.101-2.311c0.966-1.181,1.418-2.517,0.004-3.57c-1.382-1.035-2.348,0.104-3.166,1.088
		c-1.01,1.217-0.801,2.799-1.138,4.219c-0.626,0.051-1.35,1.213-1.828,0.094c-0.392-0.916-0.795-2.299,0.192-2.942
		c1.851-1.207,0.745-1.356-0.384-1.83C86.541,76.93,86.667,76.131,86.608,75.508z"/>
	<path display="inline" fill="#EEBA6B" d="M75.807,13.72c0.287-0.575,0.782-0.566,1.308-0.47c2.28,1.224,4.083,0.34,5.714-1.297
		c0.595-0.055,1.188-0.111,1.784-0.166c0.113,0.095,0.225,0.189,0.337,0.284c-0.096-0.112-0.19-0.224-0.285-0.336
		c2.527-0.668,5.075-1.192,7.709-1.14c5.075,0.001,10.15,0.001,15.227,0.002c2.036,1.549,4.458,0.52,6.675,0.849
		c5.061,0.75,9.905,2.417,14.686,3.856c3.873,1.167,8.047,3.019,11.148,6.174c-0.016,0.623-0.029,1.246-0.046,1.869
		c-2.151-0.404-3.646-2.017-5.479-2.979c-12.174-6.398-25.226-8.938-38.913-8.505c-1.106,0.035-2.118,0.121-2.686,1.245
		c-5.815,0.185-11.533,1.021-17.145,2.565C75.83,15.02,75.818,14.37,75.807,13.72z"/>
	<path display="inline" fill="#BE8A41" d="M49.596,44.99c-0.355-0.1-0.517-0.318-0.417-0.692c0.512-0.29,0.578-0.796,0.637-1.306
		c0.611,0.022,1.222,0.044,1.833,0.066c0.022,0.519,0.087,1.015,0.641,1.264c-0.016,1.472,1.443,2.031,1.962,3.171
		c2.217,4.422,5.771,7.422,10.152,9.541c0.336,0.881,0.975,1.295,1.914,1.246c2.481,1.762,5.4,2.395,8.253,3.194
		c0.889,0.894,2.044,1.086,3.221,1.221c0.411,0.017,0.821,0.033,1.232,0.05c0.279,0.551,0.758,0.655,1.313,0.59
		c1.683,0.231,3.366,0.463,5.049,0.692c0.295,0.548,0.772,0.642,1.33,0.539c1.466,0.033,2.932,0.064,4.398,0.097
		c-0.001,0.229-0.002,0.457-0.003,0.685c-0.858,2.163-3.291,0.481-4.481,1.834c-4.866-1.048-9.731-2.097-14.597-3.146
		c-1.899-2.541-4.873-2.943-7.605-3.828c-2.075-1.897-4.564-3.166-6.973-4.558c-2.244-2.323-3.987-5.01-5.629-7.771
		C51.203,46.829,51.058,45.396,49.596,44.99z"/>
	<path display="inline" fill="#AB782C" d="M55.799,76.643c-2.94-2.463-5.306-5.127-5.836-9.276
		c-0.417-3.265-2.148-6.298-2.551-9.638c2.062,1.613,3.52,3.97,6.084,4.965l0.159,0.154c0.202,0.365,0.402,0.729,0.604,1.094
		c-0.188,1.326,0.766,2.457,0.758,3.681C55,70.662,57.536,73.475,55.799,76.643z"/>
	<path display="inline" fill="#EEBA6B" d="M52.291,44.32c-0.554-0.248-0.619-0.744-0.641-1.263c-0.39-1.573-0.721-3.14-0.641-4.792
		c0.105-2.191-0.85-0.271-1.311-0.293c0.008-1.493,0.016-2.986,0.024-4.479c0.965-3.39,2.693-6.269,5.575-8.391
		c3.352-2.469,6.179-5.716,10.354-6.962c0.017,0.48,0.035,0.959,0.051,1.438c-1.305,0.862-2.677,1.64-3.903,2.604
		c-3.575,2.808-7.225,5.593-7.74,10.639c-0.575,0.021-1.151,0.042-1.727,0.061c-0.096-0.048-0.191-0.097-0.286-0.146
		c0.09,0.054,0.179,0.108,0.27,0.163c0.467,1.265,0.368,2.527-0.021,3.787C52.293,39.231,52.292,41.776,52.291,44.32z"/>
	<path display="inline" fill="#D6A659" d="M140.063,23.345c0.016-0.623,0.029-1.246,0.046-1.869
		c2.877,1.988,5.126,4.649,7.599,7.071c-0.014,0.89,0.459,1.444,1.238,1.784l0.042,0.057c-0.159,0.94,0.371,1.697,0.673,2.515
		c0.172,0.171,0.348,0.342,0.521,0.513c0.036,0.24,0.071,0.48,0.108,0.72c0.301,2.795-0.299,5.52-0.653,8.262
		c-2.029,0.178-1.533,3.225-3.694,3.252c0.198-0.812,0.281-1.675,0.612-2.428c2.059-4.67,1.202-8.879-1.343-13.194
		C143.745,27.537,140.945,26.194,140.063,23.345z"/>
	<path display="inline" fill="#F0C784" d="M146.489,62.107c2.672-0.236,5.061,1.084,7.635,1.381c0.31,1.336-0.944,3.252,1.416,3.832
		c-0.109,0.396-0.222,0.791-0.332,1.188c-0.095,0.341-0.188,0.683-0.283,1.021c-1.354,1.85-3.92,1.715-5.492,3.288
		c-0.169,0.171-0.35-1.016-0.385-1.592c-0.103-1.664-0.965-2.471-2.616-2.463C147.54,66.557,147.097,64.332,146.489,62.107z"/>
	<path display="inline" fill="#AB782C" d="M49.596,44.99c1.462,0.406,1.607,1.839,2.231,2.889c1.642,2.762,3.385,5.447,5.629,7.771
		c-1.077,0.166-1.236,0.576-0.455,1.397c1.015,1.063,1.961,2.197,2.938,3.302c-2.094,0.832-4.189,1.664-6.284,2.498
		c0,0-0.159-0.154-0.158-0.152c0.602-4.023-0.821-7.609-2.294-11.226c-0.445-1.091-0.977-1.517-2.063-1.404
		C51.83,48.602,49.726,46.708,49.596,44.99z"/>
	<path display="inline" fill="#D6A659" d="M62.363,80.068c-1.576-0.59-3.089-1.289-4.385-2.392c0.332-2.323-0.15-4.565-0.728-6.782
		c-0.362-1.392-1.279-3.144,0.187-3.953c1.136-0.627,2.804,0.133,3.795,1.396c0.042,1.093,0.324,2.068,1.311,2.699L62.53,70.99
		c-0.031,1.559-0.16,3.1,0.273,4.66C63.212,77.123,63.638,78.713,62.363,80.068z"/>
	<path display="inline" fill="#816C51" d="M135.025,61.5c-0.015-0.424-0.026-0.848-0.041-1.271l0.06-0.028
		c1.099,0.112,2.058-0.05,2.479-1.265l0.042-0.021c0.197-0.258,0.392-0.517,0.588-0.771c4.483-2.929,8.423-6.375,10.843-11.286
		c2.728-2.964,2.598-6.63,2.523-10.282c0.287,0.085,0.574,0.17,0.861,0.255c0.104,0.612,0.211,1.224,0.317,1.834
		c-0.589,4.18-0.762,8.481-3.454,12.061c-0.436,0.574-1.022,1.092-0.682,1.937c-0.326,0.392-0.65,0.785-0.979,1.176
		c-1.32,0.31-2.557,0.703-2.388,2.459c-0.385,0.334-0.769,0.67-1.151,1c-1.688-0.312-2.299,0.771-2.707,2.104
		c-0.195,0.103-0.391,0.201-0.584,0.304c-0.803-0.199-1.729,0.14-1.951,0.67C137.944,62.404,136.504,61.898,135.025,61.5z"/>
	<path display="inline" fill="#8F5F2F" d="M49.14,50.067c1.086-0.113,1.618,0.313,2.063,1.404c1.473,3.615,2.896,7.201,2.294,11.225
		c-2.566-0.997-4.023-3.354-6.085-4.967C46.39,54.814,46.022,52.047,49.14,50.067z"/>
	<path display="inline" fill="#DBB978" d="M135.025,61.5c1.479,0.398,2.919,0.904,3.776-1.125c0.225-0.531,1.148-0.869,1.951-0.67
		c-0.612,1.521-0.707,2.688,1.539,2.457c0.939-0.098,1.896-0.037,2.844-0.047c0.453,0.002,0.904,0.002,1.359,0.004
		c0,0-0.007-0.008-0.007-0.012c0.608,2.225,1.052,4.449-0.059,6.658c-1.646,1.42-3.294,3.791-4.86-0.117
		c-0.119-0.301-0.923-0.326-1.408-0.48c0.141-0.27,0.213-0.668,0.432-0.781c1.476-0.77,1.836-2.104,1.238-3.402
		c-0.922-2.002-2.836-1.032-4.392-1.055c-0.813,0.174-1.625,0.348-2.438,0.521c-0.926-0.006-1.852-0.012-2.775-0.018
		c0.232-1.109,1.375-1.246,2.033-1.904c0.257,0.207,0.513,0.311,0.752-0.021L135.025,61.5z"/>
	<path display="inline" fill="#D6A659" d="M155.374,63.969c1.836,0.271,3.633,0.646,5.094,1.92c0.005,2.34,0.009,4.68,0.012,7.019
		c-2.279,0.252-1.453,1.467-0.813,2.625c-1.695,0.452-0.963,1.852-1.09,2.883c-0.289,2.367,0.559,4.836-0.625,7.125
		c-0.634-0.188-1.269-0.371-1.9-0.56c1.652-1.258,0.828-3.254,0.816-4.627c-0.021-2.668,0.982-5.451-0.273-8.082
		c0.271-1.477,0.543-2.951,0.814-4.43l0.258-0.002l0.258,0.027c0.056,0.41,0.111,0.824,0.168,1.236
		c0.123-0.063,0.357-0.177,0.355-0.187c-0.162-0.356-0.344-0.705-0.521-1.058C158.538,65.605,156.407,65.148,155.374,63.969z"/>
	<path display="inline" fill="#D6A659" d="M148.418,83.131c-2.574-0.039-5.166,0.078-7.682-0.666
		c-0.885-1.006-2.076-0.494-3.136-0.635c0,0-0.011-0.008-0.013-0.008c0.181-1.273-0.514-2.699,0.647-3.809
		c2.179,0.219,3.091-1.535,4.386-3.443c0.352,2.453,1.379,3.654,3.19,4.123C145.262,81.006,147.366,81.762,148.418,83.131z"/>
	<path display="inline" fill="#D6A659" d="M108.959,84.484c-1.141-0.732-1.158-2.64-2.881-2.758
		c0.631-2.033-0.463-4.943,2.855-5.605c0.195,1.807-0.57,4.092,1.798,4.947c1.56,0.563,2.849-0.355,3.733-1.724
		c0,0.003-0.055,0.031-0.055,0.031c0.998,0.039,1.623,1.217,2.737,0.89c0.028,1.104,0.06,2.213,0.091,3.317
		C114.517,84.223,111.754,84.494,108.959,84.484z"/>
	<path display="inline" fill="#AB782C" d="M160.478,72.906c-0.003-2.338-0.007-4.678-0.013-7.018
		c3.601,2.059,7.244,4.063,9.77,8.272C166.686,73.705,163.583,73.305,160.478,72.906z"/>
	<path display="inline" fill="#F0C784" d="M148.418,83.131c-1.055-1.369-3.156-2.125-2.604-4.438
		c1.224-0.164,1.659-1.478,2.783-1.988c0.774,1.041,0.817,3.379,2.392,2.727c1.996-0.826,2.229,0.656,3.104,1.42
		c1.225,0.748,1.927,1.611,0.646,2.916c-0.66,0.004-1.324,0.008-1.986,0.012C151.312,83.545,149.721,84.303,148.418,83.131z"/>
	<path display="inline" fill="#AB782C" d="M162.444,79.734c2.453,3.305,4.518,6.813,6.206,11.428
		c-3.159-1.869-5.68-3.359-8.198-4.85c0.25-0.828,2.203,0.471,1.604-1.062C161.271,83.254,162.465,81.574,162.444,79.734z"/>
	<path display="inline" fill="#DBB978" d="M62.363,80.068c1.275-1.355,0.849-2.945,0.44-4.418c-0.433-1.562-0.305-3.103-0.273-4.66
		c4.616,1.08,4.048,4.945,4.452,8.285c0.049,0.412,0.078,0.826,0.117,1.238c-0.839,0.045-1.387,0.405-1.44,1.313
		C64.56,81.24,63.461,80.652,62.363,80.068z"/>
	<path display="inline" fill="#BE8A41" d="M162.444,79.734c0.021,1.84-1.173,3.52-0.39,5.518c0.601,1.531-1.354,0.232-1.604,1.061
		c-0.834-0.258-1.666-0.516-2.5-0.772c1.184-2.289,0.336-4.758,0.625-7.125c0.127-1.031-0.605-2.431,1.09-2.883
		C160.693,76.865,161.894,78.084,162.444,79.734z"/>
	<path display="inline" fill="#BE8A41" d="M61.233,68.336c-0.992-1.262-2.659-2.021-3.795-1.395
		c-1.466,0.811-0.549,2.563-0.187,3.953c0.578,2.217,1.06,4.459,0.728,6.782c-0.726-0.346-1.453-0.692-2.18-1.036
		c1.737-3.166-0.799-5.979-0.782-9.021c0.007-1.224-0.946-2.354-0.758-3.681c2.73,1.15,5.46,2.302,8.191,3.451
		c-0.005,0.349-0.009,0.697-0.014,1.047C62.035,68.404,61.634,68.371,61.233,68.336z"/>
	<path display="inline" fill="#DBB978" d="M154.741,83.768c1.278-1.305,0.576-2.168-0.646-2.916c0.875-0.313,2.402-0.965,1.785-1.66
		c-2.432-2.741,0.48-4.643,0.713-6.92c1.258,2.631,0.255,5.414,0.273,8.082c0.012,1.373,0.836,3.369-0.816,4.627
		c-0.547,0.088-0.984-0.1-1.321-0.532C154.73,84.221,154.735,83.994,154.741,83.768z"/>
	<path display="inline" fill="#FCD16F" d="M65.701,19.579c-0.017-0.479-0.034-0.958-0.051-1.438
		c3.081-2.174,6.823-2.829,10.157-4.42c0.011,0.65,0.022,1.3,0.034,1.95C72.461,16.973,69.082,18.275,65.701,19.579z"/>
	<path display="inline" fill="#DBB978" d="M148.562,52.662c-0.342-0.844,0.246-1.361,0.681-1.936
		c2.693-3.581,2.866-7.882,3.455-12.062C154.37,42.729,152.232,49.959,148.562,52.662z"/>
	<path display="inline" fill="#BE8A41" d="M117.241,83.584c-0.031-1.105-0.062-2.213-0.091-3.318
		c0.604-0.641,0.894-1.647,1.997-1.701c0.202,0.287,0.404,0.57,0.604,0.857c0.734,1.291,0.638,3.156,2.528,3.643
		C120.625,83.492,118.95,83.697,117.241,83.584z"/>
	<path display="inline" fill="#AB782C" d="M122.28,83.064c-1.892-0.486-1.794-2.353-2.527-3.644
		c0.427-0.235,0.853-0.473,1.278-0.707c0.708-0.17,1.259,0.195,1.815,0.535c0.23,0.246,0.461,0.487,0.691,0.733
		c-1.061,1.021,0.467,2.021,0.019,3.039C123.129,83.037,122.704,83.053,122.28,83.064z"/>
	<path display="inline" fill="#EEBA6B" d="M157.922,67.867l-0.258-0.027l-0.258,0.002c-0.507-0.588-1.154-0.668-1.867-0.521
		c-2.361-0.579-1.107-2.495-1.416-3.831c0.5-0.06,0.992-0.095,1.248,0.481c1.033,1.178,3.166,1.635,2.553,3.891L157.922,67.867z"/>
	<path display="inline" fill="#AB782C" d="M49.722,33.493c-0.008,1.493-0.016,2.986-0.023,4.479
		c-1.382,1.707,0.222,3.343,0.118,5.02c-0.059,0.51-0.125,1.016-0.637,1.306C48.471,40.652,47.345,36.984,49.722,33.493z"/>
	<path display="inline" fill="#D6A659" d="M107.6,10.598c-5.076-0.001-10.151-0.001-15.227-0.002
		C97.449,9.583,102.524,9.484,107.6,10.598z"/>
	<path display="inline" fill="#DBB978" d="M152.379,36.831c-0.287-0.085-0.574-0.17-0.859-0.253c-0.559-0.739-0.35-1.865-1.23-2.442
		c-0.035-0.24-0.072-0.479-0.106-0.72c-0.175-0.171-0.349-0.342-0.522-0.513c-0.301-0.818-0.83-1.574-0.672-2.515
		C151.583,31.764,152.29,34.136,152.379,36.831z"/>
	<path display="inline" fill="#FCD16F" d="M82.829,11.954c-1.631,1.637-3.434,2.521-5.714,1.297
		C79.015,12.799,80.743,11.587,82.829,11.954z"/>
	<path display="inline" fill="#DBB978" d="M72.391,84.457c2.381-0.139,4.694-0.02,6.574,1.736
		C76.764,85.65,74.45,85.539,72.391,84.457z"/>
	<path display="inline" fill="#BE8A41" d="M123.556,83.023c0.448-1.019-1.078-2.021-0.019-3.039
		c2.002,0.317,0.992,1.965,1.324,3.016C124.426,83.008,123.993,83.016,123.556,83.023z"/>
	<path display="inline" fill="#DBB978" d="M145.197,56.297c-0.169-1.756,1.066-2.15,2.388-2.459
		C147.54,55.389,146.7,56.164,145.197,56.297z"/>
	<path display="inline" fill="#DBB978" d="M141.336,59.402c0.41-1.336,1.02-2.416,2.709-2.105
		C143.551,58.527,142.847,59.482,141.336,59.402z"/>
	<path display="inline" fill="#BE8A41" d="M137.602,81.83c1.061,0.141,2.251-0.371,3.136,0.635
		c-1.062-0.014-2.124-0.029-3.188-0.041C137.56,82.225,137.579,82.029,137.602,81.83z"/>
	<path display="inline" fill="#DBB978" d="M148.946,30.332c-0.779-0.34-1.252-0.895-1.238-1.784
		C149.038,28.506,148.981,29.426,148.946,30.332z"/>
	<path display="inline" fill="#D6A659" d="M154.741,83.768c-0.006,0.228-0.011,0.453-0.014,0.681
		c-0.699-0.103-1.559,0.272-1.973-0.668C153.417,83.775,154.079,83.771,154.741,83.768z"/>
	<path display="inline" fill="#BE8A41" d="M128.761,82.688c0.411-0.035,0.821-0.069,1.231-0.106
		C129.611,82.949,129.204,82.992,128.761,82.688z"/>
	<path display="inline" fill="#F0C784" d="M146.495,62.119c-0.453-0.002-0.906-0.002-1.357-0.004
		C145.59,61.4,146.043,61.422,146.495,62.119z"/>
	<path display="inline" fill="#F0C784" d="M96.285,86.555c0.146-0.131,0.315-0.215,0.509-0.254
		C96.624,86.387,96.455,86.471,96.285,86.555z"/>
	<path display="inline" fill="#EEBA6B" d="M103.805,74.846c-2.8,0.154-5.591-0.154-8.398,0.676
		c-1.797,0.531-3.513-0.637-4.913-1.912c-0.021-0.401-0.044-0.809-0.064-1.217c1.768-0.264,3.801,0.426,5.121-1.432
		c0.026-0.184,0.07-0.361,0.13-0.535l0.256,0.006c0,0,0.257,0,0.257-0.002c0.536,0.707,0.96,0.555,1.308-0.17
		c0.889-0.361,1.777-0.721,2.666-1.084c1.76-0.145,3.766,0.682,5.067-1.277c2.557,0.406,4.959-0.793,7.482-0.721
		c0,0.002,0.025,0.047,0.025,0.047c-0.918,2.113-1.832,4.228,1.188,5.5c0.045,0.019,0.023,0.195,0.033,0.299
		c-2.676-0.932-3.695,1.213-5.06,2.722c-0.231-0.746-0.728-2.242-0.868-2.019C106.894,75.531,104.941,73.65,103.805,74.846z"/>
	<path display="inline" fill="#211C16" d="M86.608,75.508c0.059,0.623-0.067,1.422,0.591,1.697c1.129,0.473,2.234,0.623,0.384,1.83
		c-0.987,0.645-0.584,2.027-0.192,2.943c0.479,1.119,1.202-0.043,1.828-0.095l-0.041-0.059c0.025,0.438,0.051,0.879,0.076,1.313
		c-0.514,0.514-1.219,1.557-1.726,1.133c-3.419-2.86-8.288,1.5-11.436-2.375c-0.061-0.075-0.417,0.019-0.588,0.113
		c-1.886,1.072-3.066,0.006-3.866-1.473c-0.735-1.359-0.751-2.85,0.343-4.146c1.283-1.52,2.756-0.342,4.133-0.24
		c1.305,0.097,1.786,1.009,1.611,2.228c-0.479,3.334,2.112,3.481,4.9,4.699c-1.292-1.701-2.153-2.677-2.813-3.772
		c-0.305-0.509-1.242-1.097-0.35-1.88c0.718-0.631,1.547-1.159,2.523-0.922c0.873,0.211,0.952,0.996,0.86,1.785
		c-0.15,1.289,0.364,2.198,1.75,2.836c0.134-1.526,0.756-2.931-0.059-4.285c-0.365-0.61-0.647-1.278-0.161-1.698
		C85.119,74.498,85.943,74.879,86.608,75.508z M74.442,80.916c0.968-0.629,1.189-1.641,1.233-2.662
		c0.032-0.74-0.625-1.195-1.23-1.076c-1.426,0.275-1.099,1.488-1.033,2.467C73.453,80.234,73.597,80.869,74.442,80.916z"/>
	<path display="inline" fill="#211C16" d="M89.218,81.885c0.337-1.42,0.128-3.002,1.138-4.219c0.818-0.984,1.784-2.123,3.166-1.088
		c1.414,1.055,0.962,2.391-0.004,3.57c-0.526,0.643-1.116,1.233-2.101,2.311c2.108,0,3.722,0.047,5.33-0.016
		c0.957-0.039,0.874-0.846,0.633-1.394c-0.245-0.557-0.862-0.938-1.15-1.483c-0.549-1.043-1.007-2.537-0.071-3.183
		c1.442-0.993,1.381,0.941,1.982,1.591c1.42,1.528,2.8,3.069,0.82,5.164c-0.735,0.778-1.298,1.606-2.588,0.717
		c-1.623-1.125-2.994,1.021-4.626,0.563c-0.634-0.437-1.267-0.869-1.9-1.303c-0.122-0.482-0.088-1.046-0.67-1.291L89.218,81.885z"/>
	<path display="inline" fill="#211C16" d="M67.099,80.514c-0.039-0.412-0.067-0.826-0.117-1.238
		c-0.404-3.34,0.164-7.205-4.452-8.284l0.014,0.047c0.194-0.242,0.389-0.483,0.583-0.728c2.486-0.121,4.616,1.367,7.04,1.556
		c0.636,0.047,1.298,0.303,1.161,1.139c-0.123,0.744-0.789,0.586-1.255,0.484c-1.315-0.277-1.389,0.461-1.269,1.422
		c0.17,1.354,0.246,2.731,0.519,4.065C69.809,81.357,68.968,81.635,67.099,80.514z"/>
	<path display="inline" fill="#D6A659" d="M95.55,70.959c-1.32,1.859-3.354,1.17-5.121,1.434c-2.521,1.107-5.039,0.002-7.558-0.01
		c-0.23-0.008-0.461-0.018-0.69-0.025c-4.185-1.09-8.943,0.625-12.689-2.604l0.009-0.012C78.144,71.008,86.771,72.617,95.55,70.959z
		"/>
	<path display="inline" fill="#DBB978" d="M63.126,70.311c-0.194,0.242-0.389,0.484-0.583,0.728
		c-0.987-0.631-1.269-1.606-1.311-2.699c0.401,0.033,0.802,0.066,1.203,0.104c0.249,0.055,0.496,0.113,0.744,0.168
		C63.162,69.176,63.144,69.742,63.126,70.311z"/>
	<path display="inline" fill="#D6A659" d="M63.179,68.609c-0.248-0.055-0.495-0.113-0.744-0.168
		c0.004-0.353,0.009-0.701,0.014-1.049c0.806,0.502,1.948,0.196,2.598,1.077l-0.013,0.019
		C64.416,68.529,63.797,68.568,63.179,68.609z"/>
	<path display="inline" fill="#D6A659" d="M69.492,69.754c-0.901,0.004-1.899,0.387-2.539-0.645l0.01-0.012
		c0.843,0.227,1.894-0.369,2.538,0.645L69.492,69.754z"/>
	<path display="inline" fill="#D6A659" d="M66.953,69.109c-0.726,0.059-1.485,0.219-1.919-0.621l0.013-0.019
		c0.657,0.156,1.486-0.219,1.917,0.628L66.953,69.109z"/>
	<path display="inline" fill="#DBB978" d="M89.177,81.826c0.582,0.246,0.548,0.809,0.67,1.291l-0.297,0.027l-0.297-0.004
		C89.228,82.705,89.203,82.266,89.177,81.826z"/>
	<path display="inline" fill="#EEBA6B" d="M82.181,72.357c0.229,0.008,0.46,0.018,0.69,0.024
		C82.628,72.703,82.4,72.686,82.181,72.357z"/>
	<path display="inline" fill="#AB782C" d="M112.715,67.178c-2.522-0.072-4.926,1.127-7.481,0.719
		c-5.119-0.024-10.238-0.055-15.357-0.084c-0.938-0.948-2.163-0.42-3.244-0.633c1.19-1.352,3.623,0.33,4.481-1.834
		c0.438-0.051,0.877-0.104,1.315-0.154c3.576-0.385,7.218,0.869,10.76-0.424c0.49,0.691,1.238,0.527,1.922,0.576
		c0.864,0.846,1.716,0.906,2.552-0.041c1.248-0.021,2.496-0.041,3.746-0.063c0.92,0.008,1.926,0.383,2.613-0.607
		c0.398-0.012,0.799-0.023,1.198-0.039c0.942,0.121,1.837,0.152,2.022-1.107c2.744,0.168,5.178-0.85,7.573-2.004
		c0.533,0.011,1.015-0.086,1.291-0.612c2.995-0.455,5.724-1.597,8.272-3.203c0.492,1.283,2.4-0.813,2.625,1.103
		c-0.816,0.256-1.645,0.496-1.963,1.432l-0.06,0.029c-2.752,0.405-5.772,0.41-6.254,4.217c-0.011,0.072-0.565,0.076-0.866,0.111
		c-0.514-1.904-2.07-1.261-3.074-0.959C120.77,64.801,116.307,64.549,112.715,67.178z"/>
	<path display="inline" fill="#211C16" d="M133.823,80.143c-0.898,0.277-1.787,0.75-2.695,0.785c-0.918,0.033-2.5-0.551-2.213-1.299
		c1.332-3.453-0.82-7.867,2.922-10.604c0.647-0.019,1.295-0.037,1.942-0.058c1.681-0.125,2.153,0.785,1.984,2.283
		c-0.255,2.265-0.488,4.528-0.729,6.791c-0.375,0.672-0.752,1.344-1.127,2.015L133.823,80.143z M131.75,75.514
		c1.279-1.533,2.08-2.836,1.871-4.504c-0.055-0.424-0.674-0.59-1.022-0.246C131.381,71.959,130.863,73.365,131.75,75.514z
		 M130.45,79.064c2.551,0.254,2.125-1.416,2.135-2.75C131.935,77.15,131.288,77.986,130.45,79.064z"/>
	<path display="inline" fill="#BE8A41" d="M135.034,78.043c0.241-2.262,0.477-4.527,0.729-6.791
		c0.169-1.498-0.306-2.408-1.984-2.283c1.294-1.643,1.435-3.541,1.224-5.518c0.813-0.174,1.625-0.348,2.438-0.521
		c0.542,2.242-1.063,4.664,0.567,6.818c-2.396,4.482-2.361,5.744,0.229,8.266c-1.16,1.109-0.468,2.535-0.646,3.81
		c-1.02,0.004-2.039,0.006-3.061,0.016c-1.625,0.011-0.677-1.047-0.707-1.696c0,0.002,0.084-0.084,0.082-0.084
		C135.179,79.889,136.407,79.695,135.034,78.043z"/>
	<path display="inline" fill="#211C16" d="M122.846,79.25c-0.557-0.34-1.107-0.705-1.815-0.537
		c-0.192-0.688-0.386-1.377-0.577-2.068c0.733,0.066,1.146-0.162,1.207-1c0.188-2.578,0.439-5.149,0.668-7.727
		c1.047,0.256,1.494-1.881,2.668-0.758c0.871,0.834,0.403,1.975,0.189,2.973c-0.239,1.121-0.607,2.213-0.857,3.33
		c-0.133,0.604-0.408,1.607-0.147,1.805C127.829,78.021,123.995,78.178,122.846,79.25z"/>
	<path display="inline" fill="#BE8A41" d="M122.329,67.918c-0.229,2.576-0.48,5.148-0.668,7.727c-0.063,0.838-0.474,1.066-1.207,1
		c0.032-1.338-0.219-2.664,0.319-4.004c0.646-1.606-0.451-1.707-1.635-1.576c-1.481-0.856-3.124-1.604-2.56-3.828
		c1.607-0.698,3.228-1.354,5.026-1.334C122.079,66.49,122.879,66.963,122.329,67.918z"/>
	<path display="inline" fill="#DBB978" d="M121.606,65.902c-1.8-0.021-3.419,0.635-5.027,1.334
		c-1.279-0.004-2.557-0.008-3.836-0.012c0,0-0.025-0.045-0.025-0.048c3.591-2.629,8.054-2.377,12.072-3.579
		c1.004-0.302,2.562-0.945,3.074,0.959C125.711,64.709,123.571,64.893,121.606,65.902z"/>
	<path display="inline" fill="#AB782C" d="M135,63.451c0.211,1.977,0.071,3.875-1.223,5.518c-0.646,0.021-1.295,0.039-1.941,0.057
		c0.291-1.834,1.773-3.821-0.68-5.303c0.355-0.096,0.715-0.192,1.068-0.289C133.15,63.439,134.077,63.445,135,63.451z"/>
	<path display="inline" fill="#816C51" d="M135.011,61.508c-0.24,0.332-0.496,0.229-0.753,0.021
		C134.508,61.523,134.758,61.516,135.011,61.508z"/>
	<path display="inline" fill="#211C16" d="M103.805,74.846c1.136-1.195,3.089,0.687,4.229-1.119
		c0.143-0.225,0.637,1.271,0.869,2.019c0.067,0.121,0.077,0.246,0.031,0.377c-3.318,0.662-2.227,3.571-2.855,5.604
		c-0.279,0.414-0.48,1.08-0.851,1.191c-0.903,0.271-0.887-0.609-1.058-1.166C103.476,79.482,104.122,77.137,103.805,74.846z"/>
	<path display="inline" fill="#FCD16F" d="M140.063,23.345c0.882,2.849,3.682,4.192,5.148,6.683c2.545,4.315,3.4,8.523,1.343,13.194
		c-0.331,0.753-0.414,1.616-0.613,2.428c-0.681,1.033-1.356,2.067-2.036,3.102c-1.193,0.037-1.781,0.995-2.558,1.673
		c-2.447,2.142-5.156,3.818-8.328,4.666c1.489-1.321,3.036-2.584,4.456-3.977c7.656-7.498,7.624-17.138-0.146-24.521
		c-5.758-5.47-12.869-8.313-20.433-10.25c-7.444-1.906-15.044-1.958-22.647-2.002c-0.001-0.84-0.48-1.192-1.263-1.235
		c0.567-1.124,1.579-1.21,2.686-1.245c13.688-0.432,26.739,2.107,38.913,8.505C136.418,21.329,137.911,22.941,140.063,23.345z"/>
	<path display="inline" fill="#FEE8B6" d="M92.986,13.104c0.782,0.043,1.262,0.396,1.263,1.235c-1.547,0.239-3.188,0.24-4.611,0.795
		c-1.076,0.419-2.944-0.305-3.161,1.729c-1.185-0.092-2.325,0.708-3.53,0.169c-6.128,0.063-11.187,2.925-16.102,6.158
		c-4.434,2.39-7.648,5.943-9.914,10.401l-0.156-0.068c-1.356,1.505-1.897-0.139-2.718-0.704c0.516-5.046,4.166-7.831,7.741-10.639
		c1.226-0.963,2.598-1.742,3.903-2.604c3.381-1.303,6.76-2.605,10.141-3.908C81.453,14.125,87.17,13.289,92.986,13.104z"/>
	<path display="inline" fill="#FCD16F" d="M84.665,11.735c0.095,0.112,0.189,0.225,0.285,0.336
		c-0.112-0.095-0.224-0.188-0.337-0.284C84.611,11.787,84.665,11.735,84.665,11.735z"/>
	<path display="inline" fill="#EEBA6B" d="M103.189,64.768c-3.542,1.293-7.184,0.039-10.761,0.424
		c-0.188-0.791-0.427-1.459-1.312-0.528c-1.467-0.031-2.933-0.063-4.398-0.095c-0.205-0.766-0.426-1.491-1.33-0.541
		c-1.683-0.229-3.366-0.461-5.05-0.692c-0.178-0.772-0.361-1.535-1.313-0.59c-0.411-0.017-0.822-0.033-1.232-0.047
		c-0.657-1.507-1.762-1.83-3.221-1.224c-2.854-0.801-5.772-1.434-8.253-3.194c-0.09-1.257-1-1.255-1.914-1.246
		c-4.381-2.119-7.935-5.119-10.152-9.541c2.117,0.739,3.67,2.276,5.269,3.743c1.244,1.144,2.466,2.322,4.389,1.767l-0.078,0.104
		c0.067,0.529,0.247,0.604,0.56,0.14c8.892,6.469,19.062,9.176,29.83,10.055c2.393,0.195,4.763,1.339,7.159,0.584
		c2.086-0.653,4.143-0.594,6.244-0.475c0.006,0.379,0.015,0.758,0.021,1.137c-0.849,0.029-1.696,0.06-2.546,0.088
		C104.405,63.836,103.766,63.848,103.189,64.768z"/>
	<path display="inline" fill="#FCD16F" d="M63.913,53.002c-1.924,0.557-3.147-0.623-4.391-1.766
		c-1.599-1.468-3.152-3.005-5.269-3.744c-0.52-1.14-1.979-1.699-1.962-3.171c0.001-2.545,0.002-5.09,0.003-7.635
		c1.694,0.411,2.678-1.604,4.348-1.274c-0.645,3.315-0.349,6.504,1.055,9.618C59.129,48.207,61.551,50.572,63.913,53.002z"/>
	<path display="inline" fill="#816C51" d="M86.632,67.18c1.081,0.213,2.307-0.315,3.244,0.633c0.022,0.351,0.046,0.699,0.068,1.047
		c-6.022,0.017-11.675-1.666-17.222-3.795c-0.318-0.123-0.478-0.655-0.712-0.998l0.024-0.03
		C76.901,65.084,81.766,66.133,86.632,67.18z"/>
	<path display="inline" fill="#8F5F2F" d="M59.939,60.35c-0.976-1.104-1.923-2.235-2.938-3.301
		c-0.781-0.822-0.622-1.232,0.455-1.398c2.41,1.392,4.898,2.658,6.974,4.56c-0.521,0.06-1.042,0.113-1.563,0.172
		C61.891,60.371,60.916,60.359,59.939,60.35z"/>
	<path display="inline" fill="#816C51" d="M62.867,60.381c0.521-0.059,1.042-0.113,1.563-0.172c2.733,0.883,5.707,1.285,7.605,3.826
		l-0.024,0.031C68.365,64.322,65.731,62.064,62.867,60.381z"/>
	<path display="inline" fill="#D6A659" d="M49.816,42.992c0.104-1.676-1.5-3.313-0.118-5.02c0.46,0.022,1.415-1.898,1.31,0.293
		c-0.08,1.652,0.251,3.219,0.641,4.792C51.038,43.036,50.427,43.014,49.816,42.992z"/>
	<path display="inline" fill="#D6A659" d="M74.572,61.475c1.459-0.606,2.564-0.283,3.221,1.224
		C76.616,62.561,75.461,62.367,74.572,61.475z"/>
	<path display="inline" fill="#D6A659" d="M64.405,57.033c0.914-0.008,1.824-0.01,1.914,1.246
		C65.379,58.328,64.741,57.914,64.405,57.033z"/>
	<path display="inline" fill="#D6A659" d="M79.026,62.744c0.951-0.945,1.135-0.184,1.313,0.59
		C79.784,63.4,79.305,63.295,79.026,62.744z"/>
	<path display="inline" fill="#D6A659" d="M85.388,64.027c0.904-0.951,1.125-0.226,1.33,0.541
		C86.161,64.668,85.683,64.574,85.388,64.027z"/>
	<path display="inline" fill="#D6A659" d="M91.117,64.662c0.885-0.93,1.124-0.262,1.312,0.529c-0.438,0.051-0.876,0.104-1.314,0.153
		C91.115,65.119,91.116,64.891,91.117,64.662z"/>
	<path display="inline" fill="#EFEFEF" d="M62.867,60.381c2.864,1.684,5.499,3.941,9.145,3.686c0.234,0.343,0.394,0.875,0.712,0.998
		c5.546,2.129,11.199,3.812,17.222,3.795c1.017,0.168,2.034,0.341,3.051,0.509c0.41,1.584,1.828,0.608,2.685,1.059
		c-0.06,0.175-0.104,0.353-0.13,0.535c-8.779,1.656-17.407,0.047-26.049-1.219c-0.644-1.015-1.695-0.418-2.538-0.646
		c-0.431-0.846-1.26-0.471-1.917-0.627c-0.649-0.881-1.791-0.576-2.597-1.078c-2.73-1.149-5.46-2.301-8.191-3.451
		c-0.201-0.364-0.402-0.729-0.604-1.094c2.095-0.834,4.19-1.666,6.284-2.498C60.916,60.359,61.891,60.371,62.867,60.381z"/>
	<path display="inline" fill="#F0C784" d="M56.642,35.413c-1.67-0.33-2.654,1.685-4.348,1.274c0.389-1.26,0.488-2.522,0.021-3.787
		l0.016-0.017c0.576-0.02,1.152-0.041,1.727-0.062c0.819,0.564,1.36,2.208,2.717,0.703C56.73,34.154,56.686,34.783,56.642,35.413z"
		/>
	<path display="inline" fill="#D6A659" d="M52.314,32.899c-0.09-0.055-0.18-0.109-0.27-0.163c0.095,0.049,0.189,0.097,0.286,0.146
		C52.331,32.882,52.314,32.899,52.314,32.899z"/>
	<path display="inline" fill="#BE8A41" d="M143.905,48.751c0.68-1.034,1.355-2.068,2.036-3.102c2.162-0.028,1.666-3.075,3.696-3.252
		c-0.215,1.486-0.428,2.973-0.645,4.459c-2.42,4.91-6.357,8.357-10.842,11.287c-0.195,0.258-0.391,0.515-0.588,0.771l-0.042,0.021
		c-0.17-0.063-0.342-0.121-0.517-0.168c-0.225-1.916-2.133,0.183-2.625-1.102c0.588-0.406,1.191-0.789,1.76-1.221
		C139.057,54.213,142.442,52.451,143.905,48.751z"/>
	<path display="inline" fill="#AB782C" d="M148.995,46.857c0.215-1.487,0.428-2.973,0.644-4.459
		c0.354-2.743,0.954-5.467,0.651-8.262c0.883,0.577,0.672,1.703,1.23,2.442C151.592,40.228,151.721,43.893,148.995,46.857z"/>
	<path display="inline" fill="#AB782C" d="M149.661,32.903c0.174,0.171,0.348,0.342,0.521,0.513
		C150.006,33.245,149.833,33.074,149.661,32.903z"/>
	<path display="inline" fill="#211C16" d="M138.238,78.014c-2.591-2.521-2.626-3.783-0.229-8.266
		c0.719-0.527,1.438-1.055,2.152-1.58c0.486,0.154,1.291,0.18,1.409,0.48c1.567,3.908,3.216,1.537,4.86,0.117
		c1.652-0.009,2.515,0.799,2.615,2.463c0.035,0.576,0.217,1.762,0.386,1.592c1.573-1.574,4.14-1.439,5.493-3.289
		c0.094-0.344,0.188-0.682,0.283-1.021c0.109-0.398,0.222-0.793,0.332-1.189c0.713-0.146,1.36-0.065,1.866,0.521
		c-0.271,1.479-0.544,2.953-0.813,4.43c-0.232,2.277-3.146,4.179-0.715,6.92c0.619,0.695-0.91,1.347-1.785,1.66
		c-0.877-0.764-1.107-2.246-3.104-1.42c-1.574,0.652-1.617-1.686-2.392-2.727c-1.124,0.512-1.562,1.824-2.783,1.988
		c-1.812-0.469-2.84-1.67-3.19-4.123C141.329,76.479,140.417,78.232,138.238,78.014z M140.777,72.658
		c-0.185-0.775,0.372-2.281-0.634-2.098c-1.725,0.315-1.571,2.221-1.764,3.616c-0.102,0.757-0.23,2.179,0.842,1.923
		C140.812,75.719,140.433,73.896,140.777,72.658z M146.813,70.307c-1.592,1.855-1.866,3.642-1.857,5.496
		c0.002,0.332,0.313,0.812,0.61,0.959c0.427,0.207,0.774-0.174,0.927-0.584C147.133,74.441,147.637,72.691,146.813,70.307z
		 M151.441,77.73c1.435-1.142,2.22-2.609,2.363-4.404c0.03-0.375-0.521-0.865-0.858-0.635c-1.632,1.123-1.879,2.852-1.814,4.668
		C151.133,77.434,151.247,77.504,151.441,77.73z"/>
	<path display="inline" fill="#EEBA6B" d="M155.208,68.51c-0.095,0.34-0.188,0.678-0.283,1.021
		C155.018,69.191,155.113,68.85,155.208,68.51z"/>
	<path display="inline" fill="#8F5F2F" d="M137.004,58.768c0.176,0.047,0.348,0.104,0.518,0.168
		c-0.422,1.215-1.381,1.377-2.479,1.265C135.362,59.264,136.189,59.023,137.004,58.768z"/>
	<path display="inline" fill="#8F5F2F" d="M137.564,58.914c0.197-0.256,0.392-0.512,0.588-0.77
		C137.956,58.398,137.761,58.656,137.564,58.914z"/>
	<path display="inline" fill="#D6A659" d="M140.161,68.168c-0.716,0.525-1.435,1.053-2.152,1.58
		c-1.631-2.154-0.024-4.576-0.566-6.818c1.555,0.021,3.469-0.947,4.391,1.055c0.598,1.3,0.236,2.634-1.237,3.402
		C140.375,67.5,140.301,67.898,140.161,68.168z"/>
	<path display="inline" fill="#EEBA6B" d="M157.924,67.861c0.179,0.352,0.359,0.699,0.521,1.057c0.002,0.01-0.232,0.123-0.355,0.186
		c-0.057-0.412-0.112-0.826-0.168-1.235L157.924,67.861z"/>
	<path display="inline" fill="#090708" d="M108.935,76.121c0.046-0.131,0.036-0.256-0.031-0.377c1.363-1.508,2.384-3.652,5.06-2.721
		l-0.012-0.033c0.092,0.521-0.015,1.141,0.69,1.35c-0.005,0.143-0.001,0.289,0.014,0.434c-1.706,0.502-2.12,2.341-3.403,3.338
		c-0.855,0.671-0.125,1.541,0.879,1.623c0.777,0.066,1.443-0.883,2.336-0.389c-0.887,1.367-2.174,2.287-3.733,1.723
		C108.366,80.213,109.129,77.928,108.935,76.121z"/>
	<path display="inline" fill="#211C16" d="M114.656,74.773c-0.015-0.146-0.019-0.291-0.014-0.435
		c0.696-0.194,0.694-0.801,0.793-1.348c0.582-0.453,1.162-0.906,1.743-1.361c0.029,0.502,0.058,1.009,0.086,1.511
		c-0.35,1.528-1.074,3.041-0.34,4.659c1.26,0.002,0.853-1.313,1.527-1.702c0.231,0.821,0.465,1.643,0.694,2.467
		c-1.104,0.053-1.394,1.061-1.997,1.701c-1.115,0.327-1.74-0.851-2.736-0.89C114.629,77.848,115.124,76.336,114.656,74.773z"/>
	<path display="inline" fill="#BE8A41" d="M114.656,74.773c0.468,1.563-0.024,3.074-0.243,4.604c0,0,0.055-0.029,0.055-0.031
		c-0.893-0.494-1.559,0.455-2.336,0.389c-1.004-0.082-1.734-0.952-0.879-1.623C112.536,77.113,112.95,75.275,114.656,74.773z"/>
	<path display="inline" fill="#090708" d="M119.147,78.564c-0.23-0.824-0.463-1.646-0.693-2.467
		c-0.625-0.896,2.391-3.25-1.188-2.957c-0.028-0.502-0.058-1.009-0.086-1.511c0.409-1.032,1.374-0.144,1.96-0.565
		c1.184-0.131,2.281-0.031,1.635,1.576c-0.538,1.34-0.287,2.666-0.32,4.004c0.192,0.69,0.387,1.381,0.578,2.067
		c-0.427,0.236-0.853,0.474-1.279,0.709C119.551,79.135,119.349,78.852,119.147,78.564z"/>
	<path display="inline" fill="#D6A659" d="M119.138,71.064c-0.587,0.424-1.552-0.467-1.96,0.565
		c-0.581,0.455-1.161,0.908-1.744,1.361c-0.494,0-0.988,0-1.482-0.002l0.012,0.032c-0.01-0.104,0.012-0.28-0.033-0.299
		c-3.02-1.272-2.105-3.387-1.188-5.5c1.279,0.004,2.557,0.008,3.836,0.012C116.014,69.461,117.657,70.207,119.138,71.064z"/>
	<path display="inline" fill="#8F5F2F" d="M92.996,69.367c-1.017-0.168-2.034-0.34-3.051-0.508
		c-0.022-0.349-0.046-0.697-0.068-1.047c5.119,0.028,10.238,0.059,15.357,0.084c-1.302,1.961-3.308,1.135-5.068,1.278
		c-1.467,0.078-2.804-0.977-4.316-0.489C94.898,68.914,93.947,69.141,92.996,69.367z"/>
	<path display="inline" fill="#DBB978" d="M92.996,69.367c0.951-0.227,1.902-0.453,2.854-0.682c0.151,0.354,0.303,0.703,0.453,1.055
		c-0.037,0.229-0.073,0.461-0.11,0.691h-0.257l-0.256-0.007C94.824,69.977,93.406,70.951,92.996,69.367z"/>
	<path display="inline" fill="#816C51" d="M96.303,69.74c-0.15-0.352-0.302-0.701-0.453-1.055c1.512-0.486,2.849,0.567,4.315,0.489
		c-0.888,0.363-1.776,0.724-2.665,1.086C97.238,69.775,96.786,69.725,96.303,69.74z"/>
	<path display="inline" fill="#D6A659" d="M96.303,69.74c0.482-0.016,0.935,0.035,1.197,0.521c-0.348,0.724-0.771,0.875-1.308,0.169
		C96.23,70.201,96.266,69.971,96.303,69.74z"/>
	<path display="inline" fill="#DBB978" d="M74.442,80.916c-0.846-0.047-0.989-0.682-1.03-1.271c-0.066-0.979-0.393-2.19,1.033-2.467
		c0.604-0.119,1.262,0.336,1.23,1.076C75.632,79.275,75.411,80.287,74.442,80.916z"/>
	<path display="inline" fill="#D6A659" d="M143.905,48.751c-1.463,3.7-4.848,5.461-7.765,7.694
		c-0.567,0.432-1.171,0.813-1.759,1.221c-2.551,1.607-5.278,2.748-8.273,3.203c-0.984-0.963-1.146-0.193-1.291,0.613
		c-2.396,1.153-4.829,2.172-7.574,2.004c-0.945-0.123-1.81-0.101-2.021,1.106c-0.399,0.017-0.799,0.027-1.198,0.039
		c-1.125-0.887-2.063-0.977-2.614,0.607c-1.248,0.021-2.498,0.041-3.744,0.063c-0.008-0.252-0.012-0.504-0.018-0.756
		c-0.007-0.379-0.016-0.758-0.021-1.137c7.42-1.502,14.801-3.132,21.723-6.341c0.494,0.578,0.447,0.033,0.527-0.252
		c0.215-0.139,0.433-0.276,0.647-0.411c0.528-0.054,1.05-0.119,1.319-0.679l-0.055,0.035c0.541-0.022,1.061-0.094,1.313-0.676
		l-0.083,0.002c3.172-0.848,5.881-2.523,8.328-4.666C142.124,49.747,142.709,48.788,143.905,48.751z"/>
	<path display="inline" fill="#BE8A41" d="M111.409,65.24c0.549-1.584,1.488-1.494,2.613-0.607
		C113.333,65.623,112.329,65.248,111.409,65.24z"/>
	<path display="inline" fill="#BE8A41" d="M107.646,64.547c0.006,0.252,0.011,0.504,0.017,0.756
		c-0.836,0.947-1.688,0.887-2.552,0.041c-0.005-0.236-0.007-0.473-0.011-0.709C105.95,64.605,106.797,64.576,107.646,64.547z"/>
	<path display="inline" fill="#D6A659" d="M105.1,64.635c0.004,0.236,0.006,0.473,0.011,0.709c-0.684-0.049-1.432,0.115-1.922-0.576
		C103.766,63.848,104.405,63.836,105.1,64.635z"/>
	<path display="inline" fill="#BE8A41" d="M115.22,64.594c0.213-1.207,1.075-1.229,2.021-1.107
		C117.057,64.746,116.165,64.715,115.22,64.594z"/>
	<path display="inline" fill="#BE8A41" d="M124.817,61.482c0.145-0.808,0.307-1.576,1.291-0.613
		C125.833,61.396,125.35,61.492,124.817,61.482z"/>
	<path display="inline" fill="#8F5F2F" d="M131.75,75.514c-0.888-2.147-0.367-3.555,0.849-4.75c0.351-0.344,0.969-0.178,1.022,0.246
		C133.831,72.678,133.03,73.98,131.75,75.514z"/>
	<path display="inline" fill="#8F5F2F" d="M130.45,79.064c0.838-1.078,1.485-1.914,2.135-2.75
		C132.575,77.648,133,79.318,130.45,79.064z"/>
	<path display="inline" fill="#8F5F2F" d="M135.034,78.043c1.373,1.652,0.146,1.846-1.127,2.014
		C134.282,79.387,134.659,78.715,135.034,78.043z"/>
	<path display="inline" fill="#F52529" d="M129.347,57.07c-6.921,3.209-14.304,4.838-21.722,6.34
		c-2.103-0.119-4.159-0.18-6.245,0.475c-2.396,0.754-4.767-0.389-7.159-0.584c-10.768-0.879-20.938-3.586-29.83-10.055
		c-0.157-0.162-0.344-0.209-0.559-0.139l0.078-0.105c-2.36-2.43-4.782-4.795-6.214-7.972c-1.404-3.113-1.7-6.303-1.055-9.618
		c0.044-0.629,0.088-1.259,0.133-1.889l0.156,0.069c1.905-0.236,1.585,2.637,3.444,2.465c-0.465,4.812,0.868,9.05,4.238,12.53
		c7.759,8.017,17.891,10.867,28.427,12.041c6.415,0.715,12.955,0.324,19.462-0.937c8.063-1.561,15.459-4.274,21.615-9.729
		c7.598-6.727,7.603-15.77,0.242-22.708c-2.091-1.973-4.406-3.64-6.97-4.959c-9.796-5.049-20.284-6.399-31.149-6.061
		c-3.271,0.102-6.455,1.355-9.765,0.63c0.217-2.034,2.085-1.31,3.161-1.729c1.424-0.555,3.064-0.556,4.611-0.795
		c7.604,0.044,15.202,0.096,22.647,2.002c7.563,1.937,14.675,4.78,20.434,10.25c7.771,7.383,7.803,17.023,0.146,24.521
		c-1.42,1.393-2.968,2.654-4.456,3.977l0.083-0.002c-0.58-0.047-0.996,0.217-1.313,0.676l0.055-0.035
		c-0.439,0.228-0.879,0.451-1.319,0.679c-0.216,0.135-0.433,0.272-0.647,0.411C129.692,56.889,129.516,56.973,129.347,57.07z"/>
	<path display="inline" fill="#090708" d="M86.476,16.865c3.31,0.725,6.494-0.528,9.765-0.63
		c10.865-0.339,21.354,1.012,31.149,6.061c2.563,1.32,4.879,2.986,6.97,4.959c7.359,6.939,7.354,15.981-0.242,22.708
		c-6.156,5.455-13.554,8.169-21.615,9.73c-6.508,1.26-13.047,1.649-19.462,0.936c-10.536-1.174-20.668-4.023-28.427-12.041
		c-3.37-3.48-4.703-7.718-4.238-12.531c0.99-4.176,3.701-7.24,6.58-10.195c4.43-2.995,9.065-5.573,14.257-7.02
		c0.94-0.261,1.844-0.546,1.734-1.809C84.151,17.572,85.292,16.772,86.476,16.865z M77.563,36.275c2.221,0,3.662,0.01,5.1-0.004
		c0.598-0.006,1.171-0.263,0.675-0.906c-0.845-1.093-0.369-2.064,0.568-2.232c1.83-0.326,3.851-0.729,5.564,0.232
		c1.328,0.744-0.402,1.762-0.204,2.885c5.296,0,10.579,0.002,15.863-0.001c3.758-0.002,4.379-0.629,4.605-4.696
		c-1.347,0.901-2.229,2.348-3.822,2.816c-1.067,0.313-2.496,0.594-2.503-0.842c-0.024-3.974-1.096-8.038,0.648-11.889
		c-2.236,0-4.485,0-6.636,0c1.449,4.242,0.765,8.448,0.754,12.604c-0.002,0.576-0.433,0.95-1.051,0.958
		c-0.869,0.011-1.31-0.571-1.661-1.258c-1.202-2.356-2.439-4.695-3.597-7.074c-0.814-1.672-2.161-3.253-0.896-5.241
		c-2.58,0-4.848,0-7.204,0C85.187,24.144,81.594,33.086,77.563,36.275z M114.93,38.175c1.385,5.04,1.257,9.875-0.063,14.813
		c2.948,0.025,5.904,0.26,8.823-0.332c3.631-0.738,5.899-4.093,5.524-8.064c-0.362-3.825-2.764-6.258-6.5-6.398
		C119.981,38.092,117.241,38.175,114.93,38.175z M102.464,45.759c0.052-4.391-3.305-7.705-7.853-7.757
		c-4.671-0.053-8.058,3.045-8.119,7.427c-0.064,4.589,3.011,7.646,7.757,7.708C98.888,53.199,102.415,50.03,102.464,45.759z
		 M84.131,43.049c0.312-3.303-1.073-4.58-4.318-5.011c-6.204-0.822-10.675,3.885-9.036,9.929c0.97,3.579,4.357,5.592,8.739,5.188
		c4.077-0.373,4.893-1.304,5.318-5.961c0.063-0.693,0.301-1.371,0.519-2.324c-1.101,0-2.037,0-2.974,0c-0.927,0-1.854,0-3.082,0
		c0.887,1.517,0.879,2.869,0.842,4.236c-0.024,0.885-0.01,1.805-1.127,1.934c-0.97,0.112-1.537-0.542-1.861-1.404
		c-0.885-2.357-0.897-4.8-0.435-7.208c0.507-2.643,2.537-3.266,4.732-1.674C82.363,41.418,82.63,42.792,84.131,43.049z
		 M103.263,38.239c0.325,5.125,1.077,9.855-0.657,14.751c2.168,0,4.275,0.002,6.385,0c4.01-0.006,4.404-0.4,4.786-4.958
		c-0.983,0.812-1.797,1.634-2.749,2.237c-1.558,0.988-2.83,1.174-2.674-1.376c0.218-3.542-0.465-7.124,0.544-10.654
		C106.816,38.239,104.825,38.239,103.263,38.239z M121.713,31.774c-1.422,1.055-2.274,1.813-3.241,2.377
		c-1.369,0.796-2.654,0.678-2.574-1.231c0.156-3.773-1.167-7.635,0.796-11.295c-2.328,0-4.477,0-6.186,0
		c0.32,4.878,1.6,9.586-0.24,14.562c2.59,0,5.121-0.154,7.625,0.04C120.877,36.457,121.747,34.981,121.713,31.774z"/>
	<path display="inline" fill="#F76B4C" d="M66.955,25.862c-2.879,2.956-5.59,6.02-6.58,10.195c-1.859,0.172-1.54-2.701-3.444-2.465
		c2.265-4.458,5.479-8.011,9.914-10.4C66.881,24.083,66.917,24.972,66.955,25.862z"/>
	<path display="inline" fill="#F52529" d="M66.955,25.862c-0.037-0.89-0.074-1.779-0.111-2.67c4.916-3.233,9.974-6.095,16.102-6.158
		c0.109,1.263-0.794,1.547-1.734,1.809C76.02,20.29,71.384,22.867,66.955,25.862z"/>
	<path display="inline" fill="#FCD16F" d="M63.833,53.107c0.215-0.07,0.402-0.023,0.559,0.139
		C64.08,53.711,63.9,53.637,63.833,53.107z"/>
	<path display="inline" fill="#BE8A41" d="M140.777,72.658c-0.344,1.238,0.035,3.061-1.556,3.441
		c-1.072,0.256-0.942-1.166-0.842-1.923c0.191-1.396,0.039-3.301,1.764-3.616C141.149,70.377,140.592,71.883,140.777,72.658z"/>
	<path display="inline" fill="#DBB978" d="M146.813,70.307c0.824,2.385,0.32,4.135-0.32,5.871c-0.152,0.41-0.5,0.791-0.927,0.584
		c-0.298-0.147-0.608-0.627-0.61-0.959C144.947,73.947,145.221,72.162,146.813,70.307z"/>
	<path display="inline" fill="#DBB978" d="M151.441,77.73c-0.194-0.228-0.308-0.297-0.31-0.371
		c-0.064-1.816,0.183-3.545,1.813-4.668c0.337-0.23,0.89,0.26,0.858,0.635C153.661,75.121,152.875,76.59,151.441,77.73z"/>
	<path display="inline" fill="#EEBA6B" d="M113.952,72.99c0.494,0.002,0.988,0.002,1.482,0.002
		c-0.098,0.547-0.096,1.152-0.792,1.348C113.937,74.131,114.042,73.512,113.952,72.99z"/>
	<path display="inline" fill="#BE8A41" d="M117.264,73.141c3.578-0.293,0.563,2.063,1.188,2.957
		c-0.676,0.389-0.269,1.705-1.527,1.703C116.19,76.182,116.915,74.67,117.264,73.141z"/>
	<path display="inline" fill="#FCD16F" d="M130.523,56.406c0.44-0.227,0.88-0.451,1.319-0.678
		C131.573,56.287,131.051,56.354,130.523,56.406z"/>
	<path display="inline" fill="#FCD16F" d="M131.788,55.764c0.318-0.459,0.734-0.723,1.314-0.676
		C132.848,55.67,132.331,55.74,131.788,55.764z"/>
	<path display="inline" fill="#FCD16F" d="M129.347,57.07c0.169-0.098,0.345-0.182,0.526-0.252
		C129.795,57.104,129.84,57.648,129.347,57.07z"/>
	<path display="inline" fill="#EFEFEF" d="M77.563,36.275c4.032-3.189,7.625-12.132,6.205-14.648c2.356,0,4.624,0,7.204,0
		c-1.265,1.988,0.082,3.569,0.896,5.241c1.157,2.378,2.395,4.718,3.597,7.074c0.352,0.688,0.792,1.27,1.661,1.258
		c0.618-0.008,1.049-0.382,1.051-0.958c0.011-4.156,0.695-8.361-0.754-12.604c2.15,0,4.399,0,6.636,0
		c-1.744,3.851-0.673,7.915-0.648,11.889c0.008,1.436,1.436,1.156,2.503,0.842c1.594-0.469,2.477-1.916,3.822-2.816
		c-0.227,4.067-0.849,4.693-4.605,4.696c-5.284,0.003-10.567,0.001-15.863,0.001c-0.198-1.123,1.532-2.141,0.204-2.885
		c-1.714-0.961-3.734-0.558-5.564-0.232c-0.938,0.167-1.413,1.139-0.568,2.232c0.496,0.643-0.077,0.899-0.675,0.906
		C81.224,36.286,79.784,36.275,77.563,36.275z M87.958,30.824c0.001-1.441-0.813-2.377-1.808-3.629
		c-0.229,1.404-1.45,2.19-1.167,3.629C86.04,30.824,86.973,30.824,87.958,30.824z"/>
	<path display="inline" fill="#EFEFEF" d="M114.93,38.175c2.311,0,5.051-0.083,7.787,0.02c3.734,0.14,6.137,2.573,6.498,6.398
		c0.377,3.971-1.894,7.326-5.523,8.064c-2.919,0.592-5.875,0.356-8.822,0.332C116.187,48.05,116.315,43.215,114.93,38.175z
		 M120.852,45.365c0,1.047-0.059,2.099,0.021,3.14c0.049,0.661-0.389,1.614,0.539,1.907c0.938,0.294,1.637-0.412,2.008-1.155
		c1.283-2.583,1.154-5.259,0.148-7.884c-0.32-0.835-1.193-1.24-2.081-1.012c-0.993,0.257-0.591,1.198-0.628,1.862
		C120.801,43.268,120.844,44.317,120.852,45.365z"/>
	<path display="inline" fill="#EFEFEF" d="M102.464,45.759c-0.05,4.271-3.576,7.44-8.215,7.377
		c-4.746-0.063-7.821-3.119-7.757-7.708c0.062-4.382,3.448-7.479,8.119-7.427C99.16,38.054,102.516,41.368,102.464,45.759z
		 M96.866,45.29c-0.123-0.875-0.233-2.135-0.489-3.366c-0.226-1.087-0.772-2.054-2.082-1.962c-1.269,0.088-1.788,1.099-1.946,2.176
		c-0.182,1.244-0.315,2.54-0.167,3.776c0.226,1.868-0.364,4.865,2.283,4.818C97.263,50.68,96.639,47.698,96.866,45.29z"/>
	<path display="inline" fill="#EFEFEF" d="M84.131,43.049c-1.501-0.258-1.769-1.631-2.684-2.294
		c-2.195-1.592-4.225-0.969-4.732,1.674c-0.462,2.409-0.45,4.851,0.435,7.208c0.324,0.861,0.892,1.517,1.861,1.404
		c1.117-0.129,1.103-1.048,1.127-1.934c0.037-1.367,0.045-2.719-0.842-4.236c1.229,0,2.155,0,3.082,0c0.937,0,1.873,0,2.974,0
		c-0.218,0.953-0.455,1.631-0.519,2.324c-0.426,4.659-1.241,5.588-5.318,5.961c-4.382,0.402-7.769-1.609-8.739-5.188
		c-1.639-6.044,2.833-10.751,9.036-9.929C83.058,38.469,84.443,39.746,84.131,43.049z"/>
	<path display="inline" fill="#EFEFEF" d="M103.263,38.239c1.562,0,3.553,0,5.635,0c-1.009,3.531-0.326,7.112-0.544,10.654
		c-0.156,2.552,1.116,2.364,2.674,1.376c0.952-0.604,1.766-1.425,2.749-2.237c-0.382,4.557-0.776,4.952-4.786,4.958
		c-2.109,0.002-4.217,0-6.385,0C104.34,48.095,103.588,43.365,103.263,38.239z"/>
	<path display="inline" fill="#EFEFEF" d="M121.713,31.774c0.033,3.207-0.836,4.683-3.82,4.452c-2.504-0.193-5.035-0.04-7.625-0.04
		c1.84-4.976,0.563-9.684,0.24-14.562c1.709,0,3.857,0,6.186,0c-1.963,3.66-0.64,7.522-0.796,11.295
		c-0.08,1.909,1.205,2.027,2.574,1.231C119.439,33.587,120.292,32.83,121.713,31.774z"/>
	<path display="inline" fill="#211C16" d="M87.958,30.824c-0.985,0-1.919,0-2.975,0c-0.283-1.439,0.938-2.225,1.167-3.629
		C87.146,28.446,87.959,29.383,87.958,30.824z"/>
	<path display="inline" fill="#090708" d="M120.848,45.365c-0.004-1.048-0.047-2.097,0.013-3.141
		c0.037-0.664-0.364-1.605,0.628-1.862c0.887-0.228,1.762,0.176,2.081,1.012c1.007,2.625,1.134,5.3-0.149,7.884
		c-0.371,0.743-1.069,1.449-2.008,1.155c-0.927-0.293-0.488-1.247-0.539-1.907C120.793,47.464,120.852,46.412,120.848,45.365z"/>
	<path display="inline" fill="#090708" d="M96.866,45.29c-0.227,2.409,0.397,5.39-2.401,5.442c-2.647,0.048-2.058-2.949-2.283-4.817
		c-0.148-1.237-0.015-2.533,0.167-3.776c0.158-1.077,0.678-2.088,1.946-2.176c1.31-0.092,1.856,0.875,2.082,1.962
		C96.632,43.155,96.743,44.415,96.866,45.29z"/>
</g>
<g>
	<path fill="#424244" d="M192.418,76.957c-0.324,0.009-0.65,0.023-0.977,0.023c-45.699,0-91.395,0-137.094,0
		c-0.325,0-0.65-0.021-0.976-0.03c-0.002-0.056-0.006-0.109-0.011-0.163c2.593-2.352,4.862-4.982,6.876-7.846
		c1.173-1.67,2.121-3.477,3.226-5.187c0.081-0.058,0.161-0.114,0.242-0.173c0.355-0.016,0.709-0.039,1.064-0.039
		c40.294-0.002,80.587-0.005,120.88,0.02c0.868,0,1.063-0.222,1.061-1.071c-0.033-8.634-0.035-17.269,0-25.903
		c0.004-0.91-0.203-1.162-1.145-1.161c-37.891,0.027-75.779,0.022-113.67,0.022c0.189-2.022,0.376-4.043,0.563-6.065
		c0.504,0.003,1.008,0.01,1.514,0.01c39.185,0,78.366,0,117.552,0.003c0.354,0,0.709,0.027,1.063,0.042
		c-0.211,0.387-0.147,0.808-0.147,1.219c-0.003,8.946,0,17.892-0.003,26.838C192.433,63.982,192.424,70.47,192.418,76.957z
		 M128.038,66.635c0.02,0.293,0.053,0.588,0.055,0.881c0.006,2.018-0.004,4.033,0.01,6.049c0.002,0.238-0.156,0.647,0.191,0.683
		c0.733,0.069,1.479,0.042,2.219,0.011c0.22-0.01,0.181-0.271,0.181-0.439c0.003-2.313,0-4.627,0.005-6.938
		c0-0.298-0.039-0.534-0.423-0.51c-0.733,0.047-1.479-0.106-2.207,0.097c-0.048,0.021-0.099,0.041-0.147,0.063
		C127.958,66.563,127.999,66.6,128.038,66.635z M117.931,74.288c-0.435-0.722-0.772-1.334-1.161-1.915
		c-0.281-0.421-0.313-0.686,0.1-1.104c0.875-0.885,0.957-2.015,0.573-3.147c-0.362-1.072-1.239-1.558-2.307-1.688
		c-1.415-0.176-2.843-0.048-4.263-0.08c-0.312-0.006-0.494,0.078-0.492,0.447c0.012,2.344,0.013,4.686,0,7.025
		c-0.004,0.436,0.236,0.529,0.559,0.455c0.691-0.16,1.493,0.396,2.09-0.326c0.029-0.034-0.012-0.12,0.01-0.172
		c0.196-0.497-0.451-1.309,0.366-1.51c0.989-0.241,0.847,0.842,1.222,1.324c0.199,0.26,0.178,0.709,0.683,0.694
		C116.129,74.273,116.95,74.288,117.931,74.288z M155.004,70.254c0,1.155,0.002,2.311-0.002,3.464c0,0.308-0.028,0.589,0.436,0.577
		c1.271-0.031,2.553,0.061,3.814-0.064c2.248-0.221,3.625-1.81,3.603-3.977s-1.435-3.667-3.72-3.847
		c-1.148-0.091-2.309-0.013-3.461-0.065c-0.575-0.025-0.698,0.189-0.682,0.719C155.03,68.123,155.004,69.188,155.004,70.254z
		 M101.473,70.243c0,1.155,0.002,2.31-0.002,3.465c-0.001,0.31-0.021,0.588,0.435,0.585c1.984-0.012,3.97-0.016,5.952,0.002
		c0.532,0.004,0.443-0.343,0.454-0.658c0.046-1.341,0.046-1.341-1.188-1.341c-0.799,0-1.601-0.009-2.398,0.003
		c-0.362,0.008-0.614-0.014-0.61-0.504c0.003-0.502,0.285-0.492,0.631-0.488c0.859,0.006,1.717-0.01,2.576,0.006
		c0.364,0.006,0.558-0.098,0.522-0.5c-0.025-0.293-0.033-0.596,0.001-0.888c0.065-0.539-0.195-0.647-0.671-0.627
		c-0.709,0.031-1.424,0.043-2.129-0.009c-0.326-0.023-0.895,0.336-0.92-0.426c-0.026-0.766,0.542-0.461,0.875-0.475
		c0.826-0.039,1.66-0.051,2.486-0.003c0.605,0.038,0.799-0.188,0.717-0.757c-0.027-0.204-0.023-0.418,0-0.621
		c0.061-0.484-0.104-0.675-0.625-0.666c-1.836,0.027-3.674,0.022-5.511,0.003c-0.457-0.004-0.619,0.14-0.604,0.61
		C101.495,68.051,101.473,69.146,101.473,70.243z M146.092,70.284c0,1.128,0.003,2.254,0,3.381
		c-0.002,0.335-0.041,0.637,0.475,0.631c1.958-0.021,3.917,0.052,5.87-0.034c0.901-0.041,0.315-0.869,0.446-1.324
		c0.138-0.475-0.092-0.672-0.612-0.651c-1.006,0.039-2.017-0.001-3.022,0.017c-0.377,0.008-0.526-0.111-0.524-0.506
		c0-0.404,0.183-0.501,0.542-0.492c0.861,0.014,1.722-0.014,2.581,0.008c0.409,0.013,0.61-0.108,0.565-0.547
		c-0.024-0.234-0.029-0.478,0-0.711c0.071-0.563-0.109-0.805-0.723-0.761c-0.738,0.054-1.482,0.026-2.225,0.007
		c-0.309-0.008-0.732,0.184-0.745-0.439c-0.013-0.6,0.37-0.481,0.709-0.483c0.889-0.005,1.78-0.034,2.667,0.011
		c0.57,0.028,0.748-0.188,0.682-0.716c-0.025-0.205-0.027-0.418,0-0.622c0.075-0.549-0.145-0.716-0.693-0.706
		c-1.779,0.032-3.56,0.026-5.338,0.001c-0.496-0.005-0.68,0.131-0.664,0.649C146.118,68.089,146.092,69.188,146.092,70.284z
		 M92.184,70.53c0.03,1.313,0.645,2.573,2.049,3.334c1.573,0.854,3.136,0.702,4.636-0.234c1.099-0.687,1.068-0.672,0.231-1.634
		c-0.474-0.545-0.792-0.807-1.528-0.262c-0.999,0.744-2.147,0.332-2.542-0.729c-0.313-0.837-0.066-1.776,0.586-2.241
		c0.63-0.447,1.447-0.337,2.219,0.239c0.188,0.142,0.296,0.665,0.656,0.317c0.445-0.432,0.81-0.942,1.211-1.418
		c0.174-0.207-0.009-0.308-0.123-0.435c-0.989-1.089-3.214-1.5-4.819-0.885C93.162,67.195,92.201,68.573,92.184,70.53z
		 M132.95,70.327c0,1.125,0.023,2.252-0.01,3.378c-0.014,0.479,0.155,0.583,0.607,0.597c2.007,0.06,2.007,0.075,2.061-1.899
		c0-0.028,0.004-0.061,0-0.088c-0.074-0.483,0.156-0.605,0.604-0.588c0.771,0.028,1.541-0.01,2.312,0.013
		c0.406,0.013,0.621-0.101,0.582-0.546c-0.021-0.264-0.028-0.534,0.002-0.799c0.063-0.543-0.147-0.736-0.698-0.703
		c-0.707,0.041-1.423-0.014-2.132,0.017c-0.46,0.021-0.712-0.05-0.687-0.606c0.022-0.473,0.031-0.781,0.652-0.737
		c0.795,0.058,1.602-0.015,2.397,0.022c0.521,0.023,0.796-0.101,0.709-0.682c-0.035-0.23-0.031-0.477,0-0.709
		c0.065-0.516-0.152-0.658-0.647-0.651c-1.719,0.024-3.438,0.023-5.156,0c-0.461-0.005-0.617,0.134-0.604,0.604
		C132.973,68.073,132.95,69.201,132.95,70.327z M122.795,66.354c-1.008,0-2.015-0.002-3.022,0c-0.267,0.002-0.495-0.024-0.563,0.373
		c-0.244,1.42-0.043,1.693,1.357,1.7c0.061,0.003,0.119,0.011,0.18,0c0.539-0.086,0.721,0.134,0.7,0.683
		c-0.038,1.065-0.013,2.134-0.013,3.201c0,2.075,0,2.056,2.064,1.99c0.476-0.015,0.598-0.158,0.592-0.611
		c-0.027-1.334-0.012-2.668-0.01-4.002c0-1.259,0.002-1.303,1.266-1.242c0.779,0.037,1.174-0.147,1.015-0.994
		c-0.028-0.145-0.022-0.299-0.002-0.443c0.067-0.494-0.116-0.682-0.63-0.664C124.752,66.378,123.774,66.354,122.795,66.354z
		 M141.197,70.357c0,0.652,0,1.306,0,1.957c0,2.084-0.001,2.064,2.071,1.99c0.496-0.019,0.577-0.199,0.572-0.632
		c-0.02-1.809-0.006-3.618-0.006-5.427c0-2.03,0-2.014-2.061-1.907c-0.479,0.025-0.598,0.192-0.587,0.638
		C141.213,68.104,141.197,69.232,141.197,70.357z"/>
	<path fill="#48B931" d="M63.465,63.756c-1.105,1.71-2.053,3.516-3.226,5.186c-2.014,2.863-4.283,5.496-6.876,7.847
		c-0.055,0.058-0.11,0.114-0.165,0.171c-2.688,2.214-5.538,4.172-8.707,5.646c-0.508,0.234-0.907,0.226-1.41-0.013
		c-7.612-3.591-13.233-9.301-17.512-16.432c-4.242-7.07-6.814-14.771-8.498-22.796c-1.166-5.553-1.888-11.164-2.053-16.84
		c-0.012-0.424-0.069-0.73,0.557-0.662c5.662,0.619,11.101-0.396,16.407-2.315c3.984-1.44,7.679-3.44,11.125-5.892
		c0.526-0.375,0.858-0.366,1.38,0.001c6.036,4.241,12.634,7.119,19.994,8.095c2.448,0.325,4.904,0.44,7.363,0.131
		c0.569-0.073,0.809,0.027,0.753,0.659c-0.084,0.944-0.096,1.895-0.139,2.843c-0.187,2.021-0.374,4.042-0.563,6.065
		c-0.053,0.261-0.119,0.521-0.155,0.784c-1.284,9.423-3.714,18.505-8.06,27.015c-0.139,0.065-0.137,0.194-0.146,0.317
		C63.512,63.631,63.488,63.691,63.465,63.756z M63.157,41.4c-0.142-0.164-0.267-0.327-0.41-0.47c-1.088-1.094-2.207-2.16-3.26-3.286
		c-0.466-0.498-0.723-0.519-1.225-0.013c-5.56,5.603-11.152,11.171-16.716,16.771c-0.477,0.479-0.733,0.531-1.238,0.016
		c-2.868-2.922-5.787-5.794-8.66-8.712c-0.438-0.444-0.673-0.456-1.102,0c-1.077,1.145-2.199,2.249-3.332,3.339
		c-0.352,0.339-0.392,0.536-0.02,0.906c4.438,4.415,8.865,8.842,13.278,13.283c0.362,0.365,0.555,0.345,0.906-0.008
		c7.122-7.146,14.258-14.279,21.39-21.415C62.893,41.687,63.012,41.555,63.157,41.4z"/>
	<path fill="#5C5C5E" d="M192.418,76.957c0.006-6.487,0.015-12.975,0.018-19.461c0.003-8.946,0-17.892,0.003-26.838
		c0-0.411-0.063-0.833,0.147-1.219c0.317,0.219,0.154,0.544,0.154,0.812c0.01,15.303,0.01,30.606-0.011,45.909
		C192.731,76.411,193.077,76.917,192.418,76.957z"/>
	<path fill="#5C5C5E" d="M53.198,76.958c0.055-0.056,0.11-0.113,0.165-0.171c0.005,0.054,0.008,0.107,0.011,0.163
		C53.314,76.953,53.256,76.957,53.198,76.958z"/>
	<path fill="#39393B" d="M63.465,63.756c0.023-0.063,0.047-0.125,0.071-0.189c0.064-0.014,0.128-0.026,0.193-0.041l-0.022,0.059
		C63.626,63.641,63.546,63.698,63.465,63.756z"/>
	<path fill="#39393B" d="M128.067,66.465c-0.009,0.057-0.02,0.112-0.029,0.17c-0.039-0.035-0.08-0.07-0.119-0.107
		C127.967,66.506,128.019,66.484,128.067,66.465z"/>
	<path fill="#BEBEBE" d="M63.729,63.523c-0.064,0.016-0.129,0.028-0.193,0.041c0.009-0.123,0.007-0.252,0.146-0.317
		C63.698,63.341,63.713,63.434,63.729,63.523z"/>
	<path fill="#434345" d="M96.475,60.036c-0.147,0.294-0.419,0.153-0.63,0.155c-1.364,0.014-2.73-0.033-4.092,0.023
		c-0.697,0.029-0.835-0.219-0.822-0.859c0.039-2.045-0.006-4.092,0.028-6.139c0.009-0.555-0.149-0.701-0.696-0.691
		c-1.927,0.033-3.855,0.033-5.782,0c-0.539-0.008-0.71,0.127-0.7,0.688c0.034,2.046-0.023,4.094,0.033,6.139
		c0.021,0.737-0.226,0.889-0.9,0.862c-1.303-0.05-2.61-0.047-3.913-0.001c-0.628,0.021-0.87-0.094-0.865-0.807
		c0.031-6.229,0.025-12.456,0.004-18.685c-0.001-0.577,0.137-0.778,0.736-0.761c1.393,0.04,2.789,0.037,4.181,0.001
		c0.572-0.015,0.763,0.134,0.752,0.74c-0.04,2.046-0.003,4.093-0.023,6.139c-0.005,0.493,0.052,0.746,0.656,0.733
		c1.957-0.041,3.915-0.031,5.872-0.004c0.515,0.008,0.649-0.153,0.643-0.653c-0.026-2.017-0.019-4.034-0.002-6.051
		c0.002-0.269-0.163-0.595,0.153-0.814c0.078,0.16,0.143,0.133,0.201-0.014c1.651-0.096,3.303-0.087,4.956-0.004
		c0.076,0.082,0.153,0.164,0.229,0.246c0.016,3.083,0.045,6.167,0.044,9.251c-0.002,3.438-0.03,6.879-0.048,10.318
		C96.36,59.9,96.33,59.961,96.475,60.036z"/>
	<path fill="#424244" d="M121.026,60.199c-1.889,0-3.72-0.012-5.551,0.009c-0.396,0.005-0.498-0.228-0.611-0.508
		c-0.342-0.853-0.708-1.695-1.027-2.556c-0.145-0.391-0.348-0.545-0.776-0.539c-2.226,0.021-4.449,0.02-6.677,0.002
		c-0.42-0.004-0.676,0.121-0.768,0.537c-0.015,0.057-0.043,0.11-0.066,0.166c-0.416,0.94-0.479,2.289-1.269,2.746
		c-0.783,0.452-2.016,0.133-3.053,0.141c-0.858,0.008-1.717,0.002-2.569,0.002c-0.139-0.361,0.092-0.604,0.199-0.861
		c2.634-6.25,5.284-12.492,7.9-18.748c0.232-0.556,0.494-0.759,1.1-0.735c1.333,0.051,2.669,0.029,4.005,0.008
		c0.431-0.007,0.687,0.082,0.873,0.531c2.714,6.472,5.453,12.935,8.183,19.401C120.961,59.896,120.976,60.01,121.026,60.199z
		 M111.969,52.189c-0.736-1.871-1.448-3.683-2.227-5.659c-0.791,2.003-1.504,3.806-2.234,5.659
		C109.038,52.189,110.456,52.189,111.969,52.189z"/>
	<path fill="#434345" d="M163.243,50.078c0-3.111,0.004-6.223-0.004-9.335c-0.002-0.436-0.053-0.798,0.606-0.783
		c3.11,0.073,6.223-0.089,9.331,0.104c0.412,0.026,0.824,0.092,1.23,0.174c3.752,0.755,5.881,3.217,5.895,6.801
		c0.015,3.73-2.145,6.32-5.91,7.113c-1.583,0.334-3.184,0.312-4.781,0.275c-0.587-0.014-0.754,0.17-0.738,0.747
		c0.039,1.421-0.006,2.845,0.022,4.267c0.012,0.543-0.082,0.798-0.715,0.772c-1.421-0.05-2.847-0.043-4.267-0.001
		c-0.574,0.018-0.688-0.186-0.683-0.712C163.252,56.359,163.243,53.219,163.243,50.078z M170.7,44.713
		c-0.385,0-0.773,0.038-1.152-0.009c-0.58-0.07-0.688,0.19-0.676,0.708c0.032,1.332,0.006,2.665,0.017,3.998
		c0.001,0.27-0.112,0.646,0.375,0.632c1.151-0.035,2.313,0.132,3.448-0.167c1.263-0.332,1.978-1.251,1.975-2.505
		c-0.003-1.315-0.656-2.134-1.956-2.501C172.058,44.678,171.377,44.728,170.7,44.713z"/>
	<path fill="#424244" d="M131.516,60.588c-6.255,0.002-10.789-4.84-10.464-11.171c0.31-6.017,5.663-10.444,11.786-9.795
		c2.851,0.302,5.228,1.426,7.053,3.674c0.311,0.382,0.324,0.593-0.092,0.899c-1.121,0.825-2.229,1.675-3.307,2.559
		c-0.382,0.313-0.562,0.215-0.84-0.107c-0.902-1.044-2.014-1.744-3.412-1.904c-2.628-0.3-4.922,1.532-5.326,4.257
		c-0.121,0.826-0.133,1.662,0.063,2.477c0.452,1.895,1.491,3.321,3.438,3.823c1.971,0.511,3.729-0.021,5.08-1.547
		c0.555-0.63,0.906-0.683,1.545-0.149c0.863,0.717,1.793,1.366,2.75,1.961c0.619,0.386,0.521,0.652,0.125,1.143
		C137.747,59.385,134.934,60.632,131.516,60.588z"/>
	<path fill="#424244" d="M152.026,60.588c-6.311,0.008-10.836-4.829-10.5-11.221c0.314-5.994,5.71-10.413,11.831-9.741
		c2.817,0.31,5.167,1.427,6.979,3.639c0.336,0.412,0.353,0.629-0.106,0.96c-1.104,0.799-2.185,1.635-3.233,2.506
		c-0.412,0.344-0.601,0.233-0.904-0.117c-0.901-1.043-2.023-1.729-3.426-1.874c-2.606-0.269-4.849,1.521-5.271,4.216
		c-0.132,0.826-0.146,1.664,0.043,2.479c0.439,1.889,1.463,3.332,3.408,3.852c2.046,0.547,3.826-0.049,5.221-1.627
		c0.471-0.531,0.77-0.604,1.339-0.137c0.89,0.733,1.839,1.406,2.819,2.017c0.648,0.403,0.545,0.696,0.131,1.203
		C158.196,59.383,155.411,60.624,152.026,60.588z"/>
	<path fill="#39393B" d="M91.308,40.037c-0.058,0.147-0.123,0.174-0.201,0.014C91.174,40.045,91.24,40.041,91.308,40.037z"/>
	<path fill="#39393B" d="M96.493,40.278c-0.075-0.082-0.152-0.164-0.229-0.246C96.449,40.012,96.512,40.107,96.493,40.278z"/>
	<path fill="#39393B" d="M96.475,60.036c-0.145-0.075-0.115-0.136,0.014-0.188C96.485,59.91,96.479,59.973,96.475,60.036z"/>
	<path fill="#454547" d="M113.055,69.249c-0.166-0.698,0.095-0.935,0.818-0.896c0.703,0.037,1.271,0.143,1.244,0.985
		c-0.022,0.804-0.597,0.843-1.244,0.896C113.04,70.305,112.928,69.907,113.055,69.249z"/>
	<path fill="#454547" d="M158.292,68.4c1.258,0.026,1.967,0.865,1.871,2.129c-0.095,1.225-0.873,1.85-2.082,1.746
		c-0.451-0.041-0.438-0.279-0.436-0.59c0.003-0.884,0.036-1.769-0.012-2.65C157.604,68.443,157.863,68.314,158.292,68.4z"/>
</g>
</svg>
