<?xml version="1.0" encoding="utf-8"?>
<!-- Generator: Adobe Illustrator 16.0.2, SVG Export Plug-In . SVG Version: 6.00 Build 0)  -->
<!DOCTYPE svg PUBLIC "-//W3C//DTD SVG 1.1//EN" "http://www.w3.org/Graphics/SVG/1.1/DTD/svg11.dtd">
<svg version="1.1" id="Layer_1" xmlns="http://www.w3.org/2000/svg" xmlns:xlink="http://www.w3.org/1999/xlink" x="0px" y="0px"
	 width="208.833px" height="100px" viewBox="0 0 208.833 100" enable-background="new 0 0 208.833 100" xml:space="preserve">
<rect x="3" y="2.383" fill="#FFFFFF" stroke="#B3B3B3" stroke-miterlimit="10" width="203.833" height="95.617"/>
<g>
	<path fill-rule="evenodd" clip-rule="evenodd" fill="#244675" d="M22.699,66.929c-1.178-4.97-1.207-9.961-0.321-14.976
		c0.979-0.749,0.56-1.943,0.908-2.904c0.873-2.38,1.539-4.834,2.286-7.26l-0.027,0.018c0.562-0.096,0.403-0.536,0.427-0.89
		c1.572-3.348,3.703-6.289,6.389-8.832c0.422,0.012,0.646-0.182,0.639-0.614l-0.008,0.005c0.285-0.005,0.544-0.043,0.513-0.428
		l0.093,0.005c0,0-0.093,0.007-0.093,0.01c0.222,0.028,0.327-0.073,0.33-0.293l0.069,0.059c0,0-0.079-0.044-0.078-0.044
		c0.207,0.013,0.324-0.086,0.356-0.289l-0.023,0.022c0.12-0.097,0.241-0.194,0.36-0.292c0,0-0.021,0.019-0.018,0.019
		c0.118-0.093,0.235-0.189,0.354-0.281c0.018-0.067,0.058-0.087,0.123-0.062c0.448,0.064,0.75-0.064,0.771-0.573l-0.01,0.008
		c1.499-0.262,2.717-1.099,3.945-1.923l-0.019,0.024c0.78,0.243,1.522-0.012,2.234-0.246c1.583-0.516,3.127-0.308,4.593,0.29
		c0.661,0.268,1.228,0.406,1.889,0.199l0.033-0.004c0.148,1.065,1.109,0.778,1.74,1.042l-0.012-0.01
		c0.107,0.76,0.277,1.447,1.312,1.128l-0.007,0.012c0.279,0.621,0.375,1.397,1.258,1.517l-0.096,0.071l0.104-0.058
		c-0.104,0.25-0.093,0.488,0.051,0.725c1.445,2.334,1.714,4.925,1.634,7.585c-0.046,1.445-0.522,2.86-0.296,4.325
		c-0.542,1.952-1.23,3.838-2.393,5.523c-0.31,0.096-0.356,0.339-0.344,0.615l0.008-0.003c-0.404,0.148-1.051-0.799-1.248,0.277
		c-0.308,0-0.618,0.004-0.926,0.004c-0.393-0.149-0.777,0.178-1.146-0.635c-0.448-0.984-0.125-1.713-0.109-2.558
		c1.359-2.871,2.298-5.816,1.88-9.069c-0.458-3.568-2.699-6.013-5.896-6.317c-2.962-0.109-5.4,1.091-7.546,3.019
		c-0.822,0.007-1.563,0.114-1.544,1.2c-0.09,0.124-0.183,0.249-0.274,0.373c-0.086,0.089-0.174,0.178-0.261,0.265
		c-1.132,0.086-1.755,0.615-1.583,1.831l0.01-0.016c-0.1,0.124-0.203,0.245-0.309,0.369c-0.069,0.091-0.142,0.185-0.214,0.277
		c-0.71-0.053-0.745,0.397-0.688,0.917l0.01-0.023c-0.111,0.114-0.224,0.227-0.336,0.339c0.009,0.586-0.481,0.946-0.653,1.45
		c-2.953,4.712-4.552,9.904-5.471,15.344c-0.083,0.495-0.202,0.993-0.305,1.485c-0.449,0.338-0.263,0.819-0.287,1.25l0.017-0.026
		c-0.552,0.423-0.327,1.03-0.331,1.563c-0.021,2.827-0.011,5.652-0.011,8.506c-0.414-0.066-0.345-0.583-0.732-0.543
		c0,0,0.037,0.013,0.039,0.013c0.269-0.886-0.099-1.77-0.065-2.67C23.429,65.927,22.966,66.878,22.699,66.929z M22.722,65.085
		c0.191-1.171,0.337-2.342,0.079-3.476c-0.154,0.015-0.308,0.028-0.458,0.038C22.47,62.797,22.596,63.938,22.722,65.085z"/>
	<path fill-rule="evenodd" clip-rule="evenodd" fill="#244675" d="M73.35,47.972c-0.633,1.242-0.186,2.569-0.276,3.849
		c-0.088,1.259-0.05,2.531-0.071,3.793c-0.248,0.063-0.575,0.128-0.456,0.46c0.381,1.038-0.227,1.034-0.984,1.101
		c-1.196,0.108-1.292-0.53-1.289-1.476c0.025-6.869,0.014-13.736,0.009-20.602c0-0.608,0.096-1.265-0.091-1.817
		c-0.372-1.104,0.099-1.19,1.01-1.151c2.545,0.109,5.092,0.126,7.625-0.25c0.21,0.015,0.426,0.029,0.638,0.043
		c0.119,0.043,0.236,0.087,0.354,0.13l-0.038-0.024c0.139,0.38,0.332,0.402,0.58,0.095c2.829,0.673,4.729,2.328,5.506,5.178
		c0.091,1.637-0.09,3.26-0.311,4.876c-0.483,0.485-0.758,0.936-1.388-0.076c-0.5-0.814-0.807-1.51-0.755-2.435
		c0.044-0.931-0.195-1.774-1.039-2.324c-1.007-1.392-2.229-2.495-3.934-2.939c-1.398-0.366-2.831-0.099-4.239-0.215
		c-0.988-0.083-1.179,0.325-1.166,1.224c0.049,3.043,0.017,6.087,0.021,9.132c0,0.449-0.079,0.923,0.343,1.262
		c-0.017,0.086-0.042,0.171-0.042,0.256c0,0.03,0.067,0.08,0.1,0.08c1.387,0.007,2.774,0.01,4.165,0.013
		c-0.448,0.501-1.048,0.326-1.569,0.288c-0.944-0.065-1.299,0.327-1.188,1.229C74.34,47.674,73.694,47.072,73.35,47.972z
		 M72.505,43.392c0.041,0,0.079,0,0.12-0.001c0-2.617,0-5.237,0-7.855c-0.041,0.002-0.079,0.002-0.12,0.002
		C72.505,38.155,72.505,40.774,72.505,43.392z"/>
	<path fill-rule="evenodd" clip-rule="evenodd" fill="#1E8366" d="M43.928,31.853c-5.556,3.254-9.245,8.061-11.613,13.967
		c-2.307,5.27-3.377,10.814-3.592,16.534c-0.112,3,0.012,5.998,0.583,8.958c0.063,0.319,0.009,0.656-0.11,1.005
		c-1.253-2.124-1.713-4.486-1.98-6.876c-0.787-7.022-0.21-13.897,2.579-20.486c0.346-0.819,0.439-1.749,1.104-2.422
		c0.84-1.426,1.957-2.695,2.438-4.322l-0.027,0.005c0.104-0.002,0.209-0.005,0.313-0.01c0.506-0.547,1.148-1.002,1.239-1.83
		l-0.024,0.012c0.446,0.073,0.534-0.218,0.563-0.564c0.42-0.221,0.748-0.54,0.983-0.952C38.528,32.943,40.966,31.743,43.928,31.853z
		"/>
	<path fill-rule="evenodd" clip-rule="evenodd" fill="#244675" d="M161.024,42.54c-0.014,3.003-0.042,6.005-0.042,9.003
		c0,2.655,1.301,3.974,4.007,4.114c0.199,0.008,0.396,0.026,0.6,0.041c-0.387,2.095-0.467,2.218-2.491,2.08
		c-3.271-0.222-5.431-2.069-5.094-5.225c0.573-2.445,0.144-4.925,0.233-7.392c0.03-0.775,0.298-1.623-0.256-2.351
		c-0.25-0.347-0.625-0.222-0.956-0.271c-0.566-0.085-1.517,0.285-1.426-0.737c0.067-0.708,0.301-1.639,1.471-1.455
		c0.318,0.053,0.713,0.087,0.916-0.31c0.662-1.48-0.063-3.127,0.562-4.611l-0.013,0.015c0.27,0.018,0.506-0.025,0.644-0.296
		l-0.014,0.006c0.882-0.095,1.249,0.211,1.271,1.18c0.024,1.238-0.356,2.522,0.265,3.719c0.079,0.006,0.157,0.008,0.236,0.011
		c0.05,0.078,0.077,0.166,0.092,0.259c0.02,0.307,0.072,0.597,0.471,0.589c0.312-0.007,0.382-0.245,0.435-0.489
		c0.198,0,0.397,0,0.597,0c0.276,0.762,0.836,0.95,1.544,0.683c0.747-0.286,1.349-0.13,1.854,0.475
		c-0.086,0.21-0.168,0.42-0.252,0.629C164.129,42.352,162.531,41.794,161.024,42.54z"/>
	<path fill-rule="evenodd" clip-rule="evenodd" fill="#1E8366" d="M54.156,27.791c2.903,1.801,4.334,4.602,4.676,7.819
		c0.849,8.052-2.124,14.574-8.397,19.635c-0.99,0.797-2.233,1.05-3.328,1.621c-0.354-0.032-0.71-0.077-0.962,0.268
		c-0.192,0.028-0.387,0.058-0.582,0.087c-0.104-0.902,1.348-0.625,1.194-1.571l-0.021-0.103c0.801-0.389,1.373-1.021,1.842-1.758
		l0.01-0.014c1.559-0.567,2.037-2.151,3.053-3.229c4.496-5.279,6.958-13.927,2.972-20.481c-0.338-0.556-0.77-1.053-1.159-1.577
		C53.586,28.15,53.816,27.914,54.156,27.791z"/>
	<path fill-rule="evenodd" clip-rule="evenodd" fill="#294974" d="M128.065,42.78c-0.786-0.189-1.565-0.441-2.36-0.553
		c-3.074-0.436-5.005,0.494-6.358,3.006c-1.39,2.586-1.084,5.935,0.907,8.089c1.047,1.131,2.024,2.491,3.805,2.622
		c0.858,0.588,1.825,0.153,2.732,0.289c0.545,0.468,1.209,0.591,1.892,0.631c-4.198,2.213-9.032,1.238-11.642-2.353
		c-2.499-3.446-2.122-8.31,0.987-11.254c1.509-1.437,3.292-2.513,5.4-2.921l0.055,0.047c0.273,0.814,0.91,1.056,1.691,1.21
		c1.069,0.213,2.203,0.25,3.15,0.9C128.239,42.588,128.152,42.684,128.065,42.78z"/>
	<path fill-rule="evenodd" clip-rule="evenodd" fill="#294974" d="M96.567,42.501c-2.351-0.61-4.317-0.224-5.523,2.129
		c-0.482,0.455-0.283,1.046-0.287,1.579c-0.018,2.672-0.004,5.353-0.009,8.025c0,1.35,0.419,2.898-1.522,3.373
		c-1.053,0.313-1.184-0.269-1.18-1.121c0.021-4.21,0.007-8.415,0.007-12.621c0-0.455-0.015-0.913-0.011-1.369
		c0.005-0.523-0.829-1.128-0.187-1.486c0.86-0.478,1.934-0.924,2.859-0.836c0.84,0.082,0.053,1.227,0.509,1.883
		c1.109-0.384,1.886-1.569,3.18-1.713c0.604,0.004,1.212-0.014,1.816,0.017c0.463,0.022,1.106-0.201,1.213,0.538
		C97.532,41.605,97.595,42.37,96.567,42.501z"/>
	<path fill-rule="evenodd" clip-rule="evenodd" fill="#2C4B7A" d="M132.37,33.637c-0.808-0.9-0.667-1.431,0.588-1.567
		c0.398-0.042,0.786-0.165,1.181-0.25c0.712,0.334,0.946,0.854,0.928,1.668c-0.063,2.642-0.033,5.285-0.01,7.928
		c0.004,0.263-0.313,0.72,0.285,0.801c0.217,0.008,0.426,0.016,0.644,0.025c0.197,0.086,0.396,0.172,0.597,0.258
		c0,0.209,0,0.417,0,0.625c-0.415,0.604-1.211,0.945-1.248,1.808c-0.479,0.456-0.28,1.045-0.284,1.575
		c-0.017,3.026,0.004,6.047-0.013,9.074c-0.004,0.533,0.198,1.12-0.292,1.572c-1.449,0.262-1.883-0.313-1.869-1.789
		c0.073-6.732,0.042-13.466,0.016-20.197C132.889,34.637,133.266,33.895,132.37,33.637z"/>
	<path fill-rule="evenodd" clip-rule="evenodd" fill="#294974" d="M153.656,48.908c0,2.54-0.074,5.087,0.029,7.621
		c0.053,1.345-0.733,1.162-1.545,1.167c-0.807,0-1.564,0.178-1.54-1.164c0.083-4.263,0.032-8.531,0.029-12.801
		c0-0.454,0.141-1.023-0.074-1.349c-0.92-1.391-0.117-1.681,1.041-1.833c0.249-0.034,0.495-0.125,0.726-0.225
		c0.993-0.428,1.403-0.253,1.363,0.966C153.596,43.827,153.656,46.371,153.656,48.908z"/>
	<path fill-rule="evenodd" clip-rule="evenodd" fill="#274972" d="M182.446,46.724c1.374,0.519,2.737,1.055,4.118,1.551
		c1.783,0.639,2.948,1.805,3.092,3.75c0.146,1.942-0.657,3.466-2.306,4.495c-0.592,0.372-1.154,0.833-1.882,0.962
		c-0.054-0.336,0.037-0.861-0.406-0.861c-1.134,0-2.268,0.123-3.835,0.228c0.85,0.608,1.286,1.026,1.867,0.82
		c0.797-0.278,1.585-0.19,2.386-0.194c-2.285,1.149-4.422,0.648-6.484-0.602c0.102-0.008,0.21,0.009,0.3-0.024
		c0.392-0.141,1.189,0.353,1.085-0.533c-0.047-0.406,0.107-1.208-0.584-1.209c-0.624-0.004-0.501,0.761-0.712,1.18
		c-0.083,0.168-0.055,0.396-0.075,0.601c-1.239-0.905-0.084-1.715,0.206-2.423c0.391-0.926,0.779,0.157,1.111,0.281
		c0.941,0.361,1.805,0.915,2.811,1.109c1.688,0.328,2.806-0.155,3.316-1.406c0.573-1.411,0.009-2.928-1.412-3.765
		c-0.296-0.174-0.593-0.342-0.892-0.508c1.067,0.112,1.574-0.602,2.12-1.379c-1.714-0.17-2.47,0.356-2.099,1.388
		c-0.681-0.021-1.271-0.282-1.83-0.644c0.151-0.01,0.301-0.019,0.448-0.032c-0.084-0.741,2.016-1.655-0.173-2.256
		C182.517,47.226,182.498,46.905,182.446,46.724z"/>
	<path fill-rule="evenodd" clip-rule="evenodd" fill="#244675" d="M136.582,42.5c-0.201-0.086-0.399-0.172-0.597-0.258
		c0.597-0.583,1.263-1.071,2.086-1.289c1.536-0.281,3.072-0.564,4.606-0.849c0.208,0.055,0.413,0.108,0.62,0.16
		c0.137,0.369,0.38,0.426,0.701,0.226c0,0,0.024,0.003,0.024,0.004c0,0.451,0.265,0.446,0.588,0.338v-0.009
		c0.059,0.566,0.521,0.582,0.918,0.686c0,0-0.033-0.037-0.033-0.036c0.336,0.68,0.602,1.411,1.219,1.915l-0.027-0.029
		c-0.015,0.225-0.035,0.448-0.057,0.67c-0.758,0.115-0.578,0.713-0.578,1.183c-0.013,3.129-0.013,6.254,0,9.383
		c0.005,0.306-0.161,0.742,0.376,0.849c0.53-0.562-0.104-1.428,0.513-1.957c0.003,0.862-0.012,1.723,0.021,2.579
		c0.036,1.031-0.712,1.113-1.425,1.172c-0.927,0.069-0.702-0.675-0.712-1.172c-0.023-2.024,0.01-4.05-0.02-6.072
		c-0.009-0.501,0.276-1.17-0.516-1.404c-0.008-0.915-0.018-1.829-0.023-2.744c0.386-0.738,0.14-1.274-0.525-1.683l0.078-0.025
		l-0.081,0.004c0.131-0.448-0.15-0.602-0.507-0.699l0.028,0.022c-0.118-0.111-0.238-0.223-0.361-0.333
		c-0.11-0.008-0.188-0.062-0.24-0.162c-0.081-0.062-0.164-0.126-0.247-0.188c0,0-0.02-0.01-0.024-0.01
		c-0.968-1.37-3.611-1.534-5.113-0.144l0.005-0.122l0.005,0.122C137.049,42.585,136.813,42.543,136.582,42.5z"/>
	<path fill-rule="evenodd" clip-rule="evenodd" fill="#244675" d="M99.959,57.139c0.002-0.199,0.007-0.403,0.007-0.606
		c0.083-0.177,0.232-0.36,0.232-0.543c0.01-4.668,0.14-9.344-0.086-14c-0.08-1.619,0.989-0.987,1.498-1.18
		c0.913-0.349,0.739,0.532,0.745,1.027c0.019,2.184-0.019,4.366,0.016,6.551c0.043,2.381-0.255,4.781,0.152,7.13
		c0.229,1.302-0.14,1.713-1.348,1.642C100.773,57.139,100.364,57.146,99.959,57.139z"/>
	<path fill-rule="evenodd" clip-rule="evenodd" fill="#294974" d="M172.399,40.327c0.085-0.017,0.162,0.009,0.219,0.074
		c0.984,0.801,2.119,0.522,3.171,0.331c1.08-0.194,1.52,0.091,1.433,1.176l0.014-0.012c-1.511,0.391-3.131-0.057-4.607,0.591
		c-0.105,0.104-0.205,0.205-0.308,0.306c-0.05-0.017-0.094-0.045-0.141-0.043c-0.038,0.003-0.106,0.042-0.106,0.064
		c-0.025,0.933-0.041,1.868-0.065,2.799c-0.019,0.474,0.132,1.042-0.593,1.156c-0.714-0.311-0.659-0.95-0.619-1.548
		c0.06-0.825-0.169-1.583-0.434-2.345c-0.227-0.656-0.632-0.685-1.159-0.356c-0.249,0.006-0.519,0.072-0.745,0.005
		c-0.52-0.152-1.508,0.451-1.489-0.464c0.011-0.733,0.211-1.9,1.561-1.714c0.349,0.048,0.703-0.002,0.943-0.323
		c0.521-0.183,0.398-0.632,0.398-1.017c0-1.2-0.02-2.4-0.033-3.601v0.029c0.114,0.01,0.227,0.019,0.343,0.028
		c0.265-0.012,0.509-0.063,0.582-0.376l-0.027,0.025c0.94-0.064,1.277,0.313,1.311,1.31
		C172.085,37.721,171.585,39.096,172.399,40.327z"/>
	<path fill-rule="evenodd" clip-rule="evenodd" fill="#244675" d="M182.446,46.724c0.052,0.182,0.07,0.502,0.171,0.528
		c2.188,0.601,0.089,1.515,0.173,2.256c-0.147,0.014-0.297,0.022-0.448,0.032c-0.196-0.045-0.393-0.096-0.592-0.139
		c-0.415-0.751-1.231-0.745-1.899-1.036l0.02,0.042c-0.003-0.224-0.106-0.335-0.338-0.311c0,0-0.025,0.003-0.021,0.003
		c-1.03-2.287-1.006-4.414,0.927-6.261c0.065-0.067,0.089-0.181,0.138-0.27l0.11-0.04c0.319,0.007,0.667,0.056,0.671-0.428
		l0.013,0.051c2.05-0.875,4.114-1.147,6.221-0.199c0.199,0.007,0.398,0.011,0.597,0.018l0.008,0.001
		c-0.042,0.886,0.224,1.919-1.071,2.188l-0.089,0.001l-0.047-0.068c-0.65-1.159-2.461-1.554-4.289-0.935
		c-0.082,0.031-0.171,0.043-0.261,0.041c-1.17-0.245-1.222,1.233-2.232,1.457c-0.46,0.102,0.588,0.58,0.622,1.077
		c0.02,0.298,0.029,0.607,0.12,0.887c0.231,0.706,0.583,1.292,1.49,1.108L182.446,46.724z"/>
	<path fill-rule="evenodd" clip-rule="evenodd" fill="#274972" d="M82.375,37.342c0.844,0.55,1.083,1.393,1.039,2.324
		c-0.052,0.924,0.255,1.621,0.755,2.435c0.63,1.011,0.904,0.561,1.388,0.076c0.082,0,0.166,0.003,0.244,0.006
		c-0.885,2.939-3.287,4.175-5.869,5.202c-1.706-0.159-3.361,0.508-5.067,0.286c-0.111-0.901,0.244-1.294,1.188-1.229
		c0.521,0.038,1.122,0.213,1.569-0.288c0.69-0.198,1.613,0.489,2.09-0.537c1.317-0.537,2.239-1.449,2.85-2.749
		C83.447,40.972,83.114,39.16,82.375,37.342z"/>
	<path fill-rule="evenodd" clip-rule="evenodd" fill="#294768" d="M78.827,31.878c-2.534,0.376-5.08,0.359-7.625,0.25
		c-0.911-0.039-1.382,0.048-1.01,1.151c0.187,0.552,0.091,1.209,0.091,1.817c0.005,6.865,0.016,13.732-0.009,20.602
		c-0.003,0.945,0.092,1.584,1.289,1.476c0.758-0.066,1.366-0.063,0.984-1.101c-0.12-0.332,0.208-0.397,0.456-0.46
		c0.117,1.971-0.773,2.657-2.653,2.062c-0.82-0.255-0.46-0.932-0.46-1.412c-0.028-6.909-0.021-13.821-0.016-20.734
		c0-1.259,0.166-2.541-0.788-3.651C72.431,31.878,75.626,31.878,78.827,31.878z"/>
	<path fill-rule="evenodd" clip-rule="evenodd" fill="#2C4B7A" d="M169.203,42.521c0.527-0.329,0.933-0.3,1.159,0.356
		c0.265,0.761,0.493,1.52,0.434,2.345c-0.04,0.599-0.095,1.238,0.619,1.548c-0.004,1.017-0.004,2.03-0.008,3.05
		c-1.197,0.524-0.431,1.57-0.603,2.369c-0.207,0.987,0.187,1.43,1.217,0.981c0.378,0.32,0.549,0.743,0.606,1.217
		c-0.205,0.109-0.411,0.22-0.616,0.329c-0.721-0.037-1.471,0.115-2.133-0.312c-0.004-0.613,0.066-1.234-0.023-1.832
		c-0.145-1.008,0.453-2.113-0.371-3.032C169.108,47.21,169.613,44.849,169.203,42.521z"/>
	<path fill-rule="evenodd" clip-rule="evenodd" fill="#344F71" d="M99.959,57.139c0.405,0.007,0.814,0,1.217,0.02
		c1.208,0.071,1.577-0.34,1.348-1.642c-0.407-2.349-0.109-4.749-0.152-7.13c-0.034-2.185,0.003-4.367-0.016-6.551
		c-0.006-0.495,0.168-1.376-0.745-1.027c-0.509,0.193-1.578-0.439-1.498,1.18c0.226,4.657,0.096,9.333,0.086,14
		c0,0.183-0.149,0.366-0.232,0.543c-0.016-4.263-0.037-8.522-0.059-12.787c0-0.407-0.042-0.816-0.004-1.216
		c0.063-0.583-1.029-1.134-0.33-1.536c0.889-0.516,2.004-0.682,3.044-0.892c0.425-0.085,0.325,0.409,0.329,0.676
		c0.006,5.382-0.004,10.764,0.009,16.143c0.005,0.611-0.276,0.887-0.815,0.755C101.411,57.502,100.443,58.271,99.959,57.139z"/>
	<path fill-rule="evenodd" clip-rule="evenodd" fill="#244675" d="M107.646,54.396c-0.024-0.198-0.051-0.401-0.074-0.607
		c0.429-0.326,0.26-0.795,0.285-1.217h0.015c0.197,0,0.395,0,0.589,0c0.206,0,0.412,0,0.62,0c0.26-0.004,0.495-0.074,0.63-0.323
		c0.101,0.166,0.165,0.363,0.303,0.492c0.434,0.405,0.193-0.178,0.317-0.23c0.625,2.105,2.082,3.115,4.234,3.211
		c-0.379,0.574-0.355,1.188-0.163,1.818l-0.072,0.019c-1.685-0.282-3.374-0.559-5.058-0.839l-0.024-0.023
		c0.063-0.425-0.232-0.434-0.523-0.448c-0.086-0.097-0.172-0.19-0.259-0.286C108.291,55.387,108.392,54.67,107.646,54.396z"/>
	<path fill-rule="evenodd" clip-rule="evenodd" fill="#1D3D61" d="M132.37,33.637c0.896,0.258,0.519,1,0.521,1.53
		c0.026,6.73,0.058,13.464-0.016,20.197c-0.014,1.476,0.42,2.051,1.869,1.789c-0.008,0.138-0.01,0.278-0.019,0.416
		c-0.405,0.007-0.816,0.015-1.227,0.023c-0.086,0-0.178,0-0.268,0c-1.326,0.099-0.725-0.82-0.742-1.406
		c0.179-0.283,0.182-0.561-0.016-0.833c-0.137-6.639-0.133-13.281-0.005-19.919c0.021-0.148,0.038-0.294,0.053-0.443
		C132.47,34.54,132.42,34.089,132.37,33.637z"/>
	<path fill-rule="evenodd" clip-rule="evenodd" fill="#244675" d="M107.87,35.458c0.401-0.191,0.803-0.382,1.203-0.573
		c-0.136,0.696,1.488,0.465,0.803,1.124c-0.902,0.861-0.277,1.297,0.104,1.905c-0.458-0.027-0.878,0.015-0.914,0.617
		c-1.148,0.606-0.48,1.571-0.441,2.388c0.049,1.07,0.636,2.194-0.429,3.107c-0.111-0.004-0.226-0.009-0.335-0.013
		c-0.078-0.501,0.207-1.07-0.281-1.492c-0.12-0.007-0.235-0.012-0.357-0.019l0.023,0.007c-0.586-0.656-1.54-0.064-2.146-0.642
		c0.095-0.236,0.186-0.472,0.281-0.706c0.008-0.054,0.02-0.104,0.042-0.151c0.023-0.652,0.479-0.671,0.954-0.649
		c0.515,0.022,1.026,0.058,1.171-0.619C108.187,38.354,107.736,36.882,107.87,35.458z M107.475,41.627
		c-0.011-0.044-0.016-0.096-0.046-0.129c-0.007-0.01-0.068,0.019-0.106,0.029c0.014,0.044,0.019,0.093,0.043,0.129
		C107.372,41.665,107.438,41.637,107.475,41.627z"/>
	<path fill-rule="evenodd" clip-rule="evenodd" fill="#30856D" d="M120.609,68.745c0-0.509-0.095-1.044,0.024-1.519
		c0.152-0.616-0.598-1.728,0.743-1.756c1.194-0.03,2.563-0.169,3.004,1.42c0.317,1.146,0.304,2.325-0.031,3.472
		c-0.371,1.246-2.279,2.021-3.416,1.442c-0.41-0.212-0.345-0.592-0.355-0.925c-0.027-0.711-0.007-1.423-0.007-2.135
		C120.586,68.745,120.599,68.745,120.609,68.745z M121.373,68.616c0,0.45-0.02,0.907,0.004,1.361
		c0.025,0.474-0.154,1.081,0.62,1.151c0.601,0.057,1.135-0.113,1.383-0.698c0.469-1.111,0.472-2.265,0.095-3.4
		c-0.217-0.653-0.775-0.959-1.424-0.911c-0.812,0.058-0.648,0.751-0.678,1.278C121.354,67.804,121.373,68.209,121.373,68.616z"/>
	<path fill-rule="evenodd" clip-rule="evenodd" fill="#30856D" d="M70.655,71.805c-0.513,0.016-0.567-0.253-0.467-0.597
		c0.508-1.751,1.03-3.503,1.543-5.252c0.1-0.333,0.307-0.511,0.667-0.482c0.409,0.029,0.642,0.244,0.745,0.635
		c0.446,1.662,0.902,3.322,1.349,4.986c0.066,0.243,0.113,0.536-0.169,0.667c-0.253,0.115-0.464-0.009-0.635-0.247
		c-1.25-1.717-1.25-1.715-2.74,0.063C70.862,71.683,70.726,71.749,70.655,71.805z M72.303,67.044
		c-0.129,0.79-0.899,1.444-0.427,2.284c0.083,0.146,0.868,0.141,0.947-0.004C73.284,68.479,72.704,67.788,72.303,67.044z"/>
	<path fill-rule="evenodd" clip-rule="evenodd" fill="#30856D" d="M153.619,68.675c0.016-0.871,0.023-1.631,0.396-2.331
		c0.411-0.766,1.078-1.036,1.905-0.964c0.706,0.061,1.259,0.362,1.502,1.08c0.095,0.281,0.29,0.587-0.066,0.808
		c-0.321,0.19-0.603,0.076-0.706-0.282c-0.188-0.634-0.573-0.968-1.23-0.804c-0.659,0.165-0.745,0.766-0.836,1.319
		c-0.144,0.912-0.125,1.827,0.07,2.726c0.11,0.516,0.389,0.953,0.996,0.981c0.546,0.028,0.817-0.328,0.975-0.795
		c0.124-0.358,0.097-0.97,0.682-0.745c0.643,0.248,0.232,0.786,0.073,1.164c-0.334,0.77-0.964,1.161-1.814,1.104
		c-0.829-0.059-1.421-0.449-1.717-1.265C153.605,69.978,153.647,69.271,153.619,68.675z"/>
	<path fill-rule="evenodd" clip-rule="evenodd" fill="#30856D" d="M115.387,68.708c0,0.454-0.059,0.918,0.013,1.361
		c0.2,1.303-0.24,1.879-1.641,1.866c-1.342-0.013-1.587-0.841-1.737-1.838c-0.29-1.966,0.167-2.645,2.057-3.067
		c0.678-0.152,0.372-0.699,0.487-1.079c0.055-0.197,0.079-0.415,0.333-0.429c0.319-0.028,0.459,0.187,0.463,0.457
		c0.013,0.911,0.004,1.816,0.004,2.729C115.374,68.708,115.382,68.708,115.387,68.708z M114.593,69.502
		c-0.066-0.696,0.14-1.743-0.84-1.805c-1.063-0.07-0.906,1.008-0.933,1.713c-0.03,0.733-0.111,1.732,0.899,1.752
		C114.694,71.182,114.521,70.211,114.593,69.502z"/>
	<path fill-rule="evenodd" clip-rule="evenodd" fill="#388B71" d="M175.07,69.83c-0.096,0.896-0.133,2.228-2.057,2.059
		c-0.678-0.06-0.344,0.585-0.425,0.917c-0.066,0.27-0.132,0.508-0.442,0.513c-0.335,0.004-0.407-0.263-0.407-0.525
		c-0.005-1.732-0.063-3.46,0.019-5.187c0.04-0.979,0.984-0.377,1.481-0.602c0.663-0.293,1.271,0.079,1.603,0.778
		C175.09,68.305,175.104,68.86,175.07,69.83z M174.253,69.515c-0.107-0.709,0.173-1.769-0.863-1.813
		c-0.957-0.045-0.857,0.97-0.853,1.638c0,0.716-0.201,1.769,0.84,1.813C174.374,71.199,174.129,70.173,174.253,69.515z"/>
	<path fill-rule="evenodd" clip-rule="evenodd" fill="#30856D" d="M129.479,69.477c0,0.154-0.047,0.323,0.006,0.453
		c0.68,1.691-0.307,1.944-1.646,1.982c-0.663,0.019-1.249-0.03-1.494-0.727c-0.263-0.731-0.156-1.402,0.579-1.837
		c0.174-0.104,0.36-0.193,0.551-0.253c0.468-0.145,1.043-0.146,1.08-0.836c0.014-0.271-0.114-0.514-0.38-0.586
		c-0.538-0.155-0.853,0.143-1.058,0.607c-0.095,0.223-0.271,0.298-0.488,0.207c-0.305-0.132-0.268-0.402-0.184-0.643
		c0.252-0.745,0.844-0.95,1.556-0.936c0.716,0.021,1.325,0.24,1.437,1.051c0.061,0.5,0.008,1.012,0.008,1.516
		C129.455,69.477,129.469,69.477,129.479,69.477z M128.541,69.474c-0.794,0.127-1.505,0.268-1.411,1.241
		c0.039,0.404,0.351,0.628,0.762,0.508C128.728,70.97,128.685,70.317,128.541,69.474z"/>
	<path fill-rule="evenodd" clip-rule="evenodd" fill="#388B71" d="M90.202,68.49c0.918-0.254,0.927-1.501,1.929-1.446
		c0.049,0.076,0.152,0.206,0.141,0.224c-1.132,1.195-1.038,2.363,0.012,3.564c0.2,0.225,0.575,0.624,0.233,0.901
		c-0.403,0.324-0.742-0.022-0.957-0.409c-0.149-0.266-0.302-0.53-0.448-0.796c-0.144-0.27-0.297-0.637-0.616-0.597
		c-0.443,0.062-0.393,0.506-0.425,0.857c-0.034,0.373,0.144,0.973-0.414,0.979c-0.712,0.007-0.448-0.669-0.456-1.056
		c-0.028-1.471-0.013-2.941,0.003-4.413c0-0.339-0.045-0.796,0.49-0.742c0.38,0.037,0.367,0.419,0.385,0.721
		C90.117,66.977,89.903,67.688,90.202,68.49z"/>
	<path fill-rule="evenodd" clip-rule="evenodd" fill="#294974" d="M172.012,54.716c0.205-0.109,0.411-0.22,0.616-0.329
		c0.14-0.051,0.284-0.105,0.43-0.159c0,0,0.009,0.05,0.005,0.05c-0.038,0.226,0.064,0.329,0.294,0.31l-0.062,0.053l0.044-0.065
		c-0.011,0.381,0.249,0.417,0.533,0.417l-0.014-0.008c0.238,0.842,0.806,0.905,1.513,0.647c0.555,0,1.11,0,1.686,0
		c-0.474,2.243-0.474,2.251-2.674,2.157c-1.074-0.051-2.123-0.2-2.986-0.94C171.544,56.118,173.204,55.828,172.012,54.716z"/>
	<path fill-rule="evenodd" clip-rule="evenodd" fill="#30856D" d="M87.204,69.339c0,0.204,0.056,0.429-0.012,0.607
		c-0.236,0.643,0.765,1.543-0.022,1.815c-0.507,0.178-1.311,0.115-1.985,0.168c-0.581,0.043-0.964-0.311-1.112-0.855
		c-0.156-0.56-0.134-1.125,0.354-1.54c0.223-0.189,0.519-0.31,0.791-0.431c0.448-0.192,1.05-0.174,1.146-0.822
		c0.043-0.274-0.138-0.506-0.383-0.598c-0.652-0.23-0.896,0.209-1.134,0.696c-0.102,0.206-0.354,0.186-0.531,0.054
		c-0.252-0.191-0.182-0.469-0.079-0.694c0.319-0.714,0.957-0.861,1.648-0.816c0.653,0.045,1.199,0.289,1.279,1.046
		c0.045,0.457,0.045,0.912,0.066,1.37C87.222,69.339,87.213,69.339,87.204,69.339z M86.431,69.964
		c-0.072-0.164,0.009-0.563-0.484-0.438c-0.56,0.146-1.092,0.345-1.063,1.061c0.016,0.394,0.229,0.691,0.659,0.657
		C86.268,71.195,86.406,70.66,86.431,69.964z"/>
	<path fill-rule="evenodd" clip-rule="evenodd" fill="#30856D" d="M140.719,69.824c0.01-1.004-0.029-1.566,0.287-2.069
		c0.501-0.799,1.212-1.078,2.079-0.7c0.893,0.39,1.041,1.247,0.914,2.055c-0.129,0.82-0.898,0.38-1.386,0.467
		c-0.378,0.072-0.883-0.095-0.975,0.468c-0.07,0.41,0.058,0.826,0.436,1.062c0.442,0.272,0.762,0.023,0.984-0.369
		c0.179-0.315,0.39-0.715,0.779-0.344c0.317,0.296,0.032,0.666-0.174,0.945c-0.696,0.945-2.31,0.772-2.733-0.33
		C140.737,70.508,140.737,69.93,140.719,69.824z M142.398,68.989c0.416-0.032,0.884-0.038,0.782-0.644
		c-0.067-0.404-0.271-0.785-0.793-0.753c-0.48,0.029-0.74,0.353-0.796,0.779C141.516,68.975,141.989,68.962,142.398,68.989z"/>
	<path fill-rule="evenodd" clip-rule="evenodd" fill="#30856D" d="M95.957,71.896c-0.888,0.092-1.393-0.162-1.611-0.738
		c-0.451-1.18-0.497-2.426,0.1-3.539c0.443-0.823,1.316-0.906,2.135-0.473c0.803,0.431,0.929,1.254,0.724,1.993
		c-0.221,0.811-1.046,0.338-1.598,0.438c-0.35,0.072-0.735,0.021-0.757,0.53c-0.012,0.364,0.063,0.726,0.369,0.954
		c0.34,0.259,0.658,0.172,0.935-0.135c0.267-0.284,0.439-1.085,0.936-0.447c0.324,0.414-0.19,0.946-0.616,1.231
		C96.333,71.865,96.001,71.882,95.957,71.896z M96.534,68.405c-0.027-0.451-0.26-0.771-0.706-0.817
		c-0.548-0.057-0.824,0.323-0.895,0.802c-0.091,0.602,0.365,0.585,0.772,0.583C96.109,68.967,96.534,69.006,96.534,68.405z"/>
	<path fill-rule="evenodd" clip-rule="evenodd" fill="#344F71" d="M144.291,48.589c0.792,0.234,0.507,0.903,0.516,1.404
		c0.029,2.022-0.004,4.048,0.02,6.072c0.01,0.497-0.215,1.241,0.712,1.172c0.713-0.059,1.461-0.141,1.425-1.172
		c-0.033-0.856-0.019-1.717-0.021-2.579c0-2.136,0-4.275,0-6.41c0.003-0.104,0.003-0.209,0.009-0.314
		c0-0.303-0.006-0.607-0.006-0.908c0.092-0.004,0.183-0.007,0.272-0.007c0.022,3.649,0.028,7.297,0.072,10.943
		c0.02,1.374-0.981,0.852-1.609,0.882c-0.613,0.032-1.496,0.374-1.467-0.877C144.273,54.062,144.273,51.324,144.291,48.589z"/>
	<path fill-rule="evenodd" clip-rule="evenodd" fill="#388B71" d="M181.837,69.395c0-0.253,0.051-0.521-0.006-0.757
		c-0.436-1.709,0.875-1.586,1.837-1.698c1.196-0.135,1.418,0.717,1.428,1.674c0.003,0.86,0.008,1.723,0,2.582
		c-0.006,0.257-0.05,0.542-0.359,0.581c-0.424,0.053-0.494-0.274-0.497-0.587c-0.021-0.859-0.013-1.727-0.03-2.586
		c-0.007-0.422-0.088-0.857-0.629-0.864c-0.547-0.009-0.829,0.33-0.845,0.864c-0.017,0.811-0.001,1.627-0.029,2.434
		c-0.007,0.335,0.054,0.802-0.484,0.749c-0.385-0.037-0.376-0.418-0.381-0.72C181.831,70.508,181.837,69.949,181.837,69.395z"/>
	<path fill-rule="evenodd" clip-rule="evenodd" fill="#388B71" d="M106.997,69.477c-0.006-0.252,0.044-0.516-0.01-0.758
		c-0.386-1.693,0.822-1.727,1.908-1.774c1.232-0.054,1.307,0.868,1.321,1.771c0.011,0.811,0.006,1.622-0.004,2.434
		c-0.006,0.304-0.043,0.658-0.457,0.638c-0.416-0.019-0.377-0.4-0.382-0.691c-0.017-0.807-0.012-1.618-0.005-2.428
		c0-0.512-0.146-0.944-0.742-0.928c-0.564,0.012-0.763,0.416-0.763,0.936c0,0.807,0.008,1.617,0,2.431
		c-0.004,0.296-0.007,0.665-0.409,0.686c-0.406,0.021-0.446-0.335-0.456-0.643C106.987,70.589,106.997,70.036,106.997,69.477z"/>
	<path fill-rule="evenodd" clip-rule="evenodd" fill="#30856D" d="M186.925,73.058c1.328-0.451,1.16-1.32,0.869-2.26
		c-0.311-1.015-0.587-2.045-0.869-3.067c-0.066-0.232-0.211-0.519,0.145-0.626c0.295-0.091,0.487,0.101,0.571,0.359
		c0.243,0.76,0.468,1.518,0.75,2.432c0.678-0.765,0.588-1.614,0.825-2.347c0.093-0.304,0.297-0.581,0.664-0.423
		c0.29,0.124,0.214,0.414,0.148,0.662c-0.412,1.517-0.786,3.044-1.252,4.542C188.491,73.239,188.219,73.322,186.925,73.058z"/>
	<path fill-rule="evenodd" clip-rule="evenodd" fill="#30856D" d="M148.457,69.439c0.529,0.849,0.559,1.692-0.331,2.266
		c-0.82,0.52-1.672,0.234-2.417-0.304c-0.396-0.284-0.434-0.722-0.117-1.039c0.19-0.189,0.58-0.165,0.747,0.203
		c0.168,0.39,0.353,0.813,0.873,0.558c0.247-0.124,0.605-0.466,0.574-0.652c-0.087-0.488-0.671-0.641-1.034-0.745
		c-1.031-0.301-1.233-1.031-1.008-1.852c0.242-0.869,1.039-1.101,1.855-0.903c0.757,0.183,1.309,0.614,0.896,1.538
		c-0.242-0.046-0.497-0.075-0.597-0.361c-0.153-0.425-0.435-0.661-0.913-0.541c-0.261,0.067-0.456,0.252-0.474,0.511
		c-0.051,0.582,0.417,0.727,0.833,0.897C147.713,69.162,148.089,69.295,148.457,69.439z"/>
	<path fill-rule="evenodd" clip-rule="evenodd" fill="#30856D" d="M79.241,68.653c0-0.857-0.013-1.72,0.004-2.574
		c0.008-0.313,0.12-0.63,0.53-0.567c0.297,0.04,0.364,0.315,0.364,0.575c0.004,1.109,0.092,2.231-0.021,3.333
		c-0.124,1.212,0.188,1.822,1.518,1.667c0.346-0.036,0.975-0.169,0.958,0.399c-0.021,0.562-0.634,0.297-0.992,0.353
		c-0.299,0.038-0.613-0.034-0.906,0.014c-1.272,0.225-1.611-0.389-1.478-1.53c0.062-0.551,0.007-1.11,0.007-1.669
		C79.233,68.653,79.235,68.653,79.241,68.653z"/>
	<path fill-rule="evenodd" clip-rule="evenodd" fill="#30856D" d="M159.125,69.874c0.044-1.164-0.092-2.016,0.691-2.591
		c0.777-0.573,1.543-0.48,2.215,0.149c0.726,0.683,0.734,3.042,0.064,3.9c-0.613,0.78-1.419,0.814-2.173,0.359
		C159.136,71.221,159.092,70.354,159.125,69.874z M161.732,69.443c-0.164-0.645,0.197-1.719-0.855-1.787
		c-1.1-0.08-0.935,1.011-0.96,1.697c-0.022,0.708-0.146,1.754,0.842,1.826C161.882,71.258,161.573,70.169,161.732,69.443z"/>
	<path fill-rule="evenodd" clip-rule="evenodd" fill="#274972" d="M44.307,57.415c-1.288,0.27-2.562,0.637-3.864,0.782
		c-2.068,0.221-4.048-0.059-5.633-1.615l0.058-0.068c0.416,0.011,0.803,0.091,1.128,0.383c0.153,0.137,0.382,0.244,0.521,0.036
		c0.091-0.137,0.124-0.458,0.038-0.542c-0.725-0.677-0.178-1.345,0.244-1.643c0.505-0.352,1.038,0.291,1.627,0.473
		c-0.306,0.563-1.37,0.335-1.097,1.271c0.238,0.812,0.644,1.255,1.598,1.297c2.029,0.094,3.84-0.666,5.708-1.222
		C44.524,56.848,44.415,57.134,44.307,57.415z"/>
	<path fill-rule="evenodd" clip-rule="evenodd" fill="#244675" d="M99.631,35.763c0.075-1.274,1.022-1.453,1.984-1.49
		c0.802-0.031,1.323,0.447,1.494,1.238c0.133,0.637,0.049,1.317-0.647,1.493c-0.942,0.239-2.035,1.076-2.822-0.319
		c0.535-0.11,1.072-0.217,1.605-0.33c0.274-0.055,0.478-0.19,0.424-0.502c-0.054-0.318-0.315-0.399-0.564-0.313
		C100.619,35.707,100.137,35.804,99.631,35.763z"/>
	<path fill-rule="evenodd" clip-rule="evenodd" fill="#30856D" d="M167.417,69.333c0.017,0.631,0.04,1.271,0.034,1.903
		c-0.004,0.401-0.147,0.684-0.627,0.483c-0.216-1.282,0.511-2.64-0.314-3.869v-0.005c-0.219-0.376-0.519-0.372-0.854-0.167
		c-0.866,0.97-0.349,2.129-0.443,3.206c-0.027,0.338,0.092,0.835-0.372,0.873c-0.652,0.057-0.48-0.535-0.469-0.881
		c0.046-1.213-0.165-2.435,0.117-3.635c0.267-0.073,0.491,0.313,0.772,0.068c0.81-0.657,1.559-0.318,2.298,0.139
		c0.068,0.015,0.135,0.044,0.192,0.086c-0.018,0.087-0.03,0.179-0.033,0.266l-0.039,0.041
		C167.246,68.275,167.47,68.827,167.417,69.333z"/>
	<path fill-rule="evenodd" clip-rule="evenodd" fill="#388B71" d="M104.168,68.687c0.005-1.242-0.501-1.386-1.337-0.574
		c-0.264,0.252-0.438,0.663-0.798,0.26c-0.259-0.294-0.051-0.684,0.193-0.956c0.497-0.559,1.155-0.598,1.822-0.452
		c0.678,0.15,0.979,0.612,1.023,1.317c0.07,1.047,0.07,2.102,0.155,3.147c0.082,1.017-0.883,0.02-1.345,0.19
		c0-0.152,0.004-0.306,0.004-0.453c0.381-0.529,0.357-1.126,0.281-1.73C104.168,69.182,104.168,68.936,104.168,68.687z"/>
	<path fill-rule="evenodd" clip-rule="evenodd" fill="#294768" d="M23.421,69.431c0.387-0.04,0.318,0.477,0.732,0.543
		c0-2.854-0.009-5.679,0.011-8.506c0.004-0.532-0.222-1.14,0.331-1.563c0.032,4.339-0.207,8.685,0.542,13.027
		C24.166,71.882,23.691,70.702,23.421,69.431z"/>
	<path fill-rule="evenodd" clip-rule="evenodd" fill="#244675" d="M110.613,42.5c-0.095,0.103-0.193,0.201-0.288,0.303
		c-0.39,0.202-0.312,0.581-0.351,0.916c-0.094-0.005-0.189-0.008-0.287-0.012c-0.254-1.006-0.177-2.078-0.61-3.046
		c0.673,0.055,0.521-0.692,0.902-0.922c0.017,0.356,0.188,0.579,0.551,0.63l0.069,0.021c0.229,0.887,0.964,0.445,1.482,0.575
		c0.548,0.135,1.524-0.41,1.504,0.648c-0.019,0.917-0.916,0.461-1.433,0.565C111.636,42.278,111.04,41.979,110.613,42.5z"/>
	<path fill-rule="evenodd" clip-rule="evenodd" fill="#294768" d="M110.613,42.5c0.427-0.521,1.022-0.222,1.54-0.323
		c0.517-0.104,1.414,0.353,1.433-0.565c0.021-1.058-0.956-0.513-1.504-0.648c-0.519-0.13-1.253,0.313-1.482-0.575
		c1.308-0.008,2.618-0.053,3.927-0.003c0.417,0.017,1.294-0.345,1.196,0.336c-0.1,0.667-0.054,1.84-1.336,1.817
		C113.129,42.517,111.872,42.512,110.613,42.5z"/>
	<path fill-rule="evenodd" clip-rule="evenodd" fill="#344F71" d="M54.102,44.015c-0.227-1.465,0.25-2.88,0.296-4.325
		c0.08-2.66-0.189-5.251-1.634-7.585c-0.144-0.237-0.155-0.474-0.051-0.725c2.343,3.339,2.481,7.064,1.867,10.9
		C54.488,42.86,54.507,43.508,54.102,44.015z"/>
	<path fill-rule="evenodd" clip-rule="evenodd" fill="#388B71" d="M178.749,68.877c0.271-0.406,0.486-0.844-0.048-1.176
		c-0.429-0.266-0.774-0.008-1.016,0.363c-0.195,0.3-0.372,0.739-0.755,0.281c-0.226-0.276-0.104-0.699,0.172-0.964
		c0.521-0.495,1.159-0.579,1.831-0.405c0.623,0.158,0.934,0.572,0.955,1.205c0.023,1.01,0.045,2.019,0.067,3.03
		c-0.435,0.546-0.841,0.145-1.255-0.026c0.344-0.582,0.63-1.174,0.04-1.784C178.741,69.229,178.744,69.052,178.749,68.877z"/>
	<path fill-rule="evenodd" clip-rule="evenodd" fill="#1F795F" d="M135.691,67.06c0.441-0.126,0.639-0.055,0.696,0.167
		c0.032,0.114-0.043,0.358-0.121,0.384c-1.711,0.534-1.023,1.944-1.159,3.069c-0.051,0.381,0.253,1.088-0.447,1.058
		c-0.517-0.022-0.311-0.654-0.325-1.02c-0.026-0.712,0.122-1.439,0.008-2.128C134.112,67.25,134.952,67.101,135.691,67.06z"/>
	<path fill-rule="evenodd" clip-rule="evenodd" fill="#294768" d="M25.571,41.789c-0.747,2.426-1.413,4.88-2.286,7.26
		c-0.348,0.961,0.072,2.155-0.908,2.904C22.925,48.403,23.837,44.966,25.571,41.789z"/>
	<path fill-rule="evenodd" clip-rule="evenodd" fill="#1D3D61" d="M171.411,49.819c0-1.02,0-2.033,0.004-3.05
		c0.725-0.114,0.574-0.682,0.593-1.156c0.024-0.932,0.04-1.866,0.065-2.799c0-0.023,0.068-0.062,0.106-0.064
		c0.047-0.002,0.091,0.026,0.141,0.043c-0.008,3.167-0.012,6.334-0.018,9.5c-0.094,0.198-0.193,0.399-0.29,0.595
		C171.679,51.893,172.68,50.631,171.411,49.819z"/>
	<path fill-rule="evenodd" clip-rule="evenodd" fill="#294768" d="M89.226,57.608c1.941-0.475,1.522-2.023,1.522-3.373
		c0.005-2.673-0.009-5.354,0.009-8.025c0.004-0.533-0.195-1.124,0.287-1.579c0.015,3.995,0.003,7.985,0.061,11.98
		C91.129,58.3,89.995,57.551,89.226,57.608z"/>
	<path fill-rule="evenodd" clip-rule="evenodd" fill="#30856D" d="M178.749,68.877c-0.005,0.175-0.008,0.353-0.008,0.524
		c-0.522,0.309-1.333,0.366-1.196,1.27c0.111,0.719,0.655,0.599,1.156,0.515c0.414,0.171,0.82,0.572,1.255,0.026
		c0.066,0.074,0.196,0.187,0.185,0.213c-0.281,0.462-2.552,0.681-3.02,0.258c-0.682-0.616-0.604-1.379-0.135-2.052
		C177.383,69.052,178.121,69.042,178.749,68.877z"/>
	<path fill-rule="evenodd" clip-rule="evenodd" fill="#1F795F" d="M167.56,67.449c1.376-0.837,1.999-0.579,2.077,0.889
		c0.052,0.961,0.032,1.927,0.027,2.885c0,0.249-0.051,0.545-0.39,0.53c-0.346-0.011-0.349-0.318-0.349-0.558
		c-0.005-1.012,0.014-2.02,0.025-3.035c-0.06-0.108-0.116-0.219-0.175-0.33c-0.075-0.009-0.115-0.051-0.123-0.125
		c-0.263-0.27-0.587-0.181-0.901-0.17C167.694,67.493,167.628,67.464,167.56,67.449z"/>
	<path fill-rule="evenodd" clip-rule="evenodd" fill="#388B71" d="M132.361,69.519c-0.334,0.725,0.539,2.077-0.521,2.153
		c-0.75,0.048-0.387-1.373-0.357-2.109c0.039-0.81-0.56-2.227,0.473-2.295C132.698,67.212,132.079,68.729,132.361,69.519z"/>
	<path fill-rule="evenodd" clip-rule="evenodd" fill="#274972" d="M34.223,45.544c0,1.532-0.13,3.074,0.279,4.586
		c-0.256-0.113-1.001,0.568-0.682-0.497c0.191-0.647,0.458-1.579-0.79-1.645c-0.076-0.007-0.155-0.007-0.231-0.007
		c-0.375-0.777,0.353-1.373,0.339-2.087c0.074-0.115,0.143-0.232,0.215-0.346C33.642,45.546,33.932,45.544,34.223,45.544z"/>
	<path fill-rule="evenodd" clip-rule="evenodd" fill="#30856D" d="M103.887,71.166c0,0.147-0.004,0.301-0.004,0.453
		c-0.821,0.55-1.569,0.486-1.962-0.453c-0.396-0.945,0.011-1.655,0.974-2.024c0.415-0.16,0.848-0.304,1.273-0.455
		c0,0.249,0,0.495,0,0.749c-0.643,0.19-1.511,0.155-1.486,1.13C102.702,71.378,103.305,71.324,103.887,71.166z"/>
	<path fill-rule="evenodd" clip-rule="evenodd" fill="#344F71" d="M150.448,36.852c-0.627-0.907-0.332-1.687,0.487-2.198
		c0.914-0.57,1.905-0.75,2.67,0.337c-0.086,0.044-0.161,0.098-0.23,0.166c-0.842,0.087-0.542,0.747-0.609,1.224l0,0
		c-0.609,0.041-0.964-0.176-0.927-0.849c0.011-0.249-0.033-0.57-0.353-0.539c-0.211,0.023-0.426,0.231-0.59,0.401
		c-0.356,0.362-0.255,0.84-0.267,1.285C150.566,36.736,150.505,36.792,150.448,36.852z"/>
	<path fill-rule="evenodd" clip-rule="evenodd" fill="#344F71" d="M48.381,27.681c-0.661,0.207-1.228,0.068-1.889-0.199
		c-1.466-0.598-3.011-0.805-4.593-0.29c-0.712,0.234-1.455,0.489-2.234,0.246C42.605,26.248,45.512,26.242,48.381,27.681z"/>
	<path fill-rule="evenodd" clip-rule="evenodd" fill="#274972" d="M172.012,54.716c1.192,1.112-0.468,1.402-0.615,2.132
		c-0.974-0.539-1.579-1.337-1.774-2.443l0.124-0.003l0.133,0.003C170.541,54.831,171.291,54.679,172.012,54.716z"/>
	<path fill-rule="evenodd" clip-rule="evenodd" fill="#294768" d="M134.727,57.569c0.009-0.138,0.011-0.278,0.019-0.416
		c0.49-0.452,0.288-1.039,0.292-1.572c0.017-3.027-0.004-6.048,0.013-9.074c0.004-0.53-0.195-1.119,0.284-1.575
		c0.018,3.95,0.037,7.903,0.042,11.853C135.376,57.183,135.562,57.821,134.727,57.569z"/>
	<path fill-rule="evenodd" clip-rule="evenodd" fill="#1F795F" d="M99.95,65.557c0,1.937,0.005,3.879-0.004,5.821
		c0,0.202-0.104,0.413-0.361,0.359c-0.115-0.026-0.283-0.175-0.283-0.271c-0.019-1.969-0.015-3.942-0.015-5.915
		C99.508,65.552,99.73,65.557,99.95,65.557z"/>
	<path fill-rule="evenodd" clip-rule="evenodd" fill="#274972" d="M182.438,46.729c-0.907,0.184-1.259-0.402-1.49-1.108
		c-0.091-0.28-0.101-0.589-0.12-0.887c-0.034-0.497-1.082-0.975-0.622-1.077c1.011-0.224,1.063-1.702,2.232-1.457
		C181.066,44.124,181.066,45.104,182.438,46.729z"/>
	<path fill-rule="evenodd" clip-rule="evenodd" fill="#1D3D61" d="M109.975,43.719c0.039-0.335-0.039-0.714,0.351-0.916
		c0.003,3.234,0.006,6.469,0.006,9.708c-0.124,0.053,0.116,0.636-0.317,0.23c-0.138-0.129-0.202-0.326-0.303-0.492
		c-0.002-0.502-0.002-1.004-0.007-1.498c0.466-1.235,0.466-2.459,0-3.689C109.922,45.957,110.066,44.849,109.975,43.719z"/>
	<path fill-rule="evenodd" clip-rule="evenodd" fill="#274972" d="M51.643,50.546c-1.017,1.078-1.495,2.662-3.053,3.229
		c-0.175-0.736,0.616-1.142,0.617-1.816c0.506-0.388,1.644-0.402,0.919-1.531c0.197-1.076,0.844-0.129,1.248-0.277
		C51.464,50.282,51.553,50.416,51.643,50.546z"/>
	<path fill-rule="evenodd" clip-rule="evenodd" fill="#294768" d="M135.342,42.217c-0.599-0.082-0.281-0.538-0.285-0.801
		c-0.023-2.643-0.054-5.286,0.01-7.928c0.019-0.814-0.216-1.334-0.928-1.668c0.732-0.391,1.29-0.616,1.266,0.656
		C135.334,35.722,135.36,38.969,135.342,42.217z"/>
	<path fill-rule="evenodd" clip-rule="evenodd" fill="#294768" d="M180.576,41.569c-0.049,0.088-0.072,0.203-0.138,0.27
		c-1.933,1.848-1.957,3.974-0.927,6.261C177.652,46.028,178.142,43.034,180.576,41.569z"/>
	<path fill-rule="evenodd" clip-rule="evenodd" fill="#294768" d="M110.53,40.368c-0.363-0.051-0.534-0.273-0.551-0.63
		c-0.005-0.304-0.005-0.608-0.009-0.912c0-0.104,0-0.208-0.005-0.313c0.005-0.199,0.009-0.399,0.014-0.6
		c-0.381-0.607-1.006-1.044-0.104-1.905c0.686-0.658-0.938-0.428-0.803-1.124c0.936-0.563,1.384-0.523,1.333,0.79
		C110.352,37.235,110.223,38.809,110.53,40.368z"/>
	<path fill-rule="evenodd" clip-rule="evenodd" fill="#344F71" d="M32.799,47.982c0.076,0,0.155,0,0.231,0.007
		c0.003,1.937-0.176,3.883,0.282,5.8c-0.095,0-0.19,0-0.285,0C32.249,51.881,32.387,49.935,32.799,47.982z"/>
	<path fill-rule="evenodd" clip-rule="evenodd" fill="#344F71" d="M165.929,41.576c-0.505-0.605-1.106-0.761-1.854-0.475
		c-0.708,0.268-1.268,0.079-1.544-0.683c0.938-0.021,1.885-0.004,2.814-0.073C166.669,40.252,166.497,40.806,165.929,41.576z"/>
	<path fill-rule="evenodd" clip-rule="evenodd" fill="#1D3D61" d="M107.579,42.521c0.488,0.422,0.203,0.991,0.281,1.492
		c0.004,2.853,0.01,5.707,0.012,8.56h-0.015c-0.109,0-0.211,0-0.315-0.004c0-2.338,0-4.67,0.006-7.005
		C107.556,44.548,107.566,43.534,107.579,42.521z"/>
	<path fill-rule="evenodd" clip-rule="evenodd" fill="#294768" d="M123.429,40.336c2.157-0.69,4.242-0.408,6.292,0.441
		c-0.061,0.06-0.119,0.124-0.177,0.188c-1.721-0.223-3.42-0.683-5.178-0.598c-0.108,0-0.217-0.001-0.325-0.001
		c-0.187,0.006-0.373,0.009-0.558,0.016L123.429,40.336z"/>
	<path fill-rule="evenodd" clip-rule="evenodd" fill="#1D3D61" d="M157.981,42.811c0.554,0.729,0.286,1.576,0.256,2.351
		c-0.09,2.467,0.34,4.947-0.233,7.392C157.995,49.31,157.989,46.058,157.981,42.811z"/>
	<path fill-rule="evenodd" clip-rule="evenodd" fill="#1F795F" d="M138.212,71.758c-0.322-1.359-0.078-2.752-0.12-4.131
		c-0.006-0.194,0.042-0.411,0.313-0.422c0.27-0.017,0.353,0.177,0.353,0.38c0.009,1.39,0.004,2.782,0.004,4.173
		C138.582,71.758,138.395,71.758,138.212,71.758z"/>
	<path fill-rule="evenodd" clip-rule="evenodd" fill="#1D3D61" d="M169.879,54.404l-0.133-0.003l-0.124,0.003
		c-0.021-0.111-0.04-0.223-0.053-0.334c0.023-0.067,0.013-0.128-0.025-0.19c-0.274-1.44-0.193-2.89-0.06-4.34
		c0.824,0.919,0.227,2.024,0.371,3.032C169.945,53.17,169.875,53.791,169.879,54.404z"/>
	<path fill-rule="evenodd" clip-rule="evenodd" fill="#1D3D61" d="M169.838,35.407c0.014,1.201,0.033,2.401,0.033,3.601
		c0,0.384,0.122,0.833-0.398,1.017c-0.031-1.265-0.066-2.526-0.096-3.789C169.368,35.871,169.374,35.508,169.838,35.407z"/>
	<path fill-rule="evenodd" clip-rule="evenodd" fill="#294768" d="M96.567,42.501c1.027-0.132,0.965-0.896,0.865-1.602
		c-0.106-0.739-0.75-0.516-1.213-0.538c-0.604-0.031-1.212-0.012-1.816-0.017c0.625-0.424,1.34-0.341,2.032-0.345
		c0.587-0.003,1.396-0.141,1.632,0.445c0.275,0.69-0.199,1.442-0.507,2.101C97.302,43.104,96.897,42.679,96.567,42.501z"/>
	<path fill-rule="evenodd" clip-rule="evenodd" fill="#294768" d="M160.701,40.049c-0.621-1.197-0.24-2.48-0.265-3.719
		c-0.022-0.969-0.39-1.275-1.271-1.18c1.674-0.9,1.674-0.9,1.765,0.332c-0.362,1.009-0.365,2.014,0.004,3.019
		c0,0.216,0,0.431,0,0.647C160.645,39.393,160.723,39.735,160.701,40.049z"/>
	<path fill-rule="evenodd" clip-rule="evenodd" fill="#294768" d="M74.864,47.671c1.707,0.222,3.362-0.445,5.067-0.286
		c-2.115,1.076-4.375,0.518-6.582,0.587C73.694,47.072,74.34,47.674,74.864,47.671z"/>
	<path fill-rule="evenodd" clip-rule="evenodd" fill="#294768" d="M177.222,41.908c0.087-1.085-0.353-1.37-1.433-1.176
		c-1.052,0.191-2.187,0.47-3.171-0.331c1.655,0,3.313,0,5.028,0C177.633,40.941,177.612,41.469,177.222,41.908z"/>
	<path fill-rule="evenodd" clip-rule="evenodd" fill="#30856D" d="M54.156,27.791c-0.34,0.124-0.57,0.36-0.701,0.697
		c-0.747-0.617-1.495-1.231-2.241-1.847C52.252,26.961,53.418,26.89,54.156,27.791z"/>
	<path fill-rule="evenodd" clip-rule="evenodd" fill="#294768" d="M187.591,40.953c-2.106-0.949-4.171-0.676-6.221,0.199
		c1.966-1.555,4.053-1.485,6.214-0.475C187.588,40.768,187.591,40.861,187.591,40.953z"/>
	<path fill-rule="evenodd" clip-rule="evenodd" fill="#294768" d="M109.272,56.72c1.684,0.28,3.373,0.557,5.058,0.839
		C112.517,58.045,110.813,57.874,109.272,56.72z"/>
	<path fill-rule="evenodd" clip-rule="evenodd" fill="#294768" d="M172.399,40.327c-0.814-1.231-0.314-2.605-0.354-3.903
		c-0.033-0.997-0.37-1.375-1.311-1.31c1.619-0.909,1.611-0.909,1.619,0.858C172.358,37.423,172.383,38.876,172.399,40.327z"/>
	<path fill-rule="evenodd" clip-rule="evenodd" fill="#344F71" d="M137.274,42.628c1.502-1.39,4.146-1.226,5.113,0.144
		C140.708,41.96,139.002,42.005,137.274,42.628z"/>
	<path fill-rule="evenodd" clip-rule="evenodd" fill="#1D3D61" d="M85.801,42.183c-0.078-0.003-0.162-0.006-0.244-0.006
		c0.221-1.616,0.401-3.239,0.311-4.876C86.521,38.938,86.415,40.564,85.801,42.183z"/>
	<path fill-rule="evenodd" clip-rule="evenodd" fill="#344F71" d="M153.605,34.991c0.468,0.675,0.419,1.329-0.161,1.894
		c-0.646,0.629-1.389,0.973-2.296,0.517c0.039-0.047,0.081-0.096,0.124-0.143c0.571-0.169,1.32-0.034,1.493-0.879l0,0
		c0.819-0.103,0.56-0.739,0.609-1.224C153.444,35.088,153.52,35.035,153.605,34.991z"/>
	<path fill-rule="evenodd" clip-rule="evenodd" fill="#22447B" d="M128.683,56.864c-0.683-0.04-1.347-0.163-1.892-0.631
		c0.654-0.09,1.461,0.271,1.839-0.626c0.206-0.08,0.414-0.164,0.615-0.246c0.272,0.337,0.548,0.665,0.82,0.996
		c0,0-0.112,0.075-0.116,0.075c-0.518-0.323-0.778,0.01-1.019,0.397C128.852,56.857,128.768,56.866,128.683,56.864z"/>
	<path fill-rule="evenodd" clip-rule="evenodd" fill="#30856D" d="M44.307,57.415c0.108-0.281,0.217-0.567,0.327-0.849
		c-0.002,0,0.007-0.021,0.007-0.021c0.111-0.094,0.224-0.188,0.339-0.282c0.181-0.091,0.365-0.186,0.544-0.277
		c0.292,0.018,0.536-0.073,0.71-0.316c0.177-0.004,0.349-0.01,0.523-0.02c0.153,0.946-1.299,0.669-1.194,1.571
		C45.18,57.526,44.746,57.481,44.307,57.415z"/>
	<path fill-rule="evenodd" clip-rule="evenodd" fill="#294768" d="M128.63,55.607c-0.378,0.897-1.185,0.536-1.839,0.626
		c-0.907-0.136-1.874,0.299-2.732-0.289C125.586,55.89,127.116,55.903,128.63,55.607z"/>
	<path fill-rule="evenodd" clip-rule="evenodd" fill="#294768" d="M142.678,40.104c-1.534,0.285-3.07,0.568-4.606,0.849
		C139.473,39.957,141.044,39.863,142.678,40.104z"/>
	<path fill-rule="evenodd" clip-rule="evenodd" fill="#344F71" d="M182.699,42.159c1.828-0.619,3.639-0.224,4.289,0.935
		C185.633,42.438,184.227,42.022,182.699,42.159z"/>
	<path fill-rule="evenodd" clip-rule="evenodd" fill="#344F71" d="M39.684,27.414c-1.228,0.824-2.447,1.661-3.945,1.923
		C36.901,28.386,38.216,27.743,39.684,27.414z"/>
	<path fill-rule="evenodd" clip-rule="evenodd" fill="#294768" d="M172.628,42.487c1.477-0.648,3.097-0.2,4.607-0.591
		c-0.014,0.678-0.499,0.645-0.962,0.639C175.057,42.521,173.845,42.504,172.628,42.487z"/>
	<path fill-rule="evenodd" clip-rule="evenodd" fill="#274972" d="M99.631,35.763c0.506,0.042,0.988-0.056,1.474-0.224
		c0.249-0.086,0.511-0.005,0.564,0.313c0.054,0.313-0.149,0.447-0.424,0.502c-0.533,0.112-1.07,0.22-1.605,0.33
		C99.637,36.375,99.631,36.068,99.631,35.763z"/>
	<path fill-rule="evenodd" clip-rule="evenodd" fill="#344F71" d="M187.124,43.161c1.295-0.269,1.029-1.303,1.071-2.188
		c1.516,0.853,0.129,1.73-0.107,2.46C187.865,44.123,187.426,43.396,187.124,43.161z"/>
	<path fill-rule="evenodd" clip-rule="evenodd" fill="#294768" d="M158.548,35.426c-0.625,1.484,0.101,3.131-0.562,4.611
		c-0.016-1.213-0.034-2.426-0.046-3.639C157.937,35.951,157.847,35.44,158.548,35.426z"/>
	<path fill-rule="evenodd" clip-rule="evenodd" fill="#294768" d="M22.699,66.929c0.268-0.051,0.73-1.002,0.697-0.155
		c-0.034,0.9,0.333,1.784,0.065,2.67C22.98,68.675,22.885,67.788,22.699,66.929z"/>
	<path fill-rule="evenodd" clip-rule="evenodd" fill="#1D3D61" d="M107.87,35.458c-0.134,1.424,0.316,2.896-0.322,4.284
		C107.656,38.313,107.009,36.829,107.87,35.458z"/>
	<path fill-rule="evenodd" clip-rule="evenodd" fill="#1D3D61" d="M161.024,42.54c1.507-0.746,3.104-0.188,4.652-0.334
		C164.17,42.936,162.569,42.297,161.024,42.54z"/>
	<path fill-rule="evenodd" clip-rule="evenodd" fill="#388B71" d="M166.51,67.851c0.825,1.229,0.099,2.587,0.314,3.869
		C166.281,70.462,166.82,69.12,166.51,67.851z"/>
	<path fill-rule="evenodd" clip-rule="evenodd" fill="#294768" d="M147.217,45.846c-0.09,0-0.181,0.003-0.272,0.007
		c-0.104-0.609-0.209-1.217-0.313-1.825c0.021-0.223,0.042-0.446,0.057-0.67C147.269,44.105,147.309,44.961,147.217,45.846z"/>
	<path fill-rule="evenodd" clip-rule="evenodd" fill="#294768" d="M114.402,57.54c-0.192-0.631-0.216-1.244,0.163-1.818
		c0.456-0.113,0.718,0.009,0.501,0.512C114.878,56.682,114.625,57.105,114.402,57.54z"/>
	<path fill-rule="evenodd" clip-rule="evenodd" fill="#294768" d="M128.065,42.78c0.087-0.096,0.174-0.191,0.26-0.286
		c0.395-0.015,0.792-0.029,1.186-0.044l0.073,0.076C129.34,44.16,128.61,42.938,128.065,42.78z"/>
	<path fill-rule="evenodd" clip-rule="evenodd" fill="#344F71" d="M130.065,56.357c-0.272-0.331-0.548-0.659-0.82-0.996
		c0.376-0.097,0.754-0.717,1.102-0.217C130.553,55.451,130.761,56.098,130.065,56.357z"/>
	<path fill-rule="evenodd" clip-rule="evenodd" fill="#344F71" d="M51.454,29.837c-1.034,0.319-1.204-0.368-1.312-1.128
		C50.673,28.977,51.168,29.282,51.454,29.837z"/>
	<path fill-rule="evenodd" clip-rule="evenodd" fill="#294768" d="M105.1,41.867c0.605,0.578,1.56-0.014,2.146,0.642
		c-0.644,0.005-1.287,0.035-1.931,0.015C104.717,42.501,104.809,42.204,105.1,41.867z"/>
	<path fill-rule="evenodd" clip-rule="evenodd" fill="#344F71" d="M160.934,38.5c-0.369-1.005-0.366-2.01-0.004-3.019
		C160.93,36.49,160.93,37.495,160.934,38.5z"/>
	<path fill-rule="evenodd" clip-rule="evenodd" fill="#294768" d="M107.579,42.521c-0.013,1.014-0.023,2.028-0.031,3.042
		c-0.297-1.002,0.151-2.081-0.326-3.062C107.344,42.508,107.459,42.514,107.579,42.521z"/>
	<path fill-rule="evenodd" clip-rule="evenodd" fill="#344F71" d="M175.371,55.631c-0.707,0.258-1.274,0.194-1.513-0.647
		C174.364,55.198,174.865,55.416,175.371,55.631z"/>
	<path fill-rule="evenodd" clip-rule="evenodd" fill="#344F71" d="M52.704,31.366c-0.883-0.12-0.979-0.896-1.258-1.517
		C52.033,30.214,52.441,30.731,52.704,31.366z"/>
	<path fill-rule="evenodd" clip-rule="evenodd" fill="#344F71" d="M50.154,28.719c-0.631-0.264-1.592,0.023-1.74-1.042
		C49.07,27.895,49.682,28.188,50.154,28.719z"/>
	<path fill-rule="evenodd" clip-rule="evenodd" fill="#344F71" d="M172.013,52.889c0.097-0.195,0.196-0.396,0.29-0.595
		c0.253,0.646,0.502,1.29,0.75,1.934c-0.141,0.054-0.285,0.108-0.425,0.159c-0.058-0.474-0.229-0.896-0.606-1.217
		C172.018,53.076,172.013,52.985,172.013,52.889z"/>
	<path fill-rule="evenodd" clip-rule="evenodd" fill="#294768" d="M146.715,43.388c-0.617-0.504-0.883-1.234-1.219-1.915
		C146.196,41.924,146.685,42.51,146.715,43.388z"/>
	<path fill-rule="evenodd" clip-rule="evenodd" fill="#294768" d="M107.646,54.396c0.745,0.273,0.645,0.99,0.819,1.565
		C107.97,55.556,107.782,54.99,107.646,54.396z"/>
	<path fill-rule="evenodd" clip-rule="evenodd" fill="#274972" d="M34.496,56.28c-0.476-0.277-0.773-0.695-0.914-1.225
		c0,0,0.073-0.072,0.072-0.065c0.741,0.082,0.913,0.591,0.915,1.229L34.496,56.28z"/>
	<path fill-rule="evenodd" clip-rule="evenodd" fill="#294768" d="M179.851,48.365c0.668,0.291,1.484,0.285,1.899,1.036
		C181.054,49.168,180.319,49.016,179.851,48.365z"/>
	<path fill-rule="evenodd" clip-rule="evenodd" fill="#294768" d="M107.542,52.568c0.104,0.004,0.206,0.004,0.315,0.004
		c-0.025,0.422,0.144,0.891-0.285,1.217C107.419,53.387,107.394,52.98,107.542,52.568z"/>
	<path fill-rule="evenodd" clip-rule="evenodd" fill="#294768" d="M129.721,40.777c0.981,0.663,0.034,1.173-0.137,1.748
		l-0.073-0.076c0.011-0.494,0.021-0.988,0.033-1.483C129.602,40.901,129.66,40.837,129.721,40.777z"/>
	<path fill-rule="evenodd" clip-rule="evenodd" fill="#344F71" d="M143.742,44.162c0.665,0.408,0.911,0.945,0.525,1.683
		C144.094,45.284,143.915,44.723,143.742,44.162z"/>
	<path fill-rule="evenodd" clip-rule="evenodd" fill="#274972" d="M33.027,53.789c0.094,0,0.189,0,0.285,0
		c0.449,0.302,0.262,0.789,0.343,1.194l-0.073,0.072C33.236,54.702,33.042,54.284,33.027,53.789z"/>
	<path fill-rule="evenodd" clip-rule="evenodd" fill="#344F71" d="M161.935,40.418c-0.053,0.244-0.123,0.482-0.435,0.489
		c-0.398,0.007-0.451-0.283-0.471-0.589C161.331,40.352,161.631,40.384,161.935,40.418z"/>
	<path fill-rule="evenodd" clip-rule="evenodd" fill="#344F71" d="M128.931,56.83c0.24-0.388,0.501-0.721,1.019-0.397
		C129.646,56.662,129.398,57.021,128.931,56.83z"/>
	<path fill-rule="evenodd" clip-rule="evenodd" fill="#388B71" d="M167.417,69.333c0.053-0.506-0.171-1.058,0.263-1.491
		C167.594,68.338,167.508,68.833,167.417,69.333z"/>
	<path fill-rule="evenodd" clip-rule="evenodd" fill="#344F71" d="M35.748,29.329c-0.02,0.509-0.322,0.638-0.771,0.573
		C35.165,29.615,35.405,29.403,35.748,29.329z"/>
	<path fill-rule="evenodd" clip-rule="evenodd" fill="#294768" d="M24.479,59.932c0.024-0.431-0.163-0.912,0.287-1.25
		C24.724,59.111,24.958,59.604,24.479,59.932z"/>
	<path fill-rule="evenodd" clip-rule="evenodd" fill="#344F71" d="M151.148,37.402c-0.34-0.052-0.56-0.252-0.7-0.55
		c0.057-0.06,0.118-0.116,0.182-0.172c0.375,0.012,0.579,0.217,0.643,0.58C151.229,37.306,151.188,37.354,151.148,37.402z"/>
	<path fill-rule="evenodd" clip-rule="evenodd" fill="#388B71" d="M165.262,67.311c-0.281,0.245-0.506-0.142-0.772-0.068
		C164.788,66.849,165.014,67.162,165.262,67.311z"/>
	<path fill-rule="evenodd" clip-rule="evenodd" fill="#294768" d="M145.529,41.509c-0.396-0.104-0.859-0.119-0.918-0.686
		C145.021,40.913,145.365,41.093,145.529,41.509z"/>
	<path fill-rule="evenodd" clip-rule="evenodd" fill="#344F71" d="M136.582,42.5c0.23,0.043,0.467,0.085,0.702,0.128
		c-0.232,0.166-0.468,0.332-0.702,0.496C136.582,42.917,136.582,42.708,136.582,42.5z"/>
	<path fill-rule="evenodd" clip-rule="evenodd" fill="#344F71" d="M143.232,43.442c0.356,0.097,0.638,0.25,0.507,0.699
		C143.566,43.907,143.4,43.675,143.232,43.442z"/>
	<path fill-rule="evenodd" clip-rule="evenodd" fill="#388B71" d="M165.656,67.679c0.335-0.205,0.635-0.209,0.854,0.167
		C166.223,67.788,165.938,67.735,165.656,67.679z"/>
	<path fill-rule="evenodd" clip-rule="evenodd" fill="#388B71" d="M167.752,67.535c0.314-0.011,0.639-0.1,0.901,0.17
		c-0.314,0.034-0.625,0.065-0.935,0.096C167.722,67.714,167.734,67.622,167.752,67.535z"/>
	<path fill-rule="evenodd" clip-rule="evenodd" fill="#344F71" d="M33,31.471c0.007,0.432-0.217,0.626-0.639,0.614
		C32.484,31.787,32.699,31.584,33,31.471z"/>
	<path fill-rule="evenodd" clip-rule="evenodd" fill="#2C4B7A" d="M132.475,55.354c0.197,0.272,0.194,0.55,0.016,0.833
		C132.484,55.908,132.478,55.631,132.475,55.354z"/>
	<path fill-rule="evenodd" clip-rule="evenodd" fill="#294768" d="M143.999,40.49c-0.321,0.2-0.564,0.144-0.701-0.226
		C143.53,40.341,143.767,40.415,143.999,40.49z"/>
	<path fill-rule="evenodd" clip-rule="evenodd" fill="#294768" d="M25.972,40.917c-0.024,0.354,0.134,0.794-0.427,0.89
		C25.604,41.472,25.686,41.145,25.972,40.917z"/>
	<path fill-rule="evenodd" clip-rule="evenodd" fill="#344F71" d="M160.701,40.049c0.021-0.314-0.057-0.656,0.232-0.901
		c0,0.304,0.004,0.608,0.004,0.912C160.858,40.057,160.78,40.055,160.701,40.049z"/>
	<path fill-rule="evenodd" clip-rule="evenodd" fill="#30856D" d="M46.146,57.134c0.251-0.345,0.608-0.3,0.962-0.268
		C46.826,57.097,46.506,57.183,46.146,57.134z"/>
	<path fill-rule="evenodd" clip-rule="evenodd" fill="#294768" d="M159.179,35.144c-0.138,0.271-0.374,0.314-0.644,0.296
		C158.678,35.184,158.916,35.138,159.179,35.144z"/>
	<path fill-rule="evenodd" clip-rule="evenodd" fill="#294768" d="M144.611,40.832c-0.323,0.107-0.588,0.113-0.588-0.338
		C144.217,40.605,144.413,40.72,144.611,40.832z"/>
	<path fill-rule="evenodd" clip-rule="evenodd" fill="#274972" d="M51.365,50.153c-0.012-0.276,0.035-0.52,0.344-0.615
		C51.661,49.777,51.666,50.05,51.365,50.153z"/>
	<path fill-rule="evenodd" clip-rule="evenodd" fill="#294768" d="M170.763,35.088c-0.073,0.313-0.317,0.364-0.582,0.376
		c-0.005-0.086-0.005-0.171-0.008-0.258C170.371,35.167,170.566,35.127,170.763,35.088z"/>
	<path fill-rule="evenodd" clip-rule="evenodd" fill="#294768" d="M108.725,56.248c0.291,0.015,0.586,0.023,0.523,0.448
		C109.073,56.545,108.901,56.396,108.725,56.248z"/>
	<path fill-rule="evenodd" clip-rule="evenodd" fill="#344F71" d="M187.591,40.953c0-0.092-0.003-0.186-0.007-0.276
		c0.2,0.098,0.402,0.196,0.604,0.294C187.989,40.964,187.79,40.96,187.591,40.953z"/>
	<path fill-rule="evenodd" clip-rule="evenodd" fill="#294768" d="M80.361,32.123c-0.248,0.308-0.441,0.285-0.58-0.095
		C79.977,32.059,80.168,32.091,80.361,32.123z"/>
	<path fill-rule="evenodd" clip-rule="evenodd" fill="#344F71" d="M173.872,54.991c-0.284,0-0.544-0.036-0.533-0.417
		C173.517,54.71,173.695,54.854,173.872,54.991z"/>
	<path fill-rule="evenodd" clip-rule="evenodd" fill="#344F71" d="M33.505,31.048c0.031,0.384-0.229,0.422-0.513,0.428
		C33.164,31.333,33.333,31.19,33.505,31.048z"/>
	<path fill-rule="evenodd" clip-rule="evenodd" fill="#294768" d="M181.357,41.101c-0.004,0.484-0.352,0.435-0.671,0.428
		C180.909,41.386,181.134,41.244,181.357,41.101z"/>
	<path fill-rule="evenodd" clip-rule="evenodd" fill="#344F71" d="M34.855,29.964c-0.119,0.092-0.236,0.188-0.354,0.281
		C34.619,30.152,34.736,30.056,34.855,29.964z"/>
	<path fill-rule="evenodd" clip-rule="evenodd" fill="#1D3D61" d="M170.173,35.207c0.003,0.086,0.003,0.172,0.008,0.258
		c-0.116-0.01-0.229-0.018-0.343-0.028C169.879,35.256,169.975,35.157,170.173,35.207z"/>
	<path fill-rule="evenodd" clip-rule="evenodd" fill="#344F71" d="M142.899,43.131c0.123,0.11,0.243,0.222,0.361,0.333
		C143.143,43.354,143.022,43.241,142.899,43.131z"/>
	<path fill-rule="evenodd" clip-rule="evenodd" fill="#2C4B7A" d="M169.544,53.88c0.038,0.063,0.049,0.123,0.025,0.19l-0.08-0.091
		L169.544,53.88z"/>
	<path fill-rule="evenodd" clip-rule="evenodd" fill="#344F71" d="M142.412,42.782c0.083,0.062,0.166,0.126,0.247,0.188
		C142.578,42.908,142.495,42.843,142.412,42.782z"/>
	<path fill-rule="evenodd" clip-rule="evenodd" fill="#344F71" d="M173.356,54.587c-0.229,0.02-0.332-0.084-0.294-0.31
		C173.161,54.382,173.256,54.483,173.356,54.587z"/>
	<path fill-rule="evenodd" clip-rule="evenodd" fill="#294768" d="M179.532,48.097c0.231-0.024,0.335,0.087,0.338,0.311
		C179.759,48.304,179.645,48.2,179.532,48.097z"/>
	<path fill-rule="evenodd" clip-rule="evenodd" fill="#388B71" d="M168.776,67.83c0.059,0.111,0.115,0.222,0.175,0.33
		C168.892,68.052,168.835,67.941,168.776,67.83z"/>
	<path fill-rule="evenodd" clip-rule="evenodd" fill="#294768" d="M79.819,32.052c-0.119-0.043-0.235-0.087-0.354-0.13
		C79.583,31.965,79.7,32.008,79.819,32.052z"/>
	<path fill-rule="evenodd" clip-rule="evenodd" fill="#274972" d="M34.81,56.582c-0.104-0.102-0.21-0.202-0.313-0.302l0.073-0.062
		c0.1,0.1,0.199,0.196,0.298,0.295L34.81,56.582z"/>
	<path fill-rule="evenodd" clip-rule="evenodd" fill="#344F71" d="M33.834,30.77c-0.002,0.22-0.108,0.322-0.33,0.293
		C33.615,30.965,33.725,30.868,33.834,30.77z"/>
	<path fill-rule="evenodd" clip-rule="evenodd" fill="#344F71" d="M34.182,30.496c-0.033,0.203-0.15,0.302-0.356,0.289
		C33.944,30.688,34.064,30.593,34.182,30.496z"/>
	<path fill-rule="evenodd" clip-rule="evenodd" fill="#344F71" d="M34.519,30.227c-0.119,0.098-0.24,0.195-0.36,0.292
		C34.278,30.421,34.4,30.325,34.519,30.227z"/>
	<path fill-rule="evenodd" clip-rule="evenodd" fill="#294768" d="M105.423,41.01c-0.022,0.046-0.034,0.097-0.042,0.151
		c0-0.001-0.029-0.087-0.029-0.087L105.423,41.01z"/>
	<path fill-rule="evenodd" clip-rule="evenodd" fill="#2C4B7A" d="M133.232,57.593c0.09,0,0.182,0,0.268,0l-0.132,0.057
		L133.232,57.593z"/>
	<path fill-rule="evenodd" clip-rule="evenodd" fill="#2C4B7A" d="M132.522,34.991c-0.015,0.149-0.032,0.295-0.053,0.443
		C132.49,35.286,132.508,35.14,132.522,34.991z"/>
	<path fill-rule="evenodd" clip-rule="evenodd" fill="#274972" d="M46.445,49.5c0.498-0.753,0.999-1.507,1.499-2.261
		c-0.016,0.845-0.338,1.573,0.109,2.558c0.368,0.813,0.752,0.485,1.146,0.635c-0.001,0.302-0.001,0.607-0.001,0.914
		c-0.412,0.012-0.82,0-0.907,0.568c-0.151,0.972-0.707,0.457-1.083,0.227c-0.584-0.35-0.51-0.95-0.36-1.499
		C46.986,50.137,47.274,49.641,46.445,49.5z"/>
	<path fill-rule="evenodd" clip-rule="evenodd" fill="#22447B" d="M22.722,65.085c-0.126-1.146-0.252-2.288-0.379-3.438
		c0.15-0.01,0.304-0.023,0.458-0.038C23.06,62.743,22.913,63.914,22.722,65.085z"/>
	<path fill-rule="evenodd" clip-rule="evenodd" fill="#22447B" d="M49.198,51.346c0-0.307,0-0.612,0.001-0.914
		c0.308,0,0.618-0.004,0.926-0.004c0.725,1.129-0.413,1.144-0.919,1.531C49.202,51.753,49.199,51.549,49.198,51.346z"/>
	<path fill-rule="evenodd" clip-rule="evenodd" fill="#294768" d="M33.335,38.21c-0.205,0.11-0.41,0.219-0.615,0.328
		c-0.172-1.214,0.451-1.743,1.583-1.829c-0.306,0.406-0.61,0.813-0.917,1.215c-0.026,0.098-0.05,0.194-0.078,0.292L33.335,38.21z"/>
	<path fill-rule="evenodd" clip-rule="evenodd" fill="#294768" d="M36.382,34.871c-0.236,0.412-0.563,0.73-0.983,0.952
		c-0.169,0.098-0.339,0.195-0.507,0.29l-0.054-0.042C34.819,34.985,35.56,34.878,36.382,34.871z"/>
	<path fill-rule="evenodd" clip-rule="evenodd" fill="#C2E2DB" d="M33.386,37.924c0.308-0.402,0.611-0.809,0.917-1.215
		c0.087-0.087,0.175-0.176,0.261-0.265c0.098-0.029,0.195-0.051,0.296-0.068c-0.091,0.828-0.733,1.283-1.239,1.83
		C33.543,38.112,33.464,38.018,33.386,37.924z"/>
	<path fill-rule="evenodd" clip-rule="evenodd" fill="#294768" d="M32.208,39.17c-0.17,0.351-0.325,0.713-0.688,0.917
		C31.462,39.567,31.498,39.117,32.208,39.17z"/>
	<path fill-rule="evenodd" clip-rule="evenodd" fill="#294768" d="M34.861,36.375c-0.101,0.017-0.199,0.04-0.296,0.068
		c0.091-0.124,0.184-0.249,0.274-0.373l0.054,0.042c-0.012,0.094-0.031,0.185-0.056,0.274L34.861,36.375z"/>
	<path fill-rule="evenodd" clip-rule="evenodd" fill="#294768" d="M31.53,40.064c-0.111,0.114-0.224,0.227-0.336,0.339
		C31.306,40.291,31.418,40.178,31.53,40.064z"/>
	<path fill-rule="evenodd" clip-rule="evenodd" fill="#244675" d="M49.198,51.346c0.001,0.203,0.003,0.407,0.008,0.613
		c-0.001,0.675-0.792,1.08-0.617,1.816l-0.01,0.014c-1.128,0.048-1.72,0.658-1.842,1.758l0.021,0.103
		c-0.175,0.01-0.347,0.016-0.523,0.02c-0.305-0.043-0.567,0.002-0.71,0.316c-0.179,0.092-0.363,0.187-0.544,0.277
		c-0.115,0.093-0.228,0.188-0.339,0.282c0,0-0.009,0.021-0.007,0.021c-1.868,0.556-3.679,1.315-5.708,1.222
		c-0.954-0.042-1.36-0.485-1.598-1.297c-0.273-0.936,0.791-0.708,1.097-1.271c-0.59-0.182-1.123-0.824-1.627-0.473
		c-0.422,0.298-0.968,0.966-0.244,1.643c0.086,0.084,0.054,0.405-0.038,0.542c-0.139,0.208-0.368,0.101-0.521-0.036
		c-0.325-0.292-0.712-0.372-1.128-0.383c-0.1-0.099-0.198-0.195-0.298-0.295c-0.002-0.638-0.174-1.146-0.915-1.229
		c-0.08-0.412,0.107-0.899-0.342-1.201c-0.458-1.917-0.279-3.863-0.282-5.8c1.248,0.065,0.981,0.997,0.79,1.645
		c-0.319,1.065,0.425,0.384,0.682,0.497c0.026,0.267,0.052,0.533,0.078,0.806c-0.03,0.453-0.059,0.865-0.6,1.092
		c-0.431,0.178-0.434,0.614,0.014,0.77c2.448,0.878,4.829,2.116,7.573,1.606c0.045,0.304,0.119,0.606,0.522,0.541
		c0.095-0.015,0.254-0.217,0.231-0.275c-0.138-0.356-0.479-0.227-0.752-0.266c0.096-0.321,0.19-0.642,0.287-0.964l-0.019,0.016
		c1.225,0.128,2.23-0.095,2.433-1.561c0,0-0.017,0.03-0.014,0.03c0.115-0.106,0.229-0.216,0.343-0.319l-0.02,0.013
		c0.64,0.021,0.951-0.286,0.925-0.926l-0.014,0.02c0.103-0.114,0.206-0.231,0.31-0.348l-0.023,0.009
		c0.699,0.077,0.674-0.402,0.667-0.866l0.002-0.008c0.829,0.141,0.541,0.637,0.402,1.142c-0.15,0.549-0.224,1.149,0.36,1.499
		c0.377,0.23,0.932,0.745,1.083-0.227C48.378,51.346,48.786,51.357,49.198,51.346z M35.401,54.067
		c-0.179-0.105-0.288-0.217-0.402-0.22c-0.208-0.005-0.375,0.123-0.287,0.349c0.031,0.081,0.237,0.147,0.355,0.134
		C35.168,54.319,35.256,54.186,35.401,54.067z M45.702,51.872c-0.049,0.081-0.125,0.156-0.128,0.232s0.071,0.154,0.11,0.235
		c0.046-0.075,0.124-0.145,0.126-0.22C45.814,52.042,45.743,51.959,45.702,51.872z"/>
	<path fill-rule="evenodd" clip-rule="evenodd" fill="#1E8366" d="M38.466,48.286c0.325,1.501,0.835,2.91,2.069,4.04
		c-2.598,0.158-3.932-1.104-3.891-3.53c0.019-1.023,0.169-2.021,0.603-2.959c0.702-0.276,0.391-1.392,1.264-1.522
		c-0.021,0.209-0.042,0.418-0.066,0.627C38.045,46.061,38.025,47.176,38.466,48.286z"/>
	<path fill-rule="evenodd" clip-rule="evenodd" fill="#274972" d="M41.854,53.44c-0.096,0.322-0.191,0.643-0.287,0.964h-0.001
		c-2.744,0.51-5.125-0.729-7.573-1.606c-0.448-0.155-0.445-0.592-0.014-0.77c0.542-0.227,0.57-0.639,0.6-1.092
		C36.301,53.813,38.797,54.443,41.854,53.44z"/>
	<path fill-rule="evenodd" clip-rule="evenodd" fill="#344F71" d="M34.223,45.544c-0.291,0-0.581,0.002-0.87,0.004
		c0.192-1,0.446-1.97,1.527-2.749C34.631,43.84,34.426,44.692,34.223,45.544z"/>
	<path fill-rule="evenodd" clip-rule="evenodd" fill="#388B71" d="M38.512,44.315c-0.874,0.13-0.562,1.246-1.264,1.522
		c0.242-1.26,0.683-2.436,1.417-3.681C39.004,43.048,38.772,43.683,38.512,44.315z"/>
	<path fill-rule="evenodd" clip-rule="evenodd" fill="#274972" d="M44.269,51.896c-0.203,1.466-1.208,1.688-2.433,1.561
		C42.646,52.938,43.458,52.418,44.269,51.896z"/>
	<path fill-rule="evenodd" clip-rule="evenodd" fill="#388B71" d="M38.466,48.286c-0.441-1.11-0.421-2.226-0.021-3.344
		C38.453,46.058,38.458,47.174,38.466,48.286z"/>
	<path fill-rule="evenodd" clip-rule="evenodd" fill="#274972" d="M45.503,50.693c0.025,0.64-0.285,0.946-0.925,0.926
		C44.796,51.222,45.11,50.916,45.503,50.693z"/>
	<path fill-rule="evenodd" clip-rule="evenodd" fill="#274972" d="M46.443,49.508c0.007,0.464,0.032,0.943-0.667,0.866
		C45.998,50.083,46.222,49.797,46.443,49.508z"/>
	<path fill-rule="evenodd" clip-rule="evenodd" fill="#274972" d="M45.799,50.365c-0.104,0.116-0.207,0.233-0.31,0.348
		C45.592,50.599,45.695,50.481,45.799,50.365z"/>
	<path fill-rule="evenodd" clip-rule="evenodd" fill="#274972" d="M44.598,51.606c-0.115,0.104-0.229,0.213-0.343,0.319
		C44.367,51.819,44.483,51.71,44.598,51.606z"/>
	<path fill-rule="evenodd" clip-rule="evenodd" fill="#22447B" d="M72.505,43.392c0-2.617,0-5.236,0-7.854
		c0.041,0,0.079,0,0.12-0.002c0,2.618,0,5.238,0,7.855C72.584,43.392,72.546,43.392,72.505,43.392z"/>
	<path fill-rule="evenodd" clip-rule="evenodd" fill="#1D3D61" d="M73.4,45.806c2.103-0.063,4.209-0.125,6.312-0.188
		c-0.477,1.026-1.399,0.339-2.09,0.537c-1.391-0.003-2.778-0.006-4.165-0.013c-0.033,0-0.1-0.05-0.1-0.08
		C73.357,45.977,73.383,45.892,73.4,45.806z"/>
	<path fill-rule="evenodd" clip-rule="evenodd" fill="#C2E2DB" d="M34.836,36.387c0.024-0.09,0.043-0.181,0.056-0.274
		c0.168-0.095,0.338-0.192,0.507-0.29C35.37,36.169,35.283,36.46,34.836,36.387z"/>
	<path fill-rule="evenodd" clip-rule="evenodd" fill="#DEEFEC" d="M33.386,37.924c0.078,0.094,0.157,0.188,0.236,0.282
		c-0.104,0.005-0.209,0.008-0.313,0.01C33.335,38.118,33.36,38.021,33.386,37.924z"/>
	<path fill-rule="evenodd" clip-rule="evenodd" fill="#274972" d="M46.737,55.547c0.122-1.1,0.714-1.71,1.842-1.758
		C48.109,54.525,47.538,55.158,46.737,55.547z"/>
	<path fill-rule="evenodd" clip-rule="evenodd" fill="#22447B" d="M129.544,40.966c-0.013,0.496-0.022,0.99-0.033,1.483
		c-0.394,0.015-0.791,0.03-1.186,0.044c-0.947-0.65-2.081-0.687-3.15-0.9c-0.781-0.154-1.418-0.396-1.691-1.21
		c0.185-0.007,0.371-0.01,0.558-0.019c0.104,0.167,0.212,0.169,0.325,0.004C126.124,40.283,127.823,40.743,129.544,40.966z"/>
	<path fill-rule="evenodd" clip-rule="evenodd" fill="#22447B" d="M185.48,57.474c-0.801,0.004-1.589-0.084-2.386,0.194
		c-0.581,0.206-1.018-0.212-1.867-0.82c1.567-0.104,2.701-0.228,3.835-0.228c0.443,0,0.353,0.525,0.406,0.861L185.48,57.474z"/>
	<path fill-rule="evenodd" clip-rule="evenodd" fill="#22447B" d="M184.172,50.184c-0.371-1.031,0.385-1.558,2.099-1.388
		c-0.546,0.777-1.053,1.491-2.12,1.379L184.172,50.184z"/>
	<path fill-rule="evenodd" clip-rule="evenodd" fill="#22447B" d="M179.01,56.886c0.021-0.204-0.008-0.433,0.075-0.601
		c0.211-0.419,0.088-1.184,0.712-1.18c0.691,0.001,0.537,0.803,0.584,1.209c0.104,0.886-0.693,0.393-1.085,0.533
		c-0.09,0.033-0.198,0.017-0.3,0.024L179.01,56.886z"/>
	<path fill-rule="evenodd" clip-rule="evenodd" fill="#22447B" d="M146.631,44.029c0.104,0.607,0.21,1.216,0.313,1.825
		c0,0.301,0.006,0.605,0.006,0.908c-0.042,0.031-0.115,0.07-0.111,0.088c0.024,0.08,0.065,0.151,0.103,0.227c0,2.135,0,4.274,0,6.41
		c-0.617,0.529,0.018,1.396-0.513,1.957c-0.537-0.106-0.371-0.543-0.376-0.849c-0.013-3.129-0.013-6.254,0-9.383
		C146.053,44.742,145.873,44.144,146.631,44.029z"/>
	<path fill-rule="evenodd" clip-rule="evenodd" fill="#294974" d="M172.013,52.889c0,0.097,0.005,0.188,0.009,0.281
		c-1.03,0.448-1.424,0.006-1.217-0.981c0.172-0.799-0.595-1.845,0.603-2.369C172.68,50.631,171.679,51.893,172.013,52.889z"/>
	<path fill-rule="evenodd" clip-rule="evenodd" fill="#294768" d="M109.077,40.661c0.434,0.968,0.356,2.04,0.61,3.046
		c-0.843,0.145-0.598,0.813-0.6,1.318c-0.019,2.512-0.011,5.03-0.007,7.547c-0.208,0-0.414,0-0.62,0
		c-0.124-2.847,0.301-5.714-0.266-8.546c1.064-0.914,0.478-2.037,0.429-3.107c-0.039-0.817-0.707-1.782,0.441-2.388
		C109.069,39.24,109.073,39.95,109.077,40.661z"/>
	<path fill-rule="evenodd" clip-rule="evenodd" fill="#22447B" d="M109.081,52.572c-0.004-2.517-0.012-5.035,0.007-7.547
		c0.002-0.505-0.243-1.173,0.6-1.318c0.098,0.004,0.193,0.006,0.287,0.012c0.092,1.13-0.053,2.238-0.271,3.343
		c0,1.23,0,2.454,0,3.689c0.005,0.494,0.005,0.996,0.007,1.498C109.576,52.498,109.341,52.568,109.081,52.572z"/>
	<path fill-rule="evenodd" clip-rule="evenodd" fill="#22447B" d="M108.195,44.026c0.566,2.833,0.142,5.7,0.266,8.546
		c-0.194,0-0.392,0-0.589,0c-0.002-2.853-0.008-5.707-0.012-8.56C107.97,44.017,108.084,44.021,108.195,44.026z"/>
	<path fill-rule="evenodd" clip-rule="evenodd" fill="#22447B" d="M109.077,40.661c-0.004-0.71-0.008-1.42-0.012-2.13
		c0.036-0.602,0.456-0.644,0.914-0.617c-0.005,0.201-0.009,0.401-0.014,0.6c-0.03,0.031-0.101,0.072-0.098,0.09
		c0.02,0.077,0.067,0.151,0.103,0.223c0.004,0.304,0.004,0.608,0.009,0.912C109.599,39.969,109.75,40.715,109.077,40.661z"/>
	<path fill-rule="evenodd" clip-rule="evenodd" fill="#294768" d="M107.475,41.627c-0.037,0.01-0.103,0.038-0.109,0.029
		c-0.024-0.036-0.029-0.084-0.043-0.129c0.038-0.01,0.1-0.039,0.106-0.029C107.459,41.531,107.464,41.583,107.475,41.627z"/>
	<path fill-rule="evenodd" clip-rule="evenodd" fill="#244675" d="M146.941,47.076c-0.037-0.075-0.078-0.146-0.103-0.227
		c-0.004-0.018,0.069-0.057,0.111-0.088C146.944,46.867,146.944,46.973,146.941,47.076z"/>
	<path fill-rule="evenodd" clip-rule="evenodd" fill="#22447B" d="M151.272,37.259c-0.063-0.362-0.268-0.567-0.643-0.58
		c0.012-0.445-0.09-0.923,0.267-1.285c0.164-0.17,0.379-0.378,0.59-0.401c0.319-0.031,0.363,0.29,0.353,0.539
		c-0.037,0.672,0.317,0.889,0.927,0.849C152.593,37.226,151.844,37.09,151.272,37.259z"/>
	<path fill-rule="evenodd" clip-rule="evenodd" fill="#22447B" d="M153.375,35.157c-0.05,0.484,0.21,1.121-0.609,1.224
		C152.833,35.904,152.533,35.244,153.375,35.157z"/>
	<path fill-rule="evenodd" clip-rule="evenodd" fill="#244675" d="M109.704,50.751c0-1.235,0-2.459,0-3.689
		C110.17,48.292,110.17,49.516,109.704,50.751z"/>
	<path fill-rule="evenodd" clip-rule="evenodd" fill="#244675" d="M109.971,38.826c-0.035-0.072-0.083-0.146-0.103-0.223
		c-0.003-0.018,0.067-0.059,0.098-0.09C109.971,38.618,109.971,38.723,109.971,38.826z"/>
	<path fill-rule="evenodd" clip-rule="evenodd" fill="#294974" d="M124.366,40.368c-0.113,0.166-0.221,0.164-0.325-0.004
		C124.149,40.367,124.258,40.368,124.366,40.368z"/>
	<path fill-rule="evenodd" clip-rule="evenodd" fill="#274972" d="M45.524,55.985c0.143-0.314,0.406-0.359,0.71-0.316
		C46.06,55.912,45.816,56.003,45.524,55.985z"/>
	<path fill-rule="evenodd" clip-rule="evenodd" fill="#274972" d="M44.641,56.545c0.111-0.094,0.224-0.189,0.339-0.282
		C44.865,56.357,44.752,56.451,44.641,56.545z"/>
	<path fill-rule="evenodd" clip-rule="evenodd" fill="#274972" d="M41.568,54.404c0.272,0.039,0.614-0.091,0.752,0.266
		c0.023,0.059-0.136,0.261-0.231,0.275c-0.403,0.065-0.477-0.237-0.522-0.541H41.568z"/>
	<path fill-rule="evenodd" clip-rule="evenodd" fill="#274972" d="M35.401,54.067c-0.145,0.118-0.233,0.252-0.334,0.263
		c-0.118,0.014-0.324-0.053-0.355-0.134c-0.088-0.226,0.078-0.354,0.287-0.349C35.113,53.851,35.223,53.962,35.401,54.067z"/>
	<path fill-rule="evenodd" clip-rule="evenodd" fill="#274972" d="M45.702,51.872c0.041,0.087,0.112,0.17,0.108,0.248
		c-0.002,0.075-0.08,0.145-0.126,0.22c-0.039-0.081-0.112-0.159-0.11-0.235S45.652,51.953,45.702,51.872z"/>
</g>
</svg>
