<?xml version="1.0" encoding="utf-8"?>
<!-- Generator: Adobe Illustrator 16.0.2, SVG Export Plug-In . SVG Version: 6.00 Build 0)  -->
<!DOCTYPE svg PUBLIC "-//W3C//DTD SVG 1.1//EN" "http://www.w3.org/Graphics/SVG/1.1/DTD/svg11.dtd">
<svg version="1.1" id="Layer_1" xmlns="http://www.w3.org/2000/svg" xmlns:xlink="http://www.w3.org/1999/xlink" x="0px" y="0px"
	 width="208.833px" height="100px" viewBox="0 0 208.833 100" enable-background="new 0 0 208.833 100" xml:space="preserve">
<rect x="3" y="2.383" fill="#FFFFFF" stroke="#B3B3B3" stroke-miterlimit="10" width="203.833" height="95.617"/>
<g>
	<path display="none" fill-rule="evenodd" clip-rule="evenodd" fill="#FAFBFB" d="M21.499,32.056c0-2.05,0.03-4.101-0.019-6.15
		c-0.014-0.595,0.107-0.801,0.703-0.693c0.277,0.051,0.569,0.009,0.854,0.009c24.428,0,48.856,0,73.286,0
		c-1.252,0.702-2.698,0.609-4.038,0.955c-0.68,0.175-1.191,0.206-1.11,1.092c0.087,0.935,0.787,0.716,1.271,0.667
		c1.512-0.146,1.636,0.535,1.373,1.81c-1.268,6.152-2.474,12.321-3.675,18.484c-0.518,2.647-0.488,2.561,2.172,2.688
		c1.536,0.075,2.147-0.357,2.393-1.944c0.284-1.854,0.488-3.779,1.343-5.713c1.058,1.391,1.45,2.893,2.168,4.217
		c0.535,0.994,0.916,2.086,1.844,2.822c1.621,1.286,5.706,1.197,7.236-0.169c0.567-0.506,0.395-1.223,0.225-1.737
		c-0.221-0.662-0.772-0.109-1.105,0.042c-1.519,0.69-2.673,0.573-3.494-1.102c-0.749-1.524-1.567-3.013-2.193-4.6
		c-1.198-3.049-1.188-3.014,1.258-5.202c0.691-0.619,0.979-0.473,1.384,0.223c0.265,0.45,0.374,1.283,1.09,1.101
		c1.199-0.31,2.123-1.07,2.467-2.34c0.326-1.21-0.093-2.121-1.203-2.697c-1.522-0.795-3.352-0.385-4.979,1.112
		c-1.351,1.244-2.692,2.495-4.028,3.733c0.889-4.459,1.784-8.951,2.678-13.444c10.593,0,21.183,0,31.775,0
		c-1.271,0.642-2.721,0.542-4.05,0.958c-0.562,0.175-1.308-0.051-1.276,0.942c0.035,1.157,0.902,0.837,1.493,0.82
		c1.209-0.036,1.49,0.257,1.216,1.573c-1.246,5.981-2.339,11.996-3.474,18.003c-0.415,2.192,0.602,3.52,2.823,3.726
		c1.544,0.14,3.024-0.118,4.516-0.572c1.477-0.45,2.275-1.127,1.674-2.775c-0.811,0.279-1.598,0.612-2.419,0.816
		c-1.533,0.379-2.086-0.116-1.802-1.632c0.588-3.172,1.274-6.325,1.829-9.503c0.718-4.122,1.764-8.186,2.205-12.356
		c18.561,0,37.125,0,55.689,0c-1.32,0.669-2.8,0.664-4.204,0.97c-0.685,0.149-0.999,0.316-0.968,1.052
		c0.036,0.803,0.592,0.768,1.075,0.696c1.744-0.253,1.966,0.638,1.635,2.035c-0.142,0.604-0.227,1.223-0.313,1.839
		c-0.17,1.212-0.3,2.374-2.081,1.647c-0.471-0.193-1.126-0.013-1.679,0.094c-5.119,0.992-8.568,5.22-8.856,10.598
		c-0.345,6.42,4.919,8.874,9.153,6.063c0.318-0.212,0.63-0.457,0.993,0.015c0.935,1.209,2.274,1.029,3.585,1.04
		c1.575,0.012,2.89-0.899,4.394-1.107c0,3.646,0,7.29,0,10.935c-1.095-3.079-3.153-4.591-6.541-4.587
		c-43.093,0.042-86.188,0.05-129.283-0.013c-3.919-0.007-6.615,2.572-6.552,6.572c0.052,3.189,0.091,6.381-0.013,9.566
		c-0.098,3.056,0.939,5.408,3.673,6.91c-4.327,0-8.655,0-12.982,0c2.841-1.427,3.957-3.692,3.879-6.889
		c-0.151-6.193-0.04-12.391-0.053-18.584c0-0.469,0.16-0.987-0.264-1.537c-0.627,0.671-1.232,1.252-1.765,1.894
		c-2.086,2.509-3.658,5.298-4.604,8.438c-1.648,5.469-3.202,10.953-3.685,16.679c-1.025,0-2.051,0-3.075,0
		c-0.242-4.662-2.972-15.599-4.743-16.977c-0.248,6.175-1.444,9.368-4.557,12.174c-0.089,0.008-0.177,0.013-0.267,0.02
		c0-0.569,0-1.139,0-1.709c1.628-1.244,2.377-3.027,2.711-4.933c0.392-2.229,0.484-4.511,0.807-6.756
		c0.084-0.588-0.019-1.503,0.932-1.603c0.771-0.082,1.031,0.617,1.327,1.144c1.171,2.082,2.029,4.296,2.771,6.564
		c0.875,2.68,1.161,5.496,1.948,8.201c0.095-3.653,0.103-7.298,0.087-10.941c-0.002-0.585,0.215-1.236-0.604-1.594
		c-1.118-0.484-1.475-1.448-1.485-2.636c-0.054-6.437,0.315-12.855,0.76-19.269c0.065-0.923,0.484-1.834,1.374-2.224
		c0.847-0.373,0.947-0.937,1.013-1.738c0.216-2.633,0.355-5.289,1.226-8.035c0.354,2.917,0.091,5.628,0.07,8.337
		c-0.003,0.47-0.252,1.021,0.397,1.341c1.586,0.781,1.511,2.22,1.442,3.678c-0.268,5.682-0.53,11.364-0.756,17.047
		c-0.058,1.465-0.083,2.877-1.687,3.594c-0.346,0.152-0.438,0.48-0.463,0.847c-0.271,3.787-0.312,7.573-0.164,11.369
		c0.703-2.729,1.33-5.469,1.975-8.202c1.517-6.436,3.71-12.523,8.83-17.092c0.386-0.344,0.46-0.741,0.458-1.216
		c-0.016-5.349,0.037-10.702-0.053-16.054c-0.049-2.937-2.455-5.253-5.388-5.297c-3.982-0.057-7.969-0.009-11.953-0.017
		c-1.381-0.003-2.505,0.566-3.547,1.422C22.528,29.817,22.175,31.037,21.499,32.056z M157.401,36.246
		c-0.98,4.868-1.95,9.672-2.951,14.636c1.149,0,2.229-0.093,3.289,0.027c1.173,0.132,1.574-0.39,1.773-1.439
		c0.528-2.775,1.317-5.518,1.638-8.317c0.254-2.201,1.634-3.235,3.22-4.256c0.541-0.347,1.18-0.659,1.755-0.302
		c0.614,0.378,0.446,1.058,0.321,1.695c-0.669,3.385-1.29,6.777-1.955,10.164c-0.324,1.654,0.18,2.49,1.835,2.729
		c1.879,0.273,3.71-0.017,5.542-0.522c1.304-0.358,1.64-1.015,1.172-2.26c-0.539,0.139-1.077,0.282-1.623,0.416
		c-1.738,0.425-1.995,0.185-1.671-1.616c0.521-2.895,1.029-5.792,1.612-8.674c0.781-3.851-1.198-5.786-5.031-4.935
		c-1.278,0.283-2.4,0.962-3.762,1.36c0.295-1.287-0.227-1.627-1.391-1.552c-2.05,0.135-3.986,0.82-6.006,1.084
		c-0.423,0.056-0.506,0.385-0.521,0.751c-0.022,0.464,0.147,0.79,0.636,0.838C155.955,36.146,156.633,36.184,157.401,36.246z
		 M70.258,44.496c-0.165,5.609,3.97,8.294,9.109,5.918c0.376-0.176,0.632-0.525,1.197-0.173c2.211,1.388,5.521,1.252,7.469-0.223
		c0.168-0.127,0.378-0.325,0.395-0.505c0.037-0.438,0.224-0.976-0.131-1.303c-0.306-0.284-0.731,0.007-1.11,0.102
		c-2.537,0.641-2.854,0.496-2.443-1.508c0.822-3.984,1.189-8.072,2.564-11.934c0.256-0.714,0.2-1.05-0.664-1.045
		c-1.896,0.011-3.8,0.159-5.674-0.374c-0.515-0.146-1.135-0.006-1.689,0.098C73.805,34.569,70.429,38.677,70.258,44.496z
		 M152.563,33.874c-2.233-0.167-4.322,0.288-6.362-0.414c-0.549-0.188-1.246-0.035-1.856,0.074
		c-4.981,0.881-8.418,4.438-9.037,9.491c-0.334,2.728-0.126,5.438,2.307,7.25c2.206,1.643,4.583,1.239,6.892,0.042
		c0.28-0.147,0.597-0.484,0.908-0.173c2.145,2.123,4.411,0.926,6.664,0.282c0.906-0.262,1.626-0.706,1.295-1.785
		c-0.405-1.306-1.246-0.246-1.776-0.147c-2.011,0.37-2.352,0.135-1.872-1.931C150.694,42.392,151.03,38.083,152.563,33.874z
		 M68.606,43.778c-2.641-0.203-2.632-0.201-3.026,0.803c-0.524,1.326-0.317,3.162-1.664,3.883c-1.269,0.68-2.903,0.146-4.372,0.223
		c-0.17,0.01-0.345-0.021-0.512,0.004c-0.962,0.141-1.226-0.122-1.01-1.173c1.078-5.264,2.107-10.539,3.042-15.831
		c0.235-1.331,0.438-2.313,2.109-2.087c0.776,0.104,1.041-0.344,1.063-1.141c0.027-1.049-0.639-0.862-1.236-0.863
		c-2.56-0.004-5.117-0.02-7.678,0.011c-0.638,0.008-1.536-0.378-1.538,0.917c-0.004,1.151,0.741,1.144,1.478,1.122
		c0.946-0.029,1.108,0.26,0.914,1.206c-1.113,5.431-2.214,10.866-3.146,16.328c-0.226,1.325-0.676,1.747-1.91,1.69
		c-0.702-0.034-1.136,0.271-1.139,1.124c-0.001,1.001,0.621,0.893,1.25,0.889c4.947,0,9.896-0.031,14.842,0.027
		c0.976,0.015,1.249-0.372,1.395-1.202C67.807,47.759,68.209,45.819,68.606,43.778z M122.524,44.467
		c-1.497,1.188-2.846,2.314-4.254,3.358c-0.918,0.682-1.935,1.304-3.131,0.65c-1.132-0.619-1.393-1.711-1.407-2.9
		c-0.001-0.287-0.012-0.569-0.032-0.852c-0.067-0.886,0.124-1.377,1.214-1.524c2.424-0.327,4.77-1.005,6.726-2.594
		c2.758-2.234,2.237-5.534-1.076-6.796c-1.078-0.411-2.19-0.507-3.345-0.25c-4.477,0.998-7.571,4.613-8.343,9.805
		c-0.819,5.532,2.178,8.623,7.601,7.834C120.713,50.58,122.932,48.161,122.524,44.467z"/>
	<path fill-rule="evenodd" clip-rule="evenodd" fill="#129040" d="M53.614,79.547c-2.734-1.502-3.771-3.854-3.673-6.91
		c0.104-3.186,0.065-6.377,0.013-9.566c-0.063-4,2.633-6.579,6.552-6.572c43.095,0.063,86.19,0.055,129.283,0.013
		c3.388-0.004,5.446,1.508,6.541,4.587c0,4.667,0,9.339,0,14.007c-0.616,2.022-1.839,3.526-3.76,4.442
		C143.586,79.547,98.6,79.547,53.614,79.547z M60.532,68.107c0,1.706,0.032,3.413-0.013,5.12c-0.023,0.827,0.142,1.264,1.109,1.213
		c1.476-0.075,2.962,0.047,4.436-0.046c3.263-0.211,5.677-2.748,5.82-6.013c0.14-3.212-1.991-5.728-5.245-6.305
		c-1.645-0.29-3.293-0.079-4.933-0.207c-1.041-0.082-1.224,0.381-1.191,1.287C60.576,64.806,60.532,66.457,60.532,68.107z
		 M128.157,74.215c-0.765-1.145-1.409-2.21-2.155-3.196c-0.562-0.742-0.561-1.093,0.32-1.646c1.551-0.976,2.008-2.542,1.598-4.315
		c-0.4-1.737-1.53-2.675-3.289-2.982c-1.756-0.311-3.52-0.062-5.268-0.202c-1.156-0.09-1.586,0.228-1.55,1.475
		c0.09,3.234,0.059,6.477,0.011,9.713c-0.012,0.946,0.097,1.411,1.253,1.408c1.168-0.004,1.319-0.499,1.237-1.427
		c-0.05-0.564,0.04-1.142-0.019-1.704c-0.091-0.873,0.358-0.943,1.096-1.044c1.646-0.224,2.015,1.094,2.549,2.05
		C124.865,74.004,125.981,74.985,128.157,74.215z M157.069,74.426c1.519,0,2.771-0.055,4.018,0.018
		c0.94,0.053,1.135-0.341,1.135-1.192c0-0.841-0.171-1.231-1.119-1.188c-1.531,0.074-3.07-0.011-4.603,0.032
		c-0.764,0.02-1.067-0.165-1.128-1.019c-0.097-1.344,0.191-2.019,1.713-1.808c0.947,0.132,1.934-0.023,2.896,0.039
		c0.897,0.059,1.307-0.144,1.299-1.181c-0.005-1.012-0.363-1.26-1.291-1.205c-1.134,0.069-2.284-0.07-3.409,0.039
		c-1.268,0.125-1.176-0.619-1.187-1.461c-0.012-0.816-0.007-1.424,1.124-1.342c1.358,0.099,2.728-0.007,4.091,0.034
		c0.873,0.023,1.49,0.037,1.459-1.2c-0.028-1.115-0.554-1.133-1.375-1.12c-2.215,0.033-4.438,0.075-6.651-0.016
		c-1.115-0.047-1.317,0.379-1.29,1.373c0.066,2.215-0.016,4.433,0.035,6.649c0.031,1.459-0.639,3.352,0.28,4.266
		C153.985,75.061,155.877,74.293,157.069,74.426z M93.591,74.236c-1.63-3.916-3.271-7.817-4.868-11.74
		c-0.322-0.791-0.913-0.688-1.531-0.695c-0.641-0.009-1.169-0.009-1.487,0.774c-1.484,3.674-3.044,7.315-4.573,10.97
		c-0.12,0.287-0.39,0.787,0.085,0.803c0.914,0.03,2.182,0.633,2.494-0.917c0.328-1.629,1.331-2.004,2.82-1.816
		c0.782,0.097,1.593,0.052,2.388,0.005c0.73-0.042,1.211,0.187,1.365,0.938C90.662,74.417,91.818,74.82,93.591,74.236z
		 M177.01,61.776c-2.494,0.003-4.184,1.255-4.465,3.223c-0.281,1.985,0.653,3.201,3.079,3.991c0.807,0.263,1.63,0.479,2.42,0.777
		c0.603,0.226,1.149,0.581,1.058,1.359c-0.1,0.834-0.745,1.107-1.442,1.209c-1.119,0.164-2.237-0.125-3.051-0.801
		c-1.169-0.969-1.549-0.101-2.079,0.614c-0.792,1.07,0.428,1.102,0.826,1.384c1.138,0.813,2.51,1.06,3.878,1.08
		c2.471,0.033,4.206-1.299,4.479-3.311c0.269-2.004-0.74-3.267-3.255-4.077c-0.86-0.279-1.734-0.526-2.568-0.868
		c-0.582-0.238-0.831-0.753-0.694-1.4c0.13-0.608,0.58-0.772,1.13-0.838c0.994-0.118,1.957,0.017,2.775,0.576
		c1.208,0.824,1.422-0.294,1.848-0.9c0.664-0.942-0.401-1.002-0.794-1.221C179.162,62.021,178.071,61.674,177.01,61.776z
		 M106.482,68.268c0-1.816-0.051-3.635,0.02-5.446c0.044-1.136-0.68-0.934-1.337-0.943c-0.684-0.008-1.352-0.138-1.336,0.968
		c0.048,3.518,0.054,7.038-0.006,10.555c-0.017,1.036,0.502,1.063,1.257,1.036c0.745-0.024,1.482,0.139,1.423-1.063
		C106.424,71.676,106.482,69.97,106.482,68.268z M138.945,68.161c0,1.7,0.061,3.405-0.021,5.102c-0.052,1.049,0.42,1.193,1.3,1.178
		c0.785-0.015,1.236-0.075,1.221-1.071c-0.061-3.457-0.054-6.916-0.002-10.372c0.014-0.944-0.359-1.125-1.197-1.125
		c-0.875,0.001-1.369,0.131-1.321,1.19C139.003,64.758,138.945,66.462,138.945,68.161z"/>
	<path fill-rule="evenodd" clip-rule="evenodd" fill="#2B3C94" d="M21.499,32.056c0.676-1.019,1.03-2.239,2.029-3.062
		c1.042-0.856,2.166-1.426,3.547-1.422c3.984,0.008,7.971-0.04,11.953,0.017c2.934,0.044,5.339,2.361,5.388,5.297
		c0.09,5.352,0.038,10.705,0.053,16.054c0.002,0.475-0.072,0.872-0.458,1.216c-5.12,4.568-7.313,10.656-8.83,17.092
		c-0.645,2.733-1.272,5.474-1.975,8.202c-0.148-3.796-0.107-7.582,0.164-11.369c0.025-0.366,0.117-0.694,0.463-0.847
		c1.604-0.717,1.629-2.129,1.687-3.594c0.226-5.684,0.488-11.365,0.756-17.047c0.069-1.458,0.144-2.897-1.442-3.678
		c-0.649-0.32-0.4-0.871-0.397-1.341c0.021-2.709,0.284-5.42-0.07-8.337c-0.871,2.746-1.01,5.402-1.226,8.035
		c-0.066,0.802-0.166,1.366-1.013,1.738c-0.89,0.39-1.309,1.301-1.374,2.224c-0.445,6.413-0.814,12.832-0.76,19.269
		c0.01,1.188,0.367,2.151,1.485,2.636c0.819,0.357,0.602,1.009,0.604,1.594c0.016,3.644,0.008,7.288-0.087,10.941
		c-0.787-2.705-1.073-5.521-1.948-8.201c-0.742-2.269-1.6-4.482-2.771-6.564c-0.296-0.526-0.556-1.226-1.327-1.144
		c-0.951,0.1-0.847,1.015-0.932,1.603c-0.323,2.245-0.415,4.526-0.807,6.756c-0.333,1.905-1.083,3.688-2.711,4.933
		C21.499,59.39,21.499,45.721,21.499,32.056z"/>
	<path fill-rule="evenodd" clip-rule="evenodd" fill="#2B3D95" d="M192.33,50.163c-1.504,0.208-2.818,1.119-4.394,1.107
		c-1.311-0.011-2.65,0.169-3.585-1.04c-0.363-0.472-0.675-0.227-0.993-0.015c-4.234,2.811-9.498,0.357-9.153-6.063
		c0.288-5.378,3.737-9.605,8.856-10.598c0.553-0.107,1.208-0.287,1.679-0.094c1.781,0.727,1.911-0.435,2.081-1.647
		c0.087-0.616,0.172-1.235,0.313-1.839c0.331-1.397,0.109-2.288-1.635-2.035c-0.483,0.072-1.039,0.107-1.075-0.696
		c-0.031-0.736,0.283-0.903,0.968-1.052c1.404-0.306,2.884-0.3,4.204-0.97c0.91,0,2.467-0.275,2.606,0.054
		c0.372,0.867,0.127,1.996,0.127,3.021c-0.329,0.132-0.293,0.43-0.341,0.703c-0.936,5.447-1.894,10.891-2.798,16.342
		c-0.195,1.172-1.172,2.608-0.137,3.482c0.842,0.713,2.04-0.462,3.106-0.707c0.053-0.011,0.11-0.002,0.169-0.002
		C192.33,48.797,192.33,49.479,192.33,50.163z M185.801,37.34c-0.035-0.109-0.097-0.444-0.247-0.733
		c-0.613-1.172-1.554-1.222-2.995-0.183c-2.698,1.939-4.415,7.871-3.138,10.997c0.33,0.81,0.885,1.559,1.939,1.148
		c1.367-0.529,2.628-1.461,2.97-2.844C184.99,43.05,185.306,40.289,185.801,37.34z"/>
	<path fill-rule="evenodd" clip-rule="evenodd" fill="#2B3D95" d="M99.396,25.222c-0.894,4.493-1.789,8.984-2.678,13.444
		c1.336-1.239,2.678-2.49,4.028-3.733c1.627-1.497,3.456-1.907,4.979-1.112c1.11,0.577,1.529,1.487,1.203,2.697
		c-0.344,1.271-1.268,2.031-2.467,2.34c-0.716,0.182-0.825-0.651-1.09-1.101c-0.404-0.696-0.692-0.842-1.384-0.223
		c-2.445,2.188-2.456,2.153-1.258,5.202c0.626,1.586,1.444,3.075,2.193,4.6c0.821,1.675,1.976,1.792,3.494,1.102
		c0.333-0.151,0.885-0.704,1.105-0.042c0.17,0.515,0.343,1.231-0.225,1.737c-1.53,1.366-5.615,1.455-7.236,0.169
		c-0.928-0.736-1.309-1.828-1.844-2.822c-0.718-1.324-1.11-2.827-2.168-4.217c-0.854,1.935-1.059,3.86-1.343,5.713
		c-0.245,1.587-0.856,2.02-2.393,1.944c-2.66-0.128-2.689-0.041-2.172-2.688c1.201-6.163,2.407-12.333,3.675-18.484
		c0.263-1.274,0.139-1.956-1.373-1.81c-0.484,0.048-1.185,0.267-1.271-0.667c-0.081-0.886,0.431-0.917,1.11-1.092
		c1.34-0.346,2.786-0.252,4.038-0.955C97.349,25.222,98.373,25.222,99.396,25.222z"/>
	<path fill-rule="evenodd" clip-rule="evenodd" fill="#2A3C94" d="M34.14,79.547c0.483-5.726,2.037-11.21,3.685-16.679
		c0.946-3.14,2.518-5.929,4.604-8.438c0.533-0.642,1.138-1.223,1.765-1.894c0.423,0.55,0.263,1.068,0.264,1.537
		c0.013,6.193-0.099,12.391,0.053,18.584c0.078,3.196-1.038,5.462-3.879,6.889C38.468,79.547,36.305,79.547,34.14,79.547z"/>
	<path fill-rule="evenodd" clip-rule="evenodd" fill="#2B3D95" d="M133.907,25.222c-0.441,4.17-1.487,8.234-2.205,12.356
		c-0.555,3.178-1.241,6.331-1.829,9.503c-0.284,1.516,0.269,2.011,1.802,1.632c0.821-0.204,1.608-0.537,2.419-0.816
		c0.602,1.648-0.197,2.325-1.674,2.775c-1.491,0.454-2.972,0.712-4.516,0.572c-2.222-0.206-3.238-1.533-2.823-3.726
		c1.135-6.007,2.228-12.022,3.474-18.003c0.274-1.316-0.007-1.609-1.216-1.573c-0.591,0.017-1.458,0.337-1.493-0.82
		c-0.031-0.993,0.715-0.767,1.276-0.942c1.329-0.417,2.778-0.316,4.05-0.958C132.084,25.222,132.995,25.222,133.907,25.222z"/>
	<path fill-rule="evenodd" clip-rule="evenodd" fill="#2C3E96" d="M21.765,74.744c3.113-2.806,4.309-5.999,4.557-12.174
		c1.771,1.378,4.5,12.314,4.743,16.977c-1.936,0-3.872,0-5.808,0C23.575,78.323,21.797,77.166,21.765,74.744z"/>
	<path fill-rule="evenodd" clip-rule="evenodd" fill="#FAFAFA" d="M192.33,48.115c-0.059,0-0.116-0.009-0.169,0.002
		c-1.066,0.245-2.265,1.42-3.106,0.707c-1.035-0.874-0.059-2.31,0.137-3.482c0.904-5.451,1.862-10.895,2.798-16.342
		c0.048-0.273,0.012-0.571,0.341-0.703C192.33,34.903,192.33,41.51,192.33,48.115z"/>
	<path fill-rule="evenodd" clip-rule="evenodd" fill="#FAFAFA" d="M21.765,74.744c0.032,2.422,1.81,3.579,3.492,4.803
		c-1.253,0-2.995,0.488-3.621-0.138c-0.626-0.627-0.137-2.367-0.137-3.619c0-0.344,0-0.686,0-1.026
		C21.588,74.757,21.676,74.752,21.765,74.744z"/>
	<path fill-rule="evenodd" clip-rule="evenodd" fill="#F5F8F7" d="M188.57,79.547c1.921-0.916,3.144-2.42,3.76-4.442
		c0,0.229,0,0.454,0,0.686c0,1.252,0.488,2.992-0.138,3.619C191.565,80.035,189.823,79.547,188.57,79.547z"/>
	<path fill-rule="evenodd" clip-rule="evenodd" fill="#2C3E96" d="M157.401,36.246c-0.769-0.062-1.446-0.1-2.118-0.174
		c-0.488-0.049-0.658-0.375-0.636-0.838c0.016-0.366,0.099-0.695,0.521-0.751c2.02-0.264,3.956-0.949,6.006-1.084
		c1.164-0.075,1.686,0.266,1.391,1.552c1.361-0.398,2.483-1.077,3.762-1.36c3.833-0.851,5.813,1.084,5.031,4.935
		c-0.583,2.881-1.092,5.779-1.612,8.674c-0.324,1.801-0.067,2.041,1.671,1.616c0.546-0.134,1.084-0.277,1.623-0.416
		c0.468,1.245,0.132,1.901-1.172,2.26c-1.832,0.506-3.663,0.796-5.542,0.522c-1.655-0.238-2.159-1.074-1.835-2.729
		c0.665-3.387,1.286-6.779,1.955-10.164c0.125-0.637,0.293-1.317-0.321-1.695c-0.575-0.357-1.214-0.045-1.755,0.302
		c-1.586,1.021-2.966,2.055-3.22,4.256c-0.32,2.799-1.109,5.542-1.638,8.317c-0.199,1.05-0.601,1.571-1.773,1.439
		c-1.06-0.12-2.14-0.027-3.289-0.027C155.451,45.918,156.421,41.113,157.401,36.246z"/>
	<path fill-rule="evenodd" clip-rule="evenodd" fill="#2C3E96" d="M70.258,44.496c0.171-5.819,3.547-9.927,9.022-10.947
		c0.554-0.104,1.174-0.243,1.689-0.098c1.874,0.533,3.777,0.385,5.674,0.374c0.864-0.005,0.92,0.331,0.664,1.045
		c-1.375,3.862-1.742,7.95-2.564,11.934c-0.411,2.004-0.094,2.148,2.443,1.508c0.379-0.095,0.805-0.386,1.11-0.102
		c0.354,0.327,0.168,0.865,0.131,1.303c-0.017,0.18-0.227,0.378-0.395,0.505c-1.948,1.475-5.258,1.61-7.469,0.223
		c-0.564-0.353-0.821-0.003-1.197,0.173C74.229,52.79,70.094,50.105,70.258,44.496z M81.668,37.732
		c0.206-1.803-0.449-2.257-1.64-1.856c-0.682,0.232-1.354,0.609-1.91,1.065c-2.259,1.863-3.691,7.446-2.76,10.252
		c0.359,1.088,1.061,1.466,2.068,1.239c1.286-0.287,2.408-1.052,2.695-2.325C80.783,43.187,81.223,40.217,81.668,37.732z"/>
	<path fill-rule="evenodd" clip-rule="evenodd" fill="#2C3E96" d="M152.563,33.874c-1.533,4.209-1.869,8.519-2.839,12.689
		c-0.479,2.065-0.139,2.301,1.872,1.931c0.53-0.099,1.371-1.158,1.776,0.147c0.331,1.079-0.389,1.523-1.295,1.785
		c-2.253,0.644-4.52,1.841-6.664-0.282c-0.312-0.312-0.628,0.025-0.908,0.173c-2.309,1.197-4.686,1.601-6.892-0.042
		c-2.433-1.813-2.641-4.522-2.307-7.25c0.619-5.053,4.056-8.609,9.037-9.491c0.61-0.109,1.308-0.262,1.856-0.074
		C148.241,34.162,150.33,33.707,152.563,33.874z M140.104,44.576c0.005,2.839,0.462,3.767,1.683,3.889
		c1.551,0.153,3.078-1.228,3.425-3.066c0.429-2.282,0.913-4.553,1.307-6.844c0.154-0.9,0.783-2.139-0.227-2.656
		c-1.06-0.543-2.187,0.196-3.068,0.963c-0.427,0.37-0.823,0.793-1.146,1.252C140.619,40.19,140.225,42.582,140.104,44.576z"/>
	<path fill-rule="evenodd" clip-rule="evenodd" fill="#2B3D95" d="M68.606,43.778c-0.396,2.041-0.799,3.98-1.14,5.929
		c-0.146,0.83-0.418,1.217-1.395,1.202c-4.946-0.059-9.895-0.027-14.842-0.027c-0.629,0.004-1.251,0.112-1.25-0.889
		c0.002-0.854,0.437-1.158,1.139-1.124c1.233,0.057,1.684-0.365,1.91-1.69c0.932-5.462,2.033-10.897,3.146-16.328
		c0.194-0.946,0.032-1.234-0.914-1.206c-0.737,0.022-1.482,0.03-1.478-1.122c0.002-1.295,0.9-0.909,1.538-0.917
		c2.561-0.031,5.118-0.016,7.678-0.011c0.598,0.001,1.264-0.186,1.236,0.863c-0.023,0.797-0.287,1.245-1.063,1.141
		c-1.67-0.226-1.874,0.756-2.109,2.087c-0.934,5.292-1.964,10.567-3.042,15.831c-0.215,1.051,0.048,1.313,1.01,1.173
		c0.167-0.024,0.342,0.006,0.512-0.004c1.469-0.077,3.103,0.457,4.372-0.223c1.347-0.722,1.14-2.557,1.664-3.883
		C65.974,43.578,65.965,43.576,68.606,43.778z"/>
	<path fill-rule="evenodd" clip-rule="evenodd" fill="#2D3E96" d="M122.524,44.467c0.407,3.694-1.812,6.113-6.048,6.73
		c-5.423,0.788-8.42-2.303-7.601-7.834c0.771-5.192,3.866-8.807,8.343-9.805c1.154-0.256,2.267-0.161,3.345,0.25
		c3.313,1.263,3.834,4.563,1.076,6.796c-1.956,1.588-4.302,2.267-6.726,2.594c-1.09,0.147-1.281,0.638-1.214,1.524
		c0.021,0.283,0.031,0.565,0.032,0.852c0.015,1.189,0.275,2.281,1.407,2.9c1.196,0.653,2.213,0.031,3.131-0.65
		C119.679,46.781,121.027,45.655,122.524,44.467z M114.035,41.318c1.982-0.62,3.594-1.337,4.518-3.036
		c0.452-0.832,0.686-1.818-0.208-2.434c-0.927-0.639-1.709,0.022-2.301,0.753C114.999,37.895,114.539,39.45,114.035,41.318z"/>
	<path fill-rule="evenodd" clip-rule="evenodd" fill="#F2F6F5" d="M60.532,68.107c0-1.65,0.043-3.302-0.018-4.95
		c-0.033-0.906,0.15-1.369,1.191-1.287c1.64,0.128,3.288-0.083,4.933,0.207c3.253,0.577,5.385,3.093,5.245,6.305
		c-0.143,3.265-2.557,5.802-5.82,6.013c-1.473,0.093-2.96-0.029-4.436,0.046c-0.967,0.051-1.132-0.386-1.109-1.213
		C60.564,71.521,60.532,69.813,60.532,68.107z M63.166,67.945c0,1.077-0.005,2.16,0.002,3.237c0.004,0.386-0.038,0.727,0.526,0.885
		c2.362,0.657,4.849-0.637,5.37-2.865c0.588-2.515-0.755-4.529-3.308-4.959c-2.403-0.405-2.591-0.248-2.592,2.168
		C63.164,66.922,63.164,67.433,63.166,67.945z"/>
	<path fill-rule="evenodd" clip-rule="evenodd" fill="#F5F8F7" d="M128.157,74.215c-2.176,0.771-3.292-0.211-4.217-1.871
		c-0.534-0.956-0.903-2.273-2.549-2.05c-0.737,0.101-1.187,0.171-1.096,1.044c0.059,0.563-0.031,1.14,0.019,1.704
		c0.082,0.928-0.069,1.423-1.237,1.427c-1.156,0.003-1.265-0.462-1.253-1.408c0.048-3.236,0.079-6.479-0.011-9.713
		c-0.036-1.247,0.394-1.564,1.55-1.475c1.748,0.141,3.512-0.108,5.268,0.202c1.759,0.308,2.889,1.245,3.289,2.982
		c0.41,1.773-0.047,3.34-1.598,4.315c-0.881,0.553-0.882,0.903-0.32,1.646C126.748,72.005,127.393,73.07,128.157,74.215z
		 M122.081,68.076c0.283,0,0.452,0.012,0.623-0.002c1.062-0.088,2.266,0.037,2.627-1.344c0.207-0.805,0.143-1.672-0.685-2.095
		c-1.313-0.673-2.924-0.864-4.085-0.209c-0.761,0.428-0.336,2.022-0.198,3.055C120.515,68.585,121.579,67.842,122.081,68.076z"/>
	<path fill-rule="evenodd" clip-rule="evenodd" fill="#EFF4F1" d="M157.069,74.426c-1.192-0.133-3.084,0.635-4.004-0.281
		c-0.919-0.914-0.249-2.807-0.28-4.266c-0.051-2.217,0.031-4.435-0.035-6.649c-0.027-0.994,0.175-1.42,1.29-1.373
		c2.214,0.091,4.437,0.049,6.651,0.016c0.821-0.013,1.347,0.005,1.375,1.12c0.031,1.237-0.586,1.224-1.459,1.2
		c-1.363-0.041-2.732,0.064-4.091-0.034c-1.131-0.082-1.136,0.525-1.124,1.342c0.011,0.842-0.081,1.586,1.187,1.461
		c1.125-0.109,2.275,0.03,3.409-0.039c0.928-0.055,1.286,0.193,1.291,1.205c0.008,1.037-0.401,1.239-1.299,1.181
		c-0.962-0.063-1.948,0.093-2.896-0.039c-1.521-0.211-1.81,0.464-1.713,1.808c0.061,0.854,0.364,1.038,1.128,1.019
		c1.532-0.043,3.071,0.042,4.603-0.032c0.948-0.043,1.119,0.348,1.119,1.188c0,0.852-0.194,1.245-1.135,1.192
		C159.84,74.371,158.588,74.426,157.069,74.426z"/>
	<path fill-rule="evenodd" clip-rule="evenodd" fill="#F5F8F7" d="M93.591,74.236c-1.772,0.584-2.929,0.181-3.308-1.679
		c-0.154-0.752-0.635-0.98-1.365-0.938c-0.795,0.047-1.605,0.092-2.388-0.005c-1.489-0.188-2.492,0.188-2.82,1.816
		c-0.313,1.55-1.58,0.947-2.494,0.917c-0.475-0.016-0.205-0.516-0.085-0.803c1.529-3.654,3.089-7.296,4.573-10.97
		c0.318-0.783,0.847-0.783,1.487-0.774c0.618,0.007,1.209-0.096,1.531,0.695C90.32,66.419,91.961,70.32,93.591,74.236z
		 M85.396,69.24c1.221,0,2.284,0,3.561,0c-0.576-1.438-1.102-2.746-1.763-4.392C86.527,66.476,86.002,67.764,85.396,69.24z"/>
	<path fill-rule="evenodd" clip-rule="evenodd" fill="#F3F7F6" d="M177.01,61.776c1.062-0.103,2.152,0.245,3.144,0.798
		c0.393,0.219,1.458,0.278,0.794,1.221c-0.426,0.606-0.64,1.725-1.848,0.9c-0.818-0.56-1.781-0.694-2.775-0.576
		c-0.55,0.065-1,0.229-1.13,0.838c-0.137,0.647,0.112,1.162,0.694,1.4c0.834,0.342,1.708,0.589,2.568,0.868
		c2.515,0.811,3.523,2.073,3.255,4.077c-0.272,2.012-2.008,3.344-4.479,3.311c-1.368-0.021-2.74-0.267-3.878-1.08
		c-0.398-0.282-1.618-0.313-0.826-1.384c0.53-0.715,0.91-1.583,2.079-0.614c0.813,0.676,1.932,0.965,3.051,0.801
		c0.697-0.102,1.343-0.375,1.442-1.209c0.092-0.778-0.455-1.134-1.058-1.359c-0.79-0.298-1.613-0.515-2.42-0.777
		c-2.426-0.79-3.36-2.006-3.079-3.991C172.826,63.031,174.516,61.779,177.01,61.776z"/>
	<path fill-rule="evenodd" clip-rule="evenodd" fill="#EBF2EF" d="M106.482,68.268c0,1.702-0.059,3.408,0.021,5.105
		c0.06,1.202-0.678,1.039-1.423,1.063c-0.755,0.027-1.273,0-1.257-1.036c0.06-3.517,0.054-7.037,0.006-10.555
		c-0.016-1.105,0.652-0.976,1.336-0.968c0.657,0.01,1.381-0.192,1.337,0.943C106.432,64.633,106.482,66.451,106.482,68.268z"/>
	<path fill-rule="evenodd" clip-rule="evenodd" fill="#FAFBFB" d="M138.945,68.161c0-1.699,0.058-3.403-0.021-5.099
		c-0.048-1.06,0.446-1.189,1.321-1.19c0.838,0,1.211,0.181,1.197,1.125c-0.052,3.456-0.059,6.915,0.002,10.372
		c0.016,0.996-0.436,1.057-1.221,1.071c-0.88,0.016-1.352-0.129-1.3-1.178C139.006,71.566,138.945,69.861,138.945,68.161z"/>
	<path fill-rule="evenodd" clip-rule="evenodd" fill="#FAFAFA" d="M185.801,37.34c-0.495,2.949-0.811,5.71-1.471,8.385
		c-0.342,1.383-1.603,2.315-2.97,2.844c-1.055,0.41-1.609-0.339-1.939-1.148c-1.277-3.126,0.439-9.058,3.138-10.997
		c1.441-1.039,2.382-0.989,2.995,0.183C185.704,36.896,185.766,37.231,185.801,37.34z"/>
	<path fill-rule="evenodd" clip-rule="evenodd" fill="#FAFAFA" d="M81.668,37.732c-0.445,2.485-0.885,5.455-1.546,8.375
		c-0.288,1.273-1.41,2.038-2.695,2.325c-1.008,0.227-1.709-0.151-2.068-1.239c-0.931-2.806,0.501-8.389,2.76-10.252
		c0.556-0.457,1.228-0.833,1.91-1.065C81.219,35.475,81.874,35.929,81.668,37.732z"/>
	<path fill-rule="evenodd" clip-rule="evenodd" fill="#FAFAFA" d="M140.104,44.576c0.121-1.994,0.516-4.386,1.974-6.462
		c0.322-0.459,0.719-0.882,1.146-1.252c0.882-0.767,2.009-1.506,3.068-0.963c1.01,0.517,0.381,1.756,0.227,2.656
		c-0.394,2.292-0.878,4.563-1.307,6.844c-0.347,1.839-1.874,3.22-3.425,3.066C140.565,48.343,140.108,47.415,140.104,44.576z"/>
	<path fill-rule="evenodd" clip-rule="evenodd" fill="#F3F7F6" d="M114.035,41.318c0.504-1.868,0.964-3.423,2.009-4.716
		c0.592-0.731,1.374-1.393,2.301-0.753c0.894,0.616,0.66,1.603,0.208,2.434C117.629,39.981,116.018,40.698,114.035,41.318z"/>
	<path fill-rule="evenodd" clip-rule="evenodd" fill="#149143" d="M63.165,67.945c-0.001-0.513-0.001-1.023-0.001-1.534
		c0.001-2.416,0.189-2.573,2.592-2.168c2.553,0.43,3.896,2.444,3.308,4.959c-0.521,2.229-3.008,3.522-5.37,2.865
		c-0.563-0.158-0.522-0.499-0.526-0.885C63.16,70.105,63.166,69.022,63.165,67.945z"/>
	<path fill-rule="evenodd" clip-rule="evenodd" fill="#179447" d="M122.081,68.076c-0.502-0.234-1.566,0.509-1.718-0.595
		c-0.138-1.032-0.563-2.627,0.198-3.055c1.161-0.655,2.771-0.464,4.085,0.209c0.827,0.423,0.892,1.29,0.685,2.095
		c-0.361,1.381-1.565,1.256-2.627,1.344C122.533,68.088,122.364,68.076,122.081,68.076z"/>
	<path fill-rule="evenodd" clip-rule="evenodd" fill="#179447" d="M85.396,69.24c0.606-1.477,1.132-2.765,1.798-4.392
		c0.661,1.646,1.187,2.953,1.763,4.392C87.68,69.24,86.616,69.24,85.396,69.24z"/>
</g>
</svg>
