<?xml version="1.0" encoding="utf-8"?>
<!-- Generator: Adobe Illustrator 16.0.2, SVG Export Plug-In . SVG Version: 6.00 Build 0)  -->
<!DOCTYPE svg PUBLIC "-//W3C//DTD SVG 1.1//EN" "http://www.w3.org/Graphics/SVG/1.1/DTD/svg11.dtd">
<svg version="1.1" id="Layer_1" xmlns="http://www.w3.org/2000/svg" xmlns:xlink="http://www.w3.org/1999/xlink" x="0px" y="0px"
	 width="208.833px" height="100px" viewBox="0 0 208.833 100" enable-background="new 0 0 208.833 100" xml:space="preserve">
<rect x="2.414" y="2.383" fill="#FFFFFF" stroke="#B3B3B3" stroke-miterlimit="10" width="203.833" height="95.617"/>
<path fill-rule="evenodd" clip-rule="evenodd" fill="#310E81" d="M144.61,54.715c0-5.097-0.002-10.19,0-15.286
	c0-0.651-0.144-1.305,0.751-1.614c5.246-1.815,10.495-3.556,16.188-2.842c1.63,0.205,3.194,0.674,4.596,1.477
	c1.101,0.627,2.04,0.58,3.154,0.144c4.469-1.741,9.089-2.402,13.822-1.422c4.818,0.997,7.494,4.086,8.226,9.159
	c0.245,1.725,0.322,3.452,0.315,5.19c-0.013,6.826-0.04,13.658,0.027,20.488c0.013,1.301-0.379,1.62-1.604,1.556
	c-1.899-0.1-3.813-0.114-5.71,0c-1.373,0.085-1.792-0.317-1.778-1.738c0.071-7.329,0.033-14.663,0.029-22.001
	c0-0.668,0.021-1.346-0.057-2.01c-0.325-2.814-2.014-4.293-4.845-4.256c-0.556,0.006-1.12,0.079-1.67,0.17
	c-3.235,0.527-3.472,0.917-3.453,4.2c0.051,8.118,0.008,16.239,0.058,24.354c0.007,1.095-0.39,1.306-1.368,1.275
	c-2.07-0.066-4.146-0.091-6.214,0.006c-1.202,0.054-1.503-0.361-1.492-1.519c0.05-7.052,0.022-14.108,0.022-21.16
	c0-0.393,0.011-0.784,0-1.178c-0.058-2.147-0.011-4.429-2.285-5.559c-2.331-1.164-4.68-0.527-6.963,0.423
	c-0.945,0.396-0.695,1.167-0.699,1.852c-0.025,8.451-0.065,16.906-0.021,25.358c0.009,1.357-0.28,1.891-1.733,1.787
	c-1.838-0.13-3.697-0.111-5.538-0.004c-1.354,0.078-1.827-0.277-1.799-1.738C144.669,64.789,144.61,59.751,144.61,54.715z"/>
<path fill-rule="evenodd" clip-rule="evenodd" fill="#310E81" d="M138.697,45.323c-3.015-1.657-5.961-2.773-9.08-3.408
	c-2.151-0.439-4.309-0.647-6.494-0.208c-0.888,0.179-1.736,0.419-2.511,0.889c-0.965,0.591-1.604,1.369-1.551,2.587
	c0.055,1.231,0.782,1.929,1.828,2.368c2.443,1.027,5.082,1.279,7.629,1.899c2.393,0.581,4.763,1.214,6.912,2.466
	c6.403,3.734,6.983,12.266,1.052,16.728c-5.271,3.97-11.254,4.252-17.442,2.893c-2.289-0.504-4.49-1.329-6.684-2.167
	c-0.858-0.33-1.229-0.734-1.19-1.69c0.076-1.886,0.021-3.781,0.021-5.963c2.996,1.606,5.932,2.735,9.031,3.385
	c2.663,0.558,5.325,0.744,7.948-0.17c1.434-0.504,2.702-1.255,2.673-3.026c-0.031-1.718-1.302-2.396-2.711-2.755
	c-2.756-0.707-5.547-1.284-8.307-1.979c-2.116-0.531-4.179-1.238-6.013-2.471c-5.615-3.771-6.087-11.667-0.86-15.965
	c4.697-3.858,10.223-4.502,16.013-3.624c2.991,0.453,5.842,1.465,8.658,2.563c0.791,0.309,1.127,0.698,1.098,1.58
	C138.65,41.193,138.697,43.139,138.697,45.323z"/>
<path fill-rule="evenodd" clip-rule="evenodd" fill="#310D81" d="M105.656,45.394c-3.573-2.774-7.469-3.609-11.553-3.616
	c-4.688-0.003-8.139,2.626-9.426,7.125c-0.929,3.244-0.915,6.536,0.166,9.753c1.37,4.067,4.692,6.522,8.99,6.572
	c4.203,0.047,8.198-0.782,11.822-3.613c0,2.345-0.026,4.45,0.014,6.554c0.015,0.652-0.372,0.885-0.829,1.096
	c-6.071,2.805-12.324,4.039-18.883,1.953c-6.675-2.127-11.049-7.925-11.543-15.194c-0.207-3.026-0.136-6.046,0.735-8.988
	c2.898-9.8,11.41-12.645,18.757-12.203c3.703,0.222,7.276,1.127,10.643,2.775c0.795,0.385,1.176,0.808,1.133,1.761
	C105.594,41.268,105.656,43.17,105.656,45.394z"/>
<path fill-rule="evenodd" clip-rule="evenodd" fill="#EC262F" d="M49.796,42.539c1.172,0.127,3.026-0.62,3.937,0.272
	c0.915,0.896,0.233,2.754,0.289,4.19c0.049,1.282-0.03,2.57,0.025,3.852c0.036,0.853-0.217,1.191-1.125,1.172
	c-2.343-0.055-4.689-0.055-7.033-0.004c-0.918,0.021-1.299-0.222-1.273-1.211c0.06-2.399,0.042-4.802,0.008-7.204
	c-0.012-0.784,0.246-1.106,1.057-1.076C46.964,42.576,48.249,42.539,49.796,42.539z"/>
<path fill-rule="evenodd" clip-rule="evenodd" fill="#371083" d="M61.723,39.446c-1.231,0-2.462-0.03-3.692,0.014
	c-0.726,0.023-0.978-0.238-0.968-0.966c0.032-2.46,0.032-4.922,0-7.384c-0.01-0.789,0.26-1.081,1.07-1.067
	c2.461,0.037,4.922,0.033,7.384,0c0.779-0.007,1.092,0.231,1.072,1.057c-0.057,2.406-0.079,4.812-0.042,7.216
	c0.013,0.866-0.237,1.198-1.133,1.148C64.187,39.396,62.954,39.446,61.723,39.446z"/>
<path fill-rule="evenodd" clip-rule="evenodd" fill="#F18423" d="M57.061,47.136c0-4.603,0-4.627,4.612-4.59
	c1.554,0.014,3.554-0.671,4.542,0.278c1.07,1.027,0.337,3.063,0.356,4.657c0.054,4.533,0.019,4.533-4.488,4.533
	c-1.172-0.004-2.348-0.051-3.519-0.008c-1.1,0.042-1.643-0.298-1.525-1.521C57.145,49.376,57.061,48.252,57.061,47.136z"/>
<path fill-rule="evenodd" clip-rule="evenodd" fill="#A42588" d="M54.102,59.987c-0.19,1.263,0.698,3.242-0.362,4.231
	c-0.956,0.893-2.882,0.255-4.376,0.251c-1.494,0-3.424,0.645-4.372-0.257c-1.042-0.998-0.26-2.967-0.346-4.509
	c-0.067-1.226,0.01-2.457-0.021-3.685c-0.019-0.712,0.257-0.999,0.978-0.994c2.513,0.024,5.026,0.024,7.539,0
	c0.728-0.005,0.985,0.3,0.968,1.005C54.08,57.258,54.102,58.485,54.102,59.987z"/>
<path fill-rule="evenodd" clip-rule="evenodd" fill="#1DA4C9" d="M36.559,64.495c-1.231-0.118-3.17,0.637-4.107-0.276
	c-1.018-0.993-0.291-2.962-0.319-4.503c-0.027-1.492-0.643-3.425,0.25-4.364c0.912-0.963,2.863-0.241,4.356-0.309
	c1.171-0.05,2.35,0.058,3.516-0.029c1.075-0.081,1.323,0.348,1.293,1.349c-0.067,2.23-0.091,4.468,0.005,6.695
	c0.052,1.242-0.438,1.537-1.554,1.453C38.947,64.431,37.88,64.495,36.559,64.495z"/>
<path fill-rule="evenodd" clip-rule="evenodd" fill="#129048" d="M54.017,72.634c-0.118,1.181,0.624,3.06-0.26,3.955
	c-0.955,0.966-2.86,0.312-4.345,0.299c-1.538-0.014-3.522,0.714-4.496-0.323c-0.886-0.941-0.258-2.888-0.245-4.388
	c0.013-1.492-0.661-3.479,0.3-4.345c0.819-0.734,2.768-0.231,4.217-0.252c1.229-0.016,2.464,0.047,3.692-0.02
	c0.869-0.048,1.204,0.212,1.152,1.117C53.965,69.906,54.017,71.14,54.017,72.634z"/>
<path fill-rule="evenodd" clip-rule="evenodd" fill="#AAACAF" d="M49.369,39.412c-1.115,0-2.234-0.054-3.346,0.017
	c-1.039,0.06-1.527-0.215-1.487-1.379c0.08-2.228,0.054-4.462,0.01-6.693c-0.019-1.016,0.389-1.379,1.389-1.358
	c2.287,0.043,4.575,0.043,6.861,0c1-0.021,1.411,0.339,1.392,1.358c-0.043,2.285-0.05,4.573,0.001,6.861
	c0.024,0.997-0.416,1.246-1.308,1.208C51.713,39.375,50.541,39.412,49.369,39.412z"/>
<path fill-rule="evenodd" clip-rule="evenodd" fill="#1CA3C9" d="M61.88,67.58c1.229,0,2.459,0.028,3.687-0.014
	c0.731-0.022,0.98,0.271,0.973,0.981c-0.023,2.458-0.027,4.918,0,7.376c0.008,0.803-0.32,1.061-1.104,1.051
	c-2.458-0.036-4.916-0.024-7.376-0.007c-0.585,0.003-0.981-0.121-0.978-0.809c0.013-2.455,0.021-4.911,0.018-7.367
	c-0.004-0.866,0.274-1.309,1.263-1.235C59.528,67.647,60.708,67.577,61.88,67.58z"/>
<path fill-rule="evenodd" clip-rule="evenodd" fill="#A8A9AC" d="M62.164,55.119c1.209,0.129,3.11-0.637,4.094,0.297
	c1.002,0.946,0.313,2.864,0.327,4.354c0.048,4.758,0.018,4.758-4.823,4.758c-0.391,0-0.782,0-1.174,0
	c-3.684,0-3.796-0.07-3.565-3.785c0.094-1.506,0.297-2.988,0.001-4.494c-0.146-0.735,0.16-1.162,0.999-1.138
	C59.309,55.146,60.595,55.119,62.164,55.119z"/>
<path fill-rule="evenodd" clip-rule="evenodd" fill="#F18423" d="M29.063,59.867c0,1.172-0.046,2.346,0.016,3.516
	c0.047,0.906-0.333,1.142-1.178,1.124c-2.342-0.039-4.688-0.033-7.031-0.004c-0.809,0.015-1.231-0.16-1.209-1.099
	c0.052-2.4,0.036-4.802,0.004-7.2c-0.009-0.759,0.195-1.114,1.027-1.101c2.455,0.036,4.909,0.04,7.361-0.003
	c0.832-0.015,1.05,0.317,1.023,1.083C29.031,57.411,29.063,58.64,29.063,59.867z"/>
<path fill-rule="evenodd" clip-rule="evenodd" fill="#EA1F28" d="M29.063,34.839c0,1.114-0.045,2.231,0.016,3.345
	c0.045,0.872-0.132,1.305-1.157,1.271c-2.396-0.071-4.796-0.061-7.193-0.003c-0.928,0.023-1.112-0.345-1.095-1.178
	c0.045-2.342,0.06-4.683-0.005-7.025c-0.027-0.986,0.339-1.228,1.256-1.208c2.285,0.054,4.573,0.061,6.857-0.003
	c0.991-0.027,1.423,0.218,1.342,1.288C28.997,32.491,29.063,33.669,29.063,34.839z"/>
<path fill-rule="evenodd" clip-rule="evenodd" fill="#A42789" d="M36.514,39.429c-1.22-0.121-3.147,0.641-4.093-0.282
	c-0.95-0.929-0.262-2.862-0.293-4.354c-0.034-1.496-0.499-3.469,0.256-4.375c0.889-1.063,2.936-0.265,4.477-0.353
	c1.225-0.066,2.458,0.014,3.686-0.02c0.71-0.017,0.996,0.252,0.988,0.973c-0.023,2.459-0.033,4.919,0.005,7.375
	c0.014,0.808-0.278,1.08-1.067,1.05C39.246,39.396,38.015,39.429,36.514,39.429z"/>
<path fill-rule="evenodd" clip-rule="evenodd" fill="#310E81" d="M24.141,76.957c-1.274-0.157-3.327,0.685-4.215-0.334
	c-0.76-0.876-0.265-2.869-0.265-4.366c0-1.496-0.499-3.505,0.262-4.354c0.891-0.995,2.939-0.275,4.481-0.309
	c1.495-0.033,3.459-0.49,4.358,0.262c0.947,0.796,0.234,2.825,0.292,4.314c0.047,1.228-0.041,2.459,0.027,3.688
	c0.049,0.902-0.297,1.164-1.157,1.117C26.752,76.911,25.578,76.957,24.141,76.957z"/>
<path fill-rule="evenodd" clip-rule="evenodd" fill="#A8A9AC" d="M32.095,71.929c0.171-1.211-0.666-3.119,0.352-4.076
	c0.922-0.862,2.78-0.216,4.224-0.259c1.229-0.037,2.464,0.033,3.692-0.021c0.891-0.036,1.167,0.325,1.152,1.183
	c-0.037,2.348-0.036,4.699,0,7.048c0.013,0.849-0.26,1.204-1.15,1.19c-2.406-0.04-4.812-0.033-7.216-0.002
	c-0.809,0.01-1.087-0.324-1.064-1.102C32.122,74.663,32.095,73.433,32.095,71.929z"/>
<path fill-rule="evenodd" clip-rule="evenodd" fill="#129048" d="M41.385,47.2c0,1.495,0.584,3.481-0.153,4.36
	c-0.866,1.036-2.918,0.298-4.453,0.323c-1.49,0.022-3.422,0.646-4.358-0.26c-0.941-0.916-0.259-2.857-0.29-4.345
	c-0.032-1.5-0.509-3.485,0.248-4.369c0.891-1.043,2.941-0.264,4.484-0.34c1.224-0.064,2.454,0.013,3.68-0.024
	c0.72-0.021,0.991,0.245,0.965,0.97c-0.043,1.228-0.012,2.457-0.012,3.685C41.458,47.2,41.422,47.2,41.385,47.2z"/>
<path fill-rule="evenodd" clip-rule="evenodd" fill="#A8A9AC" d="M24.414,42.664c1.005,0,2.017,0.066,3.015-0.017
	c1.195-0.104,1.721,0.218,1.654,1.545c-0.108,2.117-0.073,4.248-0.01,6.368c0.03,1.03-0.335,1.366-1.351,1.34
	c-2.232-0.059-4.469-0.052-6.703-0.005c-0.963,0.023-1.428-0.211-1.396-1.294c0.065-2.231,0.054-4.47,0.003-6.704
	c-0.021-0.953,0.329-1.292,1.268-1.249C22.065,42.707,23.239,42.664,24.414,42.664z"/>
</svg>
