<?xml version="1.0" encoding="utf-8"?>
<!-- Generator: Adobe Illustrator 16.0.2, SVG Export Plug-In . SVG Version: 6.00 Build 0)  -->
<!DOCTYPE svg PUBLIC "-//W3C//DTD SVG 1.1//EN" "http://www.w3.org/Graphics/SVG/1.1/DTD/svg11.dtd">
<svg version="1.1" id="Layer_1" xmlns="http://www.w3.org/2000/svg" xmlns:xlink="http://www.w3.org/1999/xlink" x="0px" y="0px"
	 width="208.833px" height="100px" viewBox="0 0 208.833 100" enable-background="new 0 0 208.833 100" xml:space="preserve">
<rect x="2.414" y="2.383" fill="#FFFFFF" stroke="#B3B3B3" stroke-miterlimit="10" width="203.833" height="95.617"/>
<path display="none" fill-rule="evenodd" clip-rule="evenodd" fill="#EC262F" d="M49.796,42.539c1.172,0.127,3.026-0.62,3.937,0.272
	c0.915,0.896,0.233,2.754,0.289,4.19c0.049,1.282-0.03,2.57,0.025,3.852c0.036,0.853-0.217,1.191-1.125,1.172
	c-2.343-0.055-4.689-0.055-7.033-0.004c-0.918,0.021-1.299-0.222-1.273-1.211c0.06-2.399,0.042-4.802,0.008-7.204
	c-0.012-0.784,0.246-1.106,1.057-1.076C46.964,42.576,48.249,42.539,49.796,42.539z"/>
<path display="none" fill-rule="evenodd" clip-rule="evenodd" fill="#A42588" d="M54.102,59.987
	c-0.19,1.263,0.698,3.242-0.362,4.231c-0.956,0.893-2.882,0.255-4.376,0.251c-1.494,0-3.424,0.645-4.372-0.257
	c-1.042-0.998-0.26-2.967-0.346-4.509c-0.067-1.226,0.01-2.457-0.021-3.685c-0.019-0.712,0.257-0.999,0.978-0.994
	c2.513,0.024,5.026,0.024,7.539,0c0.728-0.005,0.985,0.3,0.968,1.005C54.08,57.258,54.102,58.485,54.102,59.987z"/>
<path display="none" fill-rule="evenodd" clip-rule="evenodd" fill="#1DA4C9" d="M36.559,64.495
	c-1.231-0.118-3.17,0.637-4.107-0.276c-1.018-0.993-0.291-2.962-0.319-4.503c-0.027-1.492-0.643-3.425,0.25-4.364
	c0.912-0.963,2.863-0.241,4.356-0.309c1.171-0.05,2.35,0.058,3.516-0.029c1.075-0.081,1.323,0.348,1.293,1.349
	c-0.067,2.23-0.091,4.468,0.005,6.695c0.052,1.242-0.438,1.537-1.554,1.453C38.947,64.431,37.88,64.495,36.559,64.495z"/>
<path display="none" fill-rule="evenodd" clip-rule="evenodd" fill="#A8A9AC" d="M62.164,55.119c1.209,0.129,3.11-0.637,4.094,0.297
	c1.002,0.946,0.313,2.864,0.327,4.354c0.048,4.758,0.018,4.758-4.823,4.758c-0.391,0-0.782,0-1.174,0
	c-3.684,0-3.796-0.07-3.565-3.785c0.094-1.506,0.297-2.988,0.001-4.494c-0.146-0.735,0.16-1.162,0.999-1.138
	C59.309,55.146,60.595,55.119,62.164,55.119z"/>
<path display="none" fill-rule="evenodd" clip-rule="evenodd" fill="#F18423" d="M29.063,59.867c0,1.172-0.046,2.346,0.016,3.516
	c0.047,0.906-0.333,1.142-1.178,1.124c-2.342-0.039-4.688-0.033-7.031-0.004c-0.809,0.015-1.231-0.16-1.209-1.099
	c0.052-2.4,0.036-4.802,0.004-7.2c-0.009-0.759,0.195-1.114,1.027-1.101c2.455,0.036,4.909,0.04,7.361-0.003
	c0.832-0.015,1.05,0.317,1.023,1.083C29.031,57.411,29.063,58.64,29.063,59.867z"/>
<path display="none" fill-rule="evenodd" clip-rule="evenodd" fill="#129048" d="M41.385,47.2c0,1.495,0.584,3.481-0.153,4.36
	c-0.866,1.036-2.918,0.298-4.453,0.323c-1.49,0.022-3.422,0.646-4.358-0.26c-0.941-0.916-0.259-2.857-0.29-4.345
	c-0.032-1.5-0.509-3.485,0.248-4.369c0.891-1.043,2.941-0.264,4.484-0.34c1.224-0.064,2.454,0.013,3.68-0.024
	c0.72-0.021,0.991,0.245,0.965,0.97c-0.043,1.228-0.012,2.457-0.012,3.685C41.458,47.2,41.422,47.2,41.385,47.2z"/>
<path display="none" fill-rule="evenodd" clip-rule="evenodd" fill="#A8A9AC" d="M24.414,42.664c1.005,0,2.017,0.066,3.015-0.017
	c1.195-0.104,1.721,0.218,1.654,1.545c-0.108,2.117-0.073,4.248-0.01,6.368c0.03,1.03-0.335,1.366-1.351,1.34
	c-2.232-0.059-4.469-0.052-6.703-0.005c-0.963,0.023-1.428-0.211-1.396-1.294c0.065-2.231,0.054-4.47,0.003-6.704
	c-0.021-0.953,0.329-1.292,1.268-1.249C22.065,42.707,23.239,42.664,24.414,42.664z"/>
<path fill-rule="evenodd" clip-rule="evenodd" fill="#3C4D3D" d="M43.401,48.553c0.304-1.772,2.248-3.316,0.814-5.364
	c-0.29-0.421,0.255-0.952,0.903-0.952c0.779,0.007,1.579-0.062,2.345,0.049c0.807,0.124,1.751-0.042,0.882,1.537
	c-0.758,1.379,0.524,3,1.014,4.992c0.503-1.668,0.869-2.854,1.207-4.04c0.083-0.297,0.207-0.662,0.11-0.917
	c-0.517-1.407-0.538-1.394,0.848-1.531c0.627-0.068,1.345-0.386,1.813,0.248c0.586,0.786-0.448,1.041-0.627,1.586
	c-0.745,2.297-1.586,4.564-2.172,6.896c-0.303,1.192-0.972,1.317-1.944,1.421c-1.097,0.109-1.048-0.711-1.296-1.345
	c-0.51-1.324-0.524-2.807-1.338-4.22c-0.848,1.427-1.041,2.923-1.358,4.323c-0.269,1.22-1.076,1.068-1.854,1.233
	c-1.062,0.234-1.076-0.6-1.338-1.248c-1.041-2.571-1.151-5.481-2.779-7.854c-0.186-0.262-0.131-0.62,0.152-0.882
	c0.29-0.263,3.779-0.421,4.027-0.125c0.145,0.173,0.283,0.587,0.193,0.683C41.209,45.022,43.553,46.663,43.401,48.553z"/>
<path fill-rule="evenodd" clip-rule="evenodd" fill="#99C45F" d="M24.784,58.31c0.145,0.634,0.345,1.255-0.717,1.221
	c-2.048-0.056-3.565-0.973-4.771-2.6c-1.434-1.931-2.076-4.199-2.854-6.399c-0.697-1.958-1.124-4.006-1.765-5.984
	c-0.627-1.951-2.055-3.386-3.668-4.854c3.062-0.421,5.564,1.435,6.647,4.744c1.131,3.468,2.138,6.978,3.331,10.418
	c0.621,1.779,1.461,3.552,3.847,3.496L24.784,58.31z"/>
<path fill-rule="evenodd" clip-rule="evenodd" fill="#3C4D3D" d="M169.226,46.656c0.441,1.338-0.725,3.145,0.669,4.71
	c0.386,0.441-0.132,1.027-0.731,1.041c-1.689,0.034-3.399,0.179-5.047-0.09c-1.462-0.234-1.924-1.586-2-2.972
	c-0.09-1.744,0.379-3.227,2.104-4.02c0.399-0.187,0.868-0.346,1.303-0.346c1.482-0.007,1.214-0.793,0.759-1.634
	c-0.214-0.379-0.772-0.951-0.345-1.124c0.861-0.352,1.861-0.455,2.806-0.462c0.614-0.007,0.47,0.669,0.477,1.09
	C169.232,44.022,169.226,45.194,169.226,46.656z M166.646,48.566c-0.358-0.489,0.482-1.683-0.717-1.772
	c-1.27-0.096-0.986,1.104-1.021,1.862c-0.049,0.8-0.2,1.951,0.965,1.917C167.019,50.531,166.46,49.38,166.646,48.566z"/>
<path fill-rule="evenodd" clip-rule="evenodd" fill="#3C4D3D" d="M98.604,46.581c0.414,1.386-0.717,3.268,0.731,4.867
	c0.352,0.387-0.028,0.959-0.759,0.952c-1.552-0.007-3.124,0.138-4.668,0.014c-1.793-0.145-2.228-1.586-2.365-3.068
	c-0.193-2.104,0.951-3.965,2.868-4.262c1.744-0.269,2.358-0.641,0.966-2.158c-0.241-0.269-0.187-0.647,0.206-0.778
	c0.855-0.297,1.793-0.642,2.642-0.353c0.751,0.263,0.317,1.152,0.358,1.752C98.646,44.457,98.604,45.367,98.604,46.581z
	 M96.191,48.429c-0.241-0.565,0.51-1.793-0.766-1.724c-1.09,0.062-1.192,1.172-1.186,2.109c0.007,0.786,0.034,1.813,0.979,1.786
	C96.557,50.56,96.102,49.318,96.191,48.429z"/>
<path fill-rule="evenodd" clip-rule="evenodd" fill="#394B3A" d="M147.319,46.009c-0.159,1.813-1.627,1.992-2.938,2.351
	c-1.586,0.421-1.993,1.407-0.966,2.648c0.27,0.33,0.524,0.53,0.387,0.951c-0.166,0.503-0.621,0.372-0.986,0.386
	c-0.455,0.021-0.924,0.063-1.372-0.007c-1.034-0.158-3.034,1.014-1.559-1.944c0.869-1.737,1.207-4.688-0.517-6.881
	c-0.538-0.69-0.034-1.18,0.613-1.207c1.944-0.09,3.938-0.352,5.82,0.311c1.145,0.406,1.737,1.33,1.558,2.62
	C147.347,45.498,147.333,45.753,147.319,46.009z M142.706,45.484c0.104,0.73-0.282,1.662,0.876,1.654
	c1.158-0.007,1.007-0.951,1.062-1.688c0.063-0.813,0.007-1.683-1.082-1.642C142.307,43.851,143.154,45.05,142.706,45.484z"/>
<path fill-rule="evenodd" clip-rule="evenodd" fill="#99C45F" d="M29.963,40.837c-2.331,2.496-3.089,5.709-3.841,8.867
	c-0.489,2.055-1.324,3.938-2.151,5.848c-0.186,0.44-0.427,0.841-0.986,0.765c-0.435-0.055-0.704-0.393-0.814-0.765
	c-0.179-0.614-0.462-1.241-0.262-1.91c1.069-3.544,1.786-7.206,3.496-10.536c0.765-1.482,1.772-2.724,3.468-3.206
	C29.149,40.313,30.011,40.051,29.963,40.837z"/>
<path fill-rule="evenodd" clip-rule="evenodd" fill="#2F4031" d="M106.383,46.809c0.145,1.31,0.021,2.613-0.229,3.902
	c0.028,0.269,0.173,0.414,0.441,0.435c0.669,0.462,0.759,0.958,0.18,1.089c-0.683,0.152-1.42,0.117-2.131,0.097
	c-0.413-0.014-0.985,0.248-1.199-0.296c-0.228-0.607,0.289-0.752,0.703-1.097c0.876-0.731,0.11-1.986,0.586-2.924
	c0.055-0.165,0.117-0.324,0.173-0.489c-0.524-1.352,0.854-3.138-0.945-4.22c-0.075-0.049-0.021-0.565,0.124-0.689
	c0.896-0.752,1.973-0.241,2.965-0.345c0.635-0.069,0.966,0.228,1.193,0.944c0.518,1.565,0.807,3.241,1.771,4.675
	c0.772-0.228,0.552-1.09,0.966-1.545c0.455,0.166,0.917,0.331,1.379,0.49c-0.462,1.248-0.896,2.503-1.393,3.73
	c-0.29,0.724-0.228,1.91-1.372,1.82c-1.076-0.09-1.007-1.173-1.158-1.979c0.654-0.6,0.179-0.717-0.345-0.807
	c-0.387-0.924-0.772-1.848-1.159-2.771c-0.062-0.387,0.193-1.063-0.51-0.931C105.982,45.974,106.113,46.478,106.383,46.809z"/>
<path fill-rule="evenodd" clip-rule="evenodd" fill="#3B4B3B" d="M130.35,48.021c1.063,0.139,1.324-0.8,1.345-1.399
	c0.014-0.414-0.854-1.048,0.014-1.296c0.896-0.256,1.952-0.2,2.869,0c0.552,0.117,0.338,0.807-0.09,1.055
	c-1.883,1.104-1.379,2.413-0.538,3.923c0.304,0.538,1.262,1.297,0.241,2.007c-0.979,0.683-1.517-0.145-2.062-0.807
	c-0.744-0.903-1.331-2.131-1.841,0.282c-0.282,1.297-2.021,0.683-2.868,0.421c-1.014-0.304,0.158-0.89,0.269-1.372
	c0.511-2.31,0.807-4.896,0.027-6.937c-0.896-2.379,0.256-2,1.579-2.062c-0.007,1.6,0,3.206-0.021,4.806
	C129.268,47.415,129.309,48.091,130.35,48.021z"/>
<path fill-rule="evenodd" clip-rule="evenodd" fill="#394B3A" d="M87.234,52.345c0.82-1.517,0.827-2.931,0.759-4.357
	c-0.028-0.6-0.2-1.021-0.89-1.014c-0.683,0.007-0.945,0.414-0.855,1.021c0.159,1.048-0.406,2.165,0.462,3.179
	c0.394,0.462,0.228,1.151-0.661,1.165c-0.779,0.014-1.565,0.007-2.352,0.007c-0.883,0.007-1.069-0.469-0.607-1.096
	c1.173-1.6,0.952-3.207,0.083-4.785c-0.441-0.8-0.165-1.117,0.565-1.173c1.703-0.138,3.42-0.317,5.116-0.262
	c1.304,0.041,1.511,1.151,1.689,2.248c0.228,1.372-0.689,2.882,0.669,4.164c0.414,0.387-0.241,0.89-0.848,0.896
	C89.399,52.352,88.435,52.345,87.234,52.345z"/>
<path fill-rule="evenodd" clip-rule="evenodd" fill="#394B3A" d="M177.893,48.284c0.234,0.917-0.4,2.082,0.635,3.13
	c0.579,0.593-0.166,0.959-0.842,0.986c-1.559,0.055-3.103-0.283-4.695,0.014c-1.18,0.221-1.655-0.745-1.813-1.834
	c-0.214-1.489,0.51-3.131-0.759-4.461c-0.124-0.132-0.062-0.58,0.248-0.642c0.883-0.18,1.827-0.531,2.669-0.372
	c0.744,0.145,0.338,1.116,0.379,1.724c0.063,0.972,0.042,1.958,0.027,2.938c-0.007,0.634,0.448,0.786,0.896,0.786
	c0.441,0.007,0.689-0.353,0.635-0.808c-0.145-1.13,0.386-2.337-0.358-3.406c-0.635-0.917-0.083-1.068,0.703-1.165
	C177.872,44.919,177.913,44.96,177.893,48.284z"/>
<path fill-rule="evenodd" clip-rule="evenodd" fill="#394B3A" d="M161.399,48.773c0,2.199-1.565,3.695-3.861,3.703
	c-2.421,0.007-3.654-1.29-3.654-3.813c0-2.221,1.627-3.778,3.882-3.717C159.861,45.009,161.399,46.629,161.399,48.773z
	 M156.441,48.339c0.014,1.234-0.068,2.469,1.2,2.552c1.096,0.068,1.068-1.159,1.068-1.917c0-0.917,0.056-2.234-1.186-2.311
	C156.469,46.602,156.407,47.705,156.441,48.339z"/>
<path fill-rule="evenodd" clip-rule="evenodd" fill="#394B3A" d="M78.636,45.194c2.876,0.007,2.958,0.152,2.938,3.09
	c-0.007,0.896-0.145,1.765,0.435,2.751c0.696,1.192-0.579,1.551-1.482,1.379c-0.973-0.187-1.854-0.11-2.807,0.027
	c-1,0.145-2.027-0.048-2.262-1.296c-0.248-1.282,0.29-2.145,1.606-2.441c0.387-0.089,0.766-0.172,1.146-0.234
	c0.447-0.068,0.972-0.034,0.875-0.73c-0.104-0.766-0.647-0.414-1.055-0.4c-0.441,0.021-0.848,0.29-1.331,0.097
	c-0.627-0.262-0.924-0.662-0.834-1.352c0.069-0.62,0.352-0.931,1.014-0.896C77.457,45.223,78.05,45.194,78.636,45.194z"/>
<path fill-rule="evenodd" clip-rule="evenodd" fill="#3B4B3B" d="M112.36,46.836c-0.462-0.159-0.924-0.324-1.379-0.49
	c0.214-0.675,0.441-1.351,0.648-2.033c0.586-1.952,2.24-2.745,4.164-2.014c0.628,0.241,0.786,0.572,0.4,1.186
	c-1.048,1.648-0.883,5.882,0.234,7.688c0.379,0.6,0.407,1.124-0.511,1.172c-0.523,0.035-1.048,0.007-1.564,0.007
	c-2.104,0.007-2.104,0.007-1.331-1.758C113.381,49.78,112.96,47.395,112.36,46.836z"/>
<path fill-rule="evenodd" clip-rule="evenodd" fill="#3F5040" d="M192.586,50.29c-0.138-0.379-0.145-0.559-0.228-0.6
	c-1.165-0.683-1.992-1.593-1.44-3.007c0.627-1.6,2.089-1.73,3.578-1.724c1.165,0.014,1.676,0.511,1.414,1.683
	c-0.042,0.18-0.117,0.482-0.214,0.496c-1.304,0.214-0.883,0.587-0.249,1.263c0.932,0.999,1.166,2.172,0.042,3.247
	c-0.917,0.876-3.696,1.193-4.393,0.531c-0.462-0.435-0.262-0.959-0.151-1.462C191.159,49.725,191.91,50.276,192.586,50.29z"/>
<path fill-rule="evenodd" clip-rule="evenodd" fill="#3F5040" d="M61.557,49.814c-1.324-0.766-2.434-1.654-1.62-3.399
	c0.579-1.248,2.923-1.903,4.344-1.331c0.435,0.173,0.648,0.428,0.593,0.862c-0.062,0.462,0.27,1.124-0.482,1.282
	c-0.407,0.083-0.752,0.173-0.973,0.545c1.635,0.973,2.187,2.234,1.462,3.365c-0.793,1.241-3.709,1.917-4.758,1.103
	c-0.517-0.393-0.316-0.965-0.275-1.44c0.083-0.883,0.862-0.531,1.365-0.655c-0.048,0.545,0.165,0.869,0.752,0.848
	c0.262,0,0.537-0.068,0.53-0.399C62.487,49.98,61.957,49.966,61.557,49.814z"/>
<path fill-rule="evenodd" clip-rule="evenodd" fill="#3B4B3B" d="M57.157,48.925c-0.813-0.007-1.965-0.455-1.958,0.565
	s1.145,1.234,2.131,1.104c0.455-0.063,1.014-0.6,1.31,0.18c0.187,0.482-0.165,0.868-0.53,1.158
	c-1.166,0.896-3.572,0.724-4.751-0.317c-1.159-1.027-1.462-3.124-0.683-4.71c0.765-1.564,2.344-2.233,4.082-1.813
	c1.641,0.393,2.137,1.537,2.075,3.04C58.771,49.504,57.647,48.656,57.157,48.925z M56.612,47.25
	c-0.021-0.511-0.358-0.801-0.848-0.849c-0.49-0.048-0.669,0.352-0.724,0.745c-0.069,0.42,0.055,0.778,0.579,0.807
	C56.116,47.98,56.537,47.891,56.612,47.25z"/>
<path fill-rule="evenodd" clip-rule="evenodd" fill="#3F5040" d="M147.319,46.009c0.014-0.256,0.027-0.511,0.041-0.772
	c1.545,0.262,3.089-0.304,4.668-0.014c0.49,0.089,1.2-0.524,1.255,0.455c0.035,0.661,0.483,1.544-0.71,1.916
	c-1.572,0.483-1.917,2.069-0.876,3.496c0.648,0.89,0.552,1.138-0.51,1.255c-0.455,0.049-0.917,0.042-1.372,0.007
	c-1.104-0.075-2.875,0.704-1.428-1.834C149.002,49.442,149.554,47.057,147.319,46.009z"/>
<path fill-rule="evenodd" clip-rule="evenodd" fill="#334535" d="M125.454,46.677c0.373,1.372-0.669,3.2,0.697,4.758
	c0.296,0.338,0.145,0.903-0.538,0.903c-0.979,0-1.958,0.035-2.931-0.021c-0.683-0.041-0.635-0.517-0.414-0.979
	c1.297-2.73,1.042-5.481,0.11-8.239c-0.104-0.317-0.296-0.766,0.021-0.869c0.785-0.262,1.62-0.393,2.44-0.51
	c0.552-0.083,0.613,0.358,0.613,0.766C125.454,43.788,125.454,45.092,125.454,46.677z"/>
<path fill-rule="evenodd" clip-rule="evenodd" fill="#3C4D3D" d="M179.03,48.994c-0.034-2.648,1.737-4.282,4.344-4.014
	c0.689,0.076,1.255,0.132,1.158,1.117c-0.089,0.828-0.269,1.207-1.186,0.952c-1.145-0.311-1.523,0.338-1.559,1.365
	c-0.034,1.075,0.131,1.938,1.476,2.068c0.469,0.048,1.29-0.552,1.394,0.455c0.089,0.896-0.676,1.228-1.338,1.448
	C181.064,53.138,179.064,51.524,179.03,48.994z"/>
<path fill-rule="evenodd" clip-rule="evenodd" fill="#3C4D3D" d="M68.307,52.497c-1.393-0.069-2.096-0.614-2.213-2.027
	c-0.124-1.421,0.379-2.834-0.496-4.316c-0.435-0.738,1.096-1.559,1.938-2.11c0.523-0.352,1.089-0.317,1.131,0.621
	c0.034,0.647,0.717,0.372,1.068,0.579c0.496,0.289,1.034,0.703,0.124,1.255c-1.62,0.972-1.593,3.13,0.041,4.068
	c0.518,0.296,0.545,0.654,0.2,1.117C69.617,52.331,68.928,52.448,68.307,52.497z"/>
<path fill-rule="evenodd" clip-rule="evenodd" fill="#2F4031" d="M71.748,44.878c-0.049-0.387-0.097-0.772-0.146-1.159
	c-0.062-0.565-1.434-0.861-0.517-1.503c0.627-0.441,1.613-0.462,2.447-0.469c0.8-0.007,0.531,0.752,0.538,1.207
	c0.027,2.096,0.014,4.185,0.007,6.274c0,0.393-0.138,0.861,0.027,1.165c1.255,2.331-0.469,1.931-1.744,1.944
	c-1.241,0.014-2.345,0.27-0.979-1.654c0.69-0.973,0.221-2.786,0.276-4.213c0.51-0.035,1.055-0.014,1.089-0.752
	C72.775,45.002,72.307,44.898,71.748,44.878z"/>
<path fill-rule="evenodd" clip-rule="evenodd" fill="#334535" d="M185.795,49.649c-0.263-1.146,0.985-2.379-0.359-3.579
	c-0.275-0.248,0.559-1.71,1.869-1.627c0.938,0.062,1.482,0.89,2.44,1c0.572,0.068,0.159,0.703-0.214,0.985
	c-1.523,1.145-1.393,3.165,0.207,4.22c0.738,0.49,0.207,1.069-0.234,1.352c-0.854,0.545-1.882,0.752-2.785,0.241
	C185.76,51.704,185.739,50.648,185.795,49.649z"/>
<path fill-rule="evenodd" clip-rule="evenodd" fill="#98C35B" d="M21.123,50.4c-1.248-3.875-1.696-7.895-5.454-10.501
	c2.875-0.476,4.406,1.11,5.654,2.758C23.15,45.057,22.716,47.636,21.123,50.4z"/>
<path fill-rule="evenodd" clip-rule="evenodd" fill="#3F5040" d="M120.572,48.366c0.242,0.89-0.593,2.193,0.731,2.993
	c0.041,0.027,0.062,0.11,0.076,0.172c0.075,0.358,0,0.731-0.38,0.759c-1.221,0.068-2.476,0.289-3.647-0.131
	c-0.311-0.117-0.158-0.662,0.069-1.021c0.972-1.524,0.944-3.124,0.068-4.634c-0.469-0.807-0.192-0.958,0.497-1.172
	c2.275-0.704,2.578-0.49,2.585,1.902C120.572,47.56,120.572,47.884,120.572,48.366z"/>
<path fill-rule="evenodd" clip-rule="evenodd" fill="#98C35B" d="M30.376,42.871c-0.166-0.91,0.952-1.11,1.041-1.876
	c0.855-0.021,2.2-1.041,2.069,0.993c-0.579,0.931-0.552,2.179-1.517,2.91c-0.124,0.145-0.248,0.296-0.365,0.441
	c0.151,0.476-0.172,0.779-0.4,1.124c-1.296,0.586-0.931,1.454-0.407,2.357c0.131,0.497-0.331,0.772-0.441,1.187
	c-0.565,0.097-0.58,1.048-1.538,0.861c0-1.476,0-2.958,0-4.44c0.145-0.51,0.29-1.021,0.434-1.537
	C30.887,44.919,30.28,43.698,30.376,42.871z"/>
<path fill-rule="evenodd" clip-rule="evenodd" fill="#99C45F" d="M28.818,46.429c0,1.482,0,2.965,0,4.44
	c0.958,0.187,0.972-0.765,1.538-0.861c0.055,2.021-0.752,3.778-1.724,5.481c-0.434,0.779-0.862,0.737-1.2-0.041
	c-0.476-1.11-1.048-2.158-0.482-3.503C27.701,50.159,28.205,48.277,28.818,46.429z"/>
<path fill-rule="evenodd" clip-rule="evenodd" fill="#B4CD86" d="M96.336,59.233c-1.703-0.007-3.44,0.689-5.103-0.221
	c1.165-1.234,1.165-1.234-0.007-2.73c1.399-0.717,2.552-0.717,3.041,1.138c0.834-0.476,0.482-1.193,0.496-1.766
	c0.021-0.6-0.104-1.248,0.766-1.248c0.903,0.008,0.717,0.738,0.752,1.29c0.027,0.586,0.034,1.165,0.048,1.751
	c-0.145,0.407-0.552,0.813,0,1.221C96.329,58.854,96.336,59.04,96.336,59.233z"/>
<path fill-rule="evenodd" clip-rule="evenodd" fill="#ADC77E" d="M96.336,59.233c0-0.193-0.007-0.379-0.007-0.565
	c0.311-0.311,0.593-0.648,0.924-0.924c1.014-0.855-0.083-0.6-0.386-0.766c-0.27-1.021,0.435-1.055,1.096-1.021
	c0.883,0.056,1.759,0.193,2.642,0.297c0.53-0.021,1.103,0.158,1.571-0.255c0.538-0.125,1.028-0.125,1.29,0.482
	c-0.221,0.758,0.207,1.661-0.441,2.406c-0.545-0.4-0.352-0.903-0.462-1.317c-0.076-0.316-0.173-0.683-0.593-0.634
	c-0.4,0.055-0.511,0.399-0.4,0.737c0.193,0.572,0.234,1.165-0.51,1.131c-0.601-0.027-0.345-0.724-0.421-1.138
	c-0.063-0.296,0.041-0.676-0.448-0.786c-0.931,0.601-0.669,1.572-0.737,2.441C98.411,59.413,97.363,59.558,96.336,59.233z"/>
<path fill-rule="evenodd" clip-rule="evenodd" fill="#ADC77E" d="M85.669,58.261c0.676-0.241,1.421-0.241,1.793-1.131
	c0.586-1.406,1.696-1.544,2.958-0.841c0.648,1.007-1.476,1.73-0.282,2.793c-2.131,0.014-4.262,0.724-6.379-0.063
	C84.524,59.103,85.207,58.972,85.669,58.261z"/>
<path fill-rule="evenodd" clip-rule="evenodd" fill="#ADC77E" d="M61.591,59.13c-0.062,0.034-0.131,0.11-0.165,0.097
	c-0.966-0.338-2.462,0.744-2.82-0.18c-0.441-1.158-0.09-2.661,0.069-3.999c0.103-0.862,1.055-0.862,1.192-0.296
	c0.29,1.165,1.221,1.123,1.944,1.51C61.219,57.179,61.281,58.144,61.591,59.13z"/>
<path fill-rule="evenodd" clip-rule="evenodd" fill="#A1C571" d="M24.784,58.31l0.048,0.041c-1.151-1.089-0.255-1.848,0.441-2.613
	c0.262-0.282,0.683-0.311,0.821,0.027c0.662,1.683,2.53,2.173,3.585,3.696C27.701,60.22,26.329,58.875,24.784,58.31z"/>
<path fill-rule="evenodd" clip-rule="evenodd" fill="#A1C571" d="M49.325,56.007c0.503,0.041,1.068-0.221,1.461,0.31
	c-0.007,0.069-0.014,0.146-0.014,0.214c-0.807,0.552-0.875,1.138-0.09,1.772c0.063,0.441,0.021,1.186-0.455,0.938
	c-0.938-0.482-1.675,0.255-2.496,0.11c-0.034-1.165-0.069-2.331-0.103-3.496c0.166-0.455-0.642-1.199,0.303-1.393
	c1.104-0.221,0.91,0.724,1.027,1.352c0,0.304,0,0.613,0,0.917C49.387,56.641,49.235,56.262,49.325,56.007z"/>
<path fill-rule="evenodd" clip-rule="evenodd" fill="#B4CD86" d="M46.842,58.951c-1.11,0.902-2.351,0.262-3.537,0.303
	c-0.035-0.724-0.793-1.448-0.007-2.179c0.642-0.331,1.124-1,1.965-0.862C47.394,56.199,46.904,57.703,46.842,58.951z"/>
<path fill-rule="evenodd" clip-rule="evenodd" fill="#B4CD86" d="M73.195,55.841c0.903,0.027,1.8,0.063,2.696,0.09
	c0.297,0.496,0.896,0.827,0.82,1.523c-0.221,2.717-1.951,1.979-3.544,1.552C73.175,57.951,73.188,56.896,73.195,55.841z"/>
<path fill-rule="evenodd" clip-rule="evenodd" fill="#A1C571" d="M85.669,58.261c-0.462,0.711-1.145,0.842-1.91,0.759
	c-0.014-1.048,0.855-2.062,0.083-3.165c-0.172-0.234-0.027-0.703,0.372-0.744c0.828-0.083,1.71-0.331,2.469,0.097
	c0.489,0.282,0.193,0.758-0.048,1.172C86.276,56.985,85.986,57.634,85.669,58.261z"/>
<path fill-rule="evenodd" clip-rule="evenodd" fill="#A1C571" d="M104.583,59.288c-0.283-0.813-0.518-1.634-0.38-2.51
	c0.407-0.289,0.821-0.559,1.207-0.861c0.421-0.338,0.083-1.524,1.131-1.138c0.841,0.311,0.248,1.124,0.379,1.689
	c0.069,0.31,0.035,0.641,0.049,0.958c-0.518,0.565-1.297,0.958-1.248,1.903C105.341,59.316,104.962,59.303,104.583,59.288z"/>
<path fill-rule="evenodd" clip-rule="evenodd" fill="#A1C571" d="M73.195,55.841c-0.007,1.055-0.021,2.11-0.027,3.165
	c-1.771,0.938-1.399-1.296-2.344-1.579c-0.008-0.358-0.015-0.717-0.021-1.075c0.18-0.173,0.359-0.345,0.538-0.518
	c0.731,0.138,0.669-0.627,1.027-0.91c0.283-0.221,0.6-0.262,0.876-0.076C73.72,55.172,73.258,55.51,73.195,55.841z"/>
<path fill-rule="evenodd" clip-rule="evenodd" fill="#A1C571" d="M33.486,41.988c0.131-2.034-1.214-1.014-2.069-0.993
	c-0.407-0.8-0.944-0.316-1.455-0.151c0.048-0.793-0.814-0.531-1.09-0.944c0.262-0.49,0.883-0.655,1.172-0.441
	c1.965,1.441,3.875-0.18,6.109-0.09C35.093,40.32,34.617,41.457,33.486,41.988z"/>
<path fill-rule="evenodd" clip-rule="evenodd" fill="#2F4031" d="M130.35,48.021c-1.041,0.069-1.082-0.606-1.075-1.379
	c0.021-1.6,0.014-3.206,0.021-4.806c0.876-0.317,1.166,0.034,1.138,0.91C130.378,44.505,130.378,46.264,130.35,48.021z"/>
<path fill-rule="evenodd" clip-rule="evenodd" fill="#A1C571" d="M62.963,56.627c0.579-0.262,1.193-0.683,1.738,0.007
	c0.565,0.717,0.489,1.655,0.345,2.406c-0.132,0.662-1.021,0.18-1.559,0.317c-0.462,0.117-0.883-0.117-1.275-0.365
	C61.922,58.033,63.073,57.53,62.963,56.627z"/>
<path fill-rule="evenodd" clip-rule="evenodd" fill="#B4CD86" d="M56.281,57.089c-0.027-0.124-0.117-0.275-0.075-0.372
	c0.296-0.752-0.441-2.158,0.766-2.186c1.013-0.021,0.345,1.255,0.523,1.931c0.146,0.558,0.214,1.13,0.297,1.703
	c0.117,0.744-0.027,1.248-0.966,1.233c-1.055-0.021-0.676-0.593-0.565-1.151C56.337,57.875,56.274,57.475,56.281,57.089z"/>
<path fill-rule="evenodd" clip-rule="evenodd" fill="#3F5040" d="M120.58,42.968c-0.111,0.82-0.463,1.316-1.276,1.234
	c-0.779-0.076-1.42-0.4-1.358-1.324c0.063-0.91,0.696-1.145,1.511-1.124C120.317,41.781,120.504,42.36,120.58,42.968z"/>
<path fill-rule="evenodd" clip-rule="evenodd" fill="#B4CD86" d="M50.772,56.53c0-0.068,0.007-0.145,0.014-0.214
	c1.455-0.848,2.234-0.441,2.324,1.248c0.028,0.435-0.083,0.938,0.531,1.09c0.117,0.193,0.234,0.386,0.352,0.579
	c-0.807,0.055-1.607,0.11-2.517,0.18c-0.041-0.793,0.766-1.248,0.49-1.945C52.021,56.579,51.311,56.668,50.772,56.53z"/>
<path fill-rule="evenodd" clip-rule="evenodd" fill="#98C35B" d="M71.341,55.834c-0.179,0.173-0.358,0.345-0.538,0.518
	c-0.482,0.221-0.379,0.668-0.386,1.068c-0.021,0.407-0.041,0.813-0.063,1.221c-0.241,0.207-0.482,0.413-0.724,0.62
	c-0.503,0.014-0.703-0.207-0.586-0.71c0.151-0.683,0.338-1.372,0.428-2.068c0.075-0.572-0.518-1.379,0.365-1.648
	C70.568,54.606,70.858,55.455,71.341,55.834z"/>
<path fill-rule="evenodd" clip-rule="evenodd" fill="#ADC77E" d="M80.863,56.109c1.931,0.531,0.482,1.552,0.269,2.304
	c-0.413,1.469-1.269,0.73-2.027,0.289c-0.145-0.427-0.282-0.848-0.427-1.269c0.551,0.187,0.689-0.779,1.482-0.372
	C81.118,57.558,80.877,56.634,80.863,56.109z"/>
<path fill-rule="evenodd" clip-rule="evenodd" fill="#98C35B" d="M53.993,59.233c-0.117-0.193-0.234-0.386-0.352-0.579
	c-0.007-0.4-0.014-0.8-0.014-1.2c0.421-0.435,0.255-1.007,0.352-1.517c0.159-0.269,0.386-0.386,0.704-0.304
	c0.069,0.373,0.027,0.779,0.414,1.027c0.014,0.518-0.11,1.09,0.069,1.538C55.778,59.758,54.73,59.295,53.993,59.233z"/>
<path fill-rule="evenodd" clip-rule="evenodd" fill="#99C45F" d="M39.326,58.544c-0.007-1.021-0.007-2.034-0.014-3.055
	c0.738-0.151,0.924,0.648,1.455,0.848c0.076,0.042,0.124,0.097,0.159,0.173c0.021,0.827,0.034,1.662,0.055,2.489v0.007
	C40.388,58.985,39.747,59.164,39.326,58.544z"/>
<path fill-rule="evenodd" clip-rule="evenodd" fill="#99C45F" d="M43.298,57.075c-0.786,0.73-0.027,1.455,0.007,2.179
	c-0.366,0.007-0.731,0.021-1.09,0.034c-0.228-1.489-0.241-2.972,0-4.461c0.235,0,0.469,0,0.704,0
	c0.041,0.38-0.007,0.786,0.365,1.055C43.291,56.282,43.298,56.675,43.298,57.075z"/>
<path fill-rule="evenodd" clip-rule="evenodd" fill="#99C45F" d="M78.678,57.434c0.145,0.421,0.282,0.842,0.427,1.269
	c-1.158,0.849-1.186,0.828-1.951-1.303c0.021-0.462,0.049-0.917,0.069-1.372c0.317-0.007,0.634-0.021,0.944-0.035
	C78.408,56.447,78.153,57.075,78.678,57.434z"/>
<path fill-rule="evenodd" clip-rule="evenodd" fill="#B4CD86" d="M42.215,54.827c-0.241,1.489-0.228,2.972,0,4.461
	c-0.489,0.235-0.834-0.151-1.234-0.289c-0.021-0.827-0.035-1.662-0.055-2.489C41.822,56.31,40.926,54.73,42.215,54.827z"/>
<path fill-rule="evenodd" clip-rule="evenodd" fill="#B4CD86" d="M105.721,59.33c-0.049-0.945,0.73-1.338,1.248-1.903
	c0.91,0.29,0.793,1.097,0.53,1.6C107.147,59.723,106.348,59.337,105.721,59.33z"/>
<path fill-rule="evenodd" clip-rule="evenodd" fill="#B4CD86" d="M40.768,56.337c-0.531-0.199-0.717-0.999-1.455-0.848
	c-0.462-1.192,0.545-0.724,0.903-0.696C41.395,54.896,40.905,55.703,40.768,56.337z"/>
<path fill-rule="evenodd" clip-rule="evenodd" fill="#3F5040" d="M71.748,44.878c0.559,0.021,1.027,0.124,0.999,0.841
	c-0.034,0.738-0.579,0.717-1.089,0.752C71.686,45.939,71.72,45.408,71.748,44.878z"/>
<path fill-rule="evenodd" clip-rule="evenodd" fill="#99C45F" d="M30.797,48.821c-0.524-0.903-0.889-1.771,0.407-2.357
	C31.494,47.318,30.928,48.028,30.797,48.821z"/>
<path fill-rule="evenodd" clip-rule="evenodd" fill="#99C45F" d="M30.376,42.871c-0.097,0.827,0.51,2.048-1.124,2.021
	C29.473,44.133,29.68,43.367,30.376,42.871z"/>
<path fill-rule="evenodd" clip-rule="evenodd" fill="#D6E2B6" d="M77.223,56.027c-0.021,0.455-0.049,0.91-0.069,1.372
	c-0.145,0.021-0.296,0.034-0.441,0.055c0.076-0.696-0.523-1.027-0.82-1.523C76.34,55.965,76.781,55.992,77.223,56.027z"/>
<path fill-rule="evenodd" clip-rule="evenodd" fill="#3F5040" d="M106.383,46.809c-0.27-0.331-0.4-0.835,0.041-0.91
	c0.703-0.132,0.448,0.544,0.51,0.931C106.748,46.822,106.562,46.815,106.383,46.809z"/>
<path fill-rule="evenodd" clip-rule="evenodd" fill="#B4CD86" d="M39.326,58.544c0.421,0.62,1.062,0.441,1.655,0.462
	c-0.448,0.669-1.083,0.482-1.634,0.282C38.961,59.15,39.133,58.799,39.326,58.544z"/>
<path fill-rule="evenodd" clip-rule="evenodd" fill="#B4CD86" d="M55.096,56.661c-0.386-0.248-0.345-0.654-0.414-1.027
	C55.248,55.8,55.689,56.021,55.096,56.661z"/>
<path fill-rule="evenodd" clip-rule="evenodd" fill="#B4CD86" d="M43.284,55.882c-0.372-0.269-0.324-0.675-0.365-1.055
	C44.194,54.779,43.505,55.413,43.284,55.882z"/>
<path fill-rule="evenodd" clip-rule="evenodd" fill="#B4CD86" d="M69.631,59.261c0.241-0.207,0.482-0.413,0.724-0.62
	c0.249,0.138,0.414,0.42,0.173,0.572C70.3,59.351,69.935,59.254,69.631,59.261z"/>
<path fill-rule="evenodd" clip-rule="evenodd" fill="#B4CD86" d="M102.176,56c-0.469,0.413-1.041,0.234-1.571,0.255
	C101.06,55.737,101.625,55.924,102.176,56z"/>
<path fill-rule="evenodd" clip-rule="evenodd" fill="#3C4D3D" d="M108.093,49.601c0.523,0.09,0.999,0.207,0.345,0.807
	C108.161,50.207,108.003,49.959,108.093,49.601z"/>
<path fill-rule="evenodd" clip-rule="evenodd" fill="#B4CD86" d="M53.979,55.938c-0.096,0.51,0.069,1.082-0.352,1.517
	C53.586,56.91,53.275,56.303,53.979,55.938z"/>
<path fill-rule="evenodd" clip-rule="evenodd" fill="#D6E2B6" d="M49.325,56.007c-0.09,0.255,0.062,0.634-0.366,0.724
	c0-0.304,0-0.613,0-0.917C49.083,55.875,49.207,55.944,49.325,56.007z"/>
<path fill-rule="evenodd" clip-rule="evenodd" fill="#B4CD86" d="M70.417,57.42c0.007-0.4-0.097-0.848,0.386-1.068
	c0.007,0.358,0.014,0.717,0.021,1.075C70.692,57.42,70.555,57.42,70.417,57.42z"/>
<path fill-rule="evenodd" clip-rule="evenodd" fill="#3F5040" d="M106.596,51.146c-0.269-0.021-0.413-0.166-0.441-0.435
	C106.307,50.855,106.451,51,106.596,51.146z"/>
<path fill-rule="evenodd" clip-rule="evenodd" fill="#A1C571" d="M31.604,45.34c0.117-0.146,0.241-0.297,0.365-0.441
	C31.845,45.043,31.721,45.194,31.604,45.34z"/>
<path fill-rule="evenodd" clip-rule="evenodd" fill="#3F5040" d="M104.907,47.525c-0.056,0.165-0.118,0.324-0.173,0.489
	C104.789,47.85,104.852,47.69,104.907,47.525z"/>
<path fill-rule="evenodd" clip-rule="evenodd" fill="#D5DED1" d="M96.191,48.429c-0.09,0.89,0.365,2.131-0.973,2.172
	c-0.944,0.027-0.972-1-0.979-1.786c-0.007-0.938,0.096-2.048,1.186-2.109C96.701,46.636,95.95,47.863,96.191,48.429z"/>
</svg>
