<?xml version="1.0" encoding="utf-8"?>
<!-- Generator: Adobe Illustrator 16.0.2, SVG Export Plug-In . SVG Version: 6.00 Build 0)  -->
<!DOCTYPE svg PUBLIC "-//W3C//DTD SVG 1.1//EN" "http://www.w3.org/Graphics/SVG/1.1/DTD/svg11.dtd">
<svg version="1.1" id="Layer_1" xmlns="http://www.w3.org/2000/svg" xmlns:xlink="http://www.w3.org/1999/xlink" x="0px" y="0px"
	 width="208.833px" height="100px" viewBox="0 0 208.833 100" enable-background="new 0 0 208.833 100" xml:space="preserve">
<rect x="2.414" y="2.383" fill="#FFFFFF" stroke="#B3B3B3" stroke-miterlimit="10" width="203.833" height="95.617"/>
<path display="none" fill-rule="evenodd" clip-rule="evenodd" fill="#EC262F" d="M49.796,42.539c1.172,0.127,3.026-0.62,3.937,0.272
	c0.915,0.896,0.233,2.754,0.289,4.19c0.049,1.282-0.03,2.57,0.025,3.852c0.036,0.853-0.217,1.191-1.125,1.172
	c-2.343-0.055-4.689-0.055-7.033-0.004c-0.918,0.021-1.299-0.222-1.273-1.211c0.06-2.399,0.042-4.802,0.008-7.204
	c-0.012-0.784,0.246-1.106,1.057-1.076C46.964,42.576,48.249,42.539,49.796,42.539z"/>
<path display="none" fill-rule="evenodd" clip-rule="evenodd" fill="#A42588" d="M54.102,59.987
	c-0.19,1.263,0.698,3.242-0.362,4.231c-0.956,0.893-2.882,0.255-4.376,0.251c-1.494,0-3.424,0.645-4.372-0.257
	c-1.042-0.998-0.26-2.967-0.346-4.509c-0.067-1.226,0.01-2.457-0.021-3.685c-0.019-0.712,0.257-0.999,0.978-0.994
	c2.513,0.024,5.026,0.024,7.539,0c0.728-0.005,0.985,0.3,0.968,1.005C54.08,57.258,54.102,58.485,54.102,59.987z"/>
<path display="none" fill-rule="evenodd" clip-rule="evenodd" fill="#1DA4C9" d="M36.559,64.495
	c-1.231-0.118-3.17,0.637-4.107-0.276c-1.018-0.993-0.291-2.962-0.319-4.503c-0.027-1.492-0.643-3.425,0.25-4.364
	c0.912-0.963,2.863-0.241,4.356-0.309c1.171-0.05,2.35,0.058,3.516-0.029c1.075-0.081,1.323,0.348,1.293,1.349
	c-0.067,2.23-0.091,4.468,0.005,6.695c0.052,1.242-0.438,1.537-1.554,1.453C38.947,64.431,37.88,64.495,36.559,64.495z"/>
<path display="none" fill-rule="evenodd" clip-rule="evenodd" fill="#A8A9AC" d="M62.164,55.119c1.209,0.129,3.11-0.637,4.094,0.297
	c1.002,0.946,0.313,2.864,0.327,4.354c0.048,4.758,0.018,4.758-4.823,4.758c-0.391,0-0.782,0-1.174,0
	c-3.684,0-3.796-0.07-3.565-3.785c0.094-1.506,0.297-2.988,0.001-4.494c-0.146-0.735,0.16-1.162,0.999-1.138
	C59.309,55.146,60.595,55.119,62.164,55.119z"/>
<path display="none" fill-rule="evenodd" clip-rule="evenodd" fill="#F18423" d="M29.063,59.867c0,1.172-0.046,2.346,0.016,3.516
	c0.047,0.906-0.333,1.142-1.178,1.124c-2.342-0.039-4.688-0.033-7.031-0.004c-0.809,0.015-1.231-0.16-1.209-1.099
	c0.052-2.4,0.036-4.802,0.004-7.2c-0.009-0.759,0.195-1.114,1.027-1.101c2.455,0.036,4.909,0.04,7.361-0.003
	c0.832-0.015,1.05,0.317,1.023,1.083C29.031,57.411,29.063,58.64,29.063,59.867z"/>
<path display="none" fill-rule="evenodd" clip-rule="evenodd" fill="#129048" d="M41.385,47.2c0,1.495,0.584,3.481-0.153,4.36
	c-0.866,1.036-2.918,0.298-4.453,0.323c-1.49,0.022-3.422,0.646-4.358-0.26c-0.941-0.916-0.259-2.857-0.29-4.345
	c-0.032-1.5-0.509-3.485,0.248-4.369c0.891-1.043,2.941-0.264,4.484-0.34c1.224-0.064,2.454,0.013,3.68-0.024
	c0.72-0.021,0.991,0.245,0.965,0.97c-0.043,1.228-0.012,2.457-0.012,3.685C41.458,47.2,41.422,47.2,41.385,47.2z"/>
<path display="none" fill-rule="evenodd" clip-rule="evenodd" fill="#A8A9AC" d="M24.414,42.664c1.005,0,2.017,0.066,3.015-0.017
	c1.195-0.104,1.721,0.218,1.654,1.545c-0.108,2.117-0.073,4.248-0.01,6.368c0.03,1.03-0.335,1.366-1.351,1.34
	c-2.232-0.059-4.469-0.052-6.703-0.005c-0.963,0.023-1.428-0.211-1.396-1.294c0.065-2.231,0.054-4.47,0.003-6.704
	c-0.021-0.953,0.329-1.292,1.268-1.249C22.065,42.707,23.239,42.664,24.414,42.664z"/>
<g>
	<path display="none" fill-rule="evenodd" clip-rule="evenodd" fill="#FFFFFF" d="M177.714,33.275c0,17.206,0,34.412,0,51.617
		c-45.612,0-91.225,0-136.837,0c0-0.02,0-0.039,0-0.06c0.303-0.038,0.606-0.071,0.907-0.113c1.92-0.275,3.651-0.986,5.173-2.202
		c1.187-0.947,1.92-2.164,2.249-3.638c0.227-1.015,0.279-2.047,0.281-3.08c0.008-4.871,0.005-9.742,0.007-14.613
		c0-0.01,0-0.02,0-0.029c-0.005-0.229-0.005-0.232-0.223-0.233c-1.555-0.001-3.11-0.001-4.665,0c-0.232,0-0.235,0.004-0.235,0.25
		c-0.001,0.453,0.001,0.906-0.002,1.358c0,0.061,0.039,0.139-0.059,0.187c-0.065-0.069-0.131-0.141-0.199-0.211
		c-0.075-0.077-0.151-0.155-0.228-0.23c-0.951-0.95-2.084-1.564-3.4-1.844c-1.338-0.284-2.679-0.285-4.011,0.015
		c-2.374,0.536-4.185,1.846-5.357,3.996c-0.582,1.068-0.893,2.221-1.009,3.428c-0.032,0.004-0.064,0.008-0.096,0.012
		c0-18.761,0-37.521,0-56.282c41.833,0,83.666,0,125.499,0c0,0.018-0.001,0.036-0.002,0.054c-1.109,0.092-2.21,0.235-3.292,0.494
		c-4.291,1.025-7.923,3.169-10.847,6.473c-3.234,3.654-4.952,7.941-5.213,12.808c-0.085,1.597,0.031,3.185,0.327,4.758
		c0.755,4.013,2.518,7.521,5.333,10.472c3.855,4.042,8.602,6.194,14.177,6.498c1.806,0.099,3.598-0.062,5.363-0.458
		c4.687-1.053,8.581-3.423,11.626-7.131c2.926-3.564,4.499-7.668,4.683-12.29C177.682,33.279,177.698,33.277,177.714,33.275z
		 M112.083,76.339c0.021-0.008,0.04-0.018,0.061-0.027c0.073,0.073,0.149,0.146,0.223,0.219c0.995,1.017,2.178,1.709,3.568,2.024
		c1.188,0.27,2.383,0.277,3.572,0.019c3.06-0.663,5.188-2.429,6.293-5.379c0.418-1.116,0.588-2.282,0.621-3.47
		c0.042-1.498-0.137-2.967-0.683-4.372c-0.893-2.3-2.476-3.894-4.847-4.651c-1.334-0.427-2.703-0.49-4.087-0.324
		c-1.766,0.21-3.278,0.927-4.48,2.26c-0.063,0.069-0.127,0.137-0.242,0.262c0-0.182,0-0.286,0-0.39
		c0.001-2.353,0.002-4.705,0.002-7.057c0-0.236-0.007-0.473,0.003-0.709c0.007-0.155-0.052-0.201-0.204-0.201
		c-1.575,0.005-3.149,0.005-4.725,0c-0.146,0-0.223,0.035-0.205,0.195c0.008,0.068,0.002,0.138,0.002,0.207c0,3.71,0,7.421,0,11.131
		c0.001,3.868,0.001,7.735,0.002,11.604c0,0.338-0.03,0.306,0.295,0.306c1.516,0.001,3.031,0.001,4.547,0
		c0.282,0,0.283-0.001,0.283-0.291C112.083,77.242,112.083,76.791,112.083,76.339z M63.635,64.791
		c0.026,0.024,0.039,0.043,0.055,0.051c0.315,0.139,0.63,0.276,0.946,0.412c0.307,0.133,0.245,0.149,0.458-0.103
		c0.659-0.776,1.425-1.418,2.381-1.791c1.624-0.633,3.287-0.708,4.945-0.184c2.109,0.666,2.926,2.175,2.911,4.475
		c-0.365-0.091-0.725-0.179-1.085-0.27c-2.083-0.526-4.178-0.615-6.283-0.148c-1.293,0.287-2.486,0.795-3.521,1.645
		c-2.193,1.797-2.428,4.753-1.28,6.721c0.735,1.261,1.85,2.043,3.213,2.493c1.275,0.421,2.585,0.467,3.909,0.314
		c1.811-0.207,3.412-0.891,4.79-2.089c0.078-0.067,0.146-0.153,0.285-0.207c0,0.11,0,0.195,0,0.28c0,0.462-0.001,0.925,0.001,1.388
		c0.001,0.201,0.005,0.201,0.215,0.206c0.029,0.001,0.059,0,0.089,0c1.437,0,2.874,0,4.31,0c0.06,0,0.119-0.001,0.178,0
		c0.084,0.004,0.127-0.031,0.125-0.119c-0.002-0.049,0-0.099,0-0.148c0-3.503-0.002-7.007-0.002-10.51
		c0-0.642-0.054-1.278-0.186-1.906c-0.338-1.616-1.202-2.863-2.62-3.72c-0.619-0.373-1.281-0.648-1.976-0.839
		c-2.134-0.586-4.294-0.645-6.458-0.222C66.517,61.014,64.693,62.42,63.635,64.791z M151.668,76.116c0,0.071,0,0.111,0,0.15
		c0,0.511,0.004,1.023-0.003,1.535c-0.002,0.141,0.043,0.2,0.186,0.184c0.048-0.005,0.098-0.001,0.146-0.001
		c1.428,0,2.854,0.001,4.281,0c0.338,0,0.311,0.041,0.311-0.32c0.001-3.276,0.002-6.554-0.001-9.83c0-0.609,0.001-1.22-0.072-1.827
		c-0.139-1.156-0.503-2.221-1.245-3.137c-0.734-0.905-1.687-1.492-2.765-1.895c-1.04-0.388-2.117-0.59-3.223-0.67
		c-1.479-0.108-2.949-0.051-4.395,0.316c-1.321,0.335-2.5,0.934-3.462,1.922c-0.597,0.613-1.043,1.327-1.432,2.082
		c-0.029,0.056-0.093,0.109-0.044,0.203c0.303,0.131,0.616,0.27,0.934,0.403c0.386,0.164,0.276,0.186,0.55-0.129
		c0.736-0.847,1.604-1.506,2.676-1.87c1.198-0.406,2.428-0.476,3.671-0.289c0.705,0.105,1.377,0.323,1.991,0.697
		c0.75,0.458,1.281,1.092,1.567,1.929c0.222,0.648,0.29,1.321,0.321,2.001c0,0.027-0.007,0.059-0.067,0.071
		c-0.024-0.005-0.072-0.016-0.118-0.028c-1.104-0.285-2.21-0.557-3.355-0.638c-1.414-0.102-2.812-0.015-4.187,0.339
		c-1.175,0.304-2.26,0.795-3.201,1.576c-1.897,1.574-2.49,4.267-1.403,6.441c0.649,1.297,1.709,2.135,3.043,2.647
		c1.149,0.442,2.345,0.554,3.567,0.485c2.051-0.115,3.877-0.791,5.438-2.142C151.457,76.256,151.524,76.167,151.668,76.116z
		 M89.783,63.134c0-0.096,0-0.19,0-0.285c0-0.531,0.002-1.063,0-1.596c0-0.261-0.001-0.262-0.25-0.264
		c-0.039-0.001-0.078-0.001-0.118-0.001c-1.446,0-2.894-0.001-4.341,0.001c-0.414,0-0.368-0.046-0.368,0.354
		c-0.001,5.434-0.001,10.867-0.001,16.3c0,0.069,0.004,0.138,0,0.206c-0.005,0.104,0.05,0.139,0.145,0.135
		c0.069-0.002,0.138,0,0.207,0c1.457,0,2.913,0.002,4.37,0c0.409-0.001,0.356,0.057,0.356-0.361c0.001-3.967,0-7.933,0-11.9
		c0-0.068,0.007-0.138-0.001-0.207c-0.013-0.118,0.032-0.203,0.117-0.285c0.394-0.387,0.799-0.759,1.255-1.072
		c1.124-0.771,2.357-1.067,3.702-0.826c1.294,0.233,2.151,1.118,2.377,2.414c0.083,0.478,0.07,0.961,0.07,1.442
		c0.002,3.475,0.001,6.949,0.002,10.423c0,0.079,0.001,0.158,0,0.237c-0.003,0.1,0.043,0.144,0.143,0.137
		c0.048-0.003,0.099-0.001,0.147-0.001c1.507,0,3.012,0,4.518,0c0.059,0,0.118-0.001,0.178,0c0.083,0.002,0.128-0.033,0.126-0.12
		c-0.001-0.05,0.001-0.1,0.001-0.148c0-3.818,0-7.638,0-11.457c0-0.493-0.036-0.982-0.118-1.469
		c-0.247-1.452-0.979-2.575-2.253-3.331c-0.494-0.293-1.021-0.509-1.572-0.66c-1.284-0.352-2.584-0.381-3.893-0.188
		c-1.403,0.208-2.665,0.736-3.766,1.642C90.476,62.534,90.163,62.847,89.783,63.134z M53.701,64.624c-0.001,0-0.002,0-0.002,0
		c0,2.804-0.002,5.607,0,8.412c0.001,0.64,0.02,1.279,0.112,1.913c0.155,1.064,0.668,1.892,1.607,2.448
		c0.521,0.309,1.081,0.464,1.673,0.523c1.267,0.128,2.537,0.042,3.805,0.063c0.169,0.003,0.195-0.069,0.192-0.21
		c-0.006-0.295-0.001-0.59-0.002-0.886c-0.002-0.299,0.04-0.279-0.282-0.309c-0.078-0.008-0.157-0.009-0.235-0.018
		c-0.333-0.037-0.66-0.098-0.973-0.228c-0.289-0.119-0.487-0.319-0.592-0.617c-0.088-0.253-0.144-0.51-0.178-0.774
		c-0.076-0.587-0.061-1.179-0.061-1.769c-0.002-6.08-0.002-12.161-0.002-18.241c0-0.079-0.004-0.158,0-0.236
		c0.007-0.117-0.052-0.157-0.16-0.15c-0.059,0.003-0.118,0-0.177,0c-1.466,0-2.932,0-4.398,0c-0.059,0-0.118,0.003-0.177,0
		c-0.116-0.008-0.158,0.049-0.152,0.159c0.004,0.078,0.001,0.157,0.001,0.235C53.701,58.169,53.701,61.396,53.701,64.624z
		 M135.088,69.477c0-2.705,0-5.411,0-8.117c0-0.078-0.001-0.157,0-0.235c0.002-0.103-0.048-0.142-0.145-0.136
		c-0.06,0.002-0.118,0-0.178,0c-1.476,0-2.952,0-4.428,0c-0.06,0-0.118,0.003-0.177,0c-0.115-0.007-0.161,0.047-0.154,0.158
		c0.004,0.059,0,0.118,0,0.178c0,5.439,0,10.881,0,16.322c0,0.06,0.004,0.118,0,0.178c-0.007,0.106,0.03,0.169,0.148,0.161
		c0.059-0.003,0.118,0,0.177,0c1.477,0,2.952,0.001,4.429-0.001c0.365,0,0.327,0.049,0.327-0.331
		C135.089,74.928,135.088,72.203,135.088,69.477z M135.383,56.307c0.005-1.583-1.252-2.856-2.832-2.87
		c-1.582-0.013-2.88,1.279-2.875,2.861c0.005,1.584,1.27,2.847,2.852,2.85C134.113,59.15,135.377,57.894,135.383,56.307z"/>
	<path display="none" fill-rule="evenodd" clip-rule="evenodd" fill="#FFFFFF" d="M158.284,11.601c6.477,0,12.953,0,19.43,0
		c0,6.634,0,13.268,0,19.903c-0.016-0.003-0.032-0.004-0.05-0.003c-0.008-0.561-0.054-1.117-0.117-1.674
		c-0.171-1.497-0.477-2.963-0.951-4.394c-0.029-0.088-0.027-0.196-0.126-0.251c-0.055-0.32-0.185-0.615-0.298-0.916
		c-1.443-3.858-5.432-6.012-9.393-5.14c-4.422,0.974-7.18,5.32-6.188,9.743c0.938,4.183,5.005,7,9.371,6.215
		c2.271-0.408,4.054-1.604,5.348-3.516c0.63-0.932,1.038-1.958,1.229-3.069c0.065,0.075,0.046,0.167,0.049,0.254
		c0.038,1.164-0.037,2.322-0.25,3.467c-0.668,3.607-2.315,6.697-5.01,9.19c-3.498,3.237-7.65,4.713-12.414,4.458
		c-1.623-0.086-3.194-0.427-4.716-0.991c-6.827-2.53-11.329-9.296-10.813-16.705c0.131-1.863,0.528-3.661,1.276-5.368
		c1.921-4.386,5.128-7.437,9.605-9.136c1.451-0.55,2.962-0.853,4.513-0.962c1.303-0.091,2.594-0.032,3.881,0.176
		c0.984,0.159,1.942,0.412,2.882,0.738c0.067,0.022,0.134,0.084,0.243-0.013c-0.184-0.085-0.35-0.165-0.517-0.238
		c-2.227-0.983-4.558-1.535-6.982-1.714C158.286,11.636,158.285,11.619,158.284,11.601z"/>
	<path fill-rule="evenodd" clip-rule="evenodd" fill="#F28026" d="M176.47,25.181c0.099,0.055,0.097,0.163,0.126,0.251
		c0.475,1.431,0.78,2.897,0.951,4.394c0.063,0.557,0.109,1.113,0.117,1.674c0,0.592,0,1.185,0,1.778
		c-0.184,4.622-1.757,8.726-4.683,12.29c-3.045,3.708-6.939,6.079-11.626,7.131c-1.766,0.396-3.558,0.557-5.363,0.458
		c-5.575-0.304-10.321-2.456-14.177-6.498c-2.815-2.951-4.578-6.459-5.333-10.472c-0.296-1.574-0.412-3.162-0.327-4.758
		c0.261-4.867,1.979-9.154,5.213-12.808c2.924-3.304,6.556-5.447,10.847-6.473c1.082-0.259,2.183-0.402,3.292-0.494
		c0.277,0.004,0.556,0.019,0.829-0.054c0.354,0,0.708,0,1.063,0c0.293,0.062,0.591,0.062,0.888,0.053
		c2.425,0.179,4.756,0.731,6.982,1.714c0.167,0.073,0.333,0.152,0.517,0.238c-0.109,0.098-0.176,0.036-0.243,0.013
		c-0.939-0.326-1.897-0.579-2.882-0.738c-1.287-0.208-2.578-0.267-3.881-0.176c-1.551,0.109-3.062,0.412-4.513,0.962
		c-4.478,1.699-7.685,4.75-9.605,9.136c-0.748,1.707-1.146,3.505-1.276,5.368c-0.516,7.408,3.986,14.175,10.813,16.705
		c1.521,0.564,3.093,0.905,4.716,0.991c4.764,0.255,8.916-1.221,12.414-4.458c2.694-2.493,4.342-5.583,5.01-9.19
		c0.213-1.145,0.288-2.303,0.25-3.467c-0.003-0.086,0.017-0.179-0.049-0.254c0.017-0.056,0.042-0.111,0.048-0.169
		c0.046-0.428,0.085-0.856,0.065-1.288c-0.014-0.322,0.005-0.642-0.047-0.966C176.559,25.778,176.488,25.483,176.47,25.181z"/>
	<path fill-rule="evenodd" clip-rule="evenodd" fill="#184D8E" d="M30.106,67.871c0.116-1.207,0.427-2.359,1.009-3.428
		c1.172-2.15,2.983-3.46,5.357-3.996c1.332-0.3,2.673-0.299,4.011-0.015c1.315,0.279,2.449,0.894,3.4,1.844
		c0.077,0.075,0.153,0.153,0.228,0.23c0.068,0.07,0.133,0.142,0.199,0.211c0.098-0.048,0.059-0.126,0.059-0.187
		c0.003-0.452,0.001-0.905,0.002-1.358c0-0.246,0.003-0.25,0.235-0.25c1.555-0.001,3.109-0.001,4.665,0
		c0.218,0.001,0.218,0.005,0.223,0.233c0,0.01,0,0.02,0,0.029c-0.001,4.871,0.001,9.742-0.007,14.613
		c-0.002,1.033-0.055,2.065-0.281,3.08c-0.329,1.474-1.062,2.69-2.249,3.638c-1.522,1.216-3.253,1.927-5.173,2.202
		c-0.301,0.042-0.604,0.075-0.907,0.113c-0.336-0.016-0.671,0.011-1.003,0.06c-0.473,0-0.945,0-1.417,0
		c-0.236-0.041-0.472-0.07-0.713-0.053c-0.136-0.02-0.272-0.038-0.409-0.057c-1.767-0.253-3.334-0.95-4.706-2.097
		c-0.973-0.813-1.551-1.862-1.889-3.064c-0.027-0.095-0.008-0.146,0.085-0.181c0.184-0.07,0.364-0.15,0.546-0.223
		c0.182-0.073,0.38-0.223,0.544-0.193c0.186,0.033,0.274,0.288,0.406,0.444c0.367,0.438,0.711,0.896,1.182,1.231
		c2.128,1.514,4.47,1.937,6.947,1.149c2.142-0.68,3.466-2.165,3.809-4.445c0.126-0.841,0.124-1.686,0.112-2.531
		c0-0.062,0.034-0.139-0.087-0.213c-0.067,0.083-0.134,0.18-0.215,0.263c-0.393,0.405-0.83,0.756-1.313,1.045
		c-1.914,1.145-3.977,1.587-6.176,1.176c-2.233-0.416-4.008-1.57-5.248-3.495c-0.722-1.121-1.098-2.365-1.228-3.688
		c0.032-0.229-0.037-0.444-0.095-0.66c0-0.256,0-0.513,0-0.769C30.084,68.318,30.135,68.101,30.106,67.871z M44.371,68.923
		C44.371,68.923,44.372,68.923,44.371,68.923c0.001-1.181-0.001-2.362,0.004-3.543c0.001-0.167-0.035-0.304-0.149-0.429
		c-0.186-0.203-0.352-0.425-0.543-0.622c-1.392-1.438-3.079-1.747-4.935-1.196c-1.288,0.381-2.118,1.313-2.651,2.521
		c-0.316,0.717-0.485,1.473-0.558,2.251c-0.097,1.046-0.072,2.084,0.207,3.104c0.27,0.988,0.736,1.867,1.524,2.542
		c1.191,1.02,2.57,1.248,4.068,0.914c1.107-0.248,2.024-0.838,2.848-1.597c0.135-0.124,0.189-0.249,0.188-0.433
		C44.367,71.265,44.371,70.094,44.371,68.923z"/>
	<path fill-rule="evenodd" clip-rule="evenodd" fill="#FEFEFE" d="M30.105,69.961c0.13,1.322,0.506,2.566,1.228,3.688
		c1.24,1.925,3.015,3.079,5.248,3.495c2.199,0.411,4.262-0.031,6.176-1.176c0.482-0.289,0.92-0.64,1.313-1.045
		c0.081-0.083,0.147-0.18,0.215-0.263c0.121,0.074,0.086,0.151,0.087,0.213c0.011,0.846,0.014,1.69-0.112,2.531
		c-0.343,2.28-1.667,3.766-3.809,4.445c-2.477,0.787-4.819,0.364-6.947-1.149c-0.471-0.335-0.815-0.794-1.182-1.231
		c-0.132-0.156-0.221-0.411-0.406-0.444c-0.164-0.029-0.362,0.12-0.544,0.193c-0.182,0.072-0.362,0.152-0.546,0.223
		c-0.093,0.035-0.112,0.086-0.085,0.181c0.338,1.202,0.916,2.252,1.889,3.064c1.371,1.146,2.939,1.844,4.706,2.097
		c0.136,0.019,0.273,0.037,0.409,0.057c0.005,0.017,0.006,0.034,0.004,0.053c-2.579,0-5.157,0-7.736,0c0-4.98,0-9.961,0-14.941
		C30.042,69.953,30.074,69.958,30.105,69.961z"/>
	<path fill-rule="evenodd" clip-rule="evenodd" fill="#F4DDC6" d="M177.664,33.278c0-0.593,0-1.186,0-1.778
		c0.018,0,0.034,0,0.05,0.003c0,0.59,0,1.181,0,1.771C177.698,33.277,177.682,33.279,177.664,33.278z"/>
	<path fill-rule="evenodd" clip-rule="evenodd" fill="#97B5CF" d="M30.106,67.871c0.029,0.229-0.021,0.447-0.096,0.661
		c0-0.217,0-0.433,0-0.649C30.042,67.879,30.074,67.875,30.106,67.871z"/>
	<path fill-rule="evenodd" clip-rule="evenodd" fill="#97B5CF" d="M30.105,69.961c-0.032-0.003-0.063-0.008-0.095-0.011
		c0-0.217,0-0.434,0-0.649C30.068,69.517,30.137,69.731,30.105,69.961z"/>
	<path fill-rule="evenodd" clip-rule="evenodd" fill="#97B5CF" d="M39.873,84.892c0.333-0.049,0.667-0.075,1.003-0.06
		c0,0.021,0,0.04,0,0.06C40.542,84.892,40.208,84.892,39.873,84.892z"/>
	<path fill-rule="evenodd" clip-rule="evenodd" fill="#F4DDC6" d="M158.286,11.654c-0.297,0.009-0.595,0.008-0.888-0.053
		c0.295,0,0.591,0,0.886,0C158.285,11.619,158.286,11.636,158.286,11.654z"/>
	<path fill-rule="evenodd" clip-rule="evenodd" fill="#F4DDC6" d="M156.336,11.601c-0.273,0.072-0.552,0.058-0.829,0.054
		c0.001-0.018,0.002-0.036,0.002-0.054C155.784,11.601,156.06,11.601,156.336,11.601z"/>
	<path fill-rule="evenodd" clip-rule="evenodd" fill="#97B5CF" d="M37.747,84.892c0.002-0.019,0.001-0.036-0.004-0.053
		c0.241-0.018,0.477,0.012,0.713,0.053C38.219,84.892,37.983,84.892,37.747,84.892z"/>
	<path fill-rule="evenodd" clip-rule="evenodd" fill="#184D8E" d="M112.083,76.339c0,0.452,0,0.903-0.001,1.354
		c0,0.29-0.001,0.291-0.283,0.291c-1.516,0.001-3.031,0.001-4.547,0c-0.325,0-0.295,0.032-0.295-0.306
		c-0.001-3.868-0.001-7.735-0.002-11.604c0-3.71,0-7.421,0-11.131c0-0.069,0.006-0.139-0.002-0.207
		c-0.018-0.16,0.059-0.195,0.205-0.195c1.575,0.005,3.149,0.005,4.725,0c0.152,0,0.211,0.046,0.204,0.201
		c-0.01,0.236-0.003,0.473-0.003,0.709c0,2.352-0.001,4.704-0.002,7.057c0,0.104,0,0.208,0,0.39c0.115-0.125,0.18-0.192,0.242-0.262
		c1.202-1.333,2.715-2.05,4.48-2.26c1.384-0.166,2.753-0.103,4.087,0.324c2.371,0.758,3.954,2.352,4.847,4.651
		c0.546,1.405,0.725,2.874,0.683,4.372c-0.033,1.188-0.203,2.354-0.621,3.47c-1.104,2.95-3.233,4.716-6.293,5.379
		c-1.189,0.259-2.385,0.251-3.572-0.019c-1.391-0.315-2.573-1.008-3.568-2.024c-0.073-0.073-0.149-0.146-0.223-0.219
		C112.123,76.321,112.104,76.331,112.083,76.339z M112.081,69.626c0,1.299,0,2.598,0,3.896c0,0.577,0.003,0.574,0.422,0.987
		c1.07,1.058,2.348,1.596,3.859,1.517c1.462-0.077,2.648-0.688,3.505-1.891c0.498-0.7,0.793-1.49,0.972-2.324
		c0.281-1.301,0.316-2.614,0.167-3.933c-0.087-0.775-0.285-1.526-0.634-2.229c-0.515-1.038-1.245-1.859-2.34-2.309
		c-0.773-0.318-1.585-0.387-2.405-0.295c-1.4,0.156-2.534,0.797-3.384,1.929c-0.118,0.158-0.166,0.321-0.165,0.519
		C112.084,66.871,112.081,68.249,112.081,69.626z"/>
	<path fill-rule="evenodd" clip-rule="evenodd" fill="#184D8D" d="M63.635,64.791c1.058-2.371,2.882-3.777,5.4-4.271
		c2.164-0.423,4.324-0.364,6.458,0.222c0.695,0.19,1.357,0.466,1.976,0.839c1.418,0.856,2.282,2.104,2.62,3.72
		c0.132,0.628,0.186,1.265,0.186,1.906c0,3.503,0.002,7.007,0.002,10.51c0,0.05-0.002,0.1,0,0.148
		c0.002,0.088-0.041,0.123-0.125,0.119c-0.059-0.001-0.118,0-0.178,0c-1.437,0-2.874,0-4.31,0c-0.03,0-0.06,0.001-0.089,0
		c-0.21-0.005-0.214-0.005-0.215-0.206c-0.002-0.463-0.001-0.926-0.001-1.388c0-0.085,0-0.17,0-0.28
		c-0.139,0.054-0.207,0.14-0.285,0.207c-1.378,1.198-2.979,1.882-4.79,2.089c-1.324,0.152-2.634,0.106-3.909-0.314
		c-1.363-0.45-2.479-1.232-3.213-2.493c-1.148-1.968-0.913-4.924,1.28-6.721c1.036-0.85,2.229-1.357,3.521-1.645
		c2.105-0.467,4.2-0.378,6.283,0.148c0.36,0.091,0.72,0.179,1.085,0.27c0.015-2.3-0.802-3.809-2.911-4.475
		c-1.658-0.524-3.321-0.449-4.945,0.184c-0.957,0.373-1.723,1.015-2.381,1.791c-0.213,0.252-0.151,0.235-0.458,0.103
		c-0.316-0.136-0.631-0.273-0.946-0.412C63.673,64.834,63.661,64.815,63.635,64.791z M75.359,72.366c0-0.491,0.002-0.982,0-1.476
		c0-0.225,0.067-0.496-0.034-0.664c-0.112-0.187-0.416-0.183-0.639-0.251c-1.228-0.375-2.474-0.542-3.753-0.322
		c-0.696,0.119-1.351,0.345-1.927,0.766c-0.465,0.34-0.815,0.771-1,1.318c-0.449,1.335-0.049,3.229,1.922,3.829
		c0.877,0.266,1.767,0.234,2.657,0.081c0.922-0.158,1.759-0.546,2.572-0.993c0.161-0.088,0.21-0.191,0.207-0.37
		C75.353,73.645,75.359,73.006,75.359,72.366z"/>
	<path fill-rule="evenodd" clip-rule="evenodd" fill="#184D8E" d="M151.668,76.116c-0.144,0.051-0.211,0.14-0.29,0.208
		c-1.562,1.351-3.388,2.026-5.438,2.142c-1.223,0.068-2.418-0.043-3.567-0.485c-1.334-0.513-2.394-1.351-3.043-2.647
		c-1.087-2.175-0.494-4.867,1.403-6.441c0.941-0.781,2.026-1.272,3.201-1.576c1.375-0.354,2.772-0.44,4.187-0.339
		c1.146,0.081,2.251,0.353,3.355,0.638c0.046,0.013,0.094,0.023,0.118,0.028c0.061-0.013,0.067-0.044,0.067-0.071
		c-0.031-0.68-0.1-1.353-0.321-2.001c-0.286-0.837-0.817-1.471-1.567-1.929c-0.614-0.374-1.286-0.592-1.991-0.697
		c-1.243-0.187-2.473-0.117-3.671,0.289c-1.071,0.364-1.939,1.023-2.676,1.87c-0.273,0.314-0.164,0.293-0.55,0.129
		c-0.317-0.134-0.631-0.272-0.934-0.403c-0.049-0.094,0.015-0.147,0.044-0.203c0.389-0.755,0.835-1.469,1.432-2.082
		c0.962-0.988,2.141-1.587,3.462-1.922c1.445-0.367,2.915-0.425,4.395-0.316c1.105,0.08,2.183,0.282,3.223,0.67
		c1.078,0.402,2.03,0.989,2.765,1.895c0.742,0.916,1.106,1.98,1.245,3.137c0.073,0.607,0.072,1.218,0.072,1.827
		c0.003,3.276,0.002,6.554,0.001,9.83c0,0.361,0.027,0.32-0.311,0.32c-1.428,0.001-2.854,0-4.281,0
		c-0.049,0-0.099-0.004-0.146,0.001c-0.143,0.017-0.188-0.043-0.186-0.184c0.007-0.512,0.003-1.024,0.003-1.535
		C151.668,76.228,151.668,76.188,151.668,76.116z M151.668,72.37C151.669,72.37,151.669,72.37,151.668,72.37
		c0.001-0.659-0.002-1.319,0.003-1.979c0.001-0.131-0.023-0.215-0.166-0.262c-1.263-0.417-2.546-0.684-3.885-0.532
		c-0.722,0.081-1.413,0.261-2.039,0.64c-0.856,0.517-1.351,1.26-1.436,2.272c-0.11,1.299,0.573,2.447,1.775,2.942
		c0.837,0.346,1.708,0.351,2.586,0.254c1.087-0.119,2.064-0.547,3.004-1.078c0.119-0.068,0.161-0.146,0.159-0.279
		C151.664,73.689,151.668,73.03,151.668,72.37z"/>
	<path fill-rule="evenodd" clip-rule="evenodd" fill="#184D8D" d="M89.783,63.134c0.38-0.287,0.692-0.6,1.033-0.881
		c1.101-0.905,2.362-1.434,3.766-1.642c1.309-0.193,2.608-0.164,3.893,0.188c0.551,0.151,1.078,0.367,1.572,0.66
		c1.274,0.756,2.006,1.879,2.253,3.331c0.082,0.486,0.118,0.976,0.118,1.469c0,3.819,0,7.639,0,11.457
		c0,0.049-0.002,0.099-0.001,0.148c0.002,0.087-0.043,0.122-0.126,0.12c-0.06-0.001-0.119,0-0.178,0c-1.506,0-3.011,0-4.518,0
		c-0.049,0-0.1-0.002-0.147,0.001c-0.1,0.007-0.146-0.037-0.143-0.137c0.001-0.079,0-0.158,0-0.237
		c-0.001-3.474,0-6.948-0.002-10.423c0-0.481,0.013-0.965-0.07-1.442c-0.226-1.296-1.083-2.181-2.377-2.414
		c-1.345-0.241-2.578,0.056-3.702,0.826c-0.456,0.313-0.861,0.686-1.255,1.072c-0.085,0.082-0.13,0.167-0.117,0.285
		c0.008,0.069,0.001,0.139,0.001,0.207c0,3.968,0.001,7.934,0,11.9c0,0.418,0.053,0.36-0.356,0.361c-1.457,0.002-2.913,0-4.37,0
		c-0.069,0-0.138-0.002-0.207,0c-0.095,0.004-0.149-0.03-0.145-0.135c0.004-0.068,0-0.137,0-0.206c0-5.433,0-10.866,0.001-16.3
		c0-0.4-0.046-0.354,0.368-0.354c1.447-0.002,2.895-0.001,4.341-0.001c0.04,0,0.079,0,0.118,0.001
		c0.249,0.002,0.25,0.003,0.25,0.264c0.002,0.532,0,1.064,0,1.596C89.783,62.943,89.783,63.038,89.783,63.134z"/>
	<path fill-rule="evenodd" clip-rule="evenodd" fill="#184D8E" d="M53.701,64.624c0-3.228,0-6.455,0-9.683
		c0-0.078,0.003-0.157-0.001-0.235c-0.006-0.11,0.036-0.167,0.152-0.159c0.059,0.003,0.118,0,0.177,0c1.466,0,2.932,0,4.398,0
		c0.059,0,0.118,0.003,0.177,0c0.108-0.007,0.167,0.033,0.16,0.15c-0.004,0.078,0,0.157,0,0.236c0,6.08,0,12.161,0.002,18.241
		c0,0.59-0.015,1.182,0.061,1.769c0.034,0.265,0.089,0.521,0.178,0.774c0.105,0.298,0.303,0.498,0.592,0.617
		c0.313,0.13,0.639,0.19,0.973,0.228c0.078,0.009,0.157,0.01,0.235,0.018c0.321,0.029,0.28,0.01,0.282,0.309
		c0.001,0.296-0.004,0.591,0.002,0.886c0.003,0.141-0.023,0.213-0.192,0.21c-1.269-0.021-2.539,0.064-3.805-0.063
		c-0.593-0.06-1.153-0.215-1.673-0.523c-0.939-0.557-1.453-1.384-1.607-2.448c-0.092-0.634-0.111-1.273-0.112-1.913
		c-0.002-2.805,0-5.608,0-8.412C53.699,64.624,53.7,64.624,53.701,64.624z"/>
	<path fill-rule="evenodd" clip-rule="evenodd" fill="#184D8E" d="M135.088,69.477c0,2.727,0.001,5.451,0,8.177
		c0,0.38,0.038,0.331-0.327,0.331c-1.477,0.002-2.952,0.001-4.429,0.001c-0.059,0-0.118-0.003-0.177,0
		c-0.118,0.008-0.155-0.055-0.148-0.161c0.004-0.06,0-0.118,0-0.178c0-5.441,0-10.883,0-16.322c0-0.06,0.004-0.119,0-0.178
		c-0.007-0.111,0.039-0.165,0.154-0.158c0.059,0.003,0.117,0,0.177,0c1.476,0,2.952,0,4.428,0c0.06,0,0.118,0.002,0.178,0
		c0.097-0.006,0.146,0.033,0.145,0.136c-0.001,0.078,0,0.157,0,0.235C135.088,64.065,135.088,66.771,135.088,69.477z"/>
	<path fill-rule="evenodd" clip-rule="evenodd" fill="#184D8E" d="M135.383,56.307c-0.006,1.587-1.27,2.844-2.855,2.841
		c-1.582-0.003-2.847-1.266-2.852-2.85c-0.005-1.582,1.293-2.874,2.875-2.861C134.131,53.45,135.388,54.724,135.383,56.307z"/>
	<path fill-rule="evenodd" clip-rule="evenodd" fill="#F6B914" d="M176.47,25.181c0.019,0.302,0.089,0.598,0.136,0.895
		c0.052,0.324,0.033,0.644,0.047,0.966c0.02,0.431-0.02,0.86-0.065,1.288c-0.006,0.058-0.031,0.113-0.048,0.169
		c-0.19,1.11-0.599,2.137-1.229,3.069c-1.294,1.911-3.077,3.107-5.348,3.516c-4.366,0.785-8.433-2.033-9.371-6.215
		c-0.992-4.423,1.766-8.769,6.188-9.743c3.961-0.872,7.949,1.282,9.393,5.14C176.285,24.565,176.415,24.861,176.47,25.181z"/>
	<path display="none" fill-rule="evenodd" clip-rule="evenodd" fill="#FEFEFE" d="M44.371,68.923c0,1.171-0.004,2.342,0.004,3.513
		c0.001,0.184-0.053,0.309-0.188,0.433c-0.824,0.759-1.741,1.349-2.848,1.597c-1.498,0.334-2.877,0.105-4.068-0.914
		c-0.789-0.675-1.254-1.554-1.524-2.542c-0.279-1.021-0.304-2.059-0.207-3.104c0.072-0.778,0.241-1.534,0.558-2.251
		c0.533-1.208,1.363-2.14,2.651-2.521c1.856-0.551,3.543-0.242,4.935,1.196c0.191,0.197,0.357,0.419,0.543,0.622
		c0.114,0.125,0.15,0.262,0.149,0.429C44.37,66.561,44.372,67.742,44.371,68.923C44.372,68.923,44.371,68.923,44.371,68.923z"/>
	<path display="none" fill-rule="evenodd" clip-rule="evenodd" fill="#FEFEFF" d="M112.081,69.626c0-1.377,0.003-2.755-0.003-4.133
		c-0.001-0.197,0.047-0.36,0.165-0.519c0.85-1.132,1.983-1.772,3.384-1.929c0.82-0.092,1.632-0.023,2.405,0.295
		c1.095,0.449,1.825,1.271,2.34,2.309c0.349,0.703,0.547,1.454,0.634,2.229c0.149,1.318,0.114,2.632-0.167,3.933
		c-0.179,0.834-0.474,1.624-0.972,2.324c-0.856,1.203-2.043,1.813-3.505,1.891c-1.512,0.079-2.789-0.459-3.859-1.517
		c-0.419-0.413-0.422-0.41-0.422-0.987C112.081,72.224,112.081,70.925,112.081,69.626z"/>
	<path display="none" fill-rule="evenodd" clip-rule="evenodd" fill="#FEFEFE" d="M75.359,72.366c0,0.64-0.007,1.278,0.004,1.918
		c0.003,0.179-0.046,0.282-0.207,0.37c-0.813,0.447-1.649,0.835-2.572,0.993c-0.89,0.153-1.779,0.185-2.657-0.081
		c-1.972-0.6-2.372-2.494-1.922-3.829c0.185-0.547,0.535-0.979,1-1.318c0.576-0.421,1.231-0.646,1.927-0.766
		c1.279-0.22,2.525-0.053,3.753,0.322c0.223,0.068,0.527,0.064,0.639,0.251c0.101,0.168,0.034,0.439,0.034,0.664
		C75.361,71.384,75.359,71.875,75.359,72.366z"/>
	<path display="none" fill-rule="evenodd" clip-rule="evenodd" fill="#FEFEFE" d="M151.668,72.37c0,0.66-0.004,1.319,0.002,1.979
		c0.002,0.134-0.04,0.211-0.159,0.279c-0.939,0.531-1.917,0.959-3.004,1.078c-0.878,0.097-1.749,0.092-2.586-0.254
		c-1.202-0.495-1.886-1.644-1.775-2.942c0.085-1.013,0.579-1.756,1.436-2.272c0.626-0.379,1.317-0.559,2.039-0.64
		c1.339-0.151,2.622,0.115,3.885,0.532c0.143,0.047,0.167,0.131,0.166,0.262C151.666,71.051,151.669,71.711,151.668,72.37
		C151.669,72.37,151.669,72.37,151.668,72.37z"/>
</g>
</svg>
