<?xml version="1.0" encoding="utf-8"?>
<!-- Generator: Adobe Illustrator 16.0.2, SVG Export Plug-In . SVG Version: 6.00 Build 0)  -->
<!DOCTYPE svg PUBLIC "-//W3C//DTD SVG 1.1//EN" "http://www.w3.org/Graphics/SVG/1.1/DTD/svg11.dtd">
<svg version="1.1" id="Layer_1" xmlns="http://www.w3.org/2000/svg" xmlns:xlink="http://www.w3.org/1999/xlink" x="0px" y="0px"
	 width="208.833px" height="100px" viewBox="0 0 208.833 100" enable-background="new 0 0 208.833 100" xml:space="preserve">
<rect x="2.414" y="2.383" fill="#FFFFFF" stroke="#B3B3B3" stroke-miterlimit="10" width="203.833" height="95.617"/>
<path display="none" fill-rule="evenodd" clip-rule="evenodd" fill="#EC262F" d="M49.796,42.539c1.172,0.127,3.026-0.62,3.937,0.272
	c0.915,0.896,0.233,2.754,0.289,4.19c0.049,1.282-0.03,2.57,0.025,3.852c0.036,0.853-0.217,1.191-1.125,1.172
	c-2.343-0.055-4.689-0.055-7.033-0.004c-0.918,0.021-1.299-0.222-1.273-1.211c0.06-2.399,0.042-4.802,0.008-7.204
	c-0.012-0.784,0.246-1.106,1.057-1.076C46.964,42.576,48.249,42.539,49.796,42.539z"/>
<path display="none" fill-rule="evenodd" clip-rule="evenodd" fill="#A42588" d="M54.102,59.987
	c-0.19,1.263,0.698,3.242-0.362,4.231c-0.956,0.893-2.882,0.255-4.376,0.251c-1.494,0-3.424,0.645-4.372-0.257
	c-1.042-0.998-0.26-2.967-0.346-4.509c-0.067-1.226,0.01-2.457-0.021-3.685c-0.019-0.712,0.257-0.999,0.978-0.994
	c2.513,0.024,5.026,0.024,7.539,0c0.728-0.005,0.985,0.3,0.968,1.005C54.08,57.258,54.102,58.485,54.102,59.987z"/>
<path display="none" fill-rule="evenodd" clip-rule="evenodd" fill="#1DA4C9" d="M36.559,64.495
	c-1.231-0.118-3.17,0.637-4.107-0.276c-1.018-0.993-0.291-2.962-0.319-4.503c-0.027-1.492-0.643-3.425,0.25-4.364
	c0.912-0.963,2.863-0.241,4.356-0.309c1.171-0.05,2.35,0.058,3.516-0.029c1.075-0.081,1.323,0.348,1.293,1.349
	c-0.067,2.23-0.091,4.468,0.005,6.695c0.052,1.242-0.438,1.537-1.554,1.453C38.947,64.431,37.88,64.495,36.559,64.495z"/>
<path display="none" fill-rule="evenodd" clip-rule="evenodd" fill="#A8A9AC" d="M62.164,55.119c1.209,0.129,3.11-0.637,4.094,0.297
	c1.002,0.946,0.313,2.864,0.327,4.354c0.048,4.758,0.018,4.758-4.823,4.758c-0.391,0-0.782,0-1.174,0
	c-3.684,0-3.796-0.07-3.565-3.785c0.094-1.506,0.297-2.988,0.001-4.494c-0.146-0.735,0.16-1.162,0.999-1.138
	C59.309,55.146,60.595,55.119,62.164,55.119z"/>
<path display="none" fill-rule="evenodd" clip-rule="evenodd" fill="#F18423" d="M29.063,59.867c0,1.172-0.046,2.346,0.016,3.516
	c0.047,0.906-0.333,1.142-1.178,1.124c-2.342-0.039-4.688-0.033-7.031-0.004c-0.809,0.015-1.231-0.16-1.209-1.099
	c0.052-2.4,0.036-4.802,0.004-7.2c-0.009-0.759,0.195-1.114,1.027-1.101c2.455,0.036,4.909,0.04,7.361-0.003
	c0.832-0.015,1.05,0.317,1.023,1.083C29.031,57.411,29.063,58.64,29.063,59.867z"/>
<path display="none" fill-rule="evenodd" clip-rule="evenodd" fill="#129048" d="M41.385,47.2c0,1.495,0.584,3.481-0.153,4.36
	c-0.866,1.036-2.918,0.298-4.453,0.323c-1.49,0.022-3.422,0.646-4.358-0.26c-0.941-0.916-0.259-2.857-0.29-4.345
	c-0.032-1.5-0.509-3.485,0.248-4.369c0.891-1.043,2.941-0.264,4.484-0.34c1.224-0.064,2.454,0.013,3.68-0.024
	c0.72-0.021,0.991,0.245,0.965,0.97c-0.043,1.228-0.012,2.457-0.012,3.685C41.458,47.2,41.422,47.2,41.385,47.2z"/>
<path display="none" fill-rule="evenodd" clip-rule="evenodd" fill="#A8A9AC" d="M24.414,42.664c1.005,0,2.017,0.066,3.015-0.017
	c1.195-0.104,1.721,0.218,1.654,1.545c-0.108,2.117-0.073,4.248-0.01,6.368c0.03,1.03-0.335,1.366-1.351,1.34
	c-2.232-0.059-4.469-0.052-6.703-0.005c-0.963,0.023-1.428-0.211-1.396-1.294c0.065-2.231,0.054-4.47,0.003-6.704
	c-0.021-0.953,0.329-1.292,1.268-1.249C22.065,42.707,23.239,42.664,24.414,42.664z"/>
<g>
	<path fill-rule="evenodd" clip-rule="evenodd" fill="#3F1E15" d="M57.272,35.457c-1.09-0.14-2.079,0.071-3.045,0.4
		c-7.466,2.543-13.485,7.004-17.92,13.553c-1.292,1.906-2.255,3.947-2.33,6.307c-0.076,2.414,0.826,3.35,3.23,3.393
		c2.216,0.039,4.357-0.41,6.468-1.018c3.547-1.02,7.01-2.27,10.29-3.979c2.265-1.178,4.038-2.881,5.4-5.055
		c2.71-4.326,6.527-7.032,11.657-7.719c0.602-0.081,1.218-0.1,1.826-0.084c1.288,0.031,2.309,0.576,2.927,1.73
		c0.276,0.517,0.625,0.766,1.224,0.826c3.389,0.343,4.357,1.771,3.447,5.055c-0.395,1.424-1.051,2.736-1.778,4.018
		c-0.325,0.572-0.592,1.166,0.034,1.729c0.597,0.537,1.183,0.295,1.759-0.035c1.165-0.67,1.972-1.686,2.678-2.797
		c3.232-5.088,6.727-9.985,10.664-14.555c4.603-5.342,9.556-10.294,15.684-13.918c1.57-0.929,3.207-1.693,5.102-1.438
		c2.211,0.299,3.637,1.887,3.7,4.123c0.07,2.457-0.727,4.694-1.923,6.793c-1.736,3.049-4.136,5.559-6.672,7.936
		c-5.036,4.721-10.824,8.374-16.813,11.733c-1.111,0.623-2.269,1.174-3.304,1.922c-0.911,0.66-1.225,1.443-0.986,2.271
		c0.223,0.77,0.708,1.178,1.521,1.133c2.468-0.133,4.582-0.943,6.092-3.041c3.293-4.58,7.671-7.803,12.795-10.06
		c0.58-0.255,1.195-0.44,1.808-0.608c1.519-0.415,2.906-0.117,4.17,0.816c0.786,0.58,1.499,1.243,2.126,1.985
		c0.568,0.672,1.16,0.725,1.904,0.313c1.385-0.768,2.838-1.24,4.461-0.947c2.063,0.373,2.58,1.609,1.354,3.311
		c-1.104,1.531-2.221,3.051-3.324,4.582c-0.246,0.342-0.5,0.719-0.108,1.111c0.37,0.373,0.723,0.088,1.051-0.104
		c4.585-2.67,8.597-5.99,11.717-10.322c0.081-0.112,0.172-0.219,0.244-0.337c0.214-0.348,0.588-0.695,0.343-1.125
		c-0.253-0.441-0.768-0.393-1.205-0.366c-1.855,0.108-3.71,0.255-5.566,0.358c-3.639,0.2-7.27,0.261-10.83-0.721
		c-0.319-0.088-0.641-0.184-0.943-0.315c-1.845-0.808-2.187-2.858-0.66-4.175c1.793-1.545,3.955-2.182,6.269-2.383
		c4.692-0.404,9.317,0.078,13.859,1.25c2.296,0.592,4.032,0.103,5.443-1.863c1.757-2.447,4.078-4.301,6.694-5.775
		c1.56-0.88,3.205-1.363,5.025-0.964c0.726,0.159,1.313,0.431,1.529,1.21c0.228,0.818-0.043,1.48-0.656,2.012
		c-1.583,1.368-2.969,2.914-4.196,4.605c-0.272,0.375-0.692,0.738-0.368,1.252c0.347,0.551,0.879,0.428,1.419,0.305
		c1.225-0.275,2.03-1.082,2.724-2.051c1.18-1.646,2.354-3.298,3.662-4.846c1.604-1.898,3.378-3.604,5.519-4.896
		c1.479-0.894,3.052-1.289,4.776-0.871c1.595,0.386,2.052,1.298,1.317,2.762c-0.663,1.322-1.567,2.488-2.548,3.586
		c-1.294,1.449-2.64,2.852-3.93,4.305c-0.5,0.564-1.283,1.158-0.904,1.994c0.355,0.785,1.287,0.631,2.02,0.64
		c3.197,0.037,6.376,0.247,9.516,0.881c0.46,0.093,0.929,0.165,1.337,0.429c0.42,0.272,0.58,0.662,0.514,1.143
		c-0.066,0.476-0.298,0.836-0.799,0.95c-0.215,0.049-0.437,0.102-0.654,0.101c-4.861-0.035-9.688,0.621-14.543,0.73
		c-1.173,0.025-2.103,0.495-2.906,1.378c-3.257,3.576-6.324,7.296-8.921,11.386c-0.259,0.406-0.585,0.836-0.078,1.244
		c0.498,0.4,0.864-0.014,1.227-0.316c4.657-3.863,9.347-7.682,14.642-10.668c1.992-1.125,4.067-2.015,6.36-2.332
		c2.158-0.299,3.508,0.398,4.45,2.361c0.048,0.1,0.087,0.204,0.133,0.305c0.661,1.463,1.013,1.573,2.373,0.7
		c1.727-1.108,3.552-1.374,5.473-0.615c1.684,0.662,2.163,2.078,1.25,3.631c-0.251,0.428-0.578,0.814-0.902,1.191
		c-2.871,3.352-5.755,6.693-8.623,10.047c-0.66,0.771-1.347,1.443-2.479,1.08c-1.187-0.381-1.689-1.299-1.779-2.461
		c-0.058-0.736-0.011-1.48-0.011-2.371c-1.079,0.6-2.035,1.137-2.996,1.668c-2.963,1.633-5.931,3.254-9.238,4.111
		c-1.023,0.266-2.058,0.471-3.121,0.43c-1.557-0.059-2.68-0.771-3.307-2.23c-0.588-1.371-0.979-1.459-2.119-0.492
		c-1.292,1.096-2.601,2.168-3.99,3.139c-0.317,0.223-0.644,0.436-0.985,0.617c-1.043,0.555-2.096,0.705-3.148,0.012
		c-1.065-0.703-1.259-1.762-1.182-2.924c0.119-1.801,0.718-3.459,1.542-5.047c0.183-0.354,0.418-0.715-0.036-1.02
		c-0.459-0.307-0.785-0.016-1.063,0.32c-1.74,2.107-3.672,4.014-5.879,5.631c-1.164,0.854-2.365,1.65-3.699,2.223
		c-2.251,0.965-3.91-0.273-3.667-2.717c0.104-1.043,0.474-1.986,0.963-2.896c0.211-0.393,0.488-0.797,0.032-1.195
		c-0.427-0.373-0.839-0.152-1.214,0.102c-1.863,1.256-3.713,2.531-5.578,3.783c-1.255,0.842-2.625,1.43-4.106,1.742
		c-1.948,0.412-3.04-0.24-3.54-2.148c-0.161-0.613-0.239-1.25-0.365-1.932c-0.353,0.031-0.611,0.291-0.902,0.461
		c-2.532,1.486-4.98,3.123-7.676,4.32c-1.376,0.611-2.809,1.027-4.309,1.199c-1.997,0.229-3.531-0.602-4.428-2.395
		c-0.1-0.197-0.191-0.398-0.299-0.592c-0.345-0.621-0.824-0.793-1.453-0.416c-0.237,0.143-0.467,0.299-0.695,0.457
		c-2.045,1.402-4.268,2.309-6.756,2.594c-2.942,0.336-4.506-0.561-5.479-3.369c-0.251-0.727-0.405-1.023-1.237-0.557
		c-1.448,0.814-2.88,0.713-4.091-0.563c-0.416-0.439-0.83-0.383-1.233-0.006c-0.222,0.207-0.415,0.447-0.619,0.674
		c-3.582,4.01-8.159,5.1-13.292,4.484c-1.826-0.219-3.016-1.301-3.631-3.016c-0.196-0.547-0.342-1.111-0.526-1.662
		c-0.289-0.867-0.713-1.01-1.396-0.406c-3.521,3.109-7.67,5.029-12.099,6.424c-2.464,0.777-4.97,1.148-7.548,0.695
		c-4.399-0.773-6.761-3.566-7.738-7.766c-1.172-5.035-0.114-9.676,2.425-14.061c5.144-8.885,12.399-15.481,21.621-19.954
		c6.283-3.047,12.894-4.71,19.885-4.79c2.617-0.029,5.052,0.633,7.22,2.138c2.703,1.875,3.221,4.426,1.493,7.222
		c-0.696,1.125-1.592,2.064-2.661,2.836c-6.15,4.434-12.717,8.082-19.925,10.516c-1.534,0.518-3.112,0.796-4.717,0.943
		c-0.699,0.064-1.346-0.047-1.733-0.721c-0.397-0.692-0.074-1.271,0.326-1.838c1.315-1.863,3.155-3.094,5.088-4.207
		C56.335,36.647,56.955,36.255,57.272,35.457z M69.911,49.672c-0.481,0.012-1.136,0.133-1.733,0.445
		c-1.921,1-3.568,2.334-4.783,4.145c-0.796,1.184-1.149,2.516-1.015,3.943c0.112,1.199,0.789,1.725,1.983,1.525
		c0.511-0.084,1.012-0.281,1.491-0.488c1.725-0.748,3.146-1.945,4.561-3.15c0.535-0.457,0.721-0.971,0.599-1.686
		c-0.263-1.549,0.252-2.322,1.759-2.813c0.178-0.057,0.443-0.031,0.463-0.26c0.02-0.215-0.12-0.41-0.317-0.551
		C72.071,50.18,71.171,49.715,69.911,49.672z M146.13,43.861c0.009-0.398-0.202-0.578-0.431-0.744
		c-0.8-0.576-1.758-0.438-2.497,0.477c-2.44,3.022-4.85,6.071-7.265,9.114c-0.24,0.303-0.527,0.662-0.239,1.047
		c0.316,0.42,0.766,0.328,1.21,0.15c1.241-0.49,2.216-1.348,3.173-2.242c2.333-2.18,3.983-4.898,5.889-7.417
		C146.064,44.119,146.096,43.945,146.13,43.861z M97.161,44.113c0.308-0.145,0.505-0.232,0.698-0.329
		c3.15-1.579,5.762-3.815,7.937-6.571c0.479-0.607,0.917-1.249,1.348-1.892c0.222-0.329,0.22-0.687-0.091-0.983
		c-0.326-0.311-0.697-0.325-1.063-0.086c-0.229,0.151-0.442,0.334-0.636,0.529c-2.284,2.302-4.568,4.604-6.841,6.918
		C97.889,42.335,97.379,43.052,97.161,44.113z M166.334,51.766c-0.058,0.008-0.253,0.018-0.438,0.066
		c-3.104,0.822-5.821,2.371-8.271,4.42c-0.3,0.252-0.499,0.549-0.316,0.939c0.219,0.471,0.65,0.496,1.07,0.373
		c3.158-0.928,6.123-2.244,8.662-4.395c0.285-0.242,0.539-0.508,0.391-0.922C167.268,51.795,166.869,51.77,166.334,51.766z
		 M112.479,52.98c-0.047-0.777-0.502-0.766-1.011-0.648c-1.913,0.439-3.674,1.207-5.204,2.455c-0.818,0.666-1.553,1.418-2.141,2.303
		c-0.217,0.326-0.27,0.668-0.002,0.996c0.24,0.295,0.534,0.342,0.893,0.213c2.504-0.898,4.771-2.191,6.682-4.059
		C112.063,53.883,112.393,53.457,112.479,52.98z M66.456,23.085c0.852,0.106,1.668,0.023,2.481-0.047
		c1.848-0.158,3.465,0.199,4.559,1.884c0.328,0.505,0.823,0.521,1.308,0.206c0.519-0.338,0.682-0.803,0.323-1.344
		c-0.227-0.344-0.478-0.689-0.783-0.959C72.098,20.849,68.007,21.462,66.456,23.085z M123.682,36.83
		c-0.947-0.063-1.891-0.043-2.699,0.543c-0.329,0.238-0.736,0.51-0.637,0.981c0.098,0.462,0.561,0.646,0.963,0.665
		c1.314,0.063,2.573-0.229,3.761-0.791c0.296-0.141,0.417-0.431,0.365-0.77c-0.06-0.389-0.324-0.582-0.678-0.62
		C124.402,36.8,124.041,36.83,123.682,36.83z M71.899,44.925c0,0.012,0,0.024,0,0.037c0.467,0,0.938,0.035,1.4-0.01
		c0.496-0.047,0.665-0.434,0.726-0.875c0.053-0.388-0.135-0.69-0.485-0.76c-1.066-0.211-2.136-0.215-3.166,0.202
		c-0.262,0.105-0.454,0.324-0.542,0.597c-0.167,0.519-0.102,0.869,0.583,0.815C70.907,44.894,71.404,44.925,71.899,44.925z
		 M165.715,45.873c1.23,0.514,2.387,0.954,3.665,0.723c0.467-0.084,1.135-0.109,1.186-0.694c0.055-0.643-0.633-0.779-1.105-0.923
		C168.091,44.562,166.937,45.17,165.715,45.873z M112.213,47.076c0,0.006,0,0.012,0,0.018c0.523,0,1.047,0.004,1.57,0
		c0.303-0.004,0.666,0.033,0.791-0.305c0.141-0.379-0.107-0.701-0.367-0.946c-0.6-0.565-3.43-0.081-3.834,0.645
		c-0.212,0.379-0.178,0.621,0.354,0.594C111.221,47.057,111.718,47.076,112.213,47.076z M179.069,47.502
		c0.009-0.236-0.102-0.529-0.528-0.551c-0.613-0.029-1.619,0.898-1.674,1.5c-0.045,0.5,0.254,0.711,0.666,0.779
		C178.127,49.326,179.02,48.377,179.069,47.502z M149.256,30.9c0.958,0.264,1.834,0.318,2.634-0.297
		c0.171-0.132,0.371-0.281,0.28-0.545c-0.083-0.244-0.298-0.297-0.532-0.318C150.635,29.652,149.885,30.076,149.256,30.9z
		 M77.69,46.998c0.895,0.012,1.635-0.424,1.638-0.938c0.002-0.551-0.373-0.674-0.836-0.668c-0.671,0.01-1.355,0.539-1.377,1.073
		C77.095,46.938,77.43,46.977,77.69,46.998z"/>
	<path fill-rule="evenodd" clip-rule="evenodd" fill="#43241B" d="M94.386,78.754c0.239-1.131,0.519-2.256,0.706-3.395
		c0.115-0.701,0.6-0.438,0.951-0.445c0.534-0.012,0.251,0.402,0.213,0.6c-0.327,1.658-0.679,3.311-1.037,4.963
		c-0.063,0.293-0.014,0.689-0.545,0.646c-0.44-0.035-0.83,0.043-1.031-0.551c-0.388-1.146-0.885-2.256-1.422-3.594
		c-0.266,1.223-0.564,2.217-0.678,3.232c-0.108,0.965-0.596,1.035-1.372,0.82c0.386-1.877,0.769-3.746,1.157-5.613
		c0.055-0.264,0.084-0.566,0.492-0.52c0.383,0.045,0.805-0.143,1.015,0.443c0.417,1.164,0.919,2.297,1.386,3.443
		C94.275,78.773,94.33,78.764,94.386,78.754z"/>
	<path fill-rule="evenodd" clip-rule="evenodd" fill="#42231A" d="M49.438,78.496c0.464,0.633,0.784,1.246,1.025,1.891
		c0.08,0.213,0.457,0.59,0.083,0.674c-0.37,0.086-0.955,0.35-1.242-0.242c-0.228-0.473-0.407-0.969-0.613-1.451
		c-0.109-0.258-0.248-0.502-0.484-0.662c-0.574-0.391-1.177-0.15-1.325,0.529c-0.1,0.461-0.168,0.928-0.278,1.385
		c-0.053,0.223-0.064,0.461-0.427,0.506c-0.848,0.104-0.972-0.004-0.795-0.836c0.339-1.598,0.688-3.193,0.997-4.795
		c0.09-0.469,0.271-0.637,0.759-0.605c0.746,0.047,1.497,0.004,2.245,0.016c1.189,0.02,1.729,0.412,1.88,1.342
		c0.156,0.951-0.352,1.758-1.338,2.117C49.796,78.41,49.66,78.436,49.438,78.496z M48.533,75.928
		c-0.3,0.166-0.885-0.348-1.063,0.453c-0.282,1.266-0.317,1.266,0.988,1.217c0.193-0.008,0.393-0.002,0.579-0.047
		c0.563-0.129,1.003-0.432,0.934-1.07c-0.067-0.613-0.603-0.533-1.04-0.551C48.82,75.924,48.709,75.928,48.533,75.928z"/>
	<path fill-rule="evenodd" clip-rule="evenodd" fill="#43241B" d="M54.392,81.234c-1.349-0.012-2.237-0.762-2.477-2.088
		c-0.374-2.076,1.093-4.133,3.104-4.348c1.548-0.164,2.708,0.752,2.899,2.289C58.188,79.262,56.493,81.254,54.392,81.234z
		 M53.136,78.529c-0.032,0.67,0.198,1.221,0.815,1.504c0.644,0.295,1.261,0.117,1.756-0.355c0.649-0.619,0.937-1.414,0.936-2.309
		c0-0.598-0.218-1.098-0.778-1.355c-0.567-0.26-1.143-0.197-1.637,0.197C53.491,76.801,53.196,77.613,53.136,78.529z"/>
	<path fill-rule="evenodd" clip-rule="evenodd" fill="#43241B" d="M123.203,78.553c0.08-2.42,1.883-4.098,3.986-3.711
		c1.097,0.203,1.764,0.848,2,1.938c0.473,2.17-1.183,4.391-3.322,4.455C124.223,81.283,123.148,80.201,123.203,78.553z
		 M127.968,77.539c0.031-0.695-0.167-1.299-0.85-1.559c-0.71-0.271-1.367-0.08-1.868,0.506c-0.5,0.584-0.76,1.271-0.791,2.043
		c-0.026,0.666,0.2,1.217,0.816,1.502c0.608,0.283,1.201,0.135,1.695-0.295C127.629,79.16,127.909,78.395,127.968,77.539z"/>
	<path fill-rule="evenodd" clip-rule="evenodd" fill="#43241B" d="M142.288,77.445c-0.006,2.236-1.653,3.914-3.722,3.787
		c-1.095-0.064-1.883-0.678-2.2-1.707c-0.629-2.045,0.81-4.393,2.883-4.703C141.006,74.559,142.293,75.67,142.288,77.445z
		 M141.001,77.645c0.02-0.797-0.162-1.385-0.799-1.648c-0.664-0.275-1.308-0.137-1.822,0.396c-0.603,0.627-0.875,1.4-0.885,2.254
		c-0.007,0.586,0.228,1.092,0.777,1.363c0.572,0.281,1.143,0.188,1.635-0.193C140.657,79.236,140.94,78.416,141.001,77.645z"/>
	<path fill-rule="evenodd" clip-rule="evenodd" fill="#43241B" d="M83.77,78.531c0.053-2.5,2.042-4.207,4.24-3.639
		c0.748,0.193,1.279,0.654,1.582,1.352c0.939,2.168-0.837,4.938-3.189,4.99C84.752,81.271,83.734,80.227,83.77,78.531z
		 M88.51,77.717c0.043-0.846-0.137-1.457-0.816-1.73c-0.669-0.268-1.309-0.113-1.815,0.426c-0.597,0.633-0.867,1.408-0.868,2.262
		c-0.002,0.586,0.248,1.088,0.802,1.35c0.542,0.256,1.087,0.176,1.566-0.174C88.146,79.285,88.441,78.473,88.51,77.717z"/>
	<path fill-rule="evenodd" clip-rule="evenodd" fill="#44251C" d="M119.425,78.348c-0.874-0.287-1.206,0.25-1.28,1.143
		c-0.027,0.328-0.121,0.652-0.188,0.979c-0.116,0.559-0.733,0.869-1.223,0.637c-0.229-0.109-0.138-0.279-0.108-0.42
		c0.377-1.818,0.753-3.635,1.15-5.449c0.143-0.652,0.691-0.301,1.033-0.313c0.547-0.016,0.126,0.387,0.168,0.598
		c0.006,0.025-0.006,0.055-0.01,0.082c-0.09,0.537-0.4,1.441-0.225,1.547c0.545,0.334,1.282,0.102,1.943,0.133
		c0.273,0.014,0.383-0.127,0.428-0.393c0.087-0.518,0.239-1.027,0.312-1.547c0.05-0.359,0.22-0.436,0.549-0.455
		c0.597-0.033,0.886,0.012,0.688,0.781c-0.412,1.607-0.741,3.242-1.016,4.881c-0.129,0.766-0.631,0.576-1.051,0.549
		c-0.65-0.039-0.217-0.482-0.195-0.732c0.031-0.385,0.094-0.779,0.226-1.139c0.276-0.756,0.021-1.006-0.731-0.883
		C119.787,78.363,119.674,78.348,119.425,78.348z"/>
	<path fill-rule="evenodd" clip-rule="evenodd" fill="#412218" d="M69.366,74.902c0.086,0.838-0.245,1.127-1.027,1.043
		c-0.63-0.066-1.275,0.016-1.911-0.02c-0.898-0.051-0.655,0.709-0.733,1.115c-0.116,0.605,0.457,0.291,0.704,0.314
		c0.577,0.055,1.164-0.008,1.744,0.031c0.213,0.014,0.649-0.24,0.614,0.254c-0.026,0.371-0.034,0.838-0.688,0.775
		c-0.687-0.064-1.385-0.018-2.078-0.014c-0.482,0.004-1.178,1.164-0.934,1.574c0.117,0.197,0.349,0.102,0.528,0.102
		c0.993,0.01,1.986,0.006,2.962,0.006c0.091,0.887-0.317,1.082-1.069,1.043c-1.133-0.059-2.272-0.033-3.408-0.006
		c-0.435,0.012-0.518-0.129-0.431-0.525c0.384-1.758,0.756-3.518,1.115-5.279c0.059-0.287,0.148-0.426,0.472-0.422
		C66.609,74.912,67.991,74.902,69.366,74.902z"/>
	<path fill-rule="evenodd" clip-rule="evenodd" fill="#412218" d="M163.87,80.084c0.056,0.859-0.317,1.088-1.079,1.045
		c-1.132-0.064-2.271-0.033-3.405-0.008c-0.43,0.008-0.524-0.137-0.438-0.533c0.378-1.729,0.765-3.455,1.091-5.195
		c0.087-0.459,0.3-0.5,0.667-0.496c1.163,0.012,2.326-0.006,3.489,0.016c0.183,0.002,0.6-0.189,0.494,0.275
		c-0.065,0.289,0.073,0.773-0.529,0.752c-0.802-0.031-1.608,0.027-2.409-0.018c-0.902-0.051-0.661,0.701-0.749,1.107
		c-0.132,0.615,0.445,0.305,0.688,0.326c0.605,0.055,1.219,0,1.827,0.027c0.214,0.01,0.65-0.195,0.544,0.33
		c-0.063,0.311-0.012,0.736-0.586,0.699c-0.717-0.047-1.439-0.014-2.16-0.008c-0.487,0.002-1.177,1.146-0.938,1.568
		c0.118,0.207,0.348,0.104,0.525,0.105C161.895,80.088,162.887,80.084,163.87,80.084z"/>
	<path fill-rule="evenodd" clip-rule="evenodd" fill="#44261D" d="M167.217,81.227c-1.319-0.012-2.176-0.586-2.316-1.561
		c-0.031-0.217-0.198-0.568,0.218-0.563c0.326,0.006,0.758-0.293,0.981,0.246c0.31,0.746,1.263,1.057,1.969,0.662
		c0.515-0.287,0.537-0.871,0.008-1.184c-0.475-0.281-0.992-0.486-1.49-0.727c-0.731-0.355-1.095-0.938-0.971-1.748
		c0.122-0.791,0.616-1.27,1.395-1.463c1.222-0.303,2.411,0.049,2.891,0.891c0.153,0.27,0.437,0.695,0.075,0.855
		c-0.293,0.129-0.847,0.395-1.121-0.234c-0.254-0.582-0.784-0.646-1.336-0.572c-0.314,0.041-0.605,0.178-0.678,0.523
		c-0.074,0.354,0.159,0.568,0.443,0.715c0.344,0.176,0.699,0.332,1.05,0.496c1.16,0.545,1.553,1.098,1.403,1.975
		c-0.156,0.924-0.977,1.582-2.105,1.686C167.495,81.236,167.355,81.227,167.217,81.227z"/>
	<path fill-rule="evenodd" clip-rule="evenodd" fill="#44261D" d="M77.939,81.234c-1.496,0-2.338-0.531-2.552-1.514
		c-0.047-0.217-0.229-0.572,0.153-0.598c0.347-0.021,0.813-0.346,1.062,0.258c0.303,0.736,1.307,1.025,1.988,0.611
		c0.51-0.309,0.507-0.861-0.045-1.18c-0.478-0.277-0.996-0.48-1.494-0.723c-0.74-0.359-1.049-0.955-0.932-1.766
		c0.112-0.775,0.598-1.221,1.328-1.422c1.273-0.354,2.564,0.057,2.993,0.98c0.107,0.23,0.433,0.623,0.023,0.764
		c-0.314,0.107-0.833,0.35-1.094-0.188c-0.337-0.693-0.899-0.734-1.544-0.58c-0.267,0.063-0.446,0.223-0.498,0.494
		c-0.054,0.285,0.094,0.494,0.326,0.617c0.439,0.234,0.89,0.445,1.343,0.652c0.758,0.346,1.323,0.824,1.242,1.756
		c-0.075,0.857-0.69,1.504-1.656,1.736C78.314,81.197,78.037,81.221,77.939,81.234z"/>
	<path fill-rule="evenodd" clip-rule="evenodd" fill="#44251C" d="M71.913,81.227c-1.319-0.01-2.146-0.564-2.327-1.555
		c-0.042-0.229-0.198-0.561,0.209-0.566c0.333-0.004,0.765-0.281,0.996,0.236c0.337,0.756,1.25,1.064,1.963,0.676
		c0.518-0.281,0.548-0.869,0.021-1.184c-0.473-0.281-0.992-0.486-1.49-0.727c-0.733-0.352-1.094-0.928-0.979-1.742
		c0.113-0.803,0.608-1.273,1.382-1.473c1.307-0.334,2.53,0.08,2.968,1.027c0.106,0.229,0.365,0.59,0.021,0.711
		c-0.322,0.113-0.831,0.359-1.085-0.156c-0.3-0.607-0.79-0.725-1.381-0.646c-0.318,0.043-0.606,0.184-0.686,0.52
		c-0.084,0.355,0.162,0.568,0.443,0.717c0.342,0.18,0.697,0.336,1.048,0.498c1.168,0.545,1.568,1.102,1.412,1.969
		c-0.169,0.938-0.971,1.586-2.1,1.693C72.191,81.236,72.052,81.227,71.913,81.227z"/>
	<path fill-rule="evenodd" clip-rule="evenodd" fill="#44251C" d="M115.985,79.172c-0.4,1.104-1.153,1.805-2.313,2.023
		c-1.622,0.307-2.776-0.574-2.938-2.217c-0.215-2.188,0.982-3.914,2.892-4.17c1.182-0.158,2.226,0.387,2.578,1.363
		c0.076,0.211,0.288,0.545-0.062,0.627c-0.325,0.076-0.732,0.336-1.051-0.078c-0.887-1.15-2.088-1.031-2.746,0.281
		c-0.289,0.576-0.441,1.197-0.37,1.85c0.065,0.586,0.298,1.08,0.922,1.244c0.597,0.158,1.091-0.057,1.479-0.518
		C114.998,78.836,114.994,78.834,115.985,79.172z"/>
	<path fill-rule="evenodd" clip-rule="evenodd" fill="#43241B" d="M130.023,78.553c-0.009-2.521,1.92-4.246,4.083-3.652
		c0.655,0.18,1.134,0.572,1.383,1.207c0.091,0.23,0.355,0.588-0.047,0.686c-0.325,0.078-0.752,0.398-1.08-0.16
		c-0.524-0.896-1.542-0.99-2.271-0.217c-0.711,0.752-0.926,1.693-0.751,2.695c0.091,0.516,0.402,0.916,0.972,1.01
		c0.647,0.105,1.12-0.172,1.491-0.688c0.146-0.203,0.141-0.588,0.545-0.512c0.297,0.055,0.702,0.031,0.858,0.213
		c0.215,0.252-0.123,0.543-0.275,0.779c-0.699,1.09-2.022,1.57-3.266,1.215C130.57,80.814,130.027,79.965,130.023,78.553z"/>
	<path fill-rule="evenodd" clip-rule="evenodd" fill="#42231A" d="M40.089,81.086c-0.61,0.139-0.7-0.104-0.587-0.609
		c0.367-1.646,0.725-3.297,1.037-4.953c0.098-0.521,0.323-0.666,0.821-0.633c0.634,0.043,1.273,0.002,1.911,0.014
		c1.138,0.02,1.707,0.416,1.853,1.273c0.167,0.98-0.472,2.088-1.387,2.395c-0.616,0.205-1.259,0.223-1.892,0.168
		c-0.57-0.051-0.792,0.18-0.842,0.713c-0.033,0.357-0.142,0.705-0.198,1.061C40.734,80.957,40.583,81.277,40.089,81.086z
		 M42.723,75.922c-1.023-0.004-1.228,0.27-1.279,1.463c-0.026,0.596,0.399,0.328,0.617,0.334c1.139,0.021,1.762-0.355,1.774-1.057
		C43.851,75.783,43.173,75.963,42.723,75.922z"/>
	<path fill-rule="evenodd" clip-rule="evenodd" fill="#42231A" d="M147.472,81.094c1.153-2.047,2.236-4.002,3.355-5.936
		c0.3-0.518,0.861-0.209,1.3-0.242c0.438-0.033,0.309,0.381,0.349,0.617c0.283,1.666,0.554,3.332,0.813,5
		c0.034,0.219,0.289,0.611-0.242,0.566c-0.329-0.027-0.922,0.266-0.905-0.367c0.026-1.053-0.603-0.969-1.332-1.006
		c-0.881-0.047-1.521,0.08-1.868,1.025C148.693,81.432,148.062,81.029,147.472,81.094z M151.361,76.354
		c-0.476,0.809-0.91,1.549-1.377,2.342c1.82,0.1,1.822,0.1,1.618-1.535C151.572,76.92,151.626,76.658,151.361,76.354z"/>
	<path fill-rule="evenodd" clip-rule="evenodd" fill="#42231A" d="M95.986,81.029c1.102-1.947,2.192-3.838,3.243-5.75
		c0.342-0.623,0.872-0.332,1.323-0.363c0.537-0.037,0.378,0.445,0.428,0.732c0.275,1.582,0.547,3.166,0.782,4.754
		c0.035,0.236,0.363,0.725-0.29,0.703c-0.363-0.012-0.893,0.215-0.873-0.504c0.018-0.697-0.31-0.979-1.018-0.863
		c-0.351,0.057-0.721,0.035-1.078,0.002c-0.395-0.035-0.637,0.111-0.756,0.479C97.477,81.057,96.896,81.293,95.986,81.029z
		 M98.434,78.732c0.594,0,1.053-0.008,1.512,0.002c0.316,0.008,0.387-0.16,0.322-0.418c-0.156-0.629-0.1-1.299-0.387-2.01
		C99.39,77.129,98.945,77.873,98.434,78.732z"/>
	<path fill-rule="evenodd" clip-rule="evenodd" fill="#412219" d="M63.196,77.426c0.114,0.908-0.317,1.082-1.062,1.049
		c-0.682-0.031-1.556-0.309-2.007,0.127c-0.398,0.385-0.405,1.229-0.479,1.883c-0.096,0.844-0.683,0.619-1.167,0.615
		c-0.338-0.004-0.2-0.277-0.167-0.434c0.369-1.791,0.765-3.574,1.116-5.367c0.076-0.391,0.279-0.402,0.576-0.4
		c1.11,0.008,2.22-0.004,3.329,0.01c0.182,0.002,0.53-0.129,0.464,0.25c-0.053,0.307,0.055,0.781-0.516,0.775
		c-0.721-0.008-1.443,0.025-2.163-0.008c-0.948-0.045-0.678,0.75-0.759,1.182c-0.115,0.613,0.468,0.279,0.706,0.297
		C61.778,77.461,62.498,77.426,63.196,77.426z"/>
	<path fill-rule="evenodd" clip-rule="evenodd" fill="#412218" d="M154.98,81.049c0.316-1.502,0.612-2.965,0.939-4.422
		c0.114-0.508,0.062-0.797-0.556-0.699c-0.188,0.029-0.39,0.025-0.579-0.002c-0.199-0.029-0.595,0.156-0.485-0.299
		c0.065-0.271-0.06-0.727,0.469-0.725c1.385,0.002,2.77,0,4.154,0c0.201,0,0.417,0,0.349,0.297c-0.064,0.273,0.03,0.643-0.39,0.727
		c-0.08,0.016-0.166,0.002-0.249,0.006c-1.3,0.074-1.302,0.074-1.589,1.4c-0.198,0.918-0.398,1.836-0.589,2.756
		C156.231,81.174,156.236,81.174,154.98,81.049z"/>
	<path fill-rule="evenodd" clip-rule="evenodd" fill="#42231A" d="M105.311,74.74c-0.344,1.654-0.592,3.072-0.945,4.463
		c-0.195,0.768,0.003,0.975,0.756,0.891c0.548-0.059,1.109-0.025,1.664-0.004c0.202,0.008,0.574-0.152,0.504,0.299
		c-0.047,0.301,0.025,0.721-0.483,0.723c-1.249,0.002-2.499-0.006-3.748,0.004c-0.376,0.002-0.308-0.232-0.263-0.445
		c0.375-1.791,0.738-3.584,1.143-5.367C104.138,74.42,104.818,75.182,105.311,74.74z"/>
	<path fill-rule="evenodd" clip-rule="evenodd" fill="#42231A" d="M144.125,80.092c1.077,0,2.096,0,3.11,0
		c0.03,0.766-0.202,1.096-1,1.041c-1.157-0.08-2.324-0.02-3.602-0.02c0.421-2.002,0.821-3.938,1.238-5.867
		c0.143-0.66,0.691-0.318,1.031-0.318c0.494-0.002,0.203,0.422,0.165,0.619C144.779,77.039,144.455,78.525,144.125,80.092z"/>
	<path fill-rule="evenodd" clip-rule="evenodd" fill="#43241B" d="M83.436,74.984c-0.391,1.893-0.789,3.781-1.163,5.674
		c-0.14,0.705-0.673,0.451-1.053,0.438c-0.583-0.023-0.23-0.461-0.188-0.68c0.289-1.494,0.621-2.979,0.928-4.467
		C82.195,74.797,82.188,74.795,83.436,74.984z"/>
	<path fill-rule="evenodd" clip-rule="evenodd" fill="#F9F8F7" d="M112.479,52.98c-0.086,0.477-0.416,0.902-0.783,1.26
		c-1.91,1.867-4.178,3.16-6.682,4.059c-0.358,0.129-0.652,0.082-0.893-0.213c-0.268-0.328-0.215-0.67,0.002-0.996
		c0.588-0.885,1.322-1.637,2.141-2.303c1.53-1.248,3.291-2.016,5.204-2.455C111.977,52.215,112.432,52.203,112.479,52.98z"/>
	<path fill-rule="evenodd" clip-rule="evenodd" fill="#F4F1F0" d="M112.213,47.076c-0.495,0-0.992-0.02-1.486,0.006
		c-0.531,0.027-0.565-0.215-0.354-0.594c0.404-0.726,3.234-1.21,3.834-0.645c0.26,0.245,0.508,0.567,0.367,0.946
		c-0.125,0.338-0.488,0.301-0.791,0.305c-0.523,0.004-1.047,0-1.57,0C112.213,47.088,112.213,47.082,112.213,47.076z"/>
</g>
</svg>
