<?xml version="1.0" encoding="utf-8"?>
<!-- Generator: Adobe Illustrator 16.0.2, SVG Export Plug-In . SVG Version: 6.00 Build 0)  -->
<!DOCTYPE svg PUBLIC "-//W3C//DTD SVG 1.1//EN" "http://www.w3.org/Graphics/SVG/1.1/DTD/svg11.dtd">
<svg version="1.1" id="Layer_1" xmlns="http://www.w3.org/2000/svg" xmlns:xlink="http://www.w3.org/1999/xlink" x="0px" y="0px"
	 width="70px" height="70px" viewBox="0 0 70 70" enable-background="new 0 0 70 70" xml:space="preserve">
<linearGradient id="SVGID_1_" gradientUnits="userSpaceOnUse" x1="319.001" y1="-224.9878" x2="383.999" y2="-224.9878" gradientTransform="matrix(1 0 0 -1 -316 -190)">
	<stop  offset="0" style="stop-color:#FFFFFF"/>
	<stop  offset="1" style="stop-color:#000000"/>
</linearGradient>
<circle fill="#FFFFFF" stroke="url(#SVGID_1_)" stroke-miterlimit="10" cx="35.5" cy="34.988" r="31.999"/>
<path fill="#2C67B5" d="M36.68,43.973c0,2.5-0.008,5,0.006,7.498c0.002,0.331-0.076,0.426-0.416,0.424
	c-1.926-0.018-3.853-0.019-5.778,0c-0.349,0.004-0.408-0.104-0.407-0.424c0.011-5,0.001-10,0.018-14.998
	c0.001-0.41-0.111-0.5-0.498-0.483c-0.779,0.032-1.561-0.009-2.34,0.018c-0.326,0.013-0.396-0.1-0.393-0.401
	c0.014-1.529,0.014-3.059,0-4.586c-0.003-0.292,0.072-0.382,0.37-0.375c0.812,0.021,1.624-0.009,2.436,0.015
	c0.327,0.01,0.429-0.066,0.424-0.411c-0.021-1.401-0.015-2.802-0.005-4.203c0.022-3.275,1.934-5.431,5.185-5.812
	c2.045-0.239,4.104-0.055,6.154-0.111c0.241-0.007,0.291,0.091,0.291,0.309c-0.009,1.656-0.013,3.312,0.002,4.968
	c0.002,0.292-0.142,0.291-0.353,0.29c-1.021-0.006-2.039-0.006-3.058-0.002c-1.008,0.004-1.625,0.628-1.625,1.639
	c0,0.939,0.021,1.879-0.01,2.818c-0.012,0.385,0.074,0.513,0.486,0.505c1.385-0.028,2.77-0.003,4.154-0.017
	c0.283-0.003,0.379,0.044,0.354,0.361c-0.119,1.556-0.33,3.1-0.521,4.647c-0.035,0.297-0.162,0.375-0.455,0.37
	c-1.179-0.019-2.356,0.011-3.535-0.018c-0.383-0.009-0.502,0.067-0.498,0.479C36.689,38.973,36.68,41.473,36.68,43.973z"/>
</svg>
