<?xml version="1.0" encoding="utf-8"?>
<!-- Generator: Adobe Illustrator 16.0.2, SVG Export Plug-In . SVG Version: 6.00 Build 0)  -->
<!DOCTYPE svg PUBLIC "-//W3C//DTD SVG 1.1//EN" "http://www.w3.org/Graphics/SVG/1.1/DTD/svg11.dtd">
<svg version="1.1" id="Layer_1" xmlns="http://www.w3.org/2000/svg" xmlns:xlink="http://www.w3.org/1999/xlink" x="0px" y="0px"
	 width="100px" height="100px" viewBox="0 0 100 100" enable-background="new 0 0 100 100" xml:space="preserve">
<g>
	<circle fill="#FFFFFF" cx="50" cy="50.348" r="47.5"/>
	<path display="none" fill="#15924D" d="M37.361,40.27c0-1.822-0.003-3.492,0-5.162c0.008-4.157,2.587-6.751,6.718-6.756
		c1.704-0.002,3.407-0.01,5.111,0.002c3.686,0.025,6.32,2.604,6.399,6.296c0.04,1.826,0.007,3.654,0.007,5.622
		c0.727,0,1.377-0.013,2.026,0.003c1.638,0.039,3.299-0.072,4.903,0.176c2.802,0.433,4.802,2.837,4.94,5.667
		c0.044,0.907,0.007,1.818,0.007,2.817c-5.775,0.238-10.746,2.269-14.744,6.406c-3.982,4.121-5.886,9.101-5.802,14.941
		c-2.099,0.004-4.185,0.37-6.132-0.646c-2.246-1.172-3.356-3.078-3.425-5.586c-0.041-1.482-0.009-2.965-0.01-4.449
		c0-0.336,0-0.674,0-1.119c-1.816,0-3.517-0.086-5.206,0.019c-3.947,0.242-6.976-2.892-6.778-6.789
		c0.088-1.73-0.001-3.469,0.019-5.204c0.04-3.521,2.738-6.203,6.272-6.234C33.523,40.256,35.377,40.27,37.361,40.27z M52.674,43.169
		c0-0.459,0-0.798,0-1.138c0-2.429,0.01-4.858-0.004-7.287c-0.012-2.1-1.303-3.43-3.412-3.474c-1.829-0.038-3.659-0.033-5.488-0.002
		c-2.169,0.036-3.463,1.344-3.481,3.506c-0.021,2.429-0.005,4.858-0.006,7.287c0,0.337,0,0.674,0,1.111c-0.473,0-0.814,0-1.155,0
		c-2.429-0.001-4.858-0.02-7.287,0.002c-2.033,0.018-3.448,1.251-3.526,3.187c-0.082,2.016-0.08,4.04,0,6.056
		c0.077,1.918,1.485,3.183,3.422,3.174c2.079-0.008,4.158-0.069,6.237-0.102c0.744-0.013,1.488-0.003,2.316-0.003
		c0,0.494,0,0.837,0,1.179c0.001,2.492-0.031,4.985,0.015,7.478c0.04,2.141,1.801,3.563,3.704,3.137
		c2.021-11.752,8.916-18.7,20.505-21.122c-0.136-1.795-1.438-2.967-3.435-2.991c-2.239-0.026-4.479,0-6.72,0.002
		C53.835,43.17,53.309,43.169,52.674,43.169z"/>
	<path display="none" fill="#15924D" d="M53.625,68.252c-1.382,0.57-2.764,1.141-4.412,1.82c0.282-1.777,0.432-3.369,0.799-4.908
		c0.88-3.689,2.554-6.98,5.341-9.613c3.965-3.746,8.811-4.887,14.069-4.393c2.397,0.225,4.761,0.861,7.126,1.371
		c0.285,0.063,0.672,0.479,0.703,0.768c0.506,4.469,0.012,8.82-1.855,12.936c-2.498,5.509-6.926,8.345-12.86,8.845
		c-1.777,0.149-3.584-0.068-5.377-0.063c-0.397,0.002-0.837,0.176-1.183,0.389c-1.215,0.75-2.174,1.902-3.742,2.087
		c-1.699,0.196-3.052-0.332-3.603-1.595c-0.583-1.338-0.109-3.229,1.05-4.174c1.341-1.092,2.688-2.18,4.031-3.27
		C53.684,68.385,53.654,68.318,53.625,68.252z M51.191,74.277c0.08,0.129,0.158,0.258,0.238,0.387
		c0.413-0.145,0.877-0.213,1.229-0.445c0.866-0.574,1.653-1.268,2.53-1.824c0.381-0.239,0.902-0.362,1.356-0.354
		c1.826,0.03,3.66,0.297,5.474,0.18c4.625-0.295,8.271-2.303,10.451-6.551c1.625-3.164,2.078-6.586,2.053-10.09
		c-0.002-0.259-0.338-0.681-0.592-0.744c-3.076-0.789-6.197-1.187-9.363-0.658c-6.01,1-9.512,4.781-11.369,10.353
		c-0.072,0.219-0.098,0.451-0.172,0.813c2.498-1.047,4.85-2.028,7.199-3.014c2.465-1.033,2.465-1.033,3.724,1.291
		c0.026,0.051,0.018,0.123,0.032,0.25c-2.127,1.723-4.287,3.463-6.437,5.215C55.427,70.813,53.268,72.496,51.191,74.277z"/>
</g>
<g display="none">
	<path display="inline" fill="#15924D" d="M28.763,48.732c-0.12-0.187-0.206-0.355-0.324-0.499c-1.003-1.221-1.282-2.64-1.018-4.148
		c0.183-1.042,0.745-1.924,1.534-2.642c1.282-1.167,2.831-1.496,4.454-1.127c1.55,0.352,2.718,1.333,3.343,2.833
		c0.669,1.605,0.561,3.171-0.405,4.647c-0.199,0.304-0.405,0.603-0.621,0.925c1.313,0.68,2.4,1.567,3.35,2.63
		c0.957,1.073,1.524,2.342,1.897,3.787c1.428-0.982,2.86-1.824,4.513-2.388c-0.245-0.187-0.441-0.336-0.639-0.485
		c-1.686-1.269-2.955-2.891-3.373-4.952c-0.753-3.706,0.015-6.719,3.383-9.378c3.221-2.544,8.427-2.18,11.284,0.72
		c1.299,1.32,2.35,2.78,2.646,4.621c0.592,3.683-0.508,6.752-3.544,9.038c-0.177,0.131-0.351,0.264-0.582,0.438
		c1.655,0.543,3.075,1.417,4.519,2.373c0.381-1.433,0.952-2.711,1.918-3.788c0.944-1.054,2.023-1.935,3.313-2.605
		c-0.076-0.134-0.138-0.261-0.216-0.378c-0.129-0.195-0.268-0.383-0.398-0.576c-1.646-2.448-0.665-5.881,2.037-7.132
		c2.295-1.063,5.118-0.19,6.318,1.985c1.043,1.887,0.896,3.708-0.332,5.459c-0.141,0.199-0.274,0.401-0.436,0.634
		c0.256,0.146,0.479,0.264,0.691,0.396c2.867,1.76,4.582,4.232,4.744,7.665c0.029,0.632-0.355,1.118-0.928,1.162
		c-0.56,0.045-1.002-0.375-1.027-1.028c-0.057-1.383-0.463-2.652-1.229-3.798c-2.791-4.172-9.02-4.029-11.638,0.259
		c-0.574,0.939-0.906,1.956-1.011,3.049c-0.016,0.165,0.048,0.368,0.143,0.512c0.707,1.078,1.508,2.104,2.135,3.228
		c1.139,2.03,1.605,4.258,1.66,6.577c0.014,0.619-0.431,1.118-0.98,1.12c-0.522,0.003-0.951-0.489-0.977-1.104
		c-0.158-3.964-1.666-7.298-4.756-9.818c-5.486-4.475-13.263-3.764-17.919,1.611c-2.009,2.317-2.981,5.053-3.115,8.104
		c-0.01,0.229-0.036,0.477-0.133,0.677c-0.193,0.396-0.665,0.597-1.035,0.498c-0.48-0.129-0.792-0.508-0.786-0.985
		c0.044-3.342,1.069-6.345,3.109-8.994c0.136-0.177,0.25-0.377,0.41-0.526c0.441-0.416,0.459-0.894,0.355-1.457
		c-0.661-3.577-3.844-6.052-7.472-5.782c-2.924,0.219-5.495,2.489-6.153,5.452c-0.096,0.435-0.136,0.88-0.176,1.321
		c-0.061,0.674-0.432,1.099-0.982,1.093c-0.569-0.006-1.001-0.488-0.983-1.166c0.03-1.088,0.272-2.14,0.677-3.149
		c0.871-2.177,2.477-3.663,4.49-4.766C28.571,48.833,28.64,48.798,28.763,48.732z M56.988,45.111
		c0.021-3.781-3.094-6.914-6.899-6.937c-3.752-0.023-6.929,3.14-6.942,6.914c-0.015,3.791,3.091,6.896,6.917,6.917
		C53.882,52.023,56.969,48.953,56.988,45.111z M32.207,48.073c1.567,0.002,3.026-1.44,3.019-2.983
		c-0.009-1.538-1.453-2.959-3.006-2.961c-1.487-0.001-2.973,1.494-2.964,2.982C29.265,46.591,30.739,48.07,32.207,48.073z
		 M64.924,45.098c0,1.505,1.487,2.978,3.004,2.974c1.516-0.004,2.947-1.429,2.954-2.938c0.007-1.571-1.411-2.999-2.983-3.006
		C66.41,42.122,64.924,43.606,64.924,45.098z"/>
</g>
<g display="none">
	<path display="inline" fill="#15924D" d="M63.878,68.294c-9.267,0-18.532,0-27.799,0c-0.009-0.033-0.036-0.038-0.063-0.047
		c-0.775-0.259-1.144-0.769-1.145-1.578c0-0.937,0-1.872,0-2.81c0.001-1.381,0.159-2.744,0.551-4.071
		c1.307-4.431,4.065-7.629,8.223-9.628c0.245-0.118,0.495-0.223,0.746-0.333c-0.016-0.023-0.021-0.036-0.032-0.045
		c-0.043-0.037-0.089-0.074-0.132-0.111c-2.631-2.292-3.729-5.156-3.133-8.61c0.623-3.603,3.61-6.549,7.211-7.193
		c0.291-0.052,0.594-0.05,0.874-0.161c0.519,0,1.038,0,1.555,0c0.014,0.048,0.054,0.039,0.086,0.041
		c0.853,0.066,1.677,0.258,2.471,0.569c5.641,2.208,7.594,9.064,3.947,13.855c-0.467,0.616-1.012,1.156-1.615,1.639
		c0.021,0.018,0.029,0.029,0.042,0.036c0.039,0.018,0.078,0.037,0.118,0.053c2.705,1.125,4.914,2.877,6.613,5.263
		c1.459,2.049,2.342,4.328,2.642,6.823c0.196,1.635,0.103,3.281,0.095,4.922c-0.002,0.615-0.492,1.174-1.085,1.333
		C63.991,68.256,63.914,68.212,63.878,68.294z M50.006,65.826c4.1,0,8.198,0,12.297-0.002c0.186,0,0.428,0.082,0.538-0.037
		c0.11-0.118,0.029-0.357,0.032-0.542c0.018-1.233-0.023-2.46-0.283-3.675c-1.395-6.518-7.785-11.182-14.896-9.904
		c-3.256,0.585-5.904,2.232-7.928,4.854c-1.416,1.832-2.25,3.91-2.529,6.213c-0.116,0.955-0.066,1.914-0.091,2.869
		c-0.005,0.203,0.062,0.229,0.24,0.229C41.591,65.824,45.799,65.826,50.006,65.826z M50.007,49.241
		c3.617,0.004,6.558-2.909,6.569-6.507c0.012-3.601-2.924-6.533-6.556-6.548c-3.609-0.016-6.579,2.928-6.585,6.525
		C43.429,46.305,46.379,49.238,50.007,49.241z"/>
	<path display="inline" fill="#15924D" d="M28.815,59.042c0.092-0.242,0.076-0.503,0.115-0.754c0.629-3.989,2.719-6.957,6.241-8.921
		c0.167-0.093,0.11-0.141,0.025-0.24c-1.266-1.487-1.929-3.211-1.822-5.162c0.165-3.021,1.662-5.204,4.368-6.54
		c1.069-0.528,2.215-0.752,3.411-0.691c0.034,0.001,0.068,0.007,0.138,0.015c-0.148,0.225-0.272,0.432-0.416,0.625
		c-0.548,0.738-0.978,1.541-1.276,2.409c-0.045,0.131-0.116,0.193-0.242,0.238c-1.017,0.372-1.866,0.982-2.534,1.838
		c-1.412,1.809-0.9,4.033,0.296,5.368c0.449,0.5,0.986,0.874,1.6,1.148c0.84,0.377,1.178,1.272,0.767,2.021
		c-0.226,0.413-0.579,0.665-1.037,0.779c-3.053,0.772-5.209,2.595-6.407,5.517c-0.434,1.058-0.612,2.17-0.611,3.312
		c0,0.31,0.008,0.62-0.003,0.931c-0.006,0.146,0.032,0.192,0.187,0.189c0.568-0.01,1.137-0.004,1.721-0.004
		c-0.067,0.406-0.137,0.8-0.198,1.193c-0.067,0.428-0.099,0.858-0.089,1.291c0.003,0.138-0.03,0.188-0.178,0.187
		c-0.843-0.008-1.686,0.002-2.529-0.006c-0.696-0.007-1.233-0.408-1.463-1.071c-0.015-0.043,0.001-0.105-0.063-0.126
		C28.815,61.404,28.815,60.225,28.815,59.042z"/>
	<path display="inline" fill="#15924D" d="M71.186,62.587c-0.057,0.015-0.045,0.067-0.058,0.104
		c-0.235,0.685-0.75,1.076-1.472,1.088c-0.852,0.013-1.7,0.002-2.551,0.005c-0.102,0-0.158-0.013-0.156-0.138
		c0.015-0.805-0.106-1.594-0.272-2.377c-0.034-0.16,0.027-0.155,0.144-0.154c0.613,0.003,1.225,0.001,1.837,0.002
		c0.088,0,0.161,0.016,0.163-0.124c0.002-1.06,0.023-2.118-0.252-3.155c-0.865-3.258-2.914-5.408-6.101-6.484
		c-0.217-0.074-0.44-0.127-0.665-0.18c-0.644-0.15-1.146-0.694-1.205-1.313c-0.06-0.615,0.301-1.204,0.91-1.48
		c1.57-0.715,2.494-1.92,2.737-3.632c0.153-1.081-0.196-2.015-0.877-2.839c-0.728-0.88-1.644-1.498-2.711-1.888
		c-0.144-0.051-0.22-0.126-0.269-0.269c-0.283-0.836-0.697-1.605-1.217-2.321c-0.154-0.213-0.295-0.438-0.456-0.678
		c0.373-0.068,0.724-0.049,1.067-0.008c2.851,0.345,4.982,1.773,6.164,4.393c1.287,2.853,0.836,5.54-1.129,7.971
		c-0.117,0.146-0.115,0.187,0.05,0.28c3.353,1.866,5.396,4.688,6.133,8.451c0.072,0.373,0.119,0.755,0.144,1.136
		c0.002,0.039-0.017,0.09,0.039,0.109C71.186,60.252,71.186,61.419,71.186,62.587z"/>
</g>
<path display="none" fill-rule="evenodd" clip-rule="evenodd" fill="#FFFFFF" d="M28.102,29.449c14.656,0,29.313,0,43.97,0
	c0,14.657,0,29.313,0,43.97c-14.656,0-29.313,0-43.97,0C28.102,58.763,28.102,44.106,28.102,29.449z M35.386,41.73
	c-0.497,0-0.996-0.002-1.494,0c-1.745,0.007-2.87,1.132-2.87,2.878c-0.001,5.695-0.001,11.391,0.001,17.086
	c0,0.214,0,0.432,0.039,0.642c0.235,1.289,1.304,2.204,2.617,2.232c0.709,0.016,1.42,0.003,2.115,0.003
	c0.493,2.22,2.039,3.591,4.116,3.668c0.925,0.034,1.782-0.224,2.546-0.754c1.014-0.704,1.591-1.691,1.814-2.89
	c4.214,0,8.401,0,12.58,0c0.786,2.44,2.186,3.641,4.24,3.652c2.06,0.012,3.507-1.219,4.285-3.677c0.368,0,0.752,0.01,1.135-0.002
	c1.477-0.045,2.629-1.202,2.637-2.677c0.013-2.404,0.013-4.809-0.01-7.213c-0.002-0.257-0.129-0.568-0.302-0.761
	c-1.709-1.889-3.444-3.753-5.164-5.633c-0.606-0.663-1.342-0.984-2.242-0.978c-1.817,0.012-3.635,0.004-5.452,0.004
	c-0.151,0-0.303,0-0.481,0c0-1.013,0.015-1.97-0.004-2.927c-0.021-1.046-0.497-1.857-1.434-2.316
	c-0.421-0.205-0.925-0.293-1.398-0.326c-0.764-0.052-1.534-0.014-2.297-0.014c-0.325-4.189-3.58-6.977-7.234-7.099
	C39.031,34.495,35.575,37.705,35.386,41.73z"/>
<path fill-rule="evenodd" clip-rule="evenodd" fill="#15924D" stroke="#15924D" stroke-miterlimit="10" d="M34.166,40.924
	c0.205-4.359,3.947-7.835,8.386-7.688c3.957,0.132,7.482,3.151,7.834,7.688c0.826,0,1.661-0.041,2.488,0.015
	c0.513,0.035,1.059,0.13,1.515,0.353c1.014,0.497,1.53,1.375,1.552,2.508c0.021,1.036,0.005,2.072,0.005,3.17
	c0.193,0,0.357,0,0.521,0c1.968,0,3.937,0.009,5.904-0.004c0.976-0.006,1.771,0.341,2.429,1.059
	c1.862,2.036,3.741,4.055,5.593,6.101c0.188,0.208,0.324,0.546,0.326,0.824c0.024,2.604,0.024,5.207,0.011,7.812
	c-0.008,1.597-1.256,2.851-2.855,2.898c-0.414,0.013-0.83,0.003-1.229,0.003c-0.844,2.662-2.411,3.994-4.642,3.981
	c-2.225-0.013-3.74-1.313-4.592-3.955c-4.525,0-9.061,0-13.625,0c-0.242,1.298-0.867,2.366-1.965,3.129
	c-0.828,0.574-1.755,0.854-2.758,0.816c-2.25-0.083-3.924-1.568-4.458-3.972c-0.752,0-1.522,0.014-2.29-0.004
	c-1.423-0.03-2.58-1.021-2.834-2.417c-0.042-0.228-0.042-0.464-0.042-0.695c-0.002-6.168-0.002-12.337-0.001-18.505
	c0-1.891,1.219-3.109,3.108-3.117C33.087,40.922,33.628,40.924,34.166,40.924z M34.236,42.226c-0.551,0-1.075-0.001-1.6,0
	c-0.155,0-0.311-0.006-0.464,0.013c-0.831,0.104-1.428,0.766-1.428,1.62c-0.005,6.291-0.005,12.583,0,18.875
	c0,0.805,0.507,1.49,1.299,1.572c0.851,0.088,1.719,0.021,2.572,0.021c0.525-2.367,2.201-3.854,4.447-3.935
	c1.002-0.037,1.931,0.239,2.758,0.813c1.098,0.763,1.726,1.829,1.965,3.124c3.629,0,7.231,0,10.825,0
	c0.015-0.061,0.028-0.09,0.028-0.119c0.001-6.803,0.006-13.605,0-20.408c-0.001-0.758-0.498-1.436-1.258-1.506
	c-1.006-0.093-2.025-0.023-3.036-0.023c-0.633,4.52-4.502,7.335-8.499,7.116C38.216,49.19,34.821,46.494,34.236,42.226z
	 M49.069,41.324c0.008-3.753-3-6.803-6.726-6.82c-3.767-0.017-6.833,3.005-6.851,6.752c-0.018,3.746,3.04,6.823,6.783,6.826
	C46.014,48.083,49.062,45.053,49.069,41.324z M57.427,64.341c0.034-0.132,0.066-0.251,0.094-0.37
	c0.469-2.028,2.209-3.469,4.328-3.582c1.986-0.107,3.872,1.188,4.539,3.116c0.3,0.862,0.3,0.862,1.233,0.857
	c1.166-0.007,1.81-0.649,1.81-1.815c0.003-2.246,0.001-4.493,0-6.739c0-0.148-0.014-0.297-0.02-0.432c-4.512,0-8.98,0-13.44,0
	c0,3.006,0,5.975,0,8.965C56.454,64.341,56.914,64.341,57.427,64.341z M68.532,54.023c-0.099-0.124-0.142-0.187-0.192-0.241
	c-1.521-1.651-3.041-3.302-4.562-4.952c-0.356-0.386-0.796-0.563-1.323-0.562c-2.044,0.007-4.087,0.002-6.131,0.004
	c-0.117,0-0.235,0.02-0.345,0.029c0,1.926,0,3.821,0,5.721C60.158,54.023,64.303,54.023,68.532,54.023z M39.214,68.363
	c1.835-0.008,3.335-1.529,3.314-3.358c-0.022-1.821-1.519-3.286-3.345-3.275c-1.829,0.011-3.307,1.487-3.312,3.308
	C35.867,66.869,37.377,68.371,39.214,68.363z M62.021,61.729c-1.843,0.004-3.308,1.466-3.312,3.305
	c-0.004,1.84,1.467,3.326,3.292,3.329c1.854,0.003,3.339-1.479,3.34-3.334C65.342,63.205,63.854,61.726,62.021,61.729z"/>
<path display="none" fill-rule="evenodd" clip-rule="evenodd" fill="#FFFFFF" d="M35.451,42.932c0.54,3.941,3.675,6.431,7.027,6.614
	c3.69,0.202,7.263-2.398,7.848-6.571c0.933,0,1.875-0.064,2.803,0.021c0.701,0.064,1.16,0.69,1.161,1.391
	c0.005,6.281,0.001,12.562,0,18.843c0,0.027-0.013,0.055-0.026,0.11c-3.318,0-6.644,0-9.995,0c-0.221-1.195-0.801-2.181-1.814-2.885
	c-0.764-0.53-1.621-0.785-2.547-0.751c-2.074,0.074-3.621,1.447-4.106,3.633c-0.788,0-1.589,0.063-2.375-0.019
	c-0.731-0.076-1.199-0.709-1.2-1.452c-0.004-5.81-0.004-11.619,0-17.427c0-0.788,0.552-1.399,1.319-1.496
	c0.142-0.018,0.286-0.011,0.429-0.012C34.458,42.931,34.942,42.932,35.451,42.932z"/>
<path display="none" fill-rule="evenodd" clip-rule="evenodd" fill="#FFFFFF" d="M49.147,42.099
	c-0.007,3.443-2.821,6.241-6.273,6.239c-3.456-0.002-6.28-2.844-6.263-6.302c0.017-3.46,2.848-6.25,6.326-6.234
	C46.377,35.817,49.155,38.634,49.147,42.099z M42.271,39.813c0,0.7-0.023,1.402,0.013,2.101c0.012,0.23,0.126,0.507,0.288,0.669
	c0.677,0.677,1.386,1.322,2.09,1.971c0.354,0.327,0.68,0.345,0.941,0.075c0.274-0.283,0.231-0.61-0.142-0.963
	c-0.581-0.551-1.179-1.084-1.745-1.65c-0.131-0.131-0.23-0.36-0.233-0.545c-0.021-1.229-0.009-2.459-0.012-3.688
	c-0.001-0.486-0.233-0.774-0.608-0.769c-0.374,0.005-0.591,0.288-0.593,0.784C42.27,38.469,42.271,39.141,42.271,39.813z"/>
<path display="none" fill-rule="evenodd" clip-rule="evenodd" fill="#FFFFFF" d="M56.864,63.352c-0.474,0-0.898,0-1.345,0
	c0-2.761,0-5.502,0-8.277c4.118,0,8.244,0,12.41,0c0.006,0.124,0.019,0.262,0.019,0.398c0.001,2.074,0.002,4.148,0,6.223
	c0,1.076-0.595,1.67-1.671,1.676c-0.862,0.005-0.862,0.005-1.139-0.791c-0.616-1.781-2.357-2.977-4.191-2.878
	c-1.957,0.104-3.563,1.435-3.996,3.308C56.926,63.12,56.896,63.229,56.864,63.352z"/>
<path display="none" fill-rule="evenodd" clip-rule="evenodd" fill="#FFFFFF" d="M67.118,53.825c-3.905,0-7.731,0-11.59,0
	c0-1.755,0-3.504,0-5.283c0.101-0.009,0.21-0.027,0.318-0.027c1.887-0.002,3.773,0.002,5.66-0.004
	c0.487-0.001,0.893,0.162,1.222,0.518c1.404,1.524,2.809,3.048,4.212,4.573C66.987,53.653,67.027,53.711,67.118,53.825z"/>
<path display="none" fill-rule="evenodd" clip-rule="evenodd" fill="#FFFFFF" d="M40.048,67.065
	c-1.696,0.008-3.09-1.379-3.086-3.071c0.004-1.681,1.369-3.044,3.058-3.054c1.686-0.01,3.068,1.343,3.088,3.024
	C43.128,65.653,41.742,67.059,40.048,67.065z"/>
<path display="none" fill-rule="evenodd" clip-rule="evenodd" fill="#FFFFFF" d="M61.105,60.94c1.693-0.004,3.067,1.362,3.066,3.047
	c-0.001,1.713-1.372,3.081-3.084,3.078c-1.686-0.002-3.043-1.375-3.04-3.073C58.052,62.294,59.404,60.944,61.105,60.94z"/>
<path fill-rule="evenodd" clip-rule="evenodd" fill="#15924D" stroke="#15924D" stroke-miterlimit="10" d="M41.623,38.848
	c0-0.728-0.002-1.455,0-2.183c0.002-0.538,0.237-0.844,0.642-0.85c0.405-0.006,0.657,0.306,0.658,0.833
	c0.003,1.332-0.009,2.664,0.013,3.995c0.003,0.201,0.11,0.449,0.252,0.591c0.613,0.612,1.26,1.19,1.889,1.787
	c0.404,0.383,0.451,0.736,0.153,1.043c-0.283,0.292-0.636,0.272-1.02-0.081c-0.762-0.704-1.53-1.401-2.263-2.135
	c-0.175-0.175-0.298-0.475-0.312-0.724C41.597,40.366,41.623,39.606,41.623,38.848z"/>
</svg>
