<?xml version="1.0" encoding="utf-8"?>
<!-- Generator: Adobe Illustrator 16.0.2, SVG Export Plug-In . SVG Version: 6.00 Build 0)  -->
<!DOCTYPE svg PUBLIC "-//W3C//DTD SVG 1.1//EN" "http://www.w3.org/Graphics/SVG/1.1/DTD/svg11.dtd">
<svg version="1.1" id="Layer_1" xmlns="http://www.w3.org/2000/svg" xmlns:xlink="http://www.w3.org/1999/xlink" x="0px" y="0px"
	 width="100px" height="100px" viewBox="0 0 100 100" enable-background="new 0 0 100 100" xml:space="preserve">
<g>
	<circle fill-rule="evenodd" clip-rule="evenodd" fill="#FFFFFF" cx="50" cy="50.348" r="47.5"/>
	<path display="none" fill-rule="evenodd" clip-rule="evenodd" fill="#15924D" d="M37.361,40.27c0-1.822-0.003-3.492,0-5.162
		c0.008-4.157,2.587-6.751,6.718-6.756c1.704-0.002,3.407-0.01,5.111,0.002c3.686,0.025,6.32,2.604,6.399,6.296
		c0.04,1.826,0.007,3.654,0.007,5.622c0.726,0,1.377-0.013,2.026,0.003c1.638,0.039,3.299-0.072,4.904,0.176
		c2.801,0.433,4.801,2.837,4.94,5.667c0.044,0.907,0.007,1.818,0.007,2.817c-5.776,0.238-10.747,2.269-14.745,6.406
		c-3.982,4.121-5.885,9.1-5.801,14.941c-2.099,0.004-4.185,0.371-6.132-0.645c-2.246-1.172-3.356-3.078-3.425-5.586
		c-0.041-1.482-0.009-2.965-0.01-4.449c0-0.336,0-0.674,0-1.119c-1.816,0-3.517-0.086-5.206,0.018
		c-3.947,0.242-6.976-2.891-6.778-6.789c0.088-1.73-0.001-3.469,0.019-5.204c0.04-3.521,2.738-6.203,6.272-6.234
		C33.523,40.256,35.377,40.27,37.361,40.27z M52.674,43.169c0-0.459,0-0.798,0-1.138c0-2.429,0.01-4.858-0.004-7.287
		c-0.012-2.1-1.303-3.43-3.412-3.474c-1.829-0.038-3.659-0.033-5.488-0.002c-2.169,0.036-3.463,1.344-3.481,3.506
		c-0.021,2.429-0.005,4.858-0.006,7.287c0,0.337,0,0.674,0,1.111c-0.473,0-0.814,0-1.155,0c-2.429-0.001-4.858-0.02-7.287,0.002
		c-2.033,0.018-3.448,1.251-3.526,3.187c-0.082,2.016-0.08,4.04,0,6.056c0.077,1.918,1.485,3.182,3.422,3.174
		c2.079-0.008,4.158-0.07,6.237-0.102c0.744-0.012,1.488-0.002,2.316-0.002c0,0.494,0,0.836,0,1.178
		c0.001,2.492-0.031,4.986,0.015,7.477c0.04,2.141,1.801,3.563,3.704,3.137c2.021-11.752,8.916-18.7,20.505-21.122
		c-0.136-1.795-1.438-2.967-3.435-2.991c-2.239-0.026-4.479,0-6.719,0.002C53.835,43.17,53.309,43.169,52.674,43.169z"/>
	<path display="none" fill-rule="evenodd" clip-rule="evenodd" fill="#15924D" d="M53.625,68.252
		c-1.382,0.57-2.764,1.141-4.412,1.82c0.282-1.777,0.432-3.369,0.799-4.908c0.88-3.689,2.554-6.98,5.341-9.613
		c3.966-3.746,8.811-4.887,14.07-4.393c2.398,0.225,4.761,0.861,7.126,1.371c0.285,0.063,0.671,0.48,0.703,0.768
		c0.506,4.469,0.012,8.82-1.855,12.936c-2.498,5.508-6.926,8.344-12.861,8.844c-1.777,0.15-3.584-0.068-5.377-0.063
		c-0.397,0.002-0.837,0.176-1.183,0.389c-1.215,0.75-2.174,1.902-3.741,2.086c-1.7,0.197-3.053-0.332-3.603-1.594
		c-0.583-1.338-0.109-3.23,1.05-4.174c1.342-1.092,2.688-2.18,4.031-3.27C53.684,68.385,53.654,68.318,53.625,68.252z
		 M51.191,74.277c0.08,0.129,0.159,0.258,0.239,0.387c0.413-0.145,0.876-0.213,1.229-0.445c0.866-0.574,1.654-1.268,2.531-1.824
		c0.38-0.24,0.902-0.363,1.356-0.355c1.826,0.031,3.66,0.297,5.473,0.18c4.625-0.295,8.271-2.303,10.451-6.551
		c1.625-3.164,2.079-6.586,2.053-10.09c-0.002-0.258-0.338-0.68-0.591-0.744c-3.077-0.789-6.197-1.186-9.364-0.658
		c-6.009,1-9.511,4.781-11.369,10.352c-0.072,0.219-0.097,0.451-0.172,0.814c2.499-1.047,4.85-2.029,7.2-3.014
		c2.465-1.033,2.465-1.033,3.723,1.291c0.027,0.051,0.018,0.123,0.032,0.25c-2.127,1.723-4.286,3.463-6.436,5.215
		C55.427,70.813,53.267,72.496,51.191,74.277z"/>
</g>
<g display="none">
	<path display="inline" fill-rule="evenodd" clip-rule="evenodd" fill="#15924D" d="M28.763,48.732
		c-0.12-0.187-0.206-0.355-0.324-0.499c-1.003-1.221-1.282-2.64-1.018-4.148c0.183-1.042,0.745-1.924,1.534-2.642
		c1.282-1.167,2.831-1.496,4.454-1.127c1.55,0.352,2.718,1.333,3.343,2.833c0.669,1.605,0.561,3.171-0.405,4.647
		c-0.199,0.304-0.405,0.603-0.621,0.925c1.313,0.68,2.4,1.567,3.35,2.631c0.957,1.073,1.524,2.342,1.897,3.786
		c1.428-0.982,2.86-1.823,4.513-2.387c-0.245-0.187-0.441-0.336-0.639-0.485c-1.686-1.269-2.955-2.891-3.373-4.952
		c-0.753-3.706,0.015-6.719,3.383-9.378c3.221-2.544,8.427-2.18,11.283,0.72c1.3,1.32,2.35,2.78,2.647,4.621
		c0.592,3.683-0.507,6.752-3.544,9.038c-0.176,0.131-0.351,0.263-0.582,0.438c1.656,0.543,3.076,1.417,4.518,2.373
		c0.381-1.432,0.953-2.711,1.918-3.788c0.945-1.054,2.024-1.935,3.314-2.605c-0.076-0.134-0.138-0.261-0.215-0.378
		c-0.129-0.195-0.269-0.383-0.399-0.576c-1.646-2.448-0.665-5.881,2.037-7.132c2.295-1.063,5.118-0.19,6.319,1.985
		c1.042,1.887,0.896,3.708-0.333,5.459c-0.141,0.199-0.274,0.401-0.435,0.634c0.255,0.146,0.478,0.264,0.691,0.396
		c2.867,1.76,4.582,4.232,4.745,7.665c0.029,0.632-0.356,1.118-0.928,1.162c-0.56,0.045-1.002-0.375-1.028-1.028
		c-0.056-1.383-0.463-2.652-1.229-3.798c-2.791-4.172-9.019-4.029-11.637,0.259c-0.574,0.939-0.906,1.956-1.011,3.048
		c-0.016,0.166,0.048,0.369,0.143,0.513c0.707,1.078,1.507,2.104,2.135,3.227c1.138,2.03,1.605,4.258,1.66,6.577
		c0.014,0.619-0.431,1.118-0.98,1.12c-0.523,0.003-0.952-0.489-0.977-1.104c-0.158-3.964-1.666-7.298-4.756-9.818
		c-5.486-4.475-13.263-3.764-17.919,1.61c-2.009,2.318-2.981,5.054-3.115,8.104c-0.01,0.229-0.036,0.477-0.133,0.677
		c-0.193,0.396-0.665,0.597-1.035,0.498c-0.48-0.129-0.792-0.508-0.786-0.986c0.044-3.341,1.069-6.344,3.109-8.993
		c0.136-0.177,0.25-0.377,0.41-0.527c0.441-0.416,0.459-0.893,0.355-1.457c-0.661-3.577-3.844-6.052-7.472-5.782
		c-2.924,0.219-5.495,2.489-6.153,5.452c-0.096,0.434-0.136,0.88-0.176,1.322c-0.061,0.673-0.432,1.098-0.982,1.092
		c-0.569-0.006-1.001-0.488-0.983-1.166c0.03-1.088,0.272-2.14,0.677-3.15c0.871-2.176,2.477-3.662,4.49-4.765
		C28.571,48.833,28.64,48.798,28.763,48.732z M56.989,45.111c0.021-3.781-3.095-6.914-6.9-6.937
		c-3.752-0.023-6.929,3.14-6.942,6.914c-0.015,3.791,3.091,6.896,6.917,6.917C53.882,52.024,56.969,48.953,56.989,45.111z
		 M32.207,48.073c1.567,0.002,3.026-1.44,3.019-2.983c-0.009-1.538-1.453-2.959-3.006-2.961c-1.487-0.001-2.973,1.494-2.964,2.982
		C29.265,46.591,30.739,48.07,32.207,48.073z M64.924,45.098c0,1.505,1.487,2.978,3.004,2.974c1.515-0.004,2.947-1.429,2.954-2.938
		c0.006-1.571-1.412-2.999-2.983-3.006C66.41,42.122,64.924,43.606,64.924,45.098z"/>
</g>
<g>
	<path fill-rule="evenodd" clip-rule="evenodd" fill="#15924D" d="M63.878,68.294c-9.267,0-18.532,0-27.799,0
		c-0.009-0.033-0.036-0.038-0.063-0.047c-0.775-0.259-1.144-0.768-1.145-1.578c0-0.937,0-1.872,0-2.81
		c0.001-1.381,0.159-2.744,0.551-4.071c1.307-4.431,4.065-7.629,8.223-9.628c0.245-0.118,0.495-0.223,0.746-0.333
		c-0.016-0.023-0.021-0.036-0.032-0.045c-0.043-0.037-0.089-0.074-0.132-0.111c-2.631-2.292-3.729-5.156-3.133-8.61
		c0.623-3.603,3.61-6.549,7.211-7.193c0.291-0.052,0.594-0.05,0.874-0.161c0.519,0,1.038,0,1.556,0
		c0.013,0.048,0.053,0.039,0.086,0.041c0.852,0.066,1.676,0.258,2.47,0.569c5.64,2.208,7.594,9.064,3.948,13.855
		c-0.467,0.616-1.013,1.156-1.616,1.639c0.021,0.018,0.03,0.029,0.042,0.036c0.039,0.018,0.078,0.037,0.118,0.053
		c2.706,1.125,4.915,2.877,6.614,5.263c1.459,2.049,2.341,4.328,2.641,6.823c0.196,1.635,0.102,3.281,0.095,4.922
		c-0.002,0.615-0.493,1.174-1.085,1.333C63.991,68.256,63.914,68.212,63.878,68.294z M50.006,65.826c4.099,0,8.198,0,12.297-0.002
		c0.185,0,0.427,0.082,0.538-0.037c0.11-0.118,0.029-0.357,0.032-0.542c0.017-1.233-0.023-2.46-0.283-3.675
		c-1.395-6.517-7.785-11.182-14.896-9.904c-3.256,0.585-5.904,2.233-7.928,4.854c-1.416,1.831-2.25,3.909-2.529,6.212
		c-0.116,0.955-0.066,1.914-0.091,2.87c-0.005,0.203,0.062,0.229,0.24,0.228C41.591,65.824,45.799,65.826,50.006,65.826z
		 M50.007,49.241c3.617,0.004,6.558-2.909,6.569-6.507c0.012-3.601-2.923-6.533-6.556-6.548c-3.609-0.016-6.579,2.928-6.585,6.525
		C43.429,46.305,46.379,49.238,50.007,49.241z"/>
	<path fill-rule="evenodd" clip-rule="evenodd" fill="#15924D" d="M28.815,59.042c0.092-0.242,0.076-0.503,0.115-0.754
		c0.629-3.989,2.719-6.957,6.241-8.921c0.167-0.093,0.11-0.141,0.025-0.24c-1.266-1.487-1.929-3.211-1.822-5.162
		c0.165-3.021,1.662-5.204,4.368-6.54c1.069-0.528,2.215-0.752,3.411-0.691c0.034,0.001,0.068,0.007,0.138,0.015
		c-0.148,0.225-0.272,0.432-0.416,0.625c-0.548,0.738-0.978,1.541-1.276,2.409c-0.045,0.131-0.116,0.193-0.242,0.238
		c-1.017,0.372-1.866,0.982-2.534,1.838c-1.412,1.809-0.9,4.033,0.296,5.368c0.449,0.5,0.986,0.874,1.6,1.148
		c0.84,0.377,1.178,1.272,0.767,2.021c-0.226,0.412-0.579,0.664-1.037,0.779c-3.053,0.772-5.209,2.594-6.407,5.517
		c-0.434,1.057-0.612,2.169-0.611,3.311c0,0.31,0.008,0.62-0.003,0.93c-0.006,0.147,0.032,0.193,0.187,0.19
		c0.568-0.01,1.137-0.004,1.721-0.004c-0.067,0.406-0.137,0.8-0.198,1.193c-0.067,0.428-0.099,0.859-0.089,1.292
		c0.003,0.137-0.03,0.187-0.178,0.186c-0.843-0.008-1.686,0.002-2.529-0.006c-0.696-0.006-1.233-0.408-1.463-1.071
		c-0.015-0.043,0.001-0.106-0.063-0.126C28.815,61.404,28.815,60.224,28.815,59.042z"/>
	<path fill-rule="evenodd" clip-rule="evenodd" fill="#15924D" d="M71.185,62.587c-0.056,0.015-0.045,0.067-0.057,0.104
		c-0.236,0.685-0.75,1.077-1.472,1.088c-0.851,0.013-1.7,0.002-2.55,0.005c-0.102,0-0.159-0.013-0.157-0.138
		c0.015-0.804-0.106-1.593-0.272-2.377c-0.034-0.159,0.027-0.155,0.144-0.154c0.612,0.003,1.224,0.001,1.836,0.002
		c0.088,0,0.162,0.016,0.163-0.124c0.002-1.059,0.024-2.118-0.251-3.155c-0.866-3.258-2.915-5.408-6.101-6.485
		c-0.217-0.074-0.441-0.127-0.665-0.179c-0.644-0.15-1.146-0.694-1.206-1.313c-0.059-0.615,0.301-1.204,0.911-1.48
		c1.57-0.715,2.494-1.92,2.737-3.632c0.153-1.081-0.196-2.015-0.877-2.839c-0.728-0.88-1.644-1.498-2.711-1.888
		c-0.144-0.051-0.22-0.126-0.269-0.269c-0.282-0.836-0.697-1.605-1.216-2.321c-0.154-0.213-0.295-0.438-0.456-0.678
		c0.373-0.068,0.724-0.049,1.067-0.008c2.851,0.345,4.982,1.773,6.164,4.393c1.288,2.853,0.836,5.54-1.128,7.971
		c-0.118,0.146-0.116,0.187,0.049,0.28c3.353,1.866,5.395,4.688,6.133,8.451c0.072,0.373,0.119,0.754,0.143,1.135
		c0.002,0.04-0.016,0.09,0.04,0.11C71.185,60.252,71.185,61.419,71.185,62.587z"/>
</g>
</svg>
