<?xml version="1.0" encoding="utf-8"?>
<!-- Generator: Adobe Illustrator 16.0.2, SVG Export Plug-In . SVG Version: 6.00 Build 0)  -->
<!DOCTYPE svg PUBLIC "-//W3C//DTD SVG 1.1//EN" "http://www.w3.org/Graphics/SVG/1.1/DTD/svg11.dtd">
<svg version="1.1" id="Layer_1" xmlns="http://www.w3.org/2000/svg" xmlns:xlink="http://www.w3.org/1999/xlink" x="0px" y="0px"
	 width="70px" height="70px" viewBox="0 0 70 70" enable-background="new 0 0 70 70" xml:space="preserve">
<linearGradient id="SVGID_1_" gradientUnits="userSpaceOnUse" x1="319.001" y1="-224.9878" x2="383.999" y2="-224.9878" gradientTransform="matrix(1 0 0 -1 -316 -190)">
	<stop  offset="0" style="stop-color:#FFFFFF"/>
	<stop  offset="1" style="stop-color:#000000"/>
</linearGradient>
<circle fill="#FFFFFF" stroke="url(#SVGID_1_)" stroke-miterlimit="10" cx="35.5" cy="34.988" r="31.999"/>
<path display="none" fill="#FFFFFF" d="M36.68,43.973c0,2.5-0.008,5,0.006,7.498c0.002,0.331-0.076,0.426-0.416,0.424
	c-1.926-0.018-3.853-0.019-5.778,0c-0.349,0.004-0.408-0.104-0.407-0.424c0.011-5,0.001-10,0.018-14.998
	c0.001-0.41-0.111-0.5-0.498-0.483c-0.779,0.032-1.561-0.009-2.34,0.018c-0.326,0.013-0.396-0.1-0.393-0.401
	c0.014-1.529,0.014-3.059,0-4.586c-0.003-0.292,0.072-0.382,0.37-0.375c0.812,0.021,1.624-0.009,2.436,0.015
	c0.327,0.01,0.429-0.066,0.424-0.411c-0.021-1.401-0.015-2.802-0.005-4.203c0.022-3.275,1.934-5.431,5.185-5.812
	c2.045-0.239,4.104-0.055,6.154-0.111c0.241-0.007,0.291,0.091,0.291,0.309c-0.009,1.656-0.013,3.312,0.002,4.968
	c0.002,0.292-0.142,0.291-0.353,0.29c-1.021-0.006-2.039-0.006-3.058-0.002c-1.008,0.004-1.625,0.628-1.625,1.639
	c0,0.939,0.021,1.879-0.01,2.818c-0.012,0.385,0.074,0.513,0.486,0.505c1.385-0.028,2.77-0.003,4.154-0.017
	c0.283-0.003,0.379,0.044,0.354,0.361c-0.119,1.556-0.33,3.1-0.521,4.647c-0.035,0.297-0.162,0.375-0.455,0.37
	c-1.179-0.019-2.356,0.011-3.535-0.018c-0.383-0.009-0.502,0.067-0.498,0.479C36.689,38.973,36.68,41.473,36.68,43.973z"/>
<path display="none" fill="#FFFFFF" d="M29.43,41.583c-1.585-0.108-2.942-0.696-4.051-1.836c-0.607-0.625-1.246-1.702-1.32-2.265
	c0.844,0.142,1.678,0.129,2.506-0.1c-0.291-0.091-0.583-0.17-0.861-0.285c-2.037-0.863-3.27-2.372-3.66-4.557
	c-0.051-0.282-0.071-0.566-0.078-0.852c-0.002-0.113,0.026-0.137,0.129-0.081c0.678,0.369,1.406,0.574,2.17,0.659
	c0.093,0.01,0.187,0.034,0.31,0c-1.25-0.896-2.077-2.063-2.412-3.555c-0.335-1.494-0.109-2.903,0.649-4.253
	c0.204,0.23,0.393,0.45,0.588,0.664c2.372,2.587,5.262,4.291,8.688,5.076c0.871,0.199,1.756,0.312,2.646,0.373
	c0.146,0.01,0.166-0.024,0.137-0.163c-0.644-3.278,1.495-6.4,4.792-6.941c1.952-0.32,3.659,0.241,5.091,1.608
	c0.128,0.124,0.242,0.151,0.409,0.112c1.176-0.267,2.285-0.693,3.331-1.29c0.035-0.02,0.066-0.052,0.141-0.041
	c-0.447,1.331-1.267,2.363-2.417,3.15c1.101-0.11,2.146-0.42,3.173-0.851c-0.021,0.121-0.088,0.184-0.138,0.254
	c-0.712,1.003-1.556,1.877-2.541,2.612c-0.144,0.107-0.201,0.222-0.198,0.404c0.064,4.958-1.679,9.193-5.184,12.678
	c-2.271,2.261-5.042,3.621-8.19,4.213c-0.849,0.158-1.706,0.246-2.569,0.281c-3.38,0.146-6.515-0.668-9.414-2.404
	c-0.073-0.043-0.145-0.092-0.214-0.159C24.078,44.266,26.918,43.501,29.43,41.583z"/>
<path display="none" fill="#FFFFFF" d="M25.328,33.875c0-1.852-0.003-3.705,0.001-5.557c0.002-1.086,0.398-2.002,1.224-2.717
	c0.508-0.438,1.1-0.705,1.769-0.794c0.22-0.03,0.442-0.042,0.664-0.042c3.701,0,7.403,0,11.103,0c1.08,0,1.997,0.379,2.718,1.193
	c0.59,0.667,0.862,1.461,0.863,2.345c0.002,3.749,0.012,7.497-0.01,11.245c-0.01,1.502-0.73,2.591-2.096,3.231
	c-0.442,0.209-0.92,0.287-1.408,0.287c-3.771,0.002-7.541,0.017-11.313-0.006c-1.502-0.008-2.587-0.735-3.226-2.103
	c-0.217-0.464-0.286-0.964-0.287-1.474c0-1.87,0-3.74,0-5.61C25.331,33.875,25.329,33.875,25.328,33.875z M34.66,27.32
	c-0.484,0-0.968-0.004-1.451,0.001c-0.75,0.007-1.499,0.016-2.242,0.128c-1.418,0.214-2.543,1.27-2.842,2.671
	c-0.147,0.691-0.158,1.393-0.169,2.094c-0.02,1.25-0.026,2.502,0.015,3.752c0.018,0.544,0.022,1.091,0.159,1.623
	c0.333,1.293,1.126,2.157,2.413,2.541c0.585,0.175,1.195,0.202,1.8,0.209c1.673,0.021,3.349,0.048,5.021-0.041
	c1.063-0.057,2.004-0.403,2.724-1.241c0.431-0.502,0.688-1.074,0.783-1.722c0.104-0.704,0.106-1.417,0.122-2.126
	c0.023-1.15,0.025-2.301-0.016-3.452c-0.018-0.487-0.012-0.978-0.106-1.458c-0.196-0.99-0.664-1.808-1.544-2.351
	c-0.609-0.376-1.275-0.542-1.985-0.571C36.445,27.341,35.553,27.327,34.66,27.32z"/>
<path fill="#2C67B5" d="M34.75,47.771c-2.213,0.049-4.428,0.111-6.639-0.019c-0.948-0.056-1.899-0.136-2.801-0.46
	c-2.047-0.734-3.176-2.225-3.562-4.339c-0.275-1.511-0.26-3.033-0.273-4.558c-0.03-3.527-0.01-7.057,0.156-10.583
	c0.14-2.948,2.153-5.052,4.837-5.425c0.84-0.116,1.681-0.178,2.527-0.193c3.831-0.068,7.663-0.081,11.493,0.024
	c1.217,0.034,2.422,0.195,3.521,0.759c1.746,0.894,2.652,2.369,2.924,4.285c0.211,1.494,0.237,2.995,0.254,4.499
	c0.024,2.505,0.033,5.01-0.021,7.516c-0.027,1.252-0.051,2.507-0.283,3.742c-0.457,2.414-1.979,3.953-4.384,4.492
	c-1.021,0.23-2.054,0.239-3.083,0.252C37.859,47.787,36.305,47.771,34.75,47.771z M42.344,35.025
	c0.012-4.364-3.576-7.996-7.912-8.012c-4.463-0.017-8.099,3.523-8.112,7.897c-0.014,4.474,3.533,8.097,7.936,8.109
	C38.723,43.029,42.334,39.461,42.344,35.025z M44.564,26.688c0.004-1.08-0.84-1.944-1.906-1.953
	c-1.064-0.008-1.922,0.855-1.924,1.934c0,1.068,0.832,1.92,1.888,1.935C43.689,28.618,44.563,27.758,44.564,26.688z"/>
<path fill="#2C67B5" d="M28.372,35.057c0.001-3.307,2.657-5.963,5.96-5.962c3.303,0.001,5.966,2.663,5.964,5.962
	c-0.002,3.302-2.659,5.96-5.964,5.966C31.035,41.027,28.37,38.359,28.372,35.057z"/>
</svg>
