<?xml version="1.0" encoding="utf-8"?>
<!-- Generator: Adobe Illustrator 16.0.2, SVG Export Plug-In . SVG Version: 6.00 Build 0)  -->
<!DOCTYPE svg PUBLIC "-//W3C//DTD SVG 1.1//EN" "http://www.w3.org/Graphics/SVG/1.1/DTD/svg11.dtd">
<svg version="1.1" id="Layer_1" xmlns="http://www.w3.org/2000/svg" xmlns:xlink="http://www.w3.org/1999/xlink" x="0px" y="0px"
	 width="208.833px" height="100px" viewBox="0 0 208.833 100" enable-background="new 0 0 208.833 100" xml:space="preserve">
<rect x="3" y="2.383" fill="#FFFFFF" stroke="#B3B3B3" stroke-miterlimit="10" width="203.833" height="95.617"/>
<g>
	<path fill-rule="evenodd" clip-rule="evenodd" fill="#BF2F1D" d="M138.598,64.198c-4.193,0-8.217,0-12.267,0
		c0.102-0.327,0.372-0.395,0.563-0.538c1.474-1.12,2.465-2.548,2.925-4.357c1.612-6.332,3.257-12.656,4.85-18.993
		c0.2-0.798,0.516-1.11,1.371-1.195c3.981-0.393,7.956-0.634,11.925,0.062c2.996,0.524,5.37,1.866,6.205,5.044
		c0.707,2.69-0.17,5.051-1.71,7.195c-1.695,2.358-4.147,3.396-7.128,3.66c1.813,3.561,4.757,4.672,8.508,4.376
		c-0.799,2.471-2.079,4.402-4.656,4.969c-2.676,0.588-4.931-0.234-6.497-2.563c-0.906-1.348-1.72-2.759-2.592-4.131
		c-0.482-0.759-1.019-1.461-1.925-1.785c-0.434-0.156-0.636-0.076-0.745,0.38c-0.311,1.302-0.703,2.586-0.959,3.898
		C136.139,61.89,136.795,63.096,138.598,64.198z M142.528,43.02c0-0.009-0.001-0.018-0.002-0.026
		c-0.411,0.031-0.822,0.066-1.234,0.093c-0.359,0.023-0.568,0.18-0.656,0.555c-0.554,2.352-1.123,4.7-1.69,7.048
		c-0.068,0.285-0.078,0.507,0.312,0.51c2.025,0.011,4.029-0.113,5.741-1.362c1.392-1.015,2.026-3.074,1.533-4.714
		c-0.387-1.285-1.668-2.03-3.621-2.104C142.783,43.016,142.655,43.02,142.528,43.02z"/>
	<path fill-rule="evenodd" clip-rule="evenodd" fill="#BF2F1D" d="M104.141,39.167c3.59,0,6.998,0,10.587,0
		c-2.401,1.428-2.967,3.801-3.604,6.103c-0.938,3.379-1.817,6.774-2.683,10.172c-0.563,2.203,0.054,3.738,1.664,4.354
		c2.158,0.823,4.635,0.043,5.563-1.826c0.942-1.896,1.388-3.968,1.912-6.004c0.777-3.025,1.535-6.055,2.272-9.09
		c0.302-1.243,0.209-2.464-0.544-3.651c3.437,0,6.771,0,10.4,0c-2.799,1.4-3.272,3.938-3.889,6.414
		c-1.001,4.022-2.095,8.021-3.049,12.055c-0.954,4.028-3.789,5.794-7.539,6.477c-3.066,0.558-6.159,0.685-9.22-0.056
		c-3.964-0.959-5.529-3.519-4.582-7.505c1.06-4.469,2.174-8.925,3.273-13.384C105.041,41.864,105.261,40.522,104.141,39.167z"/>
	<path fill-rule="evenodd" clip-rule="evenodd" fill="#BF2F1C" d="M70.932,39.225c-3.471,5.764-3.758,12.125-4.082,18.461
		c-0.12,2.359,0.25,4.65,2.183,6.51c-3.851,0-7.551,0-11.384,0c1.3-1.35,1.874-2.929,2.181-4.645c0.1-0.563-0.073-0.646-0.56-0.642
		c-1.723,0.02-3.446,0.024-5.169-0.001c-0.453-0.007-0.665,0.167-0.87,0.552c-0.75,1.411-1.596,2.763-2.808,3.84
		c-1.505,1.336-3.241,1.612-5.082,0.928c-1.817-0.675-2.527-2.226-2.83-4.014c-0.059-0.346-0.135-0.673,0.43-0.735
		c2.631-0.288,4.42-1.861,5.756-3.995c1.318-2.106,2.352-4.38,3.716-6.464c1.922-2.935,4.08-5.636,7.213-7.383
		C62.732,39.905,66.897,39.008,70.932,39.225z M62.634,45.303c-1.168,0.317-1.919,1.207-2.678,2.04
		c-1.738,1.912-3.059,4.099-4.179,6.551c1.399,0,2.666-0.041,3.928,0.017c0.662,0.031,0.881-0.231,0.976-0.828
		c0.283-1.791,0.753-3.539,1.212-5.292c0.221-0.843,0.719-1.604,0.729-2.506c0.041,0,0.082,0,0.122,0
		c-0.002-0.026-0.005-0.052-0.008-0.078C62.702,45.239,62.668,45.271,62.634,45.303z"/>
	<path fill-rule="evenodd" clip-rule="evenodd" fill="#BF2F1D" d="M183.534,39.183c-3.09,4.789-3.494,10.094-4.034,15.362
		c-0.101,0.982-0.155,1.975-0.155,2.963c0.001,2.419,0.219,4.785,2.216,6.69c-3.858,0-7.562,0-11.404,0
		c1.324-1.318,1.847-2.896,2.196-4.559c0.113-0.539,0.004-0.743-0.588-0.731c-1.691,0.032-3.384,0.029-5.076-0.001
		c-0.489-0.009-0.744,0.169-0.963,0.588c-0.635,1.222-1.392,2.363-2.351,3.361c-1.465,1.524-3.238,2.01-5.243,1.429
		c-1.97-0.569-2.744-2.146-3.084-4.008c-0.056-0.306-0.275-0.713,0.335-0.781c3.036-0.339,4.879-2.282,6.306-4.752
		c0.973-1.685,1.868-3.415,2.866-5.083c1.332-2.226,2.872-4.298,4.821-6.036c3.577-3.186,7.904-4.252,12.542-4.44
		C182.393,39.167,182.87,39.183,183.534,39.183z M175.34,45.184c-0.628,0.14-1.024,0.477-1.409,0.791
		c-2.448,2-3.994,4.664-5.422,7.414c-0.273,0.527,0.058,0.503,0.408,0.502c1.146-0.002,2.293-0.034,3.436,0.013
		c0.598,0.024,0.736-0.243,0.832-0.759C173.678,50.486,174.287,47.857,175.34,45.184z"/>
	<path fill-rule="evenodd" clip-rule="evenodd" fill="#BF2F1D" d="M50.718,26.829c5.024-0.24,8.756-0.401,12.484-0.612
		c0.722-0.041,0.8,0.148,0.595,0.78c-0.334,1.03-0.579,2.088-0.881,3.129c-0.723,2.488-2.114,3.612-4.723,3.881
		c-2.35,0.242-4.641-0.301-6.956-0.5c-6.358-0.546-12.673-1.54-19.052-1.866c-1.562-0.08-3.132-0.086-4.648,0.411
		c-0.362,0.119-0.727,0.248-1.063,0.425c-1.028,0.54-1.963,1.237-1.889,2.526c0.082,1.41,1.067,2.194,2.315,2.637
		c1.842,0.652,3.729,0.477,5.579,0.092c0.942-0.196,0.927,0.134,0.772,0.837c-0.883,3.997-4.494,6.258-8.466,5.238
		c-2.55-0.655-4.593-2.044-5.884-4.394c-1.401-2.553-0.883-5.359,1.38-7.47c1.83-1.706,4.108-2.524,6.472-3.14
		c3.452-0.9,6.997-1.063,10.532-1.267C42.194,27.255,47.104,27.018,50.718,26.829z"/>
	<path fill-rule="evenodd" clip-rule="evenodd" fill="#BF2F1C" d="M78.129,62.154c0.877-1.25,1.294-2.675,1.651-4.14
		c1.186-4.862,2.401-9.719,3.63-14.571c0.17-0.671,0.19-0.92-0.653-0.712c-3.338,0.825-6.258,2.34-8.563,4.94
		c-0.103,0.116-0.185,0.265-0.465,0.246c0.594-2.348,1.182-4.683,1.778-7.016c0.451-1.767,0.456-1.766,2.25-1.766
		c7.055,0,14.11,0,21.165,0c1.07,0,1.07,0,0.784,1.072c-0.681,2.555-1.362,5.109-2.084,7.819c-0.694-1.138-1.327-2.159-2.176-3.018
		c-1.122-1.136-2.396-1.984-4.001-2.293c-0.575-0.111-0.852-0.016-1.01,0.604c-1.386,5.437-2.805,10.865-4.209,16.296
		c-0.32,1.237-0.134,2.399,0.555,3.479c-0.275,0.19,0.484,0.816-0.396,0.804c-2.902-0.04-5.805-0.018-8.708-0.011
		c-0.304,0.001-0.423-0.084-0.296-0.386l0.004-0.003c0.71-0.156,0.714-0.678,0.64-1.239c0,0,0.038-0.042,0.038-0.041
		c0.047,0.02,0.094,0.039,0.141,0.059C78.178,62.235,78.153,62.194,78.129,62.154z"/>
	<path fill-rule="evenodd" clip-rule="evenodd" fill="#BF301D" d="M26.595,64.173c-0.368,0.079-0.736,0.086-1.103,0.008
		c-0.012-0.276,0.22-0.312,0.363-0.417c1.676-1.255,2.916-2.831,3.645-4.81c1.829-4.964,3.475-9.992,5.196-14.993
		c1.773-5.152,5.251-8.492,10.657-9.673c0.31-0.068,0.63-0.095,0.947-0.128c0.11-0.012,0.224,0.013,0.432,0.027
		c-0.677,0.803-1.32,1.5-1.89,2.252c-1.966,2.595-2.922,5.656-3.816,8.71c-1.396,4.771-2.654,9.581-3.962,14.377
		c-0.414,1.519-0.23,2.88,0.964,4.052c0.264,0.259,0.675,0.175,0.887,0.651c-0.372-0.022-0.687-0.041-1.002-0.06
		c-0.082-0.088-0.163-0.252-0.245-0.253c-3.714-0.022-7.428-0.042-11.141-0.015C26.208,63.903,26.589,64.07,26.595,64.173z"/>
	<path fill-rule="evenodd" clip-rule="evenodd" fill="#5C5C5E" d="M148.066,71.865c-0.431,1.191-0.876,2.378-1.288,3.576
		c-0.152,0.443-0.26,0.819-0.873,0.8c-0.559-0.019-0.668-0.362-0.805-0.771c-0.4-1.204-0.821-2.4-1.431-3.586
		c0,1.171-0.002,2.343,0.001,3.515c0.001,0.418,0.074,0.838-0.584,0.841c-0.664,0.004-0.586-0.421-0.585-0.837
		c0.002-1.372-0.009-2.744,0.006-4.115c0.005-0.414-0.176-0.995,0.511-1.034c0.641-0.037,1.374-0.213,1.683,0.676
		c0.373,1.072,0.78,2.133,1.28,3.492c0.485-1.287,0.879-2.3,1.248-3.321c0.19-0.523,0.456-0.856,1.087-0.884
		c0.794-0.033,1.169,0.172,1.128,1.062c-0.065,1.433-0.027,2.87-0.01,4.306c0.006,0.427-0.101,0.654-0.58,0.649
		c-0.452-0.004-0.609-0.178-0.602-0.63c0.022-1.237,0.008-2.474,0.008-3.711C148.196,71.884,148.131,71.874,148.066,71.865z"/>
	<path fill-rule="evenodd" clip-rule="evenodd" fill="#5D5D5F" d="M133.312,73.234c0.021-2.252,1.396-3.403,3.621-3.029
		c0.385,0.064,0.739,0.207,1.052,0.437c1.08,0.795,1.314,3.333,0.429,4.592c-0.803,1.141-2.884,1.48-4.065,0.645
		C133.433,75.229,133.304,74.255,133.312,73.234z M134.612,73.029c-0.016,1.736,0.621,2.445,1.825,2.212
		c1.069-0.207,1.159-1.077,1.22-1.913c0.085-1.158-0.332-1.918-1.079-2.119c-0.796-0.214-1.578,0.185-1.828,0.976
		C134.644,72.514,134.635,72.873,134.612,73.029z"/>
	<path fill-rule="evenodd" clip-rule="evenodd" fill="#5F5F61" d="M43.071,72.976c0.748,0.449,1.111,1.063,0.865,1.929
		c-0.246,0.859-0.923,1.16-1.727,1.268c-2.542,0.337-2.542,0.336-2.542-2.193c0-1.018,0.012-2.037-0.005-3.055
		c-0.008-0.481,0.176-0.706,0.67-0.69c0.508,0.018,1.021-0.031,1.525,0.013c0.673,0.059,1.34,0.18,1.665,0.903
		C43.845,71.866,43.563,72.441,43.071,72.976z M40.871,74.393c-0.084,0.547,0.01,0.918,0.711,0.857
		c0.573-0.049,1.128-0.094,1.114-0.83c-0.014-0.729-0.577-0.766-1.143-0.813C40.923,73.555,40.774,73.851,40.871,74.393z
		 M40.857,72.023c-0.051,0.414,0.011,0.749,0.632,0.689c0.507-0.049,0.889-0.22,0.902-0.762c0.015-0.616-0.421-0.748-0.956-0.788
		C40.752,71.113,40.857,71.563,40.857,72.023z"/>
	<path fill-rule="evenodd" clip-rule="evenodd" fill="#626263" d="M88.247,73.308c0,0.765-0.019,1.531,0.006,2.296
		c0.018,0.533-0.263,0.638-0.714,0.636c-0.473-0.002-0.601-0.239-0.572-0.664c0.022-0.317-0.039-0.645,0.01-0.955
		c0.13-0.823-0.233-0.954-0.997-0.994c-0.99-0.051-1.328,0.261-1.17,1.212c0.046,0.28-0.005,0.574,0.01,0.86
		c0.025,0.439-0.23,0.539-0.599,0.54c-0.384,0-0.694-0.044-0.69-0.554c0.013-1.626,0.017-3.252,0-4.878
		c-0.005-0.482,0.232-0.601,0.648-0.6c0.424,0,0.669,0.15,0.643,0.614c-0.014,0.255,0.03,0.516-0.009,0.765
		c-0.127,0.808,0.221,0.971,0.994,1.011c0.998,0.053,1.325-0.276,1.169-1.218c-0.036-0.218,0.002-0.446-0.003-0.669
		c-0.014-0.462,0.294-0.493,0.638-0.497c0.358-0.005,0.635,0.068,0.633,0.513c-0.005,0.86-0.002,1.721-0.002,2.582
		C88.243,73.308,88.245,73.308,88.247,73.308z"/>
	<path fill-rule="evenodd" clip-rule="evenodd" fill="#5D5D5E" d="M59.22,74.442c0.007,1.614-0.187,1.813-1.828,1.871
		c-1.449,0.053-2.512-0.525-2.985-1.623c-0.527-1.219-0.236-2.905,0.644-3.74c0.844-0.8,2.59-1.043,3.685-0.548
		c0.475,0.214,0.626,0.583,0.47,1.004c-0.203,0.545-0.527,0.063-0.764-0.017c-0.861-0.294-1.7-0.405-2.417,0.283
		c-0.669,0.644-0.705,1.469-0.489,2.311c0.218,0.853,0.902,1.314,1.778,1.275c0.505-0.021,0.732-0.211,0.718-0.759
		c-0.013-0.489-0.07-0.805-0.665-0.734c-0.332,0.039-0.654-0.008-0.662-0.471c-0.01-0.533,0.363-0.508,0.723-0.507
		c0.032,0,0.064,0,0.096,0C59.619,72.788,59.173,72.685,59.22,74.442z"/>
	<path fill-rule="evenodd" clip-rule="evenodd" fill="#5D5D5F" d="M170.326,70.579c0.85,1.014,1.252,2.297,2.117,3.651
		c0-1.185-0.019-2.085,0.009-2.985c0.012-0.419-0.245-1.04,0.577-1.024c0.75,0.015,0.524,0.589,0.53,0.98
		c0.021,1.336,0.018,2.672-0.004,4.008c-0.006,0.37,0.201,0.9-0.441,0.978c-0.55,0.066-1.061,0.053-1.365-0.578
		c-0.47-0.972-1-1.914-1.517-2.863c-0.101-0.185-0.122-0.433-0.445-0.563c-0.025,0.446-0.047,0.864-0.07,1.283
		c-0.186,0.125-0.186,0.25-0.001,0.377c-0.001,0.702-0.002,1.405-0.003,2.108c-0.588,0.085-0.786-0.174-0.767-0.755
		c0.036-1.017,0.011-2.035,0.011-3.054C168.957,70.729,168.957,70.729,170.326,70.579z"/>
	<path fill-rule="evenodd" clip-rule="evenodd" fill="#5D5D5F" d="M27.974,70.23c0.527-0.09,0.817,0.1,0.99,0.631
		c0.501,1.54,1.066,3.06,1.587,4.594c0.087,0.257,0.378,0.656-0.167,0.746c-0.379,0.062-0.845,0.188-1.052-0.363
		c-0.128-0.342-0.078-0.872-0.5-0.952c-0.552-0.104-1.141-0.054-1.711-0.021c-0.471,0.028-0.461,0.479-0.538,0.791
		c-0.146,0.592-0.561,0.668-1.02,0.542c-0.579-0.159-0.212-0.565-0.12-0.842c0.494-1.478,1.038-2.938,1.515-4.419
		C27.133,70.391,27.397,70.113,27.974,70.23z M27.911,71.469c-0.169,0.495-0.268,0.781-0.365,1.068
		c-0.504,1.494-0.503,1.494,1.143,1.251C28.449,73.072,28.212,72.368,27.911,71.469z"/>
	<path fill-rule="evenodd" clip-rule="evenodd" fill="#5D5D5E" d="M67.338,76.227c-0.576,0.119-0.774-0.249-0.853-0.683
		c-0.188-1.04-0.999-0.613-1.589-0.709c-0.6-0.1-0.986,0.115-1.075,0.744c-0.072,0.509-0.359,0.7-0.861,0.652
		c-0.347-0.032-0.559-0.115-0.415-0.525c0.592-1.68,1.189-3.356,1.759-5.042c0.171-0.508,0.555-0.432,0.929-0.448
		c0.402-0.018,0.742,0.017,0.903,0.494c0.561,1.658,1.14,3.308,1.73,4.955C68.083,76.268,67.667,76.199,67.338,76.227z
		 M65.141,71.481c-0.265,0.781-0.4,1.301-0.614,1.784c-0.251,0.568,0.006,0.596,0.481,0.632c0.803,0.063,1.03-0.174,0.672-0.928
		C65.495,72.577,65.38,72.152,65.141,71.481z"/>
	<path fill-rule="evenodd" clip-rule="evenodd" fill="#5D5D5E" d="M162.655,70.221c0.536-0.119,0.8,0.175,0.977,0.711
		c0.497,1.51,1.041,3.003,1.559,4.507c0.093,0.269,0.388,0.652-0.132,0.757c-0.363,0.074-0.842,0.217-1.063-0.333
		c-0.138-0.344-0.098-0.884-0.491-0.971c-0.547-0.121-1.139-0.051-1.711-0.043c-0.439,0.005-0.428,0.392-0.535,0.676
		c-0.121,0.318-0.17,0.687-0.645,0.712c-0.514,0.027-0.832-0.067-0.616-0.684c0.567-1.618,1.144-3.235,1.688-4.861
		C161.852,70.198,162.21,70.21,162.655,70.221z M162.553,71.461c-0.264,0.777-0.47,1.363-0.658,1.955
		c-0.055,0.173-0.126,0.417,0.159,0.445c0.375,0.038,0.813,0.159,1.111-0.073c0.239-0.186-0.007-0.524-0.093-0.785
		C162.926,72.555,162.771,72.107,162.553,71.461z"/>
	<path fill-rule="evenodd" clip-rule="evenodd" fill="#626263" d="M113.261,73.219c0-0.731,0.01-1.463-0.004-2.195
		c-0.009-0.541,0.177-0.829,0.779-0.8c0.698,0.036,1.398,0.016,2.099,0.007c0.38-0.006,0.709,0.007,0.695,0.528
		c-0.013,0.548-0.407,0.47-0.745,0.484c-0.254,0.012-0.512,0.023-0.763-0.003c-0.532-0.054-0.813,0.058-0.809,0.704
		c0.004,0.635,0.274,0.766,0.809,0.707c0.188-0.021,0.381-0.002,0.571-0.003c0.295-0.002,0.58-0.02,0.597,0.411
		c0.018,0.424-0.185,0.571-0.575,0.551c-0.19-0.01-0.386,0.023-0.572-0.006c-0.711-0.11-0.811,0.248-0.829,0.87
		c-0.021,0.709,0.313,0.784,0.863,0.737c0.315-0.026,0.637,0.008,0.954-0.005c0.37-0.014,0.504,0.169,0.513,0.52
		c0.011,0.394-0.206,0.486-0.539,0.484c-0.795-0.004-1.59-0.013-2.386,0.003c-0.504,0.011-0.664-0.233-0.653-0.704
		c0.019-0.763,0.006-1.526,0.006-2.291C113.268,73.219,113.265,73.219,113.261,73.219z"/>
	<path fill-rule="evenodd" clip-rule="evenodd" fill="#626263" d="M99.109,73.211c0-0.732,0.018-1.466-0.006-2.197
		c-0.019-0.563,0.191-0.817,0.779-0.791c0.732,0.032,1.466,0.02,2.199,0.005c0.396-0.007,0.594,0.139,0.579,0.556
		c-0.015,0.391-0.246,0.468-0.575,0.456c-0.286-0.011-0.575,0.016-0.86-0.003c-0.534-0.034-0.872,0.007-0.881,0.734
		c-0.01,0.788,0.414,0.704,0.904,0.681c0.223-0.011,0.447,0.016,0.669,0.002c0.294-0.017,0.396,0.129,0.396,0.399
		c0,0.268,0.002,0.528-0.364,0.543c-0.223,0.009-0.449,0.034-0.667,0.008c-0.668-0.082-0.941,0.104-0.941,0.867
		c0,0.814,0.431,0.764,0.962,0.741c0.319-0.014,0.638-0.004,0.956,0.001c0.336,0.007,0.418,0.223,0.419,0.513
		c0.001,0.304-0.112,0.481-0.444,0.48c-0.86-0.003-1.721-0.004-2.581,0.006c-0.507,0.006-0.546-0.333-0.547-0.706
		c-0.003-0.765-0.001-1.53-0.001-2.295C99.107,73.211,99.107,73.211,99.109,73.211z"/>
	<path fill-rule="evenodd" clip-rule="evenodd" fill="#626263" d="M92.006,73.199c0-0.767,0.002-1.533-0.001-2.299
		c-0.003-0.476,0.206-0.69,0.7-0.675c0.766,0.024,1.533,0.012,2.299,0.004c0.333-0.003,0.553,0.088,0.564,0.474
		c0.012,0.428-0.21,0.557-0.598,0.538c-0.286-0.016-0.575,0.015-0.861-0.002c-0.485-0.03-0.836-0.026-0.854,0.66
		c-0.02,0.71,0.314,0.797,0.861,0.762c0.223-0.014,0.447,0.013,0.67,0.002c0.344-0.016,0.434,0.171,0.437,0.475
		c0.004,0.325-0.147,0.466-0.46,0.466c-0.191,0-0.386,0.024-0.574-0.003c-0.682-0.1-0.937,0.111-0.941,0.866
		c-0.005,0.813,0.424,0.771,0.96,0.744c0.319-0.015,0.638-0.002,0.957,0.004c0.34,0.007,0.415,0.227,0.414,0.516
		c-0.001,0.307-0.119,0.481-0.449,0.479c-0.862-0.005-1.724-0.007-2.585,0c-0.512,0.003-0.539-0.337-0.538-0.713
		C92.009,74.731,92.007,73.965,92.006,73.199z"/>
	<path fill-rule="evenodd" clip-rule="evenodd" fill="#5D5D5F" d="M47.49,73.121c0.001-0.7,0.026-1.401-0.006-2.101
		c-0.026-0.563,0.16-0.825,0.757-0.796c0.667,0.034,1.337,0.004,2.005,0.012c0.337,0.005,0.727-0.085,0.74,0.476
		c0.015,0.629-0.421,0.51-0.787,0.521c-0.254,0.007-0.511,0.018-0.763-0.005c-0.517-0.046-0.74,0.139-0.748,0.694
		c-0.009,0.591,0.218,0.74,0.783,0.769c0.415,0.021,1.195-0.398,1.191,0.439c-0.004,0.822-0.785,0.451-1.201,0.445
		c-0.678-0.007-0.753,0.297-0.777,0.862c-0.028,0.663,0.242,0.842,0.836,0.778c0.283-0.03,0.573,0.005,0.859-0.006
		c0.35-0.012,0.629,0.023,0.64,0.484c0.01,0.443-0.219,0.527-0.597,0.52c-0.764-0.018-1.528-0.024-2.292-0.006
		c-0.509,0.013-0.662-0.227-0.649-0.7C47.505,74.714,47.489,73.917,47.49,73.121z"/>
	<path fill-rule="evenodd" clip-rule="evenodd" fill="#5C5C5E" d="M153.253,73.255c0-0.765,0.018-1.529-0.006-2.294
		c-0.015-0.535,0.21-0.756,0.738-0.729c0.508,0.025,1.021-0.018,1.526,0.034c1.181,0.119,1.767,0.692,1.803,1.705
		c0.044,1.233-0.487,2.003-1.718,2.085c-1.01,0.068-1.21,0.516-1.097,1.368c0.059,0.448,0.001,0.806-0.617,0.815
		c-0.616,0.01-0.648-0.324-0.636-0.789C153.269,74.72,153.252,73.986,153.253,73.255z M154.438,72.246
		c0.199,0.308-0.297,1.027,0.6,0.971c0.643-0.042,1.017-0.412,1.021-1.03c0.006-0.633-0.375-0.974-1.027-0.999
		C154.152,71.151,154.597,71.83,154.438,72.246z"/>
	<path fill-rule="evenodd" clip-rule="evenodd" fill="#5D5D5F" d="M108.23,70.163c0.326-0.002,0.712,0.064,1.03,0.287
		c0.3,0.21,0.324,0.569,0.17,0.859c-0.188,0.356-0.432,0.01-0.649-0.033c-0.093-0.018-0.178-0.074-0.271-0.092
		c-0.451-0.087-0.942-0.162-1.152,0.37c-0.206,0.525,0.256,0.719,0.615,0.916c0.333,0.184,0.697,0.314,1.025,0.507
		c0.604,0.354,0.879,0.888,0.825,1.599c-0.057,0.746-0.44,1.256-1.111,1.534c-0.773,0.319-1.554,0.281-2.322-0.048
		c-0.435-0.187-0.564-0.551-0.428-0.939c0.196-0.56,0.504-0.041,0.758-0.008c0.28,0.037,0.554,0.153,0.835,0.175
		c0.405,0.031,0.785-0.085,0.928-0.513c0.154-0.466-0.184-0.699-0.523-0.896c-0.22-0.126-0.462-0.213-0.689-0.327
		c-1.03-0.52-1.415-1.21-1.186-2.119C106.305,70.563,107.041,70.113,108.23,70.163z"/>
	<path fill-rule="evenodd" clip-rule="evenodd" fill="#5F5F61" d="M125.822,73.304c0.013-2.143,1.255-3.37,3.167-3.106
		c0.307,0.043,0.621,0.15,0.894,0.3c0.405,0.222,0.457,0.659,0.275,1.001c-0.221,0.413-0.484-0.015-0.705-0.105
		c-0.721-0.298-1.37-0.29-1.889,0.365c-0.524,0.662-0.559,2.234-0.06,2.902c0.501,0.667,1.163,0.661,1.892,0.442
		c0.252-0.075,0.559-0.565,0.781-0.098c0.211,0.44,0.015,0.839-0.487,1.074C127.696,77.013,125.807,75.667,125.822,73.304z"/>
	<path fill-rule="evenodd" clip-rule="evenodd" fill="#5D5D5F" d="M75.702,73.317c-0.02-2.192,1.36-3.471,3.336-3.104
		c0.318,0.059,0.62,0.164,0.854,0.388c0.264,0.254,0.263,0.615,0.138,0.892c-0.175,0.391-0.425,0.041-0.615-0.049
		c-0.734-0.352-1.42-0.391-1.976,0.3c-0.574,0.714-0.587,2.304-0.019,2.979c0.529,0.627,1.197,0.595,1.916,0.354
		c0.221-0.073,0.543-0.553,0.728-0.005c0.145,0.427-0.026,0.78-0.488,0.999c-1.76,0.833-3.632-0.209-3.872-2.183
		C75.683,73.701,75.702,73.508,75.702,73.317z"/>
	<path fill-rule="evenodd" clip-rule="evenodd" fill="#5F5F61" d="M179.222,72.671c0.342-0.755,0.622-1.325,0.86-1.912
		c0.169-0.417,0.439-0.556,0.884-0.553c0.592,0.005,0.657,0.219,0.398,0.693c-0.275,0.502-0.489,1.04-0.782,1.531
		c-0.553,0.928-0.876,1.896-0.744,2.992c0.055,0.443,0.022,0.817-0.607,0.82c-0.583,0.003-0.742-0.278-0.662-0.77
		c0.273-1.7-0.803-2.953-1.408-4.365c-0.109-0.256-0.608-0.622-0.045-0.842c0.381-0.149,0.907-0.208,1.162,0.335
		C178.575,71.234,178.858,71.873,179.222,72.671z"/>
	<path fill-rule="evenodd" clip-rule="evenodd" fill="#676767" d="M185.51,63.326c0.202-0.661,0.347-1.079,0.453-1.507
		c0.076-0.307,0.254-0.405,0.548-0.397c0.398,0.011,0.34,0.298,0.342,0.543c0.005,0.572,0.006,1.145-0.006,1.717
		c-0.004,0.203,0.107,0.516-0.209,0.543c-0.415,0.037-0.269-0.327-0.302-0.551c-0.026-0.182-0.047-0.363-0.07-0.558
		c-0.108,0.037-0.183,0.039-0.213,0.076c-0.254,0.31-0.094,1.017-0.547,0.998c-0.51-0.021-0.368-0.707-0.547-1.085
		c-0.064-0.136-0.108-0.28-0.298-0.41c0,0.419,0.006,0.839-0.003,1.258c-0.003,0.125-0.036,0.255-0.202,0.273
		c-0.194,0.021-0.311-0.081-0.313-0.26c-0.014-0.73-0.014-1.461-0.013-2.191c0.001-0.226,0.12-0.343,0.354-0.349
		c0.276-0.008,0.493,0.039,0.574,0.361C185.167,62.215,185.305,62.635,185.51,63.326z M186.256,62.771
		c-0.018,0.02-0.049,0.039-0.049,0.059s0.031,0.039,0.049,0.059c0.018-0.029,0.035-0.059,0.053-0.088
		C186.292,62.79,186.274,62.78,186.256,62.771z"/>
	<path fill-rule="evenodd" clip-rule="evenodd" fill="#BB250F" d="M77.381,63.501c-0.127,0.302-0.008,0.387,0.296,0.386
		c2.902-0.007,5.805-0.029,8.708,0.011c0.88,0.013,0.121-0.613,0.396-0.804c0.378,0.331,0.757,0.659,1.192,0.993
		c-3.986,0-7.972,0-11.974,0c0.063-0.25,0.268-0.272,0.432-0.349c0.124,0.087,0.149,0.016,0.151-0.093c0,0-0.004,0.009-0.004,0.009
		c0.076,0.013,0.152,0.027,0.228,0.04c0.028,0.015,0.056,0.027,0.084,0.042c-0.026-0.017-0.053-0.032-0.079-0.048
		c-0.004-0.07-0.009-0.142-0.013-0.213c0.409-0.405,0.818-0.812,1.227-1.217c0.074,0.562,0.07,1.083-0.64,1.239
		c-0.027-0.015-0.055-0.028-0.082-0.043C77.33,63.471,77.355,63.486,77.381,63.501z"/>
	<path fill-rule="evenodd" clip-rule="evenodd" fill="#BB250F" d="M26.595,64.173c-0.006-0.103-0.387-0.27-0.068-0.271
		c3.713-0.027,7.427-0.008,11.141,0.015c0.082,0.001,0.163,0.165,0.245,0.253C34.14,64.252,30.367,64.246,26.595,64.173z"/>
	<path fill-rule="evenodd" clip-rule="evenodd" fill="#676767" d="M170.326,70.579c-1.369,0.149-1.369,0.149-1.369,1.563
		c0,1.019,0.025,2.037-0.011,3.054c-0.02,0.581,0.179,0.84,0.767,0.755c-0.186,0.474-0.571,0.311-0.87,0.22
		c-0.31-0.095-0.212-0.427-0.212-0.667c-0.009-1.402-0.015-2.805,0.001-4.206c0.005-0.358-0.166-0.86,0.314-1.001
		C169.411,70.16,169.957,70.051,170.326,70.579z"/>
	<path fill-rule="evenodd" clip-rule="evenodd" fill="#676767" d="M181.711,61.798c0.728-0.496,1.15-0.335,1.545-0.371
		c0.18-0.017,0.427-0.076,0.517,0.127c0.149,0.338-0.203,0.289-0.355,0.409c-0.361,0.285-0.151,0.702-0.19,1.06
		c-0.031,0.283-0.01,0.571-0.011,0.857c-0.001,0.215-0.066,0.384-0.319,0.363c-0.188-0.016-0.26-0.157-0.263-0.331
		c-0.005-0.35-0.005-0.699-0.005-1.048C182.629,62.366,182.787,61.791,181.711,61.798z"/>
	<path fill-rule="evenodd" clip-rule="evenodd" fill="#676767" d="M169.715,73.843c-0.185-0.127-0.185-0.252,0.001-0.377
		C169.794,73.591,169.794,73.717,169.715,73.843z"/>
	<path fill-rule="evenodd" clip-rule="evenodd" fill="#BF2F1C" d="M76.799,63.476c0.004,0.071,0.009,0.143,0.013,0.213l-0.005,0.006
		c-0.076-0.013-0.152-0.027-0.228-0.04C76.652,63.594,76.725,63.535,76.799,63.476z"/>
	<path fill-rule="evenodd" clip-rule="evenodd" fill="#BF2F1C" d="M76.583,63.646c-0.002,0.108-0.027,0.18-0.151,0.093
		C76.458,63.669,76.508,63.638,76.583,63.646z"/>
	<path fill-rule="evenodd" clip-rule="evenodd" fill="#BB250F" d="M78.129,62.154c0.024,0.04,0.049,0.081,0.074,0.122
		c-0.047-0.02-0.094-0.039-0.141-0.059C78.066,62.176,78.088,62.156,78.129,62.154z"/>
	<path fill-rule="evenodd" clip-rule="evenodd" fill="#FBF7F5" d="M62.634,45.303c0.034-0.032,0.068-0.064,0.102-0.096
		c0.003,0.026,0.005,0.051,0.008,0.078c-0.041,0-0.081,0-0.122,0L62.634,45.303z"/>
	<path fill-rule="evenodd" clip-rule="evenodd" fill="#FCFAF9" d="M134.612,73.029c0.023-0.156,0.032-0.516,0.138-0.845
		c0.25-0.791,1.032-1.189,1.828-0.976c0.747,0.201,1.164,0.961,1.079,2.119c-0.061,0.836-0.15,1.706-1.22,1.913
		C135.233,75.475,134.596,74.766,134.612,73.029z"/>
	<path fill-rule="evenodd" clip-rule="evenodd" fill="#F1F1F2" d="M40.871,74.393c-0.096-0.542,0.052-0.838,0.682-0.786
		c0.566,0.048,1.129,0.085,1.143,0.813c0.014,0.736-0.542,0.781-1.114,0.83C40.88,75.311,40.787,74.939,40.871,74.393z"/>
	<path fill-rule="evenodd" clip-rule="evenodd" fill="#F1F1F2" d="M40.857,72.023c0-0.461-0.104-0.91,0.579-0.86
		c0.535,0.04,0.97,0.172,0.956,0.788c-0.013,0.542-0.395,0.713-0.902,0.762C40.868,72.772,40.806,72.438,40.857,72.023z"/>
	<path fill-rule="evenodd" clip-rule="evenodd" fill="#F1F1F2" d="M27.911,71.469c0.301,0.899,0.538,1.604,0.778,2.319
		c-1.646,0.243-1.646,0.243-1.143-1.251C27.643,72.25,27.742,71.964,27.911,71.469z"/>
	<path fill-rule="evenodd" clip-rule="evenodd" fill="#F1F1F2" d="M65.141,71.481c0.239,0.671,0.354,1.096,0.54,1.488
		c0.357,0.754,0.13,0.99-0.672,0.928c-0.475-0.036-0.733-0.063-0.481-0.632C64.741,72.782,64.876,72.263,65.141,71.481z"/>
	<path fill-rule="evenodd" clip-rule="evenodd" fill="#F1F1F2" d="M162.553,71.461c0.218,0.646,0.373,1.094,0.52,1.542
		c0.086,0.261,0.332,0.6,0.093,0.785c-0.298,0.232-0.736,0.111-1.111,0.073c-0.285-0.028-0.214-0.272-0.159-0.445
		C162.083,72.824,162.29,72.238,162.553,71.461z"/>
	<path fill-rule="evenodd" clip-rule="evenodd" fill="#F1F1F2" d="M154.438,72.246c0.159-0.416-0.286-1.095,0.594-1.059
		c0.652,0.025,1.033,0.366,1.027,0.999c-0.005,0.618-0.379,0.988-1.021,1.03C154.141,73.273,154.637,72.554,154.438,72.246z"/>
	<path fill-rule="evenodd" clip-rule="evenodd" fill="#FEFDFD" d="M186.256,62.771c0.018,0.01,0.035,0.02,0.053,0.029
		c-0.018,0.029-0.035,0.059-0.053,0.088c-0.018-0.02-0.049-0.039-0.049-0.059S186.239,62.79,186.256,62.771z"/>
	<path fill-rule="evenodd" clip-rule="evenodd" fill="#BF2F1C" d="M76.812,63.688c0.026,0.016,0.053,0.031,0.079,0.048
		c-0.028-0.015-0.057-0.027-0.084-0.042L76.812,63.688z"/>
	<path fill-rule="evenodd" clip-rule="evenodd" fill="#BF2F1C" d="M77.381,63.501c-0.026-0.015-0.052-0.03-0.078-0.046
		c0.027,0.015,0.055,0.028,0.082,0.043L77.381,63.501z"/>
</g>
</svg>
