<?xml version="1.0" encoding="utf-8"?>
<!-- Generator: Adobe Illustrator 16.0.2, SVG Export Plug-In . SVG Version: 6.00 Build 0)  -->
<!DOCTYPE svg PUBLIC "-//W3C//DTD SVG 1.1//EN" "http://www.w3.org/Graphics/SVG/1.1/DTD/svg11.dtd">
<svg version="1.1" id="Layer_1" xmlns="http://www.w3.org/2000/svg" xmlns:xlink="http://www.w3.org/1999/xlink" x="0px" y="0px"
	 width="208.833px" height="100px" viewBox="0 0 208.833 100" enable-background="new 0 0 208.833 100" xml:space="preserve">
<rect x="3" y="2.383" fill="#FFFFFF" stroke="#B3B3B3" stroke-miterlimit="10" width="203.833" height="95.617"/>
<g>
	<path display="none" fill-rule="evenodd" clip-rule="evenodd" fill="#FEFDFD" d="M106.383,93.316
		c-21.527,0-43.056-0.033-64.583,0.053c-1.899,0.006-2.286-0.383-2.281-2.281c0.076-29.27,0.076-58.539,0-87.809
		C39.515,1.381,39.902,0.997,41.8,1c43.055,0.067,86.112,0.067,129.167,0c1.897-0.003,2.285,0.381,2.281,2.279
		c-0.078,29.27-0.078,58.539,0,87.809c0.004,1.898-0.383,2.287-2.281,2.281C149.439,93.283,127.912,93.316,106.383,93.316z
		 M148.946,30.332c0.035-0.905,0.091-1.826-1.238-1.784c-2.473-2.422-4.722-5.083-7.599-7.071
		c-3.103-3.155-7.275-5.007-11.148-6.174c-4.78-1.439-9.626-3.106-14.686-3.856c-2.217-0.329-4.639,0.7-6.675-0.849
		c-5.076-1.114-10.151-1.015-15.227-0.002c-2.634-0.052-5.182,0.472-7.709,1.14l-0.054,0.052c-0.594,0.056-1.188,0.111-1.782,0.167
		c-2.086-0.367-3.813,0.845-5.714,1.297c-0.526-0.097-1.021-0.105-1.308,0.469c-3.334,1.591-7.077,2.246-10.157,4.42
		c-4.174,1.246-7.001,4.493-10.354,6.962c-2.882,2.122-4.609,5.001-5.575,8.391c-2.377,3.491-1.251,7.159-0.542,10.805
		c-0.1,0.374,0.062,0.592,0.417,0.692c0.13,1.718,2.234,3.612-0.456,5.077c-3.118,1.98-2.75,4.748-1.729,7.662
		c0.403,3.34,2.135,6.373,2.551,9.637c0.53,4.15,2.896,6.814,5.836,9.273c0.727,0.346,1.453,0.693,2.179,1.039
		c1.295,1.102,2.809,1.801,4.385,2.391c1.098,0.584,2.197,1.172,3.295,1.758c2.184,1.033,4.265,2.328,6.733,2.631
		c2.059,1.082,4.373,1.193,6.574,1.736c5.095,0.883,10.179,2.059,15.353,0.504c0.656-0.047,1.312-0.096,1.967-0.143
		c0.17-0.084,0.339-0.168,0.509-0.254c4.056-0.605,8.111-1.211,12.167-1.816c2.794,0.01,5.557-0.262,8.28-0.9
		c1.709,0.113,3.385-0.092,5.039-0.52c0.424-0.012,0.851-0.027,1.276-0.041c0.437-0.008,0.871-0.016,1.307-0.023
		c1.299-0.104,2.6-0.207,3.898-0.313c0.441,0.305,0.85,0.262,1.23-0.107c2.52-0.051,5.038-0.105,7.559-0.156
		c1.063,0.012,2.126,0.027,3.188,0.041c2.516,0.744,5.106,0.627,7.681,0.666c1.303,1.172,2.894,0.414,4.336,0.648
		c0.414,0.941,1.273,0.566,1.973,0.668c0.337,0.434,0.774,0.621,1.322,0.533c0.633,0.188,1.268,0.371,1.902,0.559
		c0.832,0.258,1.665,0.516,2.499,0.773c2.52,1.49,5.039,2.98,8.199,4.85c-1.688-4.613-3.753-8.123-6.206-11.428
		c-0.55-1.65-1.751-2.869-2.779-4.203c-0.64-1.158-1.467-2.373,0.813-2.625c3.104,0.398,6.208,0.799,9.757,1.256
		c-2.525-4.211-6.169-6.215-9.769-8.273c-1.46-1.273-3.257-1.648-5.094-1.918c-0.257-0.576-0.748-0.541-1.249-0.482
		c-2.574-0.297-4.964-1.617-7.635-1.377l0.006,0.008c-0.451-0.697-0.903-0.719-1.359-0.004c-0.948,0.01-1.903-0.051-2.844,0.047
		c-2.246,0.23-2.151-0.936-1.538-2.457c0.194-0.102,0.389-0.201,0.584-0.303c1.51,0.08,2.215-0.875,2.708-2.104
		c0.384-0.332,0.767-0.668,1.151-1.002c1.503-0.133,2.343-0.908,2.387-2.459c0.327-0.391,0.652-0.785,0.979-1.176
		c3.67-2.703,5.807-9.934,4.136-13.996c-0.106-0.612-0.213-1.224-0.318-1.835c-0.09-2.695-0.796-5.067-3.392-6.442L148.946,30.332z"
		/>
	<path fill-rule="evenodd" clip-rule="evenodd" fill="#F0C784" d="M94.318,86.695c-5.174,1.557-10.258,0.381-15.353-0.502
		c-1.88-1.756-4.193-1.875-6.574-1.736c-2.468-0.303-4.549-1.598-6.733-2.631c0.053-0.906,0.601-1.268,1.44-1.313
		c1.87,1.121,2.71,0.844,2.224-1.537c-0.273-1.334-0.349-2.711-0.519-4.066c-0.121-0.961-0.046-1.699,1.269-1.422
		c0.466,0.102,1.133,0.26,1.255-0.484c0.138-0.836-0.524-1.092-1.161-1.139c-2.424-0.188-4.554-1.676-7.04-1.555
		c0.018-0.568,0.035-1.135,0.053-1.701c0.618-0.041,1.236-0.08,1.854-0.121c0.435,0.84,1.194,0.68,1.919,0.621
		c0.64,1.031,1.638,0.648,2.539,0.645c3.746,3.229,8.504,1.514,12.689,2.604c0.219,0.328,0.447,0.346,0.69,0.025
		c2.519,0.012,5.036,1.117,7.557,0.012c0.021,0.406,0.044,0.813,0.066,1.217c-0.843,0.301-1.233,1.02-1.524,1.771
		c-0.714,1.848-1.535,0.867-2.362,0.125c-0.665-0.629-1.489-1.01-2.231-0.367c-0.486,0.42-0.204,1.088,0.161,1.699
		c0.814,1.355,0.192,2.758,0.059,4.285c-1.386-0.637-1.9-1.547-1.75-2.836c0.092-0.789,0.013-1.574-0.86-1.785
		c-0.977-0.238-1.806,0.291-2.523,0.922c-0.893,0.783,0.045,1.371,0.35,1.879c0.66,1.098,1.521,2.072,2.813,3.773
		c-2.788-1.217-5.379-1.365-4.9-4.699c0.174-1.219-0.306-2.131-1.611-2.227c-1.376-0.102-2.85-1.279-4.133,0.24
		c-1.095,1.297-1.079,2.787-0.343,4.146c0.8,1.479,1.98,2.545,3.866,1.473c0.171-0.096,0.527-0.189,0.588-0.113
		c3.147,3.875,8.017-0.486,11.436,2.375c0.507,0.424,1.212-0.619,1.726-1.133l0.297,0.004l0.297-0.027
		c0.634,0.434,1.267,0.867,1.9,1.303C92.458,85.342,94.273,85.02,94.318,86.695z"/>
	<path fill-rule="evenodd" clip-rule="evenodd" fill="#8F5F2F" d="M137.551,82.424c-2.521,0.051-5.04,0.105-7.559,0.156
		c-0.409,0.037-0.82,0.072-1.231,0.107c-1.299,0.105-2.6,0.209-3.898,0.313c-0.332-1.051,0.678-2.697-1.325-3.016
		c-0.23-0.246-0.46-0.488-0.691-0.734c1.148-1.072,4.982-1.229,1.334-3.982c-0.261-0.197,0.016-1.201,0.148-1.805
		c0.249-1.117,0.618-2.209,0.857-3.33c0.214-0.998,0.681-2.139-0.19-2.973c-1.173-1.123-1.62,1.014-2.668,0.758
		c0.552-0.955-0.25-1.428-0.722-2.016c1.965-1.01,4.106-1.193,6.256-1.346c0.302-0.035,0.857-0.039,0.868-0.111
		c0.48-3.807,3.502-3.811,6.254-4.217c0.015,0.424,0.027,0.848,0.041,1.271l-0.014,0.008c-0.252,0.008-0.503,0.016-0.754,0.021
		c-0.657,0.658-1.799,0.795-2.031,1.904c-0.354,0.096-0.713,0.193-1.069,0.289c2.454,1.48,0.972,3.469,0.681,5.303
		c-3.744,2.736-1.592,7.15-2.923,10.604c-0.288,0.748,1.294,1.332,2.213,1.299c0.907-0.035,1.797-0.508,2.695-0.787
		c0.031,0.65-0.917,1.707,0.708,1.697c1.021-0.01,2.041-0.012,3.062-0.016l0.01,0.008C137.578,82.029,137.56,82.225,137.551,82.424z
		"/>
	<path fill-rule="evenodd" clip-rule="evenodd" fill="#DBB978" d="M86.608,75.508c0.827,0.742,1.648,1.723,2.362-0.125
		c0.291-0.752,0.682-1.471,1.523-1.773c1.4,1.275,3.116,2.443,4.913,1.912c2.808-0.83,5.599-0.521,8.398-0.676
		c0.316,2.291-0.329,4.637,0.366,6.906c0.171,0.557,0.154,1.438,1.058,1.166c0.369-0.111,0.571-0.777,0.85-1.191
		c1.724,0.119,1.741,2.025,2.882,2.758c-4.056,0.605-8.111,1.211-12.167,1.816c-0.193,0.039-0.362,0.123-0.509,0.254
		c-0.655,0.047-1.311,0.096-1.967,0.141c-0.045-1.676-1.859-1.354-2.57-2.275c1.632,0.457,3.003-1.689,4.626-0.564
		c1.29,0.891,1.853,0.063,2.588-0.717c1.979-2.094,0.6-3.635-0.82-5.164c-0.602-0.648-0.54-2.584-1.982-1.59
		c-0.936,0.645-0.478,2.139,0.071,3.182c0.288,0.547,0.905,0.928,1.15,1.484c0.241,0.547,0.324,1.354-0.633,1.393
		c-1.608,0.063-3.222,0.016-5.33,0.016c0.984-1.076,1.574-1.668,2.101-2.311c0.966-1.18,1.418-2.516,0.004-3.57
		c-1.382-1.035-2.348,0.104-3.166,1.088c-1.01,1.217-0.801,2.799-1.138,4.219c-0.626,0.051-1.35,1.213-1.828,0.094
		c-0.392-0.916-0.795-2.299,0.192-2.943c1.851-1.207,0.745-1.357-0.384-1.83C86.541,76.93,86.667,76.131,86.608,75.508z"/>
	<path fill-rule="evenodd" clip-rule="evenodd" fill="#EEBA6B" d="M75.807,13.72c0.287-0.575,0.782-0.566,1.308-0.47
		c2.28,1.224,4.083,0.34,5.714-1.297c0.595-0.055,1.188-0.111,1.784-0.166c0.113,0.095,0.225,0.189,0.337,0.284
		c-0.096-0.112-0.19-0.224-0.285-0.336c2.527-0.668,5.075-1.192,7.709-1.14c5.075,0.001,10.15,0.001,15.227,0.002
		c2.036,1.549,4.458,0.52,6.675,0.849c5.06,0.75,9.905,2.417,14.686,3.856c3.873,1.167,8.046,3.019,11.148,6.174
		c-0.016,0.623-0.03,1.246-0.046,1.869c-2.152-0.404-3.645-2.017-5.479-2.98c-12.175-6.398-25.226-8.938-38.913-8.505
		c-1.106,0.035-2.118,0.121-2.686,1.245c-5.815,0.185-11.533,1.021-17.145,2.565C75.83,15.02,75.818,14.37,75.807,13.72z"/>
	<path fill-rule="evenodd" clip-rule="evenodd" fill="#BE8A41" d="M49.596,44.99c-0.355-0.1-0.517-0.318-0.417-0.692
		c0.512-0.29,0.578-0.796,0.637-1.306c0.611,0.022,1.222,0.044,1.833,0.066c0.022,0.519,0.087,1.015,0.641,1.264
		c-0.016,1.472,1.443,2.031,1.962,3.171c2.217,4.422,5.771,7.422,10.152,9.541c0.336,0.881,0.975,1.295,1.914,1.246
		c2.481,1.762,5.4,2.395,8.253,3.195c0.889,0.893,2.044,1.086,3.221,1.221c0.411,0.016,0.821,0.033,1.232,0.049
		c0.279,0.551,0.758,0.656,1.313,0.59c1.683,0.232,3.366,0.463,5.049,0.693c0.295,0.547,0.772,0.641,1.33,0.539
		c1.466,0.033,2.932,0.064,4.398,0.096c-0.001,0.229-0.002,0.457-0.003,0.684c-0.858,2.164-3.291,0.482-4.481,1.834
		c-4.866-1.047-9.731-2.096-14.597-3.145c-1.899-2.541-4.873-2.943-7.605-3.828c-2.075-1.898-4.564-3.166-6.973-4.557
		c-2.244-2.324-3.987-5.01-5.629-7.771C51.203,46.829,51.058,45.396,49.596,44.99z"/>
	<path fill-rule="evenodd" clip-rule="evenodd" fill="#AB782C" d="M55.799,76.643c-2.94-2.463-5.306-5.127-5.836-9.277
		c-0.417-3.264-2.148-6.297-2.551-9.637c2.062,1.613,3.52,3.969,6.084,4.965l0.159,0.154c0.202,0.365,0.402,0.729,0.604,1.094
		c-0.188,1.326,0.766,2.457,0.758,3.68C55,70.662,57.536,73.475,55.799,76.643z"/>
	<path fill-rule="evenodd" clip-rule="evenodd" fill="#EEBA6B" d="M52.291,44.32c-0.554-0.248-0.619-0.744-0.641-1.263
		c-0.39-1.573-0.721-3.14-0.641-4.792c0.105-2.191-0.85-0.271-1.311-0.293c0.008-1.493,0.016-2.986,0.024-4.479
		c0.965-3.39,2.693-6.269,5.575-8.391c3.352-2.469,6.179-5.716,10.354-6.962c0.017,0.48,0.035,0.959,0.051,1.438
		c-1.305,0.862-2.677,1.64-3.903,2.604c-3.575,2.808-7.225,5.593-7.74,10.639c-0.575,0.021-1.151,0.042-1.727,0.061
		c-0.096-0.048-0.191-0.097-0.286-0.146c0.09,0.054,0.179,0.108,0.27,0.163c0.467,1.265,0.368,2.527-0.021,3.787
		C52.293,39.231,52.292,41.776,52.291,44.32z"/>
	<path fill-rule="evenodd" clip-rule="evenodd" fill="#D6A659" d="M140.063,23.345c0.016-0.623,0.03-1.246,0.046-1.869
		c2.877,1.988,5.126,4.649,7.599,7.071c-0.014,0.89,0.458,1.444,1.238,1.784c0,0,0.042,0.057,0.042,0.057
		c-0.159,0.94,0.371,1.697,0.672,2.515c0.173,0.171,0.348,0.342,0.521,0.513c0.036,0.24,0.072,0.48,0.108,0.72
		c0.302,2.795-0.298,5.519-0.653,8.262c-2.029,0.178-1.533,3.225-3.694,3.252c0.198-0.812,0.281-1.675,0.612-2.428
		c2.059-4.67,1.203-8.879-1.343-13.194C143.744,27.537,140.945,26.194,140.063,23.345z"/>
	<path fill-rule="evenodd" clip-rule="evenodd" fill="#F0C784" d="M146.489,62.107c2.671-0.236,5.061,1.084,7.635,1.381
		c0.309,1.336-0.945,3.252,1.416,3.832c-0.11,0.396-0.222,0.791-0.332,1.189c-0.095,0.34-0.189,0.682-0.283,1.021
		c-1.354,1.85-3.92,1.715-5.493,3.289c-0.169,0.17-0.35-1.016-0.385-1.592c-0.102-1.664-0.964-2.471-2.616-2.463
		C147.54,66.557,147.097,64.332,146.489,62.107z"/>
	<path fill-rule="evenodd" clip-rule="evenodd" fill="#AB782C" d="M49.596,44.99c1.462,0.406,1.607,1.839,2.231,2.889
		c1.642,2.762,3.385,5.447,5.629,7.771c-1.077,0.166-1.236,0.576-0.455,1.398c1.015,1.064,1.961,2.197,2.938,3.301
		c-2.094,0.832-4.189,1.664-6.284,2.498c0,0-0.159-0.154-0.158-0.152c0.602-4.023-0.821-7.609-2.294-11.225
		c-0.445-1.091-0.977-1.517-2.063-1.404C51.83,48.602,49.726,46.708,49.596,44.99z"/>
	<path fill-rule="evenodd" clip-rule="evenodd" fill="#D6A659" d="M62.363,80.068c-1.576-0.59-3.089-1.289-4.385-2.391
		c0.332-2.324-0.15-4.566-0.728-6.783c-0.362-1.391-1.279-3.143,0.187-3.953c1.136-0.627,2.804,0.133,3.795,1.396
		c0.042,1.092,0.324,2.068,1.311,2.699L62.53,70.99c-0.031,1.559-0.16,3.1,0.273,4.66C63.212,77.123,63.638,78.713,62.363,80.068z"
		/>
	<path fill-rule="evenodd" clip-rule="evenodd" fill="#816C51" d="M135.025,61.5c-0.014-0.424-0.026-0.848-0.041-1.271l0.059-0.029
		c1.099,0.113,2.058-0.049,2.479-1.264l0.042-0.021c0.197-0.258,0.392-0.516,0.588-0.771c4.483-2.928,8.422-6.375,10.842-11.285
		c2.728-2.964,2.599-6.63,2.524-10.282c0.287,0.085,0.574,0.17,0.861,0.255c0.105,0.612,0.212,1.224,0.318,1.834
		c-0.589,4.18-0.762,8.481-3.455,12.061c-0.435,0.574-1.022,1.092-0.681,1.936c-0.326,0.391-0.651,0.785-0.978,1.176
		c-1.321,0.309-2.557,0.703-2.388,2.459c-0.385,0.334-0.768,0.67-1.151,1c-1.689-0.311-2.299,0.77-2.708,2.105
		c-0.195,0.102-0.39,0.201-0.584,0.303c-0.803-0.199-1.728,0.139-1.951,0.67C137.944,62.404,136.505,61.898,135.025,61.5z"/>
	<path fill-rule="evenodd" clip-rule="evenodd" fill="#8F5F2F" d="M49.14,50.067c1.086-0.113,1.618,0.313,2.063,1.404
		c1.473,3.615,2.896,7.201,2.294,11.225c-2.566-0.998-4.023-3.354-6.085-4.967C46.39,54.814,46.022,52.047,49.14,50.067z"/>
	<path fill-rule="evenodd" clip-rule="evenodd" fill="#DBB978" d="M135.025,61.5c1.48,0.398,2.919,0.904,3.777-1.125
		c0.224-0.531,1.148-0.869,1.951-0.67c-0.613,1.521-0.708,2.688,1.538,2.457c0.94-0.098,1.896-0.037,2.845-0.047
		c0.452,0.002,0.904,0.002,1.358,0.004c0,0-0.006-0.008-0.006-0.012c0.608,2.225,1.051,4.449-0.059,6.658
		c-1.646,1.42-3.293,3.791-4.86-0.117c-0.119-0.301-0.923-0.326-1.409-0.48c0.142-0.27,0.214-0.668,0.433-0.781
		c1.475-0.77,1.835-2.104,1.237-3.402c-0.922-2.002-2.835-1.033-4.391-1.055c-0.813,0.174-1.625,0.348-2.438,0.521
		c-0.926-0.006-1.852-0.012-2.776-0.018c0.233-1.109,1.375-1.246,2.034-1.904c0.256,0.207,0.512,0.311,0.752-0.021L135.025,61.5z"/>
	<path fill-rule="evenodd" clip-rule="evenodd" fill="#D6A659" d="M155.373,63.969c1.837,0.271,3.634,0.646,5.094,1.92
		c0.005,2.34,0.009,4.68,0.012,7.018c-2.28,0.252-1.453,1.467-0.813,2.625c-1.695,0.453-0.962,1.852-1.089,2.883
		c-0.29,2.367,0.558,4.836-0.626,7.125c-0.633-0.188-1.268-0.371-1.9-0.559c1.652-1.258,0.828-3.254,0.816-4.627
		c-0.02-2.668,0.983-5.451-0.273-8.082c0.271-1.477,0.543-2.951,0.814-4.43l0.258-0.002l0.258,0.027
		c0.056,0.41,0.111,0.824,0.169,1.236c0.122-0.063,0.357-0.176,0.355-0.186c-0.162-0.357-0.344-0.705-0.522-1.057
		C158.538,65.605,156.406,65.148,155.373,63.969z"/>
	<path fill-rule="evenodd" clip-rule="evenodd" fill="#D6A659" d="M148.418,83.131c-2.574-0.039-5.165,0.078-7.681-0.666
		c-0.885-1.006-2.076-0.494-3.136-0.635c0,0-0.01-0.008-0.012-0.008c0.18-1.273-0.514-2.699,0.647-3.809
		c2.179,0.219,3.091-1.535,4.385-3.443c0.352,2.453,1.38,3.654,3.191,4.123C145.262,81.006,147.365,81.762,148.418,83.131z"/>
	<path fill-rule="evenodd" clip-rule="evenodd" fill="#D6A659" d="M108.96,84.484c-1.141-0.732-1.158-2.639-2.882-2.758
		c0.631-2.033-0.463-4.943,2.856-5.605c0.195,1.807-0.57,4.092,1.798,4.947c1.56,0.564,2.848-0.355,3.733-1.723
		c0,0.002-0.054,0.031-0.054,0.031c0.997,0.039,1.622,1.217,2.737,0.889c0.029,1.105,0.06,2.213,0.091,3.318
		C114.517,84.223,111.754,84.494,108.96,84.484z"/>
	<path fill-rule="evenodd" clip-rule="evenodd" fill="#AB782C" d="M160.478,72.906c-0.003-2.338-0.007-4.678-0.012-7.018
		c3.6,2.059,7.243,4.063,9.769,8.273C166.686,73.705,163.582,73.305,160.478,72.906z"/>
	<path fill-rule="evenodd" clip-rule="evenodd" fill="#F0C784" d="M148.418,83.131c-1.054-1.369-3.156-2.125-2.604-4.438
		c1.223-0.164,1.659-1.477,2.783-1.988c0.774,1.041,0.817,3.379,2.392,2.727c1.996-0.826,2.228,0.656,3.104,1.42
		c1.224,0.748,1.926,1.611,0.646,2.916c-0.661,0.004-1.324,0.008-1.986,0.012C151.312,83.545,149.721,84.303,148.418,83.131z"/>
	<path fill-rule="evenodd" clip-rule="evenodd" fill="#AB782C" d="M162.444,79.734c2.453,3.305,4.518,6.814,6.206,11.428
		c-3.16-1.869-5.68-3.359-8.199-4.85c0.25-0.828,2.204,0.471,1.604-1.061C161.271,83.254,162.465,81.574,162.444,79.734z"/>
	<path fill-rule="evenodd" clip-rule="evenodd" fill="#DBB978" d="M62.363,80.068c1.275-1.355,0.849-2.945,0.44-4.418
		c-0.433-1.561-0.305-3.102-0.273-4.66c4.616,1.08,4.048,4.945,4.452,8.285c0.049,0.412,0.078,0.826,0.117,1.238
		c-0.839,0.045-1.387,0.406-1.44,1.313C64.56,81.24,63.461,80.652,62.363,80.068z"/>
	<path fill-rule="evenodd" clip-rule="evenodd" fill="#BE8A41" d="M162.444,79.734c0.021,1.84-1.173,3.52-0.39,5.518
		c0.601,1.531-1.354,0.232-1.604,1.061c-0.834-0.258-1.667-0.516-2.501-0.773c1.184-2.289,0.336-4.758,0.626-7.125
		c0.127-1.031-0.606-2.43,1.089-2.883C160.693,76.865,161.894,78.084,162.444,79.734z"/>
	<path fill-rule="evenodd" clip-rule="evenodd" fill="#BE8A41" d="M61.233,68.336c-0.992-1.262-2.659-2.021-3.795-1.395
		c-1.466,0.811-0.549,2.563-0.187,3.953c0.578,2.217,1.06,4.459,0.728,6.783c-0.726-0.346-1.453-0.693-2.18-1.037
		c1.737-3.166-0.799-5.979-0.782-9.02c0.007-1.223-0.946-2.354-0.758-3.68c2.73,1.15,5.46,2.301,8.191,3.451
		c-0.005,0.348-0.009,0.697-0.014,1.047C62.035,68.404,61.634,68.371,61.233,68.336z"/>
	<path fill-rule="evenodd" clip-rule="evenodd" fill="#DBB978" d="M154.74,83.768c1.279-1.305,0.577-2.168-0.646-2.916
		c0.875-0.314,2.403-0.965,1.785-1.66c-2.431-2.742,0.481-4.643,0.714-6.92c1.257,2.631,0.254,5.414,0.273,8.082
		c0.012,1.373,0.836,3.369-0.816,4.627c-0.548,0.088-0.985-0.1-1.322-0.533C154.73,84.221,154.735,83.994,154.74,83.768z"/>
	<path fill-rule="evenodd" clip-rule="evenodd" fill="#FCD16F" d="M65.701,19.579c-0.017-0.479-0.034-0.958-0.051-1.438
		c3.081-2.174,6.823-2.829,10.157-4.42c0.011,0.65,0.022,1.3,0.034,1.95C72.461,16.973,69.082,18.275,65.701,19.579z"/>
	<path fill-rule="evenodd" clip-rule="evenodd" fill="#DBB978" d="M148.562,52.662c-0.342-0.844,0.246-1.361,0.681-1.936
		c2.693-3.58,2.866-7.881,3.455-12.061C154.369,42.729,152.232,49.959,148.562,52.662z"/>
	<path fill-rule="evenodd" clip-rule="evenodd" fill="#BE8A41" d="M117.241,83.584c-0.031-1.105-0.062-2.213-0.091-3.318
		c0.604-0.641,0.894-1.648,1.997-1.701c0.202,0.287,0.404,0.57,0.604,0.857c0.734,1.291,0.637,3.156,2.528,3.643
		C120.625,83.492,118.95,83.697,117.241,83.584z"/>
	<path fill-rule="evenodd" clip-rule="evenodd" fill="#AB782C" d="M122.28,83.064c-1.892-0.486-1.794-2.352-2.528-3.643
		c0.427-0.236,0.853-0.473,1.279-0.707c0.708-0.17,1.259,0.195,1.815,0.535c0.231,0.246,0.461,0.488,0.691,0.734
		c-1.06,1.02,0.467,2.021,0.019,3.039C123.13,83.037,122.704,83.053,122.28,83.064z"/>
	<path fill-rule="evenodd" clip-rule="evenodd" fill="#EEBA6B" d="M157.922,67.867l-0.258-0.027l-0.258,0.002
		c-0.506-0.588-1.154-0.668-1.867-0.521c-2.361-0.58-1.107-2.496-1.416-3.832c0.501-0.059,0.992-0.094,1.249,0.482
		c1.033,1.178,3.165,1.635,2.552,3.891L157.922,67.867z"/>
	<path fill-rule="evenodd" clip-rule="evenodd" fill="#AB782C" d="M49.722,33.493c-0.008,1.493-0.016,2.986-0.023,4.479
		c-1.382,1.707,0.222,3.343,0.118,5.02c-0.059,0.51-0.125,1.016-0.637,1.306C48.471,40.652,47.345,36.984,49.722,33.493z"/>
	<path fill-rule="evenodd" clip-rule="evenodd" fill="#D6A659" d="M107.6,10.598c-5.076-0.001-10.151-0.001-15.227-0.002
		C97.449,9.583,102.524,9.484,107.6,10.598z"/>
	<path fill-rule="evenodd" clip-rule="evenodd" fill="#DBB978" d="M152.379,36.831c-0.287-0.085-0.574-0.17-0.859-0.253
		c-0.559-0.739-0.349-1.865-1.23-2.442c-0.036-0.24-0.072-0.48-0.107-0.72c-0.174-0.171-0.348-0.342-0.522-0.513
		c-0.301-0.818-0.831-1.574-0.672-2.515C151.583,31.764,152.29,34.136,152.379,36.831z"/>
	<path fill-rule="evenodd" clip-rule="evenodd" fill="#FCD16F" d="M82.829,11.954c-1.631,1.637-3.434,2.521-5.714,1.297
		C79.015,12.799,80.743,11.587,82.829,11.954z"/>
	<path fill-rule="evenodd" clip-rule="evenodd" fill="#DBB978" d="M72.391,84.457c2.381-0.139,4.694-0.02,6.574,1.736
		C76.764,85.65,74.45,85.539,72.391,84.457z"/>
	<path fill-rule="evenodd" clip-rule="evenodd" fill="#BE8A41" d="M123.556,83.023c0.448-1.018-1.078-2.02-0.019-3.039
		c2.003,0.318,0.993,1.965,1.325,3.016C124.427,83.008,123.993,83.016,123.556,83.023z"/>
	<path fill-rule="evenodd" clip-rule="evenodd" fill="#DBB978" d="M145.197,56.297c-0.169-1.756,1.066-2.15,2.388-2.459
		C147.54,55.389,146.7,56.164,145.197,56.297z"/>
	<path fill-rule="evenodd" clip-rule="evenodd" fill="#DBB978" d="M141.337,59.402c0.409-1.336,1.019-2.416,2.708-2.105
		C143.552,58.527,142.847,59.482,141.337,59.402z"/>
	<path fill-rule="evenodd" clip-rule="evenodd" fill="#BE8A41" d="M137.602,81.83c1.06,0.141,2.251-0.371,3.136,0.635
		c-1.062-0.014-2.124-0.029-3.188-0.041C137.56,82.225,137.578,82.029,137.602,81.83z"/>
	<path fill-rule="evenodd" clip-rule="evenodd" fill="#DBB978" d="M148.946,30.332c-0.78-0.34-1.252-0.895-1.238-1.784
		C149.037,28.506,148.981,29.426,148.946,30.332z"/>
	<path fill-rule="evenodd" clip-rule="evenodd" fill="#D6A659" d="M154.74,83.768c-0.005,0.227-0.01,0.453-0.013,0.68
		c-0.699-0.102-1.559,0.273-1.973-0.668C153.416,83.775,154.079,83.771,154.74,83.768z"/>
	<path fill-rule="evenodd" clip-rule="evenodd" fill="#BE8A41" d="M128.761,82.688c0.411-0.035,0.822-0.07,1.231-0.107
		C129.611,82.949,129.203,82.992,128.761,82.688z"/>
	<path fill-rule="evenodd" clip-rule="evenodd" fill="#F0C784" d="M146.495,62.119c-0.454-0.002-0.906-0.002-1.358-0.004
		C145.591,61.4,146.043,61.422,146.495,62.119z"/>
	<path fill-rule="evenodd" clip-rule="evenodd" fill="#F0C784" d="M96.285,86.555c0.146-0.131,0.315-0.215,0.509-0.254
		C96.624,86.387,96.455,86.471,96.285,86.555z"/>
	<path fill-rule="evenodd" clip-rule="evenodd" fill="#EEBA6B" d="M103.805,74.846c-2.8,0.154-5.591-0.154-8.398,0.676
		c-1.797,0.531-3.513-0.637-4.913-1.912c-0.021-0.402-0.044-0.809-0.064-1.217c1.768-0.264,3.801,0.426,5.121-1.432
		c0.026-0.184,0.07-0.361,0.13-0.535l0.256,0.006c0,0,0.257,0,0.257-0.002c0.536,0.707,0.96,0.555,1.308-0.17
		c0.889-0.361,1.777-0.721,2.666-1.084c1.76-0.145,3.766,0.682,5.067-1.277c2.556,0.406,4.959-0.793,7.483-0.721
		c0,0.002,0.025,0.047,0.025,0.047c-0.919,2.113-1.833,4.227,1.187,5.5c0.045,0.018,0.024,0.195,0.033,0.299
		c-2.675-0.932-3.695,1.213-5.059,2.721c-0.232-0.746-0.727-2.242-0.869-2.018C106.894,75.531,104.941,73.65,103.805,74.846z"/>
	<path fill-rule="evenodd" clip-rule="evenodd" fill="#211C16" d="M86.608,75.508c0.059,0.623-0.067,1.422,0.591,1.697
		c1.129,0.473,2.234,0.623,0.384,1.83c-0.987,0.645-0.584,2.027-0.192,2.943c0.479,1.119,1.202-0.043,1.828-0.094l-0.041-0.059
		c0.025,0.439,0.051,0.879,0.076,1.314c-0.514,0.514-1.219,1.557-1.726,1.133c-3.419-2.861-8.288,1.5-11.436-2.375
		c-0.061-0.076-0.417,0.018-0.588,0.113c-1.886,1.072-3.066,0.006-3.866-1.473c-0.735-1.359-0.751-2.85,0.343-4.146
		c1.283-1.52,2.756-0.342,4.133-0.24c1.305,0.096,1.786,1.008,1.611,2.227c-0.479,3.334,2.112,3.482,4.9,4.699
		c-1.292-1.701-2.153-2.676-2.813-3.773c-0.305-0.508-1.242-1.096-0.35-1.879c0.718-0.631,1.547-1.16,2.523-0.922
		c0.873,0.211,0.952,0.996,0.86,1.785c-0.15,1.289,0.364,2.199,1.75,2.836c0.134-1.527,0.756-2.93-0.059-4.285
		c-0.365-0.611-0.647-1.279-0.161-1.699C85.119,74.498,85.943,74.879,86.608,75.508z M74.442,80.916
		c0.968-0.629,1.189-1.641,1.233-2.662c0.032-0.74-0.625-1.195-1.23-1.076c-1.426,0.275-1.099,1.488-1.033,2.467
		C73.453,80.234,73.597,80.869,74.442,80.916z"/>
	<path fill-rule="evenodd" clip-rule="evenodd" fill="#211C16" d="M89.218,81.885c0.337-1.42,0.128-3.002,1.138-4.219
		c0.818-0.984,1.784-2.123,3.166-1.088c1.414,1.055,0.962,2.391-0.004,3.57c-0.526,0.643-1.116,1.234-2.101,2.311
		c2.108,0,3.722,0.047,5.33-0.016c0.957-0.039,0.874-0.846,0.633-1.393c-0.245-0.557-0.862-0.938-1.15-1.484
		c-0.549-1.043-1.007-2.537-0.071-3.182c1.442-0.994,1.381,0.941,1.982,1.59c1.42,1.529,2.8,3.07,0.82,5.164
		c-0.735,0.779-1.298,1.607-2.588,0.717c-1.623-1.125-2.994,1.021-4.626,0.564c-0.634-0.436-1.267-0.869-1.9-1.303
		c-0.122-0.482-0.088-1.045-0.67-1.291L89.218,81.885z"/>
	<path fill-rule="evenodd" clip-rule="evenodd" fill="#211C16" d="M67.099,80.514c-0.039-0.412-0.067-0.826-0.117-1.238
		c-0.404-3.34,0.164-7.205-4.452-8.285l0.014,0.047c0.194-0.242,0.389-0.484,0.583-0.727c2.486-0.121,4.616,1.367,7.04,1.555
		c0.636,0.047,1.298,0.303,1.161,1.139c-0.123,0.744-0.789,0.586-1.255,0.484c-1.315-0.277-1.389,0.461-1.269,1.422
		c0.17,1.355,0.246,2.732,0.519,4.066C69.809,81.357,68.968,81.635,67.099,80.514z"/>
	<path fill-rule="evenodd" clip-rule="evenodd" fill="#D6A659" d="M95.55,70.959c-1.32,1.859-3.354,1.17-5.121,1.434
		c-2.521,1.107-5.039,0.002-7.558-0.01c-0.23-0.008-0.461-0.018-0.69-0.025c-4.185-1.09-8.943,0.625-12.689-2.604l0.009-0.012
		C78.144,71.008,86.771,72.617,95.55,70.959z"/>
	<path fill-rule="evenodd" clip-rule="evenodd" fill="#DBB978" d="M63.126,70.311c-0.194,0.242-0.389,0.484-0.583,0.727
		c-0.987-0.631-1.269-1.607-1.311-2.699c0.401,0.033,0.802,0.066,1.203,0.104c0.249,0.055,0.496,0.113,0.744,0.168
		C63.162,69.176,63.144,69.742,63.126,70.311z"/>
	<path fill-rule="evenodd" clip-rule="evenodd" fill="#D6A659" d="M63.179,68.609c-0.248-0.055-0.495-0.113-0.744-0.168
		c0.004-0.352,0.009-0.701,0.014-1.049c0.806,0.502,1.948,0.197,2.598,1.078l-0.013,0.018
		C64.416,68.529,63.797,68.568,63.179,68.609z"/>
	<path fill-rule="evenodd" clip-rule="evenodd" fill="#D6A659" d="M69.492,69.754c-0.901,0.004-1.899,0.387-2.539-0.645l0.01-0.012
		c0.843,0.227,1.894-0.369,2.538,0.645L69.492,69.754z"/>
	<path fill-rule="evenodd" clip-rule="evenodd" fill="#D6A659" d="M66.953,69.109c-0.726,0.059-1.485,0.219-1.919-0.621
		c0,0,0.013-0.018,0.013-0.018c0.657,0.156,1.486-0.219,1.917,0.627L66.953,69.109z"/>
	<path fill-rule="evenodd" clip-rule="evenodd" fill="#DBB978" d="M89.177,81.826c0.582,0.246,0.548,0.809,0.67,1.291l-0.297,0.027
		l-0.297-0.004C89.228,82.705,89.203,82.266,89.177,81.826z"/>
	<path fill-rule="evenodd" clip-rule="evenodd" fill="#EEBA6B" d="M82.181,72.357c0.229,0.008,0.46,0.018,0.69,0.025
		C82.628,72.703,82.4,72.686,82.181,72.357z"/>
	<path fill-rule="evenodd" clip-rule="evenodd" fill="#AB782C" d="M112.716,67.178c-2.523-0.072-4.927,1.127-7.482,0.719
		c-5.119-0.025-10.238-0.055-15.357-0.084c-0.938-0.949-2.163-0.42-3.244-0.633c1.19-1.352,3.623,0.33,4.481-1.834
		c0.438-0.051,0.877-0.104,1.315-0.154c3.576-0.385,7.218,0.869,10.76-0.424c0.49,0.691,1.238,0.527,1.922,0.576
		c0.864,0.846,1.715,0.906,2.552-0.041c1.247-0.021,2.496-0.041,3.745-0.063c0.921,0.008,1.926,0.383,2.614-0.607
		c0.399-0.012,0.799-0.023,1.198-0.039c0.943,0.121,1.837,0.152,2.022-1.107c2.745,0.168,5.179-0.85,7.574-2.004
		c0.533,0.01,1.015-0.086,1.291-0.613c2.995-0.455,5.723-1.596,8.273-3.203c0.491,1.283,2.4-0.814,2.624,1.102
		c-0.816,0.256-1.644,0.496-1.963,1.432l-0.059,0.029c-2.752,0.406-5.773,0.41-6.254,4.217c-0.011,0.072-0.566,0.076-0.866,0.111
		c-0.514-1.904-2.07-1.26-3.074-0.959C120.77,64.801,116.307,64.549,112.716,67.178z"/>
	<path fill-rule="evenodd" clip-rule="evenodd" fill="#211C16" d="M133.823,80.143c-0.898,0.277-1.788,0.75-2.695,0.785
		c-0.919,0.033-2.501-0.551-2.213-1.299c1.331-3.453-0.821-7.867,2.922-10.604c0.647-0.018,1.295-0.037,1.942-0.057
		c1.68-0.125,2.153,0.785,1.984,2.283c-0.254,2.264-0.488,4.529-0.73,6.791c-0.375,0.672-0.751,1.344-1.126,2.014L133.823,80.143z
		 M131.75,75.514c1.28-1.533,2.08-2.836,1.871-4.504c-0.054-0.424-0.673-0.59-1.022-0.246
		C131.382,71.959,130.863,73.365,131.75,75.514z M130.449,79.064c2.552,0.254,2.126-1.416,2.136-2.75
		C131.935,77.15,131.287,77.986,130.449,79.064z"/>
	<path fill-rule="evenodd" clip-rule="evenodd" fill="#BE8A41" d="M135.033,78.043c0.242-2.262,0.477-4.527,0.73-6.791
		c0.169-1.498-0.305-2.408-1.984-2.283c1.294-1.643,1.434-3.541,1.223-5.518c0.813-0.174,1.626-0.348,2.439-0.521
		c0.542,2.242-1.063,4.664,0.567,6.818c-2.396,4.482-2.361,5.744,0.229,8.266c-1.161,1.109-0.468,2.535-0.647,3.809
		c-1.019,0.004-2.039,0.006-3.06,0.016c-1.625,0.01-0.677-1.047-0.708-1.697c0,0.002,0.084-0.084,0.083-0.084
		C135.179,79.889,136.407,79.695,135.033,78.043z"/>
	<path fill-rule="evenodd" clip-rule="evenodd" fill="#211C16" d="M122.846,79.25c-0.557-0.34-1.107-0.705-1.815-0.537
		c-0.192-0.688-0.386-1.377-0.578-2.068c0.734,0.066,1.146-0.162,1.207-1c0.188-2.578,0.44-5.15,0.668-7.727
		c1.048,0.256,1.495-1.881,2.668-0.758c0.871,0.834,0.404,1.975,0.19,2.973c-0.239,1.121-0.608,2.213-0.857,3.33
		c-0.133,0.604-0.409,1.607-0.148,1.805C127.829,78.021,123.995,78.178,122.846,79.25z"/>
	<path fill-rule="evenodd" clip-rule="evenodd" fill="#BE8A41" d="M122.328,67.918c-0.228,2.576-0.48,5.148-0.668,7.727
		c-0.062,0.838-0.473,1.066-1.207,1c0.033-1.338-0.218-2.664,0.32-4.004c0.646-1.607-0.451-1.707-1.635-1.576
		c-1.481-0.857-3.124-1.604-2.56-3.828c1.608-0.699,3.228-1.355,5.027-1.334C122.078,66.49,122.879,66.963,122.328,67.918z"/>
	<path fill-rule="evenodd" clip-rule="evenodd" fill="#DBB978" d="M121.606,65.902c-1.8-0.021-3.419,0.635-5.028,1.334
		c-1.278-0.004-2.556-0.008-3.835-0.012c0,0-0.025-0.045-0.025-0.047c3.59-2.629,8.053-2.377,12.072-3.58
		c1.004-0.301,2.561-0.945,3.074,0.959C125.712,64.709,123.571,64.893,121.606,65.902z"/>
	<path fill-rule="evenodd" clip-rule="evenodd" fill="#AB782C" d="M135.001,63.451c0.211,1.977,0.071,3.875-1.223,5.518
		c-0.647,0.02-1.295,0.039-1.942,0.057c0.292-1.834,1.774-3.822-0.68-5.303c0.356-0.096,0.715-0.193,1.069-0.289
		C133.15,63.439,134.076,63.445,135.001,63.451z"/>
	<path fill-rule="evenodd" clip-rule="evenodd" fill="#816C51" d="M135.011,61.508c-0.24,0.332-0.496,0.229-0.752,0.021
		C134.508,61.523,134.759,61.516,135.011,61.508z"/>
	<path fill-rule="evenodd" clip-rule="evenodd" fill="#211C16" d="M103.805,74.846c1.136-1.195,3.089,0.686,4.229-1.119
		c0.143-0.225,0.637,1.271,0.869,2.018c0.067,0.121,0.077,0.246,0.031,0.377c-3.319,0.662-2.226,3.572-2.856,5.605
		c-0.278,0.414-0.48,1.08-0.85,1.191c-0.903,0.271-0.887-0.609-1.058-1.166C103.476,79.482,104.122,77.137,103.805,74.846z"/>
	<path fill-rule="evenodd" clip-rule="evenodd" fill="#FCD16F" d="M140.063,23.345c0.882,2.849,3.681,4.192,5.148,6.683
		c2.546,4.315,3.401,8.523,1.343,13.194c-0.331,0.753-0.414,1.616-0.613,2.428c-0.681,1.033-1.357,2.067-2.036,3.102
		c-1.194,0.037-1.782,0.995-2.558,1.673c-2.447,2.142-5.156,3.818-8.328,4.666c1.489-1.322,3.036-2.584,4.456-3.977
		c7.657-7.498,7.624-17.138-0.146-24.521c-5.758-5.47-12.869-8.313-20.433-10.25c-7.445-1.906-15.044-1.958-22.647-2.002
		c-0.001-0.84-0.48-1.192-1.263-1.235c0.567-1.124,1.579-1.21,2.686-1.245c13.688-0.432,26.738,2.107,38.913,8.505
		C136.418,21.329,137.911,22.941,140.063,23.345z"/>
	<path fill-rule="evenodd" clip-rule="evenodd" fill="#FEE8B6" d="M92.986,13.104c0.782,0.043,1.262,0.396,1.263,1.235
		c-1.547,0.239-3.188,0.24-4.611,0.795c-1.076,0.419-2.944-0.305-3.161,1.729c-1.185-0.092-2.325,0.708-3.53,0.169
		c-6.128,0.063-11.187,2.925-16.102,6.158c-4.434,2.39-7.648,5.943-9.914,10.401l-0.156-0.068c-1.356,1.505-1.897-0.139-2.718-0.704
		c0.516-5.046,4.166-7.831,7.741-10.639c1.226-0.963,2.598-1.742,3.903-2.604c3.381-1.303,6.76-2.605,10.141-3.908
		C81.453,14.125,87.17,13.289,92.986,13.104z"/>
	<path fill-rule="evenodd" clip-rule="evenodd" fill="#FCD16F" d="M84.665,11.735c0.095,0.112,0.189,0.225,0.285,0.336
		c-0.112-0.095-0.224-0.188-0.337-0.284C84.611,11.787,84.665,11.735,84.665,11.735z"/>
	<path fill-rule="evenodd" clip-rule="evenodd" fill="#EEBA6B" d="M103.189,64.768c-3.542,1.293-7.184,0.039-10.761,0.424
		c-0.188-0.791-0.427-1.459-1.312-0.529c-1.467-0.031-2.933-0.063-4.398-0.094c-0.205-0.766-0.426-1.492-1.33-0.541
		c-1.683-0.23-3.366-0.461-5.05-0.693c-0.178-0.773-0.361-1.535-1.313-0.59c-0.411-0.016-0.822-0.033-1.232-0.047
		c-0.657-1.506-1.762-1.83-3.221-1.223c-2.854-0.801-5.772-1.434-8.253-3.195c-0.09-1.256-1-1.254-1.914-1.246
		c-4.381-2.119-7.935-5.119-10.152-9.541c2.117,0.739,3.67,2.276,5.269,3.744c1.244,1.143,2.466,2.322,4.389,1.766
		c0,0-0.078,0.105-0.078,0.105c0.067,0.529,0.247,0.604,0.56,0.139c8.892,6.469,19.062,9.176,29.83,10.055
		c2.393,0.195,4.763,1.338,7.159,0.584c2.086-0.654,4.143-0.594,6.243-0.475c0.007,0.379,0.015,0.758,0.021,1.137
		c-0.849,0.029-1.697,0.059-2.546,0.088C104.405,63.836,103.766,63.848,103.189,64.768z"/>
	<path fill-rule="evenodd" clip-rule="evenodd" fill="#FCD16F" d="M63.913,53.002c-1.924,0.557-3.147-0.623-4.391-1.766
		c-1.599-1.468-3.152-3.005-5.269-3.744c-0.52-1.14-1.979-1.699-1.962-3.171c0.001-2.545,0.002-5.09,0.003-7.635
		c1.694,0.411,2.678-1.604,4.348-1.274c-0.645,3.315-0.349,6.504,1.055,9.618C59.129,48.207,61.551,50.572,63.913,53.002z"/>
	<path fill-rule="evenodd" clip-rule="evenodd" fill="#816C51" d="M86.632,67.18c1.081,0.213,2.307-0.316,3.244,0.633
		c0.022,0.35,0.046,0.699,0.068,1.047c-6.022,0.016-11.675-1.666-17.222-3.795c-0.318-0.123-0.478-0.656-0.712-0.998l0.024-0.031
		C76.901,65.084,81.766,66.133,86.632,67.18z"/>
	<path fill-rule="evenodd" clip-rule="evenodd" fill="#8F5F2F" d="M59.939,60.35c-0.976-1.104-1.923-2.236-2.938-3.301
		c-0.781-0.822-0.622-1.232,0.455-1.398c2.41,1.391,4.898,2.658,6.974,4.559c-0.521,0.059-1.042,0.113-1.563,0.172
		C61.891,60.371,60.916,60.359,59.939,60.35z"/>
	<path fill-rule="evenodd" clip-rule="evenodd" fill="#816C51" d="M62.867,60.381c0.521-0.059,1.042-0.113,1.563-0.172
		c2.733,0.883,5.707,1.285,7.605,3.826l-0.024,0.031C68.365,64.322,65.731,62.064,62.867,60.381z"/>
	<path fill-rule="evenodd" clip-rule="evenodd" fill="#D6A659" d="M49.816,42.992c0.104-1.676-1.5-3.313-0.118-5.02
		c0.46,0.022,1.415-1.898,1.31,0.293c-0.08,1.652,0.251,3.219,0.641,4.792C51.038,43.036,50.427,43.014,49.816,42.992z"/>
	<path fill-rule="evenodd" clip-rule="evenodd" fill="#D6A659" d="M74.572,61.475c1.459-0.607,2.564-0.283,3.221,1.223
		C76.616,62.561,75.461,62.367,74.572,61.475z"/>
	<path fill-rule="evenodd" clip-rule="evenodd" fill="#D6A659" d="M64.405,57.033c0.914-0.008,1.824-0.01,1.914,1.246
		C65.379,58.328,64.741,57.914,64.405,57.033z"/>
	<path fill-rule="evenodd" clip-rule="evenodd" fill="#D6A659" d="M79.026,62.744c0.951-0.945,1.135-0.184,1.313,0.59
		C79.784,63.4,79.305,63.295,79.026,62.744z"/>
	<path fill-rule="evenodd" clip-rule="evenodd" fill="#D6A659" d="M85.388,64.027c0.904-0.951,1.125-0.225,1.33,0.541
		C86.161,64.668,85.683,64.574,85.388,64.027z"/>
	<path fill-rule="evenodd" clip-rule="evenodd" fill="#D6A659" d="M91.117,64.662c0.885-0.93,1.124-0.262,1.312,0.529
		c-0.438,0.051-0.876,0.104-1.314,0.154C91.115,65.119,91.116,64.891,91.117,64.662z"/>
	<path fill-rule="evenodd" clip-rule="evenodd" fill="#EFEFEF" d="M62.867,60.381c2.864,1.684,5.499,3.941,9.145,3.686
		c0.234,0.342,0.394,0.875,0.712,0.998c5.546,2.129,11.199,3.811,17.222,3.795c1.017,0.168,2.034,0.34,3.051,0.508
		c0.41,1.584,1.828,0.609,2.685,1.059c-0.06,0.174-0.104,0.352-0.13,0.535c-8.779,1.656-17.407,0.047-26.049-1.219
		c-0.644-1.014-1.695-0.418-2.538-0.645c-0.431-0.846-1.26-0.471-1.917-0.627c-0.649-0.881-1.791-0.576-2.597-1.078
		c-2.73-1.15-5.46-2.301-8.191-3.451c-0.201-0.365-0.402-0.729-0.604-1.094c2.095-0.834,4.19-1.666,6.284-2.498
		C60.916,60.359,61.891,60.371,62.867,60.381z"/>
	<path fill-rule="evenodd" clip-rule="evenodd" fill="#F0C784" d="M56.642,35.413c-1.67-0.33-2.654,1.685-4.348,1.274
		c0.389-1.26,0.488-2.522,0.021-3.787l0.016-0.017c0.576-0.02,1.152-0.041,1.727-0.062c0.819,0.564,1.36,2.208,2.717,0.703
		C56.73,34.154,56.686,34.783,56.642,35.413z"/>
	<path fill-rule="evenodd" clip-rule="evenodd" fill="#D6A659" d="M52.314,32.899c-0.09-0.055-0.18-0.109-0.27-0.163
		c0.095,0.049,0.189,0.097,0.286,0.146C52.331,32.882,52.314,32.899,52.314,32.899z"/>
	<path fill-rule="evenodd" clip-rule="evenodd" fill="#BE8A41" d="M143.905,48.751c0.679-1.034,1.355-2.068,2.036-3.102
		c2.162-0.028,1.666-3.075,3.696-3.252c-0.215,1.486-0.428,2.973-0.644,4.459c-2.42,4.91-6.358,8.357-10.842,11.287
		c-0.196,0.258-0.391,0.514-0.588,0.77l-0.042,0.021c-0.17-0.064-0.342-0.121-0.517-0.168c-0.224-1.916-2.133,0.182-2.624-1.102
		c0.588-0.406,1.191-0.789,1.759-1.221C139.057,54.213,142.442,52.451,143.905,48.751z"/>
	<path fill-rule="evenodd" clip-rule="evenodd" fill="#AB782C" d="M148.994,46.857c0.216-1.487,0.429-2.973,0.644-4.459
		c0.354-2.743,0.954-5.467,0.652-8.262c0.882,0.577,0.672,1.703,1.23,2.442C151.592,40.228,151.721,43.893,148.994,46.857z"/>
	<path fill-rule="evenodd" clip-rule="evenodd" fill="#AB782C" d="M149.66,32.903c0.175,0.171,0.349,0.342,0.522,0.513
		C150.007,33.245,149.833,33.074,149.66,32.903z"/>
	<path fill-rule="evenodd" clip-rule="evenodd" fill="#211C16" d="M138.238,78.014c-2.591-2.521-2.626-3.783-0.229-8.266
		c0.718-0.527,1.437-1.055,2.152-1.58c0.486,0.154,1.29,0.18,1.409,0.48c1.567,3.908,3.215,1.537,4.86,0.117
		c1.652-0.008,2.515,0.799,2.616,2.463c0.035,0.576,0.216,1.762,0.385,1.592c1.573-1.574,4.14-1.439,5.493-3.289
		c0.094-0.344,0.188-0.682,0.283-1.021c0.11-0.398,0.222-0.793,0.332-1.189c0.713-0.146,1.361-0.066,1.867,0.521
		c-0.271,1.479-0.544,2.953-0.814,4.43c-0.232,2.277-3.145,4.178-0.714,6.92c0.618,0.695-0.91,1.346-1.785,1.66
		c-0.877-0.764-1.108-2.246-3.104-1.42c-1.574,0.652-1.617-1.686-2.392-2.727c-1.124,0.512-1.561,1.824-2.783,1.988
		c-1.812-0.469-2.84-1.67-3.191-4.123C141.329,76.479,140.417,78.232,138.238,78.014z M140.777,72.658
		c-0.184-0.775,0.372-2.281-0.634-2.098c-1.725,0.316-1.571,2.221-1.763,3.617c-0.102,0.756-0.231,2.178,0.841,1.922
		C140.812,75.719,140.433,73.896,140.777,72.658z M146.813,70.307c-1.592,1.855-1.866,3.641-1.857,5.496
		c0.001,0.332,0.313,0.811,0.61,0.959c0.427,0.207,0.774-0.174,0.927-0.584C147.133,74.441,147.637,72.691,146.813,70.307z
		 M151.441,77.73c1.434-1.141,2.22-2.609,2.363-4.404c0.03-0.375-0.521-0.865-0.858-0.635c-1.632,1.123-1.879,2.852-1.814,4.668
		C151.133,77.434,151.246,77.504,151.441,77.73z"/>
	<path fill-rule="evenodd" clip-rule="evenodd" fill="#EEBA6B" d="M155.208,68.51c-0.095,0.34-0.189,0.678-0.283,1.021
		C155.018,69.191,155.113,68.85,155.208,68.51z"/>
	<path fill-rule="evenodd" clip-rule="evenodd" fill="#8F5F2F" d="M137.005,58.768c0.175,0.047,0.347,0.104,0.517,0.168
		c-0.422,1.215-1.381,1.377-2.479,1.264C135.362,59.264,136.189,59.023,137.005,58.768z"/>
	<path fill-rule="evenodd" clip-rule="evenodd" fill="#8F5F2F" d="M137.564,58.914c0.197-0.256,0.392-0.512,0.588-0.77
		C137.956,58.398,137.761,58.656,137.564,58.914z"/>
	<path fill-rule="evenodd" clip-rule="evenodd" fill="#D6A659" d="M140.161,68.168c-0.716,0.525-1.435,1.053-2.152,1.58
		c-1.631-2.154-0.025-4.576-0.567-6.818c1.555,0.021,3.468-0.947,4.39,1.055c0.598,1.299,0.237,2.633-1.237,3.402
		C140.375,67.5,140.302,67.898,140.161,68.168z"/>
	<path fill-rule="evenodd" clip-rule="evenodd" fill="#EEBA6B" d="M157.924,67.861c0.179,0.352,0.36,0.699,0.522,1.057
		c0.002,0.01-0.233,0.123-0.355,0.186c-0.058-0.412-0.113-0.826-0.169-1.236L157.924,67.861z"/>
	<path fill-rule="evenodd" clip-rule="evenodd" fill="#090708" d="M108.935,76.121c0.046-0.131,0.036-0.256-0.031-0.377
		c1.363-1.508,2.384-3.652,5.059-2.721l-0.011-0.033c0.091,0.521-0.015,1.141,0.69,1.35c-0.005,0.143-0.001,0.289,0.014,0.434
		c-1.707,0.502-2.121,2.34-3.403,3.338c-0.856,0.67-0.126,1.541,0.878,1.623c0.777,0.066,1.443-0.883,2.336-0.389
		c-0.886,1.367-2.174,2.287-3.733,1.723C108.365,80.213,109.13,77.928,108.935,76.121z"/>
	<path fill-rule="evenodd" clip-rule="evenodd" fill="#211C16" d="M114.656,74.773c-0.015-0.145-0.019-0.291-0.014-0.434
		c0.697-0.195,0.695-0.801,0.793-1.348c0.582-0.453,1.162-0.906,1.743-1.361c0.029,0.502,0.058,1.008,0.086,1.51
		c-0.35,1.529-1.074,3.041-0.34,4.66c1.26,0.002,0.853-1.314,1.527-1.703c0.232,0.822,0.465,1.643,0.695,2.467
		c-1.104,0.053-1.394,1.061-1.997,1.701c-1.115,0.328-1.74-0.85-2.737-0.889C114.63,77.848,115.124,76.336,114.656,74.773z"/>
	<path fill-rule="evenodd" clip-rule="evenodd" fill="#BE8A41" d="M114.656,74.773c0.468,1.563-0.025,3.074-0.243,4.604
		c0,0,0.054-0.029,0.054-0.031c-0.893-0.494-1.559,0.455-2.336,0.389c-1.004-0.082-1.734-0.953-0.878-1.623
		C112.535,77.113,112.949,75.275,114.656,74.773z"/>
	<path fill-rule="evenodd" clip-rule="evenodd" fill="#090708" d="M119.147,78.564c-0.23-0.824-0.463-1.645-0.694-2.467
		c-0.625-0.895,2.391-3.25-1.188-2.957c-0.028-0.502-0.057-1.008-0.086-1.51c0.409-1.033,1.374-0.143,1.96-0.566
		c1.184-0.131,2.281-0.031,1.635,1.576c-0.538,1.34-0.287,2.666-0.32,4.004c0.192,0.691,0.386,1.381,0.578,2.068
		c-0.427,0.236-0.853,0.473-1.279,0.709C119.551,79.135,119.349,78.852,119.147,78.564z"/>
	<path fill-rule="evenodd" clip-rule="evenodd" fill="#D6A659" d="M119.138,71.064c-0.586,0.424-1.551-0.467-1.96,0.566
		c-0.581,0.455-1.161,0.908-1.744,1.361c-0.494,0-0.988,0-1.482-0.002l0.011,0.033c-0.009-0.104,0.012-0.281-0.033-0.299
		c-3.02-1.273-2.105-3.387-1.187-5.5c1.279,0.004,2.557,0.008,3.835,0.012C116.014,69.461,117.657,70.207,119.138,71.064z"/>
	<path fill-rule="evenodd" clip-rule="evenodd" fill="#8F5F2F" d="M92.996,69.367c-1.017-0.168-2.034-0.34-3.051-0.508
		c-0.022-0.348-0.046-0.697-0.068-1.047c5.119,0.029,10.238,0.059,15.357,0.084c-1.302,1.961-3.308,1.135-5.068,1.279
		c-1.467,0.078-2.804-0.977-4.316-0.49C94.898,68.914,93.947,69.141,92.996,69.367z"/>
	<path fill-rule="evenodd" clip-rule="evenodd" fill="#DBB978" d="M92.996,69.367c0.951-0.227,1.902-0.453,2.854-0.682
		c0.151,0.354,0.303,0.703,0.453,1.055c-0.037,0.23-0.073,0.461-0.11,0.691h-0.257l-0.256-0.006
		C94.824,69.977,93.406,70.951,92.996,69.367z"/>
	<path fill-rule="evenodd" clip-rule="evenodd" fill="#816C51" d="M96.303,69.74c-0.15-0.352-0.302-0.701-0.453-1.055
		c1.512-0.486,2.849,0.568,4.315,0.49c-0.888,0.363-1.776,0.723-2.665,1.086C97.238,69.775,96.786,69.725,96.303,69.74z"/>
	<path fill-rule="evenodd" clip-rule="evenodd" fill="#D6A659" d="M96.303,69.74c0.482-0.016,0.935,0.035,1.197,0.521
		c-0.348,0.723-0.771,0.875-1.308,0.168C96.23,70.201,96.266,69.971,96.303,69.74z"/>
	<path fill-rule="evenodd" clip-rule="evenodd" fill="#DBB978" d="M74.442,80.916c-0.846-0.047-0.989-0.682-1.03-1.271
		c-0.066-0.979-0.393-2.191,1.033-2.467c0.604-0.119,1.262,0.336,1.23,1.076C75.632,79.275,75.411,80.287,74.442,80.916z"/>
	<path fill-rule="evenodd" clip-rule="evenodd" fill="#D6A659" d="M143.905,48.751c-1.463,3.7-4.848,5.461-7.765,7.694
		c-0.567,0.432-1.171,0.814-1.759,1.221c-2.551,1.607-5.278,2.748-8.273,3.203c-0.984-0.963-1.147-0.193-1.291,0.613
		c-2.396,1.154-4.829,2.172-7.575,2.004c-0.945-0.123-1.809-0.1-2.021,1.107c-0.399,0.016-0.799,0.027-1.198,0.039
		c-1.125-0.887-2.064-0.977-2.614,0.607c-1.249,0.021-2.498,0.041-3.745,0.063c-0.007-0.252-0.011-0.504-0.017-0.756
		c-0.007-0.379-0.015-0.758-0.021-1.137c7.419-1.502,14.801-3.131,21.722-6.34c0.494,0.578,0.448,0.033,0.527-0.252
		c0.216-0.139,0.433-0.277,0.648-0.412c0.529-0.053,1.05-0.119,1.319-0.678l-0.055,0.035c0.542-0.023,1.061-0.094,1.314-0.676
		l-0.083,0.002c3.172-0.848,5.881-2.523,8.328-4.666C142.123,49.747,142.71,48.788,143.905,48.751z"/>
	<path fill-rule="evenodd" clip-rule="evenodd" fill="#BE8A41" d="M111.408,65.24c0.55-1.584,1.489-1.494,2.614-0.607
		C113.333,65.623,112.329,65.248,111.408,65.24z"/>
	<path fill-rule="evenodd" clip-rule="evenodd" fill="#BE8A41" d="M107.646,64.547c0.006,0.252,0.01,0.504,0.017,0.756
		c-0.837,0.947-1.688,0.887-2.552,0.041c-0.005-0.236-0.007-0.473-0.011-0.709C105.949,64.605,106.797,64.576,107.646,64.547z"/>
	<path fill-rule="evenodd" clip-rule="evenodd" fill="#D6A659" d="M105.1,64.635c0.004,0.236,0.006,0.473,0.011,0.709
		c-0.684-0.049-1.432,0.115-1.922-0.576C103.766,63.848,104.405,63.836,105.1,64.635z"/>
	<path fill-rule="evenodd" clip-rule="evenodd" fill="#BE8A41" d="M115.22,64.594c0.213-1.207,1.076-1.23,2.021-1.107
		C117.057,64.746,116.164,64.715,115.22,64.594z"/>
	<path fill-rule="evenodd" clip-rule="evenodd" fill="#BE8A41" d="M124.817,61.482c0.144-0.807,0.307-1.576,1.291-0.613
		C125.832,61.396,125.35,61.492,124.817,61.482z"/>
	<path fill-rule="evenodd" clip-rule="evenodd" fill="#8F5F2F" d="M131.75,75.514c-0.887-2.148-0.367-3.555,0.849-4.75
		c0.35-0.344,0.969-0.178,1.022,0.246C133.83,72.678,133.03,73.98,131.75,75.514z"/>
	<path fill-rule="evenodd" clip-rule="evenodd" fill="#8F5F2F" d="M130.449,79.064c0.838-1.078,1.486-1.914,2.136-2.75
		C132.575,77.648,133,79.318,130.449,79.064z"/>
	<path fill-rule="evenodd" clip-rule="evenodd" fill="#8F5F2F" d="M135.033,78.043c1.374,1.652,0.146,1.846-1.127,2.014
		C134.282,79.387,134.658,78.715,135.033,78.043z"/>
	<path fill-rule="evenodd" clip-rule="evenodd" fill="#F52529" d="M129.347,57.07c-6.921,3.209-14.303,4.838-21.722,6.34
		c-2.102-0.119-4.158-0.18-6.244,0.475c-2.396,0.754-4.767-0.389-7.159-0.584c-10.768-0.879-20.938-3.586-29.83-10.055
		c-0.157-0.162-0.344-0.209-0.559-0.139c0,0,0.078-0.105,0.078-0.105c-2.36-2.43-4.782-4.795-6.214-7.972
		c-1.404-3.113-1.7-6.303-1.055-9.618c0.044-0.629,0.088-1.259,0.133-1.889c0,0,0.156,0.069,0.156,0.069
		c1.905-0.236,1.585,2.637,3.444,2.465c-0.465,4.812,0.868,9.05,4.238,12.53c7.759,8.017,17.891,10.867,28.427,12.041
		c6.415,0.715,12.955,0.324,19.462-0.936c8.063-1.561,15.46-4.275,21.615-9.73c7.598-6.727,7.603-15.77,0.243-22.708
		c-2.091-1.973-4.407-3.64-6.97-4.959c-9.796-5.049-20.284-6.399-31.149-6.061c-3.271,0.102-6.455,1.355-9.765,0.63
		c0.217-2.034,2.085-1.31,3.161-1.729c1.424-0.555,3.064-0.556,4.611-0.795c7.604,0.044,15.202,0.096,22.647,2.002
		c7.563,1.937,14.675,4.78,20.433,10.25c7.771,7.383,7.804,17.023,0.146,24.521c-1.42,1.393-2.967,2.654-4.456,3.977l0.083-0.002
		c-0.58-0.047-0.996,0.217-1.314,0.676l0.055-0.035c-0.439,0.227-0.879,0.451-1.319,0.678c-0.216,0.135-0.433,0.273-0.648,0.412
		C129.692,56.889,129.516,56.973,129.347,57.07z"/>
	<path fill-rule="evenodd" clip-rule="evenodd" fill="#090708" d="M86.476,16.865c3.31,0.725,6.494-0.528,9.765-0.63
		c10.865-0.339,21.354,1.012,31.149,6.061c2.563,1.32,4.879,2.986,6.97,4.959c7.359,6.939,7.354,15.981-0.243,22.708
		c-6.155,5.455-13.553,8.169-21.615,9.73c-6.507,1.26-13.047,1.65-19.462,0.936c-10.536-1.174-20.668-4.023-28.427-12.041
		c-3.37-3.48-4.703-7.718-4.238-12.531c0.99-4.176,3.701-7.24,6.58-10.195c4.43-2.995,9.065-5.573,14.257-7.02
		c0.94-0.261,1.844-0.546,1.734-1.809C84.151,17.572,85.292,16.772,86.476,16.865z M77.563,36.275c2.221,0,3.662,0.01,5.1-0.004
		c0.598-0.006,1.171-0.263,0.675-0.906c-0.845-1.093-0.369-2.064,0.568-2.232c1.83-0.326,3.851-0.729,5.564,0.232
		c1.328,0.744-0.402,1.762-0.204,2.885c5.296,0,10.579,0.002,15.863-0.001c3.758-0.002,4.38-0.629,4.606-4.696
		c-1.347,0.901-2.229,2.348-3.822,2.816c-1.068,0.313-2.496,0.594-2.504-0.842c-0.024-3.974-1.096-8.038,0.648-11.889
		c-2.236,0-4.485,0-6.636,0c1.449,4.242,0.765,8.448,0.754,12.604c-0.002,0.576-0.433,0.95-1.051,0.958
		c-0.869,0.011-1.31-0.571-1.661-1.258c-1.202-2.356-2.439-4.695-3.597-7.074c-0.814-1.672-2.161-3.253-0.896-5.241
		c-2.58,0-4.848,0-7.204,0C85.187,24.144,81.594,33.086,77.563,36.275z M114.93,38.175c1.385,5.04,1.257,9.875-0.062,14.813
		c2.948,0.025,5.904,0.26,8.823-0.332c3.631-0.738,5.9-4.093,5.524-8.064c-0.362-3.825-2.764-6.258-6.499-6.398
		C119.981,38.092,117.241,38.175,114.93,38.175z M102.464,45.759c0.052-4.391-3.305-7.705-7.853-7.757
		c-4.671-0.053-8.058,3.045-8.119,7.427c-0.064,4.589,3.011,7.646,7.757,7.708C98.888,53.199,102.415,50.03,102.464,45.759z
		 M84.131,43.049c0.312-3.303-1.073-4.58-4.318-5.011c-6.204-0.822-10.675,3.885-9.036,9.929c0.97,3.579,4.357,5.591,8.739,5.188
		c4.077-0.373,4.893-1.303,5.318-5.961c0.063-0.693,0.301-1.371,0.519-2.324c-1.101,0-2.037,0-2.974,0c-0.927,0-1.854,0-3.082,0
		c0.887,1.517,0.879,2.869,0.842,4.236c-0.024,0.885-0.01,1.805-1.127,1.934c-0.97,0.113-1.537-0.542-1.861-1.404
		c-0.885-2.357-0.897-4.8-0.435-7.208c0.507-2.643,2.537-3.266,4.732-1.674C82.363,41.418,82.63,42.792,84.131,43.049z
		 M103.263,38.239c0.325,5.125,1.077,9.856-0.657,14.751c2.168,0,4.275,0.002,6.385,0c4.01-0.006,4.404-0.4,4.786-4.958
		c-0.983,0.812-1.797,1.634-2.749,2.237c-1.558,0.988-2.83,1.175-2.674-1.376c0.218-3.542-0.465-7.124,0.544-10.654
		C106.816,38.239,104.825,38.239,103.263,38.239z M121.714,31.774c-1.422,1.055-2.275,1.813-3.242,2.377
		c-1.369,0.796-2.654,0.678-2.574-1.231c0.156-3.773-1.167-7.635,0.796-11.295c-2.328,0-4.477,0-6.185,0
		c0.32,4.878,1.599,9.586-0.241,14.562c2.59,0,5.121-0.154,7.625,0.04C120.877,36.457,121.747,34.981,121.714,31.774z"/>
	<path fill-rule="evenodd" clip-rule="evenodd" fill="#F76B4C" d="M66.955,25.862c-2.879,2.956-5.59,6.02-6.58,10.195
		c-1.859,0.172-1.54-2.701-3.444-2.465c2.265-4.458,5.479-8.011,9.914-10.4C66.881,24.083,66.917,24.972,66.955,25.862z"/>
	<path fill-rule="evenodd" clip-rule="evenodd" fill="#F52529" d="M66.955,25.862c-0.037-0.89-0.074-1.779-0.111-2.67
		c4.916-3.233,9.974-6.095,16.102-6.158c0.109,1.263-0.794,1.547-1.734,1.809C76.02,20.29,71.384,22.867,66.955,25.862z"/>
	<path fill-rule="evenodd" clip-rule="evenodd" fill="#FCD16F" d="M63.833,53.107c0.215-0.07,0.402-0.023,0.559,0.139
		C64.08,53.711,63.9,53.637,63.833,53.107z"/>
	<path fill-rule="evenodd" clip-rule="evenodd" fill="#BE8A41" d="M140.777,72.658c-0.344,1.238,0.035,3.061-1.556,3.441
		c-1.072,0.256-0.942-1.166-0.841-1.922c0.191-1.396,0.038-3.301,1.763-3.617C141.149,70.377,140.593,71.883,140.777,72.658z"/>
	<path fill-rule="evenodd" clip-rule="evenodd" fill="#DBB978" d="M146.813,70.307c0.824,2.385,0.32,4.135-0.32,5.871
		c-0.152,0.41-0.5,0.791-0.927,0.584c-0.298-0.148-0.609-0.627-0.61-0.959C144.947,73.947,145.221,72.162,146.813,70.307z"/>
	<path fill-rule="evenodd" clip-rule="evenodd" fill="#DBB978" d="M151.441,77.73c-0.195-0.227-0.308-0.297-0.31-0.371
		c-0.064-1.816,0.183-3.545,1.814-4.668c0.337-0.23,0.889,0.26,0.858,0.635C153.661,75.121,152.875,76.59,151.441,77.73z"/>
	<path fill-rule="evenodd" clip-rule="evenodd" fill="#EEBA6B" d="M113.952,72.99c0.494,0.002,0.988,0.002,1.482,0.002
		c-0.097,0.547-0.095,1.152-0.792,1.348C113.937,74.131,114.042,73.512,113.952,72.99z"/>
	<path fill-rule="evenodd" clip-rule="evenodd" fill="#BE8A41" d="M117.264,73.141c3.579-0.293,0.563,2.063,1.188,2.957
		c-0.676,0.389-0.269,1.705-1.528,1.703C116.19,76.182,116.915,74.67,117.264,73.141z"/>
	<path fill-rule="evenodd" clip-rule="evenodd" fill="#FCD16F" d="M130.523,56.406c0.44-0.227,0.88-0.451,1.319-0.678
		C131.573,56.287,131.052,56.354,130.523,56.406z"/>
	<path fill-rule="evenodd" clip-rule="evenodd" fill="#FCD16F" d="M131.788,55.764c0.318-0.459,0.734-0.723,1.314-0.676
		C132.848,55.67,132.33,55.74,131.788,55.764z"/>
	<path fill-rule="evenodd" clip-rule="evenodd" fill="#FCD16F" d="M129.347,57.07c0.169-0.098,0.345-0.182,0.527-0.252
		C129.795,57.104,129.841,57.648,129.347,57.07z"/>
	<path fill-rule="evenodd" clip-rule="evenodd" fill="#EFEFEF" d="M77.563,36.275c4.032-3.189,7.625-12.132,6.205-14.648
		c2.356,0,4.624,0,7.204,0c-1.265,1.988,0.082,3.569,0.896,5.241c1.157,2.378,2.395,4.718,3.597,7.074
		c0.352,0.688,0.792,1.27,1.661,1.258c0.618-0.008,1.049-0.382,1.051-0.958c0.011-4.156,0.695-8.361-0.754-12.604
		c2.15,0,4.399,0,6.636,0c-1.744,3.851-0.673,7.915-0.648,11.889c0.008,1.436,1.436,1.156,2.504,0.842
		c1.594-0.469,2.476-1.916,3.822-2.816c-0.227,4.067-0.849,4.693-4.606,4.696c-5.284,0.003-10.567,0.001-15.863,0.001
		c-0.198-1.123,1.532-2.141,0.204-2.885c-1.714-0.961-3.734-0.558-5.564-0.232c-0.938,0.167-1.413,1.139-0.568,2.232
		c0.496,0.643-0.077,0.899-0.675,0.906C81.224,36.286,79.784,36.275,77.563,36.275z M87.958,30.824
		c0.001-1.441-0.813-2.377-1.808-3.629c-0.229,1.404-1.45,2.19-1.167,3.629C86.04,30.824,86.973,30.824,87.958,30.824z"/>
	<path fill-rule="evenodd" clip-rule="evenodd" fill="#EFEFEF" d="M114.93,38.175c2.311,0,5.051-0.083,7.787,0.02
		c3.735,0.14,6.137,2.573,6.499,6.398c0.376,3.971-1.894,7.326-5.524,8.064c-2.919,0.592-5.875,0.357-8.823,0.332
		C116.187,48.05,116.315,43.215,114.93,38.175z M120.852,45.365c0,1.047-0.058,2.099,0.021,3.14c0.05,0.661-0.388,1.614,0.539,1.907
		c0.938,0.294,1.637-0.412,2.008-1.155c1.283-2.583,1.155-5.259,0.149-7.884c-0.32-0.835-1.194-1.24-2.081-1.012
		c-0.993,0.257-0.591,1.198-0.628,1.862C120.801,43.268,120.844,44.317,120.852,45.365z"/>
	<path fill-rule="evenodd" clip-rule="evenodd" fill="#EFEFEF" d="M102.464,45.759c-0.05,4.271-3.576,7.44-8.215,7.377
		c-4.746-0.063-7.821-3.119-7.757-7.708c0.062-4.382,3.448-7.479,8.119-7.427C99.16,38.054,102.516,41.368,102.464,45.759z
		 M96.866,45.29c-0.123-0.875-0.233-2.135-0.489-3.366c-0.226-1.087-0.772-2.054-2.082-1.962c-1.269,0.088-1.788,1.099-1.946,2.176
		c-0.182,1.244-0.315,2.54-0.167,3.776c0.226,1.868-0.364,4.865,2.283,4.818C97.263,50.68,96.639,47.698,96.866,45.29z"/>
	<path fill-rule="evenodd" clip-rule="evenodd" fill="#EFEFEF" d="M84.131,43.049c-1.501-0.258-1.769-1.631-2.684-2.294
		c-2.195-1.592-4.225-0.969-4.732,1.674c-0.462,2.409-0.45,4.851,0.435,7.208c0.324,0.861,0.892,1.517,1.861,1.404
		c1.117-0.129,1.103-1.048,1.127-1.934c0.037-1.367,0.045-2.719-0.842-4.236c1.229,0,2.155,0,3.082,0c0.937,0,1.873,0,2.974,0
		c-0.218,0.953-0.455,1.631-0.519,2.324c-0.426,4.659-1.241,5.588-5.318,5.961c-4.382,0.402-7.769-1.609-8.739-5.188
		c-1.639-6.044,2.833-10.751,9.036-9.929C83.058,38.469,84.443,39.746,84.131,43.049z"/>
	<path fill-rule="evenodd" clip-rule="evenodd" fill="#EFEFEF" d="M103.263,38.239c1.562,0,3.553,0,5.635,0
		c-1.009,3.531-0.326,7.112-0.544,10.654c-0.156,2.552,1.116,2.364,2.674,1.376c0.952-0.604,1.766-1.425,2.749-2.237
		c-0.382,4.557-0.776,4.952-4.786,4.958c-2.109,0.002-4.217,0-6.385,0C104.34,48.095,103.588,43.365,103.263,38.239z"/>
	<path fill-rule="evenodd" clip-rule="evenodd" fill="#EFEFEF" d="M121.714,31.774c0.032,3.207-0.837,4.683-3.821,4.452
		c-2.504-0.193-5.035-0.04-7.625-0.04c1.84-4.976,0.562-9.684,0.241-14.562c1.708,0,3.856,0,6.185,0
		c-1.963,3.66-0.64,7.522-0.796,11.295c-0.08,1.909,1.205,2.027,2.574,1.231C119.439,33.587,120.292,32.83,121.714,31.774z"/>
	<path fill-rule="evenodd" clip-rule="evenodd" fill="#211C16" d="M87.958,30.824c-0.985,0-1.919,0-2.975,0
		c-0.283-1.439,0.938-2.225,1.167-3.629C87.146,28.446,87.959,29.383,87.958,30.824z"/>
	<path fill-rule="evenodd" clip-rule="evenodd" fill="#090708" d="M120.848,45.365c-0.004-1.048-0.047-2.097,0.013-3.141
		c0.037-0.664-0.365-1.605,0.628-1.862c0.887-0.228,1.761,0.176,2.081,1.012c1.006,2.625,1.134,5.3-0.149,7.884
		c-0.371,0.743-1.07,1.449-2.008,1.155c-0.927-0.293-0.489-1.247-0.539-1.907C120.794,47.464,120.852,46.412,120.848,45.365z"/>
	<path fill-rule="evenodd" clip-rule="evenodd" fill="#090708" d="M96.866,45.29c-0.227,2.409,0.397,5.39-2.401,5.443
		c-2.647,0.047-2.058-2.95-2.283-4.818c-0.148-1.237-0.015-2.533,0.167-3.776c0.158-1.077,0.678-2.088,1.946-2.176
		c1.31-0.092,1.856,0.875,2.082,1.962C96.632,43.155,96.743,44.415,96.866,45.29z"/>
</g>
</svg>
