<?xml version="1.0" encoding="utf-8"?>
<!-- Generator: Adobe Illustrator 16.0.2, SVG Export Plug-In . SVG Version: 6.00 Build 0)  -->
<!DOCTYPE svg PUBLIC "-//W3C//DTD SVG 1.1//EN" "http://www.w3.org/Graphics/SVG/1.1/DTD/svg11.dtd">
<svg version="1.1" id="Layer_1" xmlns="http://www.w3.org/2000/svg" xmlns:xlink="http://www.w3.org/1999/xlink" x="0px" y="0px"
	 width="208.833px" height="100px" viewBox="0 0 208.833 100" enable-background="new 0 0 208.833 100" xml:space="preserve">
<rect x="2.414" y="2.383" fill="#FFFFFF" stroke="#B3B3B3" stroke-miterlimit="10" width="203.833" height="95.617"/>
<path display="none" fill="#EC262F" d="M49.796,42.539c1.172,0.127,3.026-0.62,3.937,0.272c0.915,0.896,0.233,2.754,0.289,4.19
	c0.049,1.282-0.03,2.57,0.025,3.853c0.036,0.853-0.217,1.19-1.125,1.172c-2.343-0.055-4.689-0.055-7.033-0.004
	c-0.918,0.021-1.299-0.223-1.273-1.211c0.06-2.399,0.042-4.803,0.008-7.205c-0.012-0.784,0.246-1.106,1.057-1.076
	C46.964,42.576,48.249,42.539,49.796,42.539z"/>
<path display="none" fill="#A42588" d="M54.102,59.986c-0.19,1.264,0.698,3.242-0.362,4.231c-0.956,0.894-2.882,0.255-4.376,0.251
	c-1.494,0-3.424,0.646-4.372-0.257c-1.042-0.998-0.26-2.967-0.346-4.509c-0.067-1.227,0.01-2.457-0.021-3.686
	c-0.019-0.711,0.257-0.998,0.978-0.994c2.513,0.024,5.026,0.024,7.539,0c0.728-0.004,0.985,0.301,0.968,1.006
	C54.08,57.258,54.102,58.484,54.102,59.986z"/>
<path display="none" fill="#1DA4C9" d="M36.559,64.495c-1.231-0.118-3.17,0.637-4.107-0.276c-1.018-0.992-0.291-2.962-0.319-4.503
	c-0.027-1.491-0.643-3.425,0.25-4.364c0.912-0.963,2.863-0.24,4.356-0.309c1.171-0.05,2.35,0.059,3.516-0.029
	c1.075-0.08,1.323,0.348,1.293,1.35c-0.067,2.229-0.091,4.468,0.005,6.695c0.052,1.241-0.438,1.537-1.554,1.453
	C38.947,64.432,37.88,64.495,36.559,64.495z"/>
<path display="none" fill="#A8A9AC" d="M62.164,55.119c1.209,0.129,3.11-0.637,4.094,0.297c1.002,0.945,0.313,2.863,0.327,4.354
	c0.048,4.758,0.018,4.758-4.823,4.758c-0.391,0-0.782,0-1.174,0c-3.684,0-3.796-0.069-3.565-3.784
	c0.094-1.507,0.297-2.988,0.001-4.494c-0.146-0.735,0.16-1.162,0.999-1.138C59.309,55.146,60.595,55.119,62.164,55.119z"/>
<path display="none" fill="#F18423" d="M29.063,59.867c0,1.172-0.046,2.346,0.016,3.516c0.047,0.906-0.333,1.143-1.178,1.124
	c-2.342-0.039-4.688-0.032-7.031-0.004c-0.809,0.015-1.231-0.16-1.209-1.099c0.052-2.4,0.036-4.803,0.004-7.2
	c-0.009-0.759,0.195-1.114,1.027-1.101c2.455,0.035,4.909,0.039,7.361-0.004c0.832-0.015,1.05,0.317,1.023,1.084
	C29.031,57.411,29.063,58.641,29.063,59.867z"/>
<path display="none" fill="#129048" d="M41.385,47.2c0,1.495,0.584,3.481-0.153,4.36c-0.866,1.035-2.918,0.297-4.453,0.322
	c-1.49,0.021-3.422,0.646-4.358-0.26c-0.941-0.916-0.259-2.857-0.29-4.345c-0.032-1.5-0.509-3.485,0.248-4.369
	c0.891-1.043,2.941-0.264,4.484-0.34c1.224-0.064,2.454,0.013,3.68-0.024c0.72-0.021,0.991,0.245,0.965,0.97
	c-0.043,1.228-0.012,2.457-0.012,3.685C41.458,47.2,41.422,47.2,41.385,47.2z"/>
<path display="none" fill="#A8A9AC" d="M24.414,42.664c1.005,0,2.017,0.066,3.015-0.017c1.195-0.104,1.721,0.218,1.654,1.545
	c-0.108,2.117-0.073,4.248-0.01,6.369c0.03,1.029-0.335,1.365-1.351,1.34c-2.232-0.06-4.469-0.053-6.703-0.006
	c-0.963,0.023-1.428-0.211-1.396-1.293c0.065-2.231,0.054-4.471,0.003-6.705c-0.021-0.953,0.329-1.292,1.268-1.249
	C22.065,42.707,23.239,42.664,24.414,42.664z"/>
<g display="none">
	<path display="inline" fill="#3F1E15" d="M57.272,35.457c-1.09-0.14-2.079,0.071-3.045,0.4c-7.466,2.543-13.485,7.004-17.92,13.553
		c-1.292,1.906-2.255,3.947-2.33,6.307c-0.076,2.414,0.826,3.35,3.23,3.393c2.216,0.039,4.357-0.409,6.468-1.018
		c3.547-1.02,7.01-2.27,10.29-3.979c2.265-1.178,4.038-2.881,5.4-5.055c2.71-4.326,6.527-7.032,11.657-7.719
		c0.602-0.081,1.218-0.1,1.826-0.084c1.288,0.031,2.309,0.576,2.927,1.73c0.276,0.517,0.625,0.766,1.224,0.826
		c3.389,0.343,4.357,1.771,3.447,5.055c-0.395,1.424-1.051,2.735-1.778,4.018c-0.325,0.572-0.592,1.166,0.034,1.729
		c0.597,0.537,1.183,0.295,1.759-0.035c1.165-0.67,1.972-1.686,2.678-2.797c3.232-5.088,6.727-9.985,10.664-14.555
		c4.603-5.342,9.556-10.294,15.684-13.918c1.57-0.929,3.207-1.693,5.102-1.438c2.211,0.299,3.638,1.887,3.701,4.123
		c0.069,2.457-0.728,4.694-1.924,6.793c-1.736,3.049-4.136,5.559-6.672,7.936c-5.036,4.721-10.824,8.374-16.813,11.733
		c-1.111,0.623-2.269,1.174-3.304,1.922c-0.911,0.66-1.225,1.443-0.986,2.271c0.223,0.77,0.708,1.178,1.521,1.133
		c2.468-0.133,4.582-0.943,6.092-3.041c3.293-4.58,7.671-7.803,12.794-10.06c0.58-0.255,1.195-0.44,1.809-0.608
		c1.52-0.415,2.906-0.117,4.17,0.816c0.786,0.58,1.499,1.243,2.126,1.985c0.567,0.672,1.16,0.725,1.903,0.313
		c1.386-0.768,2.839-1.24,4.461-0.947c2.063,0.373,2.58,1.609,1.354,3.311c-1.104,1.531-2.221,3.052-3.323,4.582
		c-0.246,0.343-0.5,0.72-0.108,1.111c0.37,0.373,0.723,0.088,1.051-0.104c4.585-2.67,8.597-5.99,11.718-10.322
		c0.08-0.112,0.172-0.219,0.243-0.337c0.214-0.348,0.589-0.695,0.343-1.125c-0.252-0.441-0.768-0.393-1.205-0.366
		c-1.854,0.108-3.709,0.255-5.565,0.358c-3.64,0.2-7.271,0.261-10.83-0.721c-0.319-0.088-0.642-0.184-0.942-0.315
		c-1.846-0.808-2.188-2.858-0.66-4.175c1.793-1.545,3.955-2.182,6.269-2.383c4.692-0.404,9.317,0.078,13.858,1.25
		c2.297,0.592,4.033,0.103,5.443-1.863c1.758-2.447,4.078-4.301,6.694-5.775c1.56-0.88,3.204-1.363,5.024-0.964
		c0.727,0.159,1.313,0.431,1.529,1.21c0.229,0.818-0.043,1.48-0.656,2.012c-1.582,1.368-2.969,2.914-4.195,4.605
		c-0.272,0.375-0.692,0.738-0.368,1.252c0.347,0.551,0.879,0.428,1.419,0.305c1.225-0.275,2.029-1.082,2.725-2.051
		c1.18-1.646,2.354-3.298,3.661-4.846c1.604-1.898,3.378-3.604,5.519-4.896c1.479-0.894,3.053-1.289,4.776-0.871
		c1.595,0.386,2.052,1.298,1.317,2.762c-0.663,1.322-1.567,2.488-2.549,3.586c-1.293,1.449-2.639,2.852-3.93,4.305
		c-0.5,0.564-1.283,1.158-0.904,1.994c0.355,0.785,1.287,0.631,2.021,0.64c3.197,0.037,6.376,0.247,9.517,0.881
		c0.459,0.093,0.929,0.165,1.336,0.429c0.42,0.272,0.58,0.662,0.515,1.143c-0.065,0.476-0.298,0.836-0.799,0.95
		c-0.216,0.049-0.437,0.102-0.654,0.101c-4.86-0.035-9.688,0.621-14.543,0.73c-1.173,0.025-2.103,0.495-2.905,1.378
		c-3.258,3.576-6.324,7.296-8.922,11.386c-0.259,0.406-0.585,0.836-0.078,1.244c0.498,0.399,0.864-0.014,1.228-0.316
		c4.657-3.863,9.347-7.682,14.642-10.668c1.992-1.125,4.067-2.015,6.36-2.332c2.157-0.299,3.508,0.398,4.45,2.361
		c0.048,0.1,0.086,0.204,0.133,0.305c0.66,1.463,1.013,1.573,2.373,0.7c1.727-1.108,3.552-1.374,5.473-0.615
		c1.684,0.662,2.163,2.078,1.25,3.631c-0.251,0.428-0.578,0.813-0.902,1.191c-2.871,3.352-5.754,6.692-8.623,10.047
		c-0.66,0.771-1.347,1.442-2.479,1.08c-1.188-0.382-1.689-1.3-1.779-2.461c-0.058-0.736-0.011-1.48-0.011-2.371
		c-1.079,0.6-2.035,1.137-2.996,1.668c-2.963,1.633-5.931,3.254-9.237,4.11c-1.023,0.267-2.059,0.472-3.121,0.431
		c-1.558-0.06-2.681-0.771-3.308-2.229c-0.588-1.371-0.979-1.459-2.118-0.492c-1.293,1.096-2.602,2.168-3.99,3.139
		c-0.317,0.223-0.645,0.436-0.985,0.617c-1.043,0.555-2.097,0.705-3.147,0.012c-1.065-0.703-1.26-1.762-1.183-2.924
		c0.119-1.801,0.718-3.459,1.542-5.047c0.184-0.354,0.418-0.715-0.036-1.021c-0.459-0.307-0.784-0.016-1.063,0.32
		c-1.739,2.106-3.672,4.014-5.879,5.631c-1.164,0.854-2.364,1.649-3.699,2.224c-2.25,0.965-3.909-0.273-3.666-2.718
		c0.104-1.043,0.474-1.985,0.963-2.896c0.211-0.394,0.488-0.797,0.031-1.195c-0.426-0.373-0.838-0.152-1.213,0.102
		c-1.863,1.256-3.713,2.531-5.578,3.783c-1.256,0.842-2.625,1.43-4.106,1.742c-1.948,0.412-3.04-0.24-3.54-2.148
		c-0.161-0.612-0.238-1.25-0.365-1.932c-0.353,0.031-0.611,0.291-0.902,0.461c-2.531,1.486-4.979,3.123-7.675,4.32
		c-1.376,0.611-2.809,1.027-4.309,1.199c-1.997,0.229-3.531-0.603-4.428-2.396c-0.1-0.196-0.191-0.397-0.299-0.592
		c-0.345-0.621-0.824-0.793-1.453-0.416c-0.237,0.144-0.467,0.299-0.695,0.457c-2.045,1.401-4.268,2.31-6.756,2.594
		c-2.942,0.336-4.506-0.562-5.479-3.368c-0.251-0.728-0.405-1.023-1.237-0.558c-1.448,0.813-2.88,0.713-4.091-0.563
		c-0.416-0.438-0.83-0.383-1.233-0.006c-0.222,0.207-0.415,0.447-0.619,0.674c-3.582,4.01-8.159,5.101-13.292,4.484
		c-1.826-0.219-3.016-1.301-3.631-3.016c-0.196-0.547-0.342-1.111-0.526-1.662c-0.289-0.867-0.713-1.01-1.396-0.406
		c-3.521,3.109-7.67,5.029-12.099,6.424c-2.464,0.777-4.97,1.148-7.548,0.695c-4.399-0.773-6.761-3.566-7.738-7.766
		c-1.172-5.035-0.114-9.676,2.425-14.062c5.144-8.885,12.399-15.481,21.621-19.954c6.283-3.047,12.894-4.71,19.885-4.79
		c2.617-0.029,5.052,0.633,7.22,2.138c2.703,1.875,3.221,4.426,1.493,7.222c-0.696,1.125-1.592,2.064-2.661,2.836
		c-6.15,4.434-12.717,8.082-19.925,10.516c-1.534,0.518-3.112,0.796-4.717,0.943c-0.699,0.064-1.346-0.047-1.733-0.721
		c-0.397-0.692-0.074-1.271,0.326-1.838c1.315-1.863,3.155-3.094,5.088-4.207C56.335,36.647,56.955,36.255,57.272,35.457z
		 M69.911,49.672c-0.481,0.012-1.136,0.133-1.733,0.445c-1.921,1-3.568,2.334-4.783,4.145c-0.796,1.184-1.149,2.516-1.015,3.943
		c0.112,1.199,0.789,1.725,1.983,1.525c0.511-0.084,1.012-0.281,1.491-0.488c1.725-0.748,3.146-1.945,4.561-3.15
		c0.535-0.457,0.721-0.971,0.599-1.686c-0.263-1.549,0.252-2.322,1.759-2.813c0.178-0.057,0.443-0.03,0.463-0.26
		c0.02-0.215-0.12-0.41-0.317-0.551C72.071,50.18,71.171,49.715,69.911,49.672z M146.129,43.861c0.01-0.398-0.201-0.578-0.43-0.744
		c-0.801-0.576-1.759-0.438-2.498,0.477c-2.439,3.022-4.85,6.071-7.265,9.114c-0.24,0.303-0.526,0.662-0.239,1.047
		c0.316,0.42,0.766,0.328,1.211,0.149c1.24-0.489,2.215-1.348,3.172-2.241c2.334-2.18,3.983-4.898,5.89-7.417
		C146.064,44.119,146.096,43.945,146.129,43.861z M97.161,44.113c0.308-0.145,0.505-0.232,0.698-0.329
		c3.15-1.579,5.762-3.815,7.937-6.571c0.479-0.607,0.918-1.249,1.349-1.892c0.222-0.329,0.22-0.687-0.091-0.983
		c-0.326-0.311-0.697-0.325-1.063-0.086c-0.229,0.151-0.443,0.334-0.637,0.529c-2.284,2.302-4.568,4.604-6.841,6.918
		C97.889,42.335,97.379,43.052,97.161,44.113z M166.334,51.766c-0.059,0.008-0.254,0.019-0.438,0.066
		c-3.104,0.822-5.821,2.371-8.271,4.42c-0.301,0.252-0.5,0.549-0.316,0.939c0.219,0.471,0.65,0.496,1.07,0.373
		c3.158-0.929,6.123-2.244,8.662-4.396c0.285-0.242,0.539-0.508,0.391-0.922C167.268,51.795,166.87,51.77,166.334,51.766z
		 M112.479,52.98c-0.047-0.777-0.502-0.767-1.012-0.648c-1.912,0.439-3.674,1.207-5.203,2.455c-0.818,0.666-1.553,1.418-2.141,2.303
		c-0.217,0.326-0.27,0.668-0.002,0.996c0.24,0.295,0.534,0.342,0.893,0.213c2.504-0.898,4.771-2.191,6.682-4.059
		C112.063,53.883,112.393,53.457,112.479,52.98z M66.456,23.085c0.852,0.106,1.668,0.023,2.481-0.047
		c1.848-0.158,3.465,0.199,4.559,1.884c0.328,0.505,0.823,0.521,1.308,0.206c0.519-0.338,0.682-0.803,0.323-1.344
		c-0.227-0.344-0.478-0.689-0.783-0.959C72.098,20.849,68.007,21.462,66.456,23.085z M123.682,36.83
		c-0.947-0.063-1.891-0.043-2.699,0.543c-0.329,0.238-0.736,0.51-0.637,0.981c0.098,0.462,0.561,0.646,0.963,0.665
		c1.314,0.063,2.572-0.229,3.761-0.791c0.296-0.141,0.417-0.431,0.365-0.77c-0.06-0.389-0.324-0.582-0.679-0.62
		S124.042,36.83,123.682,36.83z M71.899,44.925c0,0.012,0,0.024,0,0.037c0.467,0,0.938,0.035,1.4-0.01
		c0.496-0.047,0.665-0.434,0.726-0.875c0.053-0.388-0.135-0.69-0.485-0.76c-1.066-0.211-2.136-0.215-3.166,0.202
		c-0.262,0.105-0.454,0.324-0.542,0.597c-0.167,0.519-0.102,0.869,0.583,0.815C70.907,44.894,71.404,44.925,71.899,44.925z
		 M165.715,45.873c1.229,0.514,2.387,0.954,3.664,0.723c0.468-0.084,1.136-0.109,1.187-0.694c0.056-0.643-0.633-0.779-1.104-0.923
		C168.09,44.562,166.937,45.17,165.715,45.873z M112.213,47.076c0,0.006,0,0.012,0,0.018c0.522,0,1.047,0.004,1.57,0
		c0.303-0.004,0.666,0.033,0.791-0.305c0.141-0.379-0.107-0.701-0.367-0.946c-0.601-0.565-3.431-0.081-3.834,0.645
		c-0.213,0.379-0.179,0.621,0.354,0.594C111.221,47.057,111.717,47.076,112.213,47.076z M179.069,47.502
		c0.01-0.236-0.102-0.529-0.527-0.551c-0.613-0.029-1.619,0.898-1.674,1.5c-0.046,0.5,0.254,0.711,0.666,0.779
		C178.127,49.326,179.02,48.377,179.069,47.502z M149.256,30.9c0.957,0.264,1.834,0.318,2.634-0.297
		c0.171-0.132,0.371-0.281,0.28-0.545c-0.084-0.244-0.299-0.297-0.532-0.318C150.635,29.652,149.885,30.076,149.256,30.9z
		 M77.69,46.998c0.895,0.012,1.635-0.424,1.638-0.938c0.002-0.551-0.373-0.674-0.836-0.668c-0.671,0.01-1.355,0.539-1.377,1.073
		C77.095,46.938,77.43,46.977,77.69,46.998z"/>
	<path display="inline" fill="#43241B" d="M94.386,78.754c0.239-1.131,0.519-2.256,0.706-3.395c0.115-0.701,0.6-0.438,0.951-0.445
		c0.534-0.012,0.251,0.402,0.213,0.6c-0.327,1.658-0.679,3.312-1.037,4.963c-0.063,0.293-0.014,0.689-0.545,0.646
		c-0.44-0.035-0.83,0.043-1.031-0.551c-0.388-1.146-0.885-2.256-1.422-3.594c-0.266,1.223-0.564,2.217-0.678,3.231
		c-0.108,0.965-0.596,1.035-1.372,0.819c0.386-1.877,0.769-3.745,1.157-5.612c0.055-0.265,0.084-0.565,0.492-0.521
		c0.383,0.045,0.805-0.143,1.015,0.443c0.417,1.164,0.919,2.297,1.386,3.443C94.275,78.773,94.33,78.764,94.386,78.754z"/>
	<path display="inline" fill="#42231A" d="M49.438,78.496c0.464,0.633,0.784,1.246,1.025,1.891c0.08,0.213,0.457,0.59,0.083,0.674
		c-0.37,0.086-0.955,0.351-1.242-0.242c-0.228-0.473-0.407-0.969-0.613-1.45c-0.109-0.259-0.248-0.502-0.484-0.662
		c-0.574-0.392-1.177-0.149-1.325,0.528c-0.1,0.461-0.168,0.929-0.278,1.386c-0.053,0.223-0.064,0.461-0.427,0.506
		c-0.848,0.104-0.972-0.004-0.795-0.836c0.339-1.599,0.688-3.192,0.997-4.795c0.09-0.47,0.271-0.638,0.759-0.604
		c0.746,0.047,1.497,0.004,2.245,0.016c1.189,0.02,1.729,0.412,1.88,1.342c0.156,0.951-0.352,1.758-1.338,2.117
		C49.796,78.41,49.66,78.436,49.438,78.496z M48.533,75.928c-0.3,0.166-0.885-0.348-1.063,0.453
		c-0.282,1.266-0.317,1.266,0.988,1.217c0.193-0.008,0.393-0.002,0.579-0.047c0.563-0.129,1.003-0.432,0.934-1.07
		c-0.067-0.612-0.603-0.532-1.04-0.551C48.82,75.924,48.709,75.928,48.533,75.928z"/>
	<path display="inline" fill="#43241B" d="M54.392,81.234c-1.349-0.012-2.237-0.762-2.477-2.088
		c-0.374-2.076,1.093-4.133,3.104-4.349c1.548-0.164,2.708,0.752,2.899,2.289C58.188,79.262,56.493,81.254,54.392,81.234z
		 M53.136,78.529c-0.032,0.67,0.198,1.221,0.815,1.504c0.644,0.295,1.261,0.117,1.756-0.355c0.649-0.619,0.937-1.414,0.936-2.309
		c0-0.598-0.218-1.098-0.778-1.355c-0.567-0.26-1.143-0.197-1.637,0.197C53.491,76.801,53.196,77.613,53.136,78.529z"/>
	<path display="inline" fill="#43241B" d="M123.204,78.553c0.08-2.42,1.883-4.098,3.985-3.711c1.097,0.203,1.765,0.848,2,1.938
		c0.474,2.171-1.183,4.392-3.321,4.455C124.223,81.283,123.148,80.201,123.204,78.553z M127.967,77.539
		c0.031-0.695-0.166-1.299-0.85-1.559c-0.709-0.271-1.367-0.08-1.867,0.506c-0.5,0.584-0.76,1.271-0.791,2.043
		c-0.026,0.666,0.199,1.217,0.815,1.502c0.608,0.283,1.201,0.135,1.695-0.295C127.629,79.16,127.909,78.395,127.967,77.539z"/>
	<path display="inline" fill="#43241B" d="M142.288,77.445c-0.006,2.236-1.652,3.914-3.722,3.787
		c-1.095-0.064-1.883-0.678-2.2-1.707c-0.629-2.045,0.811-4.394,2.883-4.703C141.006,74.559,142.293,75.67,142.288,77.445z
		 M141,77.645c0.021-0.797-0.162-1.385-0.799-1.647c-0.664-0.274-1.308-0.138-1.822,0.396c-0.603,0.627-0.875,1.4-0.885,2.254
		c-0.007,0.586,0.229,1.093,0.777,1.363c0.572,0.281,1.143,0.188,1.635-0.193C140.657,79.236,140.94,78.416,141,77.645z"/>
	<path display="inline" fill="#43241B" d="M83.77,78.531c0.053-2.5,2.042-4.207,4.24-3.639c0.748,0.192,1.279,0.653,1.582,1.352
		c0.939,2.168-0.837,4.938-3.189,4.99C84.752,81.271,83.734,80.227,83.77,78.531z M88.51,77.717c0.043-0.846-0.137-1.457-0.816-1.73
		c-0.669-0.268-1.309-0.112-1.815,0.427c-0.597,0.633-0.867,1.407-0.868,2.262c-0.002,0.586,0.248,1.089,0.802,1.351
		c0.542,0.256,1.087,0.176,1.566-0.174C88.146,79.285,88.441,78.473,88.51,77.717z"/>
	<path display="inline" fill="#44251C" d="M119.424,78.348c-0.873-0.287-1.205,0.25-1.279,1.144
		c-0.027,0.327-0.121,0.651-0.188,0.979c-0.117,0.559-0.733,0.868-1.224,0.637c-0.229-0.109-0.138-0.279-0.108-0.42
		c0.377-1.818,0.754-3.636,1.15-5.449c0.143-0.652,0.691-0.301,1.033-0.313c0.547-0.016,0.126,0.388,0.168,0.599
		c0.006,0.024-0.006,0.055-0.01,0.082c-0.09,0.537-0.4,1.44-0.225,1.547c0.545,0.334,1.281,0.102,1.942,0.133
		c0.272,0.014,0.383-0.127,0.428-0.393c0.087-0.519,0.239-1.027,0.312-1.547c0.051-0.359,0.221-0.437,0.55-0.455
		c0.597-0.033,0.886,0.012,0.688,0.78c-0.412,1.606-0.742,3.242-1.017,4.881c-0.129,0.767-0.631,0.576-1.051,0.55
		c-0.65-0.039-0.218-0.482-0.195-0.732c0.031-0.385,0.095-0.779,0.226-1.139c0.276-0.756,0.021-1.006-0.73-0.883
		C119.788,78.363,119.674,78.348,119.424,78.348z"/>
	<path display="inline" fill="#412218" d="M69.366,74.902c0.086,0.838-0.245,1.127-1.027,1.043c-0.63-0.066-1.275,0.016-1.911-0.021
		c-0.898-0.051-0.655,0.709-0.733,1.115c-0.116,0.604,0.457,0.291,0.704,0.313c0.577,0.056,1.164-0.008,1.744,0.031
		c0.213,0.014,0.649-0.24,0.614,0.254c-0.026,0.371-0.034,0.838-0.688,0.775c-0.687-0.064-1.385-0.018-2.078-0.014
		c-0.482,0.004-1.178,1.164-0.934,1.574c0.117,0.196,0.349,0.102,0.528,0.102c0.993,0.01,1.986,0.006,2.962,0.006
		c0.091,0.887-0.317,1.082-1.069,1.043c-1.133-0.059-2.272-0.033-3.408-0.006c-0.435,0.012-0.518-0.129-0.431-0.525
		c0.384-1.758,0.756-3.518,1.115-5.279c0.059-0.287,0.148-0.426,0.472-0.422C66.609,74.912,67.991,74.902,69.366,74.902z"/>
	<path display="inline" fill="#412218" d="M163.87,80.084c0.057,0.859-0.316,1.088-1.078,1.045
		c-1.133-0.064-2.271-0.033-3.405-0.008c-0.431,0.008-0.524-0.137-0.438-0.533c0.379-1.729,0.766-3.455,1.092-5.195
		c0.086-0.459,0.299-0.5,0.666-0.496c1.164,0.013,2.326-0.006,3.489,0.017c0.183,0.002,0.601-0.188,0.494,0.274
		c-0.065,0.289,0.073,0.773-0.528,0.752c-0.803-0.03-1.609,0.027-2.41-0.018c-0.901-0.051-0.66,0.701-0.748,1.107
		c-0.133,0.615,0.445,0.305,0.688,0.326c0.605,0.055,1.219,0,1.827,0.026c0.214,0.011,0.649-0.194,0.544,0.33
		c-0.063,0.312-0.012,0.736-0.586,0.699c-0.717-0.047-1.439-0.015-2.16-0.009c-0.486,0.002-1.177,1.146-0.938,1.568
		c0.117,0.207,0.348,0.104,0.524,0.105C161.895,80.088,162.887,80.084,163.87,80.084z"/>
	<path display="inline" fill="#44261D" d="M167.217,81.227c-1.319-0.012-2.176-0.586-2.316-1.561
		c-0.031-0.217-0.197-0.568,0.219-0.563c0.325,0.006,0.758-0.293,0.98,0.246c0.311,0.746,1.263,1.057,1.969,0.661
		c0.516-0.286,0.537-0.87,0.008-1.184c-0.475-0.281-0.992-0.486-1.49-0.728c-0.73-0.354-1.094-0.938-0.971-1.748
		c0.122-0.791,0.616-1.27,1.396-1.463c1.222-0.303,2.411,0.049,2.891,0.891c0.153,0.271,0.437,0.695,0.075,0.855
		c-0.293,0.129-0.848,0.395-1.121-0.234c-0.254-0.582-0.784-0.646-1.336-0.571c-0.314,0.041-0.605,0.178-0.678,0.522
		c-0.074,0.354,0.158,0.568,0.443,0.715c0.344,0.177,0.698,0.332,1.049,0.496c1.16,0.545,1.554,1.099,1.403,1.976
		c-0.155,0.924-0.977,1.582-2.104,1.687C167.495,81.236,167.355,81.227,167.217,81.227z"/>
	<path display="inline" fill="#44261D" d="M77.939,81.234c-1.496,0-2.338-0.531-2.552-1.514c-0.047-0.218-0.229-0.572,0.153-0.599
		c0.347-0.021,0.813-0.347,1.062,0.258c0.303,0.736,1.307,1.024,1.988,0.611c0.51-0.31,0.507-0.861-0.045-1.181
		c-0.478-0.276-0.996-0.479-1.494-0.723c-0.74-0.359-1.049-0.955-0.932-1.766c0.112-0.775,0.598-1.221,1.328-1.422
		c1.273-0.354,2.564,0.057,2.993,0.979c0.107,0.229,0.433,0.623,0.023,0.765c-0.314,0.106-0.833,0.35-1.094-0.188
		c-0.337-0.692-0.899-0.733-1.544-0.58c-0.267,0.063-0.446,0.224-0.498,0.494c-0.054,0.285,0.094,0.494,0.326,0.616
		c0.439,0.234,0.89,0.445,1.343,0.652c0.758,0.346,1.323,0.824,1.242,1.756c-0.075,0.857-0.69,1.504-1.656,1.736
		C78.314,81.197,78.037,81.221,77.939,81.234z"/>
	<path display="inline" fill="#44251C" d="M71.913,81.227c-1.319-0.01-2.146-0.563-2.327-1.555
		c-0.042-0.229-0.198-0.561,0.209-0.566c0.333-0.004,0.765-0.28,0.996,0.236c0.337,0.756,1.25,1.064,1.963,0.676
		c0.518-0.281,0.548-0.869,0.021-1.184c-0.473-0.281-0.992-0.486-1.49-0.727c-0.733-0.353-1.094-0.928-0.979-1.742
		c0.113-0.803,0.608-1.273,1.382-1.473c1.307-0.334,2.53,0.08,2.968,1.026c0.106,0.229,0.365,0.59,0.021,0.711
		c-0.322,0.113-0.831,0.359-1.085-0.155c-0.3-0.607-0.79-0.726-1.381-0.646c-0.318,0.043-0.606,0.184-0.686,0.52
		c-0.084,0.355,0.162,0.568,0.443,0.717c0.342,0.181,0.697,0.336,1.048,0.498c1.168,0.545,1.568,1.103,1.412,1.97
		c-0.169,0.938-0.971,1.586-2.1,1.692C72.191,81.236,72.052,81.227,71.913,81.227z"/>
	<path display="inline" fill="#44251C" d="M115.985,79.172c-0.4,1.104-1.152,1.805-2.313,2.023
		c-1.623,0.307-2.776-0.574-2.938-2.217c-0.215-2.188,0.981-3.914,2.892-4.17c1.183-0.158,2.227,0.387,2.578,1.362
		c0.076,0.211,0.289,0.545-0.062,0.627c-0.325,0.076-0.731,0.336-1.052-0.077c-0.887-1.15-2.088-1.031-2.745,0.28
		c-0.289,0.576-0.441,1.197-0.37,1.851c0.064,0.586,0.298,1.08,0.922,1.244c0.598,0.157,1.091-0.058,1.479-0.519
		C114.999,78.836,114.995,78.834,115.985,79.172z"/>
	<path display="inline" fill="#43241B" d="M130.023,78.553c-0.009-2.521,1.92-4.246,4.083-3.652
		c0.654,0.181,1.135,0.572,1.383,1.207c0.092,0.23,0.355,0.588-0.047,0.687c-0.324,0.078-0.752,0.397-1.08-0.16
		c-0.523-0.896-1.542-0.989-2.271-0.217c-0.711,0.752-0.926,1.692-0.75,2.694c0.091,0.517,0.402,0.916,0.972,1.011
		c0.647,0.104,1.12-0.172,1.491-0.688c0.146-0.203,0.141-0.588,0.545-0.512c0.297,0.055,0.701,0.031,0.857,0.213
		c0.215,0.252-0.123,0.543-0.274,0.779c-0.699,1.09-2.022,1.57-3.267,1.215C130.57,80.814,130.027,79.965,130.023,78.553z"/>
	<path display="inline" fill="#42231A" d="M40.089,81.086c-0.61,0.139-0.7-0.104-0.587-0.609c0.367-1.646,0.725-3.297,1.037-4.953
		c0.098-0.521,0.323-0.666,0.821-0.633c0.634,0.043,1.273,0.002,1.911,0.014c1.138,0.021,1.707,0.416,1.853,1.273
		c0.167,0.98-0.472,2.088-1.387,2.396c-0.616,0.204-1.259,0.223-1.892,0.168c-0.57-0.052-0.792,0.18-0.842,0.713
		c-0.033,0.356-0.142,0.705-0.198,1.062C40.734,80.957,40.583,81.277,40.089,81.086z M42.723,75.922
		c-1.023-0.004-1.228,0.27-1.279,1.463c-0.026,0.596,0.399,0.328,0.617,0.334c1.139,0.021,1.762-0.355,1.774-1.057
		C43.851,75.783,43.173,75.963,42.723,75.922z"/>
	<path display="inline" fill="#42231A" d="M147.472,81.094c1.153-2.047,2.235-4.002,3.354-5.936
		c0.301-0.518,0.861-0.209,1.301-0.242c0.438-0.033,0.309,0.381,0.349,0.617c0.282,1.666,0.554,3.332,0.813,5
		c0.033,0.219,0.289,0.611-0.242,0.566c-0.33-0.027-0.922,0.266-0.905-0.367c0.026-1.053-0.603-0.969-1.332-1.006
		c-0.881-0.047-1.521,0.08-1.868,1.024C148.693,81.432,148.062,81.029,147.472,81.094z M151.361,76.354
		c-0.476,0.81-0.909,1.549-1.377,2.342c1.82,0.101,1.822,0.101,1.618-1.534C151.572,76.92,151.625,76.658,151.361,76.354z"/>
	<path display="inline" fill="#42231A" d="M95.986,81.029c1.102-1.947,2.192-3.838,3.243-5.75c0.342-0.623,0.872-0.332,1.323-0.363
		c0.537-0.037,0.378,0.445,0.428,0.732c0.275,1.582,0.547,3.166,0.782,4.754c0.035,0.236,0.363,0.725-0.29,0.703
		c-0.363-0.013-0.893,0.215-0.873-0.504c0.018-0.697-0.31-0.979-1.018-0.863c-0.351,0.057-0.721,0.035-1.078,0.002
		c-0.395-0.035-0.637,0.111-0.756,0.479C97.477,81.057,96.896,81.293,95.986,81.029z M98.434,78.732
		c0.594,0,1.053-0.008,1.512,0.002c0.316,0.008,0.387-0.16,0.322-0.418c-0.156-0.629-0.1-1.299-0.387-2.01
		C99.39,77.129,98.945,77.873,98.434,78.732z"/>
	<path display="inline" fill="#412219" d="M63.196,77.426c0.114,0.908-0.317,1.082-1.062,1.049
		c-0.682-0.031-1.556-0.309-2.007,0.127c-0.398,0.385-0.405,1.229-0.479,1.883c-0.096,0.845-0.683,0.619-1.167,0.615
		c-0.338-0.004-0.2-0.276-0.167-0.434c0.369-1.791,0.765-3.574,1.116-5.367c0.076-0.391,0.279-0.402,0.576-0.4
		c1.11,0.009,2.22-0.004,3.329,0.011c0.182,0.002,0.53-0.129,0.464,0.25c-0.053,0.307,0.055,0.78-0.516,0.774
		c-0.721-0.008-1.443,0.025-2.163-0.008c-0.948-0.045-0.678,0.75-0.759,1.182c-0.115,0.613,0.468,0.279,0.706,0.297
		C61.778,77.461,62.498,77.426,63.196,77.426z"/>
	<path display="inline" fill="#412218" d="M154.98,81.049c0.315-1.502,0.612-2.965,0.938-4.422c0.115-0.508,0.063-0.797-0.556-0.699
		c-0.188,0.029-0.39,0.025-0.579-0.002c-0.199-0.029-0.595,0.156-0.484-0.299c0.064-0.271-0.061-0.727,0.469-0.725
		c1.385,0.002,2.77,0,4.154,0c0.201,0,0.416,0,0.349,0.297c-0.063,0.273,0.03,0.643-0.39,0.727c-0.08,0.016-0.166,0.002-0.25,0.006
		c-1.299,0.074-1.301,0.074-1.588,1.4c-0.198,0.918-0.398,1.836-0.59,2.756C156.231,81.174,156.236,81.174,154.98,81.049z"/>
	<path display="inline" fill="#42231A" d="M105.311,74.74c-0.344,1.654-0.592,3.072-0.945,4.463
		c-0.195,0.768,0.003,0.975,0.755,0.891c0.549-0.059,1.109-0.025,1.664-0.004c0.202,0.008,0.574-0.152,0.504,0.299
		c-0.047,0.301,0.025,0.721-0.482,0.723c-1.249,0.003-2.499-0.006-3.748,0.005c-0.376,0.002-0.308-0.232-0.263-0.445
		c0.375-1.791,0.738-3.584,1.143-5.366C104.138,74.42,104.818,75.182,105.311,74.74z"/>
	<path display="inline" fill="#42231A" d="M144.125,80.092c1.076,0,2.096,0,3.109,0c0.03,0.766-0.201,1.096-1,1.041
		c-1.156-0.08-2.324-0.02-3.602-0.02c0.421-2.002,0.82-3.938,1.238-5.867c0.143-0.66,0.69-0.318,1.03-0.318
		c0.494-0.002,0.203,0.422,0.165,0.619C144.779,77.039,144.456,78.525,144.125,80.092z"/>
	<path display="inline" fill="#43241B" d="M83.436,74.984c-0.391,1.893-0.789,3.781-1.163,5.674
		c-0.14,0.705-0.673,0.451-1.053,0.438c-0.583-0.022-0.23-0.461-0.188-0.68c0.289-1.494,0.621-2.979,0.928-4.467
		C82.195,74.797,82.188,74.795,83.436,74.984z"/>
	<path display="inline" fill="#F9F8F7" d="M112.479,52.98c-0.086,0.477-0.416,0.901-0.783,1.26c-1.91,1.867-4.178,3.16-6.682,4.059
		c-0.358,0.129-0.652,0.082-0.893-0.213c-0.268-0.328-0.215-0.67,0.002-0.996c0.588-0.885,1.322-1.637,2.141-2.303
		c1.529-1.248,3.291-2.016,5.203-2.455C111.977,52.215,112.432,52.203,112.479,52.98z"/>
	<path display="inline" fill="#F4F1F0" d="M112.213,47.076c-0.496,0-0.992-0.02-1.486,0.006c-0.531,0.027-0.564-0.215-0.354-0.594
		c0.403-0.726,3.233-1.21,3.834-0.645c0.26,0.245,0.508,0.567,0.367,0.946c-0.125,0.338-0.488,0.301-0.791,0.305
		c-0.523,0.004-1.048,0-1.57,0C112.213,47.088,112.213,47.082,112.213,47.076z"/>
</g>
<g>
	<path display="none" fill="#FFFFFF" d="M192.577,50.095c1.038,0,2.075,0,3.113,0c0,14.555,0,29.11,0,43.664
		c-56.617,0-113.234,0-169.85,0c0-14.554,0-29.109,0-43.664c55.202,0,110.404,0,165.605,0c-0.118,0.036-0.234,0.077-0.354,0.107
		c-1.596,0.397-2.712,1.737-2.742,3.296c-0.04,2.087,1.704,3.676,3.922,3.573c1.613-0.075,3.128-1.375,3.316-2.847
		c0.243-1.883-0.702-3.419-2.43-3.953C192.964,50.211,192.771,50.153,192.577,50.095z M28.429,72.461
		c-0.236,0.273-0.464,0.49-0.637,0.745c-0.289,0.429-0.122,0.771,0.391,0.731c0.508-0.038,1.031-0.14,1.505-0.323
		c1.271-0.493,2.514-1.063,3.782-1.566c1.389-0.552,2.793-1.058,4.333-0.92c0.812,0.074,1.629,0.109,2.438,0.219
		c0.248,0.032,0.566,0.189,0.688,0.391c0.387,0.638,0.449,1.364,0.317,2.092c-0.022,0.119-0.263,0.307-0.367,0.285
		c-0.976-0.195-1.896-0.021-2.824,0.281c-0.872,0.283-0.939,0.22-1.236-0.658c-0.05-0.149-0.096-0.301-0.159-0.443
		c-0.214-0.496-0.564-0.832-1.125-0.879c-0.327-0.026-0.662-0.061-0.984-0.019c-1.912,0.249-3.364,1.303-4.605,2.701
		c-0.121,0.136-0.204,0.318-0.265,0.492c-0.14,0.4,0.077,0.667,0.49,0.594c0.213-0.038,0.435-0.107,0.616-0.221
		c0.625-0.389,1.23-0.811,1.853-1.204c0.316-0.199,0.642-0.395,0.985-0.537c0.48-0.197,0.91-0.042,1.213,0.357
		c0.216,0.283,0.382,0.609,0.543,0.93c0.203,0.406,0.352,0.841,0.571,1.238c0.427,0.773,0.938,0.868,1.668,0.381
		c0.337-0.226,0.692-0.437,1.065-0.589c0.349-0.142,0.551,0.086,0.671,0.404c0.124,0.329-0.001,0.506-0.321,0.592
		c-0.242,0.065-0.478,0.153-0.721,0.218c-0.942,0.256-1.551,0.86-1.842,1.782c-0.457,1.449-0.324,2.879,0.16,4.298
		c0.213,0.622,0.417,1.251,0.571,1.889c0.202,0.837,0.055,1.584-0.704,2.123c-0.189,0.136-0.335,0.331-0.508,0.492
		c-0.569,0.527-0.698,1.186-0.507,1.899c0.255,0.955,0.859,1.639,1.791,1.982c1.39,0.513,2.753-0.225,2.886-1.565
		c0.045-0.448,0.063-0.931-0.054-1.357c-0.323-1.176-0.719-2.334-1.097-3.495c-0.383-1.178-0.819-2.34-1.158-3.529
		c-0.334-1.174,0.457-2.491,1.573-2.786c0.421-0.112,0.71-0.028,0.835,0.414c0.133,0.467,0.253,0.937,0.39,1.403
		c0.275,0.931,0.457,1.905,0.864,2.773c0.408,0.87,0.641,1.725,0.575,2.671c-0.072,1.019-0.199,2.036-0.202,3.054
		c-0.003,1.067,0.271,2.068,1.249,2.701c1.263,0.817,2.66,1.183,4.157,1.14c0.641-0.018,0.793-0.3,0.516-0.899
		c-0.353-0.76-0.883-1.362-1.607-1.799c-0.47-0.282-0.937-0.573-1.384-0.894c-0.709-0.508-1.042-1.19-0.89-2.081
		c0.178-1.041-0.069-1.987-0.65-2.863c-0.382-0.575-0.741-1.166-1.105-1.752c-0.469-0.756-0.664-1.59-0.672-2.468
		c-0.002-0.219,0.066-0.437,0.103-0.66c0.135,0.027,0.187,0.025,0.226,0.047c0.067,0.037,0.14,0.079,0.188,0.138
		c0.594,0.712,1.183,1.422,1.372,2.378c0.087,0.441,0.208,0.896,0.417,1.29c0.65,1.225,1.889,1.407,2.891,0.46
		c0.205-0.194,0.405-0.396,0.601-0.601c0.713-0.746,1.479-1.406,2.514-1.669c0.35-0.088,0.691-0.208,1.038-0.309
		c1.214-0.347,2.372-0.822,3.409-1.557c0.154-0.108,0.287-0.251,0.429-0.378c-0.016-0.04-0.031-0.08-0.047-0.119
		c-0.208,0.011-0.426-0.016-0.623,0.037c-1,0.271-2.016,0.5-2.983,0.861c-1.173,0.437-2.287,1.032-3.458,1.478
		c-0.588,0.222-1.243,0.342-1.871,0.361c-0.67,0.021-1.065-0.382-1.204-1.042c-0.167-0.798-0.319-1.599-0.451-2.402
		c-0.105-0.644,0.147-0.896,0.788-0.776c0.65,0.12,1.208-0.052,1.733-0.414c1.707-1.177,2.218-3.353,1.122-5.111
		c-0.443-0.711-1.025-1.349-1.605-1.959c-0.688-0.726-1.525-1.201-2.576-1.187c-0.248,0.003-0.5-0.045-0.744-0.104
		c-0.389-0.092-0.739-0.269-0.71-0.739c0.03-0.499,0.457-0.603,0.825-0.592c0.589,0.018,1.212,0.037,1.754,0.235
		c1.593,0.584,3.005,1.491,4.229,2.672c1.088,1.05,1.447,2.33,0.928,3.744c-0.332,0.902-0.842,1.742-1.316,2.587
		c-0.268,0.476-0.641,0.893-0.941,1.353c-0.429,0.657-0.233,1.202,0.529,1.396c0.372,0.096,0.784,0.137,1.163,0.086
		c2.531-0.327,4.608-1.549,6.399-3.314c0.055-0.055,0.118-0.116,0.139-0.187c0.051-0.168,0.081-0.342,0.119-0.513
		c-0.164,0.001-0.351-0.049-0.489,0.014c-0.787,0.348-1.552,0.748-2.345,1.082c-0.834,0.353-1.687,0.664-2.542,0.959
		c-0.203,0.071-0.451,0.011-0.678,0.011c-0.01-0.052-0.02-0.104-0.029-0.155c0.115-0.143,0.208-0.314,0.35-0.422
		c0.534-0.41,1.051-0.863,1.635-1.187c1.353-0.751,2.818-1.306,3.979-2.372c1.024,1.304,1.372,1.431,2.616,0.977
		c-0.192-1.067-0.783-1.654-2.015-1.51c0.708-0.754,1.35-1.388,1.659-2.277c-0.21,0.044-0.396,0.113-0.551,0.226
		c-0.537,0.383-1.061,0.784-1.593,1.174c-1.001,0.731-1.993,1.479-3.014,2.182c-0.386,0.265-0.831,0.485-1.484,0.318
		c0.993-1.468,2.445-2.303,3.641-3.402c1.206-1.109,2.416-2.214,3.628-3.325c0.76,1.294,1.269,1.47,2.889,0.999
		c-0.585-0.962-1.171-1.885-2.55-1.342c0.262-0.485,0.519-0.898,0.709-1.34c0.1-0.234,0.194-0.385,0.457-0.453
		c0.629-0.162,1-0.575,1.037-1.239c0.021-0.387,0.004-0.776,0.004-1.235c-0.292,0.126-0.522,0.216-0.742,0.324
		c-1.011,0.495-1.191,0.865-1.044,1.979c0.021,0.156-0.085,0.377-0.205,0.497c-0.95,0.958-1.916,1.9-2.881,2.844
		c-0.806,0.791-1.595,1.601-2.438,2.351c-0.33,0.292-0.768,0.494-1.19,0.637c-0.2,0.066-0.573-0.032-0.702-0.19
		c-0.144-0.177-0.204-0.553-0.114-0.761c0.164-0.378,0.408-0.764,0.719-1.026c0.97-0.819,1.998-1.572,2.984-2.373
		c1.899-1.54,3.412-3.387,4.248-5.709c0.609-1.695,0.46-3.301-0.799-4.708c-1.5-1.678-3.367-1.579-4.66,0.262
		c-0.608,0.868-0.956,1.848-1.082,2.884c-0.198,1.636-0.261,3.289-0.508,4.916c-0.156,1.025-0.528,2.021-0.841,3.019
		c-0.045,0.145-0.346,0.349-0.44,0.311c-0.166-0.068-0.34-0.289-0.372-0.47c-0.065-0.366-0.063-0.75-0.045-1.125
		c0.062-1.254,0.175-2.508,0.206-3.763c0.037-1.485,0.008-2.972,0.008-4.487c0.777,0.012,1.641,0.114,2.242-0.647
		c0.522-0.662,0.739-1.453,0.977-2.299c-1.45,0.189-3.002-0.028-3.7,1.719c-0.025-0.279-0.019-0.538,0.096-0.733
		c0.637-1.087,0.633-1.821-0.141-2.821c-0.419-0.542-0.92-1.017-1.434-1.575c-0.268,0.613-0.536,1.146-0.737,1.704
		c-0.481,1.34-0.234,2.196,0.914,3.047c0.347,0.256,0.437,0.517,0.333,0.902c-1.034-1.007-2.001-1.114-3.576-0.338
		c0.553,0.494,1.034,1.017,1.604,1.411c0.65,0.45,1.347,0.119,2.062-0.148c0.076,1.61,0.149,3.153,0.223,4.696
		c-1.606,0.088-1.816,0.22-2.136,1.307c0.725,0.301,1.435,0.452,2.095-0.26c-0.042,0.9-0.117,1.742-0.249,2.573
		c-0.042,0.264-0.209,0.525-0.37,0.753c-0.361,0.515-0.831,0.555-1.259,0.088c-0.241-0.261-0.441-0.574-0.6-0.895
		c-0.771-1.543-0.682-3.212-0.704-4.897c1.14,0.827,1.662,0.86,2.621,0.21c-0.493-1.312-1.452-1.534-2.699-1.061
		c-0.235-1.703-0.593-3.298-1.604-4.646c-0.062,0.013-0.124,0.027-0.186,0.041c0.063,0.606,0.126,1.215,0.188,1.82
		c-1.129,0.132-1.402,0.354-1.674,1.358c0.663,0.252,1.317,0.448,1.914-0.162c0.442,1.204,0.856,4.432,0.724,5.698
		c-0.029,0.277-0.082,0.562-0.188,0.817c-0.042,0.1-0.325,0.217-0.383,0.172c-0.312-0.231-0.725-0.459-0.849-0.785
		c-0.414-1.083-0.72-2.208-1.058-3.285c0.533-0.116,0.934-0.202,1.412-0.306c-0.498-0.555-0.902-1.05-1.622-0.764
		c-0.573-1.079-1.131-2.129-1.697-3.195c0.822-0.216,1.766-0.298,2.21-1.24c0.401-0.851,0.308-1.758,0.348-2.771
		c-0.759,0.35-1.442,0.623-2.084,0.973c-0.765,0.418-1.073,1.112-1.004,1.977c0.016,0.192,0.036,0.384,0.054,0.576
		c-0.052,0.016-0.103,0.03-0.155,0.046c-0.068-0.174-0.184-0.346-0.194-0.522c-0.053-0.879-0.463-1.494-1.305-1.77
		c-0.589-0.192-1.197-0.327-1.875-0.51c0.098,0.503,0.163,0.917,0.262,1.323c0.297,1.233,0.79,1.669,2.05,1.849
		c0.115,0.017,0.289,0.049,0.325,0.125c0.329,0.703,0.632,1.417,0.88,1.986c-0.348,0.403-0.636,0.737-0.923,1.07
		c0.032,0.063,0.064,0.126,0.097,0.188c0.472,0,0.943,0,1.534,0c0.208,0.735,0.458,1.557,0.666,2.388
		c0.042,0.171-0.021,0.506-0.119,0.542c-0.165,0.061-0.418-0.014-0.594-0.107c-0.546-0.29-0.896-0.754-1.137-1.328
		c-0.785-1.868-1.793-3.593-3.263-5.021c-2.003-1.946-4.137-2.339-6.68-1.177c-1.342,0.614-2.533,1.463-3.53,2.548
		c-0.396,0.432-0.748,0.938-0.989,1.47c-0.367,0.81-0.052,1.642,0.742,2.039c0.439,0.218,0.943,0.391,1.428,0.422
		c1.455,0.093,2.917,0.081,4.372,0.163c0.634,0.035,1.269,0.167,1.889,0.314c0.34,0.081,0.592,0.334,0.658,0.818
		c-2.312,0.153-4.631,0.018-6.885,0.634c0.086-0.91-0.015-1.098-0.722-1.391c-0.521,0.613-0.306,1.134,0.267,1.591
		c-0.136,0.08-0.235,0.113-0.293,0.182c-0.146,0.168-0.275,0.351-0.41,0.529c0.205,0.12,0.403,0.324,0.617,0.345
		c0.514,0.048,1.039,0.054,1.551-0.003c1.576-0.174,3.146-0.406,4.722-0.579c1.401-0.153,2.796-0.097,4.147,0.343
		c0.304,0.099,0.569,0.313,0.93,0.518c-0.594,0.467-1.147,0.405-1.686,0.386c-0.829-0.028-1.66-0.13-2.487-0.101
		c-2.289,0.078-4.53,0.423-6.634,1.396c-0.51-1.158-0.608-1.237-1.385-1.113c-0.17,0.872,0.404,1.14,1.156,1.274
		c-0.239,0.224-0.421,0.375-0.577,0.549c-0.085,0.095-0.202,0.271-0.167,0.337c0.07,0.135,0.227,0.294,0.362,0.308
		c0.323,0.032,0.67,0.047,0.98-0.037c1.149-0.313,2.286-0.674,3.431-1.005c1.254-0.365,2.52-0.675,3.838-0.639
		c0.503,0.014,0.977,0.153,1.344,0.641c-3.065,0.51-6.144,0.94-8.789,2.709c-1.215-1.519-1.623-1.663-2.88-1.048
		C26.436,72.479,26.811,72.684,28.429,72.461z M161.188,65.845c0.719,0,1.391,0.022,2.06-0.01c0.408-0.021,0.642,0.105,0.866,0.462
		c1.843,2.92,3.713,5.822,5.563,8.739c0.166,0.26,0.344,0.343,0.644,0.34c1.493-0.016,2.985-0.007,4.479-0.007
		c0.293,0,0.587,0,0.882,0c0-0.333,0-0.607,0-0.947c-0.308,0-0.588-0.002-0.867,0.001c-0.891,0.008-1.604-0.301-2.131-1.06
		c-1.503-2.168-3.029-4.318-4.542-6.479c-0.394-0.562-0.771-1.134-1.173-1.725c0.172-0.071,0.286-0.119,0.401-0.164
		c2.912-1.136,4.258-3.162,4.177-6.288c-0.062-2.313-1.238-3.954-3.451-4.633c-0.874-0.268-1.812-0.461-2.723-0.468
		c-3.346-0.026-6.69,0.04-10.035,0.072c-0.06,0.001-0.118,0.021-0.188,0.032c0,0.292,0,0.566,0,0.861
		c0.46,0.052,0.895,0.092,1.326,0.148c1.118,0.146,1.294,0.328,1.415,1.437c0.025,0.233,0.057,0.47,0.058,0.703
		c0.008,4.935,0.016,9.868,0.014,14.803c0,0.485-0.042,0.973-0.092,1.455c-0.082,0.775-0.263,0.984-1.021,1.131
		c-0.563,0.107-1.136,0.165-1.692,0.244c0,0.303,0,0.576,0,0.845c2.842,0,5.647,0,8.451,0c0-0.305,0-0.58,0-0.87
		c-0.321-0.033-0.618-0.053-0.909-0.098c-1.201-0.189-1.4-0.351-1.437-1.561c-0.063-2.12-0.053-4.241-0.074-6.361
		C161.186,66.265,161.188,66.08,161.188,65.845z M64.317,54.555c0.639,0.091,1.228,0.167,1.814,0.261
		c0.507,0.082,0.824,0.372,0.876,0.898c0.049,0.5,0.117,1,0.118,1.501c0.009,4.872,0.008,9.745,0.002,14.618
		c-0.001,0.438-0.037,0.879-0.09,1.314c-0.091,0.754-0.259,0.949-1.001,1.098c-0.563,0.112-1.138,0.17-1.701,0.25
		c0,0.296,0,0.57,0,0.842c3.089,0,6.145,0,9.193,0c0-0.308,0-0.582,0-0.853c-0.607-0.053-1.187-0.084-1.759-0.157
		c-0.985-0.125-1.292-0.394-1.317-1.379c-0.057-2.165-0.048-4.334-0.062-6.502c0-0.024,0.032-0.05,0.075-0.114
		c0.332,0,0.693,0.023,1.049-0.006c1.126-0.088,2.26-0.131,3.372-0.313c1.538-0.252,2.99-0.786,4.123-1.913
		c1.786-1.778,2.057-3.989,1.658-6.337c-0.337-1.991-1.544-3.27-3.478-3.794c-0.825-0.223-1.698-0.364-2.55-0.367
		c-3.346-0.014-6.692,0.044-10.039,0.077c-0.089,0.001-0.179,0.022-0.281,0.035C64.317,54.001,64.317,54.265,64.317,54.555z
		 M153.334,74.457c-0.223-0.013-0.422-0.022-0.622-0.037c-0.724-0.048-1.293-0.329-1.622-1.021c-0.308-0.651-0.671-1.277-0.96-1.938
		c-2.576-5.892-5.145-11.789-7.699-17.692c-0.146-0.334-0.333-0.396-0.641-0.375c-0.315,0.02-0.598-0.053-0.785,0.377
		c-1.974,4.547-3.973,9.082-5.975,13.617c-0.894,2.024-1.826,4.03-2.699,6.063c-0.284,0.657-0.733,0.937-1.407,0.959
		c-0.279,0.01-0.558,0.034-0.852,0.052c0,0.316,0,0.602,0,0.877c1.964,0,3.89,0,5.806,0c0-0.307,0-0.581,0-0.92
		c-0.39,0-0.751,0.025-1.106-0.005c-1.028-0.093-1.251-0.382-0.885-1.328c0.542-1.402,1.151-2.781,1.758-4.159
		c0.053-0.119,0.287-0.226,0.436-0.226c3.002-0.014,6.004-0.006,9.005-0.018c0.282,0,0.418,0.096,0.523,0.351
		c0.349,0.84,0.743,1.662,1.08,2.506c0.242,0.609,0.465,1.234,0.613,1.872c0.152,0.649,0.018,0.822-0.64,0.926
		c-0.552,0.087-1.115,0.104-1.688,0.155c0,0.283,0,0.56,0,0.853c2.797,0,5.569,0,8.36,0
		C153.334,75.046,153.334,74.771,153.334,74.457z M106.002,74.462c-0.215-0.015-0.385-0.029-0.555-0.036
		c-0.76-0.037-1.36-0.317-1.703-1.047c-0.3-0.639-0.663-1.249-0.945-1.895c-2.506-5.736-5.001-11.476-7.498-17.216
		c-0.404-0.929-0.403-0.93-1.446-0.85c-0.052,0.104-0.112,0.214-0.163,0.328c-1.995,4.537-3.985,9.077-5.988,13.613
		c-0.919,2.081-1.872,4.146-2.794,6.225c-0.213,0.48-0.53,0.754-1.063,0.783c-0.372,0.019-0.742,0.069-1.131,0.108
		c0,0.298,0,0.572,0,0.865c1.965,0,3.905,0,5.849,0c0-0.304,0-0.578,0-0.901c-0.204,0-0.374,0.013-0.542-0.001
		c-0.344-0.028-0.691-0.041-1.026-0.113c-0.582-0.123-0.701-0.337-0.554-0.904c0.059-0.228,0.122-0.457,0.213-0.672
		c0.539-1.271,1.08-2.541,1.644-3.802c0.056-0.123,0.275-0.247,0.42-0.249c3.017-0.014,6.035-0.007,9.052-0.018
		c0.265,0,0.393,0.095,0.492,0.326c0.405,0.953,0.843,1.893,1.232,2.851c0.199,0.491,0.361,1.005,0.466,1.523
		c0.143,0.702,0.04,0.846-0.659,0.957c-0.551,0.087-1.113,0.102-1.667,0.149c0,0.298,0,0.572,0,0.851c2.802,0,5.576,0,8.365,0
		C106.002,75.046,106.002,74.781,106.002,74.462z M126.702,58.389c0-1.104,0-2.155,0-3.207c0-0.957,0.002-0.964-0.918-1.174
		c-2.763-0.634-5.539-1.157-8.394-0.708c-3.959,0.624-6.718,2.729-8.005,6.588c-0.796,2.39-0.872,4.853-0.44,7.312
		c0.664,3.769,2.679,6.52,6.32,7.925c2.129,0.821,4.354,0.886,6.595,0.673c1.703-0.163,3.332-0.615,4.855-1.406
		c0.151-0.079,0.358-0.224,0.375-0.357c0.051-0.392,0.019-0.794,0.019-1.188c-0.103,0-0.139-0.009-0.163,0.003
		c-0.114,0.052-0.227,0.108-0.339,0.164c-2.204,1.071-4.5,1.649-6.974,1.323c-2.936-0.388-5.141-1.812-6.476-4.493
		c-0.683-1.372-0.976-2.844-1.059-4.362c-0.133-2.444,0.098-4.836,1.158-7.082c2.025-4.289,5.946-4.977,9.521-3.683
		c1.282,0.465,2.023,1.395,1.986,2.832c-0.007,0.276,0.026,0.555,0.043,0.841C125.448,58.389,126.042,58.389,126.702,58.389z
		 M177.515,54.553c0.627,0.09,1.23,0.171,1.833,0.265c0.532,0.085,0.838,0.396,0.88,0.942c0.037,0.486,0.1,0.971,0.101,1.455
		c0.008,4.873,0.008,9.745,0,14.618c-0.002,0.483-0.066,0.969-0.104,1.453c-0.041,0.548-0.347,0.86-0.878,0.944
		c-0.602,0.096-1.205,0.177-1.824,0.265c0,0.28,0,0.566,0,0.841c2.981,0,5.929,0,8.874,0c0-0.308,0-0.581,0-0.835
		c-0.654-0.097-1.275-0.176-1.891-0.284c-0.468-0.081-0.761-0.358-0.797-0.853c-0.052-0.688-0.134-1.377-0.134-2.065
		c-0.012-4.511-0.012-9.021,0-13.532c0-0.688,0.083-1.377,0.13-2.066c0.035-0.517,0.343-0.793,0.828-0.878
		c0.479-0.082,0.961-0.174,1.445-0.188c0.386-0.011,0.502-0.161,0.454-0.512c-0.019-0.135-0.02-0.271-0.029-0.42
		c-2.979,0-5.927,0-8.889,0C177.515,54,177.515,54.274,177.515,54.553z M104.868,85.921c0.501-0.114,1.025-0.171,1.498-0.355
		c1.033-0.405,1.599-1.21,1.651-2.313c0.054-1.114-0.406-2.003-1.425-2.507c-1.12-0.553-2.29-0.556-3.408-0.006
		c-1.59,0.78-1.949,2.916-0.727,4.197C103.103,85.615,103.937,85.854,104.868,85.921z M97.98,82.341
		c0.033,0.004,0.066,0.008,0.1,0.012c0,0.826,0.011,1.652-0.006,2.477c-0.006,0.305-0.079,0.606-0.12,0.894c0.256,0,0.558,0,0.875,0
		c-0.243-0.422-0.257-3.722-0.041-4.29c-0.396,0-0.795,0-1.205,0c0.166,0.354-0.827,2.622-1.349,3.115
		c-0.43-0.876-0.865-1.744-1.274-2.624c-0.063-0.137-0.009-0.329-0.009-0.488c-0.383,0-0.779,0-1.193,0
		c0.258,0.405,0.265,3.818,0.025,4.293c0.289,0,0.574,0,0.879,0c-0.238-0.336-0.315-2.816-0.115-3.367
		c0.565,1.125,1.121,2.232,1.711,3.408C96.857,84.576,97.418,83.459,97.98,82.341z M148.326,91.048
		c0.494-0.339,0.633-0.812,0.469-1.363c-0.133-0.451-0.479-0.741-0.927-0.758c-1.084-0.039-2.169-0.012-3.259-0.012
		c0.229,0.359,0.249,4.019,0.018,4.484c0.099,0.009,0.191,0.027,0.283,0.026c0.942-0.006,1.885,0.012,2.825-0.03
		c0.706-0.033,1.087-0.349,1.235-0.896C149.124,91.927,148.935,91.487,148.326,91.048z M84.781,82.358
		c0.022,1.132,0.236,2.258-0.025,3.366c0.283,0,0.584,0,0.906,0c-0.308-0.448-0.308-3.794-0.014-4.303c-0.413,0-0.815,0-1.194,0
		c0,0.177,0.053,0.361-0.009,0.491c-0.42,0.89-0.864,1.77-1.348,2.746c-0.495-1.007-0.954-1.928-1.391-2.858
		c-0.041-0.086,0.061-0.238,0.099-0.367c-0.411,0-0.819,0-1.245,0c0.303,0.469,0.303,3.794,0.01,4.298c0.295,0,0.581,0,0.883,0
		c-0.232-0.358-0.31-2.818-0.112-3.368c0.566,1.119,1.123,2.223,1.722,3.41C83.659,84.59,84.22,83.473,84.781,82.358z
		 M144.742,80.969c-0.233-0.052-0.417-0.057-0.567-0.132c-0.736-0.364-1.509-0.512-2.326-0.471
		c-1.404,0.073-2.511,0.976-2.726,2.237c-0.227,1.323,0.448,2.584,1.698,3.02c1.169,0.409,2.316,0.32,3.379-0.383
		c0.197-0.129,0.414-0.226,0.663-0.359c-0.199-0.239-0.417-0.504-0.603-0.729c-0.155,0.218-0.244,0.41-0.391,0.532
		c-0.655,0.549-1.43,0.701-2.257,0.566c-1.049-0.171-1.83-1.057-1.863-2.069c-0.034-1.11,0.612-1.939,1.738-2.192
		c0.745-0.167,1.474-0.073,2.149,0.276c0.221,0.115,0.385,0.339,0.607,0.542C144.389,81.563,144.569,81.261,144.742,80.969z
		 M66.086,83.385c0.188,0,0.295,0.001,0.402,0c0.705-0.006,1.414,0.026,2.115-0.03c1.034-0.084,1.523-0.633,1.482-1.565
		c-0.036-0.789-0.626-1.29-1.588-1.322c-0.517-0.018-1.035-0.006-1.552-0.006c-0.553,0-1.105,0-1.603,0
		c0.06,0.292,0.146,0.521,0.148,0.752c0.014,1.223,0.015,2.446,0.001,3.669c-0.004,0.278-0.084,0.556-0.131,0.844
		c0.266,0,0.594,0,0.926,0C65.931,84.966,66.2,84.198,66.086,83.385z M165.034,85.851c0.156-0.006,0.313-0.006,0.47-0.022
		c1.165-0.116,1.963-0.86,2.129-1.979c0.146-0.988-0.401-1.946-1.38-2.325c-0.854-0.33-1.728-0.32-2.564,0.068
		c-0.779,0.363-1.192,0.998-1.238,1.857C162.375,84.873,163.431,85.848,165.034,85.851z M153.624,85.85
		c0.853-0.007,1.621-0.22,2.158-0.941c0.533-0.716,0.575-1.739,0.12-2.486c-0.518-0.844-1.63-1.27-2.823-1.08
		c-1.065,0.17-1.791,0.772-2,1.67c-0.04,0.167-0.068,0.34-0.072,0.511C150.967,84.899,152.049,85.86,153.624,85.85z M73.81,83.792
		c0.133-0.044,0.191-0.064,0.251-0.082c0.744-0.218,0.973-0.526,0.928-1.248c-0.035-0.55-0.408-0.983-1.046-1.017
		c-1.023-0.054-2.053-0.015-3.095-0.015c0.251,0.413,0.255,3.843,0.019,4.296c0.32,0,0.636,0,0.856,0c0-0.645,0-1.26,0-1.896
		c0.047-0.005,0.122-0.019,0.198-0.021c1.225-0.043,1.229-0.045,1.873,1.003c0.175,0.286,0.322,0.588,0.501,0.919
		c0.208,0,0.514,0,0.757,0C74.648,85.102,74.241,84.465,73.81,83.792z M124.324,81.419c0.08,1.444,0.096,2.877-0.011,4.311
		c0.168,0,0.44,0,0.581,0c-0.064-1.172-0.015-2.321-0.034-3.598c0.982,1.102,1.874,2.092,2.748,3.096
		c0.096,0.109,0.088,0.31,0.135,0.495c0.257,0,0.602,0,0.97,0c-0.306-0.428-0.308-3.842-0.015-4.298c-0.301,0-0.588,0-0.888,0
		c0.205,0.346,0.274,2.505,0.104,3.283c-0.777-0.876-1.543-1.721-2.281-2.587c-0.145-0.171-0.185-0.431-0.294-0.702
		C125.043,81.419,124.621,81.419,124.324,81.419z M118.462,81.894c-0.229-0.068-0.432-0.142-0.64-0.189
		c-0.575-0.132-1.15-0.359-1.727-0.357c-1.487,0.008-2.556,1.256-2.302,2.592c0.182,0.955,0.74,1.589,1.69,1.812
		c1.152,0.271,2.189,0.012,2.97-0.646c0-0.573,0-0.988,0-1.401c-0.625-0.035-1.304-0.075-1.977-0.114c0,0.18,0,0.438,0,0.589
		c0.446-0.036,0.877-0.071,1.3-0.105c0.135,0.836,0.066,0.976-0.636,1.176c-0.296,0.084-0.617,0.114-0.928,0.112
		c-0.991-0.003-1.77-0.67-1.83-1.541c-0.078-1.07,0.556-1.859,1.611-2.009c0.807-0.114,1.731,0.264,1.992,0.857
		C118.165,82.379,118.325,82.117,118.462,81.894z M109.056,81.415c0.172,1.451,0.171,2.881,0,4.313c0.232,0,0.547,0,0.768,0
		c0-0.643,0-1.258,0-1.88c0.867-0.156,1.682-0.144,2.054,0.912c0.067,0.188,0.23,0.339,0.316,0.521
		c0.064,0.139,0.077,0.302,0.113,0.455c0.292,0,0.601,0,0.849,0c-0.4-0.636-0.807-1.278-1.229-1.944
		c0.121-0.038,0.181-0.057,0.239-0.075c0.729-0.221,1.01-0.592,0.943-1.245c-0.062-0.613-0.47-1.019-1.185-1.047
		C110.944,81.388,109.958,81.415,109.056,81.415z M150.155,85.736c-0.263-0.486-0.27-3.8-0.019-4.306c-0.304,0-0.608,0-0.833,0
		c0,0.628,0,1.229,0,1.829c-0.889,0-1.791,0-2.738,0c0.087-0.629-0.193-1.26,0.229-1.833c-0.326,0-0.646,0-0.977,0
		c0.265,0.439,0.267,3.841,0.002,4.31c0.331,0,0.651,0,0.977,0c-0.415-0.636-0.152-1.303-0.22-1.963c0.962,0,1.864,0,2.729,0
		c0,0.668,0,1.304,0,1.963C149.531,85.736,149.84,85.736,150.155,85.736z M109.149,89.701c-0.34,0.998-0.851,1.832-1.302,2.811
		c-0.403-1.018-1.007-1.819-1.233-2.809c-0.274,0-0.603,0-0.857,0c0,1.234,0,2.454,0,3.7c0.18,0,0.406,0,0.583,0
		c0-0.959,0-1.895,0-2.898c0.504,1.002,0.978,1.943,1.484,2.95c0.528-1.052,1.011-2.011,1.506-2.995c0,1.011,0,1.974,0,2.945
		c0.202,0,0.434,0,0.619,0c0-1.245,0-2.47,0-3.704C109.677,89.701,109.366,89.701,109.149,89.701z M185.996,81.268
		c-0.264,0.048-0.507,0.128-0.751,0.13c-1.016,0.016-2.033,0.007-2.918,0.007c0.016,0.756,0.066,1.477,0.04,2.193
		c-0.025,0.713,0.174,1.444-0.163,2.133c0.049,0.011,0.079,0.023,0.109,0.024c1.005,0.002,2.012-0.006,3.017,0.012
		c0.229,0.003,0.456,0.09,0.682,0.138c0-0.24,0-0.52,0-0.825c-0.359,0.262-2.203,0.354-3.053,0.174c0-0.243,0-0.493,0-0.744
		c0-0.245,0-0.489,0-0.728c1.01-0.094,1.718-0.055,2.07,0.107c0-0.267,0-0.529,0-0.779c-0.68,0.344-1.373,0.116-2.048,0.18
		c0-0.508,0-0.942,0-1.344c1.017,0,2.009,0,3.015,0C185.996,81.737,185.996,81.477,185.996,81.268z M75.833,85.759
		c1.082,0,2.103-0.007,3.123,0.005c0.247,0.003,0.493,0.071,0.757,0.114c0-0.223,0-0.484,0-0.662
		c-1.006,0.216-2.011,0.053-3.027,0.104c0-0.545,0-1.038,0-1.488c0.7,0,1.368,0,2.053,0c0-0.191,0-0.467,0-0.737
		c-0.68,0.372-1.376,0.128-2.044,0.192c0-0.51,0-0.955,0-1.426c0.54,0,1.042-0.007,1.542,0.002c0.481,0.009,0.962,0.034,1.45,0.053
		c0-0.177,0-0.439,0-0.646c-0.244,0.047-0.474,0.124-0.706,0.129c-0.676,0.019-1.352,0.007-2.027,0.007c-0.362,0-0.725,0-1.145,0
		C76.189,81.873,76.192,85.27,75.833,85.759z M136.189,81.791c-0.218-0.053-0.397-0.104-0.58-0.137
		c-0.625-0.116-1.254-0.328-1.878-0.314c-1.247,0.027-2.112,0.886-2.237,2.064c-0.106,0.992,0.572,2.026,1.565,2.313
		c0.933,0.269,1.831,0.163,2.667-0.366c0.181-0.113,0.391-0.178,0.606-0.273c-0.164-0.21-0.354-0.453-0.563-0.722
		c-0.189,0.675-0.982,1.067-1.942,1.01c-0.842-0.053-1.593-0.714-1.703-1.502c-0.125-0.889,0.315-1.646,1.131-1.949
		c0.901-0.334,2.06-0.056,2.501,0.619C135.909,82.271,136.055,82.02,136.189,81.791z M161.154,84.32
		c-0.137,0.681-0.877,1.07-1.832,1.046c-0.938-0.025-1.694-0.691-1.813-1.597c-0.109-0.83,0.402-1.607,1.236-1.882
		c0.899-0.297,2.063,0.011,2.407,0.676c0.158-0.288,0.303-0.55,0.427-0.774c-0.216-0.052-0.381-0.099-0.548-0.13
		c-0.625-0.118-1.251-0.331-1.874-0.321c-1.23,0.016-2.168,0.913-2.239,1.996c-0.085,1.271,0.65,2.253,1.888,2.467
		c0.829,0.143,1.621,0.018,2.343-0.46c0.171-0.113,0.381-0.171,0.591-0.262C161.569,84.856,161.388,84.623,161.154,84.32z
		 M174.356,81.418c-0.029,0.836-0.52,1.479-0.816,2.176c-0.311,0.734-0.681,1.444-1.015,2.138c0.244,0,0.563,0,0.893,0
		c-0.24-0.632,0.146-1.198,0.788-1.198c0.376,0,0.753,0,1.129,0c0.639,0,1.063,0.572,0.877,1.197c0.337,0,0.669,0,1.024,0
		c-0.606-0.72-1.965-3.861-1.869-4.313C174.991,81.418,174.619,81.418,174.356,81.418z M123.644,85.734
		c-0.161-0.25-0.315-0.446-0.419-0.667c-0.461-0.978-0.913-1.958-1.348-2.946c-0.091-0.205-0.092-0.449-0.137-0.686
		c-0.315,0-0.695,0-1.092,0c0.175,0.306,0.178,0.307-0.688,2.193c-0.326,0.713-0.672,1.417-0.998,2.104c0.236,0,0.554,0,0.882,0
		c-0.246-0.619,0.145-1.199,0.78-1.199c0.471,0,0.942-0.008,1.412,0.005c0.111,0.002,0.287,0.043,0.321,0.115
		c0.153,0.343,0.268,0.704,0.403,1.081C122.997,85.734,123.32,85.734,123.644,85.734z M92.03,81.42
		c0.042,0.244,0.114,0.477,0.119,0.708c0.015,0.723,0.009,1.444,0.004,2.166c-0.004,0.688-0.209,0.969-0.878,1.037
		c-0.445,0.045-0.907,0.001-1.352-0.065c-0.403-0.061-0.613-0.349-0.616-0.771c-0.003-0.785-0.02-1.569-0.008-2.354
		c0.003-0.234,0.079-0.468,0.122-0.702c-0.264,0-0.576,0-0.826,0c0.047,0.243,0.121,0.459,0.126,0.676
		c0.017,0.815-0.001,1.632,0.019,2.447c0.015,0.615,0.314,1.067,0.91,1.146c0.687,0.088,1.402,0.084,2.09-0.003
		c0.574-0.072,0.86-0.512,0.881-1.116c0.026-0.8,0.015-1.6,0.04-2.399c0.008-0.259,0.077-0.515,0.119-0.77
		C92.548,81.42,92.267,81.42,92.03,81.42z M102.37,89.599c-1.046,0.006-1.819,0.463-2.12,1.256
		c-0.537,1.412,0.537,2.721,2.187,2.663c0.908-0.031,1.67-0.333,2.035-1.235C105.034,90.888,104.006,89.588,102.37,89.599z
		 M139.136,89.491c-0.487,0.184-1.034,0.281-1.451,0.568c-1.096,0.756-0.981,2.432,0.165,3.128c1.084,0.66,2.739,0.34,3.309-0.655
		c0.373-0.649,0.371-1.334-0.009-1.969C140.712,89.834,139.992,89.6,139.136,89.491z M91.739,91.385c0.741,0,1.488,0,2.239,0
		c0-0.187,0-0.444,0-0.619c-0.773,0-1.519,0-2.286,0c0-0.443,0-0.921,0-1.443c1.104,0.019,2.182-0.02,3.259,0.026
		c0-0.138,0-0.391,0-0.506c-0.686,0.004-1.348,0.011-2.01,0.012c-0.664,0.003-1.328,0-2.028,0c0.267,0.443,0.281,4.079,0.041,4.549
		c0.289,0,0.565,0,0.784,0C91.739,92.713,91.739,92.043,91.739,91.385z M99.252,93.403c-0.346-0.554-0.688-1.099-1.038-1.659
		c0.809-0.245,1.042-0.51,1.011-1.097c-0.024-0.492-0.326-0.887-0.847-0.915c-0.898-0.049-1.8-0.015-2.631-0.015
		c0,1.238,0,2.451,0,3.683c0.194,0,0.439,0,0.62,0c0-0.544,0-1.062,0-1.637c0.218,0,0.449-0.01,0.679,0.002
		c0.213,0.012,0.53-0.034,0.619,0.084c0.358,0.471,0.646,0.995,0.993,1.554C98.789,93.403,99.034,93.403,99.252,93.403z
		 M155.393,91.764c0.281,0,0.575-0.011,0.87,0.003c0.148,0.008,0.368,0.008,0.431,0.098c0.334,0.49,0.629,1.008,0.951,1.538
		c0.169,0,0.397,0,0.61,0c-0.349-0.559-0.688-1.104-1.038-1.666c0.765-0.207,1.039-0.498,1.03-1.037
		c-0.01-0.491-0.307-0.925-0.808-0.954c-0.91-0.056-1.823-0.016-2.668-0.016c0,1.241,0,2.453,0,3.676c0.206,0,0.436,0,0.621,0
		C155.393,92.87,155.393,92.354,155.393,91.764z M121.083,93.41c-0.358-0.569-0.699-1.112-1.049-1.67
		c0.845-0.25,1.088-0.558,1-1.194c-0.077-0.559-0.468-0.844-1.211-0.854c-0.77-0.011-1.536-0.002-2.244-0.002c0,1.254,0,2.48,0,3.71
		c0.212,0,0.455,0,0.637,0c0-0.552,0-1.076,0-1.637c0.235,0,0.468-0.01,0.701,0.004c0.196,0.011,0.488-0.025,0.573,0.085
		c0.357,0.477,0.654,0.998,1.01,1.559C120.615,93.41,120.847,93.41,121.083,93.41z M129.83,89.596
		c-1.117,0.207-2.208,0.011-3.218,0.116c0,1.245,0,2.46,0,3.771c1.06,0,2.136,0,3.208,0c0-0.15,0-0.361,0-0.503
		c-0.883,0-1.741,0-2.605,0c0-0.421,0-0.848,0-1.216c0.619,0,1.196,0,1.774,0c0-0.16,0-0.388,0-0.535c-0.6,0-1.179,0-1.786,0
		c0-0.34,0-0.725,0-1.078c0.887,0,1.752,0,2.627,0C129.83,89.989,129.83,89.772,129.83,89.596z M135.092,93.4
		c0-1.363,0-2.695,0-3.995c0.6,0,1.203,0,1.825,0c0-0.184,0-0.446,0-0.572c-1.45,0.039-2.888,0.024-4.341,0.013
		c0,0.129,0,0.375,0,0.554c0.629,0,1.232,0,1.822,0c0,1.312,0,2.644,0,4.001C134.592,93.4,134.854,93.4,135.092,93.4z
		 M153.886,93.408c-0.449-0.492-1.691-3.311-1.657-3.693c-0.306,0-0.612,0-0.812,0c-0.09,0.716-0.479,1.269-0.73,1.863
		c-0.263,0.619-0.573,1.219-0.865,1.83c0.222,0,0.469,0,0.718,0c-0.113-0.668,0.185-1.018,0.844-1.018c0.252,0,0.502,0,0.753,0
		c0.64,0,0.941,0.338,0.895,1.018C153.294,93.408,153.556,93.408,153.886,93.408z M125.433,89.646c-1.104,0-2.18,0-3.187,0
		c0,1.311,0,2.523,0,3.832c1.03,0,2.11,0,3.203,0c0-0.138,0-0.35,0-0.495c-0.884,0-1.742,0-2.606,0c0-0.421,0-0.849,0-1.229
		c0.604,0,1.166,0,1.757,0c0-0.146,0-0.359,0-0.519c-0.594,0-1.169,0-1.766,0c0-0.359,0-0.742,0-1.176
		c0.881,0.066,1.74-0.124,2.599,0.129C125.433,89.992,125.433,89.791,125.433,89.646z M117.246,89.395c0-0.181,0-0.424,0-0.679
		c-0.447,0.209-3.922,0.192-4.32-0.023c0,0.27,0,0.526,0,0.712c0.625,0,1.231,0,1.896,0c-0.01,1.303,0.022,2.646-0.021,3.999
		c0.167,0,0.427,0,0.622,0c0-1.357,0-2.69,0-4.009C116.009,89.395,116.616,89.395,117.246,89.395z M177.318,81.211
		c0,0.307,0,0.569,0,0.729c0.601-0.027,1.188-0.055,1.822-0.085c0,1.083,0.007,2.085-0.007,3.088
		c-0.003,0.264-0.081,0.526-0.124,0.785c0.257,0,0.573,0,0.763,0c-0.145-1.286-0.031-2.554-0.071-3.771c0.648,0,1.234,0,1.812,0
		c0-0.204,0-0.459,0-0.732C181.082,81.504,177.766,81.501,177.318,81.211z M168.434,81.417c0.354,0.457,0.371,3.729,0.057,4.342
		c1.016,0,2.02-0.008,3.022,0.005c0.261,0.004,0.52,0.072,0.767,0.109c0-0.22,0-0.487,0-0.64c-1.005,0.172-1.992,0.051-2.966,0.081
		c-0.139-1.047-0.066-3.501,0.111-3.897C169.109,81.417,168.798,81.417,168.434,81.417z M87.579,85.738
		c-0.304-0.721-0.119-1.459-0.148-2.179c-0.028-0.71,0.007-1.424,0.014-2.12c-0.193,0-0.493,0-0.813,0
		c0.292,0.424,0.294,3.801,0.017,4.299C86.967,85.738,87.275,85.738,87.579,85.738z M130.645,85.732
		c-0.286-0.492-0.284-3.839,0-4.296c-0.322,0-0.633,0-0.962,0c0.266,0.412,0.275,3.798,0.025,4.296
		C130.019,85.732,130.324,85.732,130.645,85.732z"/>
	<rect x="35.68" y="4.097" width="137.96" height="91.805"/>
	<path fill="#FFFFFF" d="M168.153,48.082c0.193,0.059,0.387,0.117,0.579,0.177c1.729,0.534,2.674,2.071,2.432,3.954
		c-0.189,1.471-1.704,2.771-3.316,2.847c-2.22,0.102-3.963-1.486-3.923-3.573c0.03-1.559,1.146-2.898,2.742-3.297
		c0.12-0.029,0.237-0.071,0.354-0.107C167.399,48.082,167.776,48.082,168.153,48.082z M164.836,51.555
		c-0.007,1.545,1.182,2.738,2.741,2.751c1.526,0.014,2.73-1.167,2.744-2.692c0.013-1.536-1.19-2.767-2.722-2.777
		C166.043,48.827,164.844,50.005,164.836,51.555z"/>
	<path fill="#FFFFFF" d="M88.155,25.968c-1.618,0.222-1.994,0.019-2.493-1.299c1.256-0.615,1.664-0.469,2.879,1.048
		c2.646-1.769,5.723-2.199,8.789-2.708c-0.367-0.488-0.84-0.628-1.343-0.642c-1.318-0.036-2.585,0.274-3.839,0.638
		c-1.145,0.332-2.281,0.693-3.431,1.006c-0.309,0.083-0.657,0.07-0.98,0.037c-0.135-0.014-0.292-0.174-0.362-0.308
		c-0.035-0.067,0.083-0.243,0.167-0.337c0.155-0.174,0.338-0.325,0.577-0.548c-0.752-0.135-1.327-0.403-1.157-1.275
		c0.777-0.123,0.875-0.044,1.385,1.114c2.104-0.974,4.346-1.318,6.634-1.397c0.827-0.028,1.658,0.072,2.487,0.102
		c0.539,0.019,1.091,0.081,1.687-0.386c-0.36-0.206-0.627-0.418-0.931-0.517c-1.352-0.44-2.746-0.498-4.147-0.343
		c-1.576,0.173-3.146,0.404-4.722,0.579c-0.512,0.057-1.038,0.05-1.551,0.002c-0.214-0.02-0.412-0.225-0.617-0.346
		c0.136-0.177,0.264-0.361,0.41-0.529c0.059-0.067,0.158-0.099,0.294-0.18c-0.573-0.458-0.788-0.977-0.267-1.591
		c0.706,0.292,0.807,0.48,0.72,1.392c2.254-0.617,4.573-0.48,6.886-0.636c-0.065-0.484-0.317-0.736-0.658-0.817
		c-0.62-0.147-1.254-0.279-1.889-0.315c-1.456-0.081-2.918-0.07-4.372-0.163c-0.485-0.032-0.989-0.204-1.429-0.422
		c-0.794-0.396-1.108-1.229-0.741-2.039c0.24-0.531,0.592-1.038,0.988-1.469c0.998-1.086,2.188-1.934,3.53-2.548
		c2.543-1.163,4.677-0.77,6.68,1.177c1.47,1.428,2.478,3.153,3.263,5.021c0.242,0.574,0.591,1.038,1.137,1.329
		c0.175,0.093,0.429,0.168,0.593,0.107c0.098-0.036,0.162-0.371,0.119-0.542c-0.208-0.832-0.457-1.653-0.666-2.388
		c-0.591,0-1.062,0-1.533,0c-0.033-0.063-0.065-0.125-0.098-0.188c0.288-0.333,0.576-0.667,0.923-1.07
		c-0.249-0.569-0.552-1.284-0.88-1.986c-0.036-0.077-0.21-0.108-0.326-0.125c-1.259-0.18-1.752-0.615-2.05-1.849
		c-0.098-0.407-0.163-0.821-0.261-1.323c0.677,0.181,1.286,0.316,1.875,0.509c0.841,0.275,1.252,0.889,1.304,1.77
		c0.011,0.177,0.127,0.348,0.194,0.522c0.052-0.015,0.104-0.031,0.156-0.045c-0.019-0.192-0.039-0.384-0.054-0.576
		c-0.069-0.864,0.239-1.56,1.004-1.977c0.642-0.351,1.326-0.623,2.084-0.973c-0.04,1.015,0.053,1.922-0.348,2.772
		c-0.444,0.943-1.389,1.024-2.21,1.24c0.566,1.066,1.124,2.116,1.697,3.195c0.72-0.287,1.124,0.208,1.622,0.762
		c-0.478,0.104-0.879,0.191-1.412,0.307c0.338,1.077,0.644,2.202,1.057,3.285c0.125,0.326,0.539,0.554,0.849,0.785
		c0.06,0.044,0.342-0.072,0.383-0.171c0.106-0.255,0.16-0.54,0.188-0.817c0.134-1.267-0.281-4.494-0.725-5.698
		c-0.596,0.61-1.25,0.414-1.913,0.161c0.271-1.002,0.545-1.225,1.674-1.358c-0.063-0.605-0.125-1.213-0.188-1.821
		c0.062-0.013,0.124-0.027,0.185-0.04c1.011,1.348,1.369,2.942,1.604,4.644c1.247-0.473,2.206-0.25,2.7,1.061
		c-0.959,0.65-1.482,0.617-2.622-0.209c0.023,1.685-0.066,3.353,0.704,4.897c0.16,0.319,0.36,0.633,0.601,0.894
		c0.429,0.467,0.897,0.427,1.259-0.087c0.16-0.228,0.328-0.488,0.369-0.753c0.133-0.832,0.207-1.673,0.249-2.573
		c-0.661,0.712-1.37,0.56-2.095,0.26c0.319-1.087,0.529-1.22,2.135-1.308c-0.072-1.542-0.146-3.085-0.223-4.695
		c-0.713,0.266-1.41,0.597-2.061,0.148c-0.569-0.394-1.051-0.917-1.604-1.412c1.575-0.776,2.543-0.668,3.576,0.338
		c0.104-0.385,0.014-0.645-0.334-0.902c-1.147-0.851-1.395-1.706-0.913-3.048c0.2-0.557,0.468-1.089,0.735-1.705
		c0.515,0.559,1.017,1.035,1.436,1.576c0.774,0.999,0.777,1.733,0.141,2.823c-0.114,0.194-0.121,0.452-0.096,0.733
		c0.697-1.746,2.25-1.53,3.699-1.719c-0.238,0.844-0.454,1.635-0.977,2.298c-0.602,0.762-1.467,0.66-2.243,0.648
		c0,1.514,0.029,3.001-0.008,4.486c-0.03,1.255-0.146,2.508-0.207,3.763c-0.018,0.375-0.021,0.759,0.046,1.125
		c0.033,0.181,0.207,0.402,0.372,0.47c0.094,0.039,0.396-0.165,0.44-0.311c0.313-0.998,0.686-1.993,0.841-3.019
		c0.247-1.627,0.311-3.28,0.508-4.915c0.126-1.037,0.474-2.017,1.082-2.884c1.292-1.843,3.159-1.94,4.659-0.263
		c1.26,1.408,1.408,3.014,0.8,4.709c-0.836,2.322-2.35,4.168-4.248,5.709c-0.986,0.8-2.014,1.552-2.983,2.372
		c-0.312,0.263-0.557,0.648-0.72,1.026c-0.09,0.209-0.031,0.584,0.113,0.761c0.131,0.159,0.503,0.258,0.703,0.19
		c0.423-0.142,0.86-0.344,1.19-0.637c0.842-0.749,1.632-1.559,2.438-2.349c0.965-0.944,1.93-1.887,2.88-2.845
		c0.119-0.12,0.226-0.34,0.206-0.496c-0.148-1.114,0.032-1.485,1.042-1.981c0.221-0.108,0.451-0.196,0.742-0.323
		c0,0.459,0.018,0.849-0.003,1.236c-0.036,0.663-0.407,1.076-1.038,1.238c-0.262,0.067-0.354,0.22-0.455,0.454
		c-0.191,0.441-0.447,0.854-0.71,1.34c1.38-0.544,1.966,0.379,2.553,1.341c-1.622,0.471-2.131,0.295-2.891-0.999
		c-1.213,1.111-2.424,2.216-3.629,3.325c-1.196,1.099-2.647,1.934-3.641,3.402c0.653,0.167,1.099-0.053,1.484-0.319
		c1.021-0.703,2.013-1.449,3.015-2.181c0.532-0.39,1.057-0.791,1.593-1.174c0.155-0.112,0.341-0.182,0.551-0.226
		c-0.31,0.89-0.951,1.524-1.658,2.279c1.231-0.146,1.822,0.442,2.015,1.509c-1.245,0.455-1.593,0.327-2.616-0.978
		c-1.162,1.067-2.627,1.621-3.979,2.372c-0.586,0.325-1.102,0.776-1.636,1.187c-0.142,0.108-0.235,0.28-0.351,0.422
		c0.01,0.052,0.02,0.104,0.029,0.155c0.227,0,0.476,0.06,0.678-0.01c0.856-0.296,1.709-0.607,2.543-0.959
		c0.792-0.334,1.558-0.735,2.344-1.084c0.139-0.061,0.326-0.011,0.49-0.013c-0.038,0.171-0.067,0.345-0.118,0.512
		c-0.021,0.07-0.085,0.133-0.14,0.188c-1.79,1.765-3.87,2.987-6.399,3.314c-0.379,0.049-0.791,0.009-1.163-0.086
		c-0.763-0.195-0.958-0.741-0.529-1.397c0.3-0.46,0.674-0.876,0.941-1.353c0.475-0.843,0.984-1.685,1.315-2.587
		c0.52-1.413,0.161-2.694-0.927-3.744c-1.226-1.182-2.638-2.088-4.23-2.672c-0.542-0.198-1.166-0.217-1.754-0.236
		c-0.368-0.01-0.794,0.094-0.825,0.592c-0.029,0.471,0.321,0.649,0.71,0.741c0.243,0.057,0.496,0.106,0.744,0.103
		c1.052-0.014,1.887,0.461,2.577,1.186c0.58,0.611,1.162,1.248,1.604,1.959c1.097,1.759,0.585,3.936-1.122,5.112
		c-0.525,0.362-1.082,0.535-1.733,0.414c-0.64-0.12-0.892,0.134-0.787,0.776c0.131,0.805,0.283,1.605,0.45,2.402
		c0.139,0.66,0.534,1.064,1.205,1.043c0.629-0.02,1.282-0.14,1.87-0.363c1.172-0.444,2.285-1.04,3.458-1.478
		c0.967-0.36,1.983-0.59,2.982-0.86c0.196-0.053,0.416-0.026,0.623-0.037c0.017,0.04,0.031,0.079,0.047,0.118
		c-0.142,0.127-0.273,0.27-0.428,0.38c-1.038,0.734-2.194,1.208-3.41,1.556c-0.347,0.099-0.688,0.22-1.036,0.309
		c-1.035,0.263-1.803,0.923-2.515,1.668c-0.195,0.205-0.396,0.406-0.602,0.601c-1.002,0.946-2.239,0.765-2.89-0.46
		c-0.209-0.394-0.33-0.849-0.417-1.291c-0.189-0.955-0.778-1.665-1.372-2.378c-0.049-0.058-0.12-0.1-0.189-0.138
		c-0.037-0.021-0.089-0.019-0.225-0.045c-0.037,0.222-0.104,0.44-0.103,0.658c0.008,0.878,0.203,1.712,0.672,2.467
		c0.364,0.587,0.724,1.178,1.105,1.753c0.581,0.876,0.828,1.822,0.65,2.863c-0.152,0.89,0.18,1.574,0.891,2.082
		c0.446,0.318,0.913,0.61,1.383,0.893c0.725,0.435,1.254,1.039,1.606,1.799c0.277,0.598,0.127,0.88-0.515,0.898
		c-1.498,0.043-2.894-0.323-4.157-1.14c-0.979-0.633-1.253-1.634-1.25-2.701c0.003-1.018,0.13-2.036,0.201-3.053
		c0.066-0.946-0.167-1.801-0.574-2.671c-0.407-0.869-0.59-1.843-0.864-2.773c-0.137-0.466-0.257-0.937-0.391-1.405
		c-0.125-0.441-0.415-0.526-0.835-0.414c-1.116,0.297-1.907,1.613-1.573,2.787c0.339,1.19,0.775,2.352,1.159,3.529
		c0.377,1.163,0.773,2.319,1.097,3.497c0.117,0.426,0.098,0.908,0.054,1.356c-0.133,1.339-1.497,2.079-2.886,1.565
		c-0.932-0.343-1.536-1.026-1.791-1.982c-0.191-0.714-0.062-1.373,0.507-1.9c0.173-0.16,0.319-0.357,0.508-0.492
		c0.758-0.54,0.906-1.285,0.704-2.123c-0.153-0.639-0.358-1.267-0.571-1.889c-0.484-1.419-0.617-2.849-0.16-4.298
		c0.291-0.922,0.899-1.526,1.843-1.781c0.242-0.066,0.478-0.153,0.72-0.218c0.32-0.086,0.445-0.262,0.321-0.591
		c-0.12-0.319-0.322-0.547-0.671-0.405c-0.373,0.153-0.729,0.363-1.065,0.588c-0.731,0.488-1.241,0.394-1.667-0.379
		c-0.219-0.396-0.368-0.832-0.572-1.238c-0.16-0.321-0.326-0.647-0.542-0.931c-0.305-0.399-0.734-0.554-1.214-0.356
		c-0.344,0.141-0.668,0.337-0.984,0.536c-0.623,0.394-1.228,0.816-1.853,1.205c-0.182,0.113-0.403,0.183-0.616,0.221
		c-0.413,0.073-0.63-0.194-0.491-0.594c0.061-0.175,0.145-0.357,0.266-0.494c1.242-1.398,2.694-2.451,4.606-2.701
		c0.322-0.042,0.657-0.008,0.984,0.02c0.56,0.046,0.911,0.383,1.125,0.878c0.063,0.144,0.109,0.294,0.159,0.443
		c0.297,0.879,0.366,0.942,1.237,0.659c0.928-0.303,1.849-0.478,2.824-0.281c0.104,0.021,0.346-0.166,0.368-0.285
		c0.132-0.728,0.07-1.455-0.317-2.093c-0.121-0.201-0.44-0.358-0.688-0.391c-0.808-0.108-1.625-0.144-2.438-0.217
		c-1.539-0.138-2.944,0.367-4.333,0.918c-1.268,0.503-2.51,1.074-3.783,1.566c-0.474,0.184-0.996,0.286-1.503,0.325
		c-0.514,0.038-0.68-0.305-0.392-0.732C87.691,26.458,87.919,26.241,88.155,25.968z M98.489,17.451
		c-0.098-0.685-0.151-1.375-0.3-2.043c-0.445-2-1.86-3.305-3.756-3.501c-1.821-0.189-3.482,0.405-5.112,1.033
		c0.453,0.553,0.896,1.08,1.325,1.62c0.831,1.049,1.876,1.734,3.207,1.982C95.375,16.824,96.893,17.136,98.489,17.451z
		 M117.252,12.178c-0.802,0.483-1.586,0.912-2.322,1.409c-0.904,0.611-1.353,1.495-1.371,2.595c-0.021,1.42,0.477,2.724,0.856,4.1
		c0.448-0.329,0.872-0.598,1.246-0.926c0.682-0.598,1.389-1.182,1.979-1.862c0.79-0.909,0.939-2.003,0.527-3.137
		C117.907,13.64,117.58,12.946,117.252,12.178z M106.793,28.487c-0.024-0.013-0.048-0.026-0.07-0.04
		c-0.049-0.292-0.045-0.606-0.154-0.874c-0.445-1.099-1.169-1.999-2.109-2.713c-0.389-0.294-0.82-0.258-1.237-0.014
		c-0.766,0.448-1.215,1.449-1.014,2.351c0.267,1.197,0.933,2.194,1.743,3.072c0.685,0.743,1.818,0.582,2.318-0.302
		C106.524,29.521,106.624,28.984,106.793,28.487z"/>
	<path fill="#FFFFFF" d="M136.764,63.832c0,0.236-0.002,0.421,0,0.606c0.02,2.119,0.011,4.24,0.073,6.358
		c0.036,1.212,0.235,1.372,1.437,1.562c0.292,0.046,0.587,0.063,0.911,0.099c0,0.29,0,0.564,0,0.869c-2.805,0-5.61,0-8.453,0
		c0-0.268,0-0.542,0-0.845c0.556-0.078,1.129-0.137,1.692-0.243c0.759-0.146,0.939-0.355,1.021-1.131
		c0.05-0.483,0.092-0.97,0.093-1.455c0.001-4.935-0.006-9.868-0.015-14.802c0-0.235-0.032-0.47-0.059-0.704
		c-0.119-1.108-0.296-1.291-1.412-1.437c-0.434-0.057-0.868-0.098-1.327-0.149c0-0.295,0-0.568,0-0.86
		c0.068-0.013,0.128-0.031,0.188-0.032c3.346-0.033,6.69-0.099,10.035-0.072c0.911,0.006,1.848,0.2,2.724,0.469
		c2.212,0.677,3.389,2.318,3.45,4.631c0.082,3.127-1.263,5.153-4.176,6.289c-0.115,0.044-0.229,0.093-0.401,0.164
		c0.401,0.591,0.779,1.162,1.172,1.724c1.513,2.159,3.041,4.311,4.542,6.479c0.526,0.76,1.241,1.067,2.132,1.061
		c0.279-0.003,0.559-0.001,0.866-0.001c0,0.34,0,0.614,0,0.946c-0.294,0-0.588,0-0.882,0c-1.492,0-2.986-0.008-4.479,0.008
		c-0.3,0.004-0.479-0.081-0.644-0.34c-1.851-2.917-3.721-5.819-5.563-8.74c-0.225-0.355-0.459-0.482-0.867-0.461
		C138.154,63.856,137.482,63.832,136.764,63.832z M136.867,62.895c1.105-0.105,2.182-0.114,3.215-0.327
		c1.864-0.381,3.1-1.515,3.541-3.41c0.274-1.179,0.259-2.364,0.016-3.549c-0.305-1.49-1.165-2.494-2.686-2.711
		c-1.339-0.191-2.703-0.202-4.087-0.294C136.867,56.073,136.867,59.409,136.867,62.895z"/>
	<path fill="#FFFFFF" d="M39.894,52.542c0-0.289,0-0.553,0-0.839c0.101-0.014,0.191-0.035,0.281-0.036
		c3.346-0.032,6.692-0.091,10.039-0.076c0.852,0.002,1.726,0.145,2.55,0.367c1.934,0.522,3.14,1.803,3.478,3.794
		c0.398,2.347,0.128,4.56-1.659,6.335c-1.133,1.127-2.585,1.662-4.122,1.914c-1.111,0.183-2.246,0.225-3.372,0.314
		c-0.357,0.026-0.717,0.004-1.049,0.004c-0.044,0.065-0.076,0.09-0.076,0.116c0.015,2.166,0.005,4.334,0.062,6.501
		c0.025,0.984,0.333,1.254,1.317,1.378c0.574,0.074,1.152,0.104,1.76,0.158c0,0.27,0,0.544,0,0.853c-3.049,0-6.104,0-9.194,0
		c0-0.273,0-0.547,0-0.842c0.563-0.08,1.138-0.139,1.701-0.251c0.742-0.149,0.91-0.343,1.001-1.099
		c0.053-0.436,0.089-0.875,0.09-1.314c0.006-4.871,0.007-9.745-0.001-14.617c-0.001-0.5-0.07-1.001-0.119-1.5
		c-0.052-0.528-0.369-0.816-0.876-0.898C41.121,52.71,40.531,52.634,39.894,52.542z M45.97,63.297
		c1.284,0.041,2.516,0.03,3.713-0.378c1.455-0.495,2.436-1.472,2.908-2.922c0.481-1.48,0.53-2.995,0.184-4.512
		c-0.284-1.242-1.017-2.098-2.254-2.491c-1.487-0.473-3.011-0.256-4.55-0.31C45.97,56.243,45.97,59.741,45.97,63.297z"/>
	<path fill="#FFFFFF" d="M128.912,72.445c0,0.313,0,0.588,0,0.888c-2.792,0-5.565,0-8.361,0c0-0.296,0-0.57,0-0.854
		c0.572-0.05,1.136-0.067,1.688-0.155c0.657-0.104,0.792-0.275,0.641-0.926c-0.149-0.638-0.372-1.262-0.615-1.87
		c-0.335-0.846-0.73-1.667-1.079-2.507c-0.106-0.255-0.24-0.351-0.523-0.351c-3.002,0.011-6.003,0.003-9.005,0.018
		c-0.149,0-0.384,0.105-0.436,0.225c-0.605,1.379-1.216,2.756-1.759,4.16c-0.364,0.946-0.143,1.234,0.885,1.327
		c0.356,0.032,0.718,0.006,1.108,0.006c0,0.338,0,0.613,0,0.92c-1.918,0-3.843,0-5.808,0c0-0.276,0-0.561,0-0.875
		c0.294-0.02,0.573-0.044,0.853-0.054c0.674-0.022,1.124-0.302,1.406-0.959c0.874-2.032,1.807-4.039,2.7-6.063
		c2.001-4.534,4.001-9.069,5.974-13.617c0.188-0.43,0.47-0.357,0.785-0.378c0.309-0.02,0.497,0.042,0.642,0.376
		c2.554,5.902,5.124,11.799,7.7,17.691c0.289,0.661,0.651,1.288,0.96,1.94c0.328,0.69,0.898,0.972,1.622,1.021
		C128.488,72.422,128.689,72.433,128.912,72.445z M111.873,65.424c2.895,0,5.713,0,8.602,0c-1.428-3.25-2.835-6.453-4.288-9.763
		C114.719,58.982,113.304,62.186,111.873,65.424z"/>
	<path fill="#FFFFFF" d="M81.578,72.45c0,0.319,0,0.584,0,0.878c-2.789,0-5.563,0-8.365,0c0-0.279,0-0.554,0-0.853
		c0.554-0.047,1.117-0.061,1.667-0.148c0.699-0.113,0.801-0.255,0.658-0.957c-0.105-0.519-0.267-1.032-0.466-1.523
		c-0.389-0.959-0.827-1.898-1.232-2.851c-0.099-0.232-0.228-0.326-0.492-0.326c-3.018,0.011-6.035,0.003-9.053,0.018
		c-0.144,0.001-0.364,0.125-0.419,0.249c-0.564,1.261-1.105,2.53-1.644,3.801c-0.092,0.216-0.154,0.445-0.213,0.673
		c-0.147,0.566-0.028,0.781,0.554,0.904c0.334,0.072,0.683,0.085,1.026,0.112c0.168,0.014,0.338,0.002,0.542,0.002
		c0,0.324,0,0.598,0,0.899c-1.944,0-3.884,0-5.849,0c0-0.292,0-0.566,0-0.863c0.389-0.039,0.76-0.09,1.132-0.109
		c0.533-0.028,0.85-0.302,1.063-0.781c0.922-2.08,1.875-4.146,2.793-6.227c2.003-4.535,3.993-9.075,5.989-13.612
		c0.05-0.114,0.11-0.224,0.163-0.328c1.043-0.079,1.042-0.079,1.446,0.85c2.497,5.739,4.992,11.479,7.497,17.216
		c0.283,0.645,0.645,1.256,0.946,1.893c0.342,0.731,0.942,1.012,1.703,1.047C81.194,72.42,81.363,72.436,81.578,72.45z
		 M64.531,65.427c2.898,0,5.716,0,8.609,0c-1.43-3.255-2.839-6.46-4.292-9.765C67.382,58.979,65.97,62.171,64.531,65.427z"/>
	<path fill="#FFFFFF" d="M102.277,56.374c-0.661,0-1.253,0-1.895,0c-0.015-0.285-0.049-0.563-0.042-0.838
		c0.038-1.438-0.703-2.368-1.987-2.832c-3.575-1.294-7.495-0.606-9.52,3.683c-1.061,2.246-1.292,4.638-1.159,7.082
		c0.083,1.518,0.376,2.989,1.059,4.361c1.334,2.682,3.54,4.105,6.475,4.493c2.475,0.327,4.77-0.251,6.974-1.322
		c0.113-0.055,0.225-0.113,0.339-0.165c0.026-0.012,0.061-0.001,0.163-0.001c0,0.393,0.033,0.795-0.018,1.187
		c-0.018,0.135-0.224,0.278-0.376,0.356c-1.523,0.792-3.151,1.242-4.854,1.405c-2.241,0.214-4.466,0.15-6.596-0.671
		c-3.642-1.405-5.656-4.157-6.319-7.927c-0.433-2.457-0.357-4.92,0.44-7.309c1.286-3.86,4.045-5.966,8.004-6.589
		c2.855-0.449,5.63,0.072,8.395,0.706c0.918,0.212,0.917,0.219,0.917,1.176C102.277,54.222,102.277,55.274,102.277,56.374z"/>
	<path fill="#FFFFFF" d="M153.09,52.539c0-0.276,0-0.551,0-0.85c2.963,0,5.908,0,8.888,0c0.011,0.148,0.013,0.286,0.031,0.42
		c0.047,0.351-0.069,0.5-0.455,0.513c-0.483,0.015-0.966,0.106-1.444,0.188c-0.486,0.083-0.793,0.359-0.828,0.878
		c-0.047,0.689-0.129,1.378-0.129,2.065c-0.013,4.511-0.013,9.022,0,13.533c0.001,0.688,0.081,1.377,0.133,2.065
		c0.037,0.493,0.329,0.771,0.796,0.853c0.616,0.107,1.237,0.188,1.891,0.285c0,0.253,0,0.526,0,0.834c-2.945,0-5.893,0-8.873,0
		c0-0.275,0-0.561,0-0.84c0.619-0.09,1.223-0.17,1.824-0.266c0.531-0.084,0.836-0.396,0.877-0.944
		c0.038-0.484,0.104-0.969,0.104-1.455c0.007-4.871,0.007-9.744,0-14.616c0-0.484-0.063-0.97-0.102-1.454
		c-0.042-0.547-0.347-0.859-0.88-0.943C154.322,52.711,153.719,52.63,153.09,52.539z"/>
	<path fill="#FFFFFF" d="M80.444,83.908c-0.932-0.065-1.766-0.306-2.412-0.983c-1.222-1.282-0.863-3.417,0.728-4.198
		c1.118-0.549,2.287-0.547,3.408,0.007c1.019,0.504,1.479,1.393,1.424,2.508c-0.053,1.102-0.619,1.906-1.65,2.311
		C81.469,83.738,80.945,83.794,80.444,83.908z M80.434,83.275c1.615,0.006,2.659-1.007,2.5-2.428
		c-0.12-1.064-0.912-1.808-2.05-1.921c-1.395-0.14-2.458,0.412-2.804,1.459C77.571,81.921,78.669,83.269,80.434,83.275z"/>
	<path fill="#FFFFFF" d="M73.556,80.329c-0.562,1.117-1.123,2.235-1.721,3.428c-0.59-1.176-1.147-2.282-1.712-3.408
		c-0.2,0.549-0.123,3.031,0.115,3.366c-0.305,0-0.591,0-0.879,0c0.239-0.473,0.232-3.888-0.025-4.292c0.414,0,0.81,0,1.192,0
		c0,0.16-0.055,0.352,0.01,0.488c0.409,0.88,0.845,1.749,1.274,2.625c0.522-0.493,1.515-2.762,1.349-3.115c0.41,0,0.808,0,1.205,0
		c-0.217,0.568-0.201,3.867,0.042,4.289c-0.319,0-0.618,0-0.876,0c0.041-0.288,0.115-0.589,0.121-0.893
		c0.017-0.825,0.006-1.65,0.006-2.477C73.623,80.336,73.589,80.333,73.556,80.329z"/>
	<path fill="#FFFFFF" d="M123.901,89.034c0.609,0.441,0.8,0.881,0.645,1.453c-0.147,0.547-0.529,0.863-1.235,0.896
		c-0.94,0.042-1.883,0.024-2.825,0.03c-0.092,0.001-0.184-0.018-0.282-0.028c0.23-0.464,0.211-4.123-0.019-4.485
		c1.09,0,2.175-0.024,3.259,0.015c0.448,0.016,0.794,0.306,0.928,0.757C124.535,88.225,124.396,88.696,123.901,89.034z
		 M120.928,89.296c0,0.574,0,1.102,0,1.645c0.788,0,1.553,0.035,2.314-0.01c0.545-0.033,0.796-0.345,0.788-0.811
		c-0.009-0.471-0.317-0.798-0.854-0.817C122.441,89.274,121.705,89.296,120.928,89.296z M120.925,88.796
		c0.766,0,1.499,0.029,2.228-0.012c0.512-0.029,0.775-0.326,0.766-0.72c-0.01-0.381-0.312-0.704-0.781-0.725
		c-0.729-0.034-1.46-0.009-2.212-0.009C120.925,87.827,120.925,88.29,120.925,88.796z"/>
	<path fill="#FFFFFF" d="M60.357,80.347c-0.562,1.114-1.122,2.23-1.717,3.414c-0.6-1.187-1.157-2.29-1.723-3.41
		c-0.198,0.551-0.12,3.011,0.112,3.369c-0.302,0-0.588,0-0.883,0c0.293-0.505,0.293-3.829-0.01-4.298c0.426,0,0.834,0,1.246,0
		c-0.038,0.127-0.14,0.281-0.099,0.367c0.438,0.931,0.896,1.851,1.391,2.858c0.483-0.977,0.927-1.856,1.348-2.746
		c0.061-0.131,0.008-0.314,0.008-0.491c0.379,0,0.782,0,1.194,0c-0.295,0.508-0.295,3.854,0.014,4.303c-0.322,0-0.624,0-0.907,0
		C60.592,82.604,60.378,81.478,60.357,80.347z"/>
	<path fill="#FFFFFF" d="M120.317,78.957c-0.172,0.291-0.353,0.594-0.496,0.838c-0.222-0.203-0.386-0.427-0.608-0.541
		c-0.675-0.351-1.404-0.445-2.149-0.277c-1.126,0.253-1.773,1.08-1.737,2.192c0.032,1.013,0.814,1.897,1.863,2.069
		c0.826,0.134,1.601-0.018,2.256-0.566c0.147-0.123,0.235-0.316,0.391-0.532c0.187,0.226,0.403,0.49,0.603,0.729
		c-0.249,0.134-0.466,0.229-0.662,0.359c-1.063,0.702-2.21,0.792-3.379,0.383c-1.251-0.437-1.926-1.695-1.699-3.02
		c0.215-1.261,1.322-2.165,2.726-2.237c0.818-0.042,1.591,0.106,2.326,0.471C119.9,78.9,120.083,78.905,120.317,78.957z"/>
	<path fill="#FFFFFF" d="M41.662,81.373c0.113,0.813-0.155,1.58,0.2,2.34c-0.331,0-0.661,0-0.925,0
		c0.047-0.289,0.127-0.565,0.131-0.844c0.014-1.223,0.013-2.446,0-3.669c-0.003-0.229-0.089-0.46-0.149-0.75
		c0.498,0,1.05-0.001,1.603,0c0.518,0,1.035-0.014,1.553,0.004c0.962,0.031,1.553,0.532,1.587,1.323
		c0.042,0.932-0.448,1.481-1.482,1.564c-0.702,0.057-1.41,0.024-2.115,0.03C41.956,81.374,41.85,81.373,41.662,81.373z
		 M41.708,79.01c0,0.616,0,1.207,0,1.846c0.553,0,1.083,0.007,1.613-0.003c0.329-0.005,0.66-0.011,0.985-0.055
		c0.458-0.063,0.75-0.424,0.753-0.883c0.003-0.484-0.284-0.87-0.783-0.895C43.436,78.98,42.591,79.01,41.708,79.01z"/>
	<path fill="#FFFFFF" d="M140.609,83.839c-1.602-0.003-2.656-0.979-2.583-2.4c0.045-0.858,0.458-1.496,1.237-1.858
		c0.837-0.388,1.711-0.398,2.564-0.067c0.979,0.378,1.525,1.336,1.38,2.324c-0.165,1.118-0.963,1.862-2.127,1.979
		C140.924,83.832,140.766,83.832,140.609,83.839z M140.605,83.354c1.006,0,1.816-0.571,1.98-1.397
		c0.146-0.735-0.125-1.453-0.755-1.841c-0.768-0.471-1.577-0.494-2.362-0.043c-0.646,0.372-0.944,1.071-0.826,1.808
		C138.782,82.743,139.592,83.353,140.605,83.354z"/>
	<path fill="#FFFFFF" d="M129.199,83.839c-1.573,0.01-2.656-0.952-2.616-2.329c0.004-0.17,0.032-0.343,0.071-0.511
		c0.21-0.896,0.936-1.5,2-1.67c1.193-0.189,2.306,0.236,2.823,1.082c0.456,0.746,0.414,1.77-0.12,2.486
		C130.821,83.618,130.052,83.83,129.199,83.839z M129.172,83.354c1.102,0,1.949-0.688,2.009-1.633
		c0.069-1.08-0.734-1.909-1.89-1.951c-1.197-0.044-2.105,0.724-2.112,1.784C127.173,82.591,128.015,83.353,129.172,83.354z"/>
	<path fill="#FFFFFF" d="M49.386,81.779c0.431,0.673,0.838,1.311,1.241,1.939c-0.243,0-0.548,0-0.757,0
		c-0.179-0.33-0.327-0.633-0.501-0.919c-0.645-1.047-0.647-1.045-1.872-1.003c-0.076,0.003-0.152,0.018-0.199,0.022
		c0,0.636,0,1.25,0,1.896c-0.22,0-0.537,0-0.855,0c0.236-0.453,0.232-3.884-0.02-4.297c1.043,0,2.072-0.04,3.096,0.014
		c0.638,0.034,1.011,0.468,1.046,1.018c0.046,0.723-0.184,1.031-0.928,1.249C49.578,81.716,49.519,81.735,49.386,81.779z
		 M47.245,79.861c0,0.525,0,0.997,0,1.46c0.7,0,1.357,0.019,2.012-0.006c0.533-0.021,0.773-0.262,0.773-0.691
		c0-0.44-0.272-0.735-0.783-0.757C48.591,79.84,47.934,79.861,47.245,79.861z"/>
	<path fill="#FFFFFF" d="M99.899,79.406c0.297,0,0.72,0,1.016,0c0.109,0.272,0.149,0.531,0.293,0.702
		c0.738,0.867,1.504,1.712,2.281,2.588c0.172-0.778,0.102-2.938-0.104-3.283c0.299,0,0.586,0,0.887,0
		c-0.292,0.456-0.29,3.869,0.015,4.298c-0.368,0-0.713,0-0.969,0c-0.047-0.186-0.04-0.386-0.135-0.495
		c-0.874-1.006-1.766-1.994-2.748-3.096c0.02,1.276-0.031,2.426,0.035,3.598c-0.142,0-0.415,0-0.582,0
		C99.995,82.283,99.979,80.851,99.899,79.406z"/>
	<path fill="#FFFFFF" d="M94.038,79.881c-0.137,0.225-0.297,0.485-0.474,0.774c-0.262-0.595-1.186-0.972-1.992-0.857
		c-1.057,0.149-1.69,0.938-1.612,2.009c0.062,0.871,0.839,1.538,1.831,1.542c0.31,0.001,0.632-0.029,0.928-0.113
		c0.702-0.2,0.77-0.341,0.635-1.176c-0.423,0.034-0.853,0.068-1.299,0.104c0-0.149,0-0.408,0-0.589
		c0.672,0.04,1.351,0.079,1.975,0.115c0,0.412,0,0.827,0,1.401c-0.78,0.658-1.816,0.917-2.969,0.646
		c-0.951-0.224-1.508-0.856-1.69-1.813c-0.254-1.334,0.813-2.584,2.301-2.591c0.576-0.002,1.152,0.226,1.728,0.357
		C93.606,79.739,93.808,79.813,94.038,79.881z"/>
	<path fill="#FFFFFF" d="M84.631,79.403c0.902,0,1.888-0.029,2.871,0.01c0.714,0.026,1.123,0.433,1.185,1.046
		c0.066,0.654-0.216,1.024-0.944,1.245c-0.06,0.018-0.118,0.037-0.239,0.076c0.42,0.665,0.828,1.309,1.228,1.943
		c-0.249,0-0.556,0-0.849,0c-0.036-0.153-0.049-0.316-0.113-0.454c-0.086-0.184-0.25-0.334-0.316-0.521
		c-0.374-1.055-1.187-1.069-2.054-0.913c0,0.624,0,1.238,0,1.88c-0.22,0-0.536,0-0.768,0C84.803,82.284,84.803,80.854,84.631,79.403
		z M85.335,81.315c0.72,0,1.405,0.022,2.088-0.008c0.484-0.022,0.73-0.289,0.729-0.69c-0.001-0.396-0.254-0.712-0.701-0.735
		c-0.697-0.039-1.398-0.01-2.117-0.01C85.335,80.371,85.335,80.847,85.335,81.315z"/>
	<path fill="#FFFFFF" d="M125.729,83.724c-0.314,0-0.622,0-0.85,0c0-0.658,0-1.295,0-1.962c-0.864,0-1.767,0-2.729,0
		c0.068,0.658-0.193,1.327,0.222,1.962c-0.326,0-0.645,0-0.977,0c0.263-0.469,0.262-3.868-0.003-4.309c0.332,0,0.65,0,0.977,0
		c-0.421,0.573-0.141,1.203-0.229,1.832c0.948,0,1.851,0,2.74,0c0-0.599,0-1.201,0-1.828c0.224,0,0.528,0,0.833-0.001
		C125.46,79.925,125.468,83.238,125.729,83.724z"/>
	<path fill="#FFFFFF" d="M84.725,87.688c0.217,0,0.529,0,0.8,0c0,1.236,0,2.461,0,3.706c-0.187,0-0.418,0-0.62,0
		c0-0.971,0-1.935,0-2.945c-0.496,0.984-0.978,1.942-1.506,2.994c-0.507-1.008-0.98-1.948-1.484-2.949c0,1.004,0,1.938,0,2.897
		c-0.176,0-0.402,0-0.583,0c0-1.245,0-2.465,0-3.699c0.255,0,0.583,0,0.858,0c0.227,0.989,0.831,1.789,1.233,2.809
		C83.874,89.521,84.385,88.688,84.725,87.688z"/>
	<path fill="#FFFFFF" d="M161.572,79.255c0,0.21,0,0.47,0,0.679c-1.006,0-1.999,0-3.016,0c0,0.4,0,0.836,0,1.343
		c0.675-0.063,1.368,0.165,2.048-0.179c0,0.249,0,0.513,0,0.778c-0.353-0.162-1.061-0.2-2.07-0.107c0,0.238,0,0.482,0,0.729
		c0,0.249,0,0.5,0,0.744c0.851,0.179,2.693,0.087,3.053-0.174c0,0.307,0,0.584,0,0.825c-0.227-0.049-0.453-0.136-0.681-0.14
		c-1.006-0.016-2.011-0.008-3.017-0.01c-0.03,0-0.062-0.014-0.111-0.024c0.338-0.69,0.14-1.422,0.164-2.134
		c0.026-0.717-0.022-1.437-0.04-2.192c0.885,0,1.902,0.009,2.918-0.006C161.065,79.383,161.307,79.304,161.572,79.255z"/>
	<path fill="#FFFFFF" d="M51.409,83.747c0.36-0.489,0.356-3.887-0.025-4.354c0.419,0,0.782,0,1.146,0
		c0.676,0,1.352,0.012,2.027-0.007c0.232-0.006,0.463-0.082,0.706-0.129c0,0.206,0,0.47,0,0.646
		c-0.488-0.019-0.969-0.043-1.45-0.053c-0.501-0.009-1.002-0.002-1.542-0.002c0,0.472,0,0.917,0,1.427
		c0.668-0.065,1.364,0.179,2.044-0.192c0,0.271,0,0.546,0,0.737c-0.685,0-1.353,0-2.053,0c0,0.45,0,0.943,0,1.487
		c1.017-0.049,2.021,0.111,3.027-0.104c0,0.178,0,0.438,0,0.662c-0.264-0.042-0.51-0.111-0.757-0.112
		C53.512,83.74,52.491,83.747,51.409,83.747z"/>
	<path fill="#FFFFFF" d="M111.764,79.779c-0.133,0.229-0.28,0.48-0.434,0.742c-0.441-0.675-1.6-0.953-2.499-0.619
		c-0.816,0.304-1.257,1.061-1.133,1.947c0.111,0.789,0.862,1.452,1.704,1.503c0.96,0.06,1.753-0.334,1.942-1.009
		c0.209,0.269,0.399,0.511,0.564,0.721c-0.218,0.096-0.428,0.161-0.607,0.275c-0.836,0.527-1.734,0.634-2.668,0.363
		c-0.992-0.285-1.673-1.318-1.565-2.311c0.126-1.179,0.991-2.037,2.237-2.065c0.624-0.013,1.253,0.199,1.879,0.314
		C111.367,79.676,111.546,79.727,111.764,79.779z"/>
	<path fill="#FFFFFF" d="M136.73,82.309c0.234,0.302,0.413,0.536,0.586,0.758c-0.21,0.091-0.42,0.148-0.593,0.262
		c-0.72,0.479-1.513,0.604-2.342,0.461c-1.237-0.214-1.973-1.198-1.888-2.468c0.072-1.084,1.009-1.98,2.239-1.998
		c0.623-0.007,1.251,0.207,1.874,0.323c0.168,0.032,0.333,0.079,0.548,0.131c-0.124,0.225-0.269,0.486-0.426,0.774
		c-0.344-0.667-1.508-0.974-2.409-0.677c-0.833,0.275-1.344,1.053-1.235,1.883c0.118,0.904,0.876,1.57,1.813,1.597
		C135.852,83.379,136.592,82.99,136.73,82.309z"/>
	<path fill="#FFFFFF" d="M149.931,79.405c0.263,0,0.636,0,1.011,0c-0.096,0.451,1.263,3.593,1.871,4.313c-0.357,0-0.689,0-1.026,0
		c0.187-0.626-0.238-1.198-0.876-1.198c-0.377,0-0.754,0-1.13,0c-0.643,0-1.028,0.568-0.788,1.199c-0.328,0-0.649,0-0.892,0
		c0.333-0.694,0.703-1.403,1.015-2.138C149.413,80.884,149.904,80.243,149.931,79.405z M151.277,82.068
		c-0.313-0.706-0.596-1.343-0.915-2.061c-0.321,0.732-0.604,1.376-0.905,2.061C150.09,82.068,150.636,82.068,151.277,82.068z"/>
	<path fill="#FFFFFF" d="M99.219,83.724c-0.324,0-0.647,0-0.881,0c-0.137-0.379-0.25-0.739-0.405-1.082
		c-0.032-0.073-0.208-0.113-0.32-0.116c-0.471-0.012-0.941-0.005-1.412-0.005c-0.637,0-1.027,0.581-0.78,1.2
		c-0.327,0-0.646,0-0.882,0c0.328-0.688,0.672-1.392,0.999-2.104c0.864-1.887,0.861-1.887,0.688-2.194c0.396,0,0.776,0,1.092,0
		c0.044,0.236,0.045,0.48,0.135,0.686c0.436,0.989,0.889,1.97,1.349,2.947C98.904,83.275,99.06,83.473,99.219,83.724z
		 M96.793,80.008c-0.321,0.724-0.603,1.359-0.902,2.035c0.624,0,1.188,0,1.799,0C97.392,81.364,97.115,80.737,96.793,80.008z"/>
	<path fill="#FFFFFF" d="M67.605,79.407c0.238,0,0.519,0,0.75,0c-0.041,0.254-0.11,0.512-0.118,0.77
		c-0.025,0.8-0.015,1.601-0.041,2.399c-0.02,0.604-0.306,1.044-0.88,1.117c-0.688,0.086-1.403,0.09-2.09,0.002
		c-0.596-0.077-0.895-0.529-0.91-1.145c-0.02-0.815-0.001-1.633-0.019-2.448c-0.004-0.218-0.078-0.434-0.125-0.675
		c0.25,0,0.562,0,0.826,0c-0.042,0.233-0.119,0.467-0.122,0.701c-0.011,0.785,0.005,1.569,0.008,2.354
		c0.002,0.422,0.212,0.709,0.616,0.77c0.444,0.067,0.907,0.111,1.351,0.067c0.669-0.068,0.874-0.351,0.878-1.037
		c0.004-0.722,0.01-1.445-0.004-2.167C67.719,79.884,67.648,79.652,67.605,79.407z"/>
	<path fill="#FFFFFF" d="M77.946,87.586c1.636-0.01,2.665,1.289,2.102,2.684c-0.365,0.903-1.127,1.205-2.035,1.235
		c-1.651,0.059-2.725-1.251-2.188-2.663C76.127,88.05,76.899,87.593,77.946,87.586z M77.932,91.087
		c0.985,0.003,1.745-0.662,1.742-1.528c-0.002-0.884-0.734-1.553-1.717-1.568c-0.964-0.015-1.732,0.665-1.739,1.541
		C76.211,90.415,76.948,91.083,77.932,91.087z"/>
	<path fill="#FFFFFF" d="M114.712,87.479c0.854,0.109,1.575,0.344,2.013,1.073c0.38,0.634,0.382,1.317,0.01,1.969
		c-0.569,0.994-2.226,1.314-3.309,0.655c-1.147-0.697-1.262-2.373-0.165-3.129C113.677,87.761,114.224,87.662,114.712,87.479z
		 M114.748,91.087c1.006,0.002,1.723-0.638,1.725-1.532c0-0.888-0.729-1.554-1.71-1.564c-0.974-0.01-1.727,0.664-1.73,1.546
		C113.028,90.428,113.756,91.086,114.748,91.087z"/>
	<path fill="#FFFFFF" d="M67.314,89.371c0,0.659,0,1.33,0,2.02c-0.219,0-0.495,0-0.783,0c0.238-0.469,0.225-4.104-0.042-4.548
		c0.7,0,1.364,0.001,2.029-0.001c0.662-0.002,1.324-0.006,2.009-0.011c0,0.114,0,0.368,0,0.505
		c-1.077-0.047-2.155-0.007-3.259-0.025c0,0.522,0,0.999,0,1.443c0.767,0,1.512,0,2.286,0c0,0.176,0,0.432,0,0.617
		C68.803,89.371,68.055,89.371,67.314,89.371z"/>
	<path fill="#FFFFFF" d="M74.829,91.39c-0.218,0-0.464,0-0.595,0c-0.347-0.558-0.634-1.081-0.993-1.552
		c-0.089-0.118-0.406-0.073-0.62-0.085c-0.229-0.012-0.46-0.002-0.678-0.002c0,0.575,0,1.094,0,1.637c-0.182,0-0.425,0-0.62,0
		c0-1.232,0-2.443,0-3.681c0.831,0,1.733-0.035,2.631,0.014c0.52,0.027,0.822,0.423,0.847,0.914
		c0.031,0.587-0.202,0.852-1.011,1.098C74.14,90.291,74.482,90.838,74.829,91.39z M71.902,89.325c0.637,0,1.229,0.015,1.819-0.006
		c0.348-0.012,0.6-0.18,0.606-0.573c0.006-0.402-0.232-0.632-0.594-0.656c-0.601-0.037-1.207-0.011-1.832-0.011
		C71.902,88.502,71.902,88.887,71.902,89.325z"/>
	<path fill="#FFFFFF" d="M130.969,89.751c0,0.592,0,1.107,0,1.643c-0.186,0-0.416,0-0.622,0c0-1.223,0-2.435,0-3.678
		c0.845,0,1.76-0.038,2.668,0.018c0.502,0.029,0.798,0.462,0.808,0.952c0.009,0.541-0.266,0.832-1.03,1.038
		c0.35,0.563,0.689,1.107,1.038,1.665c-0.212,0-0.442,0-0.61,0c-0.322-0.529-0.617-1.046-0.951-1.536
		c-0.062-0.091-0.281-0.091-0.431-0.098C131.545,89.741,131.25,89.751,130.969,89.751z M130.917,89.317
		c0.624,0,1.233,0.01,1.841-0.005c0.345-0.007,0.563-0.197,0.578-0.556c0.015-0.371-0.191-0.63-0.544-0.652
		c-0.617-0.04-1.239-0.011-1.875-0.011C130.917,88.509,130.917,88.897,130.917,89.317z"/>
	<path fill="#FFFFFF" d="M96.66,91.398c-0.237,0-0.47,0-0.584,0c-0.354-0.56-0.651-1.082-1.01-1.558
		c-0.083-0.111-0.375-0.076-0.573-0.087c-0.232-0.013-0.465-0.003-0.699-0.003c0,0.561,0,1.084,0,1.636c-0.182,0-0.426,0-0.638,0
		c0-1.229,0-2.455,0-3.71c0.708,0,1.476-0.009,2.243,0.003c0.744,0.011,1.134,0.296,1.212,0.855c0.088,0.637-0.155,0.942-1,1.192
		C95.96,90.286,96.3,90.827,96.66,91.398z M93.751,88.074c0,0.444,0,0.831,0,1.257c0.599,0,1.175,0.014,1.75-0.004
		c0.36-0.013,0.643-0.155,0.646-0.583c0.003-0.431-0.256-0.641-0.64-0.662C94.934,88.053,94.358,88.074,93.751,88.074z"/>
	<path fill="#FFFFFF" d="M105.407,87.582c0,0.179,0,0.396,0,0.556c-0.877,0-1.742,0-2.629,0c0,0.354,0,0.739,0,1.078
		c0.609,0,1.186,0,1.787,0c0,0.148,0,0.375,0,0.535c-0.579,0-1.155,0-1.774,0c0,0.369,0,0.795,0,1.216c0.865,0,1.724,0,2.606,0
		c0,0.142,0,0.354,0,0.503c-1.073,0-2.15,0-3.209,0c0-1.31,0-2.525,0-3.771C103.197,87.594,104.289,87.791,105.407,87.582z"/>
	<path fill="#FFFFFF" d="M110.668,91.388c-0.239,0-0.5,0-0.693,0c0-1.356,0-2.69,0-4c-0.59,0-1.194,0-1.823,0
		c0-0.181,0-0.425,0-0.556c1.453,0.013,2.891,0.028,4.341-0.011c0,0.127,0,0.389,0,0.572c-0.622,0-1.226,0-1.824,0
		C110.668,88.692,110.668,90.025,110.668,91.388z"/>
	<path fill="#FFFFFF" d="M129.462,91.396c-0.329,0-0.592,0-0.856,0c0.047-0.681-0.254-1.019-0.895-1.019
		c-0.251-0.001-0.501,0-0.752,0c-0.659,0-0.957,0.351-0.846,1.019c-0.248,0-0.495,0-0.716,0c0.291-0.613,0.602-1.212,0.864-1.831
		c0.251-0.595,0.642-1.147,0.73-1.862c0.199,0,0.507,0,0.812,0C127.771,88.086,129.012,90.904,129.462,91.396z M126.573,89.938
		c0.53,0,1.002,0,1.532,0c-0.256-0.579-0.49-1.107-0.763-1.721C127.064,88.84,126.825,89.375,126.573,89.938z"/>
	<path fill="#FFFFFF" d="M101.008,87.633c0,0.146,0,0.348,0,0.543c-0.857-0.253-1.716-0.062-2.598-0.129c0,0.435,0,0.816,0,1.177
		c0.598,0,1.172,0,1.766,0c0,0.158,0,0.37,0,0.519c-0.589,0-1.152,0-1.756,0c0,0.379,0,0.806,0,1.229c0.864,0,1.723,0,2.606,0
		c0,0.145,0,0.357,0,0.494c-1.093,0-2.172,0-3.203,0c0-1.31,0-2.521,0-3.832C98.828,87.633,99.906,87.633,101.008,87.633z"/>
	<path fill="#FFFFFF" d="M92.821,87.383c-0.63,0-1.236,0-1.822,0c0,1.319,0,2.651,0,4.006c-0.196,0-0.456,0-0.622,0
		c0.043-1.35,0.01-2.694,0.02-3.996c-0.663,0-1.27,0-1.895,0c0-0.186,0-0.442,0-0.713c0.398,0.215,3.874,0.233,4.319,0.023
		C92.821,86.958,92.821,87.202,92.821,87.383z"/>
	<path fill="#FFFFFF" d="M152.894,79.198c0.448,0.289,3.762,0.292,4.195,0.014c0,0.273,0,0.527,0,0.731c-0.579,0-1.165,0-1.812,0
		c0.038,1.219-0.075,2.486,0.069,3.771c-0.188,0-0.505,0-0.763,0c0.043-0.259,0.121-0.521,0.125-0.784
		c0.016-1.003,0.006-2.006,0.006-3.088c-0.635,0.029-1.22,0.057-1.821,0.086C152.894,79.768,152.894,79.504,152.894,79.198z"/>
	<path fill="#FFFFFF" d="M144.01,79.405c0.363,0,0.675,0,0.99,0c-0.178,0.396-0.25,2.852-0.111,3.896
		c0.975-0.029,1.961,0.092,2.966-0.08c0,0.152,0,0.419,0,0.64c-0.247-0.038-0.506-0.107-0.765-0.108
		c-1.004-0.014-2.009-0.006-3.022-0.006C144.381,83.134,144.363,79.862,144.01,79.405z"/>
	<path fill="#FFFFFF" d="M63.155,83.727c-0.305,0-0.613,0-0.932,0c0.278-0.498,0.275-3.874-0.016-4.299c0.32,0,0.62,0,0.813,0
		c-0.007,0.696-0.043,1.408-0.015,2.119C63.036,82.267,62.851,83.006,63.155,83.727z"/>
	<path fill="#FFFFFF" d="M106.22,83.721c-0.319,0-0.626,0-0.937,0c0.25-0.499,0.241-3.884-0.025-4.297c0.33,0,0.64,0,0.962,0
		C105.936,79.881,105.934,83.228,106.22,83.721z"/>
	<path display="none" fill="#FFFFFF" d="M38.762,63.943c-1.596-0.314-3.113-0.626-4.636-0.909c-1.331-0.248-2.376-0.934-3.207-1.981
		c-0.428-0.54-0.872-1.067-1.325-1.62c1.63-0.629,3.292-1.222,5.113-1.033c1.894,0.197,3.31,1.502,3.755,3.501
		C38.612,62.567,38.665,63.259,38.762,63.943z M32.316,60.174c0.243,0.31,0.45,0.566,0.648,0.828c0.46,0.609,1.03,1.034,1.803,1.175
		c0.827,0.151,1.648,0.339,2.542,0.524c-0.055-0.435-0.071-0.855-0.165-1.261c-0.261-1.131-1.092-1.792-2.252-1.836
		C33.996,59.569,33.169,59.84,32.316,60.174z"/>
	<path display="none" fill="#FFFFFF" d="M57.526,58.671c0.325,0.769,0.654,1.462,0.916,2.181c0.412,1.133,0.263,2.228-0.526,3.137
		c-0.591,0.681-1.299,1.264-1.98,1.861c-0.374,0.329-0.799,0.597-1.246,0.926c-0.38-1.375-0.878-2.68-0.855-4.101
		c0.017-1.1,0.464-1.984,1.369-2.595C55.94,59.582,56.724,59.155,57.526,58.671z M56.916,60.647c-2.171,0.991-2.6,2.212-1.527,4.342
		C57.58,63.793,57.928,62.801,56.916,60.647z"/>
	<path display="none" fill="#FFFFFF" d="M47.066,74.981c-0.169,0.496-0.268,1.031-0.522,1.48c-0.5,0.884-1.633,1.045-2.319,0.301
		c-0.811-0.877-1.476-1.875-1.743-3.071c-0.202-0.902,0.248-1.903,1.013-2.351c0.417-0.244,0.849-0.281,1.237,0.013
		c0.941,0.715,1.664,1.614,2.11,2.713c0.108,0.269,0.105,0.582,0.154,0.875C47.02,74.954,47.043,74.967,47.066,74.981z
		 M45.75,74.734c0.014-0.714-0.522-1.379-1.007-1.354c-0.488,0.026-0.488,0.416-0.5,0.759c-0.018,0.501,0.528,1.133,0.964,1.106
		C45.587,75.224,45.738,74.963,45.75,74.734z"/>
	<path display="none" fill="#FFFFFF" d="M161.292,64.906c0-3.485,0-6.821,0-10.29c1.383,0.092,2.747,0.103,4.086,0.294
		c1.521,0.217,2.38,1.22,2.686,2.71c0.243,1.184,0.257,2.37-0.017,3.549c-0.44,1.896-1.676,3.03-3.541,3.411
		C163.472,64.791,162.397,64.802,161.292,64.906z"/>
	<path display="none" fill="#FFFFFF" d="M70.395,65.311c0-3.556,0-7.056,0-10.614c1.539,0.055,3.063-0.163,4.55,0.31
		c1.237,0.394,1.969,1.25,2.253,2.491c0.347,1.517,0.298,3.031-0.183,4.512c-0.472,1.45-1.453,2.427-2.908,2.923
		C72.909,65.341,71.678,65.35,70.395,65.311z"/>
	<path display="none" fill="#FFFFFF" d="M136.297,67.436c1.431-3.237,2.846-6.44,4.313-9.762c1.453,3.31,2.859,6.512,4.288,9.762
		C142.01,67.436,139.19,67.436,136.297,67.436z"/>
	<path display="none" fill="#FFFFFF" d="M88.956,67.438c1.439-3.256,2.851-6.447,4.317-9.765c1.453,3.305,2.862,6.511,4.292,9.765
		C94.672,67.438,91.854,67.438,88.956,67.438z"/>
	<path display="none" fill="#FFFFFF" d="M104.858,85.286c-1.765-0.006-2.863-1.354-2.354-2.889c0.347-1.046,1.41-1.599,2.805-1.459
		c1.139,0.114,1.93,0.856,2.049,1.923C107.518,84.28,106.474,85.293,104.858,85.286z"/>
	<path display="none" fill="#FFFFFF" d="M145.353,91.307c0.776,0,1.513-0.02,2.247,0.009c0.538,0.019,0.847,0.348,0.854,0.816
		c0.01,0.465-0.242,0.778-0.787,0.812c-0.761,0.044-1.526,0.012-2.313,0.012C145.353,92.409,145.353,91.884,145.353,91.307z"/>
	<path display="none" fill="#FFFFFF" d="M145.35,90.808c0-0.506,0-0.969,0-1.465c0.751,0,1.481-0.025,2.211,0.009
		c0.471,0.021,0.772,0.344,0.781,0.725c0.01,0.394-0.254,0.691-0.765,0.721C146.849,90.838,146.116,90.808,145.35,90.808z"/>
	<path display="none" fill="#FFFFFF" d="M66.133,81.021c0.882,0,1.727-0.03,2.568,0.012c0.499,0.025,0.785,0.41,0.782,0.895
		c-0.002,0.458-0.294,0.82-0.753,0.883c-0.325,0.044-0.656,0.049-0.985,0.054c-0.529,0.01-1.059,0.003-1.612,0.003
		C66.133,82.229,66.133,81.638,66.133,81.021z"/>
	<path display="none" fill="#FFFFFF" d="M165.03,85.366c-1.014-0.001-1.823-0.609-1.963-1.473c-0.118-0.736,0.18-1.437,0.826-1.809
		c0.785-0.451,1.596-0.428,2.363,0.044c0.629,0.388,0.9,1.104,0.754,1.84C166.846,84.795,166.035,85.367,165.03,85.366z"/>
	<path display="none" fill="#FFFFFF" d="M153.597,85.366c-1.158-0.001-2-0.763-1.993-1.8c0.007-1.061,0.915-1.828,2.112-1.783
		c1.155,0.042,1.959,0.87,1.89,1.949C155.546,84.679,154.699,85.367,153.597,85.366z"/>
	<path display="none" fill="#FFFFFF" d="M71.668,81.873c0.69,0,1.347-0.021,2.002,0.007c0.512,0.022,0.783,0.316,0.784,0.757
		c0.001,0.429-0.239,0.67-0.772,0.691c-0.656,0.026-1.313,0.006-2.013,0.006C71.668,82.871,71.668,82.397,71.668,81.873z"/>
	<path display="none" fill="#FFFFFF" d="M109.76,83.327c0-0.468,0-0.943,0-1.443c0.719,0,1.419-0.028,2.115,0.01
		c0.447,0.023,0.701,0.34,0.702,0.736c0.001,0.4-0.245,0.669-0.729,0.689C111.165,83.35,110.479,83.327,109.76,83.327z"/>
	<path display="none" fill="#FFFFFF" d="M121.218,82.02c0.321,0.729,0.597,1.357,0.896,2.035c-0.61,0-1.175,0-1.798,0
		C120.615,83.38,120.896,82.744,121.218,82.02z"/>
	<path display="none" fill="#FFFFFF" d="M102.357,93.099c-0.984-0.003-1.721-0.672-1.714-1.556c0.007-0.876,0.774-1.555,1.739-1.54
		c0.983,0.015,1.716,0.684,1.718,1.568C104.101,92.438,103.342,93.103,102.357,93.099z"/>
	<path display="none" fill="#FFFFFF" d="M114.748,91.087c-0.991-0.001-1.72-0.659-1.716-1.551c0.004-0.882,0.757-1.556,1.73-1.546
		c0.98,0.011,1.71,0.678,1.71,1.564C116.47,90.449,115.753,91.089,114.748,91.087z"/>
	<path display="none" fill="#FFFFFF" d="M71.902,89.325c0-0.438,0-0.824,0-1.246c0.625,0,1.23-0.026,1.832,0.011
		c0.362,0.024,0.6,0.254,0.594,0.656c-0.006,0.394-0.259,0.562-0.606,0.573C73.132,89.34,72.54,89.325,71.902,89.325z"/>
	<path display="none" fill="#FFFFFF" d="M155.341,91.328c0-0.419,0-0.807,0-1.223c0.635,0,1.258-0.029,1.876,0.011
		c0.353,0.023,0.558,0.282,0.544,0.651c-0.015,0.36-0.233,0.55-0.578,0.557C156.575,91.339,155.966,91.328,155.341,91.328z"/>
	<path display="none" fill="#FFFFFF" d="M118.176,90.088c0.606,0,1.182-0.023,1.755,0.007c0.384,0.021,0.644,0.23,0.64,0.661
		c-0.003,0.429-0.286,0.572-0.646,0.583c-0.575,0.019-1.15,0.005-1.749,0.005C118.176,90.917,118.176,90.53,118.176,90.088z"/>
	<path display="none" fill="#FFFFFF" d="M150.997,91.949c0.253-0.562,0.491-1.097,0.769-1.72c0.273,0.612,0.507,1.142,0.764,1.72
		C152,91.949,151.528,91.949,150.997,91.949z"/>
	<path fill="#FFFFFF" d="M168.578,51.562c0.24,0.604,0.463,1.168,0.69,1.743c-0.837,0.182-0.899,0.146-1.077-0.553
		c-0.174-0.691-0.335-0.797-1.165-0.722c0,0.42,0,0.849,0,1.312c-0.28,0-0.505,0-0.768,0c0-1.132,0-2.267,0-3.497
		c0.563-0.017,1.136-0.069,1.705-0.042c0.614,0.029,1.026,0.341,1.121,0.767C169.204,51.107,168.901,51.416,168.578,51.562z
		 M167.053,51.521c0.432-0.155,0.786-0.259,1.11-0.423c0.056-0.026,0.051-0.353-0.03-0.449c-0.295-0.339-0.686-0.267-1.08-0.175
		C167.053,50.77,167.053,51.045,167.053,51.521z"/>
	<path fill="#FFFFFF" d="M92.042,13.68c0.853-0.335,1.68-0.603,2.576-0.568c1.161,0.044,1.991,0.706,2.252,1.836
		c0.093,0.405,0.11,0.827,0.165,1.26c-0.894-0.186-1.715-0.373-2.542-0.524c-0.773-0.141-1.343-0.567-1.803-1.175
		C92.493,14.246,92.286,13.991,92.042,13.68z"/>
	<path fill="#FFFFFF" d="M116.642,14.155c1.012,2.153,0.662,3.145-1.527,4.341C114.042,16.366,114.471,15.145,116.642,14.155z"/>
	<path fill="#FFFFFF" d="M105.477,28.242c-0.013,0.228-0.164,0.489-0.542,0.511c-0.437,0.025-0.982-0.605-0.965-1.106
		c0.012-0.343,0.012-0.733,0.5-0.759C104.955,26.862,105.491,27.528,105.477,28.242z"/>
</g>
</svg>
