<?xml version="1.0" encoding="utf-8"?>
<!-- Generator: Adobe Illustrator 16.0.2, SVG Export Plug-In . SVG Version: 6.00 Build 0)  -->
<!DOCTYPE svg PUBLIC "-//W3C//DTD SVG 1.1//EN" "http://www.w3.org/Graphics/SVG/1.1/DTD/svg11.dtd">
<svg version="1.1" id="Layer_1" xmlns="http://www.w3.org/2000/svg" xmlns:xlink="http://www.w3.org/1999/xlink" x="0px" y="0px"
	 width="208.833px" height="100px" viewBox="0 0 208.833 100" enable-background="new 0 0 208.833 100" xml:space="preserve">
<rect x="2.414" y="2.383" fill="#FFFFFF" stroke="#B3B3B3" stroke-miterlimit="10" width="203.833" height="95.617"/>
<path display="none" fill="#EC262F" d="M49.796,42.539c1.172,0.127,3.026-0.62,3.937,0.272c0.915,0.896,0.233,2.754,0.289,4.19
	c0.049,1.282-0.03,2.57,0.025,3.853c0.036,0.853-0.217,1.19-1.125,1.172c-2.343-0.056-4.689-0.056-7.033-0.004
	c-0.918,0.021-1.299-0.223-1.273-1.211c0.06-2.399,0.042-4.803,0.008-7.205c-0.012-0.784,0.246-1.106,1.057-1.076
	C46.964,42.576,48.249,42.539,49.796,42.539z"/>
<path display="none" fill="#A42588" d="M54.102,59.986c-0.19,1.264,0.698,3.242-0.362,4.231c-0.956,0.894-2.882,0.255-4.376,0.251
	c-1.494,0-3.424,0.646-4.372-0.257c-1.042-0.998-0.26-2.967-0.346-4.509c-0.067-1.227,0.01-2.457-0.021-3.686
	c-0.019-0.711,0.257-0.998,0.978-0.994c2.513,0.024,5.026,0.024,7.539,0c0.728-0.004,0.985,0.301,0.968,1.006
	C54.08,57.258,54.102,58.484,54.102,59.986z"/>
<path display="none" fill="#1DA4C9" d="M36.559,64.495c-1.231-0.118-3.17,0.637-4.107-0.276c-1.018-0.992-0.291-2.962-0.319-4.503
	c-0.027-1.491-0.643-3.425,0.25-4.364c0.912-0.963,2.863-0.24,4.356-0.309c1.171-0.05,2.35,0.059,3.516-0.029
	c1.075-0.08,1.323,0.348,1.293,1.35c-0.067,2.229-0.091,4.468,0.005,6.695c0.052,1.241-0.438,1.537-1.554,1.452
	C38.947,64.432,37.88,64.495,36.559,64.495z"/>
<path display="none" fill="#A8A9AC" d="M62.164,55.119c1.209,0.129,3.11-0.637,4.094,0.297c1.002,0.945,0.313,2.864,0.327,4.354
	c0.048,4.758,0.018,4.758-4.823,4.758c-0.391,0-0.782,0-1.174,0c-3.684,0-3.796-0.069-3.565-3.784
	c0.094-1.507,0.297-2.988,0.001-4.494c-0.146-0.735,0.16-1.162,0.999-1.138C59.309,55.146,60.595,55.119,62.164,55.119z"/>
<path display="none" fill="#F18423" d="M29.063,59.867c0,1.172-0.046,2.346,0.016,3.516c0.047,0.906-0.333,1.143-1.178,1.124
	c-2.342-0.039-4.688-0.032-7.031-0.004c-0.809,0.015-1.231-0.16-1.209-1.099c0.052-2.4,0.036-4.803,0.004-7.2
	c-0.009-0.759,0.195-1.114,1.027-1.101c2.455,0.035,4.909,0.039,7.361-0.004c0.832-0.015,1.05,0.317,1.023,1.084
	C29.031,57.411,29.063,58.641,29.063,59.867z"/>
<path display="none" fill="#129048" d="M41.385,47.2c0,1.495,0.584,3.481-0.153,4.36c-0.866,1.035-2.918,0.297-4.453,0.322
	c-1.49,0.022-3.422,0.646-4.358-0.26c-0.941-0.916-0.259-2.857-0.29-4.345c-0.032-1.5-0.509-3.485,0.248-4.369
	c0.891-1.043,2.941-0.264,4.484-0.34c1.224-0.064,2.454,0.013,3.68-0.024c0.72-0.021,0.991,0.245,0.965,0.97
	c-0.043,1.228-0.012,2.457-0.012,3.685C41.458,47.2,41.422,47.2,41.385,47.2z"/>
<path display="none" fill="#A8A9AC" d="M24.414,42.664c1.005,0,2.017,0.066,3.015-0.017c1.195-0.104,1.721,0.218,1.654,1.545
	c-0.108,2.117-0.073,4.248-0.01,6.369c0.03,1.029-0.335,1.365-1.351,1.34c-2.232-0.06-4.469-0.053-6.703-0.006
	c-0.963,0.023-1.428-0.211-1.396-1.293c0.065-2.231,0.054-4.471,0.003-6.705c-0.021-0.953,0.329-1.292,1.268-1.249
	C22.065,42.707,23.239,42.664,24.414,42.664z"/>
<g display="none">
	<path display="inline" fill="#3C4D3D" d="M43.401,48.553c0.304-1.771,2.248-3.316,0.814-5.364c-0.29-0.421,0.255-0.952,0.903-0.952
		c0.779,0.007,1.579-0.062,2.345,0.049c0.807,0.124,1.751-0.042,0.882,1.537c-0.758,1.379,0.524,3,1.014,4.992
		c0.503-1.668,0.869-2.854,1.207-4.04c0.083-0.297,0.207-0.662,0.11-0.917c-0.517-1.407-0.538-1.394,0.848-1.531
		c0.627-0.068,1.345-0.386,1.813,0.248c0.586,0.786-0.448,1.041-0.627,1.586c-0.745,2.297-1.586,4.564-2.172,6.896
		c-0.303,1.192-0.972,1.317-1.944,1.422c-1.097,0.108-1.048-0.711-1.296-1.346c-0.51-1.324-0.524-2.807-1.338-4.22
		c-0.848,1.427-1.041,2.923-1.358,4.323c-0.269,1.22-1.076,1.068-1.854,1.232c-1.062,0.234-1.076-0.6-1.338-1.248
		c-1.041-2.571-1.151-5.48-2.779-7.854c-0.186-0.262-0.131-0.62,0.152-0.882c0.29-0.263,3.779-0.421,4.027-0.125
		c0.145,0.173,0.283,0.587,0.193,0.683C41.209,45.022,43.553,46.663,43.401,48.553z"/>
	<path display="inline" fill="#99C45F" d="M24.784,58.311c0.145,0.633,0.345,1.254-0.717,1.221c-2.048-0.057-3.565-0.973-4.771-2.6
		c-1.434-1.932-2.076-4.199-2.854-6.399c-0.697-1.958-1.124-4.006-1.765-5.984c-0.627-1.951-2.055-3.386-3.668-4.854
		c3.062-0.421,5.564,1.435,6.647,4.744c1.131,3.468,2.138,6.978,3.331,10.417c0.621,1.779,1.461,3.553,3.847,3.496L24.784,58.311z"
		/>
	<path display="inline" fill="#3C4D3D" d="M169.226,46.656c0.44,1.338-0.726,3.145,0.669,4.71c0.387,0.44-0.132,1.026-0.73,1.041
		c-1.689,0.034-3.399,0.179-5.047-0.091c-1.463-0.233-1.925-1.586-2-2.972c-0.091-1.744,0.379-3.227,2.104-4.02
		c0.398-0.187,0.867-0.346,1.303-0.346c1.482-0.007,1.214-0.793,0.76-1.634c-0.215-0.379-0.772-0.951-0.346-1.124
		c0.861-0.352,1.861-0.455,2.807-0.462c0.613-0.007,0.469,0.669,0.477,1.09C169.232,44.022,169.226,45.194,169.226,46.656z
		 M166.646,48.566c-0.358-0.489,0.481-1.683-0.717-1.772c-1.271-0.096-0.986,1.104-1.021,1.862c-0.05,0.8-0.201,1.951,0.965,1.917
		C167.019,50.531,166.459,49.38,166.646,48.566z"/>
	<path display="inline" fill="#3C4D3D" d="M98.604,46.581c0.414,1.386-0.717,3.268,0.731,4.867c0.352,0.387-0.028,0.959-0.759,0.952
		c-1.552-0.008-3.124,0.138-4.668,0.014c-1.793-0.145-2.228-1.586-2.365-3.068c-0.193-2.104,0.951-3.965,2.868-4.262
		c1.744-0.269,2.358-0.641,0.966-2.158c-0.241-0.269-0.187-0.647,0.206-0.778c0.855-0.297,1.793-0.642,2.642-0.353
		c0.751,0.263,0.317,1.152,0.358,1.752C98.646,44.457,98.604,45.367,98.604,46.581z M96.191,48.429
		c-0.241-0.565,0.51-1.793-0.766-1.724c-1.09,0.062-1.192,1.172-1.186,2.109c0.007,0.786,0.034,1.813,0.979,1.786
		C96.557,50.561,96.102,49.318,96.191,48.429z"/>
	<path display="inline" fill="#394B3A" d="M147.319,46.009c-0.158,1.813-1.627,1.992-2.938,2.351
		c-1.586,0.421-1.993,1.407-0.967,2.648c0.271,0.33,0.524,0.53,0.387,0.951c-0.166,0.503-0.62,0.372-0.985,0.386
		c-0.455,0.021-0.924,0.063-1.372-0.007c-1.033-0.158-3.033,1.014-1.559-1.944c0.869-1.737,1.207-4.688-0.518-6.881
		c-0.537-0.69-0.033-1.18,0.613-1.207c1.943-0.09,3.938-0.352,5.82,0.311c1.145,0.406,1.736,1.33,1.558,2.62
		C147.347,45.498,147.333,45.753,147.319,46.009z M142.706,45.484c0.104,0.73-0.281,1.662,0.877,1.654
		c1.158-0.007,1.006-0.951,1.062-1.688c0.063-0.813,0.007-1.683-1.082-1.642C142.307,43.851,143.154,45.05,142.706,45.484z"/>
	<path display="inline" fill="#99C45F" d="M29.963,40.837c-2.331,2.496-3.089,5.709-3.841,8.867
		c-0.489,2.055-1.324,3.938-2.151,5.848c-0.186,0.44-0.427,0.841-0.986,0.765c-0.435-0.055-0.704-0.393-0.814-0.765
		c-0.179-0.614-0.462-1.241-0.262-1.909c1.069-3.544,1.786-7.207,3.496-10.537c0.765-1.482,1.772-2.724,3.468-3.206
		C29.149,40.313,30.011,40.051,29.963,40.837z"/>
	<path display="inline" fill="#2F4031" d="M106.383,46.809c0.145,1.31,0.021,2.613-0.229,3.902c0.028,0.27,0.173,0.414,0.441,0.436
		c0.669,0.461,0.759,0.957,0.18,1.088c-0.683,0.152-1.42,0.117-2.131,0.098c-0.413-0.014-0.985,0.248-1.199-0.296
		c-0.228-0.606,0.289-0.752,0.703-1.097c0.876-0.731,0.11-1.986,0.586-2.924c0.055-0.165,0.117-0.324,0.173-0.489
		c-0.524-1.352,0.854-3.138-0.945-4.22c-0.075-0.049-0.021-0.565,0.124-0.689c0.896-0.752,1.973-0.241,2.965-0.345
		c0.635-0.069,0.966,0.228,1.193,0.944c0.518,1.565,0.807,3.241,1.771,4.675c0.772-0.228,0.552-1.09,0.966-1.545
		c0.455,0.166,0.917,0.331,1.379,0.49c-0.462,1.248-0.896,2.503-1.393,3.73c-0.29,0.724-0.229,1.91-1.372,1.819
		c-1.076-0.09-1.007-1.173-1.158-1.979c0.653-0.6,0.179-0.717-0.345-0.807c-0.387-0.924-0.772-1.848-1.159-2.771
		c-0.062-0.387,0.192-1.063-0.511-0.931C105.982,45.974,106.113,46.478,106.383,46.809z"/>
	<path display="inline" fill="#3B4B3B" d="M130.35,48.021c1.063,0.139,1.324-0.8,1.345-1.399c0.015-0.414-0.854-1.048,0.015-1.296
		c0.896-0.256,1.951-0.2,2.869,0c0.551,0.117,0.338,0.807-0.091,1.055c-1.883,1.104-1.379,2.413-0.538,3.923
		c0.305,0.538,1.262,1.297,0.241,2.006c-0.979,0.684-1.517-0.145-2.062-0.807c-0.744-0.902-1.332-2.131-1.842,0.282
		c-0.281,1.297-2.021,0.683-2.867,0.421c-1.014-0.305,0.158-0.891,0.269-1.372c0.511-2.31,0.808-4.896,0.026-6.937
		c-0.896-2.379,0.257-2,1.58-2.062c-0.008,1.6,0,3.206-0.021,4.806C129.268,47.415,129.309,48.091,130.35,48.021z"/>
	<path display="inline" fill="#394B3A" d="M87.234,52.345c0.82-1.517,0.827-2.931,0.759-4.357c-0.028-0.6-0.2-1.021-0.89-1.014
		c-0.683,0.007-0.945,0.414-0.855,1.021c0.159,1.048-0.406,2.165,0.462,3.179c0.394,0.462,0.228,1.151-0.661,1.165
		c-0.779,0.015-1.565,0.007-2.352,0.007c-0.883,0.008-1.069-0.469-0.607-1.096c1.173-1.6,0.952-3.207,0.083-4.785
		c-0.441-0.8-0.165-1.117,0.565-1.173c1.703-0.138,3.42-0.317,5.116-0.262c1.304,0.041,1.511,1.151,1.689,2.248
		c0.228,1.372-0.689,2.882,0.669,4.164c0.414,0.388-0.241,0.891-0.848,0.896C89.399,52.352,88.435,52.345,87.234,52.345z"/>
	<path display="inline" fill="#394B3A" d="M177.893,48.284c0.234,0.917-0.4,2.082,0.635,3.13c0.579,0.593-0.166,0.959-0.842,0.986
		c-1.559,0.055-3.104-0.283-4.695,0.014c-1.18,0.221-1.654-0.745-1.813-1.834c-0.215-1.489,0.51-3.131-0.76-4.461
		c-0.123-0.132-0.062-0.58,0.248-0.642c0.883-0.18,1.828-0.531,2.67-0.372c0.744,0.145,0.338,1.116,0.379,1.724
		c0.063,0.972,0.041,1.958,0.027,2.938c-0.008,0.634,0.447,0.786,0.896,0.786c0.44,0.008,0.688-0.353,0.635-0.808
		c-0.146-1.13,0.386-2.337-0.358-3.406c-0.635-0.917-0.082-1.068,0.703-1.165C177.872,44.919,177.913,44.96,177.893,48.284z"/>
	<path display="inline" fill="#394B3A" d="M161.399,48.773c0,2.2-1.564,3.695-3.861,3.704c-2.42,0.006-3.654-1.291-3.654-3.813
		c0-2.221,1.627-3.778,3.883-3.717C159.861,45.009,161.399,46.629,161.399,48.773z M156.441,48.339
		c0.015,1.234-0.067,2.47,1.2,2.552c1.096,0.068,1.068-1.159,1.068-1.917c0-0.917,0.056-2.234-1.187-2.311
		C156.469,46.602,156.407,47.705,156.441,48.339z"/>
	<path display="inline" fill="#394B3A" d="M78.636,45.194c2.876,0.007,2.958,0.152,2.938,3.09c-0.007,0.896-0.145,1.765,0.435,2.751
		c0.696,1.191-0.579,1.551-1.482,1.379c-0.973-0.188-1.854-0.109-2.807,0.027c-1,0.145-2.027-0.049-2.262-1.297
		c-0.248-1.282,0.29-2.145,1.606-2.44c0.387-0.089,0.766-0.172,1.146-0.234c0.447-0.068,0.972-0.034,0.875-0.729
		c-0.104-0.766-0.647-0.414-1.055-0.4c-0.441,0.021-0.848,0.29-1.331,0.097c-0.627-0.262-0.924-0.662-0.834-1.352
		c0.069-0.62,0.352-0.931,1.014-0.896C77.457,45.223,78.05,45.194,78.636,45.194z"/>
	<path display="inline" fill="#3B4B3B" d="M112.36,46.836c-0.462-0.159-0.924-0.324-1.379-0.49c0.214-0.675,0.441-1.351,0.648-2.033
		c0.586-1.952,2.24-2.745,4.164-2.014c0.627,0.241,0.785,0.572,0.399,1.186c-1.048,1.648-0.883,5.882,0.234,7.688
		c0.379,0.601,0.407,1.124-0.511,1.172c-0.523,0.035-1.049,0.007-1.564,0.007c-2.104,0.008-2.104,0.008-1.331-1.758
		C113.381,49.78,112.959,47.395,112.36,46.836z"/>
	<path display="inline" fill="#3F5040" d="M192.586,50.29c-0.139-0.379-0.146-0.559-0.229-0.6c-1.165-0.683-1.992-1.593-1.439-3.007
		c0.627-1.6,2.088-1.73,3.578-1.724c1.164,0.014,1.676,0.511,1.414,1.683c-0.043,0.18-0.117,0.482-0.215,0.496
		c-1.304,0.214-0.883,0.587-0.249,1.263c0.933,0.999,1.166,2.172,0.042,3.248c-0.917,0.875-3.695,1.192-4.393,0.531
		c-0.463-0.436-0.262-0.96-0.151-1.463C191.159,49.725,191.911,50.276,192.586,50.29z"/>
	<path display="inline" fill="#3F5040" d="M61.557,49.814c-1.324-0.766-2.434-1.654-1.62-3.399c0.579-1.248,2.923-1.903,4.344-1.331
		c0.435,0.173,0.648,0.428,0.593,0.862c-0.062,0.462,0.27,1.124-0.482,1.282c-0.407,0.083-0.752,0.173-0.973,0.545
		c1.635,0.973,2.187,2.234,1.462,3.366c-0.793,1.24-3.709,1.916-4.758,1.103c-0.517-0.394-0.316-0.966-0.275-1.44
		c0.083-0.883,0.862-0.531,1.365-0.655c-0.048,0.545,0.165,0.87,0.752,0.848c0.262,0,0.537-0.068,0.53-0.398
		C62.487,49.98,61.957,49.966,61.557,49.814z"/>
	<path display="inline" fill="#3B4B3B" d="M57.157,48.925c-0.813-0.007-1.965-0.455-1.958,0.565c0.007,1.02,1.145,1.234,2.131,1.104
		c0.455-0.063,1.014-0.6,1.31,0.18c0.187,0.482-0.165,0.869-0.53,1.158c-1.166,0.896-3.572,0.725-4.751-0.316
		c-1.159-1.027-1.462-3.124-0.683-4.71c0.765-1.564,2.344-2.233,4.082-1.813c1.641,0.393,2.137,1.537,2.075,3.04
		C58.771,49.504,57.647,48.656,57.157,48.925z M56.612,47.25c-0.021-0.511-0.358-0.801-0.848-0.849
		c-0.49-0.048-0.669,0.352-0.724,0.745c-0.069,0.42,0.055,0.778,0.579,0.807C56.116,47.98,56.537,47.891,56.612,47.25z"/>
	<path display="inline" fill="#3F5040" d="M147.319,46.009c0.014-0.256,0.027-0.511,0.041-0.772c1.545,0.262,3.09-0.304,4.668-0.014
		c0.49,0.089,1.2-0.524,1.256,0.455c0.034,0.661,0.482,1.544-0.711,1.916c-1.572,0.483-1.917,2.069-0.876,3.496
		c0.648,0.891,0.552,1.139-0.51,1.255c-0.455,0.05-0.917,0.042-1.372,0.007c-1.104-0.074-2.875,0.705-1.428-1.834
		C149.002,49.442,149.554,47.057,147.319,46.009z"/>
	<path display="inline" fill="#334535" d="M125.454,46.677c0.373,1.372-0.668,3.2,0.697,4.759c0.296,0.338,0.145,0.902-0.538,0.902
		c-0.979,0-1.958,0.035-2.931-0.021c-0.684-0.041-0.635-0.517-0.414-0.979c1.297-2.73,1.042-5.481,0.109-8.239
		c-0.104-0.317-0.295-0.766,0.021-0.869c0.785-0.262,1.62-0.393,2.439-0.51c0.553-0.083,0.613,0.358,0.613,0.766
		C125.454,43.788,125.454,45.092,125.454,46.677z"/>
	<path display="inline" fill="#3C4D3D" d="M179.03,48.994c-0.033-2.648,1.737-4.282,4.344-4.014
		c0.689,0.076,1.256,0.132,1.158,1.117c-0.089,0.828-0.269,1.207-1.186,0.952c-1.145-0.311-1.523,0.338-1.559,1.365
		c-0.035,1.075,0.131,1.938,1.476,2.068c0.469,0.048,1.29-0.552,1.394,0.456c0.09,0.896-0.676,1.228-1.338,1.447
		C181.064,53.139,179.064,51.523,179.03,48.994z"/>
	<path display="inline" fill="#3C4D3D" d="M68.307,52.497c-1.393-0.069-2.096-0.614-2.213-2.027
		c-0.124-1.421,0.379-2.834-0.496-4.316c-0.435-0.738,1.096-1.559,1.938-2.11c0.523-0.352,1.089-0.317,1.131,0.621
		c0.034,0.647,0.717,0.372,1.068,0.579c0.496,0.289,1.034,0.703,0.124,1.255c-1.62,0.972-1.593,3.13,0.041,4.067
		c0.518,0.297,0.545,0.654,0.2,1.117C69.617,52.331,68.928,52.448,68.307,52.497z"/>
	<path display="inline" fill="#2F4031" d="M71.748,44.878c-0.049-0.387-0.097-0.772-0.146-1.159
		c-0.062-0.565-1.434-0.861-0.517-1.503c0.627-0.441,1.613-0.462,2.447-0.469c0.8-0.007,0.531,0.752,0.538,1.207
		c0.027,2.096,0.014,4.185,0.007,6.274c0,0.393-0.138,0.861,0.027,1.165c1.255,2.332-0.469,1.931-1.744,1.944
		c-1.241,0.015-2.345,0.271-0.979-1.653c0.69-0.974,0.221-2.787,0.276-4.214c0.51-0.035,1.055-0.014,1.089-0.752
		C72.775,45.002,72.307,44.898,71.748,44.878z"/>
	<path display="inline" fill="#334535" d="M185.795,49.649c-0.264-1.146,0.984-2.379-0.359-3.579
		c-0.275-0.248,0.559-1.71,1.869-1.627c0.938,0.062,1.482,0.89,2.439,1c0.572,0.068,0.159,0.703-0.213,0.985
		c-1.523,1.146-1.394,3.165,0.206,4.221c0.738,0.49,0.207,1.068-0.233,1.352c-0.854,0.545-1.883,0.752-2.785,0.241
		C185.76,51.704,185.739,50.648,185.795,49.649z"/>
	<path display="inline" fill="#98C35B" d="M21.123,50.4c-1.248-3.875-1.696-7.895-5.454-10.501c2.875-0.476,4.406,1.11,5.654,2.758
		C23.15,45.057,22.716,47.636,21.123,50.4z"/>
	<path display="inline" fill="#3F5040" d="M120.572,48.366c0.242,0.89-0.593,2.192,0.731,2.993c0.041,0.026,0.063,0.109,0.076,0.172
		c0.074,0.357,0,0.73-0.381,0.759c-1.221,0.067-2.476,0.289-3.646-0.131c-0.311-0.117-0.158-0.662,0.068-1.021
		c0.973-1.524,0.945-3.125,0.068-4.635c-0.469-0.807-0.191-0.958,0.497-1.172c2.275-0.704,2.578-0.49,2.585,1.902
		C120.572,47.56,120.572,47.884,120.572,48.366z"/>
	<path display="inline" fill="#98C35B" d="M30.376,42.871c-0.166-0.91,0.952-1.11,1.041-1.876c0.855-0.021,2.2-1.041,2.069,0.993
		c-0.579,0.931-0.552,2.179-1.517,2.91c-0.124,0.145-0.248,0.296-0.365,0.441c0.151,0.476-0.172,0.779-0.4,1.124
		c-1.296,0.586-0.931,1.454-0.407,2.357c0.131,0.497-0.331,0.772-0.441,1.187c-0.565,0.097-0.58,1.048-1.538,0.861
		c0-1.476,0-2.958,0-4.44c0.145-0.51,0.29-1.021,0.434-1.537C30.887,44.919,30.28,43.698,30.376,42.871z"/>
	<path display="inline" fill="#99C45F" d="M28.818,46.429c0,1.482,0,2.965,0,4.44c0.958,0.188,0.972-0.765,1.538-0.861
		c0.055,2.021-0.752,3.778-1.724,5.481c-0.434,0.778-0.862,0.737-1.2-0.041c-0.476-1.11-1.048-2.158-0.482-3.503
		C27.701,50.159,28.205,48.277,28.818,46.429z"/>
	<path display="inline" fill="#B4CD86" d="M96.336,59.232c-1.703-0.006-3.44,0.689-5.103-0.221c1.165-1.234,1.165-1.234-0.007-2.729
		c1.399-0.718,2.552-0.718,3.041,1.138c0.834-0.477,0.482-1.193,0.496-1.766c0.021-0.6-0.104-1.248,0.766-1.248
		c0.903,0.008,0.717,0.738,0.752,1.289c0.027,0.587,0.034,1.166,0.048,1.752c-0.145,0.406-0.552,0.813,0,1.221
		C96.329,58.854,96.336,59.04,96.336,59.232z"/>
	<path display="inline" fill="#ADC77E" d="M96.336,59.232c0-0.192-0.007-0.379-0.007-0.564c0.311-0.311,0.593-0.648,0.924-0.924
		c1.014-0.855-0.083-0.6-0.386-0.766c-0.27-1.021,0.435-1.056,1.096-1.021c0.883,0.057,1.759,0.193,2.642,0.297
		c0.53-0.021,1.103,0.158,1.571-0.255c0.538-0.125,1.028-0.125,1.29,0.481c-0.221,0.759,0.207,1.662-0.441,2.406
		c-0.545-0.4-0.352-0.902-0.462-1.316c-0.076-0.316-0.173-0.684-0.593-0.635c-0.4,0.056-0.511,0.399-0.4,0.737
		c0.193,0.572,0.234,1.165-0.51,1.132c-0.601-0.027-0.345-0.725-0.421-1.139c-0.063-0.296,0.041-0.676-0.448-0.786
		c-0.931,0.601-0.669,1.572-0.737,2.44C98.411,59.413,97.363,59.559,96.336,59.232z"/>
	<path display="inline" fill="#ADC77E" d="M85.669,58.261c0.676-0.241,1.421-0.241,1.793-1.131c0.586-1.405,1.696-1.544,2.958-0.841
		c0.648,1.007-1.476,1.73-0.282,2.793c-2.131,0.014-4.262,0.725-6.379-0.063C84.524,59.104,85.207,58.973,85.669,58.261z"/>
	<path display="inline" fill="#ADC77E" d="M61.591,59.13c-0.062,0.034-0.131,0.11-0.165,0.097c-0.966-0.338-2.462,0.744-2.82-0.18
		c-0.441-1.158-0.09-2.661,0.069-3.999c0.103-0.862,1.055-0.862,1.192-0.296c0.29,1.165,1.221,1.123,1.944,1.51
		C61.219,57.18,61.281,58.145,61.591,59.13z"/>
	<path display="inline" fill="#A1C571" d="M24.784,58.311l0.048,0.041c-1.151-1.09-0.255-1.849,0.441-2.613
		c0.262-0.282,0.683-0.312,0.821,0.027c0.662,1.683,2.53,2.172,3.585,3.695C27.701,60.22,26.329,58.875,24.784,58.311z"/>
	<path display="inline" fill="#A1C571" d="M49.325,56.007c0.503,0.041,1.068-0.221,1.461,0.31c-0.007,0.069-0.014,0.146-0.014,0.215
		c-0.807,0.552-0.875,1.138-0.09,1.771c0.063,0.441,0.021,1.187-0.455,0.938c-0.938-0.482-1.675,0.255-2.496,0.11
		c-0.034-1.166-0.069-2.332-0.103-3.496c0.166-0.455-0.642-1.199,0.303-1.394c1.104-0.221,0.91,0.724,1.027,1.353
		c0,0.304,0,0.612,0,0.916C49.387,56.641,49.235,56.262,49.325,56.007z"/>
	<path display="inline" fill="#B4CD86" d="M46.842,58.951c-1.11,0.902-2.351,0.262-3.537,0.303
		c-0.035-0.724-0.793-1.447-0.007-2.179c0.642-0.331,1.124-1,1.965-0.862C47.394,56.199,46.904,57.703,46.842,58.951z"/>
	<path display="inline" fill="#B4CD86" d="M73.195,55.841c0.903,0.027,1.8,0.063,2.696,0.091c0.297,0.495,0.896,0.826,0.82,1.522
		c-0.221,2.717-1.951,1.979-3.544,1.552C73.175,57.951,73.188,56.896,73.195,55.841z"/>
	<path display="inline" fill="#A1C571" d="M85.669,58.261c-0.462,0.712-1.145,0.843-1.91,0.759
		c-0.014-1.047,0.855-2.062,0.083-3.164c-0.172-0.234-0.027-0.703,0.372-0.744c0.828-0.084,1.71-0.331,2.469,0.097
		c0.489,0.282,0.193,0.758-0.048,1.172C86.276,56.984,85.986,57.634,85.669,58.261z"/>
	<path display="inline" fill="#A1C571" d="M104.583,59.288c-0.283-0.813-0.518-1.634-0.38-2.511c0.407-0.288,0.821-0.559,1.208-0.86
		c0.42-0.338,0.082-1.524,1.131-1.138c0.84,0.311,0.248,1.123,0.379,1.688c0.068,0.31,0.035,0.642,0.049,0.958
		c-0.518,0.565-1.297,0.958-1.248,1.903C105.34,59.316,104.961,59.303,104.583,59.288z"/>
	<path display="inline" fill="#A1C571" d="M73.195,55.841c-0.007,1.056-0.021,2.11-0.027,3.165
		c-1.771,0.938-1.399-1.296-2.344-1.579c-0.008-0.358-0.015-0.717-0.021-1.075c0.18-0.172,0.359-0.345,0.538-0.518
		c0.731,0.139,0.669-0.627,1.027-0.91c0.283-0.221,0.6-0.262,0.876-0.076C73.72,55.172,73.258,55.51,73.195,55.841z"/>
	<path display="inline" fill="#A1C571" d="M33.486,41.988c0.131-2.034-1.214-1.014-2.069-0.993c-0.407-0.8-0.944-0.316-1.455-0.151
		c0.048-0.793-0.814-0.531-1.09-0.944c0.262-0.49,0.883-0.655,1.172-0.441c1.965,1.441,3.875-0.18,6.109-0.09
		C35.093,40.32,34.617,41.457,33.486,41.988z"/>
	<path display="inline" fill="#2F4031" d="M130.35,48.021c-1.041,0.069-1.082-0.606-1.075-1.379c0.021-1.6,0.015-3.206,0.021-4.806
		c0.877-0.317,1.166,0.034,1.139,0.91C130.377,44.505,130.377,46.264,130.35,48.021z"/>
	<path display="inline" fill="#A1C571" d="M62.963,56.627c0.579-0.262,1.193-0.684,1.738,0.007c0.565,0.718,0.489,1.655,0.345,2.406
		c-0.132,0.662-1.021,0.18-1.559,0.317c-0.462,0.117-0.883-0.117-1.275-0.365C61.922,58.033,63.073,57.53,62.963,56.627z"/>
	<path display="inline" fill="#B4CD86" d="M56.281,57.089c-0.027-0.124-0.117-0.274-0.075-0.372
		c0.296-0.752-0.441-2.158,0.766-2.186c1.013-0.021,0.345,1.255,0.523,1.931c0.146,0.558,0.214,1.13,0.297,1.703
		c0.117,0.744-0.027,1.248-0.966,1.233c-1.055-0.021-0.676-0.594-0.565-1.151C56.337,57.875,56.274,57.475,56.281,57.089z"/>
	<path display="inline" fill="#3F5040" d="M120.581,42.968c-0.111,0.82-0.463,1.316-1.276,1.234c-0.779-0.076-1.421-0.4-1.358-1.324
		c0.063-0.91,0.696-1.145,1.512-1.124C120.317,41.781,120.504,42.36,120.581,42.968z"/>
	<path display="inline" fill="#B4CD86" d="M50.772,56.53c0-0.068,0.007-0.146,0.014-0.214c1.455-0.849,2.234-0.441,2.324,1.248
		c0.028,0.435-0.083,0.938,0.531,1.09c0.117,0.193,0.234,0.386,0.352,0.578c-0.807,0.056-1.607,0.11-2.517,0.181
		c-0.041-0.793,0.766-1.248,0.49-1.945C52.021,56.579,51.311,56.668,50.772,56.53z"/>
	<path display="inline" fill="#98C35B" d="M71.341,55.834c-0.179,0.173-0.358,0.346-0.538,0.518
		c-0.482,0.222-0.379,0.668-0.386,1.068c-0.021,0.407-0.041,0.813-0.063,1.221c-0.241,0.207-0.482,0.414-0.724,0.62
		c-0.503,0.015-0.703-0.206-0.586-0.71c0.151-0.683,0.338-1.371,0.428-2.068c0.075-0.571-0.518-1.379,0.365-1.647
		C70.568,54.605,70.858,55.455,71.341,55.834z"/>
	<path display="inline" fill="#ADC77E" d="M80.863,56.109c1.931,0.531,0.482,1.552,0.269,2.304
		c-0.413,1.469-1.269,0.729-2.027,0.289c-0.145-0.427-0.282-0.849-0.427-1.269c0.551,0.187,0.689-0.779,1.482-0.373
		C81.118,57.559,80.877,56.634,80.863,56.109z"/>
	<path display="inline" fill="#98C35B" d="M53.993,59.232c-0.117-0.192-0.234-0.385-0.352-0.578c-0.007-0.4-0.014-0.801-0.014-1.2
		c0.421-0.435,0.255-1.007,0.352-1.517c0.159-0.27,0.386-0.387,0.704-0.305c0.069,0.373,0.027,0.779,0.414,1.027
		c0.014,0.518-0.11,1.09,0.069,1.538C55.778,59.758,54.73,59.295,53.993,59.232z"/>
	<path display="inline" fill="#99C45F" d="M39.326,58.544c-0.007-1.021-0.007-2.034-0.014-3.055
		c0.738-0.151,0.924,0.647,1.455,0.848c0.076,0.042,0.124,0.097,0.159,0.173c0.021,0.827,0.034,1.662,0.055,2.489v0.007
		C40.388,58.984,39.747,59.164,39.326,58.544z"/>
	<path display="inline" fill="#99C45F" d="M43.298,57.075c-0.786,0.729-0.027,1.455,0.007,2.179
		c-0.366,0.007-0.731,0.021-1.09,0.034c-0.228-1.489-0.241-2.972,0-4.461c0.235,0,0.469,0,0.704,0
		c0.041,0.38-0.007,0.786,0.365,1.055C43.291,56.282,43.298,56.675,43.298,57.075z"/>
	<path display="inline" fill="#99C45F" d="M78.678,57.434c0.145,0.422,0.282,0.842,0.427,1.27c-1.158,0.849-1.186,0.828-1.951-1.303
		c0.021-0.463,0.049-0.918,0.069-1.373c0.317-0.006,0.634-0.021,0.944-0.034C78.408,56.447,78.153,57.075,78.678,57.434z"/>
	<path display="inline" fill="#B4CD86" d="M42.215,54.827c-0.241,1.489-0.228,2.972,0,4.461c-0.489,0.235-0.834-0.151-1.234-0.289
		c-0.021-0.827-0.035-1.662-0.055-2.489C41.822,56.311,40.926,54.73,42.215,54.827z"/>
	<path display="inline" fill="#B4CD86" d="M105.721,59.33c-0.049-0.945,0.73-1.338,1.248-1.903c0.91,0.29,0.793,1.097,0.529,1.601
		C107.147,59.723,106.348,59.337,105.721,59.33z"/>
	<path display="inline" fill="#B4CD86" d="M40.768,56.337c-0.531-0.198-0.717-0.999-1.455-0.848
		c-0.462-1.192,0.545-0.724,0.903-0.696C41.395,54.896,40.905,55.703,40.768,56.337z"/>
	<path display="inline" fill="#3F5040" d="M71.748,44.878c0.559,0.021,1.027,0.124,0.999,0.841
		c-0.034,0.738-0.579,0.717-1.089,0.752C71.686,45.939,71.72,45.408,71.748,44.878z"/>
	<path display="inline" fill="#99C45F" d="M30.797,48.821c-0.524-0.903-0.889-1.771,0.407-2.357
		C31.494,47.318,30.928,48.028,30.797,48.821z"/>
	<path display="inline" fill="#99C45F" d="M30.376,42.871c-0.097,0.827,0.51,2.048-1.124,2.021
		C29.473,44.133,29.68,43.367,30.376,42.871z"/>
	<path display="inline" fill="#D6E2B6" d="M77.223,56.027c-0.021,0.455-0.049,0.91-0.069,1.371
		c-0.145,0.021-0.296,0.035-0.441,0.056c0.076-0.696-0.523-1.027-0.82-1.522C76.34,55.965,76.781,55.992,77.223,56.027z"/>
	<path display="inline" fill="#3F5040" d="M106.383,46.809c-0.271-0.331-0.4-0.835,0.041-0.91c0.703-0.132,0.447,0.544,0.51,0.931
		C106.749,46.822,106.562,46.815,106.383,46.809z"/>
	<path display="inline" fill="#B4CD86" d="M39.326,58.544c0.421,0.62,1.062,0.44,1.655,0.462c-0.448,0.669-1.083,0.482-1.634,0.282
		C38.961,59.15,39.133,58.799,39.326,58.544z"/>
	<path display="inline" fill="#B4CD86" d="M55.096,56.661c-0.386-0.248-0.345-0.654-0.414-1.027
		C55.248,55.8,55.689,56.021,55.096,56.661z"/>
	<path display="inline" fill="#B4CD86" d="M43.284,55.882c-0.372-0.269-0.324-0.675-0.365-1.055
		C44.194,54.779,43.505,55.413,43.284,55.882z"/>
	<path display="inline" fill="#B4CD86" d="M69.631,59.261c0.241-0.206,0.482-0.413,0.724-0.62c0.249,0.139,0.414,0.42,0.173,0.572
		C70.3,59.352,69.935,59.254,69.631,59.261z"/>
	<path display="inline" fill="#B4CD86" d="M102.176,56c-0.469,0.413-1.041,0.234-1.571,0.255
		C101.06,55.736,101.625,55.924,102.176,56z"/>
	<path display="inline" fill="#3C4D3D" d="M108.092,49.601c0.523,0.09,1,0.207,0.346,0.807
		C108.161,50.207,108.002,49.959,108.092,49.601z"/>
	<path display="inline" fill="#B4CD86" d="M53.979,55.938c-0.096,0.511,0.069,1.082-0.352,1.518
		C53.586,56.91,53.275,56.303,53.979,55.938z"/>
	<path display="inline" fill="#D6E2B6" d="M49.325,56.007c-0.09,0.255,0.062,0.634-0.366,0.724c0-0.304,0-0.612,0-0.916
		C49.083,55.875,49.207,55.943,49.325,56.007z"/>
	<path display="inline" fill="#B4CD86" d="M70.417,57.42c0.007-0.4-0.097-0.848,0.386-1.068c0.007,0.358,0.014,0.717,0.021,1.075
		C70.692,57.42,70.555,57.42,70.417,57.42z"/>
	<path display="inline" fill="#3F5040" d="M106.596,51.146c-0.27-0.021-0.413-0.166-0.441-0.436
		C106.307,50.855,106.452,51,106.596,51.146z"/>
	<path display="inline" fill="#A1C571" d="M31.604,45.34c0.117-0.146,0.241-0.297,0.365-0.441
		C31.845,45.043,31.721,45.194,31.604,45.34z"/>
	<path display="inline" fill="#3F5040" d="M104.907,47.525c-0.056,0.165-0.118,0.324-0.173,0.489
		C104.789,47.85,104.852,47.69,104.907,47.525z"/>
	<path display="inline" fill="#D5DED1" d="M96.191,48.429c-0.09,0.89,0.365,2.131-0.973,2.172c-0.944,0.026-0.972-1-0.979-1.787
		c-0.007-0.938,0.096-2.048,1.186-2.109C96.701,46.636,95.95,47.863,96.191,48.429z"/>
</g>
<g>
	<path fill="#FC0101" d="M188.896,57.851c-0.021,0.362-0.057,0.725-0.063,1.086c-0.005,0.314,0.043,0.629,0.043,0.941
		c0,7.54,0,15.081,0,22.62c-0.004,0.057-0.007,0.111-0.019,0.168c-2.981,0.007-5.964,0.02-8.943,0.02
		c-52.3,0.003-104.597,0.003-156.896,0.004c-0.381,0-0.761,0-1.242,0c-0.03-0.423-0.074-0.758-0.074-1.093
		c-0.001-21.257,0-42.513,0.003-63.769c0-0.28,0.032-0.559,0.05-0.839c0.738,0.002,1.474,0.006,2.21,0.006
		c54.374,0.001,108.746,0,163.119,0.002c0.594,0,1.189,0.021,1.786,0.031c0.002,12.337,0.002,24.675,0.018,37.01
		c0.001,0.423,0.157,0.845,0.243,1.267c-0.08,0.435-0.16,0.866-0.238,1.3c-0.672,0.405-0.672,0.818-0.013,1.235L188.896,57.851z
		 M153.091,63.358c0.172,0.122,0.344,0.349,0.515,0.35c2.118,0.023,4.233,0.007,6.352,0.023c0.645,0.005,0.758-0.34,0.689-0.868
		c0.063-0.44,0.124-0.884,0.186-1.306c0.125-0.009,0.162-0.021,0.19-0.009c0.095,0.039,0.199,0.07,0.278,0.133
		c2.709,2.153,5.736,2.47,8.929,1.424c6.972-2.284,11.648-9.919,10.587-17.188c-0.823-5.644-5.986-9.071-11.505-7.541
		c-1.516,0.42-2.946,1.153-4.469,1.762c0.854-4.577,1.712-9.177,2.595-13.922c-2.426,0-4.767-0.012-7.104,0.025
		c-0.167,0.002-0.436,0.331-0.477,0.543c-0.443,2.268-0.848,4.544-1.271,6.815c-1.351,7.232-2.711,14.461-4.054,21.694
		C154.033,57.979,153.57,60.672,153.091,63.358z M88.382,61.101c0.104-0.019,0.141-0.039,0.165-0.029
		c0.095,0.04,0.198,0.074,0.277,0.138c3.302,2.641,6.897,2.7,10.563,1.008c5.64-2.604,9.113-8.734,8.693-15.076
		c-0.475-7.156-6.641-11.178-13.358-8.683c-0.958,0.354-1.854,0.876-2.83,1.345c0.071-0.683,0.132-1.281,0.2-1.934
		c-2.354,0-4.562-0.027-6.767,0.032c-0.271,0.007-0.717,0.429-0.767,0.715c-0.631,3.662-1.197,7.333-1.793,11
		c-0.922,5.676-1.858,11.348-2.781,17.023c-0.455,2.791-0.893,5.582-1.351,8.44c2.519,0,4.957,0,7.457,0
		C86.861,70.383,87.624,65.729,88.382,61.101z M34.133,53.003c-1.533,1.274-2.996,2.521-4.496,3.721
		c-0.521,0.417-0.45,0.701-0.084,1.197c4.158,5.665,10.682,7.239,16.964,4.059c5.582-2.827,8.174-9.309,5.945-14.946
		c-1.17-2.959-3.582-4.652-6.292-6.031c-1.556-0.792-3.123-1.57-4.617-2.47c-1.101-0.661-1.456-1.752-1.161-3.017
		c0.704-3.018,3.837-4.909,6.792-4.008c1.222,0.374,2.372,0.986,3.692,1.549c1.28-1.583,2.648-3.277,4.099-5.074
		c-0.896-0.56-1.668-1.101-2.492-1.546c-5.39-2.917-10.842-2.41-14.99,1.45c-5.316,4.946-5.576,13.211,1.769,17.149
		c1.756,0.942,3.578,1.764,5.303,2.758c1.708,0.987,2.323,2.394,1.94,4.258c-0.465,2.262-1.918,3.681-4.071,4.4
		c-2.109,0.707-4.172,0.727-5.935-0.827C35.643,54.871,34.957,53.93,34.133,53.003z M58.788,37.944
		c-0.052,0.233-0.107,0.434-0.142,0.637c-0.874,5.361-1.706,10.729-2.632,16.082c-0.665,3.845,1.337,7.211,5.084,8.258
		c3.011,0.844,6.056,0.813,9.028-0.07c4.003-1.194,6.679-3.839,7.494-7.991c0.836-4.262,1.431-8.573,2.126-12.862
		c0.216-1.333,0.416-2.671,0.642-4.127c-2.245,0-4.34,0.039-6.434-0.019c-0.786-0.022-1.09,0.193-1.215,0.999
		c-0.817,5.229-1.686,10.449-2.55,15.671c-0.061,0.37-0.171,0.754-0.349,1.084c-0.746,1.364-2.383,1.942-4.423,1.6
		c-1.481-0.25-2.157-1.119-1.925-2.589c0.446-2.84,0.938-5.673,1.4-8.507c0.439-2.69,0.866-5.381,1.313-8.164
		C63.706,37.944,61.303,37.944,58.788,37.944z M132.755,50.641c0.567-1.732,0.605-3.406,0.157-5.877
		c-1.093-6.009-6.718-9.462-12.557-7.706c-6.933,2.086-11.487,8.992-10.588,16.192c0.399,3.208,1.899,5.846,4.673,7.62
		c6.415,4.102,14.5-0.365,17.141-5.836c-1.406-0.532-2.822-1.027-4.204-1.612c-0.75-0.316-1.167-0.313-1.667,0.493
		c-1.013,1.641-2.428,2.839-4.517,2.792c-2.477-0.058-4.618-3.159-4.17-6.066C122.269,50.641,127.522,50.641,132.755,50.641z
		 M135.184,63.51c2.213,0,4.272-0.051,6.33,0.022c0.884,0.031,1.221-0.231,1.355-1.11c0.709-4.64,1.494-9.267,2.216-13.902
		c0.423-2.711,3.009-4.853,5.733-4.614c0.749,0.067,1.485,0.304,2.332,0.484c0.627-2.125,1.25-4.247,1.915-6.503
		c-3.11-0.348-5.924-0.037-8.486,1.846c0.079-0.693,0.142-1.228,0.216-1.866c-2.196,0-4.26,0.046-6.319-0.021
		c-0.876-0.029-1.182,0.203-1.319,1.111c-0.731,4.813-1.557,9.61-2.34,14.416C136.276,56.683,135.749,59.998,135.184,63.51z"/>
	<path fill="#EA1015" d="M188.88,57.84c-0.659-0.419-0.659-0.83,0.013-1.236C188.888,57.017,188.882,57.428,188.88,57.84z"/>
	<path fill="#F70505" d="M89.893,52.399c0.216-3.297,1.126-5.742,3.644-7.331c2.781-1.755,5.88-0.435,6.49,2.817
		c0.589,3.138-0.423,5.687-2.833,7.838c-2.113,1.886-5.179,1.605-6.48-0.886C90.254,53.962,90.069,52.942,89.893,52.399z"/>
	<path fill="#F70505" d="M162.693,52.45c0.012-3.486,2.008-6.663,4.753-7.745c2.395-0.941,4.661,0.165,5.372,2.626
		c0.957,3.309-0.994,7.686-4.098,9.2c-2.85,1.391-5.625-0.151-5.977-3.318C162.708,52.9,162.701,52.584,162.693,52.45z"/>
	<path fill="#F20707" d="M126.84,46.084c-3.033,0-6.057,0-9.079,0c0.238-2.119,2.632-4.328,4.773-4.42
		C124.585,41.576,126.301,43.317,126.84,46.084z"/>
</g>
</svg>
