<?xml version="1.0" encoding="utf-8"?>
<!-- Generator: Adobe Illustrator 16.0.2, SVG Export Plug-In . SVG Version: 6.00 Build 0)  -->
<!DOCTYPE svg PUBLIC "-//W3C//DTD SVG 1.1//EN" "http://www.w3.org/Graphics/SVG/1.1/DTD/svg11.dtd">
<svg version="1.1" id="Layer_1" xmlns="http://www.w3.org/2000/svg" xmlns:xlink="http://www.w3.org/1999/xlink" x="0px" y="0px"
	 width="208.833px" height="100px" viewBox="0 0 208.833 100" enable-background="new 0 0 208.833 100" xml:space="preserve">
<rect x="3" y="2.383" fill="#FFFFFF" stroke="#B3B3B3" stroke-miterlimit="10" width="203.833" height="95.617"/>
<rect x="6.417" y="7.75" display="none" fill="#FFFFFF" width="197" height="86.25"/>
<g>
	<path display="none" fill="#FDFDFD" d="M30.815,71.69c0-14.282,0-28.564,0-42.846c49.85,0,99.699,0,149.549,0
		c0,14.282,0,28.563,0,42.846C130.514,71.69,80.665,71.69,30.815,71.69z M126.448,66.354c0.034-0.142,0.099-0.283,0.099-0.425
		c0.005-6.112,0.004-12.225,0.004-18.337c0-4.158,0.001-8.316-0.004-12.474c0-0.128-0.064-0.256-0.098-0.385
		c-1.394,0-2.787,0.001-4.181,0.001c-0.027,0.001-0.055,0.002-0.082,0.003c-0.028,0.108-0.08,0.217-0.08,0.325
		c-0.004,10.316-0.004,20.633-0.001,30.949c0,0.112,0.049,0.226,0.074,0.339c0.032,0.002,0.065,0.002,0.098,0.004
		C123.667,66.354,125.057,66.354,126.448,66.354z M179.464,66.232c0.005-0.137,0.014-0.273,0.014-0.41
		c0.001-3.826,0.009-7.651-0.007-11.477c-0.003-0.744-0.036-1.498-0.155-2.232c-0.576-3.566-2.438-6.196-5.796-7.642
		c-2.9-1.249-5.877-1.311-8.85-0.279c-2.631,0.913-4.512,2.678-5.605,5.25c-0.622,1.462-0.897,3.004-0.902,4.585
		c-0.015,4.038-0.007,8.075-0.007,12.112c0,0.071,0.01,0.142,0.016,0.206c1.498,0,2.971,0,4.456,0c0-0.17,0-0.306,0-0.441
		c0.002-3.876-0.026-7.752,0.026-11.626c0.013-0.905,0.195-1.841,0.483-2.701c0.733-2.195,2.299-3.48,4.609-3.762
		c2.261-0.275,4.317,0.161,5.788,2.067c0.455,0.591,0.725,1.324,1.079,1.992c0.142,0.825,0.283,1.65,0.425,2.475
		c-0.007,0.049-0.019,0.098-0.019,0.147c0.001,3.799,0.002,7.599,0.005,11.397c0,0.111,0.012,0.223,0.019,0.334
		c0.049,0.045,0.099,0.13,0.147,0.13c1.373,0.008,2.745,0.008,4.117,0.001C179.361,66.359,179.413,66.275,179.464,66.232z
		 M76.66,35.8c-0.001,0.024-0.003,0.048-0.004,0.073c0,1.421,0,2.842,0,4.263c0,0.024,0.001,0.049,0.001,0.073
		c0.133,0.019,0.268,0.061,0.4,0.054c3.172-0.16,6.344-0.326,9.517-0.486c0.33-0.017,0.661-0.002,1.026-0.002
		c0,8.868,0,17.72,0,26.58c1.573,0,3.11,0,4.688,0c0-8.961,0-17.898,0-26.856c3.489-0.186,6.938-0.37,10.374-0.553
		c0-1.441,0-2.828,0-4.223c-0.14,0-0.25-0.004-0.361,0c-2.751,0.106-5.502,0.214-8.253,0.321
		c-5.676,0.222-11.352,0.442-17.028,0.667C76.898,35.717,76.779,35.77,76.66,35.8z M153.664,44.1
		c-0.064-0.02-0.129-0.056-0.194-0.056c-1.333-0.003-2.666-0.003-3.999-0.001c-0.069,0-0.138,0.025-0.239,0.045
		c0,0.926,0,1.838,0,2.815c-0.21-0.221-0.368-0.394-0.533-0.558c-0.168-0.167-0.337-0.333-0.519-0.484
		c-2.688-2.231-5.784-2.811-9.119-2.085c-4.977,1.083-8.517,5.102-8.974,10.199c-0.396,4.415,1.086,8.097,4.688,10.781
		c2.509,1.869,5.386,2.453,8.461,2.055c2.327-0.301,4.332-1.273,5.905-3.057c0.011-0.012,0.042-0.006,0.106-0.012
		c0,0.747-0.003,1.49,0.004,2.232c0.001,0.125,0.048,0.25,0.074,0.375c0.03,0.002,0.061,0.005,0.092,0.007c1.389,0,2.778,0,4.167,0
		c0.033-0.042,0.065-0.085,0.098-0.128c0.008-0.111,0.021-0.222,0.021-0.333c0.001-7.129,0.001-14.259,0-21.387
		c0-0.111-0.016-0.222-0.023-0.333c0.003-0.009,0.01-0.02,0.008-0.028C153.681,44.131,153.671,44.116,153.664,44.1z M32.29,49.648
		c-0.009,2.909,0.268,4.851,0.836,6.75c3.298,11.023,15.019,17.219,26.07,13.171c8.198-3.003,13.61-11.36,13.071-20.067
		c-0.212-3.437-1.157-6.633-2.949-9.569c-4.873-7.984-14.482-11.538-23.271-8.618C37.825,34.045,32.293,41.791,32.29,49.648z
		 M118.686,43.417c-1.098,0.108-2.16,0.131-3.189,0.329c-3.165,0.607-5.59,2.273-7.044,5.207c-0.829,1.672-1.124,3.471-1.126,5.325
		c-0.004,3.91-0.002,7.821-0.002,11.732c0,0.117,0,0.234,0,0.35c1.516,0,2.969,0,4.462,0c0-0.151,0-0.285,0-0.418
		c0-3.688-0.009-7.374,0.008-11.061c0.003-0.707,0.048-1.423,0.174-2.117c0.29-1.604,0.977-3.002,2.344-3.979
		c1.13-0.808,2.422-1.055,3.782-1.045c0.193,0.001,0.387,0,0.592,0C118.686,46.308,118.686,44.928,118.686,43.417z M98.263,44.058
		c0,7.443,0,14.869,0,22.291c1.488,0,2.949,0,4.4,0c0-7.446,0-14.863,0-22.291C101.183,44.058,99.731,44.058,98.263,44.058z
		 M147.162,33.052c-4.048,1.138-8.063,2.267-12.104,3.404c0.385,1.339,0.761,2.644,1.141,3.964c4.065-1.14,8.093-2.269,12.145-3.405
		C147.943,35.673,147.557,34.38,147.162,33.052z"/>
	<path fill="#CEFD00" d="M32.29,49.648c0.003-7.858,5.535-15.603,13.757-18.334c8.788-2.919,18.397,0.634,23.27,8.618
		c1.792,2.937,2.737,6.132,2.95,9.569c0.539,8.707-4.873,17.064-13.071,20.067c-11.051,4.048-22.771-2.147-26.07-13.171
		C32.558,54.499,32.281,52.558,32.29,49.648z M54.223,52.408c2.09-0.156,4.075-0.308,6.061-0.455
		c2.459-0.183,4.918-0.361,7.376-0.544c0.488-0.036,0.919-0.222,1.28-0.551c0.464-0.424,0.691-0.94,0.552-1.575
		c-0.139-0.631-0.63-0.896-1.188-0.981c-0.673-0.103-1.362-0.167-2.042-0.147c-5.204,0.149-10.408,0.326-15.612,0.487
		c-4.519,0.14-9.039,0.269-13.559,0.405c-1.52,0.046-2.117,0.701-2.031,2.214c0.002,0.037,0.004,0.074,0.007,0.111
		c0.066,0.821,0.531,1.412,1.331,1.603c0.42,0.1,0.863,0.165,1.292,0.151c3.622-0.12,7.244-0.266,10.865-0.395
		c0.604-0.021,1.208-0.004,1.912-0.004c0,1.092-0.031,2.199,0.006,3.305c0.081,2.439,0.177,4.878,0.309,7.314
		c0.04,0.729,0.18,1.458,0.346,2.17c0.121,0.515,0.503,0.817,1.061,0.842c0.529,0.023,0.951-0.225,1.173-0.756
		c0.123-0.295,0.225-0.616,0.246-0.932c0.216-3.217,0.424-6.435,0.608-9.654C54.265,54.163,54.223,53.303,54.223,52.408z
		 M62.062,60.212c-0.003,0-0.006,0-0.009-0.001c0-0.111,0-0.224,0-0.336c0.006-1.258,0.055-2.518,0.007-3.773
		c-0.042-1.107-0.792-2.048-1.714-2.316c-0.895-0.262-1.664,0.096-1.921,0.986c-0.149,0.516-0.229,1.084-0.184,1.617
		c0.154,1.848,0.372,3.691,0.574,5.536c0.124,1.126,0.233,2.256,0.409,3.374c0.113,0.719,0.541,1.033,1.238,1.067
		c0.646,0.032,1.085-0.28,1.305-0.946c0.07-0.212,0.137-0.434,0.146-0.654C61.97,63.248,62.014,61.73,62.062,60.212z M45.975,44.595
		c-0.017-0.004-0.034-0.008-0.051-0.013c-0.016-0.198-0.026-0.397-0.049-0.595c-0.235-2.076-0.468-4.152-0.71-6.228
		c-0.081-0.691-0.153-1.386-0.293-2.066c-0.126-0.611-0.524-0.894-1.146-0.934c-0.696-0.045-1.165,0.232-1.36,0.907
		c-0.133,0.46-0.21,0.951-0.221,1.431c-0.054,2.427-0.093,4.854-0.108,7.28c-0.008,1.262,0.816,2.31,1.916,2.528
		c0.817,0.162,1.473-0.179,1.741-0.97C45.838,45.506,45.884,45.043,45.975,44.595z M53.538,40.61c0-0.643,0.006-1.775-0.002-2.907
		c-0.006-0.889-0.252-1.697-0.892-2.343c-0.486-0.491-1.076-0.733-1.766-0.546c-0.678,0.184-0.984,0.742-1.055,1.364
		c-0.088,0.771-0.12,1.565-0.044,2.336c0.164,1.67,0.408,3.332,0.625,4.996c0.093,0.715,0.17,1.434,0.306,2.141
		c0.131,0.678,0.539,1,1.187,1.034c0.649,0.035,1.05-0.243,1.283-0.908c0.065-0.187,0.131-0.382,0.142-0.576
		C53.394,43.834,53.453,42.468,53.538,40.61z M57.724,40.196c0,0.715,0.005,1.25-0.001,1.786c-0.006,0.548-0.034,1.096-0.034,1.645
		c0,1.082,0.278,2.059,1.207,2.719c0.993,0.705,2.112,0.356,2.418-0.809c0.177-0.671,0.234-1.408,0.172-2.1
		c-0.155-1.735-0.404-3.461-0.626-5.189c-0.107-0.839-0.207-1.681-0.368-2.51c-0.125-0.64-0.539-0.945-1.152-0.979
		c-0.647-0.036-1.055,0.227-1.282,0.861c-0.087,0.244-0.164,0.504-0.177,0.76C57.813,37.71,57.769,39.042,57.724,40.196z
		 M46.656,60.916c0.008,0,0.017,0,0.025-0.001c0-1.021,0-2.043,0-3.064c0-0.075-0.003-0.149-0.011-0.224
		c-0.089-0.918-0.459-1.682-1.265-2.173c-1.031-0.63-2.119-0.229-2.39,0.94c-0.148,0.643-0.164,1.336-0.114,1.996
		c0.076,1.029,0.256,2.051,0.396,3.074c0.167,1.222,0.328,2.444,0.51,3.664c0.123,0.824,0.516,1.191,1.254,1.23
		c0.691,0.036,1.138-0.318,1.352-1.087c0.05-0.179,0.092-0.365,0.1-0.55C46.566,63.454,46.609,62.185,46.656,60.916z"/>
	<path fill="#260F14" d="M149.325,66.35c-0.026-0.125-0.073-0.25-0.074-0.375c-0.007-0.742-0.004-1.485-0.004-2.232
		c-0.064,0.006-0.096,0-0.106,0.012c-1.573,1.783-3.578,2.756-5.905,3.057c-3.075,0.398-5.952-0.186-8.461-2.055
		c-3.602-2.685-5.083-6.366-4.688-10.781c0.457-5.096,3.997-9.115,8.974-10.199c3.335-0.726,6.432-0.146,9.119,2.085
		c0.182,0.151,0.351,0.318,0.519,0.484c0.165,0.164,0.322,0.337,0.533,0.558c0-0.977,0-1.889,0-2.815
		c0.102-0.02,0.17-0.045,0.239-0.045c1.333-0.002,2.666-0.002,3.999,0.001c0.065,0,0.13,0.037,0.194,0.056
		c0.005,0.025,0.011,0.05,0.016,0.075c0.008,0.111,0.023,0.222,0.023,0.333c0.001,7.128,0.001,14.258,0,21.387
		c0,0.111-0.015,0.222-0.021,0.333c-0.032,0.043-0.064,0.086-0.098,0.128c-1.389,0-2.778,0-4.167-0.001
		c-0.019-0.02-0.037-0.039-0.056-0.059C149.349,66.314,149.336,66.332,149.325,66.35z M149.15,55.227
		c-0.013-4.257-3.06-7.403-7.243-7.481c-2.968-0.056-5.485,1.519-6.667,4.181c-0.578,1.303-0.759,2.671-0.639,4.085
		c0.361,4.239,3.794,7.205,8.254,6.593C146.666,62.082,149.162,59.093,149.15,55.227z"/>
	<path fill="#260F14" d="M76.655,40.136c0-1.421,0-2.842,0-4.263c0.009-0.007,0.028-0.016,0.027-0.02
		c-0.005-0.019-0.015-0.036-0.023-0.054c0.12-0.03,0.239-0.083,0.359-0.087c5.676-0.226,11.352-0.446,17.028-0.667
		c2.751-0.107,5.502-0.215,8.253-0.321c0.111-0.004,0.222,0,0.362,0c0,1.394,0,2.781,0,4.223c-3.436,0.183-6.885,0.367-10.375,0.553
		c0,8.958,0,17.896,0,26.856c-1.578,0-3.115,0-4.688,0c0-8.86,0-17.712,0-26.58c-0.366,0-0.696-0.015-1.026,0.002
		c-3.173,0.16-6.345,0.327-9.517,0.486c-0.132,0.006-0.266-0.035-0.4-0.055c0.01-0.007,0.028-0.018,0.026-0.021
		C76.677,40.17,76.665,40.153,76.655,40.136z"/>
	<path fill="#260F14" d="M174.614,51.875c-0.354-0.668-0.624-1.4-1.079-1.992c-1.471-1.907-3.527-2.343-5.788-2.067
		c-2.311,0.281-3.876,1.566-4.609,3.762c-0.288,0.86-0.471,1.796-0.483,2.701c-0.053,3.874-0.024,7.75-0.026,11.626
		c0,0.136,0,0.271,0,0.441c-1.485,0-2.958,0-4.456,0c-0.006-0.064-0.016-0.135-0.016-0.206c0-4.037-0.008-8.074,0.007-12.112
		c0.005-1.581,0.28-3.123,0.902-4.585c1.094-2.571,2.975-4.337,5.605-5.25c2.973-1.032,5.949-0.97,8.85,0.279
		c3.358,1.446,5.22,4.076,5.796,7.642c0.119,0.734,0.152,1.488,0.155,2.232c0.016,3.825,0.008,7.65,0.007,11.477
		c0,0.137-0.009,0.273-0.014,0.41c-1.474-0.002-2.947-0.003-4.421-0.004c-0.007-0.111-0.019-0.223-0.019-0.334
		c-0.003-3.799-0.004-7.599-0.005-11.397c0-0.05,0.012-0.099,0.019-0.147c0.03-0.101,0.099-0.207,0.084-0.3
		c-0.103-0.657-0.219-1.312-0.343-1.966C174.765,52.007,174.671,51.945,174.614,51.875z"/>
	<path fill="#250F13" d="M122.268,34.735c1.394,0,2.787-0.001,4.181-0.001c0.001,2.13,0.003,4.261,0.003,6.392
		c-0.001,8.409-0.003,16.818-0.004,25.229c-1.391,0-2.78,0.001-4.171,0.002c-0.032-0.002-0.065-0.003-0.098-0.004
		c-0.025-0.113-0.073-0.227-0.073-0.34c-0.004-10.316-0.004-20.632,0-30.948c0-0.108,0.052-0.217,0.08-0.325
		C122.213,34.737,122.241,34.736,122.268,34.735z"/>
	<path fill="#261015" d="M118.686,43.417c0,1.51,0,2.89,0,4.323c-0.205,0-0.398,0.001-0.592,0c-1.36-0.009-2.652,0.238-3.782,1.045
		c-1.367,0.977-2.054,2.375-2.344,3.979c-0.126,0.694-0.171,1.41-0.174,2.117c-0.017,3.687-0.008,7.373-0.008,11.061
		c0,0.133,0,0.267,0,0.418c-1.493,0-2.946,0-4.462,0c0-0.115,0-0.232,0-0.35c0-3.911-0.002-7.822,0.002-11.732
		c0.002-1.854,0.297-3.652,1.126-5.325c1.454-2.934,3.879-4.599,7.043-5.207C116.526,43.548,117.588,43.525,118.686,43.417z"/>
	<path fill="#250F14" d="M98.263,44.058c1.468,0,2.92,0,4.4,0c0,7.427,0,14.844,0,22.291c-1.452,0-2.913,0-4.4,0
		C98.263,58.927,98.263,51.501,98.263,44.058z"/>
	<path fill="#261014" d="M147.162,33.052c0.396,1.328,0.781,2.622,1.182,3.963c-4.052,1.136-8.079,2.265-12.145,3.404
		c-0.38-1.32-0.756-2.625-1.141-3.964C139.099,35.319,143.114,34.19,147.162,33.052z"/>
	<path fill="#110001" d="M126.448,66.354c0.001-8.41,0.003-16.819,0.004-25.229c0-2.131-0.002-4.261-0.003-6.392
		c0.034,0.128,0.098,0.257,0.098,0.385c0.005,4.158,0.004,8.315,0.004,12.474c0,6.112,0.001,12.225-0.004,18.336
		C126.546,66.07,126.482,66.212,126.448,66.354z"/>
	<path fill="#251415" d="M175.043,66.229c1.474,0.001,2.947,0.002,4.421,0.004c-0.052,0.043-0.104,0.127-0.156,0.127
		c-1.372,0.007-2.744,0.006-4.117-0.001C175.142,66.358,175.092,66.273,175.043,66.229z"/>
	<path fill="#251415" d="M174.614,51.875c0.058,0.07,0.151,0.132,0.166,0.209c0.124,0.654,0.24,1.309,0.343,1.966
		c0.015,0.093-0.054,0.2-0.084,0.3C174.897,53.525,174.755,52.7,174.614,51.875z"/>
	<path fill="#110001" d="M122.268,34.735c-0.027,0.001-0.055,0.002-0.082,0.003C122.213,34.737,122.241,34.736,122.268,34.735z"/>
	<path fill="#0F0000" d="M76.66,35.8c0.008,0.018,0.018,0.035,0.023,0.053c0.001,0.004-0.018,0.013-0.027,0.02
		C76.657,35.849,76.658,35.824,76.66,35.8z"/>
	<path fill="#0F0000" d="M76.655,40.136c0.01,0.017,0.021,0.034,0.028,0.052c0.001,0.003-0.017,0.014-0.026,0.021
		C76.656,40.185,76.656,40.161,76.655,40.136z"/>
	<path fill="#190206" d="M153.679,44.175c-0.005-0.025-0.011-0.05-0.016-0.075c0.008,0.016,0.018,0.031,0.023,0.047
		C153.689,44.155,153.682,44.166,153.679,44.175z"/>
	<path fill="#110001" d="M122.179,66.352c0.032,0.002,0.065,0.002,0.098,0.004C122.245,66.354,122.211,66.353,122.179,66.352z"/>
	<path fill="#190206" d="M149.325,66.35c0.012-0.018,0.024-0.035,0.036-0.053c0.019,0.02,0.037,0.039,0.056,0.059
		C149.385,66.354,149.355,66.352,149.325,66.35z"/>
	<path fill="#190206" d="M153.583,66.356c0.033-0.042,0.065-0.085,0.098-0.128C153.649,66.271,153.617,66.314,153.583,66.356z"/>
	<path fill="#260F13" d="M54.223,52.408c0,0.895,0.042,1.755-0.007,2.609c-0.184,3.22-0.392,6.438-0.607,9.654
		c-0.021,0.315-0.123,0.637-0.246,0.932c-0.222,0.531-0.644,0.779-1.173,0.756c-0.558-0.024-0.94-0.327-1.061-0.842
		c-0.167-0.712-0.307-1.441-0.346-2.17c-0.132-2.437-0.228-4.875-0.309-7.314c-0.037-1.105-0.006-2.213-0.006-3.305
		c-0.704,0-1.309-0.018-1.912,0.004c-3.622,0.129-7.244,0.274-10.866,0.395c-0.429,0.014-0.872-0.052-1.292-0.151
		c-0.8-0.19-1.265-0.781-1.331-1.603c-0.003-0.037-0.005-0.074-0.007-0.111c-0.085-1.514,0.511-2.168,2.031-2.214
		c4.52-0.137,9.04-0.265,13.559-0.405c5.204-0.161,10.408-0.338,15.612-0.487c0.679-0.02,1.369,0.044,2.042,0.147
		c0.558,0.085,1.049,0.351,1.188,0.981c0.139,0.634-0.088,1.152-0.552,1.575c-0.361,0.329-0.792,0.515-1.28,0.551
		c-2.458,0.183-4.917,0.361-7.376,0.544C58.298,52.101,56.313,52.252,54.223,52.408z"/>
	<path fill="#261013" d="M62.062,60.212c-0.048,1.519-0.092,3.036-0.15,4.554c-0.009,0.221-0.076,0.442-0.146,0.654
		c-0.22,0.666-0.659,0.979-1.305,0.946c-0.697-0.034-1.125-0.35-1.238-1.067c-0.176-1.118-0.285-2.248-0.409-3.374
		c-0.203-1.845-0.419-3.688-0.574-5.536c-0.044-0.533,0.035-1.102,0.184-1.617c0.258-0.891,1.026-1.248,1.921-0.986
		c0.922,0.269,1.672,1.209,1.714,2.316c0.048,1.256,0,2.516-0.007,3.773c0,0.112,0,0.225,0,0.336
		C62.056,60.212,62.059,60.212,62.062,60.212z"/>
	<path fill="#261013" d="M45.975,44.595c-0.091,0.448-0.136,0.911-0.281,1.34c-0.268,0.792-0.923,1.132-1.741,0.97
		c-1.1-0.218-1.924-1.266-1.916-2.528c0.015-2.427,0.054-4.854,0.108-7.28c0.011-0.479,0.087-0.97,0.221-1.431
		c0.195-0.675,0.664-0.952,1.36-0.907c0.622,0.041,1.02,0.323,1.146,0.934c0.14,0.68,0.213,1.375,0.293,2.066
		c0.243,2.075,0.476,4.152,0.71,6.228c0.022,0.198,0.033,0.396,0.049,0.595C45.941,44.587,45.958,44.591,45.975,44.595z"/>
	<path fill="#261013" d="M53.538,40.61c-0.085,1.857-0.144,3.224-0.217,4.59c-0.011,0.194-0.077,0.39-0.142,0.576
		c-0.233,0.665-0.633,0.942-1.283,0.908c-0.648-0.035-1.056-0.356-1.187-1.034c-0.136-0.707-0.213-1.426-0.306-2.141
		c-0.216-1.665-0.461-3.326-0.625-4.996c-0.075-0.771-0.044-1.564,0.044-2.336c0.071-0.622,0.378-1.18,1.055-1.364
		c0.689-0.187,1.279,0.056,1.766,0.546c0.64,0.646,0.886,1.454,0.892,2.343C53.544,38.835,53.538,39.968,53.538,40.61z"/>
	<path fill="#261013" d="M57.724,40.196c0.045-1.153,0.09-2.485,0.156-3.816c0.013-0.256,0.089-0.517,0.177-0.76
		c0.227-0.634,0.635-0.896,1.282-0.861c0.614,0.034,1.027,0.339,1.152,0.979c0.162,0.829,0.261,1.671,0.368,2.51
		c0.222,1.728,0.471,3.454,0.626,5.189c0.062,0.692,0.005,1.429-0.172,2.1c-0.306,1.165-1.425,1.514-2.418,0.809
		c-0.929-0.66-1.207-1.637-1.207-2.719c0-0.548,0.028-1.096,0.034-1.645C57.729,41.446,57.724,40.91,57.724,40.196z"/>
	<path fill="#261013" d="M46.656,60.916c-0.046,1.269-0.089,2.538-0.143,3.807c-0.008,0.185-0.05,0.371-0.1,0.55
		c-0.214,0.769-0.661,1.123-1.352,1.087c-0.738-0.039-1.131-0.406-1.254-1.23c-0.183-1.22-0.343-2.442-0.51-3.664
		c-0.14-1.023-0.32-2.045-0.396-3.074c-0.049-0.66-0.034-1.354,0.114-1.996c0.271-1.169,1.359-1.57,2.39-0.94
		c0.806,0.491,1.176,1.255,1.265,2.173c0.007,0.074,0.011,0.148,0.011,0.224c0,1.021,0,2.043,0,3.064
		C46.672,60.916,46.664,60.916,46.656,60.916z"/>
	<path display="none" fill="#FDFDFD" d="M149.15,55.227c0.012,3.866-2.484,6.855-6.295,7.377c-4.46,0.612-7.893-2.354-8.254-6.593
		c-0.12-1.414,0.061-2.782,0.639-4.085c1.182-2.662,3.699-4.236,6.667-4.181C146.09,47.823,149.137,50.97,149.15,55.227z"/>
</g>
</svg>
