<?xml version="1.0" encoding="utf-8"?>
<!-- Generator: Adobe Illustrator 26.0.1, SVG Export Plug-In . SVG Version: 6.00 Build 0)  -->
<svg version="1.1" id="Layer_1" xmlns="http://www.w3.org/2000/svg" xmlns:xlink="http://www.w3.org/1999/xlink" x="0px" y="0px"
	 viewBox="0 0 1080 1080" enable-background="new 0 0 1080 1080" xml:space="preserve">
<g>
	<g>
		<path d="M357.847,510.088c-8.231-0.911-16.268,0.251-24.438-0.696c0-14.493,0-28.686,0-43.293c1.363-0.216,2.664-0.584,3.968-0.6
			c5.407-0.067,10.815-0.027,16.223-0.027c1.248,0,2.496,0,4.076,0c0.166-1.281,0.344-2.253,0.41-3.232
			c0.424-6.304,0.467-12.658,1.301-18.906c2.125-15.919,9.205-29.022,23.001-37.91c6.573-4.235,13.891-6.672,21.586-7.767
			c5.906-0.84,11.875-1.654,17.82-1.686c6.761-0.037,13.53,0.765,20.289,1.283c7.449,0.572,14.895,1.199,22.336,1.875
			c4.328,0.393,8.643,0.927,12.754,1.375c1.03,2.78,1.328,38.088,0.433,43.062c-1.051,0.129-2.252,0.481-3.416,0.385
			c-9.508-0.784-19-1.793-28.517-2.415c-3.155-0.206-6.478,0.111-9.531,0.921c-3.535,0.937-6.236,3.361-7.743,6.868
			c-2.148,4.998-2.4,10.162-1.628,15.777c1.533,0.135,2.863,0.351,4.193,0.354c11.506,0.027,23.012,0.004,34.518,0.03
			c1.336,0.003,2.671,0.218,3.865,0.322c0.927,2.93,1.042,39.96,0.15,43.619c-1.196,0.101-2.522,0.308-3.848,0.311
			c-11.161,0.026-22.322,0.007-33.483,0.024c-1.359,0.002-2.718,0.134-4.528,0.229c-0.133,1.736-0.354,3.278-0.355,4.82
			c-0.02,32.894-0.015,65.789-0.015,98.683c0,6.326,0.012,12.652-0.011,18.978c-0.004,1.232-0.146,2.463-0.216,3.564
			c-3.407,1.087-65.61,1.005-68.688-0.126c-0.082-1.406-0.254-2.975-0.254-4.544c-0.014-38.875-0.008-77.75-0.02-116.626
			C358.079,513.282,357.937,511.823,357.847,510.088z"/>
	</g>
	<g>
		<path d="M1037.363,539.612c-3.681,1.229-51.724,1.155-54.93-0.091c-0.081-1.302-0.251-2.758-0.252-4.215
			c-0.016-27.49,0.005-54.98-0.037-82.47c-0.004-2.63-0.099-5.317-0.628-7.879c-1.674-8.111-8.553-11.913-16.456-9.296
			c-7.701,2.55-12.208,9.55-11.6,17.945c0.166,2.29,0.29,4.589,0.292,6.884c0.021,24.959,0.019,49.919,0.004,74.878
			c-0.001,1.351-0.174,2.703-0.29,4.389c-1.488,0.258-2.796,0.679-4.105,0.683c-15.649,0.045-31.298,0.042-46.947,0.001
			c-1.33-0.004-2.658-0.372-4.464-0.643c0-62.555-0.002-124.857,0.021-187.16c0-0.874,0.318-1.749,0.464-2.5
			c2.791-0.774,47.52-1.07,54.013-0.424c1.429,1.146,1.311,2.812,1.311,4.403c0.004,18.748-0.014,37.496-0.014,56.245
			c0,0.739,0.112,1.479,0.216,2.758c0.979-0.804,1.607-1.215,2.107-1.746c6.965-7.401,15.322-12.518,25.257-14.691
			c6.081-1.33,12.314-1.505,18.544-0.86c5.407,0.559,10.675,1.675,15.671,3.844c9.95,4.319,16.031,12.021,19.215,22.202
			c1.829,5.848,2.804,11.824,2.807,17.97c0.018,32.32,0.074,64.641,0.1,96.961C1037.662,537.694,1037.476,538.59,1037.363,539.612z"
			/>
	</g>
	<g>
		<path d="M648.684,480.839c-1.797,10.421,3.183,20.581,11.53,23.617c6.362,2.314,12.916,2.213,19.278-0.106
			c5.218-1.902,8.363-5.868,9.953-11.142c0.42-1.392,1.041-2.723,1.493-3.884c4.27-0.669,49.069,2.591,51.581,3.73
			c0.024,3.348-1.43,6.381-2.699,9.387c-7.69,18.217-21.435,30.049-39.999,35.915c-23.151,7.315-46.411,6.794-68.877-2.673
			c-19.577-8.25-32.076-23.268-38.358-43.569c-3.055-9.873-3.812-20.02-2.439-30.042c3.961-28.922,18.146-50.551,46.363-61.21
			c13.007-4.913,26.536-6.191,40.383-4.81c11.733,1.17,22.8,4.279,32.911,10.409c13.397,8.123,22.585,19.741,27.944,34.384
			c4.363,11.92,5.787,24.31,5.445,36.94c-0.018,0.666-0.247,1.326-0.471,2.462c-1.525,0.125-3.069,0.359-4.614,0.361
			c-28.307,0.022-56.615,0.013-84.922,0.025C651.728,480.632,650.266,480.763,648.684,480.839z M686.228,451.869
			c1.58-8.211-1.979-17.074-8.046-20.686c-5.561-3.311-16.568-3.774-22.845,1.327c-4.988,4.053-8.381,13.722-6.501,19.359
			C661.207,451.869,673.649,451.869,686.228,451.869z"/>
	</g>
	<g>
		<path d="M843.449,440.845c-4.077-7.263-10.042-10.388-17.356-11.569c-6.727-1.086-13.281-0.691-19.68,1.65
			c-2.215,0.81-4.108,2.084-4.791,4.637c0.418,3.384,2.646,5.388,5.704,6.119c5.012,1.197,10.095,2.214,15.205,2.857
			c11.746,1.477,23.576,2.425,35.03,5.634c10.919,3.059,20.349,8.489,27.028,17.948c6.85,9.7,8.907,20.474,7.052,32.113
			c-2.473,15.515-11.766,25.817-25.231,32.823c-9.7,5.047-20.171,7.564-30.973,8.948c-8.944,1.146-17.916,1.206-26.866,0.626
			c-11.086-0.718-21.822-3.079-31.889-8.059c-14.124-6.988-23.549-18.057-28.884-32.755c-0.151-0.415-0.138-0.889-0.193-1.277
			c1.057-1.719,2.811-1.65,4.34-1.853c12.301-1.642,24.611-3.217,36.921-4.791c0.776-0.099,1.575-0.013,2.461-0.013
			c0.473,0.727,1.05,1.331,1.305,2.049c2.023,5.715,6.341,8.926,11.862,10.625c7.234,2.226,14.695,2.715,22.191,1.952
			c3.406-0.347,6.837-0.997,10.096-2.019c1.728-0.542,3.401-1.938,4.586-3.372c1.713-2.074,1.47-4.101-0.665-5.733
			c-1.692-1.293-3.713-2.47-5.76-2.924c-5.26-1.167-10.599-2.009-15.935-2.791c-14.91-2.184-29.86-4.224-43.509-11.215
			c-11.467-5.874-18.893-15.077-20.935-27.86c-2.88-18.019,2.863-32.89,17.756-43.804c7.999-5.862,17.035-9.385,26.778-11.276
			c12.205-2.368,24.502-2.786,36.725-0.995c15.699,2.3,29.972,7.953,40.821,20.264c3.536,4.012,6.171,8.564,8.245,13.462
			c0.22,0.519,0.343,1.086,0.446,1.643c0.037,0.198-0.119,0.431-0.328,1.098c-6.594,1.804-13.615,2.759-20.544,4.108
			C857.508,438.447,850.582,440.037,843.449,440.845z"/>
	</g>
	<g>
		<path d="M552.733,539.452c-3.7,1.371-51.798,1.349-54.808,0.208c-0.764-2.566-0.905-137.087-0.06-140.93
			c1.074-0.132,2.28-0.406,3.487-0.409c13.115-0.03,26.23-0.026,39.346-0.003c1.109,0.002,2.218,0.201,3.755,0.351
			c0.357,8.399-0.033,16.575,0.787,24.749c1.578-3.644,2.94-7.4,4.777-10.909c3.805-7.266,9.261-12.91,17.286-15.439
			c4.604-1.451,9.339-2.44,14.258-1.669c2.453,0.384,4.935,0.585,7.207,0.846c0.957,3.285,0.995,46.168,0.067,49.639
			c-1.102-0.088-2.321-0.039-3.469-0.302c-6.233-1.423-12.416-0.817-18.432,0.863c-7.096,1.982-11.171,7.131-12.628,14.167
			c-0.857,4.139-1.409,8.416-1.443,12.637c-0.165,20.584-0.109,41.169-0.13,61.754C552.732,536.475,552.733,537.945,552.733,539.452
			z"/>
	</g>
	<g>
		<path d="M566.806,577.266c4.589-1.476,8.964-0.623,13.597-0.61c0.206,1.648,0.49,2.864,0.491,4.081
			c0.024,31.624,0.102,63.248-0.041,94.872c-0.037,8.144-0.541,16.317-3.182,24.163c-2.299,6.832-5.651,12.795-12.585,16.033
			c-12.103,5.651-26.246,0.407-31.463-11.858c-2.674-6.287-4.151-12.911-4.397-19.736c-0.228-6.318-0.21-12.647-0.214-18.971
			c-0.02-27.944-0.009-55.888-0.009-83.832c0-1.357,0-2.714,0-4.391c4.728-0.833,9.065-0.797,13.734-0.037
			c0.106,1.693,0.276,3.145,0.277,4.597c0.015,31.279,0.012,62.558,0.011,93.837c0,4.951,0.034,9.903,1.461,14.704
			c0.489,1.644,0.976,3.327,1.763,4.837c3.595,6.892,13.175,7.157,16.88,0.556c2.134-3.803,2.898-7.978,3.252-12.234
			c0.219-2.631,0.213-5.285,0.214-7.928c0.013-31.164,0.006-62.328,0.017-93.492C566.612,580.387,566.733,578.918,566.806,577.266z"
			/>
	</g>
	<g>
		<path d="M442.882,672.185c4.332-0.936,8.606-0.517,13.348-0.264c0.158,2.292,0.349,4.306,0.426,6.324
			c0.18,4.727,0.664,9.399,2.356,13.862c2.022,5.334,5.732,8.055,10.779,8.1c3.518,0.031,6.47-1.288,8.16-4.26
			c1.563-2.749,2.806-5.799,3.548-8.871c1.603-6.636,0.874-13.291-1.226-19.713c-1.518-4.643-4.665-8.047-9.028-10.437
			c-4.427-2.425-8.814-4.971-12.981-7.812c-7.299-4.976-11.488-12.149-13.22-20.683c-2.367-11.665-2.249-23.336,1.215-34.789
			c2.368-7.829,6.45-14.486,14.328-18.037c11.756-5.299,24.631-0.603,29.755,11.16c3.509,8.056,4.128,16.654,3.6,25.348
			c-0.019,0.316-0.268,0.619-0.565,1.264c-3.999,0.909-8.167,0.44-12.686,0.265c-0.234-1.401-0.434-2.59-0.63-3.78
			c-0.654-3.951-1.024-7.976-2.035-11.833c-1.097-4.184-4.237-6.544-8.545-6.885c-4.456-0.352-7.431,2.077-9.209,5.932
			c-2.675,5.799-3.084,11.939-2.359,18.211c0.89,7.707,4.581,13.588,11.252,17.609c3.937,2.373,7.826,4.827,11.733,7.249
			c7.228,4.48,11.795,11.013,13.62,19.168c3.016,13.47,2.727,26.987-1.466,40.188c-2.135,6.722-6.041,12.484-12.679,15.672
			c-10.695,5.137-26.694,4.642-33.611-13.041c-3.57-9.128-4.438-18.725-4.339-28.44
			C442.425,673.364,442.614,673.038,442.882,672.185z"/>
	</g>
	<g>
		<path d="M1020.607,613.595c-0.159-1.809-0.298-3.256-0.412-4.705c-0.306-3.891-0.48-7.803-2.138-11.444
			c-1.762-3.869-4.524-6.339-8.984-6.35c-4.342-0.011-7.261,2.378-8.725,6.161c-3.364,8.689-3.537,17.541,0.057,26.209
			c1.92,4.631,5.85,7.595,9.998,10.181c2.633,1.642,5.299,3.236,7.998,4.767c9.02,5.115,14.893,12.565,16.649,22.882
			c2.386,14.019,2.403,27.945-3.144,41.339c-6.519,15.741-23.706,18.207-34.245,12.613c-5.502-2.92-8.651-7.858-10.87-13.364
			c-3.63-9.008-4.309-18.508-3.983-28.112c0.015-0.431,0.281-0.854,0.535-1.583c4.198-0.905,8.447-0.631,13.094-0.128
			c0.141,1.674,0.334,3.111,0.371,4.551c0.138,5.423,0.516,10.815,2.563,15.911c1.807,4.497,4.894,7.424,10.029,7.675
			c4.083,0.2,7.29-1.463,9.215-4.924c1.43-2.572,2.712-5.431,3.163-8.303c1.022-6.509,0.972-13.092-1.198-19.438
			c-1.589-4.647-4.678-8.08-9.012-10.459c-3.725-2.045-7.434-4.139-11.015-6.423c-9.064-5.78-14.051-14.129-15.838-24.708
			c-1.555-9.207-1.409-18.325,0.347-27.421c1.142-5.916,3.287-11.516,7.134-16.262c6.334-7.814,14.693-9.931,24.18-7.844
			c8.738,1.923,13.049,8.351,15.6,16.353c2.055,6.446,1.897,13.161,2.532,19.78c0.146,1.522-0.356,2.966-2.015,3.116
			C1028.634,614.015,1024.758,613.994,1020.607,613.595z"/>
	</g>
	<g>
		<path d="M851.466,317.6c9.016,3.636,17.272,7.02,26.328,4.063c5.259-1.717,10.452-3.666,14.78-7.264
			c2.754-2.289,4.957-5.057,6.613-8.641c-0.88-0.231-1.58-0.512-2.302-0.589c-5.508-0.591-10.925-1.515-16.033-3.815
			c-3.37-1.517-5.266-3.771-4.981-7.738c0.588-8.203,2.681-15.842,7.784-22.439c1.048-1.354,2.26-2.626,3.578-3.717
			c3.708-3.074,7.785-3.213,11.176,0.193c2.469,2.48,4.611,5.475,6.188,8.599c1.688,3.344,2.549,7.106,3.754,10.691
			c0.288,0.855,0.513,1.732,0.733,2.484c3.221,0.893,46.164,0.855,49.358-0.101c-0.927-4.714-4.07-8.24-6.96-12.26
			c2.592-3.489,5.103-6.868,7.894-10.626c0.956,0.801,1.931,1.273,2.37,2.049c1.466,2.59,3.048,5.182,4.016,7.971
			c1.462,4.209,2.445,8.585,3.646,12.942c2.447,0.84,36.236,0.987,40.026,0.055c0.086-0.984,0.263-2.089,0.266-3.193
			c0.021-8.743,0.088-17.486-0.045-26.227c-0.036-2.381-0.581-4.782-1.119-7.122c-0.674-2.932-0.047-5.106,2.685-6.702
			c2.026-1.183,3.85-2.712,6.371-4.523c0.591,2.944,0.716,5.26,1.556,7.277c0.858,2.057,2.419,3.821,3.837,5.961
			c-0.301,0.787-0.516,1.828-1.05,2.664c-1.945,3.042-2.321,6.343-2.277,9.88c0.127,10.236,0.046,20.475,0.046,30.714
			c0,5.586-0.282,5.887-5.8,5.888c-33.603,0.005-67.207-0.001-100.81,0.013c-1.58,0.001-3.16,0.158-4.83,0.247
			c-1.176,3.128-2.036,6.126-3.391,8.881c-3.827,7.784-8.174,15.204-15.781,20.058c-5.924,3.78-12.081,3.978-18.458,1.392
			c-4.957-2.011-9.356-4.959-13.365-8.437c-1.711-1.484-3.078-3.392-4.458-5.216C852.264,320.287,852.103,319.269,851.466,317.6z
			 M899.218,290.913c-1.11-4.277-5.026-8.799-8.188-9.946c-0.322-0.117-0.652-0.225-0.987-0.293
			c-2.607-0.528-5.124,1.182-5.912,4.005c-0.709,2.541-0.123,3.533,3.225,4.509c2.851,0.831,5.779,1.424,8.701,1.976
			C896.963,291.336,897.961,291.029,899.218,290.913z"/>
	</g>
	<g>
		<path d="M920.696,652.484c-0.928,3.353-0.956,39.711-0.091,43.051c1.11,0.078,2.335,0.235,3.56,0.239
			c8.053,0.022,16.105,0,24.157,0.023c1.225,0.004,2.45,0.167,3.536,0.246c1.012,3.069,1.058,15.337,0.07,18.702
			c-0.816,0.128-1.794,0.414-2.774,0.416c-13.459,0.029-26.918,0.021-40.377,0.008c-0.674-0.001-1.348-0.141-2.282-0.245
			c-0.28-0.852-0.663-1.668-0.799-2.524c-0.143-0.899-0.059-1.835-0.059-2.755c-0.001-42.661-0.003-85.322,0.009-127.983
			c0-1.464,0.145-2.928,0.237-4.663c5.209-1.035,10.246-0.388,15.236-0.501c5.059-0.115,10.125-0.119,15.184,0.001
			c4.998,0.119,10.045-0.565,15.251,0.526c0,6.049,0,11.85,0,18.161c-1.459,0.208-2.865,0.57-4.273,0.581
			c-7.592,0.057-15.185,0.026-22.777,0.025c-1.249,0-2.497,0-3.604,0c-1.067,2.601-1.41,31.593-0.493,37.064
			c1.086,0.099,2.288,0.299,3.49,0.305c7.017,0.03,14.034-0.011,21.051,0.034c1.444,0.009,2.886,0.284,4.169,0.419
			c0.965,3.377,0.933,15.297-0.036,18.42c-4.599,0.946-9.412,0.31-14.178,0.426C930.204,652.573,925.498,652.484,920.696,652.484z"
			/>
	</g>
	<g>
		<path d="M713.12,658.022c-0.138,1.936-0.316,3.272-0.317,4.609c-0.019,15.748-0.011,31.495-0.012,47.243
			c0,0.805,0,1.609-0.022,2.413c-0.049,1.76-0.888,2.87-2.712,2.898c-3.544,0.054-7.089,0.016-11.145,0.016
			c-0.181-1.819-0.463-3.344-0.465-4.87c-0.027-25.058-0.019-50.116-0.019-75.175c0-17.932-0.004-35.863,0.008-53.795
			c0.001-1.352,0.124-2.705,0.207-4.403c1.557-0.181,2.872-0.458,4.188-0.466c7.129-0.044,14.264,0.147,21.387-0.063
			c9.134-0.269,15.26,4.09,19.353,11.863c2.275,4.321,3.471,8.997,4.192,13.788c1.831,12.174,1.764,24.284-1.653,36.213
			c-1.538,5.369-4.036,10.249-8.1,14.201c-3.716,3.614-8.203,5.423-13.362,5.513C720.987,658.074,717.325,658.022,713.12,658.022z
			 M712.966,640.068c0.71,0.278,1.02,0.499,1.337,0.508c1.953,0.055,3.908,0.088,5.862,0.08c6.314-0.027,10.099-2.567,12.238-8.601
			c3.333-9.404,3.148-18.968,0.63-28.503c-0.86-3.258-2.462-6.229-5.591-7.994c-4.597-2.592-9.457-1.802-14.477-1.456
			C712.966,609.649,712.966,624.789,712.966,640.068z"/>
	</g>
	<g>
		<path d="M616.926,576.929c1.063-0.131,2.383-0.425,3.703-0.433c7.128-0.047,14.26,0.131,21.383-0.06
			c9.76-0.262,16.022,4.567,19.932,13.071c2.923,6.358,4.11,13.133,4.523,20.048c0.613,10.258,0.295,20.446-3.077,30.305
			c-1.615,4.721-3.853,9.086-7.503,12.611c-3.729,3.601-8.193,5.428-13.351,5.544c-2.758,0.062-5.52-0.042-8.277,0.041
			c-1.191,0.036-2.373,0.355-3.674,0.563c0,9.68,0.075,18.969-0.021,28.257c-0.096,9.252,0.427,18.525-0.344,28.151
			c-4.7,0.271-8.973,0.427-12.916-0.071c-0.414-0.421-0.505-0.495-0.572-0.587c-0.067-0.091-0.133-0.195-0.16-0.303
			c-0.11-0.441-0.292-0.887-0.293-1.331c-0.019-44.36-0.025-88.721-0.024-133.082c0-0.571,0.07-1.145,0.154-1.711
			C616.442,577.73,616.609,577.536,616.926,576.929z M630.832,640.66c2.775,0,5.049,0.013,7.323-0.002
			c6.266-0.042,10.769-3.209,12.411-9.308c1.035-3.845,1.816-7.852,1.971-11.816c0.223-5.707,0.041-11.475-1.942-16.976
			c-1.391-3.859-3.751-6.933-7.786-8.15c-3.883-1.171-7.87-0.6-11.977-0.436C630.832,609.645,630.832,624.841,630.832,640.66z"/>
	</g>
	<g>
		<path d="M478.428,251.066c2.862-3.341,5.669-6.072,9.007-8.329c2.63,2.285,0.963,5.19,2.333,7.792
			c1.127,1.066,2.607,2.465,4.299,4.065c-0.811,1.417-1.404,2.779-2.284,3.918c-1.564,2.023-2.104,4.217-2.035,6.751
			c0.128,4.711,0.027,9.427,0.047,14.141c0.005,1.121,0.112,2.241,0.209,4.055c1.316-0.759,2.14-1.212,2.943-1.701
			c5.783-3.52,11.465-7.219,17.371-10.518c4.867-2.719,10.017-2.267,14.932,0.108c6.41,3.098,8.867,8.602,8.693,15.536
			c-0.02,0.784-0.136,1.565-0.248,2.799c6.626,0.728,13.08,0.253,19.877,0.338c0.139-1.441,0.333-2.539,0.336-3.637
			c0.023-8.853,0.113-17.709-0.052-26.559c-0.051-2.718-0.727-5.445-1.31-8.125c-0.453-2.086,0.106-3.524,1.87-4.712
			c1.616-1.089,3.055-2.437,4.638-3.578c0.693-0.5,1.552-0.769,2.761-1.345c1.259,4.659,0.795,9.729,5.621,12.184
			c-0.557,1.453-0.782,2.482-1.306,3.327c-1.826,2.946-2.308,6.097-2.261,9.54c0.144,10.576,0.062,21.155,0.049,31.733
			c-0.006,4.473-0.724,5.207-5.213,5.221c-8.857,0.026-17.714,0.07-26.57-0.043c-1.868-0.024-3.727-0.691-6.344-1.212
			c-3.35,1.673-7.755,1.254-12.106,1.256c-18.864,0.012-37.73-0.151-56.591,0.07c-9.614,0.113-11.385-2.309-11.309-11.544
			c0.102-12.417,0.182-24.838-0.064-37.251c-0.081-4.091,1.005-7.106,4.395-9.372c1.678-1.122,3.201-2.477,5.472-4.257
			c0.237,2.09,0.504,3.363,0.508,4.637c0.031,12.303,0.018,24.605,0.018,36.908c0,0.69-0.006,1.38,0.001,2.07
			c0.041,4.181,0.55,4.71,4.841,4.715c4.37,0.005,8.745,0.042,13.109-0.146c2.123-0.091,4.405-0.036,6.419-1.901
			c0.055-1.037,0.173-2.277,0.178-3.518c0.022-4.829-0.001-9.658,0.01-14.487C480.686,263.684,481.126,257.333,478.428,251.066z
			 M526.037,289.941c0.884-2.444-0.051-3.809-1.558-4.556c-6.258-3.101-12.705-5.704-19.68-2.41
			c-4.548,2.147-8.899,4.712-13.317,7.128c-0.316,0.173-0.457,0.663-0.821,1.224c0.752,0.274,1.258,0.612,1.77,0.622
			c9.859,0.185,19.734,0.866,29.552-0.589C523.493,291.136,524.919,290.344,526.037,289.941z"/>
	</g>
	<g>
		<g>
			<path fill="#09A254" d="M175.239,475.848c-1.308-1.678-0.654-2.685,0.235-3.67c4.079-4.521,8.138-9.061,12.234-13.566
				c9.43-10.372,18.895-20.713,28.307-31.101c2.549-2.814,2.469-5.669-0.036-7.866c-2.061-1.807-4.163-1.77-6.073,0.259
				c-2.52,2.677-4.96,5.43-7.424,8.16c-5.62,6.225-11.215,12.474-16.859,18.677c-3.481,3.826-7.018,7.6-10.568,11.362
				c-0.802,0.85-1.62,2.087-3.499,0.611c0.905-1.316,1.638-2.704,2.665-3.821c6.535-7.107,13.144-14.146,19.71-21.224
				c5.549-5.982,11.084-11.978,16.596-17.994c0.929-1.014,1.797-2.107,2.539-3.262c1.055-1.643,0.915-4.013-0.156-5.174
				c-1.252-1.357-3.687-1.861-5.403-0.704c-1.888,1.273-3.665,2.79-5.233,4.444c-4.187,4.42-8.217,8.989-12.344,13.466
				c-5.92,6.422-11.855,12.832-17.829,19.205c-0.854,0.911-1.599,2.254-4.052,1.965c1.408-1.852,2.361-3.329,3.53-4.609
				c8.29-9.082,16.639-18.11,24.935-27.187c3.565-3.901,7.081-7.847,10.548-11.835c1.401-1.612,3.022-2.185,5.15-2.183
				c37.631,0.037,75.262,0.011,112.892,0.013c1.112,0,2.225,0.148,3.842,0.263c0,49.646,0,99.013,0,148.715
				c-3.665-0.624-6.683-1.393-9.738-1.589c-3.407-0.218-6.87-0.126-10.269,0.215c-4.403,0.442-8.143,2.78-11.234,5.679
				c-7.37,6.911-14.836,13.791-21.519,21.342c-7.905,8.932-14.984,18.591-22.523,27.853c-1.589,1.952-3.048,4.585-6.971,3.419
				c-0.537-1.2-1.321-2.692-1.879-4.264c-0.921-2.594-1.451-5.351-2.589-7.836c-1.82-3.975-4.818-4.562-7.928-1.465
				c-4.641,4.62-9.136,9.399-13.493,14.289c-5.577,6.259-10.999,12.658-16.409,19.063c-9.412,11.143-18.764,22.337-28.143,33.508
				c-3.693,4.398-7.372,8.809-11.101,13.176c-0.967,1.132-2.009,2.239-3.176,3.154c-2.046,1.606-3.811,1.427-5.379-0.623
				c-0.963-1.259-1.507-2.829-2.373-4.172c-1.358-2.105-2.605-4.351-4.312-6.144c-1.958-2.057-3.707-1.911-6.233-0.579
				c-3.915,2.064-6.264,5.704-9.07,8.854c-5.423,6.089-10.688,12.32-15.987,18.519c-5.896,6.898-11.856,13.744-17.581,20.782
				c-2.154,2.647-4.536,3.914-7.944,3.899c-15.996-0.071-31.992-0.01-47.988-0.014c-0.991,0-1.982-0.158-3.341-0.273
				c0.407-0.963,0.52-1.663,0.919-2.106c5.384-5.976,10.765-11.957,16.241-17.849c2.996-3.224,4.988-3.122,7.909,0.293
				c1.189,1.39,2.108,3.007,3.178,4.5c0.735,1.025,1.431,2.099,2.3,3.002c2.229,2.315,3.868,2.564,6.367,0.706
				c1.925-1.431,3.792-3.022,5.374-4.817c7.139-8.099,14.195-16.273,21.228-24.465c6.135-7.146,12.188-14.361,18.297-21.528
				c7.153-8.392,14.324-16.769,21.502-25.141c0.747-0.872,1.56-1.695,2.4-2.478c2.028-1.889,3.688-2.121,5.776-0.292
				c1.52,1.332,2.715,3.082,3.87,4.772c3.715,5.436,5.256,5.547,9.61,0.647c9.921-11.165,19.827-22.343,29.818-33.445
				c7.302-8.114,14.711-16.132,22.111-24.158c5.686-6.167,11.425-12.287,17.161-18.409c0.783-0.836,1.627-1.637,2.539-2.326
				c2.676-2.021,4.644-1.793,6.846,0.806c0.662,0.781,1.131,1.725,1.687,2.594c2.584,4.037,4.609,4.384,8.408,1.398
				c1.265-0.994,2.544-1.986,3.702-3.097c14.877-14.276,29.026-29.164,40.112-46.71c8.185-12.954,14.443-26.711,17.127-41.836
				c2.043-11.514,1.947-23.11-1.181-34.493c-0.625-2.275-1.685-4.569-3.075-6.465c-2.139-2.916-5.069-3.023-7.719-0.556
				c-2.187,2.035-4.263,4.2-6.277,6.409c-6.192,6.793-12.342,13.624-18.486,20.461c-7.449,8.29-14.85,16.623-22.319,24.895
				c-5.545,6.141-11.116,12.26-16.771,18.301c-3.172,3.389-6.267,2.876-8.403-1.278c-0.838-1.63-1.416-3.392-2.175-5.066
				c-0.472-1.041-0.956-2.104-1.619-3.024c-1.862-2.584-4.077-3.146-6.907-1.793c-0.818,0.391-1.645,0.887-2.274,1.525
				c-3.954,4.011-7.894,8.037-11.757,12.134c-3.153,3.344-6.193,6.793-9.282,10.196c-9.498,10.466-19.025,20.906-28.484,31.406
				c-7.151,7.938-14.202,15.966-21.335,23.921c-0.888,0.99-2.001,1.778-3.368,2.972c-1.293-1.361-2.383-2.469-3.427-3.619
				c-1.002-1.103-1.874-2.335-2.946-3.361c-2.453-2.35-5.753-2.515-8.442-0.469c-0.818,0.623-1.557,1.37-2.252,2.133
				c-6.343,6.966-12.667,13.949-18.999,20.925c-2.472,2.723-4.928,5.46-7.426,8.159c-6.48,7.001-13.014,13.953-19.462,20.984
				c-8.466,9.23-16.861,18.525-25.315,27.766c-0.734,0.802-1.685,1.406-2.394,1.986c-1.978-0.811-1.94-2.229-2.075-3.617
				c-0.456-4.712-2.112-6.249-6.801-6.419c-1.36-0.049-2.719-0.119-4.378-0.192c-0.173-1.191-0.438-2.172-0.441-3.154
				c-0.028-11.963,0.002-23.927-0.04-35.89c-0.006-1.716,0.481-3.07,1.647-4.353c1.541-1.697,2.809-3.641,4.335-5.353
				c0.954-1.07,2.167-1.909,3.016-2.638c2.548,0.422,3.67,1.851,4.755,3.375c1.866,2.62,3.732,5.242,5.691,7.792
				c1.847,2.404,3.548,2.955,6.342,1.785c1.545-0.647,3.111-1.608,4.239-2.825c4.766-5.135,9.416-10.379,14.021-15.659
				c4.907-5.626,9.716-11.339,14.567-17.014c6.269-7.334,12.546-14.663,18.805-22.006c6.484-7.606,12.93-15.244,19.438-22.828
				c2.017-2.351,4.495-2.484,6.969-0.328c1.991,1.735,3.963,3.547,5.64,5.576c2.303,2.787,5.924,2.48,8.082,0.041
				c3.425-3.871,7.029-7.584,10.479-11.434c4.676-5.218,9.284-10.496,13.912-15.757c6.222-7.073,12.419-14.167,18.656-21.226
				c6.009-6.803,12.087-13.546,18.064-20.376c1.658-1.894,3.28-3.884,4.528-6.054c1.204-2.096,1.984-4.477,0.173-6.785
				c-2.271-2.894-5.736-3.128-8.739-0.332c-3.028,2.821-5.935,5.783-8.766,8.804c-4.163,4.443-8.193,9.01-12.313,13.494
				c-5.52,6.009-11.063,11.997-16.624,17.968C176.814,474.847,176.093,475.221,175.239,475.848z"/>
		</g>
		<g>
			<path fill="#09A254" d="M40.606,400.6c3.49-1.058,146.536-1.019,149.46-0.023c-0.278,0.601-0.428,1.282-0.831,1.742
				c-7.11,8.127-14.277,16.203-21.376,24.339c-6.72,7.702-13.34,15.492-20.073,23.183c-3.481,3.976-7.096,7.836-10.688,11.714
				c-0.935,1.009-2.141,2.333-3.506,1.465c-0.973-0.618-1.653-2.117-1.921-3.341c-0.686-3.134-1.044-6.339-1.593-9.505
				c-0.135-0.78-0.42-1.558-0.769-2.272c-1.649-3.374-4.714-4.221-7.668-1.894c-1.883,1.484-3.549,3.282-5.138,5.093
				c-7.195,8.203-14.303,16.482-21.492,24.691c-5.677,6.482-11.428,12.899-17.141,19.348c-6.703,7.566-13.347,15.186-20.125,22.685
				c-3.23,3.574-6.687,6.946-10.099,10.351c-0.716,0.714-1.619,1.341-2.553,1.715c-2.357,0.944-4.099-0.084-4.541-2.61
				c-0.157-0.897-0.112-1.834-0.112-2.753c-0.004-40.028-0.005-80.056,0.004-120.084C40.444,403.194,40.547,401.946,40.606,400.6z"
				/>
		</g>
		<g>
			<path fill="#09A254" d="M328.404,599.622c0.795,3.343,0.721,112.799-0.014,115.501c-2.421,0.867-123.514,1.105-127.807,0.148
				c0.47-0.832,0.757-1.651,1.295-2.244c5.401-5.953,10.863-11.851,16.268-17.8c8.262-9.092,16.47-18.231,24.746-27.309
				c3.637-3.989,7.352-7.908,11.093-11.8c3.004-3.124,6.788-4.672,11.068-4.946c11.84-0.756,21.891-5.828,30.927-13.072
				c12.791-10.254,22.784-22.922,31.08-36.984c0.175-0.297,0.343-0.602,0.556-0.87C327.752,600.075,327.964,599.964,328.404,599.622
				z"/>
		</g>
		<g>
			<path fill="#09A254" d="M1039.917,553.913c-0.22,1.732-0.444,3.504-0.697,5.5c-1.016,0.22-1.872,0.523-2.741,0.567
				c-1.721,0.087-3.45,0.033-5.176,0.033c-194.101,0-388.201,0.001-582.302-0.009c-1.793,0-3.585-0.139-5.668-0.225
				c0-2.306,0-4.171,0-6.27c1.057-0.197,1.919-0.431,2.795-0.501c1.029-0.083,2.069-0.025,3.105-0.025
				c194.906,0,389.812-0.002,584.718,0.018C1035.851,553.001,1037.861,552.55,1039.917,553.913z"/>
		</g>
		<g>
			<path fill="#09A254" d="M616.587,737.949c0-2.725,0-4.723,0-6.964c1.037-0.191,1.9-0.423,2.776-0.492
				c1.029-0.082,2.069-0.026,3.105-0.026c137.482-0.001,274.963-0.002,412.445,0.009c1.572,0,3.144,0.146,4.903,0.234
				c0,2.226,0,4.132,0,6.413c-0.887,0.258-1.813,0.652-2.774,0.773c-1.134,0.142-2.297,0.054-3.447,0.054
				c-137.136,0.001-274.273,0.001-411.41,0.001C620.489,737.949,618.793,737.949,616.587,737.949z"/>
		</g>
	</g>
	<g>
		<path d="M793.197,695.867c11.012,0,21.305,0,31.397,0c1.296,3.388,1.281,15.882,0.166,18.721
			c-2.973,0.868-42.089,0.829-44.912-0.045c-0.905-2.572-1.049-134.032-0.064-137.637c4.167-0.725,8.43-0.602,13.101-0.016
			c0.114,1.758,0.302,3.312,0.302,4.866c0.016,36.334,0.011,72.667,0.01,109.001C793.197,692.219,793.197,693.682,793.197,695.867z"
			/>
	</g>
	<g>
		<path d="M393.81,303.707c-1.945,0.164-3.174,0.357-4.404,0.358c-24.395,0.017-48.79,0.013-73.186,0.008
			c-0.92,0-1.841-0.034-2.76-0.08c-2.674-0.135-4.65-1.321-5.471-3.951c-0.682-2.184-1.203-4.418-1.775-6.635
			c-0.302-1.171-0.562-2.354-1.008-4.24c-2.146,2.584-3.916,4.505-5.439,6.605c-1.744,2.403-3.844,3.065-6.612,2.089
			c-3.466-1.223-7.012-2.234-10.436-3.561c-3.734-1.447-4.639-3.433-3.239-7.022c1.378-3.532,2.992-6.972,4.507-10.451
			c2.375-5.455,7.325-7.313,12.469-8.865c1.958-0.59,3.953-1.053,5.872-1.559c0.898-2.713-0.883-5.747,1.739-7.714
			c2.126-1.595,3.465-4.26,6.825-5.024c0.074,1.483,0.184,2.692,0.186,3.902c0.014,8.857-0.004,17.714,0.01,26.571
			c0.008,5.077,0.82,5.909,5.733,5.917c15.65,0.026,31.299,0.042,46.949,0.062c1.126,0.001,2.251,0,3.502,0
			c-1.074-3.215-9.144-9.43-14.326-11.463c-6.183-2.427-11.971,0.076-18.257,1.52c0.081-0.998-0.077-1.822,0.229-2.401
			c4.473-8.461,12.49-10.889,21.038-9.197c6.372,1.261,11.693,4.646,16.614,8.733c2.211,1.836,4.449,3.642,6.668,5.469
			c3.318,2.733,6.984,4.822,11.069,6.211c3.322,1.129,3.476,1.424,3.5,4.982C393.826,297.045,393.81,300.119,393.81,303.707z
			 M303.727,272.008c-6.466,1.115-11.472,3.648-16.462,7.727c4.515,2.454,8.383,4.859,13.027,5.449
			c1.588,0.202,3.271,0.259,4.181-1.71C304.243,279.933,304.007,276.307,303.727,272.008z"/>
	</g>
	<g>
		<path d="M856.001,576.928c4.606-0.734,8.766-0.559,13.255-0.179c0.184,1.469,0.466,2.675,0.467,3.88
			c0.023,43.449,0.023,86.899,0.002,130.348c0,1.218-0.256,2.436-0.43,3.987c-4.437,0.488-8.595,0.269-13.058,0.115
			c-0.205-1.579-0.499-2.785-0.5-3.992c-0.023-43.564-0.021-87.129-0.008-130.693C855.729,579.384,855.883,578.374,856.001,576.928z
			"/>
	</g>
	<g>
		<path d="M738.99,286.072c0.122,1.287,0.188,2.408,0.342,3.518c0.367,2.659,1.651,4,4.282,4.724
			c4.967,1.367,9.82,0.22,14.675-0.651c1.56-0.28,3.065-0.866,5.057-1.447c-0.916-7.243-4.16-13.281-8.481-19.152
			c1.473-3.778,3.571-7.209,6.179-11.029c1.162,1.319,2.084,2.133,2.724,3.129c3.778,5.887,6.027,12.358,7.183,19.233
			c0.283,1.681,0.626,3.351,0.913,4.877c2.793,0.967,25.555,1.112,29.385,0.186c-0.228-4.922-4.38-8.042-6.049-12.559
			c2.434-3.419,4.438-7.241,7.772-10.67c1.205,1.448,2.322,2.452,3.027,3.69c4.578,8.039,7.155,16.672,6.996,25.966
			c-0.129,7.593-0.865,8.192-8.352,8.192c-9.664,0-19.33,0.129-28.99-0.059c-4.344-0.084-8.393,1.146-12.568,1.853
			c-5.093,0.863-10.202,1.632-15.305,2.435c-0.453,0.071-0.915,0.131-1.373,0.13c-8.214-0.016-12.101-4.286-11.22-12.436
			c0.271-2.51,0.753-5.001,1.217-7.486C736.61,287.41,736.859,286.213,738.99,286.072z"/>
	</g>
	<g>
		<path d="M636.309,274.936c-0.346,1.294-0.631,2.608-1.05,3.878c-2.323,7.037,0.912,13.36,8.127,15.157
			c3.646,0.908,7.467,1.611,11.2,1.575c7.923-0.078,15.841-0.697,23.76-1.102c2.412-0.123,4.84-0.145,7.229-0.455
			c1.641-0.213,3.228-0.843,4.936-1.313c-1.073-5.629-5.457-8.534-8.437-12.687c2.976-3.305,5.774-6.412,8.608-9.559
			c4.092,1.952,5.72,5.242,6.822,8.746c2.213,7.038,1.857,14.319,1.59,21.566c-0.11,2.981-2.5,3.656-4.724,4.226
			c-2.444,0.626-4.953,1.038-7.456,1.385c-12.189,1.688-24.372,3.682-36.736,2.946c-3.986-0.237-8.048-0.809-11.869-1.929
			c-10.561-3.098-14.172-12.029-10.58-22.087c1.236-3.461,3.893-6.426,5.991-9.556c0.392-0.585,1.214-0.882,1.837-1.313
			C635.81,274.587,636.06,274.762,636.309,274.936z"/>
	</g>
	<g>
		<path d="M157.053,289.716c-2.588-3.106-5.177-6.213-7.881-9.459c-4.09,1.922-7.801,3.667-11.398,5.358
			c-1.518-0.636-1.445-1.732-0.874-2.641c3.061-4.871,6.199-9.736,11.375-12.673c4.92-2.792,9.026-2.039,12.433,2.489
			c2.339,3.108,4.476,6.434,6.217,9.906c1.698,3.385,3.393,6.528,7.329,7.605c0.057,0.946,0.327,1.705,0.099,2.258
			c-1.399,3.394-2.797,6.8-4.468,10.063c-0.398,0.778-1.839,1.45-2.792,1.441c-4.131-0.041-8.274-0.208-12.387-0.601
			c-6.101-0.583-11.92-0.279-16.064,1.272c0.16,0.979,0.238,2.072,0.524,3.109c1.773,6.429,3.355,12.887,3.878,19.567
			c0.344,4.39,0.471,8.729-1.461,12.848c-0.478,1.019-0.798,2.24-2.598,1.923c-0.145-0.424-0.432-0.923-0.476-1.443
			c-0.806-9.534-2.401-18.921-5.594-27.963c-2.122-6.009-0.565-11.539,1.794-16.995c1.175-2.718,3.243-4.417,6.359-4.55
			c3.325-0.142,6.648-0.329,9.973-0.442c1.814-0.062,3.631-0.011,5.447-0.011C156.676,290.423,156.865,290.069,157.053,289.716z"/>
	</g>
	<g>
		<path d="M66.245,304.47c0.457,2.186,0.758,4.075,1.253,5.911c1.979,7.345,3.7,14.743,3.328,22.407
			c-0.12,2.474-0.869,4.94-1.537,7.352c-0.238,0.861-1.088,1.553-1.658,2.322c-0.262-0.056-0.523-0.113-0.785-0.169
			c-0.451-2.534-1.02-5.053-1.331-7.604c-0.92-7.552-2.495-14.959-4.96-22.148c-2.067-6.029-0.574-11.568,1.96-16.993
			c1.193-2.553,3.208-4.189,6.167-4.318c3.901-0.17,7.804-0.291,11.704-0.463c1.314-0.058,2.623-0.209,4.048-0.327
			c-1.022-2.636-5.259-7.757-7.987-9.829c-4.04,0.978-7.369,4.276-12.623,4.758c0.667-1.717,0.854-2.853,1.468-3.665
			c2.282-3.019,4.609-6.017,7.12-8.845c1.035-1.166,2.498-2.034,3.905-2.774c4.658-2.452,8.748-1.665,11.909,2.515
			c2.143,2.834,4.005,5.896,5.809,8.965c3.513,5.977,3.459,6.009,8.462,9.573c-1.313,4.355-3.446,8.461-5.479,12.628
			C86.876,304.939,76.872,301.651,66.245,304.47z"/>
	</g>
	<g>
		<path d="M837.485,285.82c2.231-4.889,3.968-8.895,6.567-12.795c6.492,5.104,10.986,10.413,11.214,18.432
			c0.194,6.823,0.061,13.562-2.729,19.948c-2.921,6.688-7.36,12.125-13.476,16.171c-5.056,3.344-10.38,3.696-15.686,0.96
			c-6.209-3.202-10.648-8.28-13.888-14.416c-0.295-0.559-0.311-1.265-0.609-2.571c1.376,0.489,2.303,0.726,3.146,1.135
			c3.513,1.707,6.995,3.317,10.984,3.833c6.373,0.826,11.977-0.768,16.501-5.135c2.943-2.841,5.257-6.342,7.782-9.603
			c1.348-1.74,1.299-3.725,0.149-5.49c-1.244-1.909-2.625-3.771-4.201-5.408C841.501,289.075,839.474,287.546,837.485,285.82z"/>
	</g>
	<g>
		<path d="M418.341,285.559c1.641-4.438,3.462-8.42,6.318-12.262c5.065,3.863,9.478,7.862,10.579,14.158
			c1.492,8.537,0.997,16.979-2.632,24.992c-2.761,6.097-7.013,11.082-12.518,14.841c-6.665,4.552-12.989,3.817-18.966-0.369
			c-4.55-3.187-8.192-7.374-10.957-12.237c-0.415-0.73-0.511-1.642-0.992-3.277c1.594,0.569,2.516,0.807,3.357,1.214
			c3.305,1.597,6.539,3.223,10.275,3.811c7.16,1.126,13.224-0.876,18.208-5.956c2.319-2.364,4.203-5.154,6.282-7.753
			c2.022-2.527,1.891-5.181,0.012-7.594c-1.967-2.526-4.224-4.828-6.392-7.193C420.23,287.186,419.423,286.549,418.341,285.559z"/>
	</g>
	<g>
		<path d="M214.122,286.132c0.154,1.068,0.327,2.134,0.458,3.204c0.367,2.988,1.441,4.294,4.361,4.971
			c6.637,1.54,12.911-0.194,19.398-1.866c0.322-4.068-1.391-7.267-2.811-10.423c-1.443-3.209-3.444-6.167-5.323-9.451
			c1.764-3.421,3.415-6.998,6.373-10.527c1.242,1.616,2.311,2.758,3.094,4.07c4.136,6.925,6.283,14.507,7.073,22.481
			c0.362,3.649,0.648,7.322,0.664,10.985c0.015,3.371-1.04,4.696-4.259,5.305c-6.647,1.258-13.336,2.293-20.009,3.414
			c-0.452,0.076-0.913,0.132-1.371,0.135c-8.246,0.062-12.158-4.123-11.352-12.284c0.27-2.737,0.767-5.459,1.305-8.159
			c0.152-0.761,0.817-1.419,1.247-2.125C213.355,285.952,213.739,286.042,214.122,286.132z"/>
	</g>
	<g>
		<path d="M1034.839,306.768c-0.065-1.001-0.185-2.002-0.186-3.003c-0.007-15.507,0.032-31.015-0.026-46.522
			c-0.009-2.418,0.507-4.444,2.136-6.313c2.321-2.663,4.431-5.51,6.68-8.339c1.753,0.787,1.515,2.139,1.52,3.331
			c0.021,5.743,0.007,11.487,0.007,17.23c0,9.419-0.036,18.839,0.03,28.258c0.016,2.279-0.458,4.259-1.861,6.101
			c-1.878,2.464-3.565,5.073-5.396,7.574c-0.565,0.771-1.333,1.394-2.008,2.085C1035.436,307.036,1035.138,306.902,1034.839,306.768
			z"/>
	</g>
	<g>
		<path d="M722.742,242.565c0.203,1.264,0.484,2.205,0.486,3.146c0.027,15.505,0.055,31.01-0.038,46.515
			c-0.009,1.513-0.516,3.202-1.307,4.496c-1.911,3.129-4.102,6.09-6.242,9.074c-0.361,0.504-1.029,0.788-1.888,1.417
			c-0.32-0.989-0.737-1.678-0.738-2.367c-0.028-16.309-0.033-32.618,0.044-48.927c0.006-1.182,0.398-2.559,1.082-3.506
			c2.215-3.068,4.637-5.987,7.014-8.934C721.407,243.166,721.892,243.042,722.742,242.565z"/>
	</g>
	<g>
		<path d="M579.119,306.848c-0.085-0.978-0.242-1.956-0.243-2.935c-0.01-15.645,0.039-31.29-0.034-46.934
			c-0.011-2.456,0.619-4.406,2.266-6.25c2.337-2.615,4.435-5.445,6.635-8.182c0.286,0.085,0.573,0.171,0.859,0.256
			c0.095,1.058,0.27,2.115,0.272,3.173c0.015,13.804-0.305,27.619,0.152,41.408c0.189,5.701-1.075,10.305-4.819,14.45
			c-1.496,1.656-2.693,3.583-4.026,5.387C579.827,307.097,579.473,306.973,579.119,306.848z"/>
	</g>
	<g>
		<path d="M792.329,317.855c1.955-2.042,3.67-3.832,5.573-5.82c3.453,1.599,5.966,4.216,8.949,6.7
			c-1.496,3.027-3.88,4.964-5.978,7.2c-3.577-0.743-5.361-4.113-9.07-5.451c-1.445,1.808-3.001,3.755-4.6,5.756
			c-3.942-1.704-6.357-4.362-9.488-7.008c2.226-2.599,4.122-4.811,6.351-7.413C786.816,313.828,789.354,315.682,792.329,317.855z"/>
	</g>
	<g>
		<path d="M662.985,262.691c1.74-2.07,3.347-3.98,5.093-6.056c3.782,1.524,6.113,4.37,9.193,6.614
			c-1.301,3.362-3.989,5.14-6.325,7.636c-2.743-1.97-5.312-3.815-8.115-5.828c-1.974,1.989-3.793,3.821-5.783,5.826
			c-3.171-2.231-6.204-4.16-8.679-7.46c2.115-2.324,4.08-4.482,6.369-6.996C657.45,258.487,659.877,260.331,662.985,262.691z"/>
	</g>
	<g>
		<path d="M276.669,247.052c2.391-2.62,4.29-4.7,6.511-7.134c2.778,2.019,5.316,3.864,8.367,6.081
			c1.622-2.03,3.173-3.971,4.778-5.98c4.043,1.521,6.366,4.374,9.438,6.605c-1.243,3.378-3.944,5.144-6.298,7.687
			c-2.722-1.969-5.28-3.819-8.115-5.869c-1.946,1.963-3.752,3.784-5.715,5.764C282.307,252.293,279.631,249.949,276.669,247.052z"/>
	</g>
	<g>
		<path d="M956.287,245.366c3.055,2.41,5.72,4.513,8.575,6.764c-1.531,3.244-3.991,5.224-6.413,7.634
			c-1.462-1.05-2.748-1.951-4.007-2.887c-1.187-0.882-2.345-1.803-3.854-2.967c-2.05,1.947-3.994,3.793-6.17,5.86
			c-2.88-2.262-5.829-4.139-8.258-7.078c1.786-2.779,3.604-5.169,6.428-7.054c2.578,1.906,5.039,3.725,7.722,5.709
			C952.256,249.399,954.079,247.574,956.287,245.366z"/>
	</g>
	<g>
		<path d="M225.735,240.378c4.422,1.673,8.545,3.233,12.963,4.905c-1.144,3.977-2.731,7.157-5.041,10.562
			c-4.066-1.576-8.066-3.126-12.349-4.786C221.43,246.841,223.702,243.801,225.735,240.378z"/>
	</g>
	<g>
		<path d="M351.547,311.996c4.777,1.241,9.093,2.761,13.655,5.217c-1.69,3.395-3.229,6.486-4.857,9.758
			c-4.937-1.122-9.206-2.704-13.425-5.303C348.525,318.313,349.98,315.271,351.547,311.996z"/>
	</g>
	<g>
		<path d="M404.812,256.407c1.652-3.474,3.102-6.524,4.655-9.791c4.855,1.363,9.202,2.795,13.528,5.319
			c-1.669,3.416-3.196,6.542-4.852,9.932C413.403,260.391,409.152,258.989,404.812,256.407z"/>
	</g>
	<g>
		<path d="M42.123,292.256c3.577,0.02,6.47,2.813,6.451,6.228c-0.019,3.437-2.63,5.902-6.26,5.91
			c-3.519,0.008-7.222-3.029-7.313-5.997C34.911,295.42,38.602,292.237,42.123,292.256z"/>
	</g>
	<g>
		<path d="M120.667,298.401c0.042,3.843-2.265,6.028-6.327,5.992c-3.552-0.032-6.257-2.542-6.337-5.881
			c-0.087-3.59,2.473-6.129,6.297-6.247C117.983,292.151,120.627,294.7,120.667,298.401z"/>
	</g>
	<g>
		<path d="M186.809,292.278c3.606,0.04,6.334,2.787,6.295,6.338c-0.039,3.592-2.389,5.763-6.257,5.783
			c-3.751,0.019-6.439-2.526-6.436-6.095C180.414,294.52,182.841,292.234,186.809,292.278z"/>
	</g>
	<g>
		<g>
			<path fill="#9FA1A4" d="M590.955,753.033c-3.491,0-6.771,0-10.323,0c-0.391-1.105-0.774-2.152-1.132-3.208
				c-0.959-2.829-3.062-4.591-5.718-4.774c-2.633-0.182-4.911,1.306-6.055,4.189c-2.279,5.743-2.258,11.689-0.847,17.565
				c1.046,4.357,4.416,6.367,8.197,5.526c2.046-0.455,3.565-1.502,4.307-3.548c0.386-1.065,0.864-2.097,1.209-2.924
				c3.668,0,7.034,0,10.648,0c0.068,4.887-1.915,8.516-5.048,11.267c-5.805,5.099-12.836,5.542-19.824,3.392
				c-6.774-2.084-10.76-7.232-12.254-14.125c-1.525-7.034-0.967-13.871,2.184-20.478c2.251-4.719,5.914-7.719,10.845-8.782
				c5.08-1.096,10.29-1.127,15.216,1.033C587.702,740.509,591.543,747.008,590.955,753.033z"/>
		</g>
		<g>
			<path fill="#9FA1A4" d="M529.672,780.607c-9.954,0-19.658,0-29.332,0c-0.942-2.56-1.09-39.783-0.113-43.513
				c3.581-0.778,7.313-0.292,11.527-0.323c0.272,2.151,0.747,4.147,0.737,6.141c-0.038,7.913-0.262,15.825-0.328,23.738
				c-0.011,1.333,0.418,2.67,0.727,4.502c5.601,0,11.041,0,16.782,0C529.672,774.494,529.672,777.293,529.672,780.607z"/>
		</g>
		<g>
			<path fill="#9FA1A4" d="M443.943,737.123c1.245-0.186,2.022-0.391,2.803-0.402c2.859-0.04,5.719-0.016,8.949-0.016
				c0.138,1.621,0.342,2.941,0.347,4.261c0.03,8.395,0.007,16.79,0.024,25.184c0.003,1.359,0.123,2.719,0.207,4.433
				c1.35,0.238,2.531,0.597,3.72,0.627c3.334,0.083,6.672,0.006,10.008,0.045c1.114,0.013,2.226,0.185,3.657,0.313
				c0,3.061,0,5.846,0,8.607c-2.667,0.901-26.178,1.007-29.714,0.092C443.943,766.04,443.943,751.744,443.943,737.123z"/>
		</g>
		<g>
			<path fill="#9FA1A4" d="M535.467,770.742c3.795,0,7.053,0,10.277,0c0.949,2.372,1.084,5.514,0.376,9.762
				c-3.242,0.708-6.604,0.302-10.287,0.248C535.043,777.474,535.545,774.339,535.467,770.742z"/>
		</g>
		<g>
			<path fill="#9FA1A4" d="M490.195,780.601c-3.434,0-6.688,0-10.282,0c-0.533-3.206-0.504-6.304,0-9.633
				c3.45-0.808,6.679-0.432,10.283-0.283C490.195,774.051,490.195,777.062,490.195,780.601z"/>
		</g>
	</g>
	<g>
		<path fill="#09A254" d="M329.869,804.476c-1.194,0.584-2.112,1.171-2.755,1.761c-0.643,0.59-0.965,1.144-0.965,1.661
			c0,0.239,0.278,0.643,0.836,1.213c0.159,0.172,0.278,0.298,0.358,0.378c0.411,0.452,0.716,0.886,0.915,1.303
			c0.199,0.418,0.299,0.838,0.299,1.263c0,0.717-0.249,1.317-0.746,1.8c-0.497,0.484-1.117,0.726-1.86,0.726
			c-0.862,0-1.565-0.341-2.109-1.024c-0.544-0.683-0.816-1.582-0.816-2.695c0-1.524,0.534-2.911,1.602-4.158
			c1.067-1.246,2.648-2.327,4.744-3.242L329.869,804.476z M338.422,804.476c-1.194,0.584-2.108,1.171-2.745,1.761
			c-0.636,0.59-0.955,1.144-0.955,1.661c0,0.239,0.272,0.643,0.816,1.213c0.159,0.172,0.278,0.298,0.358,0.378
			c0.438,0.478,0.756,0.922,0.955,1.333s0.298,0.822,0.298,1.233c0,0.717-0.252,1.317-0.756,1.8
			c-0.504,0.484-1.134,0.726-1.89,0.726c-0.849,0-1.541-0.341-2.078-1.024c-0.537-0.683-0.806-1.582-0.806-2.695
			c0-1.539,0.53-2.93,1.591-4.178c1.061-1.246,2.632-2.32,4.714-3.222L338.422,804.476z"/>
		<path fill="#09A254" d="M342.161,825.701l3.799-16.133c0.119-0.504,0.202-0.908,0.249-1.213c0.046-0.305,0.07-0.583,0.07-0.835
			c0-0.757-0.278-1.327-0.835-1.711c-0.557-0.384-1.499-0.636-2.824-0.755l0.278-0.956h12.631v0.956
			c-1.233,0.093-2.175,0.424-2.825,0.994c-0.65,0.57-1.121,1.472-1.412,2.705l-4.197,17.882c-0.013,0.08-0.04,0.205-0.08,0.378
			c-0.133,0.57-0.199,1.002-0.199,1.294c0,0.875,0.249,1.508,0.746,1.899c0.498,0.392,1.323,0.588,2.476,0.588h0.199l-0.119,0.935
			h-12.233l0.219-0.935c1.101-0.093,1.93-0.451,2.486-1.075C341.147,829.095,341.671,827.757,342.161,825.701z"/>
		<path fill="#09A254" d="M354.175,831.728l3.461-15.038c0.013-0.04,0.026-0.086,0.04-0.139c0.08-0.384,0.119-0.649,0.119-0.795
			c0-0.477-0.169-0.818-0.508-1.025c-0.338-0.205-0.912-0.308-1.72-0.308h-0.338l0.219-0.954c1.127-0.119,2.307-0.272,3.541-0.457
			c1.233-0.186,2.492-0.398,3.779-0.636l-1.174,5.211c1.18-1.751,2.42-3.056,3.72-3.919c1.299-0.862,2.692-1.292,4.177-1.292
			c1.166,0,2.075,0.295,2.725,0.885c0.649,0.59,0.975,1.409,0.975,2.457c0,0.239-0.03,0.54-0.089,0.905
			c-0.06,0.365-0.149,0.766-0.269,1.204l-2.367,8.771c-0.04,0.146-0.093,0.345-0.16,0.596c-0.186,0.717-0.278,1.168-0.278,1.353
			c0,0.265,0.06,0.48,0.179,0.646c0.12,0.166,0.272,0.249,0.458,0.249c0.371,0,0.759-0.186,1.164-0.557
			c0.404-0.371,0.918-1.027,1.541-1.969l0.815,0.457c-0.928,1.631-1.886,2.849-2.874,3.651c-0.988,0.802-2.026,1.203-3.113,1.203
			c-0.862,0-1.515-0.232-1.96-0.696c-0.444-0.464-0.666-1.147-0.666-2.049c0-0.278,0.03-0.583,0.089-0.915
			c0.06-0.331,0.182-0.881,0.368-1.651l2.486-9.189c0.013-0.066,0.04-0.172,0.08-0.319c0.106-0.464,0.159-0.809,0.159-1.034
			c0-0.504-0.123-0.875-0.368-1.113c-0.246-0.239-0.64-0.358-1.184-0.358c-1.273,0-2.579,0.838-3.919,2.515
			c-1.339,1.678-2.301,3.743-2.884,6.197l-1.95,8.115H354.175z"/>
		<path fill="#09A254" d="M400.303,804.099c3.726,0,6.448,0.555,8.165,1.661c1.717,1.107,2.576,2.854,2.576,5.241
			c0,2.718-1.041,4.824-3.123,6.315c-2.082,1.492-5.046,2.238-8.891,2.238c-0.517,0-1.074-0.02-1.671-0.06
			c-0.597-0.04-1.233-0.106-1.91-0.199l-1.671,7.34c-0.013,0.053-0.027,0.119-0.04,0.199c-0.133,0.676-0.199,1.168-0.199,1.472
			c0,0.888,0.245,1.524,0.736,1.909c0.49,0.385,1.3,0.578,2.427,0.578h0.219l-0.119,0.935h-11.895l0.159-0.935
			c1.061-0.093,1.86-0.448,2.397-1.065c0.537-0.616,1.037-1.96,1.502-4.027l3.839-16.55c0.08-0.345,0.139-0.669,0.179-0.974
			s0.06-0.563,0.06-0.775c0-0.689-0.278-1.224-0.835-1.602c-0.557-0.378-1.446-0.633-2.665-0.765l0.278-0.936H400.303z
			 M395.827,817.665c0.331,0.04,0.663,0.073,0.995,0.099c0.331,0.027,0.649,0.04,0.955,0.04c2.52,0,4.518-0.65,5.997-1.95
			c1.478-1.3,2.217-3.043,2.217-5.231c0-1.486-0.471-2.692-1.412-3.621c-0.942-0.928-2.168-1.392-3.68-1.392
			c-0.902,0-1.538,0.156-1.909,0.467c-0.372,0.312-0.683,1.012-0.935,2.099L395.827,817.665z"/>
		<path fill="#09A254" d="M419.12,813.07l-3.103,13.884c0,0.04-0.013,0.113-0.04,0.219c-0.106,0.531-0.159,0.883-0.159,1.055
			c0,0.464,0.119,0.825,0.358,1.084s0.583,0.388,1.034,0.388c0.65,0,1.396-0.368,2.238-1.104c0.842-0.736,1.654-1.741,2.437-3.013
			c0.424-0.677,0.789-1.4,1.094-2.168c0.305-0.769,0.551-1.585,0.736-2.447l1.83-8.056h4.337l-3.382,14.858
			c-0.013,0.028-0.02,0.06-0.02,0.101c-0.04,0.252-0.066,0.437-0.08,0.557c0,0.318,0.063,0.567,0.189,0.746s0.295,0.268,0.508,0.268
			c0.331,0,0.686-0.182,1.064-0.547c0.378-0.365,0.879-1.024,1.502-1.979l0.855,0.457c-0.875,1.605-1.823,2.829-2.844,3.671
			c-1.021,0.842-2.069,1.263-3.143,1.263c-0.783,0-1.386-0.222-1.81-0.666s-0.636-1.077-0.636-1.9c0-0.265,0.04-0.623,0.119-1.074
			s0.219-1.075,0.418-1.87c-1.273,1.844-2.543,3.222-3.809,4.138c-1.266,0.915-2.549,1.372-3.849,1.372
			c-1.074,0-1.946-0.305-2.616-0.915c-0.669-0.61-1.005-1.393-1.005-2.347c0-0.305,0.073-0.822,0.219-1.552l0.02-0.119l2.407-10.681
			c0.013-0.066,0.033-0.166,0.06-0.298c0.066-0.305,0.099-0.517,0.099-0.636c0-0.477-0.169-0.818-0.508-1.025
			c-0.338-0.205-0.918-0.308-1.74-0.308h-0.318l0.199-0.934c1.445-0.159,2.921-0.365,4.426-0.616s2.324-0.378,2.457-0.378
			c0.186,0,0.315,0.026,0.388,0.08c0.073,0.053,0.11,0.139,0.11,0.258c0,0.026-0.007,0.066-0.02,0.119
			C419.126,813.004,419.12,813.044,419.12,813.07z"/>
		<path fill="#09A254" d="M439.409,817.346c0.941-1.63,1.876-2.866,2.805-3.709c0.928-0.842,1.81-1.263,2.646-1.263
			c0.782,0,1.392,0.219,1.83,0.656c0.438,0.437,0.657,1.034,0.657,1.789c0,0.836-0.209,1.506-0.627,2.009
			c-0.418,0.505-0.964,0.757-1.641,0.757c-0.424,0-0.875-0.23-1.353-0.687c-0.477-0.457-0.842-0.686-1.094-0.686
			c-0.756,0-1.575,0.742-2.457,2.228s-1.588,3.375-2.118,5.669l-1.791,7.618h-4.435l3.501-15.018c0.04-0.186,0.07-0.358,0.089-0.517
			c0.02-0.159,0.03-0.305,0.03-0.437c0-0.477-0.169-0.818-0.508-1.025c-0.338-0.205-0.912-0.308-1.72-0.308h-0.338l0.258-0.954
			c1.273-0.133,2.523-0.292,3.75-0.477c1.226-0.186,2.443-0.391,3.65-0.616L439.409,817.346z"/>
		<path fill="#09A254" d="M445.893,832.304l0.975-6.444h1.094c0.345,1.63,0.918,2.868,1.72,3.709
			c0.802,0.843,1.807,1.264,3.013,1.264c0.822,0,1.488-0.235,1.999-0.707c0.51-0.471,0.766-1.077,0.766-1.819
			c0-0.969-0.829-2.334-2.486-4.098c-0.305-0.331-0.537-0.583-0.696-0.756c-1.379-1.486-2.281-2.659-2.705-3.521
			c-0.425-0.862-0.636-1.763-0.636-2.705c0-1.418,0.514-2.583,1.541-3.491c1.027-0.908,2.35-1.362,3.968-1.362
			c1.047,0,2.101,0.169,3.162,0.507c1.061,0.338,1.604,0.507,1.631,0.507c0.212,0,0.405-0.089,0.577-0.268
			c0.172-0.179,0.311-0.427,0.418-0.746h0.935l-0.895,6.027h-1.034c-0.252-1.472-0.749-2.619-1.492-3.441
			c-0.743-0.823-1.638-1.234-2.685-1.234c-0.716,0-1.303,0.199-1.76,0.596c-0.457,0.398-0.686,0.889-0.686,1.472
			c0,0.384,0.099,0.795,0.299,1.233c0.199,0.437,0.477,0.843,0.835,1.214c0.186,0.186,0.451,0.464,0.796,0.835
			c3.023,3.156,4.535,5.689,4.535,7.599c0,1.631-0.583,2.97-1.75,4.018c-1.167,1.047-2.672,1.571-4.516,1.571
			c-0.954,0-1.966-0.179-3.033-0.537c-1.068-0.358-1.661-0.537-1.78-0.537c-0.226,0-0.435,0.093-0.627,0.278
			s-0.361,0.464-0.507,0.835H445.893z"/>
		<path fill="#09A254" d="M470.498,813.07l-3.103,13.884c0,0.04-0.013,0.113-0.04,0.219c-0.106,0.531-0.159,0.883-0.159,1.055
			c0,0.464,0.119,0.825,0.358,1.084c0.239,0.258,0.583,0.388,1.034,0.388c0.65,0,1.396-0.368,2.238-1.104
			c0.842-0.736,1.654-1.741,2.437-3.013c0.424-0.677,0.789-1.4,1.094-2.168c0.305-0.769,0.551-1.585,0.736-2.447l1.83-8.056h4.337
			l-3.382,14.858c-0.013,0.028-0.02,0.06-0.02,0.101c-0.04,0.252-0.066,0.437-0.08,0.557c0,0.318,0.063,0.567,0.189,0.746
			s0.295,0.268,0.508,0.268c0.331,0,0.686-0.182,1.064-0.547c0.378-0.365,0.879-1.024,1.502-1.979l0.855,0.457
			c-0.875,1.605-1.823,2.829-2.844,3.671c-1.021,0.842-2.069,1.263-3.143,1.263c-0.783,0-1.386-0.222-1.81-0.666
			s-0.636-1.077-0.636-1.9c0-0.265,0.04-0.623,0.119-1.074s0.219-1.075,0.418-1.87c-1.273,1.844-2.543,3.222-3.809,4.138
			c-1.266,0.915-2.549,1.372-3.849,1.372c-1.074,0-1.946-0.305-2.616-0.915s-1.005-1.393-1.005-2.347
			c0-0.305,0.073-0.822,0.219-1.552l0.02-0.119l2.407-10.681c0.013-0.066,0.033-0.166,0.06-0.298
			c0.066-0.305,0.099-0.517,0.099-0.636c0-0.477-0.169-0.818-0.508-1.025c-0.338-0.205-0.918-0.308-1.74-0.308h-0.318l0.199-0.934
			c1.445-0.159,2.921-0.365,4.426-0.616s2.324-0.378,2.457-0.378c0.186,0,0.315,0.026,0.388,0.08c0.073,0.053,0.11,0.139,0.11,0.258
			c0,0.026-0.007,0.066-0.02,0.119S470.498,813.044,470.498,813.07z"/>
		<path fill="#09A254" d="M492.379,827.093c-0.862,1.671-1.82,2.944-2.874,3.82c-1.054,0.875-2.158,1.312-3.312,1.312
			c-0.875,0-1.531-0.225-1.969-0.676c-0.438-0.451-0.657-1.127-0.657-2.029c0-0.199,0.02-0.427,0.06-0.686s0.093-0.52,0.159-0.785
			l3.163-11.339c0.053-0.186,0.089-0.355,0.109-0.507c0.02-0.152,0.03-0.302,0.03-0.447c0-0.477-0.169-0.818-0.507-1.025
			c-0.339-0.205-0.918-0.308-1.741-0.308h-0.318l0.199-0.954c1.419-0.146,2.785-0.308,4.097-0.487s2.553-0.381,3.72-0.606
			l-4.078,15.255c-0.066,0.266-0.109,0.458-0.129,0.578c-0.02,0.119-0.03,0.219-0.03,0.298c0,0.278,0.063,0.49,0.189,0.636
			c0.126,0.146,0.308,0.219,0.547,0.219c0.305,0,0.643-0.199,1.015-0.596s0.862-1.095,1.472-2.089L492.379,827.093z
			 M488.838,806.227c0-0.703,0.262-1.319,0.786-1.85c0.524-0.53,1.144-0.795,1.86-0.795c0.73,0,1.353,0.258,1.87,0.775
			c0.517,0.518,0.775,1.141,0.775,1.87c0,0.716-0.265,1.337-0.795,1.86c-0.531,0.524-1.147,0.785-1.85,0.785
			c-0.716,0-1.336-0.262-1.86-0.785C489.1,807.564,488.838,806.943,488.838,806.227z"/>
		<path fill="#09A254" d="M498.605,814.621h-2.944l0.199-1.193c1.976-0.384,3.583-1.113,4.824-2.188
			c1.239-1.074,2.191-2.553,2.854-4.436h1.412l-1.512,6.107h4.158l-0.398,1.71h-4.118l-3.183,13.168
			c-0.027,0.187-0.046,0.326-0.06,0.419s-0.02,0.166-0.02,0.219c0,0.305,0.066,0.537,0.199,0.696
			c0.133,0.159,0.325,0.239,0.577,0.239c0.398,0,0.842-0.235,1.333-0.706c0.49-0.471,1.054-1.196,1.691-2.178l0.816,0.437
			c-1.034,1.83-2.079,3.172-3.133,4.028c-1.054,0.855-2.185,1.282-3.391,1.282c-0.902,0-1.569-0.229-1.999-0.686
			c-0.431-0.457-0.646-1.156-0.646-2.099c0-0.212,0.013-0.434,0.04-0.666c0.026-0.232,0.08-0.527,0.159-0.885L498.605,814.621z"/>
		<path fill="#09A254" d="M525.119,832.304c-2.095,0-3.823-0.696-5.182-2.089c-1.36-1.392-2.039-3.169-2.039-5.331
			c0-1.564,0.325-3.113,0.974-4.644c0.651-1.532,1.592-2.975,2.826-4.327c1.074-1.154,2.233-2.032,3.481-2.636
			c1.246-0.603,2.526-0.905,3.838-0.905c2.122,0,3.836,0.693,5.142,2.078c1.307,1.386,1.96,3.207,1.96,5.46
			c0,1.565-0.351,3.15-1.054,4.754c-0.704,1.605-1.671,3.023-2.904,4.257c-1.128,1.113-2.278,1.956-3.452,2.526
			C527.536,832.019,526.339,832.304,525.119,832.304z M525.119,830.833c0.809,0,1.548-0.258,2.218-0.777
			c0.669-0.517,1.276-1.292,1.819-2.327c0.81-1.591,1.453-3.298,1.93-5.122c0.477-1.823,0.716-3.497,0.716-5.021
			c0-1.26-0.245-2.205-0.736-2.836c-0.49-0.63-1.226-0.944-2.208-0.944c-0.689,0-1.339,0.242-1.948,0.726
			c-0.611,0.485-1.181,1.204-1.711,2.158c-0.902,1.645-1.625,3.402-2.168,5.271c-0.543,1.87-0.815,3.521-0.815,4.953
			c0,1.274,0.249,2.245,0.746,2.914C523.458,830.498,524.177,830.833,525.119,830.833z"/>
		<path fill="#09A254" d="M542.583,814.621h-3.74l0.278-1.71h3.839c0.703-2.93,1.807-5.225,3.312-6.883
			c1.506-1.657,3.225-2.486,5.162-2.486c1.127,0,2.032,0.268,2.715,0.805c0.683,0.538,1.025,1.257,1.025,2.158
			c0,0.677-0.179,1.207-0.538,1.592c-0.358,0.384-0.855,0.577-1.491,0.577c-0.517,0-0.939-0.146-1.264-0.437
			c-0.325-0.292-0.487-0.663-0.487-1.113c0-0.186,0.066-0.465,0.199-0.836c0.133-0.371,0.199-0.649,0.199-0.835
			c0-0.212-0.056-0.358-0.169-0.437s-0.328-0.126-0.646-0.139c-0.756,0-1.429,0.666-2.019,1.998c-0.59,1.333-1.11,3.346-1.561,6.038
			h3.838l-0.298,1.71h-3.819l-2.447,11.816c-0.929,4.535-2.175,7.943-3.74,10.224c-1.565,2.281-3.427,3.421-5.589,3.421
			c-1.1,0-1.979-0.262-2.636-0.785c-0.656-0.524-0.984-1.217-0.984-2.079c0-0.663,0.179-1.193,0.537-1.591
			c0.358-0.399,0.842-0.598,1.451-0.598c0.505,0,0.922,0.149,1.254,0.447c0.331,0.299,0.497,0.667,0.497,1.105
			c0,0.212-0.066,0.487-0.199,0.825c-0.133,0.338-0.199,0.58-0.199,0.726c0,0.12,0.063,0.222,0.189,0.309
			c0.126,0.086,0.275,0.129,0.447,0.129c0.783,0,1.489-0.677,2.119-2.029c0.63-1.353,1.216-3.449,1.761-6.286L542.583,814.621z"/>
		<path fill="#09A254" d="M564.185,804.099h22.736l-1.193,7.062l-1.055-0.02c-0.066-1.882-0.481-3.249-1.243-4.098
			c-0.763-0.848-1.966-1.272-3.611-1.272h-2.725c-1.551,0-2.612,0.205-3.182,0.616c-0.57,0.411-1.027,1.346-1.372,2.805
			l-1.631,7.062c0.053,0,0.126,0,0.219,0c0.875,0.053,1.504,0.08,1.89,0.08c2.002,0,3.56-0.315,4.675-0.944
			c1.113-0.63,1.922-1.648,2.426-3.053h1.134l-2.447,10.522l-1.094-0.02c0.04-0.345,0.07-0.649,0.089-0.916
			c0.02-0.265,0.03-0.497,0.03-0.696c0-1.14-0.379-1.936-1.134-2.387s-2.155-0.676-4.196-0.676c-0.531,0-0.942,0.003-1.234,0.01
			c-0.292,0.007-0.57,0.017-0.835,0.03l-2.009,8.632c-0.04,0.186-0.07,0.365-0.089,0.537s-0.03,0.346-0.03,0.518
			c0,0.729,0.252,1.266,0.755,1.61c0.504,0.345,1.287,0.517,2.347,0.517c3.567,0,6.146-0.398,7.738-1.193
			c1.592-0.795,2.977-2.201,4.158-4.217h1.014l-2.168,7.121h-22.595l0.199-0.935c1.047-0.08,1.833-0.424,2.357-1.035
			c0.524-0.61,1.024-1.962,1.501-4.057l3.84-16.55c0.08-0.371,0.139-0.699,0.179-0.984c0.04-0.285,0.06-0.54,0.06-0.766
			c0-0.717-0.278-1.264-0.836-1.641c-0.557-0.378-1.445-0.613-2.665-0.706V804.099z"/>
		<path fill="#09A254" d="M596.727,820.569c0.265,0.954,0.596,2.221,0.994,3.799c0.876,3.409,1.711,5.112,2.506,5.112
			c0.345,0,0.699-0.146,1.065-0.437c0.365-0.292,0.865-0.848,1.501-1.671l0.577,0.657c-0.755,1.339-1.594,2.38-2.515,3.123
			c-0.922,0.742-1.834,1.113-2.736,1.113c-0.981,0-1.75-0.388-2.306-1.163c-0.558-0.776-1.247-2.781-2.069-6.018
			c-1.631,2.918-2.894,4.844-3.79,5.779c-0.895,0.935-1.813,1.402-2.755,1.402c-0.689,0-1.243-0.229-1.66-0.686
			c-0.419-0.457-0.627-1.057-0.627-1.8c0-0.703,0.189-1.292,0.568-1.77c0.378-0.478,0.825-0.717,1.342-0.717
			c0.371,0,0.815,0.177,1.333,0.527c0.517,0.352,0.835,0.528,0.954,0.528c0.769,0,2.009-1.598,3.719-4.794l0.279-0.497
			c-0.399-1.724-0.803-3.253-1.214-4.585c-0.411-1.333-0.769-2.304-1.074-2.914c-0.187-0.345-0.472-0.606-0.856-0.786
			c-0.384-0.179-0.862-0.268-1.432-0.268c-0.119,0-0.249,0.003-0.388,0.01c-0.139,0.008-0.362,0.023-0.667,0.05l-0.119-0.795
			c1.181-0.252,2.46-0.547,3.84-0.885c1.379-0.338,2.148-0.507,2.307-0.507c0.557,0,1.266,1.511,2.129,4.534
			c0.211,0.717,0.37,1.267,0.477,1.651c1.286-2.228,2.397-3.815,3.331-4.764c0.935-0.948,1.847-1.422,2.735-1.422
			c0.703,0,1.254,0.209,1.651,0.626c0.398,0.417,0.596,0.997,0.596,1.74c0,0.717-0.166,1.297-0.497,1.741
			c-0.333,0.444-0.763,0.666-1.294,0.666c-0.384,0-0.805-0.205-1.263-0.616c-0.457-0.411-0.773-0.616-0.946-0.616
			c-0.398,0-0.862,0.325-1.392,0.974C598.504,817.539,597.734,818.765,596.727,820.569z"/>
		<path fill="#09A254" d="M619.224,828.108c-1.287,1.445-2.586,2.52-3.899,3.222c-1.312,0.703-2.692,1.054-4.138,1.054
			c-1.976,0-3.52-0.587-4.634-1.76c-1.115-1.174-1.671-2.801-1.671-4.883c0-1.234,0.179-2.463,0.537-3.69
			c0.358-1.226,0.881-2.429,1.572-3.61c1.14-1.91,2.546-3.398,4.216-4.466c1.671-1.067,3.435-1.601,5.291-1.601
			c1.486,0,2.669,0.335,3.551,1.004c0.881,0.669,1.322,1.562,1.322,2.675c0,0.742-0.209,1.332-0.626,1.771
			c-0.418,0.437-0.991,0.656-1.721,0.656c-0.61,0-1.103-0.166-1.481-0.497c-0.378-0.331-0.567-0.777-0.567-1.333
			c0-0.371,0.143-0.782,0.427-1.233s0.427-0.717,0.427-0.796c0-0.278-0.123-0.497-0.368-0.656c-0.245-0.159-0.58-0.239-1.005-0.239
			c-0.769,0-1.561,0.321-2.376,0.964c-0.816,0.644-1.575,1.555-2.278,2.735c-0.743,1.207-1.317,2.524-1.721,3.949
			c-0.404,1.426-0.606,2.854-0.606,4.287c0,1.432,0.302,2.529,0.905,3.292c0.603,0.762,1.476,1.143,2.616,1.143
			c0.756,0,1.535-0.215,2.337-0.646s1.8-1.176,2.993-2.238L619.224,828.108z"/>
		<path fill="#09A254" d="M635.892,827.809c-1.219,1.459-2.523,2.566-3.908,3.323c-1.386,0.756-2.801,1.133-4.247,1.133
			c-1.897,0-3.375-0.57-4.435-1.71c-1.062-1.141-1.592-2.718-1.592-4.734c0-1.525,0.328-3.083,0.984-4.675
			c0.657-1.592,1.575-3.063,2.755-4.416c1.274-1.432,2.636-2.523,4.088-3.272s2.927-1.123,4.426-1.123
			c1.326,0,2.399,0.328,3.222,0.984c0.822,0.656,1.233,1.509,1.233,2.556c0,1.817-0.898,3.351-2.695,4.605
			c-1.797,1.253-4.91,2.477-9.338,3.669c0,0.053,0,0.133,0,0.239c-0.053,0.596-0.08,1.009-0.08,1.234
			c0,1.379,0.278,2.43,0.835,3.153s1.365,1.084,2.427,1.084c0.822,0,1.671-0.232,2.546-0.696c0.875-0.464,1.863-1.2,2.964-2.208
			L635.892,827.809z M626.723,822.518c2.321-0.649,4.197-1.62,5.629-2.914c1.433-1.292,2.148-2.616,2.148-3.968
			c0-0.543-0.152-0.971-0.457-1.284c-0.306-0.312-0.724-0.467-1.254-0.467c-1.166,0-2.298,0.773-3.391,2.317
			C628.305,817.748,627.412,819.852,626.723,822.518z"/>
		<path fill="#09A254" d="M639.79,828.048l4.814-20.19c0-0.04,0.013-0.106,0.04-0.199c0.08-0.345,0.119-0.59,0.119-0.737
			c0-0.49-0.169-0.838-0.507-1.044c-0.338-0.205-0.918-0.308-1.741-0.308h-0.318l0.199-0.934c1.128-0.106,2.331-0.25,3.611-0.429
			c1.279-0.179,2.642-0.401,4.087-0.666l-5.708,24.088c-0.04,0.187-0.07,0.352-0.089,0.498c-0.02,0.146-0.03,0.272-0.03,0.378
			c0,0.292,0.053,0.507,0.159,0.646c0.106,0.139,0.272,0.209,0.497,0.209c0.318,0,0.673-0.205,1.065-0.616
			c0.391-0.411,0.878-1.1,1.461-2.069l0.856,0.417c-0.863,1.645-1.82,2.912-2.874,3.8c-1.055,0.888-2.146,1.332-3.273,1.332
			c-0.835,0-1.471-0.222-1.909-0.666c-0.439-0.444-0.657-1.09-0.657-1.94c0-0.278,0.017-0.543,0.05-0.795
			C639.674,828.572,639.724,828.313,639.79,828.048z"/>
		<path fill="#09A254" d="M651.189,828.048l4.814-20.19c0-0.04,0.013-0.106,0.04-0.199c0.08-0.345,0.119-0.59,0.119-0.737
			c0-0.49-0.169-0.838-0.507-1.044c-0.338-0.205-0.918-0.308-1.741-0.308h-0.318l0.199-0.934c1.128-0.106,2.331-0.25,3.611-0.429
			c1.279-0.179,2.642-0.401,4.087-0.666l-5.709,24.088c-0.04,0.187-0.07,0.352-0.089,0.498c-0.02,0.146-0.03,0.272-0.03,0.378
			c0,0.292,0.053,0.507,0.159,0.646c0.106,0.139,0.272,0.209,0.497,0.209c0.318,0,0.673-0.205,1.065-0.616
			c0.391-0.411,0.878-1.1,1.461-2.069l0.856,0.417c-0.863,1.645-1.82,2.912-2.874,3.8c-1.055,0.888-2.146,1.332-3.273,1.332
			c-0.835,0-1.471-0.222-1.909-0.666c-0.439-0.444-0.657-1.09-0.657-1.94c0-0.278,0.017-0.543,0.05-0.795
			C651.073,828.572,651.122,828.313,651.189,828.048z"/>
		<path fill="#09A254" d="M675.833,827.809c-1.219,1.459-2.523,2.566-3.908,3.323c-1.386,0.756-2.801,1.133-4.247,1.133
			c-1.897,0-3.375-0.57-4.435-1.71c-1.061-1.141-1.592-2.718-1.592-4.734c0-1.525,0.328-3.083,0.984-4.675
			c0.657-1.592,1.575-3.063,2.755-4.416c1.274-1.432,2.636-2.523,4.088-3.272c1.453-0.749,2.927-1.123,4.426-1.123
			c1.326,0,2.399,0.328,3.222,0.984c0.822,0.656,1.233,1.509,1.233,2.556c0,1.817-0.898,3.351-2.695,4.605
			c-1.797,1.253-4.91,2.477-9.338,3.669c0,0.053,0,0.133,0,0.239c-0.053,0.596-0.08,1.009-0.08,1.234
			c0,1.379,0.278,2.43,0.835,3.153c0.557,0.722,1.365,1.084,2.427,1.084c0.822,0,1.671-0.232,2.546-0.696
			c0.875-0.464,1.863-1.2,2.964-2.208L675.833,827.809z M666.664,822.518c2.321-0.649,4.197-1.62,5.629-2.914
			c1.433-1.292,2.148-2.616,2.148-3.968c0-0.543-0.152-0.971-0.457-1.284c-0.306-0.312-0.724-0.467-1.254-0.467
			c-1.166,0-2.297,0.773-3.391,2.317C668.246,817.748,667.353,819.852,666.664,822.518z"/>
		<path fill="#09A254" d="M678.917,831.728l3.461-15.038c0.013-0.04,0.026-0.086,0.04-0.139c0.08-0.384,0.119-0.649,0.119-0.795
			c0-0.477-0.169-0.818-0.507-1.025c-0.338-0.205-0.911-0.308-1.72-0.308h-0.339l0.22-0.954c1.127-0.119,2.306-0.272,3.54-0.457
			c1.233-0.186,2.493-0.398,3.779-0.636l-1.173,5.211c1.18-1.751,2.42-3.056,3.719-3.919c1.3-0.862,2.692-1.292,4.178-1.292
			c1.166,0,2.076,0.295,2.725,0.885c0.649,0.59,0.974,1.409,0.974,2.457c0,0.239-0.03,0.54-0.089,0.905s-0.149,0.766-0.268,1.204
			l-2.367,8.771c-0.04,0.146-0.093,0.345-0.159,0.596c-0.186,0.717-0.278,1.168-0.278,1.353c0,0.265,0.06,0.48,0.179,0.646
			c0.119,0.166,0.272,0.249,0.457,0.249c0.371,0,0.759-0.186,1.164-0.557c0.404-0.371,0.918-1.027,1.541-1.969l0.816,0.457
			c-0.929,1.631-1.887,2.849-2.874,3.651c-0.989,0.802-2.026,1.203-3.114,1.203c-0.862,0-1.514-0.232-1.958-0.696
			c-0.445-0.464-0.667-1.147-0.667-2.049c0-0.278,0.03-0.583,0.089-0.915c0.06-0.331,0.182-0.881,0.369-1.651l2.486-9.189
			c0.012-0.066,0.04-0.172,0.08-0.319c0.106-0.464,0.159-0.809,0.159-1.034c0-0.504-0.123-0.875-0.368-1.113
			c-0.246-0.239-0.641-0.358-1.184-0.358c-1.272,0-2.579,0.838-3.918,2.515c-1.34,1.678-2.301,3.743-2.885,6.197l-1.948,8.115
			H678.917z"/>
		<path fill="#09A254" d="M715.02,828.108c-1.287,1.445-2.586,2.52-3.899,3.222c-1.312,0.703-2.692,1.054-4.138,1.054
			c-1.976,0-3.52-0.587-4.634-1.76c-1.115-1.174-1.671-2.801-1.671-4.883c0-1.234,0.179-2.463,0.537-3.69
			c0.358-1.226,0.881-2.429,1.572-3.61c1.14-1.91,2.546-3.398,4.216-4.466c1.671-1.067,3.435-1.601,5.291-1.601
			c1.486,0,2.669,0.335,3.551,1.004c0.881,0.669,1.322,1.562,1.322,2.675c0,0.742-0.209,1.332-0.626,1.771
			c-0.418,0.437-0.991,0.656-1.721,0.656c-0.61,0-1.104-0.166-1.481-0.497c-0.378-0.331-0.567-0.777-0.567-1.333
			c0-0.371,0.142-0.782,0.427-1.233c0.285-0.451,0.427-0.717,0.427-0.796c0-0.278-0.123-0.497-0.368-0.656
			c-0.245-0.159-0.58-0.239-1.005-0.239c-0.769,0-1.561,0.321-2.376,0.964c-0.816,0.644-1.575,1.555-2.278,2.735
			c-0.743,1.207-1.317,2.524-1.721,3.949c-0.404,1.426-0.606,2.854-0.606,4.287c0,1.432,0.302,2.529,0.905,3.292
			c0.603,0.762,1.476,1.143,2.616,1.143c0.756,0,1.535-0.215,2.337-0.646c0.802-0.431,1.8-1.176,2.993-2.238L715.02,828.108z"/>
		<path fill="#09A254" d="M731.688,827.809c-1.219,1.459-2.523,2.566-3.908,3.323c-1.386,0.756-2.801,1.133-4.247,1.133
			c-1.897,0-3.375-0.57-4.435-1.71c-1.061-1.141-1.592-2.718-1.592-4.734c0-1.525,0.328-3.083,0.984-4.675
			c0.657-1.592,1.575-3.063,2.755-4.416c1.274-1.432,2.636-2.523,4.088-3.272c1.453-0.749,2.927-1.123,4.426-1.123
			c1.326,0,2.399,0.328,3.222,0.984c0.822,0.656,1.233,1.509,1.233,2.556c0,1.817-0.898,3.351-2.695,4.605
			c-1.797,1.253-4.91,2.477-9.338,3.669c0,0.053,0,0.133,0,0.239c-0.053,0.596-0.08,1.009-0.08,1.234
			c0,1.379,0.278,2.43,0.835,3.153c0.557,0.722,1.365,1.084,2.427,1.084c0.822,0,1.671-0.232,2.546-0.696s1.863-1.2,2.964-2.208
			L731.688,827.809z M722.519,822.518c2.321-0.649,4.197-1.62,5.629-2.914c1.433-1.292,2.148-2.616,2.148-3.968
			c0-0.543-0.152-0.971-0.457-1.284c-0.306-0.312-0.724-0.467-1.254-0.467c-1.166,0-2.298,0.773-3.391,2.317
			C724.1,817.748,723.208,819.852,722.519,822.518z"/>
		<path fill="#09A254" d="M737.297,813.527c1.206-0.596,2.125-1.183,2.755-1.761c0.63-0.577,0.944-1.117,0.944-1.62
			c0-0.252-0.245-0.643-0.736-1.174c-0.186-0.186-0.331-0.338-0.437-0.457c-0.424-0.464-0.733-0.905-0.924-1.322
			c-0.193-0.419-0.289-0.833-0.289-1.244c0-0.716,0.245-1.309,0.737-1.781c0.49-0.471,1.113-0.706,1.87-0.706
			c0.848,0,1.548,0.331,2.098,0.994c0.55,0.664,0.826,1.525,0.826,2.586c0,1.605-0.528,3.031-1.582,4.277
			c-1.054,1.247-2.642,2.334-4.764,3.262L737.297,813.527z M745.889,813.527c1.207-0.596,2.129-1.183,2.765-1.761
			c0.637-0.577,0.956-1.117,0.956-1.62c0-0.239-0.246-0.61-0.737-1.115c-0.212-0.212-0.378-0.384-0.497-0.517
			c-0.411-0.464-0.716-0.905-0.915-1.322c-0.199-0.419-0.298-0.833-0.298-1.244c0-0.716,0.245-1.309,0.736-1.781
			c0.49-0.471,1.115-0.706,1.87-0.706c0.848,0,1.548,0.331,2.099,0.994c0.55,0.664,0.825,1.525,0.825,2.586
			c0,1.605-0.524,3.034-1.572,4.287c-1.047,1.254-2.626,2.337-4.734,3.252L745.889,813.527z"/>
	</g>
</g>
</svg>
